  0
SECTION
  2
HEADER
  9
$ACADVER
  1
AC1015
  9
$ACADMAINTVER
 70
     6
  9
$DWGCODEPAGE
  3
ANSI_1254
  9
$INSBASE
 10
0.0
 20
0.0
 30
0.0
  9
$EXTMIN
 10
0.0
 20
0.0
 30
0.0
  9
$EXTMAX
 10
297.0
 20
210.0
 30
0.0
  9
$LIMMIN
 10
0.0
 20
0.0
  9
$LIMMAX
 10
297.0
 20
210.0
  9
$ORTHOMODE
 70
     0
  9
$REGENMODE
 70
     1
  9
$FILLMODE
 70
     1
  9
$QTEXTMODE
 70
     0
  9
$MIRRTEXT
 70
     1
  9
$LTSCALE
 40
1.0
  9
$ATTMODE
 70
     1
  9
$TEXTSIZE
 40
3.5277777778
  9
$TRACEWID
 40
1.0
  9
$TEXTSTYLE
  7
Standard
  9
$CLAYER
  8
0
  9
$CELTYPE
  6
ByLayer
  9
$CECOLOR
 62
   256
  9
$CELTSCALE
 40
1.0
  9
$DISPSILH
 70
     0
  9
$DIMSCALE
 40
1.0
  9
$DIMASZ
 40
2.0
  9
$DIMEXO
 40
1.0
  9
$DIMDLI
 40
3.75
  9
$DIMRND
 40
0.0
  9
$DIMDLE
 40
0.0
  9
$DIMEXE
 40
1.0
  9
$DIMTP
 40
0.0
  9
$DIMTM
 40
0.0
  9
$DIMTXT
 40
3.5277777778
  9
$DIMCEN
 40
2.5
  9
$DIMTSZ
 40
0.0
  9
$DIMTOL
 70
     0
  9
$DIMLIM
 70
     0
  9
$DIMTIH
 70
     1
  9
$DIMTOH
 70
     1
  9
$DIMSE1
 70
     0
  9
$DIMSE2
 70
     0
  9
$DIMTAD
 70
     1
  9
$DIMZIN
 70
     0
  9
$DIMBLK
  1

  9
$DIMASO
 70
     1
  9
$DIMSHO
 70
     1
  9
$DIMPOST
  1

  9
$DIMAPOST
  1

  9
$DIMALT
 70
     0
  9
$DIMALTD
 70
     3
  9
$DIMALTF
 40
0.0393700787
  9
$DIMLFAC
 40
1.0
  9
$DIMTOFL
 70
     1
  9
$DIMTVP
 40
0.0
  9
$DIMTIX
 70
     0
  9
$DIMSOXD
 70
     0
  9
$DIMSAH
 70
     0
  9
$DIMBLK1
  1

  9
$DIMBLK2
  1

  9
$DIMSTYLE
  2
ISO-25
  9
$DIMCLRD
 70
     0
  9
$DIMCLRE
 70
     0
  9
$DIMCLRT
 70
     0
  9
$DIMTFAC
 40
1.0
  9
$DIMGAP
 40
1.524
  9
$DIMJUST
 70
     0
  9
$DIMSD1
 70
     0
  9
$DIMSD2
 70
     0
  9
$DIMTOLJ
 70
     0
  9
$DIMTZIN
 70
     0
  9
$DIMALTZ
 70
     0
  9
$DIMALTTZ
 70
     0
  9
$DIMUPT
 70
     0
  9
$DIMDEC
 70
     2
  9
$DIMTDEC
 70
     2
  9
$DIMALTU
 70
     2
  9
$DIMALTTD
 70
     3
  9
$DIMTXSTY
  7
Standard
  9
$DIMAUNIT
 70
     0
  9
$DIMADEC
 70
     2
  9
$DIMALTRND
 40
0.0
  9
$DIMAZIN
 70
     0
  9
$DIMDSEP
 70
    44
  9
$DIMATFIT
 70
     3
  9
$DIMFRAC
 70
     0
  9
$DIMLDRBLK
  1

  9
$DIMLUNIT
 70
     2
  9
$DIMLWD
 70
    -2
  9
$DIMLWE
 70
    -2
  9
$DIMTMOVE
 70
     0
  9
$LUNITS
 70
     2
  9
$LUPREC
 70
     2
  9
$SKETCHINC
 40
1.0
  9
$FILLETRAD
 40
0.0
  9
$AUNITS
 70
     1
  9
$AUPREC
 70
     2
  9
$MENU
  1
.
  9
$ELEVATION
 40
0.0
  9
$PELEVATION
 40
0.0
  9
$THICKNESS
 40
0.0
  9
$LIMCHECK
 70
     0
  9
$CHAMFERA
 40
0.0
  9
$CHAMFERB
 40
0.0
  9
$CHAMFERC
 40
0.0
  9
$CHAMFERD
 40
0.0
  9
$SKPOLY
 70
     0
  9
$TDCREATE
 40
2460071.401496817
  9
$TDUCREATE
 40
2460071.276496817
  9
$TDUPDATE
 40
2460071.401498021
  9
$TDUUPDATE
 40
2460071.276498021
  9
$TDINDWG
 40
0.0000000116
  9
$TDUSRTIMER
 40
0.0000000116
  9
$USRTIMER
 70
     1
  9
$ANGBASE
 50
0.0
  9
$ANGDIR
 70
     0
  9
$PDMODE
 70
     0
  9
$PDSIZE
 40
-1.0
  9
$PLINEWID
 40
0.0
  9
$SPLFRAME
 70
     0
  9
$SPLINETYPE
 70
     6
  9
$SPLINESEGS
 70
     8
  9
$HANDSEED
  5
2D5
  9
$SURFTAB1
 70
     6
  9
$SURFTAB2
 70
     6
  9
$SURFTYPE
 70
     6
  9
$SURFU
 70
     6
  9
$SURFV
 70
     6
  9
$UCSBASE
  2

  9
$UCSNAME
  2

  9
$UCSORG
 10
0.0
 20
0.0
 30
0.0
  9
$UCSXDIR
 10
1.0
 20
0.0
 30
0.0
  9
$UCSYDIR
 10
0.0
 20
1.0
 30
0.0
  9
$UCSORTHOREF
  2

  9
$UCSORTHOVIEW
 70
     0
  9
$UCSORGTOP
 10
0.0
 20
0.0
 30
0.0
  9
$UCSORGBOTTOM
 10
0.0
 20
0.0
 30
0.0
  9
$UCSORGLEFT
 10
0.0
 20
0.0
 30
0.0
  9
$UCSORGRIGHT
 10
0.0
 20
0.0
 30
0.0
  9
$UCSORGFRONT
 10
0.0
 20
0.0
 30
0.0
  9
$UCSORGBACK
 10
0.0
 20
0.0
 30
0.0
  9
$PUCSBASE
  2

  9
$PUCSNAME
  2

  9
$PUCSORG
 10
0.0
 20
0.0
 30
0.0
  9
$PUCSXDIR
 10
1.0
 20
0.0
 30
0.0
  9
$PUCSYDIR
 10
0.0
 20
1.0
 30
0.0
  9
$PUCSORTHOREF
  2

  9
$PUCSORTHOVIEW
 70
     0
  9
$PUCSORGTOP
 10
0.0
 20
0.0
 30
0.0
  9
$PUCSORGBOTTOM
 10
0.0
 20
0.0
 30
0.0
  9
$PUCSORGLEFT
 10
0.0
 20
0.0
 30
0.0
  9
$PUCSORGRIGHT
 10
0.0
 20
0.0
 30
0.0
  9
$PUCSORGFRONT
 10
0.0
 20
0.0
 30
0.0
  9
$PUCSORGBACK
 10
0.0
 20
0.0
 30
0.0
  9
$USERI1
 70
     0
  9
$USERI2
 70
     0
  9
$USERI3
 70
     0
  9
$USERI4
 70
     0
  9
$USERI5
 70
     0
  9
$USERR1
 40
0.0
  9
$USERR2
 40
0.0
  9
$USERR3
 40
0.0
  9
$USERR4
 40
0.0
  9
$USERR5
 40
0.0
  9
$WORLDVIEW
 70
     1
  9
$SHADEDGE
 70
     3
  9
$SHADEDIF
 70
    70
  9
$TILEMODE
 70
     1
  9
$MAXACTVP
 70
    64
  9
$PINSBASE
 10
0.0
 20
0.0
 30
0.0
  9
$PLIMCHECK
 70
     0
  9
$PEXTMIN
 10
1.0000000000E+20
 20
1.0000000000E+20
 30
1.0000000000E+20
  9
$PEXTMAX
 10
-1.0000000000E+20
 20
-1.0000000000E+20
 30
-1.0000000000E+20
  9
$PLIMMIN
 10
0.0
 20
0.0
  9
$PLIMMAX
 10
420.0
 20
297.0
  9
$UNITMODE
 70
     0
  9
$VISRETAIN
 70
     1
  9
$PLINEGEN
 70
     0
  9
$PSLTSCALE
 70
     1
  9
$TREEDEPTH
 70
  3020
  9
$CMLSTYLE
  2
Standard
  9
$CMLJUST
 70
     0
  9
$CMLSCALE
 40
20.0
  9
$PROXYGRAPHICS
 70
     1
  9
$MEASUREMENT
 70
     1
  9
$CELWEIGHT
370
    -1
  9
$ENDCAPS
280
     0
  9
$JOINSTYLE
280
     0
  9
$LWDISPLAY
290
     1
  9
$INSUNITS
 70
     4
  9
$HYPERLINKBASE
  1

  9
$STYLESHEET
  1

  9
$XEDIT
290
     1
  9
$CEPSNTYPE
380
     0
  9
$PSTYLEMODE
290
     1
  9
$FINGERPRINTGUID
  2
{80ffe758-b83f-4f45-8b21-5eebe33b8dc7}
  9
$VERSIONGUID
  2
{FAEB1C32-E019-11D5-929B-00C0DF256EC4}
  9
$EXTNAMES
290
     1
  9
$PSVPSCALE
 40
0.0
  9
$OLESTARTUP
290
     0
  0
ENDSEC
  0
SECTION
  2
CLASSES
  0
CLASS
  1
ACDBDICTIONARYWDFLT
  2
AcDbDictionaryWithDefault
  3
ObjectDBX Classes
 90
        0
280
     0
281
     0
  0
CLASS
  1
VISUALSTYLE
  2
AcDbVisualStyle
  3
ObjectDBX Classes
 90
     4095
280
     0
281
     0
  0
CLASS
  1
MATERIAL
  2
AcDbMaterial
  3
ObjectDBX Classes
 90
     1153
280
     0
281
     0
  0
CLASS
  1
SCALE
  2
AcDbScale
  3
ObjectDBX Classes
 90
     1153
280
     0
281
     0
  0
CLASS
  1
TABLESTYLE
  2
AcDbTableStyle
  3
ObjectDBX Classes
 90
     4095
280
     0
281
     0
  0
CLASS
  1
MLEADERSTYLE
  2
AcDbMLeaderStyle
  3
ACDB_MLEADERSTYLE_CLASS
 90
     4095
280
     0
281
     0
  0
CLASS
  1
SUN
  2
AcDbSun
  3
SCENEOE
 90
     1153
280
     0
281
     0
  0
CLASS
  1
ACDBPLACEHOLDER
  2
AcDbPlaceHolder
  3
ObjectDBX Classes
 90
        0
280
     0
281
     0
  0
CLASS
  1
LAYOUT
  2
AcDbLayout
  3
ObjectDBX Classes
 90
        0
280
     0
281
     0
  0
ENDSEC
  0
SECTION
  2
TABLES
  0
TABLE
  2
VPORT
  5
8
330
0
100
AcDbSymbolTable
 70
     1
  0
VPORT
  5
29
330
8
100
AcDbSymbolTableRecord
100
AcDbViewportTableRecord
  2
*Active
 70
     0
 10
0.0
 20
0.0
 11
1.0
 21
1.0
 12
148.5
 22
105.0
 13
0.0
 23
0.0
 14
10.0
 24
10.0
 15
10.0
 25
10.0
 16
0.0
 26
0.0
 36
1.0
 17
0.0
 27
0.0
 37
0.0
 40
210.0
 41
1.4142857143
 42
50.0
 43
0.0
 44
0.0
 50
0.0
 51
0.0
 71
     0
 72
  2000
 73
     1
 74
     3
 75
     0
 76
     0
 77
     0
 78
     0
281
     0
 65
     1
110
0.0
120
0.0
130
0.0
111
1.0
121
0.0
131
0.0
112
0.0
122
1.0
132
0.0
 79
     0
146
0.0
  0
ENDTAB
  0
TABLE
  2
LTYPE
  5
5
330
0
100
AcDbSymbolTable
 70
     6
  0
LTYPE
  5
14
330
5
100
AcDbSymbolTableRecord
100
AcDbLinetypeTableRecord
  2
ByBlock
 70
     0
  3

 72
    65
 73
     0
 40
0.0
  0
LTYPE
  5
15
330
5
100
AcDbSymbolTableRecord
100
AcDbLinetypeTableRecord
  2
ByLayer
 70
     0
  3

 72
    65
 73
     0
 40
0.0
  0
LTYPE
  5
16
330
5
100
AcDbSymbolTableRecord
100
AcDbLinetypeTableRecord
  2
Continuous
 70
     0
  3
Solid line
 72
    65
 73
     0
 40
0.0
  0
LTYPE
  5
5E
330
5
100
AcDbSymbolTableRecord
100
AcDbLinetypeTableRecord
  2
HIDDEN
 70
     0
  3
Hidden __ __ __ __ __ __ __ __ __ __ __ __ __ __
 72
    65
 73
     2
 40
1.905
 49
1.27
 74
     0
 49
-0.635
 74
     0
  0
LTYPE
  5
5F
330
5
100
AcDbSymbolTableRecord
100
AcDbLinetypeTableRecord
  2
PHANTOM
 70
     0
  3
Phantom ______  __  __  ______  __  __  ______
 72
    65
 73
     6
 40
12.7
 49
6.35
 74
     0
 49
-1.27
 74
     0
 49
1.27
 74
     0
 49
-1.27
 74
     0
 49
1.27
 74
     0
 49
-1.27
 74
     0
  0
LTYPE
  5
60
330
5
100
AcDbSymbolTableRecord
100
AcDbLinetypeTableRecord
  2
CENTER
 70
     0
  3
Center ____ _ ____ _ ____ _ ____ _ ____ _ ____
 72
    65
 73
     4
 40
10.16
 49
6.35
 74
     0
 49
-1.27
 74
     0
 49
1.27
 74
     0
 49
-1.27
 74
     0
  0
LTYPE
  5
61
330
5
100
AcDbSymbolTableRecord
100
AcDbLinetypeTableRecord
  2
CENTERX2
 70
     0
  3
Center (2x) ________  __  ________  __  _____
 72
    65
 73
     4
 40
20.32
 49
12.7
 74
     0
 49
-2.54
 74
     0
 49
2.54
 74
     0
 49
-2.54
 74
     0
  0
LTYPE
  5
62
330
5
100
AcDbSymbolTableRecord
100
AcDbLinetypeTableRecord
  2
DOT2
 70
     0
  3
Dot (.5x) ........................................
 72
    65
 73
     2
 40
0.635
 49
0.0
 74
     0
 49
-0.635
 74
     0
  0
ENDTAB
  0
TABLE
  2
LAYER
  5
2
330
0
100
AcDbSymbolTable
 70
     1
  0
LAYER
  5
10
330
2
100
AcDbSymbolTableRecord
100
AcDbLayerTableRecord
  2
0
 70
     0
 62
     7
  6
Continuous
370
    -3
390
F
  0
ENDTAB
  0
TABLE
  2
STYLE
  5
3
330
0
100
AcDbSymbolTable
 70
     4
  0
STYLE
  5
11
330
3
100
AcDbSymbolTableRecord
100
AcDbTextStyleTableRecord
  2
Standard
 70
     0
 40
0.0
 41
1.0
 50
0.0
 71
     0
 42
3.5277777778
  3
txt
  4

  0
STYLE
  5
C6
330
3
100
AcDbSymbolTableRecord
100
AcDbTextStyleTableRecord
  2
SLDTEXTSTYLE0
 70
     0
 40
0.0
 41
0.5721875
 50
0.0
 71
     0
 42
3.5277777778
  3
TXT
  4

  0
STYLE
  5
C9
330
3
100
AcDbSymbolTableRecord
100
AcDbTextStyleTableRecord
  2
SLDTEXTSTYLE1
 70
     0
 40
0.0
 41
0.605
 50
0.0
 71
     0
 42
3.5277777778
  3
TXT
  4

  0
STYLE
  5
CC
330
3
100
AcDbSymbolTableRecord
100
AcDbTextStyleTableRecord
  2
SLDTEXTSTYLE2
 70
     0
 40
0.0
 41
0.5675
 50
0.0
 71
     0
 42
3.5277777778
  3
TXT
  4

  0
ENDTAB
  0
TABLE
  2
VIEW
  5
6
330
0
100
AcDbSymbolTable
 70
     0
  0
ENDTAB
  0
TABLE
  2
UCS
  5
7
330
0
100
AcDbSymbolTable
 70
     0
  0
ENDTAB
  0
TABLE
  2
APPID
  5
9
330
0
100
AcDbSymbolTable
 70
     1
  0
APPID
  5
12
330
9
100
AcDbSymbolTableRecord
100
AcDbRegAppTableRecord
  2
ACAD
 70
     0
  0
ENDTAB
  0
TABLE
  2
DIMSTYLE
  5
A
330
0
100
AcDbSymbolTable
 70
     1
100
AcDbDimStyleTable
  0
DIMSTYLE
105
27
330
A
100
AcDbSymbolTableRecord
100
AcDbDimStyleTableRecord
  2
ISO-25
 70
     0
 41
2.5
 42
0.625
 43
3.75
 44
1.25
 73
     0
 74
     0
 77
     1
 78
     8
140
2.5
141
2.5
143
0.0393700787
147
0.625
171
     3
172
     1
178
     0
271
     2
272
     2
274
     3
278
    44
283
     0
284
     8
340
11
  0
ENDTAB
  0
TABLE
  2
BLOCK_RECORD
  5
1
330
0
100
AcDbSymbolTable
 70
     1
  0
BLOCK_RECORD
  5
1F
330
1
100
AcDbSymbolTableRecord
100
AcDbBlockTableRecord
  2
*Model_Space
340
22
  0
BLOCK_RECORD
  5
1B
330
1
100
AcDbSymbolTableRecord
100
AcDbBlockTableRecord
  2
*Paper_Space
340
1E
  0
BLOCK_RECORD
  5
23
330
1
100
AcDbSymbolTableRecord
100
AcDbBlockTableRecord
  2
*Paper_Space0
340
26
  0
ENDTAB
  0
ENDSEC
  0
SECTION
  2
BLOCKS
  0
BLOCK
  5
20
330
1F
100
AcDbEntity
  8
0
100
AcDbBlockBegin
  2
*Model_Space
 70
     0
 10
0.0
 20
0.0
 30
0.0
  3
*Model_Space
  1

  0
ENDBLK
  5
21
330
1F
100
AcDbEntity
  8
0
100
AcDbBlockEnd
  0
BLOCK
  5
1C
330
1B
100
AcDbEntity
 67
     1
  8
0
100
AcDbBlockBegin
  2
*Paper_Space
 70
     0
 10
0.0
 20
0.0
 30
0.0
  3
*Paper_Space
  1

  0
ENDBLK
  5
1D
330
1B
100
AcDbEntity
 67
     1
  8
0
100
AcDbBlockEnd
  0
BLOCK
  5
24
330
23
100
AcDbEntity
  8
0
100
AcDbBlockBegin
  2
*Paper_Space0
 70
     0
 10
0.0
 20
0.0
 30
0.0
  3
*Paper_Space0
  1

  0
ENDBLK
  5
25
330
23
100
AcDbEntity
  8
0
100
AcDbBlockEnd
  0
ENDSEC
  0
SECTION
  2
ENTITIES
  0
LINE
  5
63
330
1F
100
AcDbEntity
  8
0
  6
CENTER
 62
     7
100
AcDbLine
 10
516.243039376
 20
-43.2218666481
 30
0.0
 11
176.243039376
 21
-43.2218666481
 31
0.0
  0
LINE
  5
64
330
1F
100
AcDbEntity
  8
0
  6
CENTER
 62
     7
100
AcDbLine
 10
140.243039376
 20
-170.782485645
 30
0.0
 11
242.243039376
 21
-170.782485645
 31
0.0
  0
LINE
  5
65
330
1F
100
AcDbEntity
  8
0
  6
CENTER
 62
     7
100
AcDbLine
 10
648.243039376
 20
-43.2218666481
 30
0.0
 11
586.243039376
 21
-43.2218666481
 31
0.0
  0
LINE
  5
66
330
1F
100
AcDbEntity
  8
0
  6
CENTER
 62
     7
100
AcDbLine
 10
267.243039376
 20
-170.782485645
 30
0.0
 11
369.243039376
 21
-170.782485645
 31
0.0
  0
LINE
  5
67
330
1F
100
AcDbEntity
  8
0
  6
CENTER
 62
     7
100
AcDbLine
 10
394.243039376
 20
-170.782485645
 30
0.0
 11
496.243039376
 21
-170.782485645
 31
0.0
  0
LINE
  5
68
330
1F
100
AcDbEntity
  8
0
  6
CENTER
 62
     7
100
AcDbLine
 10
521.243039376
 20
-170.782485645
 30
0.0
 11
623.243039376
 21
-170.782485645
 31
0.0
  0
LINE
  5
69
330
1F
100
AcDbEntity
  8
0
  6
CENTER
 62
     7
100
AcDbLine
 10
-113.756960624
 20
-170.782485645
 30
0.0
 11
-11.756960624
 21
-170.782485645
 31
0.0
  0
LINE
  5
6A
330
1F
100
AcDbEntity
  8
0
  6
CENTER
 62
     7
100
AcDbLine
 10
-240.756960624
 20
-170.782485645
 30
0.0
 11
-138.756960624
 21
-170.782485645
 31
0.0
  0
LINE
  5
6B
330
1F
100
AcDbEntity
  8
0
  6
CENTER
 62
     7
100
AcDbLine
 10
13.243039376
 20
-170.782485645
 30
0.0
 11
115.243039376
 21
-170.782485645
 31
0.0
  0
LINE
  5
6C
330
1F
100
AcDbEntity
  8
0
  6
CENTER
 62
     7
100
AcDbLine
 10
695.246622937
 20
-153.0021761465
 30
0.0
 11
695.246622937
 21
-61.0021761465
 31
0.0
  0
LINE
  5
6D
330
1F
100
AcDbEntity
  8
0
  6
CENTER
 62
     7
100
AcDbLine
 10
-312.760544185
 20
-153.0021761465
 30
0.0
 11
-312.760544185
 21
-61.0021761465
 31
0.0
  0
LINE
  5
6E
330
1F
100
AcDbEntity
  8
0
  6
CENTER
 62
     7
100
AcDbLine
 10
673.7442338963
 20
-153.0021761465
 30
0.0
 11
673.7442338963
 21
-61.0021761465
 31
0.0
  0
LINE
  5
6F
330
1F
100
AcDbEntity
  8
0
  6
CENTER
 62
     7
100
AcDbLine
 10
-291.2581551443
 20
-153.0021761465
 30
0.0
 11
-291.2581551443
 21
-61.0021761465
 31
0.0
  0
LINE
  5
70
330
1F
100
AcDbEntity
  8
0
  6
CENTER
 62
     7
100
AcDbLine
 10
-203.756960624
 20
-43.2218666481
 30
0.0
 11
-265.756960624
 21
-43.2218666481
 31
0.0
  0
LINE
  5
71
330
1F
100
AcDbEntity
  8
0
  6
CENTER
 62
     7
100
AcDbLine
 10
106.243039376
 20
-43.2218666481
 30
0.0
 11
-133.756960624
 21
-43.2218666481
 31
0.0
  0
CIRCLE
  5
72
330
1F
100
AcDbEntity
  8
0
  6
Continuous
 62
     7
370
    35
100
AcDbCircle
 10
-323.2617387054
 20
-72.0021761465
 30
0.0
 40
3.25
  0
CIRCLE
  5
73
330
1F
100
AcDbEntity
  8
0
  6
Continuous
 62
     7
370
    35
100
AcDbCircle
 10
-323.2617387054
 20
-142.0021761465
 30
0.0
 40
3.25
  0
CIRCLE
  5
74
330
1F
100
AcDbEntity
  8
0
  6
Continuous
 62
     7
370
    35
100
AcDbCircle
 10
705.7478174573
 20
-72.0021761465
 30
0.0
 40
3.25
  0
CIRCLE
  5
75
330
1F
100
AcDbEntity
  8
0
  6
Continuous
 62
     7
370
    35
100
AcDbCircle
 10
705.7478174573
 20
-142.0021761465
 30
0.0
 40
3.25
  0
LINE
  5
76
330
1F
100
AcDbEntity
  8
0
  6
Continuous
 62
     7
370
    35
100
AcDbLine
 10
623.243039376
 20
-168.0021761465
 30
0.0
 11
623.243039376
 21
-189.5627951434
 31
0.0
  0
LINE
  5
77
330
1F
100
AcDbEntity
  8
0
  6
Continuous
 62
     7
370
    35
100
AcDbLine
 10
521.243039376
 20
-189.5627951434
 30
0.0
 11
623.243039376
 21
-189.5627951434
 31
0.0
  0
LINE
  5
78
330
1F
100
AcDbEntity
  8
0
  6
Continuous
 62
     7
370
    35
100
AcDbLine
 10
521.243039376
 20
-189.5627951434
 30
0.0
 11
521.243039376
 21
-168.0021761465
 31
0.0
  0
LINE
  5
79
330
1F
100
AcDbEntity
  8
0
  6
Continuous
 62
     7
370
    35
100
AcDbLine
 10
496.243039376
 20
-168.0021761465
 30
0.0
 11
521.243039376
 21
-168.0021761465
 31
0.0
  0
LINE
  5
7A
330
1F
100
AcDbEntity
  8
0
  6
Continuous
 62
     7
370
    35
100
AcDbLine
 10
496.243039376
 20
-168.0021761465
 30
0.0
 11
496.243039376
 21
-189.5627951434
 31
0.0
  0
LINE
  5
7B
330
1F
100
AcDbEntity
  8
0
  6
Continuous
 62
     7
370
    35
100
AcDbLine
 10
394.243039376
 20
-189.5627951434
 30
0.0
 11
496.243039376
 21
-189.5627951434
 31
0.0
  0
LINE
  5
7C
330
1F
100
AcDbEntity
  8
0
  6
Continuous
 62
     7
370
    35
100
AcDbLine
 10
394.243039376
 20
-189.5627951434
 30
0.0
 11
394.243039376
 21
-168.0021761465
 31
0.0
  0
LINE
  5
7D
330
1F
100
AcDbEntity
  8
0
  6
Continuous
 62
     7
370
    35
100
AcDbLine
 10
369.243039376
 20
-168.0021761465
 30
0.0
 11
394.243039376
 21
-168.0021761465
 31
0.0
  0
LINE
  5
7E
330
1F
100
AcDbEntity
  8
0
  6
Continuous
 62
     7
370
    35
100
AcDbLine
 10
369.243039376
 20
-168.0021761465
 30
0.0
 11
369.243039376
 21
-189.5627951434
 31
0.0
  0
LINE
  5
7F
330
1F
100
AcDbEntity
  8
0
  6
Continuous
 62
     7
370
    35
100
AcDbLine
 10
267.243039376
 20
-189.5627951434
 30
0.0
 11
369.243039376
 21
-189.5627951434
 31
0.0
  0
LINE
  5
80
330
1F
100
AcDbEntity
  8
0
  6
Continuous
 62
     7
370
    35
100
AcDbLine
 10
267.243039376
 20
-189.5627951434
 30
0.0
 11
267.243039376
 21
-168.0021761465
 31
0.0
  0
LINE
  5
81
330
1F
100
AcDbEntity
  8
0
  6
Continuous
 62
     7
370
    35
100
AcDbLine
 10
242.243039376
 20
-168.0021761465
 30
0.0
 11
267.243039376
 21
-168.0021761465
 31
0.0
  0
LINE
  5
82
330
1F
100
AcDbEntity
  8
0
  6
Continuous
 62
     7
370
    35
100
AcDbLine
 10
242.243039376
 20
-168.0021761465
 30
0.0
 11
242.243039376
 21
-189.5627951434
 31
0.0
  0
LINE
  5
83
330
1F
100
AcDbEntity
  8
0
  6
Continuous
 62
     7
370
    35
100
AcDbLine
 10
140.243039376
 20
-189.5627951434
 30
0.0
 11
242.243039376
 21
-189.5627951434
 31
0.0
  0
LINE
  5
84
330
1F
100
AcDbEntity
  8
0
  6
Continuous
 62
     7
370
    35
100
AcDbLine
 10
140.243039376
 20
-189.5627951434
 30
0.0
 11
140.243039376
 21
-168.0021761465
 31
0.0
  0
LINE
  5
85
330
1F
100
AcDbEntity
  8
0
  6
Continuous
 62
     7
370
    35
100
AcDbLine
 10
115.243039376
 20
-168.0021761465
 30
0.0
 11
140.243039376
 21
-168.0021761465
 31
0.0
  0
LINE
  5
86
330
1F
100
AcDbEntity
  8
0
  6
Continuous
 62
     7
370
    35
100
AcDbLine
 10
115.243039376
 20
-168.0021761465
 30
0.0
 11
115.243039376
 21
-186.5627951434
 31
0.0
  0
ARC
  5
87
330
1F
100
AcDbEntity
  8
0
  6
Continuous
 62
     7
370
    35
100
AcDbCircle
 10
112.243039376
 20
-186.5627951434
 30
0.0
 40
3.0
100
AcDbArc
 50
270.0
 51
0.0
  0
LINE
  5
88
330
1F
100
AcDbEntity
  8
0
  6
Continuous
 62
     7
370
    35
100
AcDbLine
 10
16.243039376
 20
-189.5627951434
 30
0.0
 11
112.243039376
 21
-189.5627951434
 31
0.0
  0
ARC
  5
89
330
1F
100
AcDbEntity
  8
0
  6
Continuous
 62
     7
370
    35
100
AcDbCircle
 10
16.243039376
 20
-186.5627951434
 30
0.0
 40
3.000000000000004
100
AcDbArc
 50
180.0
 51
270.0
  0
LINE
  5
8A
330
1F
100
AcDbEntity
  8
0
  6
Continuous
 62
     7
370
    35
100
AcDbLine
 10
13.243039376
 20
-186.5627951434
 30
0.0
 11
13.243039376
 21
-168.0021761465
 31
0.0
  0
LINE
  5
8B
330
1F
100
AcDbEntity
  8
0
  6
Continuous
 62
     7
370
    35
100
AcDbLine
 10
-11.756960624
 20
-168.0021761465
 30
0.0
 11
13.243039376
 21
-168.0021761465
 31
0.0
  0
LINE
  5
8C
330
1F
100
AcDbEntity
  8
0
  6
Continuous
 62
     7
370
    35
100
AcDbLine
 10
-11.756960624
 20
-168.0021761465
 30
0.0
 11
-11.756960624
 21
-189.5627951434
 31
0.0
  0
LINE
  5
8D
330
1F
100
AcDbEntity
  8
0
  6
Continuous
 62
     7
370
    35
100
AcDbLine
 10
-113.756960624
 20
-189.5627951434
 30
0.0
 11
-11.756960624
 21
-189.5627951434
 31
0.0
  0
LINE
  5
8E
330
1F
100
AcDbEntity
  8
0
  6
Continuous
 62
     7
370
    35
100
AcDbLine
 10
-113.756960624
 20
-189.5627951434
 30
0.0
 11
-113.756960624
 21
-168.0021761465
 31
0.0
  0
LINE
  5
8F
330
1F
100
AcDbEntity
  8
0
  6
Continuous
 62
     7
370
    35
100
AcDbLine
 10
-138.756960624
 20
-168.0021761465
 30
0.0
 11
-113.756960624
 21
-168.0021761465
 31
0.0
  0
LINE
  5
90
330
1F
100
AcDbEntity
  8
0
  6
Continuous
 62
     7
370
    35
100
AcDbLine
 10
-138.756960624
 20
-168.0021761465
 30
0.0
 11
-138.756960624
 21
-186.5627951434
 31
0.0
  0
ARC
  5
91
330
1F
100
AcDbEntity
  8
0
  6
Continuous
 62
     7
370
    35
100
AcDbCircle
 10
-141.756960624
 20
-186.5627951434
 30
0.0
 40
3.0
100
AcDbArc
 50
270.0
 51
0.0
  0
LINE
  5
92
330
1F
100
AcDbEntity
  8
0
  6
Continuous
 62
     7
370
    35
100
AcDbLine
 10
-237.756960624
 20
-189.5627951434
 30
0.0
 11
-141.756960624
 21
-189.5627951434
 31
0.0
  0
ARC
  5
93
330
1F
100
AcDbEntity
  8
0
  6
Continuous
 62
     7
370
    35
100
AcDbCircle
 10
-237.756960624
 20
-186.5627951434
 30
0.0
 40
3.0
100
AcDbArc
 50
180.0
 51
270.0
  0
LINE
  5
94
330
1F
100
AcDbEntity
  8
0
  6
Continuous
 62
     7
370
    35
100
AcDbLine
 10
-240.756960624
 20
-186.5627951434
 30
0.0
 11
-240.756960624
 21
-168.0021761465
 31
0.0
  0
LINE
  5
95
330
1F
100
AcDbEntity
  8
0
  6
Continuous
 62
     7
370
    35
100
AcDbLine
 10
-286.256960624
 20
-168.0021761465
 30
0.0
 11
-240.756960624
 21
-168.0021761465
 31
0.0
  0
ARC
  5
96
330
1F
100
AcDbEntity
  8
0
  6
Continuous
 62
     7
370
    35
100
AcDbCircle
 10
-286.256960624
 20
-165.0021761465
 30
0.0
 40
3.0
100
AcDbArc
 50
180.0
 51
270.0
  0
LINE
  5
97
330
1F
100
AcDbEntity
  8
0
  6
Continuous
 62
     7
370
    35
100
AcDbLine
 10
-289.256960624
 20
-153.0021761465
 30
0.0
 11
-289.256960624
 21
-165.0021761465
 31
0.0
  0
LINE
  5
98
330
1F
100
AcDbEntity
  8
0
  6
Continuous
 62
     7
370
    35
100
AcDbLine
 10
-289.256960624
 20
-153.0021761465
 30
0.0
 11
-326.7617387054
 21
-153.0021761465
 31
0.0
  0
ARC
  5
99
330
1F
100
AcDbEntity
  8
0
  6
Continuous
 62
     7
370
    35
100
AcDbCircle
 10
-326.7617387054
 20
-150.0021761465
 30
0.0
 40
3.0
100
AcDbArc
 50
180.0
 51
270.0
  0
LINE
  5
9A
330
1F
100
AcDbEntity
  8
0
  6
Continuous
 62
     7
370
    35
100
AcDbLine
 10
-329.7617387054
 20
-150.0021761465
 30
0.0
 11
-329.7617387054
 21
-64.0021761465
 31
0.0
  0
ARC
  5
9B
330
1F
100
AcDbEntity
  8
0
  6
Continuous
 62
     7
370
    35
100
AcDbCircle
 10
-326.7617387054
 20
-64.0021761465
 30
0.0
 40
3.0
100
AcDbArc
 50
90.0
 51
180.0
  0
LINE
  5
9C
330
1F
100
AcDbEntity
  8
0
  6
Continuous
 62
     7
370
    35
100
AcDbLine
 10
-326.7617387054
 20
-61.0021761465
 30
0.0
 11
-289.256960624
 21
-61.0021761465
 31
0.0
  0
LINE
  5
9D
330
1F
100
AcDbEntity
  8
0
  6
Continuous
 62
     7
370
    35
100
AcDbLine
 10
-289.256960624
 20
-49.0021761465
 30
0.0
 11
-289.256960624
 21
-61.0021761465
 31
0.0
  0
ARC
  5
9E
330
1F
100
AcDbEntity
  8
0
  6
Continuous
 62
     7
370
    35
100
AcDbCircle
 10
-286.256960624
 20
-49.0021761465
 30
0.0
 40
3.0
100
AcDbArc
 50
90.0
 51
180.0
  0
LINE
  5
9F
330
1F
100
AcDbEntity
  8
0
  6
Continuous
 62
     7
370
    35
100
AcDbLine
 10
-286.256960624
 20
-46.0021761465
 30
0.0
 11
-265.756960624
 21
-46.0021761465
 31
0.0
  0
LINE
  5
A0
330
1F
100
AcDbEntity
  8
0
  6
Continuous
 62
     7
370
    35
100
AcDbLine
 10
-265.756960624
 20
-46.0021761465
 30
0.0
 11
-265.756960624
 21
-24.4415571497
 31
0.0
  0
LINE
  5
A1
330
1F
100
AcDbEntity
  8
0
  6
Continuous
 62
     7
370
    35
100
AcDbLine
 10
-203.756960624
 20
-24.4415571497
 30
0.0
 11
-265.756960624
 21
-24.4415571497
 31
0.0
  0
LINE
  5
A2
330
1F
100
AcDbEntity
  8
0
  6
Continuous
 62
     7
370
    35
100
AcDbLine
 10
-203.756960624
 20
-24.4415571497
 30
0.0
 11
-203.756960624
 21
-46.0021761465
 31
0.0
  0
LINE
  5
A3
330
1F
100
AcDbEntity
  8
0
  6
Continuous
 62
     7
370
    35
100
AcDbLine
 10
-133.756960624
 20
-46.0021761465
 30
0.0
 11
-203.756960624
 21
-46.0021761465
 31
0.0
  0
LINE
  5
A4
330
1F
100
AcDbEntity
  8
0
  6
Continuous
 62
     7
370
    35
100
AcDbLine
 10
-133.756960624
 20
-46.0021761465
 30
0.0
 11
-133.756960624
 21
-27.4415571497
 31
0.0
  0
ARC
  5
A5
330
1F
100
AcDbEntity
  8
0
  6
Continuous
 62
     7
370
    35
100
AcDbCircle
 10
-130.756960624
 20
-27.4415571497
 30
0.0
 40
3.0
100
AcDbArc
 50
90.0
 51
180.0
  0
LINE
  5
A6
330
1F
100
AcDbEntity
  8
0
  6
Continuous
 62
     7
370
    35
100
AcDbLine
 10
103.243039376
 20
-24.4415571497
 30
0.0
 11
-130.756960624
 21
-24.4415571497
 31
0.0
  0
ARC
  5
A7
330
1F
100
AcDbEntity
  8
0
  6
Continuous
 62
     7
370
    35
100
AcDbCircle
 10
103.243039376
 20
-27.4415571497
 30
0.0
 40
3.000000000000014
100
AcDbArc
 50
0.0
 51
90.0
  0
LINE
  5
A8
330
1F
100
AcDbEntity
  8
0
  6
Continuous
 62
     7
370
    35
100
AcDbLine
 10
106.243039376
 20
-27.4415571497
 30
0.0
 11
106.243039376
 21
-46.0021761465
 31
0.0
  0
LINE
  5
A9
330
1F
100
AcDbEntity
  8
0
  6
Continuous
 62
     7
370
    35
100
AcDbLine
 10
176.243039376
 20
-46.0021761465
 30
0.0
 11
106.243039376
 21
-46.0021761465
 31
0.0
  0
LINE
  5
AA
330
1F
100
AcDbEntity
  8
0
  6
Continuous
 62
     7
370
    35
100
AcDbLine
 10
176.243039376
 20
-46.0021761465
 30
0.0
 11
176.243039376
 21
-27.4415571497
 31
0.0
  0
ARC
  5
AB
330
1F
100
AcDbEntity
  8
0
  6
Continuous
 62
     7
370
    35
100
AcDbCircle
 10
179.243039376
 20
-27.4415571497
 30
0.0
 40
3.0
100
AcDbArc
 50
90.0
 51
180.0
  0
LINE
  5
AC
330
1F
100
AcDbEntity
  8
0
  6
Continuous
 62
     7
370
    35
100
AcDbLine
 10
513.243039376
 20
-24.4415571497
 30
0.0
 11
179.243039376
 21
-24.4415571497
 31
0.0
  0
ARC
  5
AD
330
1F
100
AcDbEntity
  8
0
  6
Continuous
 62
     7
370
    35
100
AcDbCircle
 10
513.243039376
 20
-27.4415571497
 30
0.0
 40
3.0
100
AcDbArc
 50
0.0
 51
90.0
  0
LINE
  5
AE
330
1F
100
AcDbEntity
  8
0
  6
Continuous
 62
     7
370
    35
100
AcDbLine
 10
516.243039376
 20
-27.4415571497
 30
0.0
 11
516.243039376
 21
-46.0021761465
 31
0.0
  0
LINE
  5
AF
330
1F
100
AcDbEntity
  8
0
  6
Continuous
 62
     7
370
    35
100
AcDbLine
 10
586.243039376
 20
-46.0021761465
 30
0.0
 11
516.243039376
 21
-46.0021761465
 31
0.0
  0
LINE
  5
B0
330
1F
100
AcDbEntity
  8
0
  6
Continuous
 62
     7
370
    35
100
AcDbLine
 10
586.243039376
 20
-46.0021761465
 30
0.0
 11
586.243039376
 21
-24.4415571497
 31
0.0
  0
LINE
  5
B1
330
1F
100
AcDbEntity
  8
0
  6
Continuous
 62
     7
370
    35
100
AcDbLine
 10
648.243039376
 20
-24.4415571497
 30
0.0
 11
586.243039376
 21
-24.4415571497
 31
0.0
  0
LINE
  5
B2
330
1F
100
AcDbEntity
  8
0
  6
Continuous
 62
     7
370
    35
100
AcDbLine
 10
648.243039376
 20
-24.4415571497
 30
0.0
 11
648.243039376
 21
-46.0021761465
 31
0.0
  0
LINE
  5
B3
330
1F
100
AcDbEntity
  8
0
  6
Continuous
 62
     7
370
    35
100
AcDbLine
 10
668.743039376
 20
-46.0021761465
 30
0.0
 11
648.243039376
 21
-46.0021761465
 31
0.0
  0
ARC
  5
B4
330
1F
100
AcDbEntity
  8
0
  6
Continuous
 62
     7
370
    35
100
AcDbCircle
 10
668.743039376
 20
-49.0021761465
 30
0.0
 40
3.000000000000114
100
AcDbArc
 50
0.0
 51
90.0
  0
LINE
  5
B5
330
1F
100
AcDbEntity
  8
0
  6
Continuous
 62
     7
370
    35
100
AcDbLine
 10
671.743039376
 20
-61.0021761465
 30
0.0
 11
671.743039376
 21
-49.0021761465
 31
0.0
  0
LINE
  5
B6
330
1F
100
AcDbEntity
  8
0
  6
Continuous
 62
     7
370
    35
100
AcDbLine
 10
671.743039376
 20
-61.0021761465
 30
0.0
 11
709.2478174573
 21
-61.0021761465
 31
0.0
  0
ARC
  5
B7
330
1F
100
AcDbEntity
  8
0
  6
Continuous
 62
     7
370
    35
100
AcDbCircle
 10
709.2478174573
 20
-64.0021761465
 30
0.0
 40
3.0
100
AcDbArc
 50
0.0
 51
90.0
  0
LINE
  5
B8
330
1F
100
AcDbEntity
  8
0
  6
Continuous
 62
     7
370
    35
100
AcDbLine
 10
712.2478174573
 20
-64.0021761465
 30
0.0
 11
712.2478174573
 21
-150.0021761465
 31
0.0
  0
ARC
  5
B9
330
1F
100
AcDbEntity
  8
0
  6
Continuous
 62
     7
370
    35
100
AcDbCircle
 10
709.2478174573
 20
-150.0021761465
 30
0.0
 40
3.0
100
AcDbArc
 50
270.0
 51
0.0
  0
LINE
  5
BA
330
1F
100
AcDbEntity
  8
0
  6
Continuous
 62
     7
370
    35
100
AcDbLine
 10
709.2478174573
 20
-153.0021761465
 30
0.0
 11
671.743039376
 21
-153.0021761465
 31
0.0
  0
LINE
  5
BB
330
1F
100
AcDbEntity
  8
0
  6
Continuous
 62
     7
370
    35
100
AcDbLine
 10
671.743039376
 20
-165.0021761465
 30
0.0
 11
671.743039376
 21
-153.0021761465
 31
0.0
  0
ARC
  5
BC
330
1F
100
AcDbEntity
  8
0
  6
Continuous
 62
     7
370
    35
100
AcDbCircle
 10
668.743039376
 20
-165.0021761465
 30
0.0
 40
3.0
100
AcDbArc
 50
270.0
 51
0.0
  0
LINE
  5
BD
330
1F
100
AcDbEntity
  8
0
  6
Continuous
 62
     7
370
    35
100
AcDbLine
 10
623.243039376
 20
-168.0021761465
 30
0.0
 11
668.743039376
 21
-168.0021761465
 31
0.0
  0
CIRCLE
  5
BE
330
1F
100
AcDbEntity
  8
0
  6
Continuous
 62
     7
370
    35
100
AcDbCircle
 10
-253.256960624
 20
-156.3528909668
 30
0.0
 40
1.249999999999972
  0
CIRCLE
  5
BF
330
1F
100
AcDbEntity
  8
0
  6
Continuous
 62
     7
370
    35
100
AcDbCircle
 10
-126.256960624
 20
-156.3528909668
 30
0.0
 40
1.249999999999972
  0
CIRCLE
  5
C0
330
1F
100
AcDbEntity
  8
0
  6
Continuous
 62
     7
370
    35
100
AcDbCircle
 10
0.743039376
 20
-156.3528909668
 30
0.0
 40
1.250000000000001
  0
CIRCLE
  5
C1
330
1F
100
AcDbEntity
  8
0
  6
Continuous
 62
     7
370
    35
100
AcDbCircle
 10
127.743039376
 20
-156.3528909668
 30
0.0
 40
1.25
  0
CIRCLE
  5
C2
330
1F
100
AcDbEntity
  8
0
  6
Continuous
 62
     7
370
    35
100
AcDbCircle
 10
254.743039376
 20
-156.3528909668
 30
0.0
 40
1.249999999999972
  0
CIRCLE
  5
C3
330
1F
100
AcDbEntity
  8
0
  6
Continuous
 62
     7
370
    35
100
AcDbCircle
 10
381.743039376
 20
-156.3528909668
 30
0.0
 40
1.25
  0
CIRCLE
  5
C4
330
1F
100
AcDbEntity
  8
0
  6
Continuous
 62
     7
370
    35
100
AcDbCircle
 10
508.743039376
 20
-156.3528909668
 30
0.0
 40
1.25
  0
CIRCLE
  5
C5
330
1F
100
AcDbEntity
  8
0
  6
Continuous
 62
     7
370
    35
100
AcDbCircle
 10
635.743039376
 20
-156.3528909668
 30
0.0
 40
1.25
  0
MTEXT
  5
C7
330
1F
100
AcDbEntity
  8
0
  6
Continuous
 62
     7
370
     0
100
AcDbMText
 10
345.9107782656
 20
-39.873639512
 30
0.0
 40
2.6458333333
 41
0.0
 71
     2
 72
     1
  1
DOWN  90°0'  R 2
  7
SLDTEXTSTYLE0
 73
     1
 44
1.0
  0
MTEXT
  5
C8
330
1F
100
AcDbEntity
  8
0
  6
Continuous
 62
     7
370
     0
100
AcDbMText
 10
190.9107782656
 20
-167.3104961326
 30
0.0
 40
2.6458333333
 41
0.0
 71
     2
 72
     1
  1
DOWN  90°0'  R 2
  7
SLDTEXTSTYLE0
 73
     1
 44
1.0
  0
MTEXT
  5
CA
330
1F
100
AcDbEntity
  8
0
  6
Continuous
 62
     7
370
     0
100
AcDbMText
 10
105.4921032714
 20
-87.5895555587
 30
0.0
 40
9.525
 41
0.0
 71
     1
 72
     1
  1
DKP SAC
  7
SLDTEXTSTYLE1
 73
     1
 44
1.0
  0
MTEXT
  5
CB
330
1F
100
AcDbEntity
  8
0
  6
Continuous
 62
     7
370
     0
100
AcDbMText
 10
105.4921032714
 20
-100.2895554052
 30
0.0
 40
9.525
 41
0.0
 71
     1
 72
     1
  1
2 mm
  7
SLDTEXTSTYLE1
 73
     1
 44
1.0
  0
MTEXT
  5
CD
330
1F
100
AcDbEntity
  8
0
  6
Continuous
 62
     7
370
     0
100
AcDbMText
 10
691.7845343458
 20
-107.3819013991
 30
0.0
 40
2.6458333333
 41
0.0
 71
     2
 72
     1
  1
UP  90°0'  R 2
  7
SLDTEXTSTYLE2
 11
-3.491481338843133E-15
 21
1.0
 31
0.0
 73
     1
 44
1.0
  0
MTEXT
  5
CE
330
1F
100
AcDbEntity
  8
0
  6
Continuous
 62
     7
370
     0
100
AcDbMText
 10
-316.2226327762
 20
-107.3819013991
 30
0.0
 40
2.6458333333
 41
0.0
 71
     2
 72
     1
  1
UP  90°0'  R 2
  7
SLDTEXTSTYLE2
 11
-3.491481338843133E-15
 21
1.0
 31
0.0
 73
     1
 44
1.0
  0
MTEXT
  5
CF
330
1F
100
AcDbEntity
  8
0
  6
Continuous
 62
     7
370
     0
100
AcDbMText
 10
670.2821453052
 20
-107.3344372569
 30
0.0
 40
2.6458333333
 41
0.0
 71
     2
 72
     1
  1
DOWN  90°0'  R 2
  7
SLDTEXTSTYLE0
 11
-3.491481338843133E-15
 21
1.0
 31
0.0
 73
     1
 44
1.0
  0
MTEXT
  5
D0
330
1F
100
AcDbEntity
  8
0
  6
Continuous
 62
     7
370
     0
100
AcDbMText
 10
-294.7202437355
 20
-107.3344372569
 30
0.0
 40
2.6458333333
 41
0.0
 71
     2
 72
     1
  1
DOWN  90°0'  R 2
  7
SLDTEXTSTYLE0
 11
-3.491481338843133E-15
 21
1.0
 31
0.0
 73
     1
 44
1.0
  0
ARC
  5
D1
330
1F
100
AcDbEntity
  8
0
  6
HIDDEN
 62
     7
370
    18
100
AcDbCircle
 10
-253.256960624
 20
-156.3528909668
 30
0.0
 40
1.500000000000004
100
AcDbArc
 50
255.0
 51
195.0
  0
ARC
  5
D2
330
1F
100
AcDbEntity
  8
0
  6
HIDDEN
 62
     7
370
    18
100
AcDbCircle
 10
-126.256960624
 20
-156.3528909668
 30
0.0
 40
1.500000000000004
100
AcDbArc
 50
255.0
 51
195.0
  0
ARC
  5
D3
330
1F
100
AcDbEntity
  8
0
  6
HIDDEN
 62
     7
370
    18
100
AcDbCircle
 10
0.743039376
 20
-156.3528909668
 30
0.0
 40
1.499999999999998
100
AcDbArc
 50
255.0
 51
195.0
  0
ARC
  5
D4
330
1F
100
AcDbEntity
  8
0
  6
HIDDEN
 62
     7
370
    18
100
AcDbCircle
 10
127.743039376
 20
-156.3528909668
 30
0.0
 40
1.500000000000011
100
AcDbArc
 50
255.0
 51
195.0
  0
ARC
  5
D5
330
1F
100
AcDbEntity
  8
0
  6
HIDDEN
 62
     7
370
    18
100
AcDbCircle
 10
254.743039376
 20
-156.3528909668
 30
0.0
 40
1.499999999999976
100
AcDbArc
 50
255.0
 51
195.0
  0
ARC
  5
D6
330
1F
100
AcDbEntity
  8
0
  6
HIDDEN
 62
     7
370
    18
100
AcDbCircle
 10
381.743039376
 20
-156.3528909668
 30
0.0
 40
1.499999999999991
100
AcDbArc
 50
255.0
 51
195.0
  0
ARC
  5
D7
330
1F
100
AcDbEntity
  8
0
  6
HIDDEN
 62
     7
370
    18
100
AcDbCircle
 10
508.743039376
 20
-156.3528909668
 30
0.0
 40
1.499999999999976
100
AcDbArc
 50
255.0
 51
195.0
  0
ARC
  5
D8
330
1F
100
AcDbEntity
  8
0
  6
HIDDEN
 62
     7
370
    18
100
AcDbCircle
 10
635.743039376
 20
-156.3528909668
 30
0.0
 40
1.499999999999976
100
AcDbArc
 50
255.0
 51
195.0
  0
LINE
  5
D9
330
1F
100
AcDbEntity
  8
0
  6
Continuous
 62
     7
370
    35
100
AcDbLine
 10
-322.4019924481
 20
514.1712392452
 30
0.0
 11
-324.4019924481
 21
514.1712392452
 31
0.0
  0
LINE
  5
DA
330
1F
100
AcDbEntity
  8
0
  6
Continuous
 62
     7
370
    35
100
AcDbLine
 10
-324.4019924481
 20
514.1712392452
 30
0.0
 11
-324.4019924481
 21
517.1712392452
 31
0.0
  0
LINE
  5
DB
330
1F
100
AcDbEntity
  8
0
  6
Continuous
 62
     7
370
    35
100
AcDbLine
 10
-324.4019924481
 20
517.1712392452
 30
0.0
 11
-322.4019924481
 21
517.1712392452
 31
0.0
  0
LINE
  5
DC
330
1F
100
AcDbEntity
  8
0
  6
Continuous
 62
     7
370
    35
100
AcDbLine
 10
-322.4019924481
 20
517.1712392452
 30
0.0
 11
-322.4019924481
 21
514.1712392452
 31
0.0
  0
LINE
  5
DD
330
1F
100
AcDbEntity
  8
0
  6
Continuous
 62
     7
370
    35
100
AcDbLine
 10
-324.4019924481
 20
428.1712392452
 30
0.0
 11
-322.4019924481
 21
428.1712392452
 31
0.0
  0
LINE
  5
DE
330
1F
100
AcDbEntity
  8
0
  6
Continuous
 62
     7
370
    35
100
AcDbLine
 10
-322.4019924481
 20
428.1712392452
 30
0.0
 11
-322.4019924481
 21
425.1712392452
 31
0.0
  0
LINE
  5
DF
330
1F
100
AcDbEntity
  8
0
  6
Continuous
 62
     7
370
    35
100
AcDbLine
 10
-322.4019924481
 20
425.1712392452
 30
0.0
 11
-324.4019924481
 21
425.1712392452
 31
0.0
  0
LINE
  5
E0
330
1F
100
AcDbEntity
  8
0
  6
Continuous
 62
     7
370
    35
100
AcDbLine
 10
-324.4019924481
 20
425.1712392452
 30
0.0
 11
-324.4019924481
 21
428.1712392452
 31
0.0
  0
LINE
  5
E1
330
1F
100
AcDbEntity
  8
0
  6
Continuous
 62
     7
370
    35
100
AcDbLine
 10
-324.4019924481
 20
428.1712392452
 30
0.0
 11
-324.4019924481
 21
514.1712392452
 31
0.0
  0
LINE
  5
E2
330
1F
100
AcDbEntity
  8
0
  6
Continuous
 62
     7
370
    35
100
AcDbLine
 10
-322.4019924481
 20
428.1712392452
 30
0.0
 11
-322.4019924481
 21
514.1712392452
 31
0.0
  0
LINE
  5
E3
330
1F
100
AcDbEntity
  8
0
  6
Continuous
 62
     7
370
    35
100
AcDbLine
 10
-320.4019924481
 20
425.1712392452
 30
0.0
 11
-320.4019924481
 21
517.1712392452
 31
0.0
  0
LINE
  5
E4
330
1F
100
AcDbEntity
  8
0
  6
Continuous
 62
     7
370
    35
100
AcDbLine
 10
-320.4019924481
 20
517.1712392452
 30
0.0
 11
-322.4019924481
 21
517.1712392452
 31
0.0
  0
LINE
  5
E5
330
1F
100
AcDbEntity
  8
0
  6
Continuous
 62
     7
370
    35
100
AcDbLine
 10
-322.4019924481
 20
425.1712392452
 30
0.0
 11
-320.4019924481
 21
425.1712392452
 31
0.0
  0
LINE
  5
E6
330
1F
100
AcDbEntity
  8
0
  6
Continuous
 62
     7
370
    35
100
AcDbLine
 10
-302.9019924481
 20
517.1712392452
 30
0.0
 11
-320.4019924481
 21
517.1712392452
 31
0.0
  0
LINE
  5
E7
330
1F
100
AcDbEntity
  8
0
  6
Continuous
 62
     7
370
    35
100
AcDbLine
 10
-302.9019924481
 20
517.1712392452
 30
0.0
 11
-302.9019924481
 21
425.1712392452
 31
0.0
  0
LINE
  5
E8
330
1F
100
AcDbEntity
  8
0
  6
Continuous
 62
     7
370
    35
100
AcDbLine
 10
-320.4019924481
 20
425.1712392452
 30
0.0
 11
-302.9019924481
 21
425.1712392452
 31
0.0
  0
LINE
  5
E9
330
1F
100
AcDbEntity
  8
0
  6
Continuous
 62
     7
370
    35
100
AcDbLine
 10
-298.9019924481
 20
517.1712392452
 30
0.0
 11
-298.9019924481
 21
425.1712392452
 31
0.0
  0
LINE
  5
EA
330
1F
100
AcDbEntity
  8
0
  6
Continuous
 62
     7
370
    35
100
AcDbLine
 10
-302.9019924481
 20
517.1712392452
 30
0.0
 11
-298.9019924481
 21
517.1712392452
 31
0.0
  0
LINE
  5
EB
330
1F
100
AcDbEntity
  8
0
  6
Continuous
 62
     7
370
    35
100
AcDbLine
 10
-298.9019924481
 20
425.1712392452
 30
0.0
 11
-302.9019924481
 21
425.1712392452
 31
0.0
  0
LINE
  5
EC
330
1F
100
AcDbEntity
  8
0
  6
Continuous
 62
     7
370
    35
100
AcDbLine
 10
-300.9019924481
 20
532.1712392452
 30
0.0
 11
-298.9019924481
 21
532.1712392452
 31
0.0
  0
LINE
  5
ED
330
1F
100
AcDbEntity
  8
0
  6
Continuous
 62
     7
370
    35
100
AcDbLine
 10
-298.9019924481
 20
532.1712392452
 30
0.0
 11
-298.9019924481
 21
529.1712392452
 31
0.0
  0
LINE
  5
EE
330
1F
100
AcDbEntity
  8
0
  6
Continuous
 62
     7
370
    35
100
AcDbLine
 10
-298.9019924481
 20
529.1712392452
 30
0.0
 11
-300.9019924481
 21
529.1712392452
 31
0.0
  0
LINE
  5
EF
330
1F
100
AcDbEntity
  8
0
  6
Continuous
 62
     7
370
    35
100
AcDbLine
 10
-300.9019924481
 20
529.1712392452
 30
0.0
 11
-300.9019924481
 21
532.1712392452
 31
0.0
  0
LINE
  5
F0
330
1F
100
AcDbEntity
  8
0
  6
Continuous
 62
     7
370
    35
100
AcDbLine
 10
-300.9019924481
 20
413.1712392452
 30
0.0
 11
-298.9019924481
 21
413.1712392452
 31
0.0
  0
LINE
  5
F1
330
1F
100
AcDbEntity
  8
0
  6
Continuous
 62
     7
370
    35
100
AcDbLine
 10
-298.9019924481
 20
425.1712392452
 30
0.0
 11
-298.9019924481
 21
413.1712392452
 31
0.0
  0
LINE
  5
F2
330
1F
100
AcDbEntity
  8
0
  6
Continuous
 62
     7
370
    35
100
AcDbLine
 10
-300.9019924481
 20
425.1712392452
 30
0.0
 11
-300.9019924481
 21
413.1712392452
 31
0.0
  0
LINE
  5
F3
330
1F
100
AcDbEntity
  8
0
  6
Continuous
 62
     7
370
    35
100
AcDbLine
 10
-298.9019924481
 20
529.1712392452
 30
0.0
 11
-298.9019924481
 21
517.1712392452
 31
0.0
  0
LINE
  5
F4
330
1F
100
AcDbEntity
  8
0
  6
Continuous
 62
     7
370
    35
100
AcDbLine
 10
-300.9019924481
 20
529.1712392452
 30
0.0
 11
-300.9019924481
 21
517.1712392452
 31
0.0
  0
LINE
  5
F5
330
1F
100
AcDbEntity
  8
0
  6
Continuous
 62
     7
370
    35
100
AcDbLine
 10
-298.9019924481
 20
410.1712392452
 30
0.0
 11
-300.9019924481
 21
410.1712392452
 31
0.0
  0
LINE
  5
F6
330
1F
100
AcDbEntity
  8
0
  6
Continuous
 62
     7
370
    35
100
AcDbLine
 10
-298.9019924481
 20
413.1712392452
 30
0.0
 11
-298.9019924481
 21
410.1712392452
 31
0.0
  0
LINE
  5
F7
330
1F
100
AcDbEntity
  8
0
  6
Continuous
 62
     7
370
    35
100
AcDbLine
 10
-300.9019924481
 20
410.1712392452
 30
0.0
 11
-300.9019924481
 21
413.1712392452
 31
0.0
  0
LINE
  5
F8
330
1F
100
AcDbEntity
  8
0
  6
Continuous
 62
     7
370
    35
100
AcDbLine
 10
-318.9019924481
 20
534.1712392452
 30
0.0
 11
-318.9019924481
 21
536.1712392452
 31
0.0
  0
LINE
  5
F9
330
1F
100
AcDbEntity
  8
0
  6
Continuous
 62
     7
370
    35
100
AcDbLine
 10
-318.9019924481
 20
536.1712392452
 30
0.0
 11
-302.9019924481
 21
536.1712392452
 31
0.0
  0
LINE
  5
FA
330
1F
100
AcDbEntity
  8
0
  6
Continuous
 62
     7
370
    35
100
AcDbLine
 10
-302.9019924481
 20
534.1712392452
 30
0.0
 11
-302.9019924481
 21
536.1712392452
 31
0.0
  0
LINE
  5
FB
330
1F
100
AcDbEntity
  8
0
  6
Continuous
 62
     7
370
    35
100
AcDbLine
 10
-318.9019924481
 20
534.1712392452
 30
0.0
 11
-302.9019924481
 21
534.1712392452
 31
0.0
  0
ARC
  5
FC
330
1F
100
AcDbEntity
  8
0
  6
Continuous
 62
     7
370
    35
100
AcDbCircle
 10
-302.9019924481
 20
532.1712392452
 30
0.0
 40
2.000000000000057
100
AcDbArc
 50
360.0
 51
90.0
  0
ARC
  5
FD
330
1F
100
AcDbEntity
  8
0
  6
Continuous
 62
     7
370
    35
100
AcDbCircle
 10
-302.9019924481
 20
532.1712392452
 30
0.0
 40
4.000000000000057
100
AcDbArc
 50
360.0
 51
90.0
  0
LINE
  5
FE
330
1F
100
AcDbEntity
  8
0
  6
Continuous
 62
     7
370
    35
100
AcDbLine
 10
-318.9019924481
 20
406.1712392452
 30
0.0
 11
-318.9019924481
 21
408.1712392452
 31
0.0
  0
LINE
  5
FF
330
1F
100
AcDbEntity
  8
0
  6
Continuous
 62
     7
370
    35
100
AcDbLine
 10
-315.9019924481
 20
408.1712392452
 30
0.0
 11
-315.9019924481
 21
406.1712392452
 31
0.0
  0
LINE
  5
100
330
1F
100
AcDbEntity
  8
0
  6
Continuous
 62
     7
370
    35
100
AcDbLine
 10
-315.9019924481
 20
406.1712392452
 30
0.0
 11
-318.9019924481
 21
406.1712392452
 31
0.0
  0
LINE
  5
101
330
1F
100
AcDbEntity
  8
0
  6
Continuous
 62
     7
370
    35
100
AcDbLine
 10
-318.9019924481
 20
408.1712392452
 30
0.0
 11
-315.9019924481
 21
408.1712392452
 31
0.0
  0
LINE
  5
102
330
1F
100
AcDbEntity
  8
0
  6
Continuous
 62
     7
370
    35
100
AcDbLine
 10
-302.9019924481
 20
406.1712392452
 30
0.0
 11
-302.9019924481
 21
408.1712392452
 31
0.0
  0
LINE
  5
103
330
1F
100
AcDbEntity
  8
0
  6
Continuous
 62
     7
370
    35
100
AcDbLine
 10
-302.9019924481
 20
406.1712392452
 30
0.0
 11
-315.9019924481
 21
406.1712392452
 31
0.0
  0
LINE
  5
104
330
1F
100
AcDbEntity
  8
0
  6
Continuous
 62
     7
370
    35
100
AcDbLine
 10
-302.9019924481
 20
408.1712392452
 30
0.0
 11
-315.9019924481
 21
408.1712392452
 31
0.0
  0
ARC
  5
105
330
1F
100
AcDbEntity
  8
0
  6
Continuous
 62
     7
370
    35
100
AcDbCircle
 10
-302.9019924481
 20
410.1712392452
 30
0.0
 40
2.000000000000057
100
AcDbArc
 50
270.0
 51
0.0
  0
ARC
  5
106
330
1F
100
AcDbEntity
  8
0
  6
Continuous
 62
     7
370
    35
100
AcDbCircle
 10
-302.9019924481
 20
410.1712392452
 30
0.0
 40
4.000000000000057
100
AcDbArc
 50
270.0
 51
0.0
  0
ARC
  5
107
330
1F
100
AcDbEntity
  8
0
  6
Continuous
 62
     7
370
    35
100
AcDbCircle
 10
-262.0529298575
 20
514.1712392452
 30
0.0
 40
3.0
100
AcDbArc
 50
90.0
 51
180.0
  0
LINE
  5
108
330
1F
100
AcDbEntity
  8
0
  6
Continuous
 62
     7
370
    35
100
AcDbLine
 10
-262.0529298575
 20
517.1712392452
 30
0.0
 11
-250.0529298575
 21
517.1712392452
 31
0.0
  0
LINE
  5
109
330
1F
100
AcDbEntity
  8
0
  6
Continuous
 62
     7
370
    35
100
AcDbLine
 10
-250.0529298575
 20
517.1712392452
 30
0.0
 11
-250.0529298575
 21
425.1712392452
 31
0.0
  0
LINE
  5
10A
330
1F
100
AcDbEntity
  8
0
  6
Continuous
 62
     7
370
    35
100
AcDbLine
 10
-250.0529298575
 20
425.1712392452
 30
0.0
 11
-262.0529298575
 21
425.1712392452
 31
0.0
  0
ARC
  5
10B
330
1F
100
AcDbEntity
  8
0
  6
Continuous
 62
     7
370
    35
100
AcDbCircle
 10
-262.0529298575
 20
428.1712392452
 30
0.0
 40
3.0
100
AcDbArc
 50
180.0
 51
270.0
  0
LINE
  5
10C
330
1F
100
AcDbEntity
  8
0
  6
Continuous
 62
     7
370
    35
100
AcDbLine
 10
-265.0529298575
 20
514.1712392452
 30
0.0
 11
-265.0529298575
 21
428.1712392452
 31
0.0
  0
CIRCLE
  5
10D
330
1F
100
AcDbEntity
  8
0
  6
Continuous
 62
     7
370
    35
100
AcDbCircle
 10
-258.5529298575
 20
506.1712392452
 30
0.0
 40
3.25
  0
CIRCLE
  5
10E
330
1F
100
AcDbEntity
  8
0
  6
Continuous
 62
     7
370
    35
100
AcDbCircle
 10
-258.5529298575
 20
436.1712392452
 30
0.0
 40
3.25
  0
LINE
  5
10F
330
1F
100
AcDbEntity
  8
0
  6
Continuous
 62
     7
370
    35
100
AcDbLine
 10
-246.0529298575
 20
517.1712392452
 30
0.0
 11
-246.0529298575
 21
425.1712392452
 31
0.0
  0
LINE
  5
110
330
1F
100
AcDbEntity
  8
0
  6
Continuous
 62
     7
370
    35
100
AcDbLine
 10
-246.0529298575
 20
425.1712392452
 30
0.0
 11
-250.0529298575
 21
425.1712392452
 31
0.0
  0
LINE
  5
111
330
1F
100
AcDbEntity
  8
0
  6
Continuous
 62
     7
370
    35
100
AcDbLine
 10
-250.0529298575
 20
517.1712392452
 30
0.0
 11
-246.0529298575
 21
517.1712392452
 31
0.0
  0
LINE
  5
112
330
1F
100
AcDbEntity
  8
0
  6
Continuous
 62
     7
370
    35
100
AcDbLine
 10
722.9470701425
 20
425.1712392452
 30
0.0
 11
722.9470701425
 21
517.1712392452
 31
0.0
  0
LINE
  5
113
330
1F
100
AcDbEntity
  8
0
  6
Continuous
 62
     7
370
    35
100
AcDbLine
 10
722.9470701425
 20
517.1712392452
 30
0.0
 11
734.9470701425
 21
517.1712392452
 31
0.0
  0
ARC
  5
114
330
1F
100
AcDbEntity
  8
0
  6
Continuous
 62
     7
370
    35
100
AcDbCircle
 10
734.9470701425
 20
514.1712392452
 30
0.0
 40
3.000000000000114
100
AcDbArc
 50
0.0
 51
90.0
  0
LINE
  5
115
330
1F
100
AcDbEntity
  8
0
  6
Continuous
 62
     7
370
    35
100
AcDbLine
 10
737.9470701425
 20
428.1712392452
 30
0.0
 11
737.9470701425
 21
514.1712392452
 31
0.0
  0
ARC
  5
116
330
1F
100
AcDbEntity
  8
0
  6
Continuous
 62
     7
370
    35
100
AcDbCircle
 10
734.9470701425
 20
428.1712392452
 30
0.0
 40
3.000000000000114
100
AcDbArc
 50
270.0
 51
0.0
  0
LINE
  5
117
330
1F
100
AcDbEntity
  8
0
  6
Continuous
 62
     7
370
    35
100
AcDbLine
 10
734.9470701425
 20
425.1712392452
 30
0.0
 11
722.9470701425
 21
425.1712392452
 31
0.0
  0
CIRCLE
  5
118
330
1F
100
AcDbEntity
  8
0
  6
Continuous
 62
     7
370
    35
100
AcDbCircle
 10
731.4470701425
 20
506.1712392452
 30
0.0
 40
3.249999999999886
  0
CIRCLE
  5
119
330
1F
100
AcDbEntity
  8
0
  6
Continuous
 62
     7
370
    35
100
AcDbCircle
 10
731.4470701425
 20
436.1712392452
 30
0.0
 40
3.249999999999886
  0
LINE
  5
11A
330
1F
100
AcDbEntity
  8
0
  6
Continuous
 62
     7
370
    35
100
AcDbLine
 10
722.9470701425
 20
425.1712392452
 30
0.0
 11
718.9470701425
 21
425.1712392452
 31
0.0
  0
LINE
  5
11B
330
1F
100
AcDbEntity
  8
0
  6
Continuous
 62
     7
370
    35
100
AcDbLine
 10
718.9470701425
 20
425.1712392452
 30
0.0
 11
718.9470701425
 21
517.1712392452
 31
0.0
  0
LINE
  5
11C
330
1F
100
AcDbEntity
  8
0
  6
Continuous
 62
     7
370
    35
100
AcDbLine
 10
718.9470701425
 20
517.1712392452
 30
0.0
 11
722.9470701425
 21
517.1712392452
 31
0.0
  0
LINE
  5
11D
330
1F
100
AcDbEntity
  8
0
  6
Continuous
 62
     7
370
    35
100
AcDbLine
 10
-220.5529298575
 20
536.1712392452
 30
0.0
 11
-158.5529298575
 21
536.1712392452
 31
0.0
  0
LINE
  5
11E
330
1F
100
AcDbEntity
  8
0
  6
Continuous
 62
     7
370
    35
100
AcDbLine
 10
-158.5529298575
 20
536.1712392452
 30
0.0
 11
-158.5529298575
 21
534.1712392452
 31
0.0
  0
LINE
  5
11F
330
1F
100
AcDbEntity
  8
0
  6
Continuous
 62
     7
370
    35
100
AcDbLine
 10
-220.5529298575
 20
534.1712392452
 30
0.0
 11
-158.5529298575
 21
534.1712392452
 31
0.0
  0
LINE
  5
120
330
1F
100
AcDbEntity
  8
0
  6
Continuous
 62
     7
370
    35
100
AcDbLine
 10
-220.5529298575
 20
536.1712392452
 30
0.0
 11
-220.5529298575
 21
534.1712392452
 31
0.0
  0
LINE
  5
121
330
1F
100
AcDbEntity
  8
0
  6
Continuous
 62
     7
370
    35
100
AcDbLine
 10
-85.5529298575
 20
536.1712392452
 30
0.0
 11
-85.5529298575
 21
534.1712392452
 31
0.0
  0
LINE
  5
122
330
1F
100
AcDbEntity
  8
0
  6
Continuous
 62
     7
370
    35
100
AcDbLine
 10
-85.5529298575
 20
534.1712392452
 30
0.0
 11
-88.5529298575
 21
534.1712392452
 31
0.0
  0
LINE
  5
123
330
1F
100
AcDbEntity
  8
0
  6
Continuous
 62
     7
370
    35
100
AcDbLine
 10
-88.5529298575
 20
534.1712392452
 30
0.0
 11
-88.5529298575
 21
536.1712392452
 31
0.0
  0
LINE
  5
124
330
1F
100
AcDbEntity
  8
0
  6
Continuous
 62
     7
370
    35
100
AcDbLine
 10
-88.5529298575
 20
536.1712392452
 30
0.0
 11
-85.5529298575
 21
536.1712392452
 31
0.0
  0
LINE
  5
125
330
1F
100
AcDbEntity
  8
0
  6
Continuous
 62
     7
370
    35
100
AcDbLine
 10
248.4470701425
 20
534.1712392452
 30
0.0
 11
248.4470701425
 21
536.1712392452
 31
0.0
  0
LINE
  5
126
330
1F
100
AcDbEntity
  8
0
  6
Continuous
 62
     7
370
    35
100
AcDbLine
 10
-85.5529298575
 20
536.1712392452
 30
0.0
 11
248.4470701425
 21
536.1712392452
 31
0.0
  0
LINE
  5
127
330
1F
100
AcDbEntity
  8
0
  6
Continuous
 62
     7
370
    35
100
AcDbLine
 10
-85.5529298575
 20
534.1712392452
 30
0.0
 11
248.4470701425
 21
534.1712392452
 31
0.0
  0
LINE
  5
128
330
1F
100
AcDbEntity
  8
0
  6
Continuous
 62
     7
370
    35
100
AcDbLine
 10
-93.5529298575
 20
408.1712392452
 30
0.0
 11
-195.5529298575
 21
408.1712392452
 31
0.0
  0
LINE
  5
129
330
1F
100
AcDbEntity
  8
0
  6
Continuous
 62
     7
370
    35
100
AcDbLine
 10
-93.5529298575
 20
408.1712392452
 30
0.0
 11
-93.5529298575
 21
406.1712392452
 31
0.0
  0
LINE
  5
12A
330
1F
100
AcDbEntity
  8
0
  6
Continuous
 62
     7
370
    35
100
AcDbLine
 10
-93.5529298575
 20
406.1712392452
 30
0.0
 11
-195.5529298575
 21
406.1712392452
 31
0.0
  0
LINE
  5
12B
330
1F
100
AcDbEntity
  8
0
  6
Continuous
 62
     7
370
    35
100
AcDbLine
 10
-195.5529298575
 20
408.1712392452
 30
0.0
 11
-195.5529298575
 21
406.1712392452
 31
0.0
  0
LINE
  5
12C
330
1F
100
AcDbEntity
  8
0
  6
Continuous
 62
     7
370
    35
100
AcDbLine
 10
33.4470701425
 20
408.1712392452
 30
0.0
 11
33.4470701425
 21
406.1712392452
 31
0.0
  0
LINE
  5
12D
330
1F
100
AcDbEntity
  8
0
  6
Continuous
 62
     7
370
    35
100
AcDbLine
 10
33.4470701425
 20
406.1712392452
 30
0.0
 11
-68.5529298575
 21
406.1712392452
 31
0.0
  0
LINE
  5
12E
330
1F
100
AcDbEntity
  8
0
  6
Continuous
 62
     7
370
    35
100
AcDbLine
 10
-68.5529298575
 20
408.1712392452
 30
0.0
 11
-68.5529298575
 21
406.1712392452
 31
0.0
  0
LINE
  5
12F
330
1F
100
AcDbEntity
  8
0
  6
Continuous
 62
     7
370
    35
100
AcDbLine
 10
33.4470701425
 20
408.1712392452
 30
0.0
 11
-68.5529298575
 21
408.1712392452
 31
0.0
  0
LINE
  5
130
330
1F
100
AcDbEntity
  8
0
  6
Continuous
 62
     7
370
    35
100
AcDbLine
 10
160.4470701425
 20
408.1712392452
 30
0.0
 11
58.4470701425
 21
408.1712392452
 31
0.0
  0
LINE
  5
131
330
1F
100
AcDbEntity
  8
0
  6
Continuous
 62
     7
370
    35
100
AcDbLine
 10
160.4470701425
 20
408.1712392452
 30
0.0
 11
160.4470701425
 21
406.1712392452
 31
0.0
  0
LINE
  5
132
330
1F
100
AcDbEntity
  8
0
  6
Continuous
 62
     7
370
    35
100
AcDbLine
 10
160.4470701425
 20
406.1712392452
 30
0.0
 11
58.4470701425
 21
406.1712392452
 31
0.0
  0
LINE
  5
133
330
1F
100
AcDbEntity
  8
0
  6
Continuous
 62
     7
370
    35
100
AcDbLine
 10
58.4470701425
 20
408.1712392452
 30
0.0
 11
58.4470701425
 21
406.1712392452
 31
0.0
  0
LINE
  5
134
330
1F
100
AcDbEntity
  8
0
  6
Continuous
 62
     7
370
    35
100
AcDbLine
 10
251.4470701425
 20
536.1712392452
 30
0.0
 11
251.4470701425
 21
534.1712392452
 31
0.0
  0
LINE
  5
135
330
1F
100
AcDbEntity
  8
0
  6
Continuous
 62
     7
370
    35
100
AcDbLine
 10
248.4470701425
 20
536.1712392452
 30
0.0
 11
251.4470701425
 21
536.1712392452
 31
0.0
  0
LINE
  5
136
330
1F
100
AcDbEntity
  8
0
  6
Continuous
 62
     7
370
    35
100
AcDbLine
 10
251.4470701425
 20
534.1712392452
 30
0.0
 11
248.4470701425
 21
534.1712392452
 31
0.0
  0
LINE
  5
137
330
1F
100
AcDbEntity
  8
0
  6
Continuous
 62
     7
370
    35
100
AcDbLine
 10
287.4470701425
 20
408.1712392452
 30
0.0
 11
287.4470701425
 21
406.1712392452
 31
0.0
  0
LINE
  5
138
330
1F
100
AcDbEntity
  8
0
  6
Continuous
 62
     7
370
    35
100
AcDbLine
 10
287.4470701425
 20
406.1712392452
 30
0.0
 11
185.4470701425
 21
406.1712392452
 31
0.0
  0
LINE
  5
139
330
1F
100
AcDbEntity
  8
0
  6
Continuous
 62
     7
370
    35
100
AcDbLine
 10
185.4470701425
 20
408.1712392452
 30
0.0
 11
185.4470701425
 21
406.1712392452
 31
0.0
  0
LINE
  5
13A
330
1F
100
AcDbEntity
  8
0
  6
Continuous
 62
     7
370
    35
100
AcDbLine
 10
287.4470701425
 20
408.1712392452
 30
0.0
 11
185.4470701425
 21
408.1712392452
 31
0.0
  0
LINE
  5
13B
330
1F
100
AcDbEntity
  8
0
  6
Continuous
 62
     7
370
    35
100
AcDbLine
 10
324.4470701425
 20
536.1712392452
 30
0.0
 11
324.4470701425
 21
534.1712392452
 31
0.0
  0
LINE
  5
13C
330
1F
100
AcDbEntity
  8
0
  6
Continuous
 62
     7
370
    35
100
AcDbLine
 10
324.4470701425
 20
534.1712392452
 30
0.0
 11
321.4470701425
 21
534.1712392452
 31
0.0
  0
LINE
  5
13D
330
1F
100
AcDbEntity
  8
0
  6
Continuous
 62
     7
370
    35
100
AcDbLine
 10
321.4470701425
 20
534.1712392452
 30
0.0
 11
321.4470701425
 21
536.1712392452
 31
0.0
  0
LINE
  5
13E
330
1F
100
AcDbEntity
  8
0
  6
Continuous
 62
     7
370
    35
100
AcDbLine
 10
321.4470701425
 20
536.1712392452
 30
0.0
 11
324.4470701425
 21
536.1712392452
 31
0.0
  0
LINE
  5
13F
330
1F
100
AcDbEntity
  8
0
  6
Continuous
 62
     7
370
    35
100
AcDbLine
 10
558.4470701425
 20
534.1712392452
 30
0.0
 11
558.4470701425
 21
536.1712392452
 31
0.0
  0
LINE
  5
140
330
1F
100
AcDbEntity
  8
0
  6
Continuous
 62
     7
370
    35
100
AcDbLine
 10
324.4470701425
 20
534.1712392452
 30
0.0
 11
558.4470701425
 21
534.1712392452
 31
0.0
  0
LINE
  5
141
330
1F
100
AcDbEntity
  8
0
  6
Continuous
 62
     7
370
    35
100
AcDbLine
 10
324.4470701425
 20
536.1712392452
 30
0.0
 11
558.4470701425
 21
536.1712392452
 31
0.0
  0
LINE
  5
142
330
1F
100
AcDbEntity
  8
0
  6
Continuous
 62
     7
370
    35
100
AcDbLine
 10
315.4470701425
 20
408.1712392452
 30
0.0
 11
315.4470701425
 21
406.1712392452
 31
0.0
  0
LINE
  5
143
330
1F
100
AcDbEntity
  8
0
  6
Continuous
 62
     7
370
    35
100
AcDbLine
 10
315.4470701425
 20
406.1712392452
 30
0.0
 11
312.4470701425
 21
406.1712392452
 31
0.0
  0
LINE
  5
144
330
1F
100
AcDbEntity
  8
0
  6
Continuous
 62
     7
370
    35
100
AcDbLine
 10
312.4470701425
 20
406.1712392452
 30
0.0
 11
312.4470701425
 21
408.1712392452
 31
0.0
  0
LINE
  5
145
330
1F
100
AcDbEntity
  8
0
  6
Continuous
 62
     7
370
    35
100
AcDbLine
 10
312.4470701425
 20
408.1712392452
 30
0.0
 11
315.4470701425
 21
408.1712392452
 31
0.0
  0
LINE
  5
146
330
1F
100
AcDbEntity
  8
0
  6
Continuous
 62
     7
370
    35
100
AcDbLine
 10
411.4470701425
 20
406.1712392452
 30
0.0
 11
411.4470701425
 21
408.1712392452
 31
0.0
  0
LINE
  5
147
330
1F
100
AcDbEntity
  8
0
  6
Continuous
 62
     7
370
    35
100
AcDbLine
 10
411.4470701425
 20
406.1712392452
 30
0.0
 11
315.4470701425
 21
406.1712392452
 31
0.0
  0
LINE
  5
148
330
1F
100
AcDbEntity
  8
0
  6
Continuous
 62
     7
370
    35
100
AcDbLine
 10
411.4470701425
 20
408.1712392452
 30
0.0
 11
315.4470701425
 21
408.1712392452
 31
0.0
  0
LINE
  5
149
330
1F
100
AcDbEntity
  8
0
  6
Continuous
 62
     7
370
    35
100
AcDbLine
 10
631.4470701425
 20
534.1712392452
 30
0.0
 11
693.4470701425
 21
534.1712392452
 31
0.0
  0
LINE
  5
14A
330
1F
100
AcDbEntity
  8
0
  6
Continuous
 62
     7
370
    35
100
AcDbLine
 10
631.4470701425
 20
534.1712392452
 30
0.0
 11
631.4470701425
 21
536.1712392452
 31
0.0
  0
LINE
  5
14B
330
1F
100
AcDbEntity
  8
0
  6
Continuous
 62
     7
370
    35
100
AcDbLine
 10
631.4470701425
 20
536.1712392452
 30
0.0
 11
693.4470701425
 21
536.1712392452
 31
0.0
  0
LINE
  5
14C
330
1F
100
AcDbEntity
  8
0
  6
Continuous
 62
     7
370
    35
100
AcDbLine
 10
693.4470701425
 20
534.1712392452
 30
0.0
 11
693.4470701425
 21
536.1712392452
 31
0.0
  0
LINE
  5
14D
330
1F
100
AcDbEntity
  8
0
  6
Continuous
 62
     7
370
    35
100
AcDbLine
 10
414.4470701425
 20
408.1712392452
 30
0.0
 11
414.4470701425
 21
406.1712392452
 31
0.0
  0
LINE
  5
14E
330
1F
100
AcDbEntity
  8
0
  6
Continuous
 62
     7
370
    35
100
AcDbLine
 10
414.4470701425
 20
406.1712392452
 30
0.0
 11
411.4470701425
 21
406.1712392452
 31
0.0
  0
LINE
  5
14F
330
1F
100
AcDbEntity
  8
0
  6
Continuous
 62
     7
370
    35
100
AcDbLine
 10
411.4470701425
 20
408.1712392452
 30
0.0
 11
414.4470701425
 21
408.1712392452
 31
0.0
  0
LINE
  5
150
330
1F
100
AcDbEntity
  8
0
  6
Continuous
 62
     7
370
    35
100
AcDbLine
 10
561.4470701425
 20
536.1712392452
 30
0.0
 11
561.4470701425
 21
534.1712392452
 31
0.0
  0
LINE
  5
151
330
1F
100
AcDbEntity
  8
0
  6
Continuous
 62
     7
370
    35
100
AcDbLine
 10
561.4470701425
 20
534.1712392452
 30
0.0
 11
558.4470701425
 21
534.1712392452
 31
0.0
  0
LINE
  5
152
330
1F
100
AcDbEntity
  8
0
  6
Continuous
 62
     7
370
    35
100
AcDbLine
 10
558.4470701425
 20
536.1712392452
 30
0.0
 11
561.4470701425
 21
536.1712392452
 31
0.0
  0
LINE
  5
153
330
1F
100
AcDbEntity
  8
0
  6
Continuous
 62
     7
370
    35
100
AcDbLine
 10
541.4470701425
 20
406.1712392452
 30
0.0
 11
439.4470701425
 21
406.1712392452
 31
0.0
  0
LINE
  5
154
330
1F
100
AcDbEntity
  8
0
  6
Continuous
 62
     7
370
    35
100
AcDbLine
 10
439.4470701425
 20
408.1712392452
 30
0.0
 11
439.4470701425
 21
406.1712392452
 31
0.0
  0
LINE
  5
155
330
1F
100
AcDbEntity
  8
0
  6
Continuous
 62
     7
370
    35
100
AcDbLine
 10
541.4470701425
 20
408.1712392452
 30
0.0
 11
439.4470701425
 21
408.1712392452
 31
0.0
  0
LINE
  5
156
330
1F
100
AcDbEntity
  8
0
  6
Continuous
 62
     7
370
    35
100
AcDbLine
 10
541.4470701425
 20
406.1712392452
 30
0.0
 11
541.4470701425
 21
408.1712392452
 31
0.0
  0
LINE
  5
157
330
1F
100
AcDbEntity
  8
0
  6
Continuous
 62
     7
370
    35
100
AcDbLine
 10
566.4470701425
 20
406.1712392452
 30
0.0
 11
566.4470701425
 21
408.1712392452
 31
0.0
  0
LINE
  5
158
330
1F
100
AcDbEntity
  8
0
  6
Continuous
 62
     7
370
    35
100
AcDbLine
 10
566.4470701425
 20
408.1712392452
 30
0.0
 11
569.4470701425
 21
408.1712392452
 31
0.0
  0
LINE
  5
159
330
1F
100
AcDbEntity
  8
0
  6
Continuous
 62
     7
370
    35
100
AcDbLine
 10
569.4470701425
 20
408.1712392452
 30
0.0
 11
569.4470701425
 21
406.1712392452
 31
0.0
  0
LINE
  5
15A
330
1F
100
AcDbEntity
  8
0
  6
Continuous
 62
     7
370
    35
100
AcDbLine
 10
569.4470701425
 20
406.1712392452
 30
0.0
 11
566.4470701425
 21
406.1712392452
 31
0.0
  0
LINE
  5
15B
330
1F
100
AcDbEntity
  8
0
  6
Continuous
 62
     7
370
    35
100
AcDbLine
 10
665.4470701425
 20
406.1712392452
 30
0.0
 11
665.4470701425
 21
408.1712392452
 31
0.0
  0
LINE
  5
15C
330
1F
100
AcDbEntity
  8
0
  6
Continuous
 62
     7
370
    35
100
AcDbLine
 10
665.4470701425
 20
406.1712392452
 30
0.0
 11
569.4470701425
 21
406.1712392452
 31
0.0
  0
LINE
  5
15D
330
1F
100
AcDbEntity
  8
0
  6
Continuous
 62
     7
370
    35
100
AcDbLine
 10
665.4470701425
 20
408.1712392452
 30
0.0
 11
569.4470701425
 21
408.1712392452
 31
0.0
  0
LINE
  5
15E
330
1F
100
AcDbEntity
  8
0
  6
Continuous
 62
     7
370
    35
100
AcDbLine
 10
668.4470701425
 20
408.1712392452
 30
0.0
 11
668.4470701425
 21
406.1712392452
 31
0.0
  0
LINE
  5
15F
330
1F
100
AcDbEntity
  8
0
  6
Continuous
 62
     7
370
    35
100
AcDbLine
 10
668.4470701425
 20
406.1712392452
 30
0.0
 11
665.4470701425
 21
406.1712392452
 31
0.0
  0
LINE
  5
160
330
1F
100
AcDbEntity
  8
0
  6
Continuous
 62
     7
370
    35
100
AcDbLine
 10
665.4470701425
 20
408.1712392452
 30
0.0
 11
668.4470701425
 21
408.1712392452
 31
0.0
  0
LINE
  5
161
330
1F
100
AcDbEntity
  8
0
  6
Continuous
 62
     7
370
    35
100
AcDbLine
 10
-158.5529298575
 20
532.1712392452
 30
0.0
 11
-158.5529298575
 21
534.1712392452
 31
0.0
  0
LINE
  5
162
330
1F
100
AcDbEntity
  8
0
  6
Continuous
 62
     7
370
    35
100
AcDbLine
 10
-220.5529298575
 20
532.1712392452
 30
0.0
 11
-158.5529298575
 21
532.1712392452
 31
0.0
  0
LINE
  5
163
330
1F
100
AcDbEntity
  8
0
  6
Continuous
 62
     7
370
    35
100
AcDbLine
 10
-220.5529298575
 20
534.1712392452
 30
0.0
 11
-220.5529298575
 21
532.1712392452
 31
0.0
  0
LINE
  5
164
330
1F
100
AcDbEntity
  8
0
  6
Continuous
 62
     7
370
    35
100
AcDbLine
 10
-246.0529298575
 20
425.1712392452
 30
0.0
 11
-244.0529298575
 21
425.1712392452
 31
0.0
  0
LINE
  5
165
330
1F
100
AcDbEntity
  8
0
  6
Continuous
 62
     7
370
    35
100
AcDbLine
 10
-244.0529298575
 20
425.1712392452
 30
0.0
 11
-244.0529298575
 21
517.1712392452
 31
0.0
  0
LINE
  5
166
330
1F
100
AcDbEntity
  8
0
  6
Continuous
 62
     7
370
    35
100
AcDbLine
 10
-244.0529298575
 20
517.1712392452
 30
0.0
 11
-246.0529298575
 21
517.1712392452
 31
0.0
  0
LINE
  5
167
330
1F
100
AcDbEntity
  8
0
  6
Continuous
 62
     7
370
    35
100
AcDbLine
 10
-88.5529298575
 20
532.1712392452
 30
0.0
 11
251.4470701425
 21
532.1712392452
 31
0.0
  0
LINE
  5
168
330
1F
100
AcDbEntity
  8
0
  6
Continuous
 62
     7
370
    35
100
AcDbLine
 10
251.4470701425
 20
532.1712392452
 30
0.0
 11
251.4470701425
 21
534.1712392452
 31
0.0
  0
LINE
  5
169
330
1F
100
AcDbEntity
  8
0
  6
Continuous
 62
     7
370
    35
100
AcDbLine
 10
-88.5529298575
 20
534.1712392452
 30
0.0
 11
-88.5529298575
 21
532.1712392452
 31
0.0
  0
LINE
  5
16A
330
1F
100
AcDbEntity
  8
0
  6
Continuous
 62
     7
370
    35
100
AcDbLine
 10
-93.5529298575
 20
410.1712392452
 30
0.0
 11
-195.5529298575
 21
410.1712392452
 31
0.0
  0
LINE
  5
16B
330
1F
100
AcDbEntity
  8
0
  6
Continuous
 62
     7
370
    35
100
AcDbLine
 10
-93.5529298575
 20
408.1712392452
 30
0.0
 11
-93.5529298575
 21
410.1712392452
 31
0.0
  0
LINE
  5
16C
330
1F
100
AcDbEntity
  8
0
  6
Continuous
 62
     7
370
    35
100
AcDbLine
 10
-195.5529298575
 20
410.1712392452
 30
0.0
 11
-195.5529298575
 21
408.1712392452
 31
0.0
  0
LINE
  5
16D
330
1F
100
AcDbEntity
  8
0
  6
Continuous
 62
     7
370
    35
100
AcDbLine
 10
33.4470701425
 20
410.1712392452
 30
0.0
 11
-68.5529298575
 21
410.1712392452
 31
0.0
  0
LINE
  5
16E
330
1F
100
AcDbEntity
  8
0
  6
Continuous
 62
     7
370
    35
100
AcDbLine
 10
33.4470701425
 20
408.1712392452
 30
0.0
 11
33.4470701425
 21
410.1712392452
 31
0.0
  0
LINE
  5
16F
330
1F
100
AcDbEntity
  8
0
  6
Continuous
 62
     7
370
    35
100
AcDbLine
 10
-68.5529298575
 20
410.1712392452
 30
0.0
 11
-68.5529298575
 21
408.1712392452
 31
0.0
  0
LINE
  5
170
330
1F
100
AcDbEntity
  8
0
  6
Continuous
 62
     7
370
    35
100
AcDbLine
 10
160.4470701425
 20
410.1712392452
 30
0.0
 11
58.4470701425
 21
410.1712392452
 31
0.0
  0
LINE
  5
171
330
1F
100
AcDbEntity
  8
0
  6
Continuous
 62
     7
370
    35
100
AcDbLine
 10
160.4470701425
 20
408.1712392452
 30
0.0
 11
160.4470701425
 21
410.1712392452
 31
0.0
  0
LINE
  5
172
330
1F
100
AcDbEntity
  8
0
  6
Continuous
 62
     7
370
    35
100
AcDbLine
 10
58.4470701425
 20
410.1712392452
 30
0.0
 11
58.4470701425
 21
408.1712392452
 31
0.0
  0
LINE
  5
173
330
1F
100
AcDbEntity
  8
0
  6
Continuous
 62
     7
370
    35
100
AcDbLine
 10
287.4470701425
 20
410.1712392452
 30
0.0
 11
185.4470701425
 21
410.1712392452
 31
0.0
  0
LINE
  5
174
330
1F
100
AcDbEntity
  8
0
  6
Continuous
 62
     7
370
    35
100
AcDbLine
 10
287.4470701425
 20
408.1712392452
 30
0.0
 11
287.4470701425
 21
410.1712392452
 31
0.0
  0
LINE
  5
175
330
1F
100
AcDbEntity
  8
0
  6
Continuous
 62
     7
370
    35
100
AcDbLine
 10
185.4470701425
 20
410.1712392452
 30
0.0
 11
185.4470701425
 21
408.1712392452
 31
0.0
  0
LINE
  5
176
330
1F
100
AcDbEntity
  8
0
  6
Continuous
 62
     7
370
    35
100
AcDbLine
 10
561.4470701425
 20
532.1712392452
 30
0.0
 11
561.4470701425
 21
534.1712392452
 31
0.0
  0
LINE
  5
177
330
1F
100
AcDbEntity
  8
0
  6
Continuous
 62
     7
370
    35
100
AcDbLine
 10
321.4470701425
 20
532.1712392452
 30
0.0
 11
561.4470701425
 21
532.1712392452
 31
0.0
  0
LINE
  5
178
330
1F
100
AcDbEntity
  8
0
  6
Continuous
 62
     7
370
    35
100
AcDbLine
 10
321.4470701425
 20
534.1712392452
 30
0.0
 11
321.4470701425
 21
532.1712392452
 31
0.0
  0
LINE
  5
179
330
1F
100
AcDbEntity
  8
0
  6
Continuous
 62
     7
370
    35
100
AcDbLine
 10
414.4470701425
 20
410.1712392452
 30
0.0
 11
312.4470701425
 21
410.1712392452
 31
0.0
  0
LINE
  5
17A
330
1F
100
AcDbEntity
  8
0
  6
Continuous
 62
     7
370
    35
100
AcDbLine
 10
414.4470701425
 20
408.1712392452
 30
0.0
 11
414.4470701425
 21
410.1712392452
 31
0.0
  0
LINE
  5
17B
330
1F
100
AcDbEntity
  8
0
  6
Continuous
 62
     7
370
    35
100
AcDbLine
 10
312.4470701425
 20
410.1712392452
 30
0.0
 11
312.4470701425
 21
408.1712392452
 31
0.0
  0
LINE
  5
17C
330
1F
100
AcDbEntity
  8
0
  6
Continuous
 62
     7
370
    35
100
AcDbLine
 10
439.4470701425
 20
410.1712392452
 30
0.0
 11
439.4470701425
 21
408.1712392452
 31
0.0
  0
LINE
  5
17D
330
1F
100
AcDbEntity
  8
0
  6
Continuous
 62
     7
370
    35
100
AcDbLine
 10
541.4470701425
 20
410.1712392452
 30
0.0
 11
439.4470701425
 21
410.1712392452
 31
0.0
  0
LINE
  5
17E
330
1F
100
AcDbEntity
  8
0
  6
Continuous
 62
     7
370
    35
100
AcDbLine
 10
541.4470701425
 20
408.1712392452
 30
0.0
 11
541.4470701425
 21
410.1712392452
 31
0.0
  0
LINE
  5
17F
330
1F
100
AcDbEntity
  8
0
  6
Continuous
 62
     7
370
    35
100
AcDbLine
 10
631.4470701425
 20
532.1712392452
 30
0.0
 11
693.4470701425
 21
532.1712392452
 31
0.0
  0
LINE
  5
180
330
1F
100
AcDbEntity
  8
0
  6
Continuous
 62
     7
370
    35
100
AcDbLine
 10
693.4470701425
 20
532.1712392452
 30
0.0
 11
693.4470701425
 21
534.1712392452
 31
0.0
  0
LINE
  5
181
330
1F
100
AcDbEntity
  8
0
  6
Continuous
 62
     7
370
    35
100
AcDbLine
 10
631.4470701425
 20
534.1712392452
 30
0.0
 11
631.4470701425
 21
532.1712392452
 31
0.0
  0
LINE
  5
182
330
1F
100
AcDbEntity
  8
0
  6
Continuous
 62
     7
370
    35
100
AcDbLine
 10
668.4470701425
 20
410.1712392452
 30
0.0
 11
566.4470701425
 21
410.1712392452
 31
0.0
  0
LINE
  5
183
330
1F
100
AcDbEntity
  8
0
  6
Continuous
 62
     7
370
    35
100
AcDbLine
 10
668.4470701425
 20
408.1712392452
 30
0.0
 11
668.4470701425
 21
410.1712392452
 31
0.0
  0
LINE
  5
184
330
1F
100
AcDbEntity
  8
0
  6
Continuous
 62
     7
370
    35
100
AcDbLine
 10
566.4470701425
 20
410.1712392452
 30
0.0
 11
566.4470701425
 21
408.1712392452
 31
0.0
  0
LINE
  5
185
330
1F
100
AcDbEntity
  8
0
  6
Continuous
 62
     7
370
    35
100
AcDbLine
 10
716.9470701425
 20
517.1712392452
 30
0.0
 11
716.9470701425
 21
425.1712392452
 31
0.0
  0
LINE
  5
186
330
1F
100
AcDbEntity
  8
0
  6
Continuous
 62
     7
370
    35
100
AcDbLine
 10
718.9470701425
 20
517.1712392452
 30
0.0
 11
716.9470701425
 21
517.1712392452
 31
0.0
  0
LINE
  5
187
330
1F
100
AcDbEntity
  8
0
  6
Continuous
 62
     7
370
    35
100
AcDbLine
 10
716.9470701425
 20
425.1712392452
 30
0.0
 11
718.9470701425
 21
425.1712392452
 31
0.0
  0
LINE
  5
188
330
1F
100
AcDbEntity
  8
0
  6
Continuous
 62
     7
370
    35
100
AcDbLine
 10
-244.0529298575
 20
517.1712392452
 30
0.0
 11
-244.0529298575
 21
529.1712392452
 31
0.0
  0
ARC
  5
189
330
1F
100
AcDbEntity
  8
0
  6
Continuous
 62
     7
370
    35
100
AcDbCircle
 10
-241.0529298575
 20
529.1712392452
 30
0.0
 40
3.0
100
AcDbArc
 50
90.0
 51
180.0
  0
LINE
  5
18A
330
1F
100
AcDbEntity
  8
0
  6
Continuous
 62
     7
370
    35
100
AcDbLine
 10
-241.0529298575
 20
532.1712392452
 30
0.0
 11
-220.5529298575
 21
532.1712392452
 31
0.0
  0
LINE
  5
18B
330
1F
100
AcDbEntity
  8
0
  6
Continuous
 62
     7
370
    35
100
AcDbLine
 10
-158.5529298575
 20
532.1712392452
 30
0.0
 11
-88.5529298575
 21
532.1712392452
 31
0.0
  0
LINE
  5
18C
330
1F
100
AcDbEntity
  8
0
  6
Continuous
 62
     7
370
    35
100
AcDbLine
 10
251.4470701425
 20
532.1712392452
 30
0.0
 11
321.4470701425
 21
532.1712392452
 31
0.0
  0
LINE
  5
18D
330
1F
100
AcDbEntity
  8
0
  6
Continuous
 62
     7
370
    35
100
AcDbLine
 10
561.4470701425
 20
532.1712392452
 30
0.0
 11
631.4470701425
 21
532.1712392452
 31
0.0
  0
LINE
  5
18E
330
1F
100
AcDbEntity
  8
0
  6
Continuous
 62
     7
370
    35
100
AcDbLine
 10
713.9470701425
 20
532.1712392452
 30
0.0
 11
693.4470701425
 21
532.1712392452
 31
0.0
  0
ARC
  5
18F
330
1F
100
AcDbEntity
  8
0
  6
Continuous
 62
     7
370
    35
100
AcDbCircle
 10
713.9470701425
 20
529.1712392452
 30
0.0
 40
3.0
100
AcDbArc
 50
0.0
 51
90.0
  0
LINE
  5
190
330
1F
100
AcDbEntity
  8
0
  6
Continuous
 62
     7
370
    35
100
AcDbLine
 10
716.9470701425
 20
529.1712392452
 30
0.0
 11
716.9470701425
 21
517.1712392452
 31
0.0
  0
LINE
  5
191
330
1F
100
AcDbEntity
  8
0
  6
Continuous
 62
     7
370
    35
100
AcDbLine
 10
716.9470701425
 20
425.1712392452
 30
0.0
 11
716.9470701425
 21
413.1712392452
 31
0.0
  0
ARC
  5
192
330
1F
100
AcDbEntity
  8
0
  6
Continuous
 62
     7
370
    35
100
AcDbCircle
 10
713.9470701425
 20
413.1712392452
 30
0.0
 40
3.0
100
AcDbArc
 50
270.0
 51
0.0
  0
LINE
  5
193
330
1F
100
AcDbEntity
  8
0
  6
Continuous
 62
     7
370
    35
100
AcDbLine
 10
713.9470701425
 20
410.1712392452
 30
0.0
 11
668.4470701425
 21
410.1712392452
 31
0.0
  0
LINE
  5
194
330
1F
100
AcDbEntity
  8
0
  6
Continuous
 62
     7
370
    35
100
AcDbLine
 10
566.4470701425
 20
410.1712392452
 30
0.0
 11
541.4470701425
 21
410.1712392452
 31
0.0
  0
LINE
  5
195
330
1F
100
AcDbEntity
  8
0
  6
Continuous
 62
     7
370
    35
100
AcDbLine
 10
439.4470701425
 20
410.1712392452
 30
0.0
 11
414.4470701425
 21
410.1712392452
 31
0.0
  0
LINE
  5
196
330
1F
100
AcDbEntity
  8
0
  6
Continuous
 62
     7
370
    35
100
AcDbLine
 10
312.4470701425
 20
410.1712392452
 30
0.0
 11
287.4470701425
 21
410.1712392452
 31
0.0
  0
LINE
  5
197
330
1F
100
AcDbEntity
  8
0
  6
Continuous
 62
     7
370
    35
100
AcDbLine
 10
185.4470701425
 20
410.1712392452
 30
0.0
 11
160.4470701425
 21
410.1712392452
 31
0.0
  0
LINE
  5
198
330
1F
100
AcDbEntity
  8
0
  6
Continuous
 62
     7
370
    35
100
AcDbLine
 10
58.4470701425
 20
410.1712392452
 30
0.0
 11
33.4470701425
 21
410.1712392452
 31
0.0
  0
LINE
  5
199
330
1F
100
AcDbEntity
  8
0
  6
Continuous
 62
     7
370
    35
100
AcDbLine
 10
-68.5529298575
 20
410.1712392452
 30
0.0
 11
-93.5529298575
 21
410.1712392452
 31
0.0
  0
LINE
  5
19A
330
1F
100
AcDbEntity
  8
0
  6
Continuous
 62
     7
370
    35
100
AcDbLine
 10
-195.5529298575
 20
410.1712392452
 30
0.0
 11
-241.0529298575
 21
410.1712392452
 31
0.0
  0
ARC
  5
19B
330
1F
100
AcDbEntity
  8
0
  6
Continuous
 62
     7
370
    35
100
AcDbCircle
 10
-241.0529298575
 20
413.1712392452
 30
0.0
 40
3.0
100
AcDbArc
 50
180.0
 51
270.0
  0
LINE
  5
19C
330
1F
100
AcDbEntity
  8
0
  6
Continuous
 62
     7
370
    35
100
AcDbLine
 10
-244.0529298575
 20
413.1712392452
 30
0.0
 11
-244.0529298575
 21
425.1712392452
 31
0.0
  0
CIRCLE
  5
19D
330
1F
100
AcDbEntity
  8
0
  6
Continuous
 62
     7
370
    35
100
AcDbCircle
 10
680.9470701425
 20
421.8205244249
 30
0.0
 40
1.249999999999886
  0
CIRCLE
  5
19E
330
1F
100
AcDbEntity
  8
0
  6
Continuous
 62
     7
370
    35
100
AcDbCircle
 10
553.9470701425
 20
421.8205244249
 30
0.0
 40
1.249999999999886
  0
CIRCLE
  5
19F
330
1F
100
AcDbEntity
  8
0
  6
Continuous
 62
     7
370
    35
100
AcDbCircle
 10
426.9470701425
 20
421.8205244249
 30
0.0
 40
1.250000000000057
  0
CIRCLE
  5
1A0
330
1F
100
AcDbEntity
  8
0
  6
Continuous
 62
     7
370
    35
100
AcDbCircle
 10
299.9470701425
 20
421.8205244249
 30
0.0
 40
1.250000000000057
  0
CIRCLE
  5
1A1
330
1F
100
AcDbEntity
  8
0
  6
Continuous
 62
     7
370
    35
100
AcDbCircle
 10
172.9470701425
 20
421.8205244249
 30
0.0
 40
1.25
  0
CIRCLE
  5
1A2
330
1F
100
AcDbEntity
  8
0
  6
Continuous
 62
     7
370
    35
100
AcDbCircle
 10
45.9470701425
 20
421.8205244249
 30
0.0
 40
1.25
  0
CIRCLE
  5
1A3
330
1F
100
AcDbEntity
  8
0
  6
Continuous
 62
     7
370
    35
100
AcDbCircle
 10
-81.0529298575
 20
421.8205244249
 30
0.0
 40
1.249999999999972
  0
CIRCLE
  5
1A4
330
1F
100
AcDbEntity
  8
0
  6
Continuous
 62
     7
370
    35
100
AcDbCircle
 10
-208.0529298575
 20
421.8205244249
 30
0.0
 40
1.249999999999972
  0
ARC
  5
1A5
330
1F
100
AcDbEntity
  8
0
  6
Continuous
 62
     7
370
    18
100
AcDbCircle
 10
680.9470701425
 20
421.8205244249
 30
0.0
 40
1.500000000000061
100
AcDbArc
 50
255.0
 51
195.0
  0
ARC
  5
1A6
330
1F
100
AcDbEntity
  8
0
  6
Continuous
 62
     7
370
    18
100
AcDbCircle
 10
553.9470701425
 20
421.8205244249
 30
0.0
 40
1.499999999999936
100
AcDbArc
 50
255.0
 51
195.0
  0
ARC
  5
1A7
330
1F
100
AcDbEntity
  8
0
  6
Continuous
 62
     7
370
    18
100
AcDbCircle
 10
426.9470701425
 20
421.8205244249
 30
0.0
 40
1.500000000000016
100
AcDbArc
 50
255.0
 51
195.0
  0
ARC
  5
1A8
330
1F
100
AcDbEntity
  8
0
  6
Continuous
 62
     7
370
    18
100
AcDbCircle
 10
299.9470701425
 20
421.8205244249
 30
0.0
 40
1.500000000000046
100
AcDbArc
 50
255.0
 51
195.0
  0
ARC
  5
1A9
330
1F
100
AcDbEntity
  8
0
  6
Continuous
 62
     7
370
    18
100
AcDbCircle
 10
172.9470701425
 20
421.8205244249
 30
0.0
 40
1.499999999999989
100
AcDbArc
 50
255.0
 51
195.0
  0
ARC
  5
1AA
330
1F
100
AcDbEntity
  8
0
  6
Continuous
 62
     7
370
    18
100
AcDbCircle
 10
45.9470701425
 20
421.8205244249
 30
0.0
 40
1.500000000000052
100
AcDbArc
 50
255.0
 51
195.0
  0
ARC
  5
1AB
330
1F
100
AcDbEntity
  8
0
  6
Continuous
 62
     7
370
    18
100
AcDbCircle
 10
-81.0529298575
 20
421.8205244249
 30
0.0
 40
1.49999999999999
100
AcDbArc
 50
255.0
 51
195.0
  0
ARC
  5
1AC
330
1F
100
AcDbEntity
  8
0
  6
Continuous
 62
     7
370
    18
100
AcDbCircle
 10
-208.0529298575
 20
421.8205244249
 30
0.0
 40
1.500000000000046
100
AcDbArc
 50
255.0
 51
195.0
  0
LINE
  5
1AD
330
1F
100
AcDbEntity
  8
0
  6
Continuous
 62
     7
370
    35
100
AcDbLine
 10
962.6569107029
 20
-30.0692141645
 30
0.0
 11
962.6569107029
 21
-105.190968858
 31
0.0
  0
LINE
  5
1AE
330
1F
100
AcDbEntity
  8
0
  6
Continuous
 62
     7
370
    35
100
AcDbLine
 10
978.7886386865
 20
-95.5981735441
 30
0.0
 11
978.7886386865
 21
-20.4764188506
 31
0.0
  0
LINE
  5
1AF
330
1F
100
AcDbEntity
  8
0
  6
Continuous
 62
     7
370
    35
100
AcDbLine
 10
960.1714667939
 20
4.8286840911
 30
0.0
 11
916.3308463603
 21
30.1373355576
 31
0.0
  0
LINE
  5
1B0
330
1F
100
AcDbEntity
  8
0
  6
Continuous
 62
     7
370
    35
100
AcDbLine
 10
973.8136430513
 20
-111.8707579041
 30
0.0
 11
975.2278566137
 21
-111.0543497923
 31
0.0
  0
LINE
  5
1B1
330
1F
100
AcDbEntity
  8
0
  6
Continuous
 62
     7
370
    35
100
AcDbLine
 10
975.8492988583
 20
-105.7991406507
 30
0.0
 11
976.9956235667
 21
-105.1373814825
 31
0.0
  0
LINE
  5
1B2
330
1F
100
AcDbEntity
  8
0
  6
Continuous
 62
     7
370
    35
100
AcDbLine
 10
866.8333716773
 20
58.7116194714
 30
0.0
 11
697.1277441925
 21
156.6805928901
 31
0.0
  0
LINE
  5
1B3
330
1F
100
AcDbEntity
  8
0
  6
Continuous
 62
     7
370
    35
100
AcDbLine
 10
858.2980003061
 20
-54.5759218261
 30
0.0
 11
858.2980003061
 21
-56.2090034499
 31
0.0
  0
LINE
  5
1B4
330
1F
100
AcDbEntity
  8
0
  6
Continuous
 62
     7
370
    35
100
AcDbLine
 10
685.0568389154
 20
149.9512957936
 30
0.0
 11
685.0568389154
 21
148.3182141698
 31
0.0
  0
LINE
  5
1B5
330
1F
100
AcDbEntity
  8
0
  6
Continuous
 62
     7
370
    35
100
AcDbLine
 10
647.6302695095
 20
185.2548768039
 30
0.0
 11
407.213963906
 21
324.0442558138
 31
0.0
  0
LINE
  5
1B6
330
1F
100
AcDbEntity
  8
0
  6
Continuous
 62
     7
370
    35
100
AcDbLine
 10
678.6928778847
 20
49.1079083754
 30
0.0
 11
678.6928778847
 21
47.4748267516
 31
0.0
  0
LINE
  5
1B7
330
1F
100
AcDbEntity
  8
0
  6
Continuous
 62
     7
370
    35
100
AcDbLine
 10
395.1430586289
 20
317.3149587172
 30
0.0
 11
395.1430586289
 21
315.6818770934
 31
0.0
  0
LINE
  5
1B8
330
1F
100
AcDbEntity
  8
0
  6
Continuous
 62
     7
370
    35
100
AcDbLine
 10
357.716489223
 20
352.6185397276
 30
0.0
 11
313.8758687894
 21
377.9271911941
 31
0.0
  0
LINE
  5
1B9
330
1F
100
AcDbEntity
  8
0
  6
Continuous
 62
     7
370
    35
100
AcDbLine
 10
298.7088913356
 20
384.6125192659
 30
0.0
 11
297.2946777732
 21
383.796111154
 31
0.0
  0
LINE
  5
1BA
330
1F
100
AcDbEntity
  8
0
  6
Continuous
 62
     7
370
    35
100
AcDbLine
 10
267.2426395728
 20
371.3438969478
 30
0.0
 11
265.8284260104
 21
370.527488836
 31
0.0
  0
LINE
  5
1BB
330
1F
100
AcDbEntity
  8
0
  6
Continuous
 62
     7
370
    35
100
AcDbLine
 10
975.8492988583
 20
-39.4583055507
 30
0.0
 11
974.4350852959
 21
-40.2747136625
 31
0.0
  0
ARC
  5
1BC
330
1F
100
AcDbEntity
  8
0
  6
Continuous
 62
     7
370
    35
100
AcDbCircle
 10
969.8294369918
 20
-40.4842962193
 30
0.0
 40
4.610414422716522
100
AcDbArc
 50
2.6054784857
 51
57.39452166
  0
LINE
  5
1BD
330
1F
100
AcDbEntity
  8
0
  6
Continuous
 62
     7
370
    35
100
AcDbLine
 10
972.3137649524
 20
-36.6004790591
 30
0.0
 11
973.7279785147
 21
-35.7840709473
 31
0.0
  0
ARC
  5
1BE
330
1F
100
AcDbEntity
  8
0
  6
Continuous
 62
     7
370
    35
100
AcDbCircle
 10
971.2436505542
 20
-39.6678881075
 30
0.0
 40
4.610414422716176
100
AcDbArc
 50
2.6054784857
 51
57.39452166
  0
LINE
  5
1BF
330
1F
100
AcDbEntity
  8
0
  6
Continuous
 62
     7
370
    35
100
AcDbLine
 10
963.8284835781
 20
-106.8237850817
 30
0.0
 11
963.8284835781
 21
-31.7020303882
 31
0.0
  0
LINE
  5
1C0
330
1F
100
AcDbEntity
  8
0
  6
Continuous
 62
     7
370
    35
100
AcDbLine
 10
963.8284835781
 20
-31.7020303882
 30
0.0
 11
972.3137649524
 21
-36.6004790591
 31
0.0
  0
LINE
  5
1C1
330
1F
100
AcDbEntity
  8
0
  6
Continuous
 62
     7
370
    35
100
AcDbLine
 10
974.4350852959
 20
-110.4972234847
 30
0.0
 11
974.4350852959
 21
-40.2747136625
 31
0.0
  0
ARC
  5
1C2
330
1F
100
AcDbEntity
  8
0
  6
Continuous
 62
     7
370
    35
100
AcDbCircle
 10
973.1418621936
 20
-110.7070050754
 30
0.0
 40
1.31012759228567
100
AcDbArc
 50
230.7967147643
 51
9.2140369904
  0
LINE
  5
1C3
330
1F
100
AcDbEntity
  8
0
  6
Continuous
 62
     7
370
    35
100
AcDbLine
 10
972.3137649524
 20
-111.7222337526
 30
0.0
 11
963.8284835781
 21
-106.8237850817
 31
0.0
  0
LWPOLYLINE
  5
1C4
330
1F
100
AcDbEntity
  8
0
  6
Continuous
 62
     7
370
    35
100
AcDbPolyline
 90
       20
 70
   128
 43
0.0
 10
972.1369882571
 20
-45.4803769759
 10
972.0124710207
 20
-44.5468210087
 10
971.6524126861
 20
-43.5706657752
 10
971.0958311608
 20
-42.6576928414
 10
970.4030406893
 20
-41.906836991
 10
969.6491158689
 20
-41.3994651061
 10
968.9157561523
 20
-41.1905588032
 10
968.282432444
 20
-41.3027563216
 10
967.8177751948
 20
-41.7238993193
 10
967.5721372276
 20
-42.4083504179
 10
967.5721372276
 20
-43.2819387203
 10
967.8177751948
 20
-44.249997379
 10
968.282432444
 20
-45.2076222173
 10
968.9157561523
 20
-46.0510397249
 10
969.6491158689
 20
-46.6888525278
 10
970.4030406893
 20
-47.0519437122
 10
971.0958311608
 20
-47.1009667144
 10
971.6524126861
 20
-46.8306091312
 10
972.0124710207
 20
-46.270168402
 10
972.1369882571
 20
-45.4803769759
  0
LWPOLYLINE
  5
1C5
330
1F
100
AcDbEntity
  8
0
  6
Continuous
 62
     7
370
    35
100
AcDbPolyline
 90
       20
 70
   128
 43
0.0
 10
972.1369882571
 20
-102.6382338079
 10
972.0124710207
 20
-101.7046778407
 10
971.6524126861
 20
-100.7285226072
 10
971.0958311608
 20
-99.8155496734
 10
970.4030406893
 20
-99.064693823
 10
969.6491158689
 20
-98.5573219381
 10
968.9157561523
 20
-98.3484156352
 10
968.282432444
 20
-98.4606131536
 10
967.8177751948
 20
-98.8817561513
 10
967.5721372276
 20
-99.5662072499
 10
967.5721372276
 20
-100.4397955523
 10
967.8177751948
 20
-101.407854211
 10
968.282432444
 20
-102.3654790493
 10
968.9157561523
 20
-103.2088965569
 10
969.6491158689
 20
-103.8467093598
 10
970.4030406893
 20
-104.2098005442
 10
971.0958311608
 20
-104.2588235464
 10
971.6524126861
 20
-103.9884659632
 10
972.0124710207
 20
-103.428025234
 10
972.1369882571
 20
-102.6382338079
  0
LINE
  5
1C6
330
1F
100
AcDbEntity
  8
0
  6
Continuous
 62
     7
370
    35
100
AcDbLine
 10
974.4350852959
 20
-110.4972234847
 30
0.0
 11
975.8492988583
 21
-109.6808153729
 31
0.0
  0
LINE
  5
1C7
330
1F
100
AcDbEntity
  8
0
  6
Continuous
 62
     7
370
    35
100
AcDbLine
 10
975.8492988583
 20
-109.6808153729
 30
0.0
 11
975.8492988583
 21
-39.4583055507
 31
0.0
  0
LINE
  5
1C8
330
1F
100
AcDbEntity
  8
0
  6
Continuous
 62
     7
370
    35
100
AcDbLine
 10
965.2426971405
 20
-30.8856222764
 30
0.0
 11
963.8284835781
 21
-31.7020303882
 31
0.0
  0
LINE
  5
1C9
330
1F
100
AcDbEntity
  8
0
  6
Continuous
 62
     7
370
    35
100
AcDbLine
 10
973.7279785147
 20
-35.7840709473
 30
0.0
 11
965.2426971405
 21
-30.8856222764
 31
0.0
  0
LWPOLYLINE
  5
1CA
330
1F
100
AcDbEntity
  8
0
  6
Continuous
 62
     7
370
    35
100
AcDbPolyline
 90
        3
 70
   128
 43
0.0
 10
968.9550077417
 20
-42.0106425006
 10
969.0795249781
 20
-41.2208510745
 10
969.0830016357
 20
-41.2112511653
  0
ARC
  5
1CB
330
1F
100
AcDbEntity
  8
0
  6
Continuous
 62
     7
370
    35
100
AcDbCircle
 10
973.4426660415
 20
-42.0272469549
 30
0.0
 40
4.487689018152303
100
AcDbArc
 50
179.7880050698
 51
251.3692628049
  0
ARC
  5
1CC
330
1F
100
AcDbEntity
  8
0
  6
Continuous
 62
     7
370
    35
100
AcDbCircle
 10
964.4481916853
 20
-30.0692141645
 30
0.0
 40
1.746461267337152
100
AcDbArc
 50
110.7834207995
 51
249.2165792005
  0
LINE
  5
1CD
330
1F
100
AcDbEntity
  8
0
  6
Continuous
 62
     7
370
    35
100
AcDbLine
 10
963.8284835781
 20
-28.4363979409
 30
0.0
 11
965.2426971405
 21
-29.2528060527
 31
0.0
  0
ARC
  5
1CE
330
1F
100
AcDbEntity
  8
0
  6
Continuous
 62
     7
370
    35
100
AcDbCircle
 10
965.5525511941
 20
-30.0692141645
 30
0.0
 40
0.8732306336686082
100
AcDbArc
 50
110.7834207995
 51
249.2165792005
  0
ARC
  5
1CF
330
1F
100
AcDbEntity
  8
0
  6
Continuous
 62
     7
370
    35
100
AcDbCircle
 10
964.6587389528
 20
-104.9913433504
 30
0.0
 40
2.011757113975057
100
AcDbArc
 50
185.6947992512
 51
245.6253417064
  0
LINE
  5
1D0
330
1F
100
AcDbEntity
  8
0
  6
Continuous
 62
     7
370
    35
100
AcDbLine
 10
965.2426971405
 20
-30.8856222764
 30
0.0
 11
965.2426971405
 21
-29.2528060527
 31
0.0
  0
LINE
  5
1D1
330
1F
100
AcDbEntity
  8
0
  6
Continuous
 62
     7
370
    35
100
AcDbLine
 10
969.8150652417
 20
-101.7349888263
 30
0.0
 11
971.6316907547
 21
-100.6862732401
 31
0.0
  0
LINE
  5
1D2
330
1F
100
AcDbEntity
  8
0
  6
Continuous
 62
     7
370
    35
100
AcDbLine
 10
975.8492988583
 20
-98.2514999075
 30
0.0
 11
977.6170658113
 21
-97.2309897678
 31
0.0
  0
LINE
  5
1D3
330
1F
100
AcDbEntity
  8
0
  6
Continuous
 62
     7
370
    35
100
AcDbLine
 10
977.6170658113
 20
-22.1092350743
 30
0.0
 11
965.2426971405
 21
-29.2528060527
 31
0.0
  0
LINE
  5
1D4
330
1F
100
AcDbEntity
  8
0
  6
Continuous
 62
     7
370
    35
100
AcDbLine
 10
977.6170658113
 20
-22.1092350743
 30
0.0
 11
977.6170658113
 21
-97.2309897678
 31
0.0
  0
LINE
  5
1D5
330
1F
100
AcDbEntity
  8
0
  6
Continuous
 62
     7
370
    35
100
AcDbLine
 10
976.2028522489
 20
-21.2928269625
 30
0.0
 11
963.8284835781
 21
-28.4363979409
 31
0.0
  0
LINE
  5
1D6
330
1F
100
AcDbEntity
  8
0
  6
Continuous
 62
     7
370
    35
100
AcDbLine
 10
977.6170658113
 20
-22.1092350743
 30
0.0
 11
976.2028522489
 21
-21.2928269625
 31
0.0
  0
LINE
  5
1D7
330
1F
100
AcDbEntity
  8
0
  6
Continuous
 62
     7
370
    35
100
AcDbLine
 10
296.6732355286
 20
297.5023322985
 30
0.0
 11
296.6732355286
 21
372.624086992
 31
0.0
  0
LINE
  5
1D8
330
1F
100
AcDbEntity
  8
0
  6
Continuous
 62
     7
370
    35
100
AcDbLine
 10
296.6732355286
 20
372.624086992
 30
0.0
 11
296.6732355286
 21
382.4225767346
 31
0.0
  0
ARC
  5
1D9
330
1F
100
AcDbEntity
  8
0
  6
Continuous
 62
     7
370
    35
100
AcDbCircle
 10
297.9664586309
 20
382.6323583253
 30
0.0
 40
1.310127592285455
100
AcDbArc
 50
50.7967147643
 51
189.2140369905
  0
LINE
  5
1DA
330
1F
100
AcDbEntity
  8
0
  6
Continuous
 62
     7
370
    35
100
AcDbLine
 10
298.7945558722
 20
383.6475870026
 30
0.0
 11
310.4613580254
 21
376.9124854801
 31
0.0
  0
LINE
  5
1DB
330
1F
100
AcDbEntity
  8
0
  6
Continuous
 62
     7
370
    35
100
AcDbLine
 10
355.7164218895
 20
350.7872932018
 30
0.0
 11
357.1308653201
 21
349.9707523899
 31
0.0
  0
LINE
  5
1DC
330
1F
100
AcDbEntity
  8
0
  6
Continuous
 62
     7
370
    35
100
AcDbLine
 10
357.1308653201
 20
349.9707523899
 30
0.0
 11
403.7994531421
 21
323.0295500998
 31
0.0
  0
LINE
  5
1DD
330
1F
100
AcDbEntity
  8
0
  6
Continuous
 62
     7
370
    35
100
AcDbLine
 10
645.630202176
 20
183.4236302781
 30
0.0
 11
647.0446456066
 21
182.6070894662
 31
0.0
  0
LINE
  5
1DE
330
1F
100
AcDbEntity
  8
0
  6
Continuous
 62
     7
370
    35
100
AcDbLine
 10
647.0446456066
 20
182.6070894662
 30
0.0
 11
693.7132334286
 21
155.6658871762
 31
0.0
  0
LINE
  5
1DF
330
1F
100
AcDbEntity
  8
0
  6
Continuous
 62
     7
370
    35
100
AcDbLine
 10
864.8333043439
 20
56.8803729456
 30
0.0
 11
866.2477477744
 21
56.0638321337
 31
0.0
  0
LINE
  5
1E0
330
1F
100
AcDbEntity
  8
0
  6
Continuous
 62
     7
370
    35
100
AcDbLine
 10
866.2477477744
 20
56.0638321337
 30
0.0
 11
912.9163355964
 21
29.1226298437
 31
0.0
  0
LINE
  5
1E1
330
1F
100
AcDbEntity
  8
0
  6
Continuous
 62
     7
370
    35
100
AcDbLine
 10
958.1713994605
 20
2.9974375653
 30
0.0
 11
959.585842891
 21
2.1808967534
 31
0.0
  0
LINE
  5
1E2
330
1F
100
AcDbEntity
  8
0
  6
Continuous
 62
     7
370
    35
100
AcDbLine
 10
974.0815319053
 20
-6.1872863928
 30
0.0
 11
959.585842891
 21
2.1808967534
 31
0.0
  0
ARC
  5
1E3
330
1F
100
AcDbEntity
  8
0
  6
Continuous
 62
     7
370
    35
100
AcDbCircle
 10
971.5972039448
 20
-10.071103553
 30
0.0
 40
4.610414422716636
100
AcDbArc
 50
2.6054784857
 51
57.39452166
  0
LINE
  5
1E4
330
1F
100
AcDbEntity
  8
0
  6
Continuous
 62
     7
370
    35
100
AcDbLine
 10
976.2028522489
 20
-9.8615209962
 30
0.0
 11
976.2028522489
 21
-19.6600107388
 31
0.0
  0
LINE
  5
1E5
330
1F
100
AcDbEntity
  8
0
  6
Continuous
 62
     7
370
    35
100
AcDbLine
 10
976.2028522489
 20
-19.6600107388
 30
0.0
 11
976.2028522489
 21
-21.2928269625
 31
0.0
  0
LINE
  5
1E6
330
1F
100
AcDbEntity
  8
0
  6
Continuous
 62
     7
370
    35
100
AcDbLine
 10
976.2028522489
 20
-98.0473978796
 30
0.0
 11
976.2028522489
 21
-104.5802551749
 31
0.0
  0
ARC
  5
1E7
330
1F
100
AcDbEntity
  8
0
  6
Continuous
 62
     7
370
    35
100
AcDbCircle
 10
974.4580879213
 20
-104.673176137
 30
0.0
 40
1.747236922692393
100
AcDbArc
 50
322.7720468309
 51
3.048522905
  0
LINE
  5
1E8
330
1F
100
AcDbEntity
  8
0
  6
Continuous
 62
     7
370
    35
100
AcDbLine
 10
962.6569107029
 20
-99.2099720074
 30
0.0
 11
941.9081733613
 21
-87.2319808989
 31
0.0
  0
LINE
  5
1E9
330
1F
100
AcDbEntity
  8
0
  6
Continuous
 62
     7
370
    35
100
AcDbLine
 10
941.9081733613
 20
-87.2319808989
 30
0.0
 11
869.7832816803
 21
-45.5951671959
 31
0.0
  0
LINE
  5
1EA
330
1F
100
AcDbEntity
  8
0
  6
Continuous
 62
     7
370
    35
100
AcDbLine
 10
869.7832816803
 20
-45.5951671959
 30
0.0
 11
852.1056121507
 21
-35.3900657981
 31
0.0
  0
LINE
  5
1EB
330
1F
100
AcDbEntity
  8
0
  6
Continuous
 62
     7
370
    35
100
AcDbLine
 10
852.1056121507
 20
-35.3900657981
 30
0.0
 11
779.9807204696
 21
6.2467479048
 31
0.0
  0
LINE
  5
1EC
330
1F
100
AcDbEntity
  8
0
  6
Continuous
 62
     7
370
    35
100
AcDbLine
 10
779.9807204696
 20
6.2467479048
 30
0.0
 11
762.30305094
 21
16.4518493026
 31
0.0
  0
LINE
  5
1ED
330
1F
100
AcDbEntity
  8
0
  6
Continuous
 62
     7
370
    35
100
AcDbLine
 10
762.30305094
 20
16.4518493026
 30
0.0
 11
690.1781592589
 21
58.0886630056
 31
0.0
  0
LINE
  5
1EE
330
1F
100
AcDbEntity
  8
0
  6
Continuous
 62
     7
370
    35
100
AcDbLine
 10
690.1781592589
 20
58.0886630056
 30
0.0
 11
672.5004897293
 21
68.2937644033
 31
0.0
  0
LINE
  5
1EF
330
1F
100
AcDbEntity
  8
0
  6
Continuous
 62
     7
370
    35
100
AcDbLine
 10
672.5004897293
 20
68.2937644033
 30
0.0
 11
600.3755980482
 21
109.9305781063
 31
0.0
  0
LINE
  5
1F0
330
1F
100
AcDbEntity
  8
0
  6
Continuous
 62
     7
370
    35
100
AcDbLine
 10
600.3755980482
 20
109.9305781063
 30
0.0
 11
582.6979285186
 21
120.1356795041
 31
0.0
  0
LINE
  5
1F1
330
1F
100
AcDbEntity
  8
0
  6
Continuous
 62
     7
370
    35
100
AcDbLine
 10
582.6979285186
 20
120.1356795041
 30
0.0
 11
510.5730368376
 21
161.772493207
 31
0.0
  0
LINE
  5
1F2
330
1F
100
AcDbEntity
  8
0
  6
Continuous
 62
     7
370
    35
100
AcDbLine
 10
510.5730368376
 20
161.772493207
 30
0.0
 11
492.8953673079
 21
171.9775946048
 31
0.0
  0
LINE
  5
1F3
330
1F
100
AcDbEntity
  8
0
  6
Continuous
 62
     7
370
    35
100
AcDbLine
 10
492.8953673079
 20
171.9775946048
 30
0.0
 11
420.7704756269
 21
213.6144083078
 31
0.0
  0
LINE
  5
1F4
330
1F
100
AcDbEntity
  8
0
  6
Continuous
 62
     7
370
    35
100
AcDbLine
 10
420.7704756269
 20
213.6144083078
 30
0.0
 11
403.0928060972
 21
223.8195097056
 31
0.0
  0
LINE
  5
1F5
330
1F
100
AcDbEntity
  8
0
  6
Continuous
 62
     7
370
    35
100
AcDbLine
 10
403.0928060972
 20
223.8195097056
 30
0.0
 11
330.9679144162
 21
265.4563234085
 31
0.0
  0
LINE
  5
1F6
330
1F
100
AcDbEntity
  8
0
  6
Continuous
 62
     7
370
    35
100
AcDbLine
 10
330.9679144162
 20
265.4563234085
 30
0.0
 11
298.7945558722
 21
284.0296079525
 31
0.0
  0
ARC
  5
1F7
330
1F
100
AcDbEntity
  8
0
  6
Continuous
 62
     7
370
    35
100
AcDbCircle
 10
301.2788838327
 20
287.9134251127
 30
0.0
 40
4.610414422716284
100
AcDbArc
 50
182.6054784857
 51
237.39452166
  0
LINE
  5
1F8
330
1F
100
AcDbEntity
  8
0
  6
Continuous
 62
     7
370
    35
100
AcDbLine
 10
296.6732355286
 20
287.7038425559
 30
0.0
 11
296.6732355286
 21
297.5023322985
 31
0.0
  0
LWPOLYLINE
  5
1F9
330
1F
100
AcDbEntity
  8
0
  6
Continuous
 62
     7
370
    35
100
AcDbPolyline
 90
       17
 70
   128
 43
0.0
 10
951.6308916027
 20
-83.3326698891
 10
951.5636099792
 20
-82.903233234
 10
951.3720081262
 20
-82.4614927078
 10
951.0852556888
 20
-82.0746993013
 10
950.7470081262
 20
-81.8017388044
 10
950.4087605636
 20
-81.6841669783
 10
950.1220081262
 20
-81.7398830677
 10
949.9304062731
 20
-81.9604048031
 10
949.8631246497
 20
-82.3121597494
 10
949.9304062731
 20
-82.7415964045
 10
950.1220081262
 20
-83.1833369307
 10
950.4087605636
 20
-83.5701303372
 10
950.7470081262
 20
-83.8430908341
 10
951.0852556888
 20
-83.9606626602
 10
951.3720081262
 20
-83.9049465708
 10
951.5636099792
 20
-83.6844248354
 10
951.6308916027
 20
-83.3326698891
  0
LWPOLYLINE
  5
1FA
330
1F
100
AcDbEntity
  8
0
  6
Continuous
 62
     7
370
    35
100
AcDbPolyline
 90
       17
 70
   128
 43
0.0
 10
861.828330392
 20
-31.4907547884
 10
861.7610487685
 20
-31.0613181332
 10
861.5694469155
 20
-30.6195776071
 10
861.2826944781
 20
-30.2327842006
 10
860.9444469155
 20
-29.9598237037
 10
860.6061993529
 20
-29.8422518775
 10
860.3194469155
 20
-29.897967967
 10
860.1278450624
 20
-30.1184897024
 10
860.060563439
 20
-30.4702446486
 10
860.1278450624
 20
-30.8996813038
 10
860.3194469155
 20
-31.34142183
 10
860.6061993529
 20
-31.7282152364
 10
860.9444469155
 20
-32.0011757334
 10
861.2826944781
 20
-32.1187475595
 10
861.5694469155
 20
-32.0630314701
 10
861.7610487685
 20
-31.8425097346
 10
861.828330392
 20
-31.4907547884
  0
LWPOLYLINE
  5
1FB
330
1F
100
AcDbEntity
  8
0
  6
Continuous
 62
     7
370
    35
100
AcDbPolyline
 90
       17
 70
   128
 43
0.0
 10
772.0257691813
 20
20.3511603123
 10
771.9584875578
 20
20.7805969675
 10
771.7668857048
 20
21.2223374937
 10
771.4801332674
 20
21.6091309002
 10
771.1418857048
 20
21.8820913971
 10
770.8036381422
 20
21.9996632232
 10
770.5168857048
 20
21.9439471338
 10
770.3252838517
 20
21.7234253984
 10
770.2580022283
 20
21.3716704521
 10
770.3252838517
 20
20.942233797
 10
770.5168857048
 20
20.5004932708
 10
770.8036381422
 20
20.1136998643
 10
771.1418857048
 20
19.8407393674
 10
771.4801332674
 20
19.7231675413
 10
771.7668857048
 20
19.7788836307
 10
771.9584875578
 20
19.9994053661
 10
772.0257691813
 20
20.3511603123
  0
LWPOLYLINE
  5
1FC
330
1F
100
AcDbEntity
  8
0
  6
Continuous
 62
     7
370
    35
100
AcDbPolyline
 90
       17
 70
   128
 43
0.0
 10
682.2232079706
 20
72.1930754131
 10
682.1559263472
 20
72.6225120682
 10
681.9643244941
 20
73.0642525944
 10
681.6775720567
 20
73.4510460009
 10
681.3393244941
 20
73.7240064978
 10
681.0010769315
 20
73.841578324
 10
680.7143244941
 20
73.7858622345
 10
680.5227226411
 20
73.5653404991
 10
680.4554410176
 20
73.2135855529
 10
680.5227226411
 20
72.7841488977
 10
680.7143244941
 20
72.3424083715
 10
681.0010769315
 20
71.9556149651
 10
681.3393244941
 20
71.6826544681
 10
681.6775720567
 20
71.565082642
 10
681.9643244941
 20
71.6207987314
 10
682.1559263472
 20
71.8413204668
 10
682.2232079706
 20
72.1930754131
  0
LWPOLYLINE
  5
1FD
330
1F
100
AcDbEntity
  8
0
  6
Continuous
 62
     7
370
    35
100
AcDbPolyline
 90
       17
 70
   128
 43
0.0
 10
592.4206467599
 20
124.0349905138
 10
592.3533651365
 20
124.464427169
 10
592.1617632834
 20
124.9061676952
 10
591.875010846
 20
125.2929611016
 10
591.5367632834
 20
125.5659215986
 10
591.1985157208
 20
125.6834934247
 10
590.9117632834
 20
125.6277773353
 10
590.7201614304
 20
125.4072555998
 10
590.6528798069
 20
125.0555006536
 10
590.7201614304
 20
124.6260639985
 10
590.9117632834
 20
124.1843234723
 10
591.1985157208
 20
123.7975300658
 10
591.5367632834
 20
123.5245695689
 10
591.875010846
 20
123.4069977427
 10
592.1617632834
 20
123.4627138322
 10
592.3533651365
 20
123.6832355676
 10
592.4206467599
 20
124.0349905138
  0
LWPOLYLINE
  5
1FE
330
1F
100
AcDbEntity
  8
0
  6
Continuous
 62
     7
370
    35
100
AcDbPolyline
 90
       17
 70
   128
 43
0.0
 10
502.6180855492
 20
175.8769056146
 10
502.5508039258
 20
176.3063422697
 10
502.3592020727
 20
176.7480827959
 10
502.0724496353
 20
177.1348762024
 10
501.7342020727
 20
177.4078366993
 10
501.3959545101
 20
177.5254085254
 10
501.1092020727
 20
177.469692436
 10
500.9176002197
 20
177.2491707006
 10
500.8503185962
 20
176.8974157543
 10
500.9176002197
 20
176.4679790992
 10
501.1092020727
 20
176.026238573
 10
501.3959545101
 20
175.6394451665
 10
501.7342020727
 20
175.3664846696
 10
502.0724496353
 20
175.2489128435
 10
502.3592020727
 20
175.3046289329
 10
502.5508039258
 20
175.5251506683
 10
502.6180855492
 20
175.8769056146
  0
LWPOLYLINE
  5
1FF
330
1F
100
AcDbEntity
  8
0
  6
Continuous
 62
     7
370
    35
100
AcDbPolyline
 90
       17
 70
   128
 43
0.0
 10
412.8155243385
 20
227.7188207153
 10
412.7482427151
 20
228.1482573705
 10
412.556640862
 20
228.5899978966
 10
412.2698884246
 20
228.9767913031
 10
411.931640862
 20
229.2497518001
 10
411.5933932994
 20
229.3673236262
 10
411.306640862
 20
229.3116075368
 10
411.115039009
 20
229.0910858013
 10
411.0477573855
 20
228.7393308551
 10
411.115039009
 20
228.3098941999
 10
411.306640862
 20
227.8681536738
 10
411.5933932994
 20
227.4813602673
 10
411.931640862
 20
227.2083997703
 10
412.2698884246
 20
227.0908279442
 10
412.556640862
 20
227.1465440336
 10
412.7482427151
 20
227.3670657691
 10
412.8155243385
 20
227.7188207153
  0
LWPOLYLINE
  5
200
330
1F
100
AcDbEntity
  8
0
  6
Continuous
 62
     7
370
    35
100
AcDbPolyline
 90
       17
 70
   128
 43
0.0
 10
323.0129631278
 20
279.5607358161
 10
322.9456815044
 20
279.9901724712
 10
322.7540796513
 20
280.4319129974
 10
322.4673272139
 20
280.8187064039
 10
322.1290796513
 20
281.0916669008
 10
321.7908320887
 20
281.2092387269
 10
321.5040796513
 20
281.1535226375
 10
321.3124777983
 20
280.9330009021
 10
321.2451961749
 20
280.5812459558
 10
321.3124777983
 20
280.1518093007
 10
321.5040796513
 20
279.7100687745
 10
321.7908320887
 20
279.323275368
 10
322.1290796513
 20
279.0503148711
 10
322.4673272139
 20
278.932743045
 10
322.7540796513
 20
278.9884591344
 10
322.9456815044
 20
279.2089808698
 10
323.0129631278
 20
279.5607358161
  0
LINE
  5
201
330
1F
100
AcDbEntity
  8
0
  6
Continuous
 62
     7
370
    35
100
AcDbLine
 10
974.0815319053
 20
-6.1872863928
 30
0.0
 11
975.4957454677
 21
-5.370878281
 31
0.0
  0
ARC
  5
202
330
1F
100
AcDbEntity
  8
0
  6
Continuous
 62
     7
370
    35
100
AcDbCircle
 10
973.0114175072
 20
-9.2546954411
 30
0.0
 40
4.610414422716285
100
AcDbArc
 50
2.6054784857
 51
57.39452166
  0
LINE
  5
203
330
1F
100
AcDbEntity
  8
0
  6
Continuous
 62
     7
370
    35
100
AcDbLine
 10
977.6170658113
 20
-9.0451128844
 30
0.0
 11
976.2028522489
 21
-9.8615209962
 31
0.0
  0
LINE
  5
204
330
1F
100
AcDbEntity
  8
0
  6
Continuous
 62
     7
370
    35
100
AcDbLine
 10
946.8579208297
 20
-3.5336946292
 30
0.0
 11
946.8579208297
 21
-1.9006130055
 31
0.0
  0
LINE
  5
205
330
1F
100
AcDbEntity
  8
0
  6
Continuous
 62
     7
370
    35
100
AcDbLine
 10
946.8579208297
 20
-1.9006130055
 30
0.0
 11
958.1716293286
 21
4.6306518891
 31
0.0
  0
LINE
  5
206
330
1F
100
AcDbEntity
  8
0
  6
Continuous
 62
     7
370
    35
100
AcDbLine
 10
958.1716293286
 20
2.9975702653
 30
0.0
 11
958.1716293286
 21
4.6306518891
 31
0.0
  0
LINE
  5
207
330
1F
100
AcDbEntity
  8
0
  6
Continuous
 62
     7
370
    35
100
AcDbLine
 10
946.8579208297
 20
-3.5336946292
 30
0.0
 11
958.1716293286
 21
2.9975702653
 31
0.0
  0
LINE
  5
208
330
1F
100
AcDbEntity
  8
0
  6
Continuous
 62
     7
370
    35
100
AcDbLine
 10
903.0173003961
 20
23.408038461
 30
0.0
 11
946.8579208297
 21
-1.9006130055
 31
0.0
  0
LINE
  5
209
330
1F
100
AcDbEntity
  8
0
  6
Continuous
 62
     7
370
    35
100
AcDbLine
 10
914.3310088951
 20
29.9393033556
 30
0.0
 11
903.0173003961
 21
23.408038461
 31
0.0
  0
LINE
  5
20A
330
1F
100
AcDbEntity
  8
0
  6
Continuous
 62
     7
370
    35
100
AcDbLine
 10
914.3310088951
 20
29.9393033556
 30
0.0
 11
958.1716293286
 21
4.6306518891
 31
0.0
  0
LINE
  5
20B
330
1F
100
AcDbEntity
  8
0
  6
Continuous
 62
     7
370
    35
100
AcDbLine
 10
903.0173003961
 20
21.7749568373
 30
0.0
 11
946.8579208297
 21
-3.5336946292
 31
0.0
  0
LINE
  5
20C
330
1F
100
AcDbEntity
  8
0
  6
Continuous
 62
     7
370
    35
100
AcDbLine
 10
903.0173003961
 20
21.7749568373
 30
0.0
 11
903.0173003961
 21
23.408038461
 31
0.0
  0
LINE
  5
20D
330
1F
100
AcDbEntity
  8
0
  6
Continuous
 62
     7
370
    35
100
AcDbLine
 10
977.6170658113
 20
-18.843602627
 30
0.0
 11
976.2028522489
 21
-19.6600107388
 31
0.0
  0
LINE
  5
20E
330
1F
100
AcDbEntity
  8
0
  6
Continuous
 62
     7
370
    35
100
AcDbLine
 10
977.6170658113
 20
-9.0451128844
 30
0.0
 11
977.6170658113
 21
-18.843602627
 31
0.0
  0
LINE
  5
20F
330
1F
100
AcDbEntity
  8
0
  6
Continuous
 62
     7
370
    35
100
AcDbLine
 10
961.0000564534
 20
2.9973048652
 30
0.0
 11
959.585842891
 21
2.1808967534
 31
0.0
  0
LINE
  5
210
330
1F
100
AcDbEntity
  8
0
  6
Continuous
 62
     7
370
    35
100
AcDbLine
 10
975.4957454677
 20
-5.370878281
 30
0.0
 11
961.0000564534
 21
2.9973048652
 31
0.0
  0
ARC
  5
211
330
1F
100
AcDbEntity
  8
0
  6
Continuous
 62
     7
370
    35
100
AcDbCircle
 10
976.7868104366
 20
-95.3985480365
 30
0.0
 40
2.011757113974948
100
AcDbArc
 50
294.3746582936
 51
354.3052007488
  0
ARC
  5
212
330
1F
100
AcDbEntity
  8
0
  6
Continuous
 62
     7
370
    35
100
AcDbCircle
 10
976.9973577041
 20
-20.4764188506
 30
0.0
 40
1.746461267337149
100
AcDbArc
 50
290.7834207995
 51
69.2165792005
  0
ARC
  5
213
330
1F
100
AcDbEntity
  8
0
  6
Continuous
 62
     7
370
    35
100
AcDbCircle
 10
975.8929981953
 20
-20.4764188506
 30
0.0
 40
0.8732306336686115
100
AcDbArc
 50
290.7834207995
 51
69.2165792005
  0
ARC
  5
214
330
1F
100
AcDbEntity
  8
0
  6
Continuous
 62
     7
370
    35
100
AcDbCircle
 10
958.7236941562
 20
2.3207511472
 30
0.0
 40
0.8734183948569011
100
AcDbArc
 50
350.7859630095
 51
129.2032852357
  0
ARC
  5
215
330
1F
100
AcDbEntity
  8
0
  6
Continuous
 62
     7
370
    35
100
AcDbCircle
 10
959.2757589837
 20
3.2770136528
 30
0.0
 40
1.746836789713899
100
AcDbArc
 50
350.7859630095
 51
129.2032852357
  0
ARC
  5
216
330
1F
100
AcDbEntity
  8
0
  6
Continuous
 62
     7
370
    35
100
AcDbCircle
 10
915.5026891145
 20
28.3037780391
 30
0.0
 40
2.011908943607245
100
AcDbArc
 50
65.6928809539
 51
125.6175774752
  0
LWPOLYLINE
  5
217
330
1F
100
AcDbEntity
  8
0
  6
Continuous
 62
     7
370
    35
100
AcDbPolyline
 90
        3
 70
   128
 43
0.0
 10
968.9550077417
 20
-99.1684993326
 10
969.0795249781
 20
-98.3787079065
 10
969.0830016474
 20
-98.3691079652
  0
ARC
  5
218
330
1F
100
AcDbEntity
  8
0
  6
Continuous
 62
     7
370
    35
100
AcDbCircle
 10
973.4426660223
 20
-99.1851037949
 30
0.0
 40
4.487688998948101
100
AcDbArc
 50
179.7880049665
 51
251.3692634608
  0
ARC
  5
219
330
1F
100
AcDbEntity
  8
0
  6
Continuous
 62
     7
370
    35
100
AcDbCircle
 10
974.42224219
 20
-109.8625074584
 30
0.0
 40
1.438576639771933
100
AcDbArc
 50
304.0563508445
 51
7.2558295489
  0
LINE
  5
21A
330
1F
100
AcDbEntity
  8
0
  6
Continuous
 62
     7
370
    35
100
AcDbLine
 10
866.2477477744
 20
56.0638321337
 30
0.0
 11
867.6619613368
 21
56.8802402455
 31
0.0
  0
LINE
  5
21B
330
1F
100
AcDbEntity
  8
0
  6
Continuous
 62
     7
370
    35
100
AcDbLine
 10
867.6619613368
 20
56.8802402455
 30
0.0
 11
914.3305491588
 21
29.9390379555
 31
0.0
  0
LINE
  5
21C
330
1F
100
AcDbEntity
  8
0
  6
Continuous
 62
     7
370
    35
100
AcDbLine
 10
976.2028522489
 20
-104.5802551749
 30
0.0
 11
977.6170658113
 21
-103.7638470631
 31
0.0
  0
LINE
  5
21D
330
1F
100
AcDbEntity
  8
0
  6
Continuous
 62
     7
370
    35
100
AcDbLine
 10
977.6170658113
 20
-97.2309897678
 30
0.0
 11
977.6170658113
 21
-103.7638470631
 31
0.0
  0
ARC
  5
21E
330
1F
100
AcDbEntity
  8
0
  6
Continuous
 62
     7
370
    35
100
AcDbCircle
 10
976.1900091436
 20
-103.9455391489
 30
0.0
 40
1.438576639207898
100
AcDbArc
 50
304.0563508306
 51
7.2558295627
  0
ARC
  5
21F
330
1F
100
AcDbEntity
  8
0
  6
Continuous
 62
     7
370
    35
100
AcDbCircle
 10
686.4002996522
 20
149.9512957936
 30
0.0
 40
1.30984595050279
100
AcDbArc
 50
110.7834207995
 51
249.2165792005
  0
LINE
  5
220
330
1F
100
AcDbEntity
  8
0
  6
Continuous
 62
     7
370
    35
100
AcDbLine
 10
695.1279067272
 20
156.4825606881
 30
0.0
 11
685.9355185718
 21
151.1759079613
 31
0.0
  0
LINE
  5
221
330
1F
100
AcDbEntity
  8
0
  6
Continuous
 62
     7
370
    35
100
AcDbLine
 10
695.1279067272
 20
156.4825606881
 30
0.0
 11
864.833534212
 21
58.5135872694
 31
0.0
  0
LINE
  5
222
330
1F
100
AcDbEntity
  8
0
  6
Continuous
 62
     7
370
    35
100
AcDbLine
 10
855.6411460566
 20
53.2069345426
 30
0.0
 11
864.833534212
 21
58.5135872694
 31
0.0
  0
ARC
  5
223
330
1F
100
AcDbEntity
  8
0
  6
Continuous
 62
     7
370
    35
100
AcDbCircle
 10
853.519825713
 20
57.3010677974
 30
0.0
 40
4.611065723734986
100
AcDbArc
 50
242.6096722366
 51
297.3903277634
  0
LINE
  5
224
330
1F
100
AcDbEntity
  8
0
  6
Continuous
 62
     7
370
    35
100
AcDbLine
 10
685.9355185718
 20
148.7266836258
 30
0.0
 11
851.3985053695
 21
53.2069345426
 31
0.0
  0
LINE
  5
225
330
1F
100
AcDbEntity
  8
0
  6
Continuous
 62
     7
370
    35
100
AcDbLine
 10
851.3985053695
 20
51.5738529188
 30
0.0
 11
851.3985053695
 21
53.2069345426
 31
0.0
  0
LINE
  5
226
330
1F
100
AcDbEntity
  8
0
  6
Continuous
 62
     7
370
    35
100
AcDbLine
 10
855.6411460566
 20
53.2069345426
 30
0.0
 11
855.6411460566
 21
51.5738529188
 31
0.0
  0
ARC
  5
227
330
1F
100
AcDbEntity
  8
0
  6
Continuous
 62
     7
370
    35
100
AcDbCircle
 10
853.519825713
 20
55.6679861737
 30
0.0
 40
4.611065723735006
100
AcDbArc
 50
242.6096722366
 51
297.3903277634
  0
LINE
  5
228
330
1F
100
AcDbEntity
  8
0
  6
Continuous
 62
     7
370
    35
100
AcDbLine
 10
864.833534212
 20
56.8805056456
 30
0.0
 11
864.833534212
 21
58.5135872694
 31
0.0
  0
LINE
  5
229
330
1F
100
AcDbEntity
  8
0
  6
Continuous
 62
     7
370
    35
100
AcDbLine
 10
855.6411460566
 20
51.5738529188
 30
0.0
 11
864.833534212
 21
56.8805056456
 31
0.0
  0
LINE
  5
22A
330
1F
100
AcDbEntity
  8
0
  6
Continuous
 62
     7
370
    35
100
AcDbLine
 10
685.9355185718
 20
148.7266836258
 30
0.0
 11
685.9355185718
 21
147.0936020021
 31
0.0
  0
LINE
  5
22B
330
1F
100
AcDbEntity
  8
0
  6
Continuous
 62
     7
370
    35
100
AcDbLine
 10
685.9355185718
 20
147.0936020021
 30
0.0
 11
851.3985053695
 21
51.5738529188
 31
0.0
  0
ARC
  5
22C
330
1F
100
AcDbEntity
  8
0
  6
Continuous
 62
     7
370
    35
100
AcDbCircle
 10
865.9376638671
 20
57.1599490331
 30
0.0
 40
1.74683678971401
100
AcDbArc
 50
350.7859630095
 51
129.2032852357
  0
ARC
  5
22D
330
1F
100
AcDbEntity
  8
0
  6
Continuous
 62
     7
370
    35
100
AcDbCircle
 10
865.3855990395
 20
56.2036865275
 30
0.0
 40
0.8734183948571334
100
AcDbArc
 50
350.7859630095
 51
129.2032852357
  0
ARC
  5
22E
330
1F
100
AcDbEntity
  8
0
  6
Continuous
 62
     7
370
    35
100
AcDbCircle
 10
696.2995869466
 20
154.8470353717
 30
0.0
 40
2.011908943607287
100
AcDbArc
 50
65.6928809539
 51
125.6175774752
  0
ARC
  5
22F
330
1F
100
AcDbEntity
  8
0
  6
Continuous
 62
     7
370
    35
100
AcDbCircle
 10
859.6414610429
 20
-54.5759218261
 30
0.0
 40
1.309845950502911
100
AcDbArc
 50
110.7834207995
 51
249.2165792005
  0
LINE
  5
230
330
1F
100
AcDbEntity
  8
0
  6
Continuous
 62
     7
370
    35
100
AcDbLine
 10
868.3690681179
 20
-48.0446569315
 30
0.0
 11
859.1766799625
 21
-53.3513096584
 31
0.0
  0
LINE
  5
231
330
1F
100
AcDbEntity
  8
0
  6
Continuous
 62
     7
370
    35
100
AcDbLine
 10
868.3690681179
 20
-48.0446569315
 30
0.0
 11
940.493959799
 21
-89.6814706345
 31
0.0
  0
LINE
  5
232
330
1F
100
AcDbEntity
  8
0
  6
Continuous
 62
     7
370
    35
100
AcDbLine
 10
940.493959799
 20
-89.6814706345
 30
0.0
 11
931.3015716435
 21
-94.9881233613
 31
0.0
  0
ARC
  5
233
330
1F
100
AcDbEntity
  8
0
  6
Continuous
 62
     7
370
    35
100
AcDbCircle
 10
929.1802513
 20
-90.8939901065
 30
0.0
 40
4.611065723734695
100
AcDbArc
 50
242.6096722366
 51
297.3903277634
  0
LINE
  5
234
330
1F
100
AcDbEntity
  8
0
  6
Continuous
 62
     7
370
    35
100
AcDbLine
 10
927.0589309564
 20
-94.9881233613
 30
0.0
 11
859.1766799625
 21
-55.8005339938
 31
0.0
  0
LINE
  5
235
330
1F
100
AcDbEntity
  8
0
  6
Continuous
 62
     7
370
    35
100
AcDbLine
 10
927.0589309564
 20
-96.6212049851
 30
0.0
 11
927.0589309564
 21
-94.9881233613
 31
0.0
  0
LINE
  5
236
330
1F
100
AcDbEntity
  8
0
  6
Continuous
 62
     7
370
    35
100
AcDbLine
 10
931.3015716435
 20
-94.9881233613
 30
0.0
 11
931.3015716435
 21
-96.6212049851
 31
0.0
  0
ARC
  5
237
330
1F
100
AcDbEntity
  8
0
  6
Continuous
 62
     7
370
    35
100
AcDbCircle
 10
929.1802513
 20
-92.5270717302
 30
0.0
 40
4.611065723735176
100
AcDbArc
 50
242.6096722366
 51
297.3903277634
  0
LINE
  5
238
330
1F
100
AcDbEntity
  8
0
  6
Continuous
 62
     7
370
    35
100
AcDbLine
 10
859.1766799625
 20
-55.8005339938
 30
0.0
 11
859.1766799625
 21
-57.4336156176
 31
0.0
  0
LINE
  5
239
330
1F
100
AcDbEntity
  8
0
  6
Continuous
 62
     7
370
    35
100
AcDbLine
 10
927.0589309564
 20
-96.6212049851
 30
0.0
 11
859.1766799625
 21
-57.4336156176
 31
0.0
  0
LINE
  5
23A
330
1F
100
AcDbEntity
  8
0
  6
Continuous
 62
     7
370
    35
100
AcDbLine
 10
940.493959799
 20
-91.3145522582
 30
0.0
 11
940.493959799
 21
-89.6814706345
 31
0.0
  0
LINE
  5
23B
330
1F
100
AcDbEntity
  8
0
  6
Continuous
 62
     7
370
    35
100
AcDbLine
 10
940.493959799
 20
-91.3145522582
 30
0.0
 11
931.3015716435
 21
-96.6212049851
 31
0.0
  0
ARC
  5
23C
330
1F
100
AcDbEntity
  8
0
  6
Continuous
 62
     7
370
    35
100
AcDbCircle
 10
938.8377411586
 20
-87.0922591944
 30
0.0
 40
3.073609615144226
100
AcDbArc
 50
302.60547834
 51
357.3945215143
  0
ARC
  5
23D
330
1F
100
AcDbEntity
  8
0
  6
Continuous
 62
     7
370
    35
100
AcDbCircle
 10
866.7128494776
 20
-45.4554454914
 30
0.0
 40
3.073609615143762
100
AcDbArc
 50
302.60547834
 51
357.3945215144
  0
ARC
  5
23E
330
1F
100
AcDbEntity
  8
0
  6
Continuous
 62
     7
370
    35
100
AcDbCircle
 10
937.1528606693
 20
-86.1095397515
 30
0.0
 40
6.185070621285714
100
AcDbArc
 50
302.6964179332
 51
343.1361685723
  0
ARC
  5
23F
330
1F
100
AcDbEntity
  8
0
  6
Continuous
 62
     7
370
    35
100
AcDbCircle
 10
859.7993714936
 20
-56.0592843192
 30
0.0
 40
1.50881783548234
100
AcDbArc
 50
185.6947992512
 51
245.6253417064
  0
LINE
  5
240
330
1F
100
AcDbEntity
  8
0
  6
Continuous
 62
     7
370
    35
100
AcDbLine
 10
839.3776900893
 20
-46.0039020521
 30
0.0
 11
767.2527984083
 21
-4.3670883491
 31
0.0
  0
LINE
  5
241
330
1F
100
AcDbEntity
  8
0
  6
Continuous
 62
     7
370
    35
100
AcDbLine
 10
767.2527984083
 20
-2.7340067254
 30
0.0
 11
767.2527984083
 21
-4.3670883491
 31
0.0
  0
LINE
  5
242
330
1F
100
AcDbEntity
  8
0
  6
Continuous
 62
     7
370
    35
100
AcDbLine
 10
839.3776900893
 20
-44.3708204283
 30
0.0
 11
767.2527984083
 21
-2.7340067254
 31
0.0
  0
LINE
  5
243
330
1F
100
AcDbEntity
  8
0
  6
Continuous
 62
     7
370
    35
100
AcDbLine
 10
839.3776900893
 20
-46.0039020521
 30
0.0
 11
839.3776900893
 21
-44.3708204283
 31
0.0
  0
LINE
  5
244
330
1F
100
AcDbEntity
  8
0
  6
Continuous
 62
     7
370
    35
100
AcDbLine
 10
767.2527984083
 20
-2.7340067254
 30
0.0
 11
778.5665069073
 21
3.7972581692
 31
0.0
  0
LINE
  5
245
330
1F
100
AcDbEntity
  8
0
  6
Continuous
 62
     7
370
    35
100
AcDbLine
 10
778.5665069073
 20
3.7972581692
 30
0.0
 11
850.6913985883
 21
-37.8395555337
 31
0.0
  0
LINE
  5
246
330
1F
100
AcDbEntity
  8
0
  6
Continuous
 62
     7
370
    35
100
AcDbLine
 10
850.6913985883
 20
-37.8395555337
 30
0.0
 11
839.3776900893
 21
-44.3708204283
 31
0.0
  0
LINE
  5
247
330
1F
100
AcDbEntity
  8
0
  6
Continuous
 62
     7
370
    35
100
AcDbLine
 10
850.6913985883
 20
-39.4726371575
 30
0.0
 11
850.6913985883
 21
-37.8395555337
 31
0.0
  0
LINE
  5
248
330
1F
100
AcDbEntity
  8
0
  6
Continuous
 62
     7
370
    35
100
AcDbLine
 10
850.6913985883
 20
-39.4726371575
 30
0.0
 11
839.3776900893
 21
-46.0039020521
 31
0.0
  0
ARC
  5
249
330
1F
100
AcDbEntity
  8
0
  6
Continuous
 62
     7
370
    35
100
AcDbCircle
 10
849.0351799479
 20
-35.2503440936
 30
0.0
 40
3.073609615143657
100
AcDbArc
 50
302.60547834
 51
357.3945215144
  0
ARC
  5
24A
330
1F
100
AcDbEntity
  8
0
  6
Continuous
 62
     7
370
    35
100
AcDbCircle
 10
847.3502994586
 20
-34.2676246507
 30
0.0
 40
6.185070621286247
100
AcDbArc
 50
302.6964179332
 51
343.1361685723
  0
ARC
  5
24B
330
1F
100
AcDbEntity
  8
0
  6
Continuous
 62
     7
370
    35
100
AcDbCircle
 10
776.9102882669
 20
6.3864696093
 30
0.0
 40
3.073609615144092
100
AcDbArc
 50
302.60547834
 51
357.3945215143
  0
ARC
  5
24C
330
1F
100
AcDbEntity
  8
0
  6
Continuous
 62
     7
370
    35
100
AcDbCircle
 10
686.5582101028
 20
148.4679333005
 30
0.0
 40
1.508817835481239
100
AcDbArc
 50
185.6947992512
 51
245.6253417064
  0
LINE
  5
24D
330
1F
100
AcDbEntity
  8
0
  6
Continuous
 62
     7
370
    35
100
AcDbLine
 10
647.0446456066
 20
182.6070894662
 30
0.0
 11
648.4588591689
 21
183.423497578
 31
0.0
  0
LINE
  5
24E
330
1F
100
AcDbEntity
  8
0
  6
Continuous
 62
     7
370
    35
100
AcDbLine
 10
648.4588591689
 20
183.423497578
 30
0.0
 11
695.1274469909
 21
156.482295288
 31
0.0
  0
ARC
  5
24F
330
1F
100
AcDbEntity
  8
0
  6
Continuous
 62
     7
370
    35
100
AcDbCircle
 10
680.0363386215
 20
49.1079083754
 30
0.0
 40
1.309845950502817
100
AcDbArc
 50
110.7834207995
 51
249.2165792005
  0
LINE
  5
250
330
1F
100
AcDbEntity
  8
0
  6
Continuous
 62
     7
370
    35
100
AcDbLine
 10
679.5715575411
 20
50.3325205431
 30
0.0
 11
688.7639456966
 21
55.63917327
 31
0.0
  0
LINE
  5
251
330
1F
100
AcDbEntity
  8
0
  6
Continuous
 62
     7
370
    35
100
AcDbLine
 10
688.7639456966
 20
55.63917327
 30
0.0
 11
760.8888373776
 21
14.002359567
 31
0.0
  0
LINE
  5
252
330
1F
100
AcDbEntity
  8
0
  6
Continuous
 62
     7
370
    35
100
AcDbLine
 10
760.8888373776
 20
14.002359567
 30
0.0
 11
751.6964492222
 21
8.6957068402
 31
0.0
  0
ARC
  5
253
330
1F
100
AcDbEntity
  8
0
  6
Continuous
 62
     7
370
    35
100
AcDbCircle
 10
749.5751288786
 20
12.789840095
 30
0.0
 40
4.611065723735125
100
AcDbArc
 50
242.6096722366
 51
297.3903277634
  0
LINE
  5
254
330
1F
100
AcDbEntity
  8
0
  6
Continuous
 62
     7
370
    35
100
AcDbLine
 10
747.453808535
 20
8.6957068402
 30
0.0
 11
679.5715575411
 21
47.8832962077
 31
0.0
  0
LINE
  5
255
330
1F
100
AcDbEntity
  8
0
  6
Continuous
 62
     7
370
    35
100
AcDbLine
 10
751.6964492222
 20
8.6957068402
 30
0.0
 11
751.6964492222
 21
7.0626252164
 31
0.0
  0
ARC
  5
256
330
1F
100
AcDbEntity
  8
0
  6
Continuous
 62
     7
370
    35
100
AcDbCircle
 10
749.5751288786
 20
11.1567584713
 30
0.0
 40
4.611065723735397
100
AcDbArc
 50
242.6096722366
 51
297.3903277634
  0
LINE
  5
257
330
1F
100
AcDbEntity
  8
0
  6
Continuous
 62
     7
370
    35
100
AcDbLine
 10
747.453808535
 20
7.0626252164
 30
0.0
 11
747.453808535
 21
8.6957068402
 31
0.0
  0
LINE
  5
258
330
1F
100
AcDbEntity
  8
0
  6
Continuous
 62
     7
370
    35
100
AcDbLine
 10
760.8888373776
 20
14.002359567
 30
0.0
 11
760.8888373776
 21
12.3692779432
 31
0.0
  0
LINE
  5
259
330
1F
100
AcDbEntity
  8
0
  6
Continuous
 62
     7
370
    35
100
AcDbLine
 10
760.8888373776
 20
12.3692779432
 30
0.0
 11
751.6964492222
 21
7.0626252164
 31
0.0
  0
LINE
  5
25A
330
1F
100
AcDbEntity
  8
0
  6
Continuous
 62
     7
370
    35
100
AcDbLine
 10
679.5715575411
 20
47.8832962077
 30
0.0
 11
679.5715575411
 21
46.2502145839
 31
0.0
  0
LINE
  5
25B
330
1F
100
AcDbEntity
  8
0
  6
Continuous
 62
     7
370
    35
100
AcDbLine
 10
747.453808535
 20
7.0626252164
 30
0.0
 11
679.5715575411
 21
46.2502145839
 31
0.0
  0
ARC
  5
25C
330
1F
100
AcDbEntity
  8
0
  6
Continuous
 62
     7
370
    35
100
AcDbCircle
 10
757.5477382479
 20
17.57429045
 30
0.0
 40
6.185070621284264
100
AcDbArc
 50
302.6964179332
 51
343.1361685723
  0
ARC
  5
25D
330
1F
100
AcDbEntity
  8
0
  6
Continuous
 62
     7
370
    35
100
AcDbCircle
 10
759.2326187372
 20
16.5915710071
 30
0.0
 40
3.073609615144929
100
AcDbArc
 50
302.60547834
 51
357.3945215143
  0
ARC
  5
25E
330
1F
100
AcDbEntity
  8
0
  6
Continuous
 62
     7
370
    35
100
AcDbCircle
 10
687.1077270562
 20
58.2283847101
 30
0.0
 40
3.073609615144463
100
AcDbArc
 50
302.60547834
 51
357.3945215143
  0
LINE
  5
25F
330
1F
100
AcDbEntity
  8
0
  6
Continuous
 62
     7
370
    35
100
AcDbLine
 10
636.4380438888
 20
179.7501918751
 30
0.0
 11
636.4380438888
 21
178.1171102513
 31
0.0
  0
ARC
  5
260
330
1F
100
AcDbEntity
  8
0
  6
Continuous
 62
     7
370
    35
100
AcDbCircle
 10
634.3167235452
 20
182.2112435062
 30
0.0
 40
4.611065723735061
100
AcDbArc
 50
242.6096722366
 51
297.3903277634
  0
LINE
  5
261
330
1F
100
AcDbEntity
  8
0
  6
Continuous
 62
     7
370
    35
100
AcDbLine
 10
632.1954032016
 20
178.1171102513
 30
0.0
 11
632.1954032016
 21
179.7501918751
 31
0.0
  0
ARC
  5
262
330
1F
100
AcDbEntity
  8
0
  6
Continuous
 62
     7
370
    35
100
AcDbCircle
 10
634.3167235452
 20
183.84432513
 30
0.0
 40
4.611065723735265
100
AcDbArc
 50
242.6096722366
 51
297.3903277634
  0
LINE
  5
263
330
1F
100
AcDbEntity
  8
0
  6
Continuous
 62
     7
370
    35
100
AcDbLine
 10
405.2141264408
 20
323.8462236118
 30
0.0
 11
645.6304320442
 21
185.0568446019
 31
0.0
  0
LINE
  5
264
330
1F
100
AcDbEntity
  8
0
  6
Continuous
 62
     7
370
    35
100
AcDbLine
 10
645.6304320442
 20
185.0568446019
 30
0.0
 11
636.4380438888
 21
179.7501918751
 31
0.0
  0
LINE
  5
265
330
1F
100
AcDbEntity
  8
0
  6
Continuous
 62
     7
370
    35
100
AcDbLine
 10
396.0217382853
 20
316.0903465495
 30
0.0
 11
632.1954032016
 21
179.7501918751
 31
0.0
  0
ARC
  5
266
330
1F
100
AcDbEntity
  8
0
  6
Continuous
 62
     7
370
    35
100
AcDbCircle
 10
396.4865193657
 20
317.3149587172
 30
0.0
 40
1.309845950502836
100
AcDbArc
 50
110.7834207995
 51
249.2165792005
  0
LINE
  5
267
330
1F
100
AcDbEntity
  8
0
  6
Continuous
 62
     7
370
    35
100
AcDbLine
 10
405.2141264408
 20
323.8462236118
 30
0.0
 11
396.0217382853
 21
318.5395708849
 31
0.0
  0
LINE
  5
268
330
1F
100
AcDbEntity
  8
0
  6
Continuous
 62
     7
370
    35
100
AcDbLine
 10
396.0217382853
 20
316.0903465495
 30
0.0
 11
396.0217382853
 21
314.4572649257
 31
0.0
  0
LINE
  5
269
330
1F
100
AcDbEntity
  8
0
  6
Continuous
 62
     7
370
    35
100
AcDbLine
 10
396.0217382853
 20
314.4572649257
 30
0.0
 11
632.1954032016
 21
178.1171102513
 31
0.0
  0
LINE
  5
26A
330
1F
100
AcDbEntity
  8
0
  6
Continuous
 62
     7
370
    35
100
AcDbLine
 10
645.6304320442
 20
185.0568446019
 30
0.0
 11
645.6304320442
 21
183.4237629782
 31
0.0
  0
LINE
  5
26B
330
1F
100
AcDbEntity
  8
0
  6
Continuous
 62
     7
370
    35
100
AcDbLine
 10
645.6304320442
 20
183.4237629782
 30
0.0
 11
636.4380438888
 21
178.1171102513
 31
0.0
  0
ARC
  5
26C
330
1F
100
AcDbEntity
  8
0
  6
Continuous
 62
     7
370
    35
100
AcDbCircle
 10
406.3858066602
 20
322.2106982953
 30
0.0
 40
2.011908943607504
100
AcDbArc
 50
65.6928809539
 51
125.6175774752
  0
ARC
  5
26D
330
1F
100
AcDbEntity
  8
0
  6
Continuous
 62
     7
370
    35
100
AcDbCircle
 10
646.7345616992
 20
183.7032063656
 30
0.0
 40
1.746836789713914
100
AcDbArc
 50
350.7859630095
 51
129.2032852357
  0
ARC
  5
26E
330
1F
100
AcDbEntity
  8
0
  6
Continuous
 62
     7
370
    35
100
AcDbCircle
 10
646.1824968717
 20
182.74694386
 30
0.0
 40
0.8734183948570903
100
AcDbArc
 50
350.7859630095
 51
129.2032852357
  0
ARC
  5
26F
330
1F
100
AcDbEntity
  8
0
  6
Continuous
 62
     7
370
    35
100
AcDbCircle
 10
680.1942490722
 20
47.6245458823
 30
0.0
 40
1.508817835481967
100
AcDbArc
 50
185.6947992512
 51
245.6253417064
  0
LINE
  5
270
330
1F
100
AcDbEntity
  8
0
  6
Continuous
 62
     7
370
    35
100
AcDbLine
 10
671.0862761669
 20
65.8442746678
 30
0.0
 11
671.0862761669
 21
64.211193044
 31
0.0
  0
LINE
  5
271
330
1F
100
AcDbEntity
  8
0
  6
Continuous
 62
     7
370
    35
100
AcDbLine
 10
671.0862761669
 20
64.211193044
 30
0.0
 11
659.7725676679
 21
57.6799281494
 31
0.0
  0
LINE
  5
272
330
1F
100
AcDbEntity
  8
0
  6
Continuous
 62
     7
370
    35
100
AcDbLine
 10
659.7725676679
 20
59.3130097732
 30
0.0
 11
659.7725676679
 21
57.6799281494
 31
0.0
  0
LINE
  5
273
330
1F
100
AcDbEntity
  8
0
  6
Continuous
 62
     7
370
    35
100
AcDbLine
 10
671.0862761669
 20
65.8442746678
 30
0.0
 11
659.7725676679
 21
59.3130097732
 31
0.0
  0
LINE
  5
274
330
1F
100
AcDbEntity
  8
0
  6
Continuous
 62
     7
370
    35
100
AcDbLine
 10
659.7725676679
 20
59.3130097732
 30
0.0
 11
587.6476759869
 21
100.9498234761
 31
0.0
  0
LINE
  5
275
330
1F
100
AcDbEntity
  8
0
  6
Continuous
 62
     7
370
    35
100
AcDbLine
 10
587.6476759869
 20
100.9498234761
 30
0.0
 11
598.9613844859
 21
107.4810883707
 31
0.0
  0
LINE
  5
276
330
1F
100
AcDbEntity
  8
0
  6
Continuous
 62
     7
370
    35
100
AcDbLine
 10
598.9613844859
 20
107.4810883707
 30
0.0
 11
671.0862761669
 21
65.8442746678
 31
0.0
  0
LINE
  5
277
330
1F
100
AcDbEntity
  8
0
  6
Continuous
 62
     7
370
    35
100
AcDbLine
 10
659.7725676679
 20
57.6799281494
 30
0.0
 11
587.6476759869
 21
99.3167418524
 31
0.0
  0
LINE
  5
278
330
1F
100
AcDbEntity
  8
0
  6
Continuous
 62
     7
370
    35
100
AcDbLine
 10
587.6476759869
 20
100.9498234761
 30
0.0
 11
587.6476759869
 21
99.3167418524
 31
0.0
  0
ARC
  5
279
330
1F
100
AcDbEntity
  8
0
  6
Continuous
 62
     7
370
    35
100
AcDbCircle
 10
667.7451770372
 20
69.4162055508
 30
0.0
 40
6.185070621286212
100
AcDbArc
 50
302.6964179332
 51
343.1361685723
  0
ARC
  5
27A
330
1F
100
AcDbEntity
  8
0
  6
Continuous
 62
     7
370
    35
100
AcDbCircle
 10
669.4300575265
 20
68.4334861079
 30
0.0
 40
3.073609615144397
100
AcDbArc
 50
302.60547834
 51
357.3945215143
  0
ARC
  5
27B
330
1F
100
AcDbEntity
  8
0
  6
Continuous
 62
     7
370
    35
100
AcDbCircle
 10
597.3051658455
 20
110.0702998108
 30
0.0
 40
3.073609615143993
100
AcDbArc
 50
302.60547834
 51
357.3945215143
  0
LINE
  5
27C
330
1F
100
AcDbEntity
  8
0
  6
Continuous
 62
     7
370
    35
100
AcDbLine
 10
581.2837149562
 20
117.6861897685
 30
0.0
 11
581.2837149562
 21
116.0531081447
 31
0.0
  0
LINE
  5
27D
330
1F
100
AcDbEntity
  8
0
  6
Continuous
 62
     7
370
    35
100
AcDbLine
 10
581.2837149562
 20
116.0531081447
 30
0.0
 11
569.9700064572
 21
109.5218432501
 31
0.0
  0
LINE
  5
27E
330
1F
100
AcDbEntity
  8
0
  6
Continuous
 62
     7
370
    35
100
AcDbLine
 10
569.9700064572
 20
111.1549248739
 30
0.0
 11
569.9700064572
 21
109.5218432501
 31
0.0
  0
LINE
  5
27F
330
1F
100
AcDbEntity
  8
0
  6
Continuous
 62
     7
370
    35
100
AcDbLine
 10
581.2837149562
 20
117.6861897685
 30
0.0
 11
569.9700064572
 21
111.1549248739
 31
0.0
  0
LINE
  5
280
330
1F
100
AcDbEntity
  8
0
  6
Continuous
 62
     7
370
    35
100
AcDbLine
 10
569.9700064572
 20
111.1549248739
 30
0.0
 11
497.8451147762
 21
152.7917385769
 31
0.0
  0
LINE
  5
281
330
1F
100
AcDbEntity
  8
0
  6
Continuous
 62
     7
370
    35
100
AcDbLine
 10
497.8451147762
 20
152.7917385769
 30
0.0
 11
509.1588232752
 21
159.3230034715
 31
0.0
  0
LINE
  5
282
330
1F
100
AcDbEntity
  8
0
  6
Continuous
 62
     7
370
    35
100
AcDbLine
 10
509.1588232752
 20
159.3230034715
 30
0.0
 11
581.2837149562
 21
117.6861897685
 31
0.0
  0
LINE
  5
283
330
1F
100
AcDbEntity
  8
0
  6
Continuous
 62
     7
370
    35
100
AcDbLine
 10
569.9700064572
 20
109.5218432501
 30
0.0
 11
497.8451147762
 21
151.1586569531
 31
0.0
  0
LINE
  5
284
330
1F
100
AcDbEntity
  8
0
  6
Continuous
 62
     7
370
    35
100
AcDbLine
 10
497.8451147762
 20
152.7917385769
 30
0.0
 11
497.8451147762
 21
151.1586569531
 31
0.0
  0
ARC
  5
285
330
1F
100
AcDbEntity
  8
0
  6
Continuous
 62
     7
370
    35
100
AcDbCircle
 10
577.9426158265
 20
121.2581206515
 30
0.0
 40
6.185070621283971
100
AcDbArc
 50
302.6964179332
 51
343.1361685723
  0
ARC
  5
286
330
1F
100
AcDbEntity
  8
0
  6
Continuous
 62
     7
370
    35
100
AcDbCircle
 10
579.6274963158
 20
120.2754012086
 30
0.0
 40
3.07360961514379
100
AcDbArc
 50
302.60547834
 51
357.3945215144
  0
ARC
  5
287
330
1F
100
AcDbEntity
  8
0
  6
Continuous
 62
     7
370
    35
100
AcDbCircle
 10
507.5026046348
 20
161.9122149116
 30
0.0
 40
3.073609615144406
100
AcDbArc
 50
302.60547834
 51
357.3945215143
  0
ARC
  5
288
330
1F
100
AcDbEntity
  8
0
  6
Continuous
 62
     7
370
    35
100
AcDbCircle
 10
396.6444298164
 20
315.8315962241
 30
0.0
 40
1.508817835481612
100
AcDbArc
 50
185.6947992512
 51
245.6253417064
  0
LINE
  5
289
330
1F
100
AcDbEntity
  8
0
  6
Continuous
 62
     7
370
    35
100
AcDbLine
 10
491.4811537455
 20
169.5281048692
 30
0.0
 11
480.1674452465
 21
162.9968399747
 31
0.0
  0
LINE
  5
28A
330
1F
100
AcDbEntity
  8
0
  6
Continuous
 62
     7
370
    35
100
AcDbLine
 10
480.1674452465
 20
162.9968399747
 30
0.0
 11
408.0425535655
 21
204.6336536776
 31
0.0
  0
LINE
  5
28B
330
1F
100
AcDbEntity
  8
0
  6
Continuous
 62
     7
370
    35
100
AcDbLine
 10
408.0425535655
 20
204.6336536776
 30
0.0
 11
419.3562620645
 21
211.1649185722
 31
0.0
  0
LINE
  5
28C
330
1F
100
AcDbEntity
  8
0
  6
Continuous
 62
     7
370
    35
100
AcDbLine
 10
419.3562620645
 20
211.1649185722
 30
0.0
 11
491.4811537455
 21
169.5281048692
 31
0.0
  0
LINE
  5
28D
330
1F
100
AcDbEntity
  8
0
  6
Continuous
 62
     7
370
    35
100
AcDbLine
 10
491.4811537455
 20
169.5281048692
 30
0.0
 11
491.4811537455
 21
167.8950232455
 31
0.0
  0
LINE
  5
28E
330
1F
100
AcDbEntity
  8
0
  6
Continuous
 62
     7
370
    35
100
AcDbLine
 10
491.4811537455
 20
167.8950232455
 30
0.0
 11
480.1674452465
 21
161.3637583509
 31
0.0
  0
LINE
  5
28F
330
1F
100
AcDbEntity
  8
0
  6
Continuous
 62
     7
370
    35
100
AcDbLine
 10
480.1674452465
 20
162.9968399747
 30
0.0
 11
480.1674452465
 21
161.3637583509
 31
0.0
  0
LINE
  5
290
330
1F
100
AcDbEntity
  8
0
  6
Continuous
 62
     7
370
    35
100
AcDbLine
 10
480.1674452465
 20
161.3637583509
 30
0.0
 11
408.0425535655
 21
203.0005720538
 31
0.0
  0
LINE
  5
291
330
1F
100
AcDbEntity
  8
0
  6
Continuous
 62
     7
370
    35
100
AcDbLine
 10
408.0425535655
 20
204.6336536776
 30
0.0
 11
408.0425535655
 21
203.0005720538
 31
0.0
  0
ARC
  5
292
330
1F
100
AcDbEntity
  8
0
  6
Continuous
 62
     7
370
    35
100
AcDbCircle
 10
489.8249351052
 20
172.1173163094
 30
0.0
 40
3.073609615144295
100
AcDbArc
 50
302.60547834
 51
357.3945215143
  0
ARC
  5
293
330
1F
100
AcDbEntity
  8
0
  6
Continuous
 62
     7
370
    35
100
AcDbCircle
 10
488.1400546158
 20
173.1000357522
 30
0.0
 40
6.185070621286653
100
AcDbArc
 50
302.6964179332
 51
343.1361685723
  0
ARC
  5
294
330
1F
100
AcDbEntity
  8
0
  6
Continuous
 62
     7
370
    35
100
AcDbCircle
 10
417.7000434241
 20
213.7541300123
 30
0.0
 40
3.073609615144343
100
AcDbArc
 50
302.60547834
 51
357.3945215143
  0
LINE
  5
295
330
1F
100
AcDbEntity
  8
0
  6
Continuous
 62
     7
370
    35
100
AcDbLine
 10
357.1308653201
 20
349.9707523899
 30
0.0
 11
358.5450788824
 21
350.7871605017
 31
0.0
  0
LINE
  5
296
330
1F
100
AcDbEntity
  8
0
  6
Continuous
 62
     7
370
    35
100
AcDbLine
 10
358.5450788824
 20
350.7871605017
 30
0.0
 11
405.2136667044
 21
323.8459582117
 31
0.0
  0
LINE
  5
297
330
1F
100
AcDbEntity
  8
0
  6
Continuous
 62
     7
370
    35
100
AcDbLine
 10
311.8760313241
 20
377.7291589921
 30
0.0
 11
355.7166517577
 21
352.4205075256
 31
0.0
  0
LINE
  5
298
330
1F
100
AcDbEntity
  8
0
  6
Continuous
 62
     7
370
    35
100
AcDbLine
 10
355.7166517577
 20
352.4205075256
 30
0.0
 11
344.4029432587
 21
345.889242631
 31
0.0
  0
LINE
  5
299
330
1F
100
AcDbEntity
  8
0
  6
Continuous
 62
     7
370
    35
100
AcDbLine
 10
300.5623228251
 20
371.1978940975
 30
0.0
 11
344.4029432587
 21
345.889242631
 31
0.0
  0
LINE
  5
29A
330
1F
100
AcDbEntity
  8
0
  6
Continuous
 62
     7
370
    35
100
AcDbLine
 10
300.5623228251
 20
371.1978940975
 30
0.0
 11
311.8760313241
 21
377.7291589921
 31
0.0
  0
LINE
  5
29B
330
1F
100
AcDbEntity
  8
0
  6
Continuous
 62
     7
370
    35
100
AcDbLine
 10
344.4029432587
 20
345.889242631
 30
0.0
 11
344.4029432587
 21
344.2561610072
 31
0.0
  0
LINE
  5
29C
330
1F
100
AcDbEntity
  8
0
  6
Continuous
 62
     7
370
    35
100
AcDbLine
 10
300.5623228251
 20
369.5648124737
 30
0.0
 11
344.4029432587
 21
344.2561610072
 31
0.0
  0
LINE
  5
29D
330
1F
100
AcDbEntity
  8
0
  6
Continuous
 62
     7
370
    35
100
AcDbLine
 10
300.5623228251
 20
371.1978940975
 30
0.0
 11
300.5623228251
 21
369.5648124737
 31
0.0
  0
LINE
  5
29E
330
1F
100
AcDbEntity
  8
0
  6
Continuous
 62
     7
370
    35
100
AcDbLine
 10
355.7166517577
 20
350.7874259018
 30
0.0
 11
344.4029432587
 21
344.2561610072
 31
0.0
  0
LINE
  5
29F
330
1F
100
AcDbEntity
  8
0
  6
Continuous
 62
     7
370
    35
100
AcDbLine
 10
355.7166517577
 20
352.4205075256
 30
0.0
 11
355.7166517577
 21
350.7874259018
 31
0.0
  0
ARC
  5
2A0
330
1F
100
AcDbEntity
  8
0
  6
Continuous
 62
     7
370
    35
100
AcDbCircle
 10
356.2687165852
 20
350.1106067837
 30
0.0
 40
0.8734183948568931
100
AcDbArc
 50
350.7859630095
 51
129.2032852357
  0
ARC
  5
2A1
330
1F
100
AcDbEntity
  8
0
  6
Continuous
 62
     7
370
    35
100
AcDbCircle
 10
356.8207814127
 20
351.0668692893
 30
0.0
 40
1.746836789713927
100
AcDbArc
 50
350.7859630095
 51
129.2032852357
  0
ARC
  5
2A2
330
1F
100
AcDbEntity
  8
0
  6
Continuous
 62
     7
370
    35
100
AcDbCircle
 10
313.0477115435
 20
376.0936336756
 30
0.0
 40
2.011908943607492
100
AcDbArc
 50
65.6928809539
 51
125.6175774752
  0
LINE
  5
2A3
330
1F
100
AcDbEntity
  8
0
  6
Continuous
 62
     7
370
    35
100
AcDbLine
 10
401.6785925348
 20
221.37001997
 30
0.0
 11
390.3648840358
 21
214.8387550754
 31
0.0
  0
LINE
  5
2A4
330
1F
100
AcDbEntity
  8
0
  6
Continuous
 62
     7
370
    35
100
AcDbLine
 10
390.3648840358
 20
214.8387550754
 30
0.0
 11
318.2399923548
 21
256.4755687784
 31
0.0
  0
LINE
  5
2A5
330
1F
100
AcDbEntity
  8
0
  6
Continuous
 62
     7
370
    35
100
AcDbLine
 10
318.2399923548
 20
256.4755687784
 30
0.0
 11
329.5537008538
 21
263.0068336729
 31
0.0
  0
LINE
  5
2A6
330
1F
100
AcDbEntity
  8
0
  6
Continuous
 62
     7
370
    35
100
AcDbLine
 10
329.5537008538
 20
263.0068336729
 30
0.0
 11
401.6785925348
 21
221.37001997
 31
0.0
  0
LINE
  5
2A7
330
1F
100
AcDbEntity
  8
0
  6
Continuous
 62
     7
370
    35
100
AcDbLine
 10
401.6785925348
 20
221.37001997
 30
0.0
 11
401.6785925348
 21
219.7369383462
 31
0.0
  0
LINE
  5
2A8
330
1F
100
AcDbEntity
  8
0
  6
Continuous
 62
     7
370
    35
100
AcDbLine
 10
401.6785925348
 20
219.7369383462
 30
0.0
 11
390.3648840358
 21
213.2056734516
 31
0.0
  0
LINE
  5
2A9
330
1F
100
AcDbEntity
  8
0
  6
Continuous
 62
     7
370
    35
100
AcDbLine
 10
390.3648840358
 20
214.8387550754
 30
0.0
 11
390.3648840358
 21
213.2056734516
 31
0.0
  0
LINE
  5
2AA
330
1F
100
AcDbEntity
  8
0
  6
Continuous
 62
     7
370
    35
100
AcDbLine
 10
390.3648840358
 20
213.2056734516
 30
0.0
 11
318.2399923548
 21
254.8424871546
 31
0.0
  0
LINE
  5
2AB
330
1F
100
AcDbEntity
  8
0
  6
Continuous
 62
     7
370
    35
100
AcDbLine
 10
318.2399923548
 20
256.4755687784
 30
0.0
 11
318.2399923548
 21
254.8424871546
 31
0.0
  0
ARC
  5
2AC
330
1F
100
AcDbEntity
  8
0
  6
Continuous
 62
     7
370
    35
100
AcDbCircle
 10
398.3374934051
 20
224.941950853
 30
0.0
 40
6.185070621285162
100
AcDbArc
 50
302.6964179332
 51
343.1361685723
  0
ARC
  5
2AD
330
1F
100
AcDbEntity
  8
0
  6
Continuous
 62
     7
370
    35
100
AcDbCircle
 10
400.0223738945
 20
223.9592314101
 30
0.0
 40
3.073609615143522
100
AcDbArc
 50
302.60547834
 51
357.3945215144
  0
ARC
  5
2AE
330
1F
100
AcDbEntity
  8
0
  6
Continuous
 62
     7
370
    35
100
AcDbCircle
 10
327.8974822134
 20
265.5960451131
 30
0.0
 40
3.073609615144749
100
AcDbArc
 50
302.60547834
 51
357.3945215143
  0
LINE
  5
2AF
330
1F
100
AcDbEntity
  8
0
  6
Continuous
 62
     7
370
    35
100
AcDbLine
 10
300.2087694346
 20
384.4639951144
 30
0.0
 11
298.7945558722
 21
383.6475870026
 31
0.0
  0
LINE
  5
2B0
330
1F
100
AcDbEntity
  8
0
  6
Continuous
 62
     7
370
    35
100
AcDbLine
 10
300.2087694346
 20
384.4639951144
 30
0.0
 11
311.8755715878
 21
377.728893592
 31
0.0
  0
ARC
  5
2B1
330
1F
100
AcDbEntity
  8
0
  6
Continuous
 62
     7
370
    35
100
AcDbCircle
 10
278.6420126084
 20
369.0263462953
 30
0.0
 40
3.074043815823795
100
AcDbArc
 50
242.6096722366
 51
297.3903277634
  0
LINE
  5
2B2
330
1F
100
AcDbEntity
  8
0
  6
Continuous
 62
     7
370
    35
100
AcDbLine
 10
280.0562261707
 20
366.2969241254
 30
0.0
 11
292.4305948415
 21
373.4404951038
 31
0.0
  0
ARC
  5
2B3
330
1F
100
AcDbEntity
  8
0
  6
Continuous
 62
     7
370
    35
100
AcDbCircle
 10
295.2677561798
 20
367.9433277268
 30
0.0
 40
6.186140447070045
100
AcDbArc
 50
76.8678319697
 51
117.2988616003
  0
ARC
  5
2B4
330
1F
100
AcDbEntity
  8
0
  6
Continuous
 62
     7
370
    35
100
AcDbCircle
 10
295.2590219662
 20
369.8946648221
 30
0.0
 40
3.074043815823012
100
AcDbArc
 50
62.6096722366
 51
117.3903277634
  0
LINE
  5
2B5
330
1F
100
AcDbEntity
  8
0
  6
Continuous
 62
     7
370
    35
100
AcDbLine
 10
281.4704397331
 20
365.4805160136
 30
0.0
 11
293.8448084039
 21
372.624086992
 31
0.0
  0
ARC
  5
2B6
330
1F
100
AcDbEntity
  8
0
  6
Continuous
 62
     7
370
    35
100
AcDbCircle
 10
278.6420126084
 20
370.9393603534
 30
0.0
 40
6.148087631654565
100
AcDbArc
 50
242.6096722366
 51
297.3903277633
  0
LINE
  5
2B7
330
1F
100
AcDbEntity
  8
0
  6
Continuous
 62
     7
370
    35
100
AcDbLine
 10
267.3283041094
 20
370.3789646845
 30
0.0
 11
275.8135854836
 21
365.4805160136
 31
0.0
  0
LINE
  5
2B8
330
1F
100
AcDbEntity
  8
0
  6
Continuous
 62
     7
370
    35
100
AcDbLine
 10
268.7425176718
 20
371.1953727963
 30
0.0
 11
267.3283041094
 21
370.3789646845
 31
0.0
  0
LINE
  5
2B9
330
1F
100
AcDbEntity
  8
0
  6
Continuous
 62
     7
370
    35
100
AcDbLine
 10
277.227799046
 20
366.2969241254
 30
0.0
 11
268.7425176718
 21
371.1953727963
 31
0.0
  0
LINE
  5
2BA
330
1F
100
AcDbEntity
  8
0
  6
Continuous
 62
     7
370
    35
100
AcDbLine
 10
281.4704397331
 20
365.4805160136
 30
0.0
 11
281.4704397331
 21
290.3587613201
 31
0.0
  0
ARC
  5
2BB
330
1F
100
AcDbEntity
  8
0
  6
Continuous
 62
     7
370
    35
100
AcDbCircle
 10
278.6420126084
 20
295.8176056599
 30
0.0
 40
6.148087631633947
100
AcDbArc
 50
242.6096722365
 51
297.3903277634
  0
LINE
  5
2BC
330
1F
100
AcDbEntity
  8
0
  6
Continuous
 62
     7
370
    35
100
AcDbLine
 10
275.8135854836
 20
365.4805160136
 30
0.0
 11
275.8135854836
 21
290.3587613201
 31
0.0
  0
ARC
  5
2BD
330
1F
100
AcDbEntity
  8
0
  6
Continuous
 62
     7
370
    35
100
AcDbCircle
 10
299.33000927
 20
383.237351127
 30
0.0
 40
1.508931707701917
100
AcDbArc
 50
54.3824225247
 51
114.3071190462
  0
LINE
  5
2BE
330
1F
100
AcDbEntity
  8
0
  6
Continuous
 62
     7
370
    35
100
AcDbLine
 10
293.8448084039
 20
372.624086992
 30
0.0
 11
293.8448084039
 21
297.5023322985
 31
0.0
  0
LINE
  5
2BF
330
1F
100
AcDbEntity
  8
0
  6
Continuous
 62
     7
370
    35
100
AcDbLine
 10
293.8448084039
 20
297.5023322985
 30
0.0
 11
281.4704397331
 21
290.3587613201
 31
0.0
  0
ARC
  5
2C0
330
1F
100
AcDbEntity
  8
0
  6
Continuous
 62
     7
370
    35
100
AcDbCircle
 10
266.5002068681
 20
369.3637360073
 30
0.0
 40
1.310127592287566
100
AcDbArc
 50
50.7967147644
 51
189.2140369904
  0
LINE
  5
2C1
330
1F
100
AcDbEntity
  8
0
  6
Continuous
 62
     7
370
    35
100
AcDbLine
 10
275.8135854836
 20
290.3587613201
 30
0.0
 11
267.3283041094
 21
295.257209991
 31
0.0
  0
ARC
  5
2C2
330
1F
100
AcDbEntity
  8
0
  6
Continuous
 62
     7
370
    35
100
AcDbCircle
 10
269.8126320699
 20
299.1410271512
 30
0.0
 40
4.610414422702966
100
AcDbArc
 50
182.6054784856
 51
237.3945216601
  0
LINE
  5
2C3
330
1F
100
AcDbEntity
  8
0
  6
Continuous
 62
     7
370
    35
100
AcDbLine
 10
265.2069837658
 20
369.1539544166
 30
0.0
 11
265.2069837658
 21
298.9314445944
 31
0.0
  0
LWPOLYLINE
  5
2C4
330
1F
100
AcDbEntity
  8
0
  6
Continuous
 62
     7
370
    35
100
AcDbPolyline
 90
       20
 70
   128
 43
0.0
 10
272.1012748824
 20
358.6416383763
 10
271.976757646
 20
359.5751943435
 10
271.6166993114
 20
360.5513495771
 10
271.0601177861
 20
361.4643225109
 10
270.3673273146
 20
362.2151783613
 10
269.6134024942
 20
362.7225502461
 10
268.8800427776
 20
362.9314565491
 10
268.2467190693
 20
362.8192590307
 10
267.7820618201
 20
362.3981160329
 10
267.5364238529
 20
361.7136649344
 10
267.5364238529
 20
360.8400766319
 10
267.7820618201
 20
359.8720179732
 10
268.2467190693
 20
358.9143931349
 10
268.8800427776
 20
358.0709756273
 10
269.6134024942
 20
357.4331628244
 10
270.3673273146
 20
357.07007164
 10
271.0601177861
 20
357.0210486379
 10
271.6166993114
 20
357.291406221
 10
271.976757646
 20
357.8518469502
 10
272.1012748824
 20
358.6416383763
  0
LWPOLYLINE
  5
2C5
330
1F
100
AcDbEntity
  8
0
  6
Continuous
 62
     7
370
    35
100
AcDbPolyline
 90
       20
 70
   128
 43
0.0
 10
272.1012748824
 20
301.4837815443
 10
271.976757646
 20
302.4173375115
 10
271.6166993114
 20
303.3934927451
 10
271.0601177861
 20
304.3064656789
 10
270.3673273146
 20
305.0573215292
 10
269.6134024942
 20
305.5646934141
 10
268.8800427776
 20
305.7735997171
 10
268.2467190693
 20
305.6614021987
 10
267.7820618201
 20
305.2402592009
 10
267.5364238529
 20
304.5558081024
 10
267.5364238529
 20
303.6822197999
 10
267.7820618201
 20
302.7141611412
 10
268.2467190693
 20
301.7565363029
 10
268.8800427776
 20
300.9131187953
 10
269.6134024942
 20
300.2753059924
 10
270.3673273146
 20
299.912214808
 10
271.0601177861
 20
299.8631918059
 10
271.6166993114
 20
300.133549389
 10
271.976757646
 20
300.6939901182
 10
272.1012748824
 20
301.4837815443
  0
ARC
  5
2C6
330
1F
100
AcDbEntity
  8
0
  6
Continuous
 62
     7
370
    35
100
AcDbCircle
 10
267.8637575072
 20
369.968728809
 30
0.0
 40
1.508931707705625
100
AcDbArc
 50
54.3824225248
 51
114.3071190461
  0
LWPOLYLINE
  5
2C7
330
1F
100
AcDbEntity
  8
0
  6
Continuous
 62
     7
370
    35
100
AcDbPolyline
 90
        3
 70
   128
 43
0.0
 10
268.9192943671
 20
362.1113728516
 10
269.0438116035
 20
362.9011642777
 10
269.0472882728
 20
362.9107642191
  0
ARC
  5
2C8
330
1F
100
AcDbEntity
  8
0
  6
Continuous
 62
     7
370
    35
100
AcDbCircle
 10
273.4069526476
 20
362.0947683893
 30
0.0
 40
4.487688998916545
100
AcDbArc
 50
179.7880049663
 51
251.3692634618
  0
ARC
  5
2C9
330
1F
100
AcDbEntity
  8
0
  6
Continuous
 62
     7
370
    35
100
AcDbCircle
 10
295.2590219662
 20
294.7729101286
 30
0.0
 40
3.074043815823088
100
AcDbArc
 50
62.6096722366
 51
117.3903277634
  0
LWPOLYLINE
  5
2CA
330
1F
100
AcDbEntity
  8
0
  6
Continuous
 62
     7
370
    35
100
AcDbPolyline
 90
        3
 70
   128
 43
0.0
 10
268.9192943671
 20
304.9535160196
 10
269.0438116035
 20
305.7433074457
 10
269.0472882925
 20
305.7529074412
  0
ARC
  5
2CB
330
1F
100
AcDbEntity
  8
0
  6
Continuous
 62
     7
370
    35
100
AcDbCircle
 10
273.4069526188
 20
304.9369115453
 30
0.0
 40
4.487688970164355
100
AcDbArc
 50
179.7880048117
 51
251.3692644437
  0
SPLINE
  5
2CC
330
1F
100
AcDbEntity
  8
0
  6
Continuous
 62
     7
370
    18
100
AcDbSpline
210
0.0
220
0.0
230
1.0
 70
     8
 71
     3
 72
    23
 73
    19
 74
     0
 42
0.00000001
 43
0.00000001
 40
0.0
 40
0.0
 40
0.0
 40
0.0
 40
0.0625327712167733
 40
0.1250305864689841
 40
0.187528401721199
 40
0.2500262169734167
 40
0.3125240322256287
 40
0.3750218474778477
 40
0.4375196627300581
 40
0.5000174779822798
 40
0.5625152932344968
 40
0.6250131084867072
 40
0.6875109237389244
 40
0.7500087389911405
 40
0.8125065542433568
 40
0.8750043694955769
 40
0.9375021847477947
 40
1.0
 40
1.0
 40
1.0
 40
1.0
 10
950.7465362548828
 20
-81.5976036014213
 30
0.0
 10
951.1529052012897
 20
-81.92515619774011
 30
0.0
 10
951.4970081261799
 20
-82.3893082855141
 30
0.0
 10
951.7269303498373
 20
-82.9193969169289
 30
0.0
 10
951.8076682979598
 20
-83.43472090311695
 30
0.0
 10
951.7269303498373
 20
-83.85682683860473
 30
0.0
 10
951.4970081261799
 20
-84.12145292111406
 30
0.0
 10
951.1529052012897
 20
-84.18831222842427
 30
0.0
 10
950.7470081261799
 20
-84.04722603707853
 30
0.0
 10
950.3411110510704
 20
-83.71967344075973
 30
0.0
 10
949.99700812618
 20
-83.25552135298572
 30
0.0
 10
949.7670859025227
 20
-82.72543272157095
 30
0.0
 10
949.6863479544002
 20
-82.21010873538287
 30
0.0
 10
949.7670859025227
 20
-81.7880027998951
 30
0.0
 10
949.99700812618
 20
-81.5233767173858
 30
0.0
 10
950.3411110510705
 20
-81.45651741007556
 30
0.0
 10
950.7470081261799
 20
-81.5976036014213
 30
0.0
 10
950.6081867176385
 20
-81.53587356865192
 30
0.0
 10
950.74700812618
 20
-81.59760360142131
 30
0.0
  0
SPLINE
  5
2CD
330
1F
100
AcDbEntity
  8
0
  6
Continuous
 62
     7
370
    18
100
AcDbSpline
210
0.0
220
0.0
230
1.0
 70
     8
 71
     3
 72
    23
 73
    19
 74
     0
 42
0.00000001
 43
0.00000001
 40
0.0
 40
0.0
 40
0.0
 40
0.0
 40
0.0625122091113233
 40
0.1250113951705712
 40
0.187510581229816
 40
0.2500097672890647
 40
0.312508953348308
 40
0.3750081394075519
 40
0.4375073254667987
 40
0.5000065115260431
 40
0.5625056975852886
 40
0.6250048836445271
 40
0.6875040697037766
 40
0.7500032557630226
 40
0.8125024418222682
 40
0.8750016278815167
 40
0.9375008139407589
 40
0.9999999999999999
 40
0.9999999999999999
 40
0.9999999999999999
 40
0.9999999999999999
 10
860.9442710876465
 20
-29.75568850067955
 30
0.0
 10
861.3503439905978
 20
-30.08324109699834
 30
0.0
 10
861.6944469154882
 20
-30.54739318477234
 30
0.0
 10
861.9243691391455
 20
-31.07748181618713
 30
0.0
 10
862.0051070872681
 20
-31.59280580237522
 30
0.0
 10
861.9243691391455
 20
-32.01491173786297
 30
0.0
 10
861.6944469154882
 20
-32.2795378203723
 30
0.0
 10
861.3503439905978
 20
-32.3463971276825
 30
0.0
 10
860.9444469154882
 20
-32.2053109363368
 30
0.0
 10
860.5385498403786
 20
-31.87775834001797
 30
0.0
 10
860.1944469154882
 20
-31.41360625224399
 30
0.0
 10
859.9645246918309
 20
-30.88351762082919
 30
0.0
 10
859.8837867437084
 20
-30.36819363464113
 30
0.0
 10
859.9645246918309
 20
-29.94608769915336
 30
0.0
 10
860.1944469154882
 20
-29.68146161664403
 30
0.0
 10
860.5385498403786
 20
-29.61460230933383
 30
0.0
 10
860.9444469154882
 20
-29.75568850067955
 30
0.0
 10
860.8056255069464
 20
-29.69395846791026
 30
0.0
 10
860.9444469154882
 20
-29.75568850067955
 30
0.0
  0
SPLINE
  5
2CE
330
1F
100
AcDbEntity
  8
0
  6
Continuous
 62
     7
370
    18
100
AcDbSpline
210
0.0
220
0.0
230
1.0
 70
     8
 71
     3
 72
    23
 73
    19
 74
     0
 42
0.00000001
 43
0.00000001
 40
0.0
 40
0.0
 40
0.0
 40
0.0
 40
0.0625247655700657
 40
0.1250231145320636
 40
0.1875214634940587
 40
0.250019812456053
 40
0.3125181614180459
 40
0.375016510380041
 40
0.437514859342039
 40
0.5000132083040327
 40
0.5625115572660362
 40
0.6250099062280269
 40
0.6875082551900207
 40
0.750006604152018
 40
0.8125049531140134
 40
0.8750033020760061
 40
0.9375016510379985
 40
0.9999999999999999
 40
0.9999999999999999
 40
0.9999999999999999
 40
0.9999999999999999
 10
771.141529083252
 20
22.08622660006219
 30
0.0
 10
771.5477827799061
 20
21.7586740037434
 30
0.0
 10
771.8918857047966
 20
21.29452191596939
 30
0.0
 10
772.1218079284538
 20
20.7644332845546
 30
0.0
 10
772.2025458765762
 20
20.24910929836654
 30
0.0
 10
772.1218079284538
 20
19.82700336287876
 30
0.0
 10
771.8918857047966
 20
19.56237728036944
 30
0.0
 10
771.5477827799061
 20
19.49551797305923
 30
0.0
 10
771.1418857047964
 20
19.63660416440495
 30
0.0
 10
770.7359886296867
 20
19.96415676072376
 30
0.0
 10
770.3918857047964
 20
20.42830884849776
 30
0.0
 10
770.1619634811392
 20
20.95839747991254
 30
0.0
 10
770.0812255330167
 20
21.47372146610062
 30
0.0
 10
770.1619634811392
 20
21.89582740158838
 30
0.0
 10
770.3918857047964
 20
22.1604534840977
 30
0.0
 10
770.7359886296867
 20
22.22731279140793
 30
0.0
 10
771.1418857047964
 20
22.08622660006219
 30
0.0
 10
771.0030642962548
 20
22.14795663283154
 30
0.0
 10
771.1418857047966
 20
22.0862266000622
 30
0.0
  0
SPLINE
  5
2CF
330
1F
100
AcDbEntity
  8
0
  6
Continuous
 62
     7
370
    18
100
AcDbSpline
210
0.0
220
0.0
230
1.0
 70
     8
 71
     3
 72
    23
 73
    19
 74
     0
 42
0.00000001
 43
0.00000001
 40
0.0
 40
0.0
 40
0.0
 40
0.0
 40
0.0625042061397225
 40
0.1250039257304049
 40
0.1875036453210889
 40
0.2500033649117764
 40
0.3125030845024613
 40
0.3750028040931463
 40
0.437502523683835
 40
0.5000022432745196
 40
0.5625019628652047
 40
0.6250016824558858
 40
0.6875014020465761
 40
0.7500011216372606
 40
0.8125008412279457
 40
0.8750005608186344
 40
0.9375002804093168
 40
1.0
 40
1.0
 40
1.0
 40
1.0
 10
681.3392639160156
 20
73.92814170080395
 30
0.0
 10
681.7452215692143
 20
73.60058910448515
 30
0.0
 10
682.0893244941046
 20
73.13643701671113
 30
0.0
 10
682.3192467177619
 20
72.60634838529636
 30
0.0
 10
682.3999846658845
 20
72.09102439910828
 30
0.0
 10
682.3192467177619
 20
71.66891846362051
 30
0.0
 10
682.0893244941046
 20
71.40429238111119
 30
0.0
 10
681.7452215692142
 20
71.33743307380097
 30
0.0
 10
681.3393244941046
 20
71.4785192651467
 30
0.0
 10
680.9334274189949
 20
71.80607186146551
 30
0.0
 10
680.5893244941047
 20
72.27022394923951
 30
0.0
 10
680.3594022704474
 20
72.8003125806543
 30
0.0
 10
680.2786643223249
 20
73.31563656684237
 30
0.0
 10
680.3594022704474
 20
73.73774250233015
 30
0.0
 10
680.5893244941047
 20
74.00236858483946
 30
0.0
 10
680.9334274189949
 20
74.06922789214967
 30
0.0
 10
681.3393244941046
 20
73.92814170080395
 30
0.0
 10
681.2005030855629
 20
73.98987173357321
 30
0.0
 10
681.3393244941046
 20
73.92814170080395
 30
0.0
  0
SPLINE
  5
2D0
330
1F
100
AcDbEntity
  8
0
  6
Continuous
 62
     7
370
    18
100
AcDbSpline
210
0.0
220
0.0
230
1.0
 70
     8
 71
     3
 72
    23
 73
    19
 74
     0
 42
0.00000001
 43
0.00000001
 40
0.0
 40
0.0
 40
0.0
 40
0.0
 40
0.0625167609643532
 40
0.1250156435667319
 40
0.1875145261691068
 40
0.2500134087714843
 40
0.3125122913738597
 40
0.3750111739762357
 40
0.4375100565786146
 40
0.5000089391809905
 40
0.5625078217833652
 40
0.6250067043857439
 40
0.6875055869881186
 40
0.7500044695904967
 40
0.8125033521928732
 40
0.8750022347952477
 40
0.937501117397627
 40
1.0
 40
1.0
 40
1.0
 40
1.0
 10
591.5365219116211
 20
125.7700568015457
 30
0.0
 10
591.9426603585225
 20
125.4425042052269
 30
0.0
 10
592.2867632834129
 20
124.9783521174529
 30
0.0
 10
592.5166855070702
 20
124.4482634860381
 30
0.0
 10
592.5974234551927
 20
123.93293949985
 30
0.0
 10
592.5166855070702
 20
123.5108335643623
 30
0.0
 10
592.2867632834129
 20
123.2462074818529
 30
0.0
 10
591.9426603585225
 20
123.1793481745427
 30
0.0
 10
591.5367632834128
 20
123.3204343658885
 30
0.0
 10
591.1308662083032
 20
123.6479869622073
 30
0.0
 10
590.7867632834128
 20
124.1121390499813
 30
0.0
 10
590.5568410597556
 20
124.6422276813961
 30
0.0
 10
590.476103111633
 20
125.1575516675841
 30
0.0
 10
590.5568410597556
 20
125.5796576030719
 30
0.0
 10
590.7867632834128
 20
125.8442836855812
 30
0.0
 10
591.1308662083032
 20
125.9111429928914
 30
0.0
 10
591.5367632834128
 20
125.7700568015457
 30
0.0
 10
591.3979418748712
 20
125.831786834315
 30
0.0
 10
591.5367632834128
 20
125.7700568015457
 30
0.0
  0
SPLINE
  5
2D1
330
1F
100
AcDbEntity
  8
0
  6
Continuous
 62
     7
370
    18
100
AcDbSpline
210
0.0
220
0.0
230
1.0
 70
     8
 71
     3
 72
    23
 73
    19
 74
     0
 42
0.00000001
 43
0.00000001
 40
0.0
 40
0.0
 40
0.0
 40
0.0
 40
0.0625293183520429
 40
0.1250273637952424
 40
0.1875254092384431
 40
0.2500234546816411
 40
0.3125215001248361
 40
0.3750195455680368
 40
0.4375175910112348
 40
0.50001563645442
 40
0.5625136818976246
 40
0.6250117273408167
 40
0.6875097727840174
 40
0.7500078182272129
 40
0.8125058636704116
 40
0.8750039091136065
 40
0.9375019545567975
 40
1.0
 40
1.0
 40
1.0
 40
1.0
 10
501.7337799072266
 20
177.6119719022875
 30
0.0
 10
502.1400991478307
 20
177.2844193059687
 30
0.0
 10
502.484202072721
 20
176.8202672181947
 30
0.0
 10
502.7141242963784
 20
176.2901785867799
 30
0.0
 10
502.7948622445008
 20
175.7748546005918
 30
0.0
 10
502.7141242963784
 20
175.352748665104
 30
0.0
 10
502.484202072721
 20
175.0881225825947
 30
0.0
 10
502.1400991478307
 20
175.0212632752845
 30
0.0
 10
501.7342020727211
 20
175.1623494666302
 30
0.0
 10
501.3283049976114
 20
175.489902062949
 30
0.0
 10
500.9842020727211
 20
175.954054150723
 30
0.0
 10
500.7542798490637
 20
176.4841427821378
 30
0.0
 10
500.6735419009412
 20
176.9994667683259
 30
0.0
 10
500.7542798490638
 20
177.4215727038136
 30
0.0
 10
500.9842020727211
 20
177.686198786323
 30
0.0
 10
501.3283049976114
 20
177.7530580936332
 30
0.0
 10
501.7342020727211
 20
177.6119719022875
 30
0.0
 10
501.5953806641795
 20
177.6737019350568
 30
0.0
 10
501.7342020727211
 20
177.6119719022875
 30
0.0
  0
SPLINE
  5
2D2
330
1F
100
AcDbEntity
  8
0
  6
Continuous
 62
     7
370
    18
100
AcDbSpline
210
0.0
220
0.0
230
1.0
 70
     8
 71
     3
 72
    23
 73
    19
 74
     0
 42
0.00000001
 43
0.00000001
 40
0.0
 40
0.0
 40
0.0
 40
0.0
 40
0.0625087574001717
 40
0.1250081735734936
 40
0.1875075897468149
 40
0.2500070059201372
 40
0.3125064220934592
 40
0.3750058382667795
 40
0.4375052544401055
 40
0.500004670613425
 40
0.5625040867867452
 40
0.6250035029600683
 40
0.6875029191333892
 40
0.7500023353067117
 40
0.8125017514800358
 40
0.8750011676533583
 40
0.9375005838266806
 40
1.0
 40
1.0
 40
1.0
 40
1.0
 10
411.9315147399902
 20
229.4538870030292
 30
0.0
 10
412.3375379371389
 20
229.1263344067104
 30
0.0
 10
412.6816408620293
 20
228.6621823189364
 30
0.0
 10
412.9115630856866
 20
228.1320936875216
 30
0.0
 10
412.9923010338092
 20
227.6167697013335
 30
0.0
 10
412.9115630856866
 20
227.1946637658458
 30
0.0
 10
412.6816408620293
 20
226.9300376833365
 30
0.0
 10
412.3375379371389
 20
226.8631783760262
 30
0.0
 10
411.9316408620293
 20
227.0042645673719
 30
0.0
 10
411.5257437869196
 20
227.3318171636907
 30
0.0
 10
411.1816408620293
 20
227.7959692514648
 30
0.0
 10
410.951718638372
 20
228.3260578828796
 30
0.0
 10
410.8709806902494
 20
228.8413818690676
 30
0.0
 10
410.951718638372
 20
229.2634878045554
 30
0.0
 10
411.1816408620293
 20
229.5281138870647
 30
0.0
 10
411.5257437869196
 20
229.5949731943749
 30
0.0
 10
411.9316408620293
 20
229.4538870030292
 30
0.0
 10
411.7928194534875
 20
229.5156170357985
 30
0.0
 10
411.9316408620293
 20
229.4538870030292
 30
0.0
  0
SPLINE
  5
2D3
330
1F
100
AcDbEntity
  8
0
  6
Continuous
 62
     7
370
    18
100
AcDbSpline
210
0.0
220
0.0
230
1.0
 70
     8
 71
     3
 72
    23
 73
    19
 74
     0
 42
0.00000001
 43
0.00000001
 40
0.0
 40
0.0
 40
0.0
 40
0.0
 40
0.0625047560088264
 40
0.1250044389415666
 40
0.1875041218743083
 40
0.2500038048070533
 40
0.312503487739804
 40
0.3750031706725501
 40
0.4375028536052875
 40
0.5000025365380365
 40
0.5625022194707873
 40
0.6250019024035228
 40
0.6875015853362689
 40
0.7500012682690193
 40
0.8125009512017619
 40
0.8750006341345128
 40
0.9375003170672537
 40
1.0
 40
1.0
 40
1.0
 40
1.0
 10
322.1290111541748
 20
281.2958021037709
 30
0.0
 10
322.5349767264472
 20
280.9682495074521
 30
0.0
 10
322.8790796513375
 20
280.5040974196781
 30
0.0
 10
323.1090018749948
 20
279.9740087882634
 30
0.0
 10
323.1897398231173
 20
279.4586848020753
 30
0.0
 10
323.1090018749948
 20
279.0365788665875
 30
0.0
 10
322.8790796513375
 20
278.7719527840782
 30
0.0
 10
322.5349767264472
 20
278.705093476768
 30
0.0
 10
322.1290796513375
 20
278.8461796681137
 30
0.0
 10
321.7231825762278
 20
279.1737322644325
 30
0.0
 10
321.3790796513375
 20
279.6378843522065
 30
0.0
 10
321.1491574276802
 20
280.1679729836213
 30
0.0
 10
321.0684194795577
 20
280.6832969698094
 30
0.0
 10
321.1491574276802
 20
281.1054029052972
 30
0.0
 10
321.3790796513375
 20
281.3700289878065
 30
0.0
 10
321.7231825762278
 20
281.4368882951167
 30
0.0
 10
322.1290796513375
 20
281.2958021037709
 30
0.0
 10
321.9902582427957
 20
281.3575321365402
 30
0.0
 10
322.1290796513375
 20
281.2958021037709
 30
0.0
  0
ENDSEC
  0
SECTION
  2
OBJECTS
  0
DICTIONARY
  5
C
330
0
100
AcDbDictionary
281
     1
  3
ACAD_GROUP
350
D
  3
ACAD_LAYOUT
350
1A
  3
ACAD_MLINESTYLE
350
17
  3
ACAD_PLOTSETTINGS
350
19
  3
ACAD_PLOTSTYLENAME
350
E
  3
ACAD_SCALELIST
350
47
  3
DWGPROPS
350
2D4
  0
DICTIONARY
  5
D
102
{ACAD_REACTORS
330
C
102
}
330
C
100
AcDbDictionary
281
     1
  0
DICTIONARY
  5
1A
102
{ACAD_REACTORS
330
C
102
}
330
C
100
AcDbDictionary
281
     1
  3
Layout1
350
1E
  3
Layout2
350
26
  3
Model
350
22
  0
DICTIONARY
  5
17
102
{ACAD_REACTORS
330
C
102
}
330
C
100
AcDbDictionary
281
     1
  3
Standard
350
18
  0
DICTIONARY
  5
19
102
{ACAD_REACTORS
330
C
102
}
330
C
100
AcDbDictionary
281
     1
  0
ACDBDICTIONARYWDFLT
  5
E
102
{ACAD_REACTORS
330
C
102
}
330
C
100
AcDbDictionary
281
     1
  3
Normal
350
F
100
AcDbDictionaryWithDefault
340
F
  0
DICTIONARY
  5
47
102
{ACAD_REACTORS
330
C
102
}
330
C
100
AcDbDictionary
281
     1
  3
A0
350
48
  3
A1
350
49
  3
A2
350
4A
  3
A3
350
4B
  3
A4
350
4C
  3
A5
350
4D
  3
A6
350
4E
  3
A7
350
4F
  3
A8
350
50
  3
A9
350
51
  3
B0
350
52
  3
B1
350
53
  3
B2
350
54
  3
B3
350
55
  3
B4
350
56
  3
B5
350
57
  3
B6
350
58
  0
XRECORD
  5
2D4
102
{ACAD_REACTORS
330
C
102
}
330
C
100
AcDbXrecord
280
     1
  1
DWGPROPS COOKIE
  2

  3

  4

  6

  7

  8
Murat
  9

300
=
301
=
302
=
303
=
304
=
305
=
306
=
307
=
308
=
309
=
 40
0.0
 41
2460071.276496817
 42
2460071.276498021
  1

 90
        0
  0
LAYOUT
  5
1E
102
{ACAD_REACTORS
330
1A
102
}
330
1A
100
AcDbPlotSettings
  1

  2
none_device
  4

  6

 40
0.0
 41
0.0
 42
0.0
 43
0.0
 44
0.0
 45
0.0
 46
0.0
 47
0.0
 48
0.0
 49
0.0
140
0.0
141
0.0
142
1.0
143
1.0
 70
   688
 72
     1
 73
     0
 74
     5
  7

 75
    16
147
1.0
148
0.0
149
0.0
100
AcDbLayout
  1
Layout1
 70
     1
 71
     1
 10
0.0
 20
0.0
 11
420.0
 21
297.0
 12
0.0
 22
0.0
 32
0.0
 14
1.0000000000E+20
 24
1.0000000000E+20
 34
1.0000000000E+20
 15
-1.0000000000E+20
 25
-1.0000000000E+20
 35
-1.0000000000E+20
146
0.0
 13
0.0
 23
0.0
 33
0.0
 16
1.0
 26
0.0
 36
0.0
 17
0.0
 27
1.0
 37
0.0
 76
     0
330
1B
  0
LAYOUT
  5
26
102
{ACAD_REACTORS
330
1A
102
}
330
1A
100
AcDbPlotSettings
  1

  2
none_device
  4

  6

 40
0.0
 41
0.0
 42
0.0
 43
0.0
 44
0.0
 45
0.0
 46
0.0
 47
0.0
 48
0.0
 49
0.0
140
0.0
141
0.0
142
1.0
143
1.0
 70
   688
 72
     1
 73
     0
 74
     5
  7

 75
    16
147
1.0
148
0.0
149
0.0
100
AcDbLayout
  1
Layout2
 70
     1
 71
     2
 10
0.0
 20
0.0
 11
0.0
 21
0.0
 12
0.0
 22
0.0
 32
0.0
 14
0.0
 24
0.0
 34
0.0
 15
0.0
 25
0.0
 35
0.0
146
0.0
 13
0.0
 23
0.0
 33
0.0
 16
1.0
 26
0.0
 36
0.0
 17
0.0
 27
1.0
 37
0.0
 76
     0
330
23
  0
LAYOUT
  5
22
102
{ACAD_REACTORS
330
1A
102
}
330
1A
100
AcDbPlotSettings
  1

  2
none_device
  4
Letter_(8.50_x_11.00_Inches)
  6

 40
6.35
 41
6.35
 42
6.35000508
 43
6.35000508
 44
215.9
 45
279.4
 46
0.0
 47
0.0
 48
0.0
 49
0.0
140
0.0
141
0.0
142
1.0
143
1.0
 70
  1712
 72
     1
 73
     0
 74
     0
  7

 75
     0
147
1.0
148
0.0
149
0.0
100
AcDbLayout
  1
Model
 70
     1
 71
     0
 10
0.0
 20
0.0
 11
297.0
 21
210.0
 12
0.0
 22
0.0
 32
0.0
 14
0.0
 24
0.0
 34
0.0
 15
297.0
 25
210.0
 35
0.0
146
0.0
 13
0.0
 23
0.0
 33
0.0
 16
1.0
 26
0.0
 36
0.0
 17
0.0
 27
1.0
 37
0.0
 76
     0
330
1F
331
29
  0
MLINESTYLE
  5
18
102
{ACAD_REACTORS
330
17
102
}
330
17
100
AcDbMlineStyle
  2
Standard
 70
     0
  3

 62
   256
 51
90.0
 52
90.0
 71
     2
 49
0.5
 62
   256
  6
BYLAYER
 49
-0.5
 62
   256
  6
BYLAYER
  0
ACDBPLACEHOLDER
  5
F
102
{ACAD_REACTORS
330
E
102
}
330
E
  0
SCALE
  5
48
102
{ACAD_REACTORS
330
47
102
}
330
47
100
AcDbScale
 70
     0
300
1:1
140
1.0
141
1.0
290
     1
  0
SCALE
  5
49
102
{ACAD_REACTORS
330
47
102
}
330
47
100
AcDbScale
 70
     0
300
1:2
140
1.0
141
2.0
290
     0
  0
SCALE
  5
4A
102
{ACAD_REACTORS
330
47
102
}
330
47
100
AcDbScale
 70
     0
300
1:4
140
1.0
141
4.0
290
     0
  0
SCALE
  5
4B
102
{ACAD_REACTORS
330
47
102
}
330
47
100
AcDbScale
 70
     0
300
1:5
140
1.0
141
5.0
290
     0
  0
SCALE
  5
4C
102
{ACAD_REACTORS
330
47
102
}
330
47
100
AcDbScale
 70
     0
300
1:8
140
1.0
141
8.0
290
     0
  0
SCALE
  5
4D
102
{ACAD_REACTORS
330
47
102
}
330
47
100
AcDbScale
 70
     0
300
1:10
140
1.0
141
10.0
290
     0
  0
SCALE
  5
4E
102
{ACAD_REACTORS
330
47
102
}
330
47
100
AcDbScale
 70
     0
300
1:16
140
1.0
141
16.0
290
     0
  0
SCALE
  5
4F
102
{ACAD_REACTORS
330
47
102
}
330
47
100
AcDbScale
 70
     0
300
1:20
140
1.0
141
20.0
290
     0
  0
SCALE
  5
50
102
{ACAD_REACTORS
330
47
102
}
330
47
100
AcDbScale
 70
     0
300
1:30
140
1.0
141
30.0
290
     0
  0
SCALE
  5
51
102
{ACAD_REACTORS
330
47
102
}
330
47
100
AcDbScale
 70
     0
300
1:40
140
1.0
141
40.0
290
     0
  0
SCALE
  5
52
102
{ACAD_REACTORS
330
47
102
}
330
47
100
AcDbScale
 70
     0
300
1:50
140
1.0
141
50.0
290
     0
  0
SCALE
  5
53
102
{ACAD_REACTORS
330
47
102
}
330
47
100
AcDbScale
 70
     0
300
1:100
140
1.0
141
100.0
290
     0
  0
SCALE
  5
54
102
{ACAD_REACTORS
330
47
102
}
330
47
100
AcDbScale
 70
     0
300
2:1
140
2.0
141
1.0
290
     0
  0
SCALE
  5
55
102
{ACAD_REACTORS
330
47
102
}
330
47
100
AcDbScale
 70
     0
300
4:1
140
4.0
141
1.0
290
     0
  0
SCALE
  5
56
102
{ACAD_REACTORS
330
47
102
}
330
47
100
AcDbScale
 70
     0
300
8:1
140
8.0
141
1.0
290
     0
  0
SCALE
  5
57
102
{ACAD_REACTORS
330
47
102
}
330
47
100
AcDbScale
 70
     0
300
10:1
140
10.0
141
1.0
290
     0
  0
SCALE
  5
58
102
{ACAD_REACTORS
330
47
102
}
330
47
100
AcDbScale
 70
     0
300
100:1
140
100.0
141
1.0
290
     0
  0
ENDSEC
  0
EOF
