  0
SECTION
  2
HEADER
  9
$ACADVER
  1
AC1015
  9
$ACADMAINTVER
 70
     6
  9
$DWGCODEPAGE
  3
ANSI_1254
  9
$INSBASE
 10
0.0
 20
0.0
 30
0.0
  9
$EXTMIN
 10
0.0
 20
0.0
 30
0.0
  9
$EXTMAX
 10
297.0
 20
210.0
 30
0.0
  9
$LIMMIN
 10
0.0
 20
0.0
  9
$LIMMAX
 10
297.0
 20
210.0
  9
$ORTHOMODE
 70
     0
  9
$REGENMODE
 70
     1
  9
$FILLMODE
 70
     1
  9
$QTEXTMODE
 70
     0
  9
$MIRRTEXT
 70
     1
  9
$LTSCALE
 40
1.0
  9
$ATTMODE
 70
     1
  9
$TEXTSIZE
 40
3.0
  9
$TRACEWID
 40
1.0
  9
$TEXTSTYLE
  7
Standard
  9
$CLAYER
  8
0
  9
$CELTYPE
  6
ByLayer
  9
$CECOLOR
 62
   256
  9
$CELTSCALE
 40
1.0
  9
$DISPSILH
 70
     0
  9
$DIMSCALE
 40
1.0
  9
$DIMASZ
 40
2.0
  9
$DIMEXO
 40
1.0
  9
$DIMDLI
 40
3.75
  9
$DIMRND
 40
0.0
  9
$DIMDLE
 40
0.0
  9
$DIMEXE
 40
1.0
  9
$DIMTP
 40
0.0
  9
$DIMTM
 40
0.0
  9
$DIMTXT
 40
3.0
  9
$DIMCEN
 40
2.5
  9
$DIMTSZ
 40
0.0
  9
$DIMTOL
 70
     0
  9
$DIMLIM
 70
     0
  9
$DIMTIH
 70
     1
  9
$DIMTOH
 70
     1
  9
$DIMSE1
 70
     0
  9
$DIMSE2
 70
     0
  9
$DIMTAD
 70
     1
  9
$DIMZIN
 70
     0
  9
$DIMBLK
  1

  9
$DIMASO
 70
     1
  9
$DIMSHO
 70
     1
  9
$DIMPOST
  1

  9
$DIMAPOST
  1

  9
$DIMALT
 70
     0
  9
$DIMALTD
 70
     3
  9
$DIMALTF
 40
0.0393700787
  9
$DIMLFAC
 40
1.0
  9
$DIMTOFL
 70
     1
  9
$DIMTVP
 40
0.0
  9
$DIMTIX
 70
     0
  9
$DIMSOXD
 70
     0
  9
$DIMSAH
 70
     0
  9
$DIMBLK1
  1

  9
$DIMBLK2
  1

  9
$DIMSTYLE
  2
ISO-25
  9
$DIMCLRD
 70
     0
  9
$DIMCLRE
 70
     0
  9
$DIMCLRT
 70
     0
  9
$DIMTFAC
 40
1.0
  9
$DIMGAP
 40
1.0
  9
$DIMJUST
 70
     0
  9
$DIMSD1
 70
     0
  9
$DIMSD2
 70
     0
  9
$DIMTOLJ
 70
     0
  9
$DIMTZIN
 70
     0
  9
$DIMALTZ
 70
     0
  9
$DIMALTTZ
 70
     0
  9
$DIMUPT
 70
     0
  9
$DIMDEC
 70
     2
  9
$DIMTDEC
 70
     2
  9
$DIMALTU
 70
     2
  9
$DIMALTTD
 70
     3
  9
$DIMTXSTY
  7
Standard
  9
$DIMAUNIT
 70
     0
  9
$DIMADEC
 70
     2
  9
$DIMALTRND
 40
0.0
  9
$DIMAZIN
 70
     0
  9
$DIMDSEP
 70
    44
  9
$DIMATFIT
 70
     3
  9
$DIMFRAC
 70
     0
  9
$DIMLDRBLK
  1

  9
$DIMLUNIT
 70
     2
  9
$DIMLWD
 70
    -2
  9
$DIMLWE
 70
    -2
  9
$DIMTMOVE
 70
     0
  9
$LUNITS
 70
     2
  9
$LUPREC
 70
     2
  9
$SKETCHINC
 40
1.0
  9
$FILLETRAD
 40
10.0
  9
$AUNITS
 70
     0
  9
$AUPREC
 70
     2
  9
$MENU
  1
.
  9
$ELEVATION
 40
0.0
  9
$PELEVATION
 40
0.0
  9
$THICKNESS
 40
0.0
  9
$LIMCHECK
 70
     0
  9
$CHAMFERA
 40
0.0
  9
$CHAMFERB
 40
0.0
  9
$CHAMFERC
 40
0.0
  9
$CHAMFERD
 40
0.0
  9
$SKPOLY
 70
     0
  9
$TDCREATE
 40
2459832.536961759
  9
$TDUCREATE
 40
2459832.411961759
  9
$TDUPDATE
 40
2459832.536962327
  9
$TDUUPDATE
 40
2459832.411962327
  9
$TDINDWG
 40
0.0000000116
  9
$TDUSRTIMER
 40
0.0000000116
  9
$USRTIMER
 70
     1
  9
$ANGBASE
 50
0.0
  9
$ANGDIR
 70
     0
  9
$PDMODE
 70
     0
  9
$PDSIZE
 40
-1.0
  9
$PLINEWID
 40
0.0
  9
$SPLFRAME
 70
     0
  9
$SPLINETYPE
 70
     6
  9
$SPLINESEGS
 70
     8
  9
$HANDSEED
  5
157
  9
$SURFTAB1
 70
     6
  9
$SURFTAB2
 70
     6
  9
$SURFTYPE
 70
     6
  9
$SURFU
 70
     6
  9
$SURFV
 70
     6
  9
$UCSBASE
  2

  9
$UCSNAME
  2

  9
$UCSORG
 10
0.0
 20
0.0
 30
0.0
  9
$UCSXDIR
 10
1.0
 20
0.0
 30
0.0
  9
$UCSYDIR
 10
0.0
 20
1.0
 30
0.0
  9
$UCSORTHOREF
  2

  9
$UCSORTHOVIEW
 70
     0
  9
$UCSORGTOP
 10
0.0
 20
0.0
 30
0.0
  9
$UCSORGBOTTOM
 10
0.0
 20
0.0
 30
0.0
  9
$UCSORGLEFT
 10
0.0
 20
0.0
 30
0.0
  9
$UCSORGRIGHT
 10
0.0
 20
0.0
 30
0.0
  9
$UCSORGFRONT
 10
0.0
 20
0.0
 30
0.0
  9
$UCSORGBACK
 10
0.0
 20
0.0
 30
0.0
  9
$PUCSBASE
  2

  9
$PUCSNAME
  2

  9
$PUCSORG
 10
0.0
 20
0.0
 30
0.0
  9
$PUCSXDIR
 10
1.0
 20
0.0
 30
0.0
  9
$PUCSYDIR
 10
0.0
 20
1.0
 30
0.0
  9
$PUCSORTHOREF
  2

  9
$PUCSORTHOVIEW
 70
     0
  9
$PUCSORGTOP
 10
0.0
 20
0.0
 30
0.0
  9
$PUCSORGBOTTOM
 10
0.0
 20
0.0
 30
0.0
  9
$PUCSORGLEFT
 10
0.0
 20
0.0
 30
0.0
  9
$PUCSORGRIGHT
 10
0.0
 20
0.0
 30
0.0
  9
$PUCSORGFRONT
 10
0.0
 20
0.0
 30
0.0
  9
$PUCSORGBACK
 10
0.0
 20
0.0
 30
0.0
  9
$USERI1
 70
     0
  9
$USERI2
 70
     0
  9
$USERI3
 70
     0
  9
$USERI4
 70
     0
  9
$USERI5
 70
     0
  9
$USERR1
 40
0.0
  9
$USERR2
 40
0.0
  9
$USERR3
 40
0.0
  9
$USERR4
 40
0.0
  9
$USERR5
 40
0.0
  9
$WORLDVIEW
 70
     1
  9
$SHADEDGE
 70
     3
  9
$SHADEDIF
 70
    70
  9
$TILEMODE
 70
     1
  9
$MAXACTVP
 70
    64
  9
$PINSBASE
 10
0.0
 20
0.0
 30
0.0
  9
$PLIMCHECK
 70
     0
  9
$PEXTMIN
 10
1.0000000000E+20
 20
1.0000000000E+20
 30
1.0000000000E+20
  9
$PEXTMAX
 10
-1.0000000000E+20
 20
-1.0000000000E+20
 30
-1.0000000000E+20
  9
$PLIMMIN
 10
0.0
 20
0.0
  9
$PLIMMAX
 10
420.0
 20
297.0
  9
$UNITMODE
 70
     0
  9
$VISRETAIN
 70
     1
  9
$PLINEGEN
 70
     0
  9
$PSLTSCALE
 70
     1
  9
$TREEDEPTH
 70
  3020
  9
$CMLSTYLE
  2
Standard
  9
$CMLJUST
 70
     0
  9
$CMLSCALE
 40
20.0
  9
$PROXYGRAPHICS
 70
     1
  9
$MEASUREMENT
 70
     1
  9
$CELWEIGHT
370
    -1
  9
$ENDCAPS
280
     0
  9
$JOINSTYLE
280
     0
  9
$LWDISPLAY
290
     1
  9
$INSUNITS
 70
     4
  9
$HYPERLINKBASE
  1

  9
$STYLESHEET
  1

  9
$XEDIT
290
     1
  9
$CEPSNTYPE
380
     0
  9
$PSTYLEMODE
290
     1
  9
$FINGERPRINTGUID
  2
{7c7d4906-ae4e-4567-a893-def11635ec2e}
  9
$VERSIONGUID
  2
{FAEB1C32-E019-11D5-929B-00C0DF256EC4}
  9
$EXTNAMES
290
     1
  9
$PSVPSCALE
 40
0.0
  9
$OLESTARTUP
290
     0
  0
ENDSEC
  0
SECTION
  2
CLASSES
  0
CLASS
  1
ACDBDICTIONARYWDFLT
  2
AcDbDictionaryWithDefault
  3
ObjectDBX Classes
 90
        0
280
     0
281
     0
  0
CLASS
  1
VISUALSTYLE
  2
AcDbVisualStyle
  3
ObjectDBX Classes
 90
     4095
280
     0
281
     0
  0
CLASS
  1
MATERIAL
  2
AcDbMaterial
  3
ObjectDBX Classes
 90
     1153
280
     0
281
     0
  0
CLASS
  1
SCALE
  2
AcDbScale
  3
ObjectDBX Classes
 90
     1153
280
     0
281
     0
  0
CLASS
  1
TABLESTYLE
  2
AcDbTableStyle
  3
ObjectDBX Classes
 90
     4095
280
     0
281
     0
  0
CLASS
  1
MLEADERSTYLE
  2
AcDbMLeaderStyle
  3
ACDB_MLEADERSTYLE_CLASS
 90
     4095
280
     0
281
     0
  0
CLASS
  1
SUN
  2
AcDbSun
  3
SCENEOE
 90
     1153
280
     0
281
     0
  0
CLASS
  1
ACDBPLACEHOLDER
  2
AcDbPlaceHolder
  3
ObjectDBX Classes
 90
        0
280
     0
281
     0
  0
CLASS
  1
LAYOUT
  2
AcDbLayout
  3
ObjectDBX Classes
 90
        0
280
     0
281
     0
  0
ENDSEC
  0
SECTION
  2
TABLES
  0
TABLE
  2
VPORT
  5
8
330
0
100
AcDbSymbolTable
 70
     1
  0
VPORT
  5
29
330
8
100
AcDbSymbolTableRecord
100
AcDbViewportTableRecord
  2
*Active
 70
     0
 10
0.0
 20
0.0
 11
1.0
 21
1.0
 12
148.5
 22
105.0
 13
0.0
 23
0.0
 14
10.0
 24
10.0
 15
10.0
 25
10.0
 16
0.0
 26
0.0
 36
1.0
 17
0.0
 27
0.0
 37
0.0
 40
210.0
 41
1.4142857143
 42
50.0
 43
0.0
 44
0.0
 50
0.0
 51
0.0
 71
     0
 72
  2000
 73
     1
 74
     3
 75
     0
 76
     0
 77
     0
 78
     0
281
     0
 65
     1
110
0.0
120
0.0
130
0.0
111
1.0
121
0.0
131
0.0
112
0.0
122
1.0
132
0.0
 79
     0
146
0.0
  0
ENDTAB
  0
TABLE
  2
LTYPE
  5
5
330
0
100
AcDbSymbolTable
 70
     6
  0
LTYPE
  5
14
330
5
100
AcDbSymbolTableRecord
100
AcDbLinetypeTableRecord
  2
ByBlock
 70
     0
  3

 72
    65
 73
     0
 40
0.0
  0
LTYPE
  5
15
330
5
100
AcDbSymbolTableRecord
100
AcDbLinetypeTableRecord
  2
ByLayer
 70
     0
  3

 72
    65
 73
     0
 40
0.0
  0
LTYPE
  5
16
330
5
100
AcDbSymbolTableRecord
100
AcDbLinetypeTableRecord
  2
Continuous
 70
     0
  3
Solid line
 72
    65
 73
     0
 40
0.0
  0
LTYPE
  5
6E
330
5
100
AcDbSymbolTableRecord
100
AcDbLinetypeTableRecord
  2
HIDDEN
 70
     0
  3
Hidden __ __ __ __ __ __ __ __ __ __ __ __ __ __
 72
    65
 73
     2
 40
1.905
 49
1.27
 74
     0
 49
-0.635
 74
     0
  0
LTYPE
  5
6F
330
5
100
AcDbSymbolTableRecord
100
AcDbLinetypeTableRecord
  2
PHANTOM
 70
     0
  3
Phantom ______  __  __  ______  __  __  ______
 72
    65
 73
     6
 40
12.7
 49
6.35
 74
     0
 49
-1.27
 74
     0
 49
1.27
 74
     0
 49
-1.27
 74
     0
 49
1.27
 74
     0
 49
-1.27
 74
     0
  0
LTYPE
  5
70
330
5
100
AcDbSymbolTableRecord
100
AcDbLinetypeTableRecord
  2
CENTER
 70
     0
  3
Center ____ _ ____ _ ____ _ ____ _ ____ _ ____
 72
    65
 73
     4
 40
10.16
 49
6.35
 74
     0
 49
-1.27
 74
     0
 49
1.27
 74
     0
 49
-1.27
 74
     0
  0
LTYPE
  5
71
330
5
100
AcDbSymbolTableRecord
100
AcDbLinetypeTableRecord
  2
CENTERX2
 70
     0
  3
Center (2x) ________  __  ________  __  _____
 72
    65
 73
     4
 40
20.32
 49
12.7
 74
     0
 49
-2.54
 74
     0
 49
2.54
 74
     0
 49
-2.54
 74
     0
  0
LTYPE
  5
72
330
5
100
AcDbSymbolTableRecord
100
AcDbLinetypeTableRecord
  2
DOT2
 70
     0
  3
Dot (.5x) ........................................
 72
    65
 73
     2
 40
0.635
 49
0.0
 74
     0
 49
-0.635
 74
     0
  0
ENDTAB
  0
TABLE
  2
LAYER
  5
2
330
0
100
AcDbSymbolTable
 70
     1
  0
LAYER
  5
10
330
2
100
AcDbSymbolTableRecord
100
AcDbLayerTableRecord
  2
0
 70
     0
 62
     7
  6
Continuous
370
    -3
390
F
  0
ENDTAB
  0
TABLE
  2
STYLE
  5
3
330
0
100
AcDbSymbolTable
 70
     4
  0
STYLE
  5
11
330
3
100
AcDbSymbolTableRecord
100
AcDbTextStyleTableRecord
  2
Standard
 70
     0
 40
0.0
 41
1.0
 50
0.0
 71
     0
 42
3.0
  3
txt
  4

  0
STYLE
  5
76
330
3
100
AcDbSymbolTableRecord
100
AcDbTextStyleTableRecord
  2
SLDTEXTSTYLE0
 70
     0
 40
0.0
 41
0.605
 50
0.0
 71
     0
 42
3.0
  3
TXT
  4

  0
STYLE
  5
151
330
3
100
AcDbSymbolTableRecord
100
AcDbTextStyleTableRecord
  2
SLDTEXTSTYLE1
 70
     0
 40
0.0
 41
0.5741176471
 50
0.0
 71
     0
 42
3.0
  3
TXT
  4

  0
STYLE
  5
153
330
3
100
AcDbSymbolTableRecord
100
AcDbTextStyleTableRecord
  2
SLDTEXTSTYLE2
 70
     0
 40
0.0
 41
0.57
 50
0.0
 71
     0
 42
3.0
  3
TXT
  4

  0
ENDTAB
  0
TABLE
  2
VIEW
  5
6
330
0
100
AcDbSymbolTable
 70
     0
  0
ENDTAB
  0
TABLE
  2
UCS
  5
7
330
0
100
AcDbSymbolTable
 70
     0
  0
ENDTAB
  0
TABLE
  2
APPID
  5
9
330
0
100
AcDbSymbolTable
 70
     1
  0
APPID
  5
12
330
9
100
AcDbSymbolTableRecord
100
AcDbRegAppTableRecord
  2
ACAD
 70
     0
  0
ENDTAB
  0
TABLE
  2
DIMSTYLE
  5
A
330
0
100
AcDbSymbolTable
 70
     2
100
AcDbDimStyleTable
  0
DIMSTYLE
105
27
330
A
100
AcDbSymbolTableRecord
100
AcDbDimStyleTableRecord
  2
ISO-25
 70
     0
 41
2.5
 42
0.625
 43
3.75
 44
1.25
 73
     0
 74
     0
 77
     1
 78
     8
140
2.5
141
2.5
143
0.0393700787
147
0.625
171
     3
172
     1
178
     0
271
     2
272
     2
274
     3
278
    44
283
     0
284
     8
340
11
  0
DIMSTYLE
105
12B
330
A
100
AcDbSymbolTableRecord
100
AcDbDimStyleTableRecord
  2
SLDDIMSTYLE0
 70
     0
 41
2.0
 44
0.0
 45
0.000000001
146
2.0
147
0.0
173
     1
178
     0
271
     0
272
     0
276
     2
340
11
  0
ENDTAB
  0
TABLE
  2
BLOCK_RECORD
  5
1
330
0
100
AcDbSymbolTable
 70
     7
  0
BLOCK_RECORD
  5
1F
330
1
100
AcDbSymbolTableRecord
100
AcDbBlockTableRecord
  2
*Model_Space
340
22
  0
BLOCK_RECORD
  5
1B
330
1
100
AcDbSymbolTableRecord
100
AcDbBlockTableRecord
  2
*Paper_Space
340
1E
  0
BLOCK_RECORD
  5
23
330
1
100
AcDbSymbolTableRecord
100
AcDbBlockTableRecord
  2
*Paper_Space0
340
26
  0
BLOCK_RECORD
  5
73
330
1
100
AcDbSymbolTableRecord
100
AcDbBlockTableRecord
  2
SW_NOTE_0
340
0
102
{BLKREFS
331
7A
102
}
  0
BLOCK_RECORD
  5
DA
330
1
100
AcDbSymbolTableRecord
100
AcDbBlockTableRecord
  2
SW_CENTERMARKSYMBOL_0
340
0
102
{BLKREFS
331
E5
102
}
  0
BLOCK_RECORD
  5
E6
330
1
100
AcDbSymbolTableRecord
100
AcDbBlockTableRecord
  2
SW_CENTERMARKSYMBOL_1
340
0
102
{BLKREFS
331
F1
102
}
  0
BLOCK_RECORD
  5
F2
330
1
100
AcDbSymbolTableRecord
100
AcDbBlockTableRecord
  2
SW_CENTERMARKSYMBOL_2
340
0
102
{BLKREFS
331
FD
102
}
  0
BLOCK_RECORD
  5
FE
330
1
100
AcDbSymbolTableRecord
100
AcDbBlockTableRecord
  2
SW_CENTERMARKSYMBOL_3
340
0
102
{BLKREFS
331
109
102
}
  0
BLOCK_RECORD
  5
126
330
1
100
AcDbSymbolTableRecord
100
AcDbBlockTableRecord
  2
SW_NOTE_0_1
340
0
102
{BLKREFS
331
12A
102
}
  0
ENDTAB
  0
ENDSEC
  0
SECTION
  2
BLOCKS
  0
BLOCK
  5
20
330
1F
100
AcDbEntity
  8
0
100
AcDbBlockBegin
  2
*Model_Space
 70
     0
 10
0.0
 20
0.0
 30
0.0
  3
*Model_Space
  1

  0
ENDBLK
  5
21
330
1F
100
AcDbEntity
  8
0
100
AcDbBlockEnd
  0
BLOCK
  5
1C
330
1B
100
AcDbEntity
 67
     1
  8
0
100
AcDbBlockBegin
  2
*Paper_Space
 70
     0
 10
0.0
 20
0.0
 30
0.0
  3
*Paper_Space
  1

  0
ENDBLK
  5
1D
330
1B
100
AcDbEntity
 67
     1
  8
0
100
AcDbBlockEnd
  0
BLOCK
  5
24
330
23
100
AcDbEntity
  8
0
100
AcDbBlockBegin
  2
*Paper_Space0
 70
     0
 10
0.0
 20
0.0
 30
0.0
  3
*Paper_Space0
  1

  0
ENDBLK
  5
25
330
23
100
AcDbEntity
  8
0
100
AcDbBlockEnd
  0
BLOCK
  5
74
330
73
100
AcDbEntity
  8
0
100
AcDbBlockBegin
  2
SW_NOTE_0
 70
     0
 10
0.0
 20
0.0
 30
0.0
  3
SW_NOTE_0
  1

  0
MTEXT
  5
77
330
73
100
AcDbEntity
  8
0
  6
Continuous
 62
     0
370
     0
100
AcDbMText
 10
0.0
 20
8.8677118265
 30
0.0
 40
6.8791666667
 41
0.0
 71
     1
 72
     1
  1
PASLANMAZ SAC
  7
SLDTEXTSTYLE0
 73
     1
 44
1.0
  0
MTEXT
  5
78
330
73
100
AcDbEntity
  8
0
  6
Continuous
 62
     0
370
     0
100
AcDbMText
 10
0.0
 20
-0.3045107505
 30
0.0
 40
6.8791666667
 41
0.0
 71
     1
 72
     1
  1
2 mm
  7
SLDTEXTSTYLE0
 73
     1
 44
1.0
  0
MTEXT
  5
79
330
73
100
AcDbEntity
  8
0
  6
Continuous
 62
     0
370
     0
100
AcDbMText
 10
0.0
 20
-9.4767333276
 30
0.0
 40
6.8791666667
 41
0.0
 71
     1
 72
     1
  1
1 adet
  7
SLDTEXTSTYLE0
 73
     1
 44
1.0
  0
ENDBLK
  5
75
330
73
100
AcDbEntity
  8
0
100
AcDbBlockEnd
  0
BLOCK
  5
DB
330
DA
100
AcDbEntity
  8
0
100
AcDbBlockBegin
  2
SW_CENTERMARKSYMBOL_0
 70
     0
 10
0.0
 20
0.0
 30
0.0
  3
SW_CENTERMARKSYMBOL_0
  1

  0
LINE
  5
DD
330
DA
100
AcDbEntity
  8
0
  6
Continuous
 62
     0
370
    18
100
AcDbLine
 10
0.0
 20
0.0
 30
0.0
 11
0.0
 21
2.5
 31
0.0
  0
LINE
  5
DE
330
DA
100
AcDbEntity
  8
0
  6
Continuous
 62
     0
370
    18
100
AcDbLine
 10
0.0
 20
0.0
 30
0.0
 11
-2.5
 21
0.0
 31
0.0
  0
LINE
  5
DF
330
DA
100
AcDbEntity
  8
0
  6
Continuous
 62
     0
370
    18
100
AcDbLine
 10
0.0
 20
0.0
 30
0.0
 11
0.0
 21
-2.5
 31
0.0
  0
LINE
  5
E0
330
DA
100
AcDbEntity
  8
0
  6
Continuous
 62
     0
370
    18
100
AcDbLine
 10
0.0
 20
0.0
 30
0.0
 11
2.5
 21
0.0
 31
0.0
  0
LINE
  5
E1
330
DA
100
AcDbEntity
  8
0
  6
Continuous
 62
     0
370
    18
100
AcDbLine
 10
0.0
 20
2.5
 30
0.0
 11
0.0
 21
4.5
 31
0.0
  0
LINE
  5
E2
330
DA
100
AcDbEntity
  8
0
  6
Continuous
 62
     0
370
    18
100
AcDbLine
 10
-2.5
 20
0.0
 30
0.0
 11
-4.5
 21
0.0
 31
0.0
  0
LINE
  5
E3
330
DA
100
AcDbEntity
  8
0
  6
Continuous
 62
     0
370
    18
100
AcDbLine
 10
0.0
 20
-2.5
 30
0.0
 11
0.0
 21
-4.5
 31
0.0
  0
LINE
  5
E4
330
DA
100
AcDbEntity
  8
0
  6
Continuous
 62
     0
370
    18
100
AcDbLine
 10
2.5
 20
0.0
 30
0.0
 11
4.5
 21
0.0
 31
0.0
  0
ENDBLK
  5
DC
330
DA
100
AcDbEntity
  8
0
100
AcDbBlockEnd
  0
BLOCK
  5
E7
330
E6
100
AcDbEntity
  8
0
100
AcDbBlockBegin
  2
SW_CENTERMARKSYMBOL_1
 70
     0
 10
0.0
 20
0.0
 30
0.0
  3
SW_CENTERMARKSYMBOL_1
  1

  0
LINE
  5
E9
330
E6
100
AcDbEntity
  8
0
  6
Continuous
 62
     0
370
    18
100
AcDbLine
 10
0.0
 20
0.0
 30
0.0
 11
0.0
 21
2.5
 31
0.0
  0
LINE
  5
EA
330
E6
100
AcDbEntity
  8
0
  6
Continuous
 62
     0
370
    18
100
AcDbLine
 10
0.0
 20
0.0
 30
0.0
 11
-2.5
 21
0.0
 31
0.0
  0
LINE
  5
EB
330
E6
100
AcDbEntity
  8
0
  6
Continuous
 62
     0
370
    18
100
AcDbLine
 10
0.0
 20
0.0
 30
0.0
 11
0.0
 21
-2.5
 31
0.0
  0
LINE
  5
EC
330
E6
100
AcDbEntity
  8
0
  6
Continuous
 62
     0
370
    18
100
AcDbLine
 10
0.0
 20
0.0
 30
0.0
 11
2.5
 21
0.0
 31
0.0
  0
LINE
  5
ED
330
E6
100
AcDbEntity
  8
0
  6
Continuous
 62
     0
370
    18
100
AcDbLine
 10
0.0
 20
2.5
 30
0.0
 11
0.0
 21
4.5
 31
0.0
  0
LINE
  5
EE
330
E6
100
AcDbEntity
  8
0
  6
Continuous
 62
     0
370
    18
100
AcDbLine
 10
-2.5
 20
0.0
 30
0.0
 11
-4.5
 21
0.0
 31
0.0
  0
LINE
  5
EF
330
E6
100
AcDbEntity
  8
0
  6
Continuous
 62
     0
370
    18
100
AcDbLine
 10
0.0
 20
-2.5
 30
0.0
 11
0.0
 21
-4.5
 31
0.0
  0
LINE
  5
F0
330
E6
100
AcDbEntity
  8
0
  6
Continuous
 62
     0
370
    18
100
AcDbLine
 10
2.5
 20
0.0
 30
0.0
 11
4.5
 21
0.0
 31
0.0
  0
ENDBLK
  5
E8
330
E6
100
AcDbEntity
  8
0
100
AcDbBlockEnd
  0
BLOCK
  5
F3
330
F2
100
AcDbEntity
  8
0
100
AcDbBlockBegin
  2
SW_CENTERMARKSYMBOL_2
 70
     0
 10
0.0
 20
0.0
 30
0.0
  3
SW_CENTERMARKSYMBOL_2
  1

  0
LINE
  5
F5
330
F2
100
AcDbEntity
  8
0
  6
Continuous
 62
     0
370
    18
100
AcDbLine
 10
0.0
 20
0.0
 30
0.0
 11
0.0
 21
2.5
 31
0.0
  0
LINE
  5
F6
330
F2
100
AcDbEntity
  8
0
  6
Continuous
 62
     0
370
    18
100
AcDbLine
 10
0.0
 20
0.0
 30
0.0
 11
-2.5
 21
0.0
 31
0.0
  0
LINE
  5
F7
330
F2
100
AcDbEntity
  8
0
  6
Continuous
 62
     0
370
    18
100
AcDbLine
 10
0.0
 20
0.0
 30
0.0
 11
0.0
 21
-2.5
 31
0.0
  0
LINE
  5
F8
330
F2
100
AcDbEntity
  8
0
  6
Continuous
 62
     0
370
    18
100
AcDbLine
 10
0.0
 20
0.0
 30
0.0
 11
2.5
 21
0.0
 31
0.0
  0
LINE
  5
F9
330
F2
100
AcDbEntity
  8
0
  6
Continuous
 62
     0
370
    18
100
AcDbLine
 10
0.0
 20
2.5
 30
0.0
 11
0.0
 21
4.5
 31
0.0
  0
LINE
  5
FA
330
F2
100
AcDbEntity
  8
0
  6
Continuous
 62
     0
370
    18
100
AcDbLine
 10
-2.5
 20
0.0
 30
0.0
 11
-4.5
 21
0.0
 31
0.0
  0
LINE
  5
FB
330
F2
100
AcDbEntity
  8
0
  6
Continuous
 62
     0
370
    18
100
AcDbLine
 10
0.0
 20
-2.5
 30
0.0
 11
0.0
 21
-4.5
 31
0.0
  0
LINE
  5
FC
330
F2
100
AcDbEntity
  8
0
  6
Continuous
 62
     0
370
    18
100
AcDbLine
 10
2.5
 20
0.0
 30
0.0
 11
4.5
 21
0.0
 31
0.0
  0
ENDBLK
  5
F4
330
F2
100
AcDbEntity
  8
0
100
AcDbBlockEnd
  0
BLOCK
  5
FF
330
FE
100
AcDbEntity
  8
0
100
AcDbBlockBegin
  2
SW_CENTERMARKSYMBOL_3
 70
     0
 10
0.0
 20
0.0
 30
0.0
  3
SW_CENTERMARKSYMBOL_3
  1

  0
LINE
  5
101
330
FE
100
AcDbEntity
  8
0
  6
Continuous
 62
     0
370
    18
100
AcDbLine
 10
0.0
 20
0.0
 30
0.0
 11
0.0
 21
2.5
 31
0.0
  0
LINE
  5
102
330
FE
100
AcDbEntity
  8
0
  6
Continuous
 62
     0
370
    18
100
AcDbLine
 10
0.0
 20
0.0
 30
0.0
 11
-2.5
 21
0.0
 31
0.0
  0
LINE
  5
103
330
FE
100
AcDbEntity
  8
0
  6
Continuous
 62
     0
370
    18
100
AcDbLine
 10
0.0
 20
0.0
 30
0.0
 11
0.0
 21
-2.5
 31
0.0
  0
LINE
  5
104
330
FE
100
AcDbEntity
  8
0
  6
Continuous
 62
     0
370
    18
100
AcDbLine
 10
0.0
 20
0.0
 30
0.0
 11
2.5
 21
0.0
 31
0.0
  0
LINE
  5
105
330
FE
100
AcDbEntity
  8
0
  6
Continuous
 62
     0
370
    18
100
AcDbLine
 10
0.0
 20
2.5
 30
0.0
 11
0.0
 21
4.5
 31
0.0
  0
LINE
  5
106
330
FE
100
AcDbEntity
  8
0
  6
Continuous
 62
     0
370
    18
100
AcDbLine
 10
-2.5
 20
0.0
 30
0.0
 11
-4.5
 21
0.0
 31
0.0
  0
LINE
  5
107
330
FE
100
AcDbEntity
  8
0
  6
Continuous
 62
     0
370
    18
100
AcDbLine
 10
0.0
 20
-2.5
 30
0.0
 11
0.0
 21
-4.5
 31
0.0
  0
LINE
  5
108
330
FE
100
AcDbEntity
  8
0
  6
Continuous
 62
     0
370
    18
100
AcDbLine
 10
2.5
 20
0.0
 30
0.0
 11
4.5
 21
0.0
 31
0.0
  0
ENDBLK
  5
100
330
FE
100
AcDbEntity
  8
0
100
AcDbBlockEnd
  0
BLOCK
  5
127
330
126
100
AcDbEntity
  8
0
100
AcDbBlockBegin
  2
SW_NOTE_0_1
 70
     0
 10
0.0
 20
0.0
 30
0.0
  3
SW_NOTE_0_1
  1

  0
MTEXT
  5
129
330
126
100
AcDbEntity
  8
0
  6
Continuous
 62
     0
370
     0
100
AcDbMText
 10
0.6096447101
 20
1.7984258976
 30
0.0
 40
4.7625
 41
0.0
 71
     1
 72
     1
  1
FOLYOLU YÜZEY
  7
SLDTEXTSTYLE0
 73
     1
 44
1.0
  0
ENDBLK
  5
128
330
126
100
AcDbEntity
  8
0
100
AcDbBlockEnd
  0
ENDSEC
  0
SECTION
  2
ENTITIES
  0
INSERT
  5
7A
330
1F
100
AcDbEntity
  8
0
  6
Continuous
 62
     7
370
     0
100
AcDbBlockReference
  2
SW_NOTE_0
 10
-117.2678011001
 20
183.9667337896
 30
0.0
  0
LINE
  5
7B
330
1F
100
AcDbEntity
  8
0
  6
Continuous
 62
     7
370
    35
100
AcDbLine
 10
342.1061058682
 20
157.5221663107
 30
0.0
 11
343.5203194306
 21
158.3385744225
 31
0.0
  0
LINE
  5
7C
330
1F
100
AcDbEntity
  8
0
  6
Continuous
 62
     7
370
    35
100
AcDbLine
 10
224.5550511181
 20
294.1705160933
 30
0.0
 11
223.1408375557
 21
293.3541079815
 31
0.0
  0
LINE
  5
7D
330
1F
100
AcDbEntity
  8
0
  6
Continuous
 62
     7
370
    35
100
AcDbLine
 10
329.343287253
 20
232.7620758226
 30
0.0
 11
329.343287253
 21
164.1726476242
 31
0.0
  0
LINE
  5
7E
330
1F
100
AcDbEntity
  8
0
  6
Continuous
 62
     7
370
    35
100
AcDbLine
 10
340.6062277692
 20
226.2601186606
 30
0.0
 11
329.343287253
 21
232.7620758226
 31
0.0
  0
ARC
  5
7F
330
1F
100
AcDbEntity
  8
0
  6
Continuous
 62
     7
370
    35
100
AcDbCircle
 10
338.1218998087
 20
222.3763015004
 30
0.0
 40
4.610414422716455
100
AcDbArc
 50
2.6054784857
 51
57.39452166
  0
LINE
  5
80
330
1F
100
AcDbEntity
  8
0
  6
Continuous
 62
     7
370
    35
100
AcDbLine
 10
342.7275481128
 20
222.5858840572
 30
0.0
 11
342.7275481128
 21
158.8957007301
 31
0.0
  0
ARC
  5
81
330
1F
100
AcDbEntity
  8
0
  6
Continuous
 62
     7
370
    35
100
AcDbCircle
 10
341.4343250105
 20
158.6859191394
 30
0.0
 40
1.31012759228549
100
AcDbArc
 50
230.7967147643
 51
9.2140369905
  0
LINE
  5
82
330
1F
100
AcDbEntity
  8
0
  6
Continuous
 62
     7
370
    35
100
AcDbLine
 10
340.6062277692
 20
157.6706904622
 30
0.0
 11
329.343287253
 21
164.1726476242
 31
0.0
  0
LWPOLYLINE
  5
83
330
1F
100
AcDbEntity
  8
0
  6
Continuous
 62
     7
370
    35
100
AcDbPolyline
 90
       25
 70
   128
 43
0.0
 10
337.0706938633
 20
169.5102004844
 10
337.0225057047
 20
169.9606915426
 10
336.8812251723
 20
170.4361192434
 10
336.6564803009
 20
170.9040839745
 10
336.3635870821
 20
171.3326947129
 10
336.0225057047
 20
171.6927423451
 10
335.6564803009
 20
171.95969022
 10
335.2904548972
 20
172.1153462809
 10
334.9493735197
 20
172.1491028247
 10
334.6564803009
 20
172.0586593987
 10
334.4317354295
 20
171.8501795728
 10
334.2904548972
 20
171.5378709026
 10
334.2422667386
 20
171.143016708
 10
334.2904548972
 20
170.6925256497
 10
334.4317354295
 20
170.217097949
 10
334.6564803009
 20
169.7491332179
 10
334.9493735197
 20
169.3205224795
 10
335.2904548972
 20
168.9604748473
 10
335.6564803009
 20
168.6935269724
 10
336.0225057047
 20
168.5378709114
 10
336.3635870821
 20
168.5041143676
 10
336.6564803009
 20
168.5945577937
 10
336.8812251723
 20
168.8030376196
 10
337.0225057047
 20
169.1153462897
 10
337.0706938633
 20
169.5102004844
  0
LWPOLYLINE
  5
84
330
1F
100
AcDbEntity
  8
0
  6
Continuous
 62
     7
370
    35
100
AcDbPolyline
 90
       25
 70
   128
 43
0.0
 10
337.0706938633
 20
218.5026491975
 10
337.0225057047
 20
218.9531402558
 10
336.8812251723
 20
219.4285679565
 10
336.6564803009
 20
219.8965326876
 10
336.3635870821
 20
220.3251434261
 10
336.0225057047
 20
220.6851910582
 10
335.6564803009
 20
220.9521389331
 10
335.2904548972
 20
221.1077949941
 10
334.9493735197
 20
221.1415515379
 10
334.6564803009
 20
221.0511081118
 10
334.4317354295
 20
220.8426282859
 10
334.2904548972
 20
220.5303196158
 10
334.2422667386
 20
220.1354654211
 10
334.2904548972
 20
219.6849743629
 10
334.4317354295
 20
219.2095466621
 10
334.6564803009
 20
218.741581931
 10
334.9493735197
 20
218.3129711926
 10
335.2904548972
 20
217.9529235604
 10
335.6564803009
 20
217.6859756856
 10
336.0225057047
 20
217.5303196246
 10
336.3635870821
 20
217.4965630808
 10
336.6564803009
 20
217.5870065068
 10
336.8812251723
 20
217.7954863327
 10
337.0225057047
 20
218.1077950029
 10
337.0706938633
 20
218.5026491975
  0
LINE
  5
85
330
1F
100
AcDbEntity
  8
0
  6
Continuous
 62
     7
370
    35
100
AcDbLine
 10
344.1417616752
 20
223.402292169
 30
0.0
 11
342.7275481128
 21
222.5858840572
 31
0.0
  0
LINE
  5
86
330
1F
100
AcDbEntity
  8
0
  6
Continuous
 62
     7
370
    35
100
AcDbLine
 10
340.6062277692
 20
226.2601186606
 30
0.0
 11
342.0204413316
 21
227.0765267724
 31
0.0
  0
ARC
  5
87
330
1F
100
AcDbEntity
  8
0
  6
Continuous
 62
     7
370
    35
100
AcDbCircle
 10
339.5361133711
 20
223.1927096122
 30
0.0
 40
4.610414422716578
100
AcDbArc
 50
2.6054784857
 51
57.39452166
  0
LINE
  5
88
330
1F
100
AcDbEntity
  8
0
  6
Continuous
 62
     7
370
    35
100
AcDbLine
 10
342.7275481128
 20
158.8957007301
 30
0.0
 11
344.1417616752
 21
159.7121088419
 31
0.0
  0
LINE
  5
89
330
1F
100
AcDbEntity
  8
0
  6
Continuous
 62
     7
370
    35
100
AcDbLine
 10
344.1417616752
 20
223.402292169
 30
0.0
 11
344.1417616752
 21
159.7121088419
 31
0.0
  0
LINE
  5
8A
330
1F
100
AcDbEntity
  8
0
  6
Continuous
 62
     7
370
    35
100
AcDbLine
 10
330.7575008154
 20
233.5784839344
 30
0.0
 11
329.343287253
 21
232.7620758226
 31
0.0
  0
LINE
  5
8B
330
1F
100
AcDbEntity
  8
0
  6
Continuous
 62
     7
370
    35
100
AcDbLine
 10
342.0204413316
 20
227.0765267724
 30
0.0
 11
330.7575008154
 21
233.5784839344
 31
0.0
  0
ARC
  5
8C
330
1F
100
AcDbEntity
  8
0
  6
Continuous
 62
     7
370
    35
100
AcDbCircle
 10
338.6883472688
 20
221.0693295877
 30
0.0
 40
3.034141268264376
100
AcDbArc
 50
182.2185579347
 51
237.781441774
  0
LINE
  5
8D
330
1F
100
AcDbEntity
  8
0
  6
Continuous
 62
     7
370
    35
100
AcDbLine
 10
328.3080110726
 20
233.7972398286
 30
0.0
 11
328.3080110726
 21
165.2078116302
 31
0.0
  0
ARC
  5
8E
330
1F
100
AcDbEntity
  8
0
  6
Continuous
 62
     7
370
    35
100
AcDbCircle
 10
330.4821188699
 20
234.936307034
 30
0.0
 40
2.454428408527328
100
AcDbArc
 50
207.6511209587
 51
242.3550874947
  0
ARC
  5
8F
330
1F
100
AcDbEntity
  8
0
  6
Continuous
 62
     7
370
    35
100
AcDbCircle
 10
330.4821188699
 20
166.3468788356
 30
0.0
 40
2.454428408527127
100
AcDbArc
 50
207.6511209587
 51
242.3550874947
  0
ARC
  5
90
330
1F
100
AcDbEntity
  8
0
  6
Continuous
 62
     7
370
    35
100
AcDbCircle
 10
331.3269166238
 20
234.6655995401
 30
0.0
 40
1.227214204263283
100
AcDbArc
 50
207.6511209587
 51
242.3550874947
  0
LINE
  5
91
330
1F
100
AcDbEntity
  8
0
  6
Continuous
 62
     7
370
    35
100
AcDbLine
 10
328.3080110726
 20
233.7972398286
 30
0.0
 11
330.2398627252
 21
234.0960659374
 31
0.0
  0
LINE
  5
92
330
1F
100
AcDbEntity
  8
0
  6
Continuous
 62
     7
370
    35
100
AcDbLine
 10
301.8961993864
 20
295.1615553032
 30
0.0
 11
299.9643477338
 21
294.8627291944
 31
0.0
  0
LINE
  5
93
330
1F
100
AcDbEntity
  8
0
  6
Continuous
 62
     7
370
    35
100
AcDbLine
 10
330.2398627252
 20
234.0960659374
 30
0.0
 11
301.8961993864
 21
295.1615553032
 31
0.0
  0
LINE
  5
94
330
1F
100
AcDbEntity
  8
0
  6
Continuous
 62
     7
370
    35
100
AcDbLine
 10
328.3080110726
 20
233.7972398286
 30
0.0
 11
299.9643477338
 21
294.8627291944
 31
0.0
  0
LINE
  5
95
330
1F
100
AcDbEntity
  8
0
  6
Continuous
 62
     7
370
    35
100
AcDbLine
 10
299.9643477338
 20
294.8627291944
 30
0.0
 11
299.9643477338
 21
226.273300996
 31
0.0
  0
LINE
  5
96
330
1F
100
AcDbEntity
  8
0
  6
Continuous
 62
     7
370
    35
100
AcDbLine
 10
328.3080110726
 20
165.2078116302
 30
0.0
 11
299.9643477338
 21
226.273300996
 31
0.0
  0
LWPOLYLINE
  5
97
330
1F
100
AcDbEntity
  8
0
  6
Continuous
 62
     7
370
    35
100
AcDbPolyline
 90
       26
 70
   128
 43
0.0
 10
304.3657604506
 20
251.0853163262
 10
304.347465079
 20
251.5816303471
 10
304.2937285299
 20
252.1255926838
 10
304.2079272682
 20
252.6830241822
 10
304.0954525028
 20
253.2188993711
 10
303.9633714368
 20
253.6995472416
 10
303.8199832093
 20
254.0947669203
 10
303.67429743
 20
254.3797253013
 10
303.5354680723
 20
254.5365174014
 10
303.4122182953
 20
254.5552913965
 10
303.3122923357
 20
254.4348676473
 10
303.2419689091
 20
254.1828128208
 10
303.2056666949
 20
253.814964449
 10
303.2056666949
 20
253.3544357976
 10
303.2419689091
 20
252.8301635758
 10
303.3122923357
 20
252.2750897352
 10
303.4122182953
 20
251.7240916068
 10
303.5354680723
 20
251.2117904293
 10
303.67429743
 20
250.7703759698
 10
303.8199832093
 20
250.4275839223
 10
303.9633714368
 20
250.2049531718
 10
304.0954525028
 20
250.1164724271
 10
304.2079272682
 20
250.1677012588
 10
304.2937285299
 20
250.355420771
 10
304.347465079
 20
250.6678358564
 10
304.3657604506
 20
251.0853163262
  0
LWPOLYLINE
  5
98
330
1F
100
AcDbEntity
  8
0
  6
Continuous
 62
     7
370
    35
100
AcDbPolyline
 90
       26
 70
   128
 43
0.0
 10
322.4830936078
 20
212.052118605
 10
322.4647982362
 20
212.5484326259
 10
322.4110616871
 20
213.0923949626
 10
322.3252604254
 20
213.649826461
 10
322.21278566
 20
214.1857016499
 10
322.0807045939
 20
214.6663495204
 10
321.9373163665
 20
215.0615691991
 10
321.7916305872
 20
215.3465275801
 10
321.6528012295
 20
215.5033196802
 10
321.5295514525
 20
215.5220936753
 10
321.4296254929
 20
215.4016699261
 10
321.3593020662
 20
215.1496150997
 10
321.3229998521
 20
214.7817667278
 10
321.3229998521
 20
214.3212380764
 10
321.3593020662
 20
213.7969658546
 10
321.4296254929
 20
213.241892014
 10
321.5295514525
 20
212.6908938856
 10
321.6528012295
 20
212.1785927081
 10
321.7916305872
 20
211.7371782486
 10
321.9373163665
 20
211.3943862011
 10
322.0807045939
 20
211.1717554506
 10
322.21278566
 20
211.0832747059
 10
322.3252604254
 20
211.1345035376
 10
322.4110616871
 20
211.3222230498
 10
322.4647982362
 20
211.6346381352
 10
322.4830936078
 20
212.052118605
  0
ARC
  5
99
330
1F
100
AcDbEntity
  8
0
  6
Continuous
 62
     7
370
    35
100
AcDbCircle
 10
338.6883472688
 20
172.0768808745
 30
0.0
 40
3.034141268264151
100
AcDbArc
 50
182.2185579347
 51
237.781441774
  0
ARC
  5
9A
330
1F
100
AcDbEntity
  8
0
  6
Continuous
 62
     7
370
    35
100
AcDbCircle
 10
342.7147050075
 20
159.5304167561
 30
0.0
 40
1.438576639225327
100
AcDbArc
 50
304.0563508311
 51
7.2558295623
  0
LINE
  5
9B
330
1F
100
AcDbEntity
  8
0
  6
Continuous
 62
     7
370
    35
100
AcDbLine
 10
238.3746029879
 20
287.7264037688
 30
0.0
 11
238.8922410781
 21
286.6111695482
 31
0.0
  0
LINE
  5
9C
330
1F
100
AcDbEntity
  8
0
  6
Continuous
 62
     7
370
    35
100
AcDbLine
 10
296.9972199008
 20
296.7943715268
 30
0.0
 11
238.3746029879
 21
287.7264037688
 31
0.0
  0
LINE
  5
9D
330
1F
100
AcDbEntity
  8
0
  6
Continuous
 62
     7
370
    35
100
AcDbLine
 10
297.514857991
 20
295.6791373062
 30
0.0
 11
296.9972199008
 21
296.7943715268
 31
0.0
  0
LINE
  5
9E
330
1F
100
AcDbEntity
  8
0
  6
Continuous
 62
     7
370
    35
100
AcDbLine
 10
297.514857991
 20
295.6791373062
 30
0.0
 11
238.8922410781
 21
286.6111695482
 31
0.0
  0
LINE
  5
9F
330
1F
100
AcDbEntity
  8
0
  6
Continuous
 62
     7
370
    35
100
AcDbLine
 10
238.8922410781
 20
286.6111695482
 30
0.0
 11
238.8922410781
 21
218.0217413498
 31
0.0
  0
LINE
  5
A0
330
1F
100
AcDbEntity
  8
0
  6
Continuous
 62
     7
370
    35
100
AcDbLine
 10
297.514857991
 20
295.6791373062
 30
0.0
 11
297.514857991
 21
227.0897091078
 31
0.0
  0
LINE
  5
A1
330
1F
100
AcDbEntity
  8
0
  6
Continuous
 62
     7
370
    35
100
AcDbLine
 10
297.514857991
 20
227.0897091078
 30
0.0
 11
238.8922410781
 21
218.0217413498
 31
0.0
  0
ARC
  5
A2
330
1F
100
AcDbEntity
  8
0
  6
Continuous
 62
     7
370
    35
100
AcDbCircle
 10
237.8535700779
 20
290.7519614781
 30
0.0
 40
3.07009360530299
100
AcDbArc
 50
242.642825155
 51
279.7710969793
  0
ARC
  5
A3
330
1F
100
AcDbEntity
  8
0
  6
Continuous
 62
     7
370
    35
100
AcDbCircle
 10
237.8501752581
 20
292.6622849667
 30
0.0
 40
6.140187210606309
100
AcDbArc
 50
242.642825155
 51
279.7710969793
  0
LINE
  5
A4
330
1F
100
AcDbEntity
  8
0
  6
Continuous
 62
     7
370
    35
100
AcDbLine
 10
235.028537773
 20
287.2088217658
 30
0.0
 11
236.4427513353
 21
288.0252298776
 31
0.0
  0
LINE
  5
A5
330
1F
100
AcDbEntity
  8
0
  6
Continuous
 62
     7
370
    35
100
AcDbLine
 10
235.028537773
 20
287.2088217658
 30
0.0
 11
235.028537773
 21
218.6193935674
 31
0.0
  0
ARC
  5
A6
330
1F
100
AcDbEntity
  8
0
  6
Continuous
 62
     7
370
    35
100
AcDbCircle
 10
237.8501752581
 20
224.0728567683
 30
0.0
 40
6.140187210606768
100
AcDbArc
 50
242.642825155
 51
279.7710969793
  0
LINE
  5
A7
330
1F
100
AcDbEntity
  8
0
  6
Continuous
 62
     7
370
    35
100
AcDbLine
 10
235.028537773
 20
287.2088217658
 30
0.0
 11
224.6407156546
 21
293.20558383
 31
0.0
  0
LINE
  5
A8
330
1F
100
AcDbEntity
  8
0
  6
Continuous
 62
     7
370
    35
100
AcDbLine
 10
226.054929217
 20
294.0219919419
 30
0.0
 11
224.6407156546
 21
293.20558383
 31
0.0
  0
LINE
  5
A9
330
1F
100
AcDbEntity
  8
0
  6
Continuous
 62
     7
370
    35
100
AcDbLine
 10
236.4427513353
 20
288.0252298776
 30
0.0
 11
226.054929217
 21
294.0219919419
 31
0.0
  0
ARC
  5
AA
330
1F
100
AcDbEntity
  8
0
  6
Continuous
 62
     7
370
    35
100
AcDbCircle
 10
223.8126184134
 20
292.1903551528
 30
0.0
 40
1.310127592285472
100
AcDbArc
 50
50.7967147643
 51
189.2140369905
  0
LINE
  5
AB
330
1F
100
AcDbEntity
  8
0
  6
Continuous
 62
     7
370
    35
100
AcDbLine
 10
235.028537773
 20
218.6193935674
 30
0.0
 11
224.6407156546
 21
224.6161556316
 31
0.0
  0
ARC
  5
AC
330
1F
100
AcDbEntity
  8
0
  6
Continuous
 62
     7
370
    35
100
AcDbCircle
 10
227.1250436152
 20
228.4999727918
 30
0.0
 40
4.610414422716311
100
AcDbArc
 50
182.6054784857
 51
237.39452166
  0
LINE
  5
AD
330
1F
100
AcDbEntity
  8
0
  6
Continuous
 62
     7
370
    35
100
AcDbLine
 10
222.5193953111
 20
291.9805735621
 30
0.0
 11
222.5193953111
 21
228.290390235
 31
0.0
  0
LWPOLYLINE
  5
AE
330
1F
100
AcDbEntity
  8
0
  6
Continuous
 62
     7
370
    35
100
AcDbPolyline
 90
       25
 70
   128
 43
0.0
 10
231.0046766853
 20
230.7408088711
 10
230.9564885267
 20
231.1912999293
 10
230.8152079943
 20
231.6667276301
 10
230.590463123
 20
232.1346923612
 10
230.2975699041
 20
232.5633030996
 10
229.9564885267
 20
232.9233507318
 10
229.590463123
 20
233.1902986067
 10
229.2244377192
 20
233.3459546676
 10
228.8833563418
 20
233.3797112114
 10
228.590463123
 20
233.2892677854
 10
228.3657182516
 20
233.0807879595
 10
228.2244377192
 20
232.7684792893
 10
228.1762495606
 20
232.3736250947
 10
228.2244377192
 20
231.9231340364
 10
228.3657182516
 20
231.4477063357
 10
228.590463123
 20
230.9797416046
 10
228.8833563418
 20
230.5511308662
 10
229.2244377192
 20
230.191083234
 10
229.590463123
 20
229.9241353591
 10
229.9564885267
 20
229.7684792981
 10
230.2975699041
 20
229.7347227543
 10
230.590463123
 20
229.8251661804
 10
230.8152079943
 20
230.0336460063
 10
230.9564885267
 20
230.3459546764
 10
231.0046766853
 20
230.7408088711
  0
LWPOLYLINE
  5
AF
330
1F
100
AcDbEntity
  8
0
  6
Continuous
 62
     7
370
    35
100
AcDbPolyline
 90
       25
 70
   128
 43
0.0
 10
231.0046766853
 20
279.7332575842
 10
230.9564885267
 20
280.1837486425
 10
230.8152079943
 20
280.6591763432
 10
230.590463123
 20
281.1271410743
 10
230.2975699041
 20
281.5557518128
 10
229.9564885267
 20
281.915799445
 10
229.590463123
 20
282.1827473198
 10
229.2244377192
 20
282.3384033808
 10
228.8833563418
 20
282.3721599246
 10
228.590463123
 20
282.2817164985
 10
228.3657182516
 20
282.0732366726
 10
228.2244377192
 20
281.7609280025
 10
228.1762495606
 20
281.3660738079
 10
228.2244377192
 20
280.9155827496
 10
228.3657182516
 20
280.4401550488
 10
228.590463123
 20
279.9721903177
 10
228.8833563418
 20
279.5435795793
 10
229.2244377192
 20
279.1835319471
 10
229.590463123
 20
278.9165840723
 10
229.9564885267
 20
278.7609280113
 10
230.2975699041
 20
278.7271714675
 10
230.590463123
 20
278.8176148935
 10
230.8152079943
 20
279.0260947194
 10
230.9564885267
 20
279.3384033896
 10
231.0046766853
 20
279.7332575842
  0
ARC
  5
B0
330
1F
100
AcDbEntity
  8
0
  6
Continuous
 62
     7
370
    35
100
AcDbCircle
 10
225.1761690525
 20
292.7953479545
 30
0.0
 40
1.508931707705768
100
AcDbArc
 50
54.3824225248
 51
114.3071190461
  0
ARC
  5
B1
330
1F
100
AcDbEntity
  8
0
  6
Continuous
 62
     7
370
    35
100
AcDbCircle
 10
232.6223300909
 20
282.2999379744
 30
0.0
 40
3.034141268271124
100
AcDbArc
 50
182.2185579348
 51
237.7814417734
  0
ARC
  5
B2
330
1F
100
AcDbEntity
  8
0
  6
Continuous
 62
     7
370
    35
100
AcDbCircle
 10
298.1874997204
 20
292.1999242869
 30
0.0
 40
4.74612594537812
100
AcDbArc
 50
38.6095758316
 51
104.5242514331
  0
ARC
  5
B3
330
1F
100
AcDbEntity
  8
0
  6
Continuous
 62
     7
370
    35
100
AcDbCircle
 10
298.1099979008
 20
293.3819136862
 30
0.0
 40
2.373062972688984
100
AcDbArc
 50
38.6095758316
 51
104.5242514331
  0
ARC
  5
B4
330
1F
100
AcDbEntity
  8
0
  6
Continuous
 62
     7
370
    35
100
AcDbCircle
 10
298.1099979008
 20
224.7924854878
 30
0.0
 40
2.373062972689126
100
AcDbArc
 50
38.6095758316
 51
104.5242514331
  0
ARC
  5
B5
330
1F
100
AcDbEntity
  8
0
  6
Continuous
 62
     7
370
    35
100
AcDbCircle
 10
232.6223300908
 20
233.3074892612
 30
0.0
 40
3.034141268265441
100
AcDbArc
 50
182.2185579347
 51
237.7814417739
  0
LINE
  5
B6
330
1F
100
AcDbEntity
  8
0
  6
Continuous
 62
     7
370
    35
100
AcDbLine
 10
-41.1221363792
 20
374.6320902412
 30
0.0
 11
-41.1221363792
 21
290.6320902412
 31
0.0
  0
LINE
  5
B7
330
1F
100
AcDbEntity
  8
0
  6
Continuous
 62
     7
370
    35
100
AcDbLine
 10
-37.6580347641
 20
374.6320902412
 30
0.0
 11
-37.6580347641
 21
290.6320902412
 31
0.0
  0
LINE
  5
B8
330
1F
100
AcDbEntity
  8
0
  6
Continuous
 62
     7
370
    35
100
AcDbLine
 10
-37.6580347641
 20
374.6320902412
 30
0.0
 11
-41.1221363792
 21
374.6320902412
 31
0.0
  0
LINE
  5
B9
330
1F
100
AcDbEntity
  8
0
  6
Continuous
 62
     7
370
    35
100
AcDbLine
 10
-37.6580347641
 20
290.6320902412
 30
0.0
 11
-41.1221363792
 21
290.6320902412
 31
0.0
  0
ARC
  5
BA
330
1F
100
AcDbEntity
  8
0
  6
Continuous
 62
     7
370
    35
100
AcDbCircle
 10
-55.8127353025
 20
371.6320902412
 30
0.0
 40
3.000000000000007
100
AcDbArc
 50
90.0
 51
180.0
  0
LINE
  5
BB
330
1F
100
AcDbEntity
  8
0
  6
Continuous
 62
     7
370
    35
100
AcDbLine
 10
-41.1221363792
 20
374.6320902412
 30
0.0
 11
-55.8127353025
 21
374.6320902412
 31
0.0
  0
LINE
  5
BC
330
1F
100
AcDbEntity
  8
0
  6
Continuous
 62
     7
370
    35
100
AcDbLine
 10
-41.1221363792
 20
290.6320902412
 30
0.0
 11
-55.8127353025
 21
290.6320902412
 31
0.0
  0
ARC
  5
BD
330
1F
100
AcDbEntity
  8
0
  6
Continuous
 62
     7
370
    35
100
AcDbCircle
 10
-55.8127353025
 20
293.6320902412
 30
0.0
 40
3.000000000000007
100
AcDbArc
 50
180.0
 51
270.0
  0
LINE
  5
BE
330
1F
100
AcDbEntity
  8
0
  6
Continuous
 62
     7
370
    35
100
AcDbLine
 10
-58.8127353025
 20
371.6320902412
 30
0.0
 11
-58.8127353025
 21
293.6320902412
 31
0.0
  0
CIRCLE
  5
BF
330
1F
100
AcDbEntity
  8
0
  6
Continuous
 62
     7
370
    35
100
AcDbCircle
 10
-48.8127353025
 20
302.6320902412
 30
0.0
 40
1.999999999999972
  0
CIRCLE
  5
C0
330
1F
100
AcDbEntity
  8
0
  6
Continuous
 62
     7
370
    35
100
AcDbCircle
 10
-48.8127353025
 20
362.6320902412
 30
0.0
 40
1.999999999999972
  0
LINE
  5
C1
330
1F
100
AcDbEntity
  8
0
  6
Continuous
 62
     7
370
    35
100
AcDbLine
 10
90.2590614673
 20
374.6320902412
 30
0.0
 11
90.2590614673
 21
290.6320902412
 31
0.0
  0
LINE
  5
C2
330
1F
100
AcDbEntity
  8
0
  6
Continuous
 62
     7
370
    35
100
AcDbLine
 10
92.2590614673
 20
374.6320902412
 30
0.0
 11
92.2590614673
 21
290.6320902412
 31
0.0
  0
LINE
  5
C3
330
1F
100
AcDbEntity
  8
0
  6
Continuous
 62
     7
370
    35
100
AcDbLine
 10
92.2590614673
 20
374.6320902412
 30
0.0
 11
90.2590614673
 21
374.6320902412
 31
0.0
  0
LINE
  5
C4
330
1F
100
AcDbEntity
  8
0
  6
Continuous
 62
     7
370
    35
100
AcDbLine
 10
92.2590614673
 20
290.6320902412
 30
0.0
 11
90.2590614673
 21
290.6320902412
 31
0.0
  0
LINE
  5
C5
330
1F
100
AcDbEntity
  8
0
  6
Continuous
 62
     7
370
    35
100
AcDbLine
 10
108.1872646975
 20
374.6320902412
 30
0.0
 11
92.2590614673
 21
374.6320902412
 31
0.0
  0
ARC
  5
C6
330
1F
100
AcDbEntity
  8
0
  6
Continuous
 62
     7
370
    35
100
AcDbCircle
 10
108.1872646975
 20
371.6320902412
 30
0.0
 40
3.0
100
AcDbArc
 50
0.0
 51
90.0
  0
LINE
  5
C7
330
1F
100
AcDbEntity
  8
0
  6
Continuous
 62
     7
370
    35
100
AcDbLine
 10
111.1872646975
 20
371.6320902412
 30
0.0
 11
111.1872646975
 21
293.6320902412
 31
0.0
  0
ARC
  5
C8
330
1F
100
AcDbEntity
  8
0
  6
Continuous
 62
     7
370
    35
100
AcDbCircle
 10
108.1872646975
 20
293.6320902412
 30
0.0
 40
3.0
100
AcDbArc
 50
270.0
 51
0.0
  0
LINE
  5
C9
330
1F
100
AcDbEntity
  8
0
  6
Continuous
 62
     7
370
    35
100
AcDbLine
 10
108.1872646975
 20
290.6320902412
 30
0.0
 11
92.2590614673
 21
290.6320902412
 31
0.0
  0
CIRCLE
  5
CA
330
1F
100
AcDbEntity
  8
0
  6
Continuous
 62
     7
370
    35
100
AcDbCircle
 10
101.1872646975
 20
302.6320902412
 30
0.0
 40
2.000000000000014
  0
CIRCLE
  5
CB
330
1F
100
AcDbEntity
  8
0
  6
Continuous
 62
     7
370
    35
100
AcDbCircle
 10
101.1872646975
 20
362.6320902412
 30
0.0
 40
2.000000000000014
  0
LINE
  5
CC
330
1F
100
AcDbEntity
  8
0
  6
Continuous
 62
     7
370
    35
100
AcDbLine
 10
-4.5806844949
 20
374.6320902412
 30
0.0
 11
-4.5806844949
 21
290.6320902412
 31
0.0
  0
LWPOLYLINE
  5
CD
330
1F
100
AcDbEntity
  8
0
  6
Continuous
 62
     7
370
    35
100
AcDbPolyline
 90
       26
 70
   128
 43
0.0
 10
10.1467294933
 20
332.6320902412
 10
10.085511987
 20
333.1916424873
 10
9.9057059893
 20
333.7160360079
 10
9.6186093721
 20
334.1723212295
 10
9.2422614719
 20
334.5318280736
 10
8.8003096113
 20
334.7719674028
 10
8.3205232511
 20
334.8776503801
 10
7.8330491329
 20
334.8422365553
 10
7.3685170483
 20
334.6679511092
 10
6.9561152566
 20
334.3657450374
 10
6.6217564791
 20
333.9546070588
 10
6.3864497074
 20
333.4603704847
 10
6.2649801315
 20
332.9140900167
 10
6.2649801315
 20
332.3500904657
 10
6.3864497074
 20
331.8038099976
 10
6.6217564791
 20
331.3095734235
 10
6.9561152566
 20
330.8984354449
 10
7.3685170483
 20
330.5962293731
 10
7.8330491329
 20
330.421943927
 10
8.3205232511
 20
330.3865301022
 10
8.8003096113
 20
330.4922130795
 10
9.2422614719
 20
330.7323524088
 10
9.6186093721
 20
331.0918592528
 10
9.9057059893
 20
331.5481444745
 10
10.085511987
 20
332.0725379951
 10
10.1467294933
 20
332.6320902412
  0
LWPOLYLINE
  5
CE
330
1F
100
AcDbEntity
  8
0
  6
Continuous
 62
     7
370
    35
100
AcDbPolyline
 90
       26
 70
   128
 43
0.0
 10
70.7685077582
 20
332.6320902412
 10
70.7072902519
 20
333.1916424873
 10
70.5274842542
 20
333.7160360079
 10
70.240387637
 20
334.1723212295
 10
69.8640397368
 20
334.5318280736
 10
69.4220878762
 20
334.7719674028
 10
68.942301516
 20
334.8776503801
 10
68.4548273978
 20
334.8422365553
 10
67.9902953132
 20
334.6679511092
 10
67.5778935215
 20
334.3657450374
 10
67.243534744
 20
333.9546070588
 10
67.0082279723
 20
333.4603704847
 10
66.8867583964
 20
332.9140900167
 10
66.8867583964
 20
332.3500904657
 10
67.0082279723
 20
331.8038099976
 10
67.243534744
 20
331.3095734235
 10
67.5778935215
 20
330.8984354449
 10
67.9902953132
 20
330.5962293731
 10
68.4548273978
 20
330.421943927
 10
68.942301516
 20
330.3865301022
 10
69.4220878762
 20
330.4922130795
 10
69.8640397368
 20
330.7323524088
 10
70.240387637
 20
331.0918592528
 10
70.5274842542
 20
331.5481444745
 10
70.7072902519
 20
332.0725379951
 10
70.7685077582
 20
332.6320902412
  0
LINE
  5
CF
330
1F
100
AcDbEntity
  8
0
  6
Continuous
 62
     7
370
    35
100
AcDbLine
 10
90.2590614673
 20
290.6320902412
 30
0.0
 11
-4.5806844949
 21
290.6320902412
 31
0.0
  0
LINE
  5
D0
330
1F
100
AcDbEntity
  8
0
  6
Continuous
 62
     7
370
    35
100
AcDbLine
 10
90.2590614673
 20
374.6320902412
 30
0.0
 11
-4.5806844949
 21
374.6320902412
 31
0.0
  0
LINE
  5
D1
330
1F
100
AcDbEntity
  8
0
  6
Continuous
 62
     7
370
    35
100
AcDbLine
 10
-7.3127353025
 20
374.6320902412
 30
0.0
 11
-37.6580347641
 21
374.6320902412
 31
0.0
  0
LINE
  5
D2
330
1F
100
AcDbEntity
  8
0
  6
Continuous
 62
     7
370
    35
100
AcDbLine
 10
-7.3127353025
 20
374.6320902412
 30
0.0
 11
-7.3127353025
 21
290.6320902412
 31
0.0
  0
LINE
  5
D3
330
1F
100
AcDbEntity
  8
0
  6
Continuous
 62
     7
370
    35
100
AcDbLine
 10
-7.3127353025
 20
290.6320902412
 30
0.0
 11
-37.6580347641
 21
290.6320902412
 31
0.0
  0
ARC
  5
D4
330
1F
100
AcDbEntity
  8
0
  6
Continuous
 62
     7
370
    35
100
AcDbCircle
 10
70.0618992607
 20
332.742759884
 30
0.0
 40
2.1932996866154
100
AcDbArc
 50
109.772095964
 51
182.8922619438
  0
ARC
  5
D5
330
1F
100
AcDbEntity
  8
0
  6
Continuous
 62
     7
370
    35
100
AcDbCircle
 10
70.0618992607
 20
332.5214205984
 30
0.0
 40
2.193299686615386
100
AcDbArc
 50
177.1077380562
 51
250.227904036
  0
ARC
  5
D6
330
1F
100
AcDbEntity
  8
0
  6
Continuous
 62
     7
370
    35
100
AcDbCircle
 10
9.4401209958
 20
332.742759884
 30
0.0
 40
2.193299686615986
100
AcDbArc
 50
109.772095964
 51
182.8922619438
  0
ARC
  5
D7
330
1F
100
AcDbEntity
  8
0
  6
Continuous
 62
     7
370
    35
100
AcDbCircle
 10
9.4401209958
 20
332.5214205984
 30
0.0
 40
2.193299686615337
100
AcDbArc
 50
177.1077380562
 51
250.227904036
  0
LINE
  5
D8
330
1F
100
AcDbEntity
  8
0
  6
Continuous
 62
     7
370
    35
100
AcDbLine
 10
-4.5806844949
 20
374.6320902412
 30
0.0
 11
-7.3127353025
 21
374.6320902412
 31
0.0
  0
LINE
  5
D9
330
1F
100
AcDbEntity
  8
0
  6
Continuous
 62
     7
370
    35
100
AcDbLine
 10
-4.5806844949
 20
290.6320902412
 30
0.0
 11
-7.3127353025
 21
290.6320902412
 31
0.0
  0
INSERT
  5
E5
330
1F
100
AcDbEntity
  8
0
  6
Continuous
 62
     7
370
    18
100
AcDbBlockReference
  2
SW_CENTERMARKSYMBOL_0
 10
-48.8127353025
 20
302.6320902412
 30
0.0
  0
INSERT
  5
F1
330
1F
100
AcDbEntity
  8
0
  6
Continuous
 62
     7
370
    18
100
AcDbBlockReference
  2
SW_CENTERMARKSYMBOL_1
 10
-48.8127353025
 20
362.6320902412
 30
0.0
  0
INSERT
  5
FD
330
1F
100
AcDbEntity
  8
0
  6
Continuous
 62
     7
370
    18
100
AcDbBlockReference
  2
SW_CENTERMARKSYMBOL_2
 10
101.1872646975
 20
302.6320902412
 30
0.0
  0
INSERT
  5
109
330
1F
100
AcDbEntity
  8
0
  6
Continuous
 62
     7
370
    18
100
AcDbBlockReference
  2
SW_CENTERMARKSYMBOL_3
 10
101.1872646975
 20
362.6320902412
 30
0.0
  0
LINE
  5
10A
330
1F
100
AcDbEntity
  8
0
  6
Continuous
 62
     7
370
    35
100
AcDbLine
 10
-3.5806844949
 20
275.9102183757
 30
0.0
 11
-4.5806844949
 21
274.1781675681
 31
0.0
  0
LINE
  5
10B
330
1F
100
AcDbEntity
  8
0
  6
Continuous
 62
     7
370
    35
100
AcDbLine
 10
91.2590614673
 20
221.1544655145
 30
0.0
 11
-3.5806844949
 21
275.9102183757
 31
0.0
  0
LINE
  5
10C
330
1F
100
AcDbEntity
  8
0
  6
Continuous
 62
     7
370
    35
100
AcDbLine
 10
90.2590614673
 20
219.422414707
 30
0.0
 11
91.2590614673
 21
221.1544655145
 31
0.0
  0
LINE
  5
10D
330
1F
100
AcDbEntity
  8
0
  6
Continuous
 62
     7
370
    35
100
AcDbLine
 10
90.2590614673
 20
219.422414707
 30
0.0
 11
-4.5806844949
 21
274.1781675681
 31
0.0
  0
ARC
  5
10E
330
1F
100
AcDbEntity
  8
0
  6
Continuous
 62
     7
370
    35
100
AcDbCircle
 10
-5.5806844949
 20
272.4461167605
 30
0.0
 40
2.000000000000007
100
AcDbArc
 50
60.0
 51
150.0
  0
LINE
  5
10F
330
1F
100
AcDbEntity
  8
0
  6
Continuous
 62
     7
370
    35
100
AcDbLine
 10
-7.3127353025
 20
273.4461167605
 30
0.0
 11
-9.04478611
 21
274.4461167605
 31
0.0
  0
ARC
  5
110
330
1F
100
AcDbEntity
  8
0
  6
Continuous
 62
     7
370
    35
100
AcDbCircle
 10
-5.5806844949
 20
272.4461167605
 30
0.0
 40
4.000000000000015
100
AcDbArc
 50
60.0
 51
150.0
  0
LINE
  5
111
330
1F
100
AcDbEntity
  8
0
  6
Continuous
 62
     7
370
    35
100
AcDbLine
 10
-39.3900855717
 20
221.8865163221
 30
0.0
 11
-37.6580347641
 21
220.8865163221
 31
0.0
  0
LINE
  5
112
330
1F
100
AcDbEntity
  8
0
  6
Continuous
 62
     7
370
    35
100
AcDbLine
 10
-7.3127353025
 20
273.4461167605
 30
0.0
 11
-37.6580347641
 21
220.8865163221
 31
0.0
  0
LINE
  5
113
330
1F
100
AcDbEntity
  8
0
  6
Continuous
 62
     7
370
    35
100
AcDbLine
 10
-9.04478611
 20
274.4461167605
 30
0.0
 11
-39.3900855717
 21
221.8865163221
 31
0.0
  0
ARC
  5
114
330
1F
100
AcDbEntity
  8
0
  6
Continuous
 62
     7
370
    35
100
AcDbCircle
 10
-41.1221363792
 20
222.8865163221
 30
0.0
 40
2.00000000000001
100
AcDbArc
 50
270.0
 51
330.0
  0
ARC
  5
115
330
1F
100
AcDbEntity
  8
0
  6
Continuous
 62
     7
370
    35
100
AcDbCircle
 10
-41.1221363792
 20
222.8865163221
 30
0.0
 40
4.000000000000028
100
AcDbArc
 50
270.0
 51
330.0
  0
LINE
  5
116
330
1F
100
AcDbEntity
  8
0
  6
Continuous
 62
     7
370
    35
100
AcDbLine
 10
-41.1221363792
 20
218.8865163221
 30
0.0
 11
-41.1221363792
 21
220.8865163221
 31
0.0
  0
ARC
  5
117
330
1F
100
AcDbEntity
  8
0
  6
Continuous
 62
     7
370
    35
100
AcDbCircle
 10
92.2590614673
 20
222.8865163221
 30
0.0
 40
2.000000000000016
100
AcDbArc
 50
240.0
 51
270.0
  0
LINE
  5
118
330
1F
100
AcDbEntity
  8
0
  6
Continuous
 62
     7
370
    35
100
AcDbLine
 10
92.2590614673
 20
220.8865163221
 30
0.0
 11
92.2590614673
 21
218.8865163221
 31
0.0
  0
ARC
  5
119
330
1F
100
AcDbEntity
  8
0
  6
Continuous
 62
     7
370
    35
100
AcDbCircle
 10
92.2590614673
 20
222.8865163221
 30
0.0
 40
4.0
100
AcDbArc
 50
240.0
 51
270.0
  0
LINE
  5
11A
330
1F
100
AcDbEntity
  8
0
  6
Continuous
 62
     7
370
    35
100
AcDbLine
 10
-41.1221363792
 20
218.8865163221
 30
0.0
 11
-55.8127353025
 21
218.8865163221
 31
0.0
  0
LINE
  5
11B
330
1F
100
AcDbEntity
  8
0
  6
Continuous
 62
     7
370
    35
100
AcDbLine
 10
-55.8127353025
 20
220.8865163221
 30
0.0
 11
-55.8127353025
 21
218.8865163221
 31
0.0
  0
LINE
  5
11C
330
1F
100
AcDbEntity
  8
0
  6
Continuous
 62
     7
370
    35
100
AcDbLine
 10
-41.1221363792
 20
220.8865163221
 30
0.0
 11
-55.8127353025
 21
220.8865163221
 31
0.0
  0
LINE
  5
11D
330
1F
100
AcDbEntity
  8
0
  6
Continuous
 62
     7
370
    35
100
AcDbLine
 10
108.1872646975
 20
218.8865163221
 30
0.0
 11
108.1872646975
 21
220.8865163221
 31
0.0
  0
LINE
  5
11E
330
1F
100
AcDbEntity
  8
0
  6
Continuous
 62
     7
370
    35
100
AcDbLine
 10
108.1872646975
 20
218.8865163221
 30
0.0
 11
92.2590614673
 21
218.8865163221
 31
0.0
  0
LINE
  5
11F
330
1F
100
AcDbEntity
  8
0
  6
Continuous
 62
     7
370
    35
100
AcDbLine
 10
108.1872646975
 20
220.8865163221
 30
0.0
 11
92.2590614673
 21
220.8865163221
 31
0.0
  0
LINE
  5
120
330
1F
100
AcDbEntity
  8
0
  6
Continuous
 62
     7
370
    35
100
AcDbLine
 10
111.1872646975
 20
220.8865163221
 30
0.0
 11
111.1872646975
 21
218.8865163221
 31
0.0
  0
LINE
  5
121
330
1F
100
AcDbEntity
  8
0
  6
Continuous
 62
     7
370
    35
100
AcDbLine
 10
111.1872646975
 20
218.8865163221
 30
0.0
 11
108.1872646975
 21
218.8865163221
 31
0.0
  0
LINE
  5
122
330
1F
100
AcDbEntity
  8
0
  6
Continuous
 62
     7
370
    35
100
AcDbLine
 10
108.1872646975
 20
220.8865163221
 30
0.0
 11
111.1872646975
 21
220.8865163221
 31
0.0
  0
LINE
  5
123
330
1F
100
AcDbEntity
  8
0
  6
Continuous
 62
     7
370
    35
100
AcDbLine
 10
-58.8127353025
 20
218.8865163221
 30
0.0
 11
-58.8127353025
 21
220.8865163221
 31
0.0
  0
LINE
  5
124
330
1F
100
AcDbEntity
  8
0
  6
Continuous
 62
     7
370
    35
100
AcDbLine
 10
-55.8127353025
 20
218.8865163221
 30
0.0
 11
-58.8127353025
 21
218.8865163221
 31
0.0
  0
LINE
  5
125
330
1F
100
AcDbEntity
  8
0
  6
Continuous
 62
     7
370
    35
100
AcDbLine
 10
-58.8127353025
 20
220.8865163221
 30
0.0
 11
-55.8127353025
 21
220.8865163221
 31
0.0
  0
INSERT
  5
12A
330
1F
100
AcDbEntity
  8
0
  6
Continuous
 62
     7
370
     0
100
AcDbBlockReference
  2
SW_NOTE_0_1
 10
71.3137254902
 20
259.1320404564
 30
0.0
  0
LEADER
  5
12C
330
1F
100
AcDbEntity
  8
0
  6
Continuous
 62
     7
370
     0
100
AcDbLeader
  3
SLDDIMSTYLE0
 76
     2
 10
62.7228416702
 20
237.629859696
 30
0.0
 10
71.3137254902
 20
259.1320404564
 30
0.0
  0
LINE
  5
12D
330
1F
100
AcDbEntity
  8
0
  6
Continuous
 62
     7
370
    35
100
AcDbLine
 10
130.6602757294
 20
374.6320902412
 30
0.0
 11
130.6602757294
 21
290.6320902412
 31
0.0
  0
LINE
  5
12E
330
1F
100
AcDbEntity
  8
0
  6
Continuous
 62
     7
370
    35
100
AcDbLine
 10
188.2198761678
 20
371.6320902412
 30
0.0
 11
186.2198761678
 21
371.6320902412
 31
0.0
  0
LINE
  5
12F
330
1F
100
AcDbEntity
  8
0
  6
Continuous
 62
     7
370
    35
100
AcDbLine
 10
188.2198761678
 20
371.6320902412
 30
0.0
 11
188.2198761678
 21
293.6320902412
 31
0.0
  0
LINE
  5
130
330
1F
100
AcDbEntity
  8
0
  6
Continuous
 62
     7
370
    35
100
AcDbLine
 10
186.2198761678
 20
293.6320902412
 30
0.0
 11
188.2198761678
 21
293.6320902412
 31
0.0
  0
LINE
  5
131
330
1F
100
AcDbEntity
  8
0
  6
Continuous
 62
     7
370
    35
100
AcDbLine
 10
186.2198761678
 20
371.6320902412
 30
0.0
 11
186.2198761678
 21
293.6320902412
 31
0.0
  0
LINE
  5
132
330
1F
100
AcDbEntity
  8
0
  6
Continuous
 62
     7
370
    35
100
AcDbLine
 10
186.2198761678
 20
374.6320902412
 30
0.0
 11
188.2198761678
 21
374.6320902412
 31
0.0
  0
LINE
  5
133
330
1F
100
AcDbEntity
  8
0
  6
Continuous
 62
     7
370
    35
100
AcDbLine
 10
188.2198761678
 20
374.6320902412
 30
0.0
 11
188.2198761678
 21
371.6320902412
 31
0.0
  0
LINE
  5
134
330
1F
100
AcDbEntity
  8
0
  6
Continuous
 62
     7
370
    35
100
AcDbLine
 10
186.2198761678
 20
371.6320902412
 30
0.0
 11
186.2198761678
 21
374.6320902412
 31
0.0
  0
LINE
  5
135
330
1F
100
AcDbEntity
  8
0
  6
Continuous
 62
     7
370
    35
100
AcDbLine
 10
188.2198761678
 20
290.6320902412
 30
0.0
 11
186.2198761678
 21
290.6320902412
 31
0.0
  0
LINE
  5
136
330
1F
100
AcDbEntity
  8
0
  6
Continuous
 62
     7
370
    35
100
AcDbLine
 10
188.2198761678
 20
293.6320902412
 30
0.0
 11
188.2198761678
 21
290.6320902412
 31
0.0
  0
LINE
  5
137
330
1F
100
AcDbEntity
  8
0
  6
Continuous
 62
     7
370
    35
100
AcDbLine
 10
186.2198761678
 20
290.6320902412
 30
0.0
 11
186.2198761678
 21
293.6320902412
 31
0.0
  0
LINE
  5
138
330
1F
100
AcDbEntity
  8
0
  6
Continuous
 62
     7
370
    35
100
AcDbLine
 10
185.2198761678
 20
374.6320902412
 30
0.0
 11
185.2198761678
 21
290.6320902412
 31
0.0
  0
LINE
  5
139
330
1F
100
AcDbEntity
  8
0
  6
Continuous
 62
     7
370
    35
100
AcDbLine
 10
185.2198761678
 20
374.6320902412
 30
0.0
 11
186.2198761678
 21
374.6320902412
 31
0.0
  0
LINE
  5
13A
330
1F
100
AcDbEntity
  8
0
  6
Continuous
 62
     7
370
    35
100
AcDbLine
 10
185.2198761678
 20
290.6320902412
 30
0.0
 11
186.2198761678
 21
290.6320902412
 31
0.0
  0
LINE
  5
13B
330
1F
100
AcDbEntity
  8
0
  6
Continuous
 62
     7
370
    35
100
AcDbLine
 10
132.6602757294
 20
374.6320902412
 30
0.0
 11
132.6602757294
 21
290.6320902412
 31
0.0
  0
LINE
  5
13C
330
1F
100
AcDbEntity
  8
0
  6
Continuous
 62
     7
370
    35
100
AcDbLine
 10
132.6602757294
 20
374.6320902412
 30
0.0
 11
185.2198761678
 21
374.6320902412
 31
0.0
  0
LINE
  5
13D
330
1F
100
AcDbEntity
  8
0
  6
Continuous
 62
     7
370
    35
100
AcDbLine
 10
132.6602757294
 20
290.6320902412
 30
0.0
 11
185.2198761678
 21
290.6320902412
 31
0.0
  0
LINE
  5
13E
330
1F
100
AcDbEntity
  8
0
  6
Continuous
 62
     7
370
    35
100
AcDbLine
 10
130.6602757294
 20
374.6320902412
 30
0.0
 11
132.6602757294
 21
374.6320902412
 31
0.0
  0
LINE
  5
13F
330
1F
100
AcDbEntity
  8
0
  6
Continuous
 62
     7
370
    35
100
AcDbLine
 10
130.6602757294
 20
290.6320902412
 30
0.0
 11
132.6602757294
 21
290.6320902412
 31
0.0
  0
LINE
  5
140
330
1F
100
AcDbEntity
  8
0
  6
CENTERX2
 62
     7
100
AcDbLine
 10
-28.907139167
 20
204.5061801498
 30
0.0
 11
-28.907139167
 21
120.5061801498
 31
0.0
  0
LINE
  5
141
330
1F
100
AcDbEntity
  8
0
  6
CENTERX2
 62
     7
100
AcDbLine
 10
-141.0869042497
 20
204.5061801498
 30
0.0
 11
-141.0869042497
 21
120.5061801498
 31
0.0
  0
LINE
  5
142
330
1F
100
AcDbEntity
  8
0
  6
CENTERX2
 62
     7
100
AcDbLine
 10
-205.1128273735
 20
204.5061801498
 30
0.0
 11
-205.1128273735
 21
120.5061801498
 31
0.0
  0
CIRCLE
  5
143
330
1F
100
AcDbEntity
  8
0
  6
Continuous
 62
     7
370
    35
100
AcDbCircle
 10
-214.137555977
 20
132.5061801498
 30
0.0
 40
1.999999999999972
  0
CIRCLE
  5
144
330
1F
100
AcDbEntity
  8
0
  6
Continuous
 62
     7
370
    35
100
AcDbCircle
 10
-214.137555977
 20
192.5061801498
 30
0.0
 40
1.999999999999972
  0
CIRCLE
  5
145
330
1F
100
AcDbEntity
  8
0
  6
Continuous
 62
     7
370
    35
100
AcDbCircle
 10
-19.3118710966
 20
132.5061801498
 30
0.0
 40
1.999999999999989
  0
CIRCLE
  5
146
330
1F
100
AcDbEntity
  8
0
  6
Continuous
 62
     7
370
    35
100
AcDbCircle
 10
-19.3118710966
 20
192.5061801498
 30
0.0
 40
1.999999999999989
  0
CIRCLE
  5
147
330
1F
100
AcDbEntity
  8
0
  6
Continuous
 62
     7
370
    35
100
AcDbCircle
 10
-124.3299568682
 20
162.5061801498
 30
0.0
 40
2.25
  0
CIRCLE
  5
148
330
1F
100
AcDbEntity
  8
0
  6
Continuous
 62
     7
370
    35
100
AcDbCircle
 10
-54.3299568682
 20
162.5061801498
 30
0.0
 40
2.249999999999986
  0
ARC
  5
149
330
1F
100
AcDbEntity
  8
0
  6
Continuous
 62
     7
370
    35
100
AcDbCircle
 10
-221.137555977
 20
123.5061801498
 30
0.0
 40
3.000000000000014
100
AcDbArc
 50
180.0
 51
270.0
  0
LINE
  5
14A
330
1F
100
AcDbEntity
  8
0
  6
Continuous
 62
     7
370
    35
100
AcDbLine
 10
-224.137555977
 20
201.5061801498
 30
0.0
 11
-224.137555977
 21
123.5061801498
 31
0.0
  0
ARC
  5
14B
330
1F
100
AcDbEntity
  8
0
  6
Continuous
 62
     7
370
    35
100
AcDbCircle
 10
-221.137555977
 20
201.5061801498
 30
0.0
 40
3.0
100
AcDbArc
 50
90.0
 51
180.0
  0
LINE
  5
14C
330
1F
100
AcDbEntity
  8
0
  6
Continuous
 62
     7
370
    35
100
AcDbLine
 10
-12.3118710966
 20
204.5061801498
 30
0.0
 11
-221.137555977
 21
204.5061801498
 31
0.0
  0
ARC
  5
14D
330
1F
100
AcDbEntity
  8
0
  6
Continuous
 62
     7
370
    35
100
AcDbCircle
 10
-12.3118710966
 20
201.5061801498
 30
0.0
 40
3.0
100
AcDbArc
 50
0.0
 51
90.0
  0
LINE
  5
14E
330
1F
100
AcDbEntity
  8
0
  6
Continuous
 62
     7
370
    35
100
AcDbLine
 10
-9.3118710966
 20
201.5061801498
 30
0.0
 11
-9.3118710966
 21
123.5061801498
 31
0.0
  0
ARC
  5
14F
330
1F
100
AcDbEntity
  8
0
  6
Continuous
 62
     7
370
    35
100
AcDbCircle
 10
-12.3118710966
 20
123.5061801498
 30
0.0
 40
3.000000000000014
100
AcDbArc
 50
270.0
 51
0.0
  0
LINE
  5
150
330
1F
100
AcDbEntity
  8
0
  6
Continuous
 62
     7
370
    35
100
AcDbLine
 10
-12.3118710966
 20
120.5061801498
 30
0.0
 11
-221.137555977
 21
120.5061801498
 31
0.0
  0
MTEXT
  5
152
330
1F
100
AcDbEntity
  8
0
  6
Continuous
 62
     7
370
    18
100
AcDbMText
 10
-32.8184599598
 20
161.6051379418
 30
0.0
 40
3.0
 41
0.0
 71
     2
 72
     1
  1
DOWN  30.00°  R 2
  7
SLDTEXTSTYLE1
 11
-3.491481338843133E-15
 21
1.0
 31
0.0
 73
     1
 44
1.0
  0
MTEXT
  5
154
330
1F
100
AcDbEntity
  8
0
  6
Continuous
 62
     7
370
    18
100
AcDbMText
 10
-144.9982250425
 20
161.6540958037
 30
0.0
 40
3.0
 41
0.0
 71
     2
 72
     1
  1
UP  90.00°  R 2
  7
SLDTEXTSTYLE2
 11
-3.491481338843133E-15
 21
1.0
 31
0.0
 73
     1
 44
1.0
  0
MTEXT
  5
155
330
1F
100
AcDbEntity
  8
0
  6
Continuous
 62
     7
370
    18
100
AcDbMText
 10
-209.0241481663
 20
161.6051379418
 30
0.0
 40
3.0
 41
0.0
 71
     2
 72
     1
  1
DOWN  60.00°  R 2
  7
SLDTEXTSTYLE1
 11
-3.491481338843133E-15
 21
1.0
 31
0.0
 73
     1
 44
1.0
  0
ENDSEC
  0
SECTION
  2
OBJECTS
  0
DICTIONARY
  5
C
330
0
100
AcDbDictionary
281
     1
  3
ACAD_GROUP
350
D
  3
ACAD_LAYOUT
350
1A
  3
ACAD_MLINESTYLE
350
17
  3
ACAD_PLOTSETTINGS
350
19
  3
ACAD_PLOTSTYLENAME
350
E
  3
ACAD_SCALELIST
350
47
  3
DWGPROPS
350
156
  0
DICTIONARY
  5
D
102
{ACAD_REACTORS
330
C
102
}
330
C
100
AcDbDictionary
281
     1
  0
DICTIONARY
  5
1A
102
{ACAD_REACTORS
330
C
102
}
330
C
100
AcDbDictionary
281
     1
  3
Layout1
350
1E
  3
Layout2
350
26
  3
Model
350
22
  0
DICTIONARY
  5
17
102
{ACAD_REACTORS
330
C
102
}
330
C
100
AcDbDictionary
281
     1
  3
Standard
350
18
  0
DICTIONARY
  5
19
102
{ACAD_REACTORS
330
C
102
}
330
C
100
AcDbDictionary
281
     1
  0
ACDBDICTIONARYWDFLT
  5
E
102
{ACAD_REACTORS
330
C
102
}
330
C
100
AcDbDictionary
281
     1
  3
Normal
350
F
100
AcDbDictionaryWithDefault
340
F
  0
DICTIONARY
  5
47
102
{ACAD_REACTORS
330
C
102
}
330
C
100
AcDbDictionary
281
     1
  3
A0
350
48
  3
A1
350
49
  3
A2
350
4A
  3
A3
350
4B
  3
A4
350
4C
  3
A5
350
4D
  3
A6
350
4E
  3
A7
350
4F
  3
A8
350
50
  3
A9
350
51
  3
B0
350
52
  3
B1
350
53
  3
B2
350
54
  3
B3
350
55
  3
B4
350
56
  3
B5
350
57
  3
B6
350
58
  3
B7
350
59
  3
B8
350
5A
  3
B9
350
5B
  3
C0
350
5C
  3
C1
350
5D
  3
C2
350
5E
  3
C3
350
5F
  3
C4
350
60
  3
C5
350
61
  3
C6
350
62
  3
C7
350
63
  3
C8
350
64
  3
C9
350
65
  3
D0
350
66
  3
D1
350
67
  3
D2
350
68
  0
XRECORD
  5
156
102
{ACAD_REACTORS
330
C
102
}
330
C
100
AcDbXrecord
280
     1
  1
DWGPROPS COOKIE
  2

  3

  4

  6

  7

  8
K9
  9

300
=
301
=
302
=
303
=
304
=
305
=
306
=
307
=
308
=
309
=
 40
0.0
 41
2459832.411961759
 42
2459832.411962327
  1

 90
        0
  0
LAYOUT
  5
1E
102
{ACAD_REACTORS
330
1A
102
}
330
1A
100
AcDbPlotSettings
  1

  2
none_device
  4

  6

 40
0.0
 41
0.0
 42
0.0
 43
0.0
 44
0.0
 45
0.0
 46
0.0
 47
0.0
 48
0.0
 49
0.0
140
0.0
141
0.0
142
1.0
143
1.0
 70
   688
 72
     1
 73
     0
 74
     5
  7

 75
    16
147
1.0
148
0.0
149
0.0
100
AcDbLayout
  1
Layout1
 70
     1
 71
     1
 10
0.0
 20
0.0
 11
420.0
 21
297.0
 12
0.0
 22
0.0
 32
0.0
 14
1.0000000000E+20
 24
1.0000000000E+20
 34
1.0000000000E+20
 15
-1.0000000000E+20
 25
-1.0000000000E+20
 35
-1.0000000000E+20
146
0.0
 13
0.0
 23
0.0
 33
0.0
 16
1.0
 26
0.0
 36
0.0
 17
0.0
 27
1.0
 37
0.0
 76
     0
330
1B
  0
LAYOUT
  5
26
102
{ACAD_REACTORS
330
1A
102
}
330
1A
100
AcDbPlotSettings
  1

  2
none_device
  4

  6

 40
0.0
 41
0.0
 42
0.0
 43
0.0
 44
0.0
 45
0.0
 46
0.0
 47
0.0
 48
0.0
 49
0.0
140
0.0
141
0.0
142
1.0
143
1.0
 70
   688
 72
     1
 73
     0
 74
     5
  7

 75
    16
147
1.0
148
0.0
149
0.0
100
AcDbLayout
  1
Layout2
 70
     1
 71
     2
 10
0.0
 20
0.0
 11
0.0
 21
0.0
 12
0.0
 22
0.0
 32
0.0
 14
0.0
 24
0.0
 34
0.0
 15
0.0
 25
0.0
 35
0.0
146
0.0
 13
0.0
 23
0.0
 33
0.0
 16
1.0
 26
0.0
 36
0.0
 17
0.0
 27
1.0
 37
0.0
 76
     0
330
23
  0
LAYOUT
  5
22
102
{ACAD_REACTORS
330
1A
102
}
330
1A
100
AcDbPlotSettings
  1

  2
none_device
  4
Letter_(8.50_x_11.00_Inches)
  6

 40
6.35
 41
6.35
 42
6.35000508
 43
6.35000508
 44
215.9
 45
279.4
 46
0.0
 47
0.0
 48
0.0
 49
0.0
140
0.0
141
0.0
142
1.0
143
1.0
 70
  1712
 72
     1
 73
     0
 74
     0
  7

 75
     0
147
1.0
148
0.0
149
0.0
100
AcDbLayout
  1
Model
 70
     1
 71
     0
 10
0.0
 20
0.0
 11
297.0
 21
210.0
 12
0.0
 22
0.0
 32
0.0
 14
0.0
 24
0.0
 34
0.0
 15
297.0
 25
210.0
 35
0.0
146
0.0
 13
0.0
 23
0.0
 33
0.0
 16
1.0
 26
0.0
 36
0.0
 17
0.0
 27
1.0
 37
0.0
 76
     0
330
1F
331
29
  0
MLINESTYLE
  5
18
102
{ACAD_REACTORS
330
17
102
}
330
17
100
AcDbMlineStyle
  2
Standard
 70
     0
  3

 62
   256
 51
90.0
 52
90.0
 71
     2
 49
0.5
 62
   256
  6
BYLAYER
 49
-0.5
 62
   256
  6
BYLAYER
  0
ACDBPLACEHOLDER
  5
F
102
{ACAD_REACTORS
330
E
102
}
330
E
  0
SCALE
  5
48
102
{ACAD_REACTORS
330
47
102
}
330
47
100
AcDbScale
 70
     0
300
1:1
140
1.0
141
1.0
290
     1
  0
SCALE
  5
49
102
{ACAD_REACTORS
330
47
102
}
330
47
100
AcDbScale
 70
     0
300
1:2
140
1.0
141
2.0
290
     0
  0
SCALE
  5
4A
102
{ACAD_REACTORS
330
47
102
}
330
47
100
AcDbScale
 70
     0
300
1:4
140
1.0
141
4.0
290
     0
  0
SCALE
  5
4B
102
{ACAD_REACTORS
330
47
102
}
330
47
100
AcDbScale
 70
     0
300
1:5
140
1.0
141
5.0
290
     0
  0
SCALE
  5
4C
102
{ACAD_REACTORS
330
47
102
}
330
47
100
AcDbScale
 70
     0
300
1:8
140
1.0
141
8.0
290
     0
  0
SCALE
  5
4D
102
{ACAD_REACTORS
330
47
102
}
330
47
100
AcDbScale
 70
     0
300
1:10
140
1.0
141
10.0
290
     0
  0
SCALE
  5
4E
102
{ACAD_REACTORS
330
47
102
}
330
47
100
AcDbScale
 70
     0
300
1:16
140
1.0
141
16.0
290
     0
  0
SCALE
  5
4F
102
{ACAD_REACTORS
330
47
102
}
330
47
100
AcDbScale
 70
     0
300
1:20
140
1.0
141
20.0
290
     0
  0
SCALE
  5
50
102
{ACAD_REACTORS
330
47
102
}
330
47
100
AcDbScale
 70
     0
300
1:30
140
1.0
141
30.0
290
     0
  0
SCALE
  5
51
102
{ACAD_REACTORS
330
47
102
}
330
47
100
AcDbScale
 70
     0
300
1:40
140
1.0
141
40.0
290
     0
  0
SCALE
  5
52
102
{ACAD_REACTORS
330
47
102
}
330
47
100
AcDbScale
 70
     0
300
1:50
140
1.0
141
50.0
290
     0
  0
SCALE
  5
53
102
{ACAD_REACTORS
330
47
102
}
330
47
100
AcDbScale
 70
     0
300
1:100
140
1.0
141
100.0
290
     0
  0
SCALE
  5
54
102
{ACAD_REACTORS
330
47
102
}
330
47
100
AcDbScale
 70
     0
300
2:1
140
2.0
141
1.0
290
     0
  0
SCALE
  5
55
102
{ACAD_REACTORS
330
47
102
}
330
47
100
AcDbScale
 70
     0
300
4:1
140
4.0
141
1.0
290
     0
  0
SCALE
  5
56
102
{ACAD_REACTORS
330
47
102
}
330
47
100
AcDbScale
 70
     0
300
8:1
140
8.0
141
1.0
290
     0
  0
SCALE
  5
57
102
{ACAD_REACTORS
330
47
102
}
330
47
100
AcDbScale
 70
     0
300
10:1
140
10.0
141
1.0
290
     0
  0
SCALE
  5
58
102
{ACAD_REACTORS
330
47
102
}
330
47
100
AcDbScale
 70
     0
300
100:1
140
100.0
141
1.0
290
     0
  0
SCALE
  5
59
102
{ACAD_REACTORS
330
47
102
}
330
47
100
AcDbScale
 70
     0
300
1/128" = 1'-0"
140
0.0078125
141
12.0
290
     0
  0
SCALE
  5
5A
102
{ACAD_REACTORS
330
47
102
}
330
47
100
AcDbScale
 70
     0
300
1/64" = 1'-0"
140
0.015625
141
12.0
290
     0
  0
SCALE
  5
5B
102
{ACAD_REACTORS
330
47
102
}
330
47
100
AcDbScale
 70
     0
300
1/32" = 1'-0"
140
0.03125
141
12.0
290
     0
  0
SCALE
  5
5C
102
{ACAD_REACTORS
330
47
102
}
330
47
100
AcDbScale
 70
     0
300
1/16" = 1'-0"
140
0.0625
141
12.0
290
     0
  0
SCALE
  5
5D
102
{ACAD_REACTORS
330
47
102
}
330
47
100
AcDbScale
 70
     0
300
3/32" = 1'-0"
140
0.09375
141
12.0
290
     0
  0
SCALE
  5
5E
102
{ACAD_REACTORS
330
47
102
}
330
47
100
AcDbScale
 70
     0
300
1/8" = 1'-0"
140
0.125
141
12.0
290
     0
  0
SCALE
  5
5F
102
{ACAD_REACTORS
330
47
102
}
330
47
100
AcDbScale
 70
     0
300
3/16" = 1'-0"
140
0.1875
141
12.0
290
     0
  0
SCALE
  5
60
102
{ACAD_REACTORS
330
47
102
}
330
47
100
AcDbScale
 70
     0
300
1/4" = 1'-0"
140
0.25
141
12.0
290
     0
  0
SCALE
  5
61
102
{ACAD_REACTORS
330
47
102
}
330
47
100
AcDbScale
 70
     0
300
3/8" = 1'-0"
140
0.375
141
12.0
290
     0
  0
SCALE
  5
62
102
{ACAD_REACTORS
330
47
102
}
330
47
100
AcDbScale
 70
     0
300
1/2" = 1'-0"
140
0.5
141
12.0
290
     0
  0
SCALE
  5
63
102
{ACAD_REACTORS
330
47
102
}
330
47
100
AcDbScale
 70
     0
300
3/4" = 1'-0"
140
0.75
141
12.0
290
     0
  0
SCALE
  5
64
102
{ACAD_REACTORS
330
47
102
}
330
47
100
AcDbScale
 70
     0
300
1" = 1'-0"
140
1.0
141
12.0
290
     0
  0
SCALE
  5
65
102
{ACAD_REACTORS
330
47
102
}
330
47
100
AcDbScale
 70
     0
300
1-1/2" = 1'-0"
140
1.5
141
12.0
290
     0
  0
SCALE
  5
66
102
{ACAD_REACTORS
330
47
102
}
330
47
100
AcDbScale
 70
     0
300
3" = 1'-0"
140
3.0
141
12.0
290
     0
  0
SCALE
  5
67
102
{ACAD_REACTORS
330
47
102
}
330
47
100
AcDbScale
 70
     0
300
6" = 1'-0"
140
6.0
141
12.0
290
     0
  0
SCALE
  5
68
102
{ACAD_REACTORS
330
47
102
}
330
47
100
AcDbScale
 70
     0
300
1'-0" = 1'-0"
140
12.0
141
12.0
290
     0
  0
ENDSEC
  0
EOF