  0
SECTION
  2
HEADER
  9
$ACADVER
  1
AC1015
  9
$ACADMAINTVER
 70
     6
  9
$DWGCODEPAGE
  3
ANSI_1254
  9
$INSBASE
 10
0.0
 20
0.0
 30
0.0
  9
$EXTMIN
 10
0.0
 20
0.0
 30
0.0
  9
$EXTMAX
 10
297.0
 20
210.0
 30
0.0
  9
$LIMMIN
 10
0.0
 20
0.0
  9
$LIMMAX
 10
297.0
 20
210.0
  9
$ORTHOMODE
 70
     0
  9
$REGENMODE
 70
     1
  9
$FILLMODE
 70
     1
  9
$QTEXTMODE
 70
     0
  9
$MIRRTEXT
 70
     1
  9
$LTSCALE
 40
1.0
  9
$ATTMODE
 70
     1
  9
$TEXTSIZE
 40
3.5277777778
  9
$TRACEWID
 40
1.0
  9
$TEXTSTYLE
  7
Standard
  9
$CLAYER
  8
0
  9
$CELTYPE
  6
ByLayer
  9
$CECOLOR
 62
   256
  9
$CELTSCALE
 40
1.0
  9
$DISPSILH
 70
     0
  9
$DIMSCALE
 40
1.0
  9
$DIMASZ
 40
2.0
  9
$DIMEXO
 40
1.0
  9
$DIMDLI
 40
3.75
  9
$DIMRND
 40
0.0
  9
$DIMDLE
 40
0.0
  9
$DIMEXE
 40
1.0
  9
$DIMTP
 40
0.0
  9
$DIMTM
 40
0.0
  9
$DIMTXT
 40
3.8805555556
  9
$DIMCEN
 40
2.5
  9
$DIMTSZ
 40
0.0
  9
$DIMTOL
 70
     0
  9
$DIMLIM
 70
     0
  9
$DIMTIH
 70
     1
  9
$DIMTOH
 70
     1
  9
$DIMSE1
 70
     0
  9
$DIMSE2
 70
     0
  9
$DIMTAD
 70
     1
  9
$DIMZIN
 70
     0
  9
$DIMBLK
  1

  9
$DIMASO
 70
     1
  9
$DIMSHO
 70
     1
  9
$DIMPOST
  1

  9
$DIMAPOST
  1

  9
$DIMALT
 70
     0
  9
$DIMALTD
 70
     3
  9
$DIMALTF
 40
0.0393700787
  9
$DIMLFAC
 40
1.0
  9
$DIMTOFL
 70
     1
  9
$DIMTVP
 40
0.0
  9
$DIMTIX
 70
     0
  9
$DIMSOXD
 70
     0
  9
$DIMSAH
 70
     0
  9
$DIMBLK1
  1

  9
$DIMBLK2
  1

  9
$DIMSTYLE
  2
ISO-25
  9
$DIMCLRD
 70
     0
  9
$DIMCLRE
 70
     0
  9
$DIMCLRT
 70
     0
  9
$DIMTFAC
 40
1.0
  9
$DIMGAP
 40
1.524
  9
$DIMJUST
 70
     0
  9
$DIMSD1
 70
     0
  9
$DIMSD2
 70
     0
  9
$DIMTOLJ
 70
     0
  9
$DIMTZIN
 70
     0
  9
$DIMALTZ
 70
     0
  9
$DIMALTTZ
 70
     0
  9
$DIMUPT
 70
     0
  9
$DIMDEC
 70
     2
  9
$DIMTDEC
 70
     2
  9
$DIMALTU
 70
     2
  9
$DIMALTTD
 70
     3
  9
$DIMTXSTY
  7
Standard
  9
$DIMAUNIT
 70
     0
  9
$DIMADEC
 70
     2
  9
$DIMALTRND
 40
0.0
  9
$DIMAZIN
 70
     0
  9
$DIMDSEP
 70
    44
  9
$DIMATFIT
 70
     3
  9
$DIMFRAC
 70
     0
  9
$DIMLDRBLK
  1

  9
$DIMLUNIT
 70
     2
  9
$DIMLWD
 70
    -2
  9
$DIMLWE
 70
    -2
  9
$DIMTMOVE
 70
     0
  9
$LUNITS
 70
     2
  9
$LUPREC
 70
     3
  9
$SKETCHINC
 40
1.0
  9
$FILLETRAD
 40
0.0
  9
$AUNITS
 70
     1
  9
$AUPREC
 70
     2
  9
$MENU
  1
.
  9
$ELEVATION
 40
0.0
  9
$PELEVATION
 40
0.0
  9
$THICKNESS
 40
0.0
  9
$LIMCHECK
 70
     0
  9
$CHAMFERA
 40
0.0
  9
$CHAMFERB
 40
0.0
  9
$CHAMFERC
 40
0.0
  9
$CHAMFERD
 40
0.0
  9
$SKPOLY
 70
     0
  9
$TDCREATE
 40
2460072.960432026
  9
$TDUCREATE
 40
2460072.835432026
  9
$TDUPDATE
 40
2460072.960433333
  9
$TDUUPDATE
 40
2460072.835433333
  9
$TDINDWG
 40
0.0000000116
  9
$TDUSRTIMER
 40
0.0000000116
  9
$USRTIMER
 70
     1
  9
$ANGBASE
 50
0.0
  9
$ANGDIR
 70
     0
  9
$PDMODE
 70
     0
  9
$PDSIZE
 40
-1.0
  9
$PLINEWID
 40
0.0
  9
$SPLFRAME
 70
     0
  9
$SPLINETYPE
 70
     6
  9
$SPLINESEGS
 70
     8
  9
$HANDSEED
  5
22D
  9
$SURFTAB1
 70
     6
  9
$SURFTAB2
 70
     6
  9
$SURFTYPE
 70
     6
  9
$SURFU
 70
     6
  9
$SURFV
 70
     6
  9
$UCSBASE
  2

  9
$UCSNAME
  2

  9
$UCSORG
 10
0.0
 20
0.0
 30
0.0
  9
$UCSXDIR
 10
1.0
 20
0.0
 30
0.0
  9
$UCSYDIR
 10
0.0
 20
1.0
 30
0.0
  9
$UCSORTHOREF
  2

  9
$UCSORTHOVIEW
 70
     0
  9
$UCSORGTOP
 10
0.0
 20
0.0
 30
0.0
  9
$UCSORGBOTTOM
 10
0.0
 20
0.0
 30
0.0
  9
$UCSORGLEFT
 10
0.0
 20
0.0
 30
0.0
  9
$UCSORGRIGHT
 10
0.0
 20
0.0
 30
0.0
  9
$UCSORGFRONT
 10
0.0
 20
0.0
 30
0.0
  9
$UCSORGBACK
 10
0.0
 20
0.0
 30
0.0
  9
$PUCSBASE
  2

  9
$PUCSNAME
  2

  9
$PUCSORG
 10
0.0
 20
0.0
 30
0.0
  9
$PUCSXDIR
 10
1.0
 20
0.0
 30
0.0
  9
$PUCSYDIR
 10
0.0
 20
1.0
 30
0.0
  9
$PUCSORTHOREF
  2

  9
$PUCSORTHOVIEW
 70
     0
  9
$PUCSORGTOP
 10
0.0
 20
0.0
 30
0.0
  9
$PUCSORGBOTTOM
 10
0.0
 20
0.0
 30
0.0
  9
$PUCSORGLEFT
 10
0.0
 20
0.0
 30
0.0
  9
$PUCSORGRIGHT
 10
0.0
 20
0.0
 30
0.0
  9
$PUCSORGFRONT
 10
0.0
 20
0.0
 30
0.0
  9
$PUCSORGBACK
 10
0.0
 20
0.0
 30
0.0
  9
$USERI1
 70
     0
  9
$USERI2
 70
     0
  9
$USERI3
 70
     0
  9
$USERI4
 70
     0
  9
$USERI5
 70
     0
  9
$USERR1
 40
0.0
  9
$USERR2
 40
0.0
  9
$USERR3
 40
0.0
  9
$USERR4
 40
0.0
  9
$USERR5
 40
0.0
  9
$WORLDVIEW
 70
     1
  9
$SHADEDGE
 70
     3
  9
$SHADEDIF
 70
    70
  9
$TILEMODE
 70
     1
  9
$MAXACTVP
 70
    64
  9
$PINSBASE
 10
0.0
 20
0.0
 30
0.0
  9
$PLIMCHECK
 70
     0
  9
$PEXTMIN
 10
1.0000000000E+20
 20
1.0000000000E+20
 30
1.0000000000E+20
  9
$PEXTMAX
 10
-1.0000000000E+20
 20
-1.0000000000E+20
 30
-1.0000000000E+20
  9
$PLIMMIN
 10
0.0
 20
0.0
  9
$PLIMMAX
 10
420.0
 20
297.0
  9
$UNITMODE
 70
     0
  9
$VISRETAIN
 70
     1
  9
$PLINEGEN
 70
     0
  9
$PSLTSCALE
 70
     1
  9
$TREEDEPTH
 70
  3020
  9
$CMLSTYLE
  2
Standard
  9
$CMLJUST
 70
     0
  9
$CMLSCALE
 40
20.0
  9
$PROXYGRAPHICS
 70
     1
  9
$MEASUREMENT
 70
     1
  9
$CELWEIGHT
370
    -1
  9
$ENDCAPS
280
     0
  9
$JOINSTYLE
280
     0
  9
$LWDISPLAY
290
     1
  9
$INSUNITS
 70
     4
  9
$HYPERLINKBASE
  1

  9
$STYLESHEET
  1

  9
$XEDIT
290
     1
  9
$CEPSNTYPE
380
     0
  9
$PSTYLEMODE
290
     1
  9
$FINGERPRINTGUID
  2
{9c68d5c9-4e69-4aa8-9be4-55f9da075c5f}
  9
$VERSIONGUID
  2
{FAEB1C32-E019-11D5-929B-00C0DF256EC4}
  9
$EXTNAMES
290
     1
  9
$PSVPSCALE
 40
0.0
  9
$OLESTARTUP
290
     0
  0
ENDSEC
  0
SECTION
  2
CLASSES
  0
CLASS
  1
ACDBDICTIONARYWDFLT
  2
AcDbDictionaryWithDefault
  3
ObjectDBX Classes
 90
        0
280
     0
281
     0
  0
CLASS
  1
VISUALSTYLE
  2
AcDbVisualStyle
  3
ObjectDBX Classes
 90
     4095
280
     0
281
     0
  0
CLASS
  1
MATERIAL
  2
AcDbMaterial
  3
ObjectDBX Classes
 90
     1153
280
     0
281
     0
  0
CLASS
  1
SCALE
  2
AcDbScale
  3
ObjectDBX Classes
 90
     1153
280
     0
281
     0
  0
CLASS
  1
TABLESTYLE
  2
AcDbTableStyle
  3
ObjectDBX Classes
 90
     4095
280
     0
281
     0
  0
CLASS
  1
MLEADERSTYLE
  2
AcDbMLeaderStyle
  3
ACDB_MLEADERSTYLE_CLASS
 90
     4095
280
     0
281
     0
  0
CLASS
  1
SUN
  2
AcDbSun
  3
SCENEOE
 90
     1153
280
     0
281
     0
  0
CLASS
  1
ACDBPLACEHOLDER
  2
AcDbPlaceHolder
  3
ObjectDBX Classes
 90
        0
280
     0
281
     0
  0
CLASS
  1
LAYOUT
  2
AcDbLayout
  3
ObjectDBX Classes
 90
        0
280
     0
281
     0
  0
ENDSEC
  0
SECTION
  2
TABLES
  0
TABLE
  2
VPORT
  5
8
330
0
100
AcDbSymbolTable
 70
     1
  0
VPORT
  5
29
330
8
100
AcDbSymbolTableRecord
100
AcDbViewportTableRecord
  2
*Active
 70
     0
 10
0.0
 20
0.0
 11
1.0
 21
1.0
 12
148.5
 22
105.0
 13
0.0
 23
0.0
 14
10.0
 24
10.0
 15
10.0
 25
10.0
 16
0.0
 26
0.0
 36
1.0
 17
0.0
 27
0.0
 37
0.0
 40
210.0
 41
1.4142857143
 42
50.0
 43
0.0
 44
0.0
 50
0.0
 51
0.0
 71
     0
 72
  2000
 73
     1
 74
     3
 75
     0
 76
     0
 77
     0
 78
     0
281
     0
 65
     1
110
0.0
120
0.0
130
0.0
111
1.0
121
0.0
131
0.0
112
0.0
122
1.0
132
0.0
 79
     0
146
0.0
  0
ENDTAB
  0
TABLE
  2
LTYPE
  5
5
330
0
100
AcDbSymbolTable
 70
     6
  0
LTYPE
  5
14
330
5
100
AcDbSymbolTableRecord
100
AcDbLinetypeTableRecord
  2
ByBlock
 70
     0
  3

 72
    65
 73
     0
 40
0.0
  0
LTYPE
  5
15
330
5
100
AcDbSymbolTableRecord
100
AcDbLinetypeTableRecord
  2
ByLayer
 70
     0
  3

 72
    65
 73
     0
 40
0.0
  0
LTYPE
  5
16
330
5
100
AcDbSymbolTableRecord
100
AcDbLinetypeTableRecord
  2
Continuous
 70
     0
  3
Solid line
 72
    65
 73
     0
 40
0.0
  0
LTYPE
  5
5E
330
5
100
AcDbSymbolTableRecord
100
AcDbLinetypeTableRecord
  2
HIDDEN
 70
     0
  3
Hidden __ __ __ __ __ __ __ __ __ __ __ __ __ __
 72
    65
 73
     2
 40
1.905
 49
1.27
 74
     0
 49
-0.635
 74
     0
  0
LTYPE
  5
5F
330
5
100
AcDbSymbolTableRecord
100
AcDbLinetypeTableRecord
  2
PHANTOM
 70
     0
  3
Phantom ______  __  __  ______  __  __  ______
 72
    65
 73
     6
 40
12.7
 49
6.35
 74
     0
 49
-1.27
 74
     0
 49
1.27
 74
     0
 49
-1.27
 74
     0
 49
1.27
 74
     0
 49
-1.27
 74
     0
  0
LTYPE
  5
60
330
5
100
AcDbSymbolTableRecord
100
AcDbLinetypeTableRecord
  2
CENTER
 70
     0
  3
Center ____ _ ____ _ ____ _ ____ _ ____ _ ____
 72
    65
 73
     4
 40
10.16
 49
6.35
 74
     0
 49
-1.27
 74
     0
 49
1.27
 74
     0
 49
-1.27
 74
     0
  0
LTYPE
  5
61
330
5
100
AcDbSymbolTableRecord
100
AcDbLinetypeTableRecord
  2
CENTERX2
 70
     0
  3
Center (2x) ________  __  ________  __  _____
 72
    65
 73
     4
 40
20.32
 49
12.7
 74
     0
 49
-2.54
 74
     0
 49
2.54
 74
     0
 49
-2.54
 74
     0
  0
LTYPE
  5
62
330
5
100
AcDbSymbolTableRecord
100
AcDbLinetypeTableRecord
  2
DOT2
 70
     0
  3
Dot (.5x) ........................................
 72
    65
 73
     2
 40
0.635
 49
0.0
 74
     0
 49
-0.635
 74
     0
  0
ENDTAB
  0
TABLE
  2
LAYER
  5
2
330
0
100
AcDbSymbolTable
 70
     1
  0
LAYER
  5
10
330
2
100
AcDbSymbolTableRecord
100
AcDbLayerTableRecord
  2
0
 70
     0
 62
     7
  6
Continuous
370
    -3
390
F
  0
ENDTAB
  0
TABLE
  2
STYLE
  5
3
330
0
100
AcDbSymbolTable
 70
     3
  0
STYLE
  5
11
330
3
100
AcDbSymbolTableRecord
100
AcDbTextStyleTableRecord
  2
Standard
 70
     0
 40
0.0
 41
1.0
 50
0.0
 71
     0
 42
3.5277777778
  3
txt
  4

  0
STYLE
  5
19B
330
3
100
AcDbSymbolTableRecord
100
AcDbTextStyleTableRecord
  2
SLDTEXTSTYLE0
 70
     0
 40
0.0
 41
0.605
 50
0.0
 71
     0
 42
3.5277777778
  3
TXT
  4

  0
STYLE
  5
21D
330
3
100
AcDbSymbolTableRecord
100
AcDbTextStyleTableRecord
  2
SLDTEXTSTYLE1
 70
     0
 40
0.0
 41
0.5741176471
 50
0.0
 71
     0
 42
3.5277777778
  3
TXT
  4

  0
ENDTAB
  0
TABLE
  2
VIEW
  5
6
330
0
100
AcDbSymbolTable
 70
     0
  0
ENDTAB
  0
TABLE
  2
UCS
  5
7
330
0
100
AcDbSymbolTable
 70
     0
  0
ENDTAB
  0
TABLE
  2
APPID
  5
9
330
0
100
AcDbSymbolTable
 70
     1
  0
APPID
  5
12
330
9
100
AcDbSymbolTableRecord
100
AcDbRegAppTableRecord
  2
ACAD
 70
     0
  0
ENDTAB
  0
TABLE
  2
DIMSTYLE
  5
A
330
0
100
AcDbSymbolTable
 70
     3
100
AcDbDimStyleTable
  0
DIMSTYLE
105
27
330
A
100
AcDbSymbolTableRecord
100
AcDbDimStyleTableRecord
  2
ISO-25
 70
     0
 41
2.5
 42
0.625
 43
3.75
 44
1.25
 73
     0
 74
     0
 77
     1
 78
     8
140
2.5
141
2.5
143
0.0393700787
147
0.625
171
     3
172
     1
178
     0
271
     2
272
     2
274
     3
278
    44
283
     0
284
     8
340
11
  0
DIMSTYLE
105
19E
330
A
100
AcDbSymbolTableRecord
100
AcDbDimStyleTableRecord
  2
SLDDIMSTYLE0
 70
     0
 41
0.65
 44
0.0
 45
0.000000001
146
0.65
147
0.0
173
     1
178
     0
271
     0
272
     0
276
     2
340
11
341
19F
343
19F
344
19F
  0
DIMSTYLE
105
1C0
330
A
100
AcDbSymbolTableRecord
100
AcDbDimStyleTableRecord
  2
SLDDIMSTYLE1
 70
     0
 41
2.0
 44
0.0
 45
0.000000001
146
2.0
147
0.0
173
     1
178
     0
271
     0
272
     0
276
     2
340
11
341
1C1
343
1C1
344
1C1
  0
ENDTAB
  0
TABLE
  2
BLOCK_RECORD
  5
1
330
0
100
AcDbSymbolTable
 70
     6
  0
BLOCK_RECORD
  5
1F
330
1
100
AcDbSymbolTableRecord
100
AcDbBlockTableRecord
  2
*Model_Space
340
22
  0
BLOCK_RECORD
  5
1B
330
1
100
AcDbSymbolTableRecord
100
AcDbBlockTableRecord
  2
*Paper_Space
340
1E
  0
BLOCK_RECORD
  5
23
330
1
100
AcDbSymbolTableRecord
100
AcDbBlockTableRecord
  2
*Paper_Space0
340
26
  0
BLOCK_RECORD
  5
198
330
1
100
AcDbSymbolTableRecord
100
AcDbBlockTableRecord
  2
SW_NOTE_0
340
0
102
{BLKREFS
331
19D
102
}
  0
BLOCK_RECORD
  5
19F
330
1
100
AcDbSymbolTableRecord
100
AcDbBlockTableRecord
  2
_Dot
340
0
  0
BLOCK_RECORD
  5
1BB
330
1
100
AcDbSymbolTableRecord
100
AcDbBlockTableRecord
  2
SW_NOTE_0_1
340
0
102
{BLKREFS
331
1BF
102
}
  0
BLOCK_RECORD
  5
1C1
330
1
100
AcDbSymbolTableRecord
100
AcDbBlockTableRecord
  2
_Open30
340
0
  0
BLOCK_RECORD
  5
220
330
1
100
AcDbSymbolTableRecord
100
AcDbBlockTableRecord
  2
SW_CENTERMARKSYMBOL_0
340
0
102
{BLKREFS
331
22B
102
}
  0
ENDTAB
  0
ENDSEC
  0
SECTION
  2
BLOCKS
  0
BLOCK
  5
20
330
1F
100
AcDbEntity
  8
0
100
AcDbBlockBegin
  2
*Model_Space
 70
     0
 10
0.0
 20
0.0
 30
0.0
  3
*Model_Space
  1

  0
ENDBLK
  5
21
330
1F
100
AcDbEntity
  8
0
100
AcDbBlockEnd
  0
BLOCK
  5
1C
330
1B
100
AcDbEntity
 67
     1
  8
0
100
AcDbBlockBegin
  2
*Paper_Space
 70
     0
 10
0.0
 20
0.0
 30
0.0
  3
*Paper_Space
  1

  0
ENDBLK
  5
1D
330
1B
100
AcDbEntity
 67
     1
  8
0
100
AcDbBlockEnd
  0
BLOCK
  5
24
330
23
100
AcDbEntity
  8
0
100
AcDbBlockBegin
  2
*Paper_Space0
 70
     0
 10
0.0
 20
0.0
 30
0.0
  3
*Paper_Space0
  1

  0
ENDBLK
  5
25
330
23
100
AcDbEntity
  8
0
100
AcDbBlockEnd
  0
BLOCK
  5
199
330
198
100
AcDbEntity
  8
0
100
AcDbBlockBegin
  2
SW_NOTE_0
 70
     0
 10
0.0
 20
0.0
 30
0.0
  3
SW_NOTE_0
  1

  0
MTEXT
  5
19C
330
198
100
AcDbEntity
  8
0
  6
Continuous
 62
     0
370
     0
100
AcDbMText
 10
0.5715472734
 20
9.084518536
 30
0.0
 40
19.05
 41
0.0
 71
     1
 72
     1
  1
REZISTANS TARAFI
  7
SLDTEXTSTYLE0
 73
     1
 44
1.0
  0
ENDBLK
  5
19A
330
198
100
AcDbEntity
  8
0
100
AcDbBlockEnd
  0
BLOCK
  5
1A0
330
19F
100
AcDbEntity
  8
0
100
AcDbBlockBegin
  2
_Dot
 70
     0
 10
0.0
 20
0.0
 30
0.0
  3
_Dot
  1

  0
LWPOLYLINE
  5
1A2
330
19F
100
AcDbEntity
  8
0
  6
ByBlock
 62
     0
100
AcDbPolyline
 90
        2
 70
     1
 43
0.5
 10
-0.25
 20
0.0
 42
1.0
 10
0.25
 20
0.0
 42
1.0
  0
LINE
  5
1A3
330
19F
100
AcDbEntity
  8
0
  6
ByBlock
 62
     0
370
    -2
100
AcDbLine
 10
-0.5
 20
0.0
 30
0.0
 11
-1.0
 21
0.0
 31
0.0
  0
ENDBLK
  5
1A1
330
19F
100
AcDbEntity
  8
0
100
AcDbBlockEnd
  0
BLOCK
  5
1BC
330
1BB
100
AcDbEntity
  8
0
100
AcDbBlockBegin
  2
SW_NOTE_0_1
 70
     0
 10
0.0
 20
0.0
 30
0.0
  3
SW_NOTE_0_1
  1

  0
MTEXT
  5
1BE
330
1BB
100
AcDbEntity
  8
0
  6
Continuous
 62
     0
370
     0
100
AcDbMText
 10
0.5265367957
 20
9.1900104941
 30
0.0
 40
19.05
 41
0.0
 71
     1
 72
     1
  1
FOLYO TARAFI
  7
SLDTEXTSTYLE0
 73
     1
 44
1.0
  0
ENDBLK
  5
1BD
330
1BB
100
AcDbEntity
  8
0
100
AcDbBlockEnd
  0
BLOCK
  5
1C2
330
1C1
100
AcDbEntity
  8
0
100
AcDbBlockBegin
  2
_Open30
 70
     0
 10
0.0
 20
0.0
 30
0.0
  3
_Open30
  1

  0
LINE
  5
1C4
330
1C1
100
AcDbEntity
  8
0
  6
ByBlock
 62
     0
370
    -2
100
AcDbLine
 10
-1.0
 20
0.267949
 30
0.0
 11
0.0
 21
0.0
 31
0.0
  0
LINE
  5
1C5
330
1C1
100
AcDbEntity
  8
0
  6
ByBlock
 62
     0
370
    -2
100
AcDbLine
 10
0.0
 20
0.0
 30
0.0
 11
-1.0
 21
-0.267949
 31
0.0
  0
LINE
  5
1C6
330
1C1
100
AcDbEntity
  8
0
  6
ByBlock
 62
     0
370
    -2
100
AcDbLine
 10
0.0
 20
0.0
 30
0.0
 11
-1.0
 21
0.0
 31
0.0
  0
ENDBLK
  5
1C3
330
1C1
100
AcDbEntity
  8
0
100
AcDbBlockEnd
  0
BLOCK
  5
221
330
220
100
AcDbEntity
  8
0
100
AcDbBlockBegin
  2
SW_CENTERMARKSYMBOL_0
 70
     0
 10
0.0
 20
0.0
 30
0.0
  3
SW_CENTERMARKSYMBOL_0
  1

  0
LINE
  5
223
330
220
100
AcDbEntity
  8
0
  6
Continuous
 62
     0
370
    18
100
AcDbLine
 10
0.0
 20
0.0
 30
0.0
 11
0.0
 21
2.5
 31
0.0
  0
LINE
  5
224
330
220
100
AcDbEntity
  8
0
  6
Continuous
 62
     0
370
    18
100
AcDbLine
 10
0.0
 20
0.0
 30
0.0
 11
-2.5
 21
0.0
 31
0.0
  0
LINE
  5
225
330
220
100
AcDbEntity
  8
0
  6
Continuous
 62
     0
370
    18
100
AcDbLine
 10
0.0
 20
0.0
 30
0.0
 11
0.0
 21
-2.5
 31
0.0
  0
LINE
  5
226
330
220
100
AcDbEntity
  8
0
  6
Continuous
 62
     0
370
    18
100
AcDbLine
 10
0.0
 20
0.0
 30
0.0
 11
2.5
 21
0.0
 31
0.0
  0
LINE
  5
227
330
220
100
AcDbEntity
  8
0
  6
Continuous
 62
     0
370
    18
100
AcDbLine
 10
0.0
 20
5.0
 30
0.0
 11
0.0
 21
6.5
 31
0.0
  0
LINE
  5
228
330
220
100
AcDbEntity
  8
0
  6
Continuous
 62
     0
370
    18
100
AcDbLine
 10
-5.0
 20
0.0
 30
0.0
 11
-6.5
 21
0.0
 31
0.0
  0
LINE
  5
229
330
220
100
AcDbEntity
  8
0
  6
Continuous
 62
     0
370
    18
100
AcDbLine
 10
0.0
 20
-5.0
 30
0.0
 11
0.0
 21
-6.5
 31
0.0
  0
LINE
  5
22A
330
220
100
AcDbEntity
  8
0
  6
Continuous
 62
     0
370
    18
100
AcDbLine
 10
5.0
 20
0.0
 30
0.0
 11
6.5
 21
0.0
 31
0.0
  0
ENDBLK
  5
222
330
220
100
AcDbEntity
  8
0
100
AcDbBlockEnd
  0
ENDSEC
  0
SECTION
  2
ENTITIES
  0
LINE
  5
63
330
1F
100
AcDbEntity
  8
0
  6
Continuous
 62
     7
370
    35
100
AcDbLine
 10
388.6471283273
 20
365.4935461414
 30
0.0
 11
388.6471283273
 21
366.4935461414
 31
0.0
  0
LINE
  5
64
330
1F
100
AcDbEntity
  8
0
  6
Continuous
 62
     7
370
    35
100
AcDbLine
 10
388.6471283273
 20
366.4935461414
 30
0.0
 11
391.6471283273
 21
366.4935461414
 31
0.0
  0
LINE
  5
65
330
1F
100
AcDbEntity
  8
0
  6
Continuous
 62
     7
370
    35
100
AcDbLine
 10
391.6471283273
 20
366.4935461414
 30
0.0
 11
391.6471283273
 21
365.4935461414
 31
0.0
  0
LINE
  5
66
330
1F
100
AcDbEntity
  8
0
  6
Continuous
 62
     7
370
    35
100
AcDbLine
 10
391.6471283273
 20
365.4935461414
 30
0.0
 11
388.6471283273
 21
365.4935461414
 31
0.0
  0
LINE
  5
67
330
1F
100
AcDbEntity
  8
0
  6
Continuous
 62
     7
370
    35
100
AcDbLine
 10
388.6471283273
 20
365.4935461414
 30
0.0
 11
-625.3528716727
 21
365.4935461414
 31
0.0
  0
LINE
  5
68
330
1F
100
AcDbEntity
  8
0
  6
Continuous
 62
     7
370
    35
100
AcDbLine
 10
-625.3528716727
 20
366.4935461414
 30
0.0
 11
-625.3528716727
 21
365.4935461414
 31
0.0
  0
LINE
  5
69
330
1F
100
AcDbEntity
  8
0
  6
Continuous
 62
     7
370
    35
100
AcDbLine
 10
388.6471283273
 20
366.4935461414
 30
0.0
 11
-625.3528716727
 21
366.4935461414
 31
0.0
  0
LINE
  5
6A
330
1F
100
AcDbEntity
  8
0
  6
Continuous
 62
     7
370
    35
100
AcDbLine
 10
-628.3528716727
 20
365.4935461414
 30
0.0
 11
-628.3528716727
 21
366.4935461414
 31
0.0
  0
LINE
  5
6B
330
1F
100
AcDbEntity
  8
0
  6
Continuous
 62
     7
370
    35
100
AcDbLine
 10
-625.3528716727
 20
365.4935461414
 30
0.0
 11
-628.3528716727
 21
365.4935461414
 31
0.0
  0
LINE
  5
6C
330
1F
100
AcDbEntity
  8
0
  6
Continuous
 62
     7
370
    35
100
AcDbLine
 10
-628.3528716727
 20
366.4935461414
 30
0.0
 11
-625.3528716727
 21
366.4935461414
 31
0.0
  0
LINE
  5
6D
330
1F
100
AcDbEntity
  8
0
  6
Continuous
 62
     7
370
    35
100
AcDbLine
 10
391.6471283273
 20
617.4935461414
 30
0.0
 11
391.6471283273
 21
616.4935461414
 31
0.0
  0
LINE
  5
6E
330
1F
100
AcDbEntity
  8
0
  6
Continuous
 62
     7
370
    35
100
AcDbLine
 10
391.6471283273
 20
616.4935461414
 30
0.0
 11
388.6471283273
 21
616.4935461414
 31
0.0
  0
LINE
  5
6F
330
1F
100
AcDbEntity
  8
0
  6
Continuous
 62
     7
370
    35
100
AcDbLine
 10
388.6471283273
 20
616.4935461414
 30
0.0
 11
388.6471283273
 21
617.4935461414
 31
0.0
  0
LINE
  5
70
330
1F
100
AcDbEntity
  8
0
  6
Continuous
 62
     7
370
    35
100
AcDbLine
 10
388.6471283273
 20
617.4935461414
 30
0.0
 11
391.6471283273
 21
617.4935461414
 31
0.0
  0
LINE
  5
71
330
1F
100
AcDbEntity
  8
0
  6
Continuous
 62
     7
370
    35
100
AcDbLine
 10
-625.3528716727
 20
617.4935461414
 30
0.0
 11
-625.3528716727
 21
616.4935461414
 31
0.0
  0
LINE
  5
72
330
1F
100
AcDbEntity
  8
0
  6
Continuous
 62
     7
370
    35
100
AcDbLine
 10
-628.3528716727
 20
616.4935461414
 30
0.0
 11
-628.3528716727
 21
617.4935461414
 31
0.0
  0
LINE
  5
73
330
1F
100
AcDbEntity
  8
0
  6
Continuous
 62
     7
370
    35
100
AcDbLine
 10
-628.3528716727
 20
617.4935461414
 30
0.0
 11
-625.3528716727
 21
617.4935461414
 31
0.0
  0
LINE
  5
74
330
1F
100
AcDbEntity
  8
0
  6
Continuous
 62
     7
370
    35
100
AcDbLine
 10
-625.3528716727
 20
616.4935461414
 30
0.0
 11
-628.3528716727
 21
616.4935461414
 31
0.0
  0
LINE
  5
75
330
1F
100
AcDbEntity
  8
0
  6
Continuous
 62
     7
370
    35
100
AcDbLine
 10
-625.3528716727
 20
617.4935461414
 30
0.0
 11
388.6471283273
 21
617.4935461414
 31
0.0
  0
LINE
  5
76
330
1F
100
AcDbEntity
  8
0
  6
Continuous
 62
     7
370
    35
100
AcDbLine
 10
-625.3528716727
 20
616.4935461414
 30
0.0
 11
388.6471283273
 21
616.4935461414
 31
0.0
  0
LINE
  5
77
330
1F
100
AcDbEntity
  8
0
  6
Continuous
 62
     7
370
    35
100
AcDbLine
 10
391.6471283273
 20
366.4935461414
 30
0.0
 11
391.6471283273
 21
367.2435461414
 31
0.0
  0
LINE
  5
78
330
1F
100
AcDbEntity
  8
0
  6
Continuous
 62
     7
370
    35
100
AcDbLine
 10
-628.3528716727
 20
367.2435461414
 30
0.0
 11
-628.3528716727
 21
366.4935461414
 31
0.0
  0
LINE
  5
79
330
1F
100
AcDbEntity
  8
0
  6
Continuous
 62
     7
370
    35
100
AcDbLine
 10
391.6471283273
 20
367.2435461414
 30
0.0
 11
-628.3528716727
 21
367.2435461414
 31
0.0
  0
LINE
  5
7A
330
1F
100
AcDbEntity
  8
0
  6
Continuous
 62
     7
370
    35
100
AcDbLine
 10
-628.3528716727
 20
616.4935461414
 30
0.0
 11
-628.3528716727
 21
615.7435461414
 31
0.0
  0
LINE
  5
7B
330
1F
100
AcDbEntity
  8
0
  6
Continuous
 62
     7
370
    35
100
AcDbLine
 10
-628.3528716727
 20
615.7435461414
 30
0.0
 11
391.6471283273
 21
615.7435461414
 31
0.0
  0
LINE
  5
7C
330
1F
100
AcDbEntity
  8
0
  6
Continuous
 62
     7
370
    35
100
AcDbLine
 10
391.6471283273
 20
615.7435461414
 30
0.0
 11
391.6471283273
 21
616.4935461414
 31
0.0
  0
LINE
  5
7D
330
1F
100
AcDbEntity
  8
0
  6
Continuous
 62
     7
370
    35
100
AcDbLine
 10
391.6471283273
 20
367.2435461414
 30
0.0
 11
391.6471283273
 21
615.7435461414
 31
0.0
  0
LINE
  5
7E
330
1F
100
AcDbEntity
  8
0
  6
Continuous
 62
     7
370
    35
100
AcDbLine
 10
-628.3528716727
 20
367.2435461414
 30
0.0
 11
-628.3528716727
 21
615.7435461414
 31
0.0
  0
ARC
  5
7F
330
1F
100
AcDbEntity
  8
0
  6
Continuous
 62
     7
370
    35
100
AcDbCircle
 10
199.1471283273
 20
441.4935461414
 30
0.0
 40
7.500000000000028
100
AcDbArc
 50
360.0
 51
180.0
  0
LINE
  5
80
330
1F
100
AcDbEntity
  8
0
  6
Continuous
 62
     7
370
    35
100
AcDbLine
 10
191.6471283273
 20
414.4935461414
 30
0.0
 11
191.6471283273
 21
441.4935461414
 31
0.0
  0
ARC
  5
81
330
1F
100
AcDbEntity
  8
0
  6
Continuous
 62
     7
370
    35
100
AcDbCircle
 10
199.1471283273
 20
414.4935461414
 30
0.0
 40
7.500000000000028
100
AcDbArc
 50
180.0
 51
0.0
  0
LINE
  5
82
330
1F
100
AcDbEntity
  8
0
  6
Continuous
 62
     7
370
    35
100
AcDbLine
 10
206.6471283273
 20
441.4935461414
 30
0.0
 11
206.6471283273
 21
414.4935461414
 31
0.0
  0
ARC
  5
83
330
1F
100
AcDbEntity
  8
0
  6
Continuous
 62
     7
370
    35
100
AcDbCircle
 10
326.1471283273
 20
414.4935461414
 30
0.0
 40
7.500000000000284
100
AcDbArc
 50
180.0
 51
0.0
  0
LINE
  5
84
330
1F
100
AcDbEntity
  8
0
  6
Continuous
 62
     7
370
    35
100
AcDbLine
 10
333.6471283273
 20
441.4935461414
 30
0.0
 11
333.6471283273
 21
414.4935461414
 31
0.0
  0
ARC
  5
85
330
1F
100
AcDbEntity
  8
0
  6
Continuous
 62
     7
370
    35
100
AcDbCircle
 10
326.1471283273
 20
441.4935461414
 30
0.0
 40
7.500000000000284
100
AcDbArc
 50
0.0
 51
180.0
  0
LINE
  5
86
330
1F
100
AcDbEntity
  8
0
  6
Continuous
 62
     7
370
    35
100
AcDbLine
 10
318.6471283273
 20
414.4935461414
 30
0.0
 11
318.6471283273
 21
441.4935461414
 31
0.0
  0
ARC
  5
87
330
1F
100
AcDbEntity
  8
0
  6
Continuous
 62
     7
370
    35
100
AcDbCircle
 10
72.1471283273
 20
441.4935461414
 30
0.0
 40
7.500000000000014
100
AcDbArc
 50
360.0
 51
180.0
  0
LINE
  5
88
330
1F
100
AcDbEntity
  8
0
  6
Continuous
 62
     7
370
    35
100
AcDbLine
 10
64.6471283273
 20
414.4935461414
 30
0.0
 11
64.6471283273
 21
441.4935461414
 31
0.0
  0
ARC
  5
89
330
1F
100
AcDbEntity
  8
0
  6
Continuous
 62
     7
370
    35
100
AcDbCircle
 10
72.1471283273
 20
414.4935461414
 30
0.0
 40
7.500000000000014
100
AcDbArc
 50
180.0
 51
0.0
  0
LINE
  5
8A
330
1F
100
AcDbEntity
  8
0
  6
Continuous
 62
     7
370
    35
100
AcDbLine
 10
79.6471283273
 20
441.4935461414
 30
0.0
 11
79.6471283273
 21
414.4935461414
 31
0.0
  0
ARC
  5
8B
330
1F
100
AcDbEntity
  8
0
  6
Continuous
 62
     7
370
    35
100
AcDbCircle
 10
-308.8528716727
 20
441.4935461414
 30
0.0
 40
7.499999999999943
100
AcDbArc
 50
360.0
 51
180.0
  0
LINE
  5
8C
330
1F
100
AcDbEntity
  8
0
  6
Continuous
 62
     7
370
    35
100
AcDbLine
 10
-316.3528716727
 20
414.4935461414
 30
0.0
 11
-316.3528716727
 21
441.4935461414
 31
0.0
  0
ARC
  5
8D
330
1F
100
AcDbEntity
  8
0
  6
Continuous
 62
     7
370
    35
100
AcDbCircle
 10
-308.8528716727
 20
414.4935461414
 30
0.0
 40
7.499999999999943
100
AcDbArc
 50
180.0
 51
0.0
  0
LINE
  5
8E
330
1F
100
AcDbEntity
  8
0
  6
Continuous
 62
     7
370
    35
100
AcDbLine
 10
-301.3528716727
 20
441.4935461414
 30
0.0
 11
-301.3528716727
 21
414.4935461414
 31
0.0
  0
ARC
  5
8F
330
1F
100
AcDbEntity
  8
0
  6
Continuous
 62
     7
370
    35
100
AcDbCircle
 10
-562.8528716727
 20
441.4935461414
 30
0.0
 40
7.500000000000341
100
AcDbArc
 50
0.0
 51
180.0
  0
LINE
  5
90
330
1F
100
AcDbEntity
  8
0
  6
Continuous
 62
     7
370
    35
100
AcDbLine
 10
-570.3528716727
 20
414.4935461414
 30
0.0
 11
-570.3528716727
 21
441.4935461414
 31
0.0
  0
ARC
  5
91
330
1F
100
AcDbEntity
  8
0
  6
Continuous
 62
     7
370
    35
100
AcDbCircle
 10
-562.8528716727
 20
414.4935461414
 30
0.0
 40
7.500000000000341
100
AcDbArc
 50
180.0
 51
0.0
  0
LINE
  5
92
330
1F
100
AcDbEntity
  8
0
  6
Continuous
 62
     7
370
    35
100
AcDbLine
 10
-555.3528716727
 20
441.4935461414
 30
0.0
 11
-555.3528716727
 21
414.4935461414
 31
0.0
  0
ARC
  5
93
330
1F
100
AcDbEntity
  8
0
  6
Continuous
 62
     7
370
    35
100
AcDbCircle
 10
-435.8528716727
 20
414.4935461414
 30
0.0
 40
7.500000000000057
100
AcDbArc
 50
180.0
 51
0.0
  0
LINE
  5
94
330
1F
100
AcDbEntity
  8
0
  6
Continuous
 62
     7
370
    35
100
AcDbLine
 10
-428.3528716727
 20
441.4935461414
 30
0.0
 11
-428.3528716727
 21
414.4935461414
 31
0.0
  0
ARC
  5
95
330
1F
100
AcDbEntity
  8
0
  6
Continuous
 62
     7
370
    35
100
AcDbCircle
 10
-435.8528716727
 20
441.4935461414
 30
0.0
 40
7.500000000000057
100
AcDbArc
 50
360.0
 51
180.0
  0
LINE
  5
96
330
1F
100
AcDbEntity
  8
0
  6
Continuous
 62
     7
370
    35
100
AcDbLine
 10
-443.3528716727
 20
414.4935461414
 30
0.0
 11
-443.3528716727
 21
441.4935461414
 31
0.0
  0
ARC
  5
97
330
1F
100
AcDbEntity
  8
0
  6
Continuous
 62
     7
370
    35
100
AcDbCircle
 10
-54.8528716727
 20
414.4935461414
 30
0.0
 40
7.500000000000163
100
AcDbArc
 50
180.0
 51
0.0
  0
LINE
  5
98
330
1F
100
AcDbEntity
  8
0
  6
Continuous
 62
     7
370
    35
100
AcDbLine
 10
-47.3528716727
 20
441.4935461414
 30
0.0
 11
-47.3528716727
 21
414.4935461414
 31
0.0
  0
ARC
  5
99
330
1F
100
AcDbEntity
  8
0
  6
Continuous
 62
     7
370
    35
100
AcDbCircle
 10
-54.8528716727
 20
441.4935461414
 30
0.0
 40
7.500000000000199
100
AcDbArc
 50
0.0
 51
180.0
  0
LINE
  5
9A
330
1F
100
AcDbEntity
  8
0
  6
Continuous
 62
     7
370
    35
100
AcDbLine
 10
-62.3528716727
 20
414.4935461414
 30
0.0
 11
-62.3528716727
 21
441.4935461414
 31
0.0
  0
ARC
  5
9B
330
1F
100
AcDbEntity
  8
0
  6
Continuous
 62
     7
370
    35
100
AcDbCircle
 10
-181.8528716727
 20
414.4935461414
 30
0.0
 40
7.500000000000171
100
AcDbArc
 50
180.0
 51
0.0
  0
LINE
  5
9C
330
1F
100
AcDbEntity
  8
0
  6
Continuous
 62
     7
370
    35
100
AcDbLine
 10
-174.3528716727
 20
441.4935461414
 30
0.0
 11
-174.3528716727
 21
414.4935461414
 31
0.0
  0
ARC
  5
9D
330
1F
100
AcDbEntity
  8
0
  6
Continuous
 62
     7
370
    35
100
AcDbCircle
 10
-181.8528716727
 20
441.4935461414
 30
0.0
 40
7.500000000000227
100
AcDbArc
 50
0.0
 51
180.0
  0
LINE
  5
9E
330
1F
100
AcDbEntity
  8
0
  6
Continuous
 62
     7
370
    35
100
AcDbLine
 10
-189.3528716727
 20
414.4935461414
 30
0.0
 11
-189.3528716727
 21
441.4935461414
 31
0.0
  0
ARC
  5
9F
330
1F
100
AcDbEntity
  8
0
  6
Continuous
 62
     7
370
    35
100
AcDbCircle
 10
-435.8528716727
 20
541.4935461414
 30
0.0
 40
7.500000000000057
100
AcDbArc
 50
180.0
 51
0.0
  0
LINE
  5
A0
330
1F
100
AcDbEntity
  8
0
  6
Continuous
 62
     7
370
    35
100
AcDbLine
 10
-428.3528716727
 20
568.4935461414
 30
0.0
 11
-428.3528716727
 21
541.4935461414
 31
0.0
  0
ARC
  5
A1
330
1F
100
AcDbEntity
  8
0
  6
Continuous
 62
     7
370
    35
100
AcDbCircle
 10
-435.8528716727
 20
568.4935461414
 30
0.0
 40
7.499999999999943
100
AcDbArc
 50
360.0
 51
180.0
  0
LINE
  5
A2
330
1F
100
AcDbEntity
  8
0
  6
Continuous
 62
     7
370
    35
100
AcDbLine
 10
-443.3528716727
 20
541.4935461414
 30
0.0
 11
-443.3528716727
 21
568.4935461414
 31
0.0
  0
ARC
  5
A3
330
1F
100
AcDbEntity
  8
0
  6
Continuous
 62
     7
370
    35
100
AcDbCircle
 10
-562.8528716727
 20
568.4935461414
 30
0.0
 40
7.500000000000227
100
AcDbArc
 50
360.0
 51
180.0
  0
LINE
  5
A4
330
1F
100
AcDbEntity
  8
0
  6
Continuous
 62
     7
370
    35
100
AcDbLine
 10
-570.3528716727
 20
541.4935461414
 30
0.0
 11
-570.3528716727
 21
568.4935461414
 31
0.0
  0
ARC
  5
A5
330
1F
100
AcDbEntity
  8
0
  6
Continuous
 62
     7
370
    35
100
AcDbCircle
 10
-562.8528716727
 20
541.4935461414
 30
0.0
 40
7.500000000000341
100
AcDbArc
 50
180.0
 51
0.0
  0
LINE
  5
A6
330
1F
100
AcDbEntity
  8
0
  6
Continuous
 62
     7
370
    35
100
AcDbLine
 10
-555.3528716727
 20
568.4935461414
 30
0.0
 11
-555.3528716727
 21
541.4935461414
 31
0.0
  0
ARC
  5
A7
330
1F
100
AcDbEntity
  8
0
  6
Continuous
 62
     7
370
    35
100
AcDbCircle
 10
-308.8528716727
 20
541.4935461414
 30
0.0
 40
7.500000000000057
100
AcDbArc
 50
180.0
 51
0.0
  0
LINE
  5
A8
330
1F
100
AcDbEntity
  8
0
  6
Continuous
 62
     7
370
    35
100
AcDbLine
 10
-301.3528716727
 20
568.4935461414
 30
0.0
 11
-301.3528716727
 21
541.4935461414
 31
0.0
  0
ARC
  5
A9
330
1F
100
AcDbEntity
  8
0
  6
Continuous
 62
     7
370
    35
100
AcDbCircle
 10
-308.8528716727
 20
568.4935461414
 30
0.0
 40
7.499999999999886
100
AcDbArc
 50
360.0
 51
180.0
  0
LINE
  5
AA
330
1F
100
AcDbEntity
  8
0
  6
Continuous
 62
     7
370
    35
100
AcDbLine
 10
-316.3528716727
 20
541.4935461414
 30
0.0
 11
-316.3528716727
 21
568.4935461414
 31
0.0
  0
LINE
  5
AB
330
1F
100
AcDbEntity
  8
0
  6
Continuous
 62
     7
370
    35
100
AcDbLine
 10
64.6471283273
 20
541.4935461414
 30
0.0
 11
64.6471283273
 21
568.4935461414
 31
0.0
  0
ARC
  5
AC
330
1F
100
AcDbEntity
  8
0
  6
Continuous
 62
     7
370
    35
100
AcDbCircle
 10
72.1471283273
 20
541.4935461414
 30
0.0
 40
7.500000000000071
100
AcDbArc
 50
180.0
 51
0.0
  0
LINE
  5
AD
330
1F
100
AcDbEntity
  8
0
  6
Continuous
 62
     7
370
    35
100
AcDbLine
 10
79.6471283273
 20
568.4935461414
 30
0.0
 11
79.6471283273
 21
541.4935461414
 31
0.0
  0
ARC
  5
AE
330
1F
100
AcDbEntity
  8
0
  6
Continuous
 62
     7
370
    35
100
AcDbCircle
 10
326.1471283273
 20
541.4935461414
 30
0.0
 40
7.500000000000398
100
AcDbArc
 50
180.0
 51
0.0
  0
LINE
  5
AF
330
1F
100
AcDbEntity
  8
0
  6
Continuous
 62
     7
370
    35
100
AcDbLine
 10
333.6471283273
 20
568.4935461414
 30
0.0
 11
333.6471283273
 21
541.4935461414
 31
0.0
  0
ARC
  5
B0
330
1F
100
AcDbEntity
  8
0
  6
Continuous
 62
     7
370
    35
100
AcDbCircle
 10
326.1471283273
 20
568.4935461414
 30
0.0
 40
7.500000000000284
100
AcDbArc
 50
360.0
 51
180.0
  0
LINE
  5
B1
330
1F
100
AcDbEntity
  8
0
  6
Continuous
 62
     7
370
    35
100
AcDbLine
 10
318.6471283273
 20
541.4935461414
 30
0.0
 11
318.6471283273
 21
568.4935461414
 31
0.0
  0
ARC
  5
B2
330
1F
100
AcDbEntity
  8
0
  6
Continuous
 62
     7
370
    35
100
AcDbCircle
 10
199.1471283273
 20
568.4935461414
 30
0.0
 40
7.499999999999972
100
AcDbArc
 50
360.0
 51
180.0
  0
LINE
  5
B3
330
1F
100
AcDbEntity
  8
0
  6
Continuous
 62
     7
370
    35
100
AcDbLine
 10
191.6471283273
 20
541.4935461414
 30
0.0
 11
191.6471283273
 21
568.4935461414
 31
0.0
  0
ARC
  5
B4
330
1F
100
AcDbEntity
  8
0
  6
Continuous
 62
     7
370
    35
100
AcDbCircle
 10
199.1471283273
 20
541.4935461414
 30
0.0
 40
7.500000000000085
100
AcDbArc
 50
180.0
 51
0.0
  0
LINE
  5
B5
330
1F
100
AcDbEntity
  8
0
  6
Continuous
 62
     7
370
    35
100
AcDbLine
 10
206.6471283273
 20
568.4935461414
 30
0.0
 11
206.6471283273
 21
541.4935461414
 31
0.0
  0
ARC
  5
B6
330
1F
100
AcDbEntity
  8
0
  6
Continuous
 62
     7
370
    35
100
AcDbCircle
 10
-181.8528716727
 20
568.4935461414
 30
0.0
 40
7.500000000000199
100
AcDbArc
 50
0.0
 51
180.0
  0
LINE
  5
B7
330
1F
100
AcDbEntity
  8
0
  6
Continuous
 62
     7
370
    35
100
AcDbLine
 10
-189.3528716727
 20
541.4935461414
 30
0.0
 11
-189.3528716727
 21
568.4935461414
 31
0.0
  0
ARC
  5
B8
330
1F
100
AcDbEntity
  8
0
  6
Continuous
 62
     7
370
    35
100
AcDbCircle
 10
-181.8528716727
 20
541.4935461414
 30
0.0
 40
7.500000000000199
100
AcDbArc
 50
180.0
 51
0.0
  0
LINE
  5
B9
330
1F
100
AcDbEntity
  8
0
  6
Continuous
 62
     7
370
    35
100
AcDbLine
 10
-174.3528716727
 20
568.4935461414
 30
0.0
 11
-174.3528716727
 21
541.4935461414
 31
0.0
  0
ARC
  5
BA
330
1F
100
AcDbEntity
  8
0
  6
Continuous
 62
     7
370
    35
100
AcDbCircle
 10
-54.8528716727
 20
568.4935461414
 30
0.0
 40
7.500000000000171
100
AcDbArc
 50
0.0
 51
180.0
  0
LINE
  5
BB
330
1F
100
AcDbEntity
  8
0
  6
Continuous
 62
     7
370
    35
100
AcDbLine
 10
-62.3528716727
 20
541.4935461414
 30
0.0
 11
-62.3528716727
 21
568.4935461414
 31
0.0
  0
ARC
  5
BC
330
1F
100
AcDbEntity
  8
0
  6
Continuous
 62
     7
370
    35
100
AcDbCircle
 10
-54.8528716727
 20
541.4935461414
 30
0.0
 40
7.500000000000185
100
AcDbArc
 50
180.0
 51
0.0
  0
LINE
  5
BD
330
1F
100
AcDbEntity
  8
0
  6
Continuous
 62
     7
370
    35
100
AcDbLine
 10
-47.3528716727
 20
568.4935461414
 30
0.0
 11
-47.3528716727
 21
541.4935461414
 31
0.0
  0
ARC
  5
BE
330
1F
100
AcDbEntity
  8
0
  6
Continuous
 62
     7
370
    35
100
AcDbCircle
 10
267.1471283273
 20
491.4935461414
 30
0.0
 40
5.0
100
AcDbArc
 50
270.0
 51
90.0
  0
LINE
  5
BF
330
1F
100
AcDbEntity
  8
0
  6
Continuous
 62
     7
370
    35
100
AcDbLine
 10
251.1471283273
 20
496.4935461414
 30
0.0
 11
267.1471283273
 21
496.4935461414
 31
0.0
  0
ARC
  5
C0
330
1F
100
AcDbEntity
  8
0
  6
Continuous
 62
     7
370
    35
100
AcDbCircle
 10
251.1471283273
 20
491.4935461414
 30
0.0
 40
5.0
100
AcDbArc
 50
90.0
 51
270.0
  0
LINE
  5
C1
330
1F
100
AcDbEntity
  8
0
  6
Continuous
 62
     7
370
    35
100
AcDbLine
 10
267.1471283273
 20
486.4935461414
 30
0.0
 11
251.1471283273
 21
486.4935461414
 31
0.0
  0
ARC
  5
C2
330
1F
100
AcDbEntity
  8
0
  6
Continuous
 62
     7
370
    35
100
AcDbCircle
 10
-503.8528716727
 20
491.4935461414
 30
0.0
 40
5.0
100
AcDbArc
 50
90.0
 51
270.0
  0
LINE
  5
C3
330
1F
100
AcDbEntity
  8
0
  6
Continuous
 62
     7
370
    35
100
AcDbLine
 10
-487.8528716727
 20
486.4935461414
 30
0.0
 11
-503.8528716727
 21
486.4935461414
 31
0.0
  0
ARC
  5
C4
330
1F
100
AcDbEntity
  8
0
  6
Continuous
 62
     7
370
    35
100
AcDbCircle
 10
-487.8528716727
 20
491.4935461414
 30
0.0
 40
5.000000000001251
100
AcDbArc
 50
270.0
 51
90.0
  0
LINE
  5
C5
330
1F
100
AcDbEntity
  8
0
  6
Continuous
 62
     7
370
    35
100
AcDbLine
 10
-503.8528716727
 20
496.4935461414
 30
0.0
 11
-487.8528716727
 21
496.4935461414
 31
0.0
  0
CIRCLE
  5
C6
330
1F
100
AcDbEntity
  8
0
  6
Continuous
 62
     7
370
    35
100
AcDbCircle
 10
-118.3528716727
 20
491.4935461414
 30
0.0
 40
3.999999999999986
  0
ARC
  5
C7
330
1F
100
AcDbEntity
  8
0
  6
Continuous
 62
     7
370
    35
100
AcDbCircle
 10
72.1471283273
 20
568.4935461414
 30
0.0
 40
7.499999999999929
100
AcDbArc
 50
360.0
 51
180.0
  0
LINE
  5
C8
330
1F
100
AcDbEntity
  8
0
  6
Continuous
 62
     7
370
    35
100
AcDbLine
 10
791.1918751064
 20
208.9565655662
 30
0.0
 11
69.9429582961
 21
-207.4115714634
 31
0.0
  0
LINE
  5
C9
330
1F
100
AcDbEntity
  8
0
  6
Continuous
 62
     7
370
    35
100
AcDbLine
 10
796.6577942551
 20
204.6857022047
 30
0.0
 11
796.6577942551
 21
205.5022430165
 31
0.0
  0
LINE
  5
CA
330
1F
100
AcDbEntity
  8
0
  6
Continuous
 62
     7
370
    35
100
AcDbLine
 10
796.6577942551
 20
-0.2660415787
 30
0.0
 11
796.6577942551
 21
0.5504992332
 31
0.0
  0
ARC
  5
CB
330
1F
100
AcDbEntity
  8
0
  6
Continuous
 62
     7
370
    35
100
AcDbCircle
 10
76.6515181319
 20
-205.5471485904
 30
0.0
 40
4.611065723735297
100
AcDbArc
 50
242.6096722366
 51
297.3903277634
  0
LINE
  5
CC
330
1F
100
AcDbEntity
  8
0
  6
Continuous
 62
     7
370
    35
100
AcDbLine
 10
70.8178871872
 20
-207.4982105518
 30
0.0
 11
74.5301977884
 21
-209.6412818453
 31
0.0
  0
LINE
  5
CD
330
1F
100
AcDbEntity
  8
0
  6
Continuous
 62
     7
370
    35
100
AcDbLine
 10
70.8178871872
 20
-207.4982105518
 30
0.0
 11
792.0668039974
 21
208.8699264778
 31
0.0
  0
LINE
  5
CE
330
1F
100
AcDbEntity
  8
0
  6
Continuous
 62
     7
370
    35
100
AcDbLine
 10
795.7791145987
 20
206.7268551843
 30
0.0
 11
792.0668039974
 21
208.8699264778
 31
0.0
  0
ARC
  5
CF
330
1F
100
AcDbEntity
  8
0
  6
Continuous
 62
     7
370
    35
100
AcDbCircle
 10
795.3143335183
 20
205.5022430165
 30
0.0
 40
1.30984595050283
100
AcDbArc
 50
290.7834207995
 51
69.2165792005
  0
LINE
  5
D0
330
1F
100
AcDbEntity
  8
0
  6
Continuous
 62
     7
370
    35
100
AcDbLine
 10
78.7728384755
 20
-209.6412818453
 30
0.0
 11
795.7791145987
 21
204.2776308488
 31
0.0
  0
LINE
  5
D1
330
1F
100
AcDbEntity
  8
0
  6
Continuous
 62
     7
370
    35
100
AcDbLine
 10
78.7728384755
 20
-209.6412818453
 30
0.0
 11
78.7728384755
 21
-210.4578226572
 31
0.0
  0
ARC
  5
D2
330
1F
100
AcDbEntity
  8
0
  6
Continuous
 62
     7
370
    35
100
AcDbCircle
 10
76.6515181319
 20
-206.3636894023
 30
0.0
 40
4.611065723735593
100
AcDbArc
 50
242.6096722366
 51
297.3903277634
  0
LINE
  5
D3
330
1F
100
AcDbEntity
  8
0
  6
Continuous
 62
     7
370
    35
100
AcDbLine
 10
74.5301977884
 20
-210.4578226572
 30
0.0
 11
74.5301977884
 21
-209.6412818453
 31
0.0
  0
LINE
  5
D4
330
1F
100
AcDbEntity
  8
0
  6
Continuous
 62
     7
370
    35
100
AcDbLine
 10
70.8178871872
 20
-208.3147513637
 30
0.0
 11
70.8178871872
 21
-207.4982105518
 31
0.0
  0
LINE
  5
D5
330
1F
100
AcDbEntity
  8
0
  6
Continuous
 62
     7
370
    35
100
AcDbLine
 10
70.8178871872
 20
-208.3147513637
 30
0.0
 11
74.5301977884
 21
-210.4578226572
 31
0.0
  0
LINE
  5
D6
330
1F
100
AcDbEntity
  8
0
  6
Continuous
 62
     7
370
    35
100
AcDbLine
 10
795.7791145987
 20
203.4610900369
 30
0.0
 11
795.7791145987
 21
204.2776308488
 31
0.0
  0
LINE
  5
D7
330
1F
100
AcDbEntity
  8
0
  6
Continuous
 62
     7
370
    35
100
AcDbLine
 10
78.7728384755
 20
-210.4578226572
 30
0.0
 11
795.7791145987
 21
203.4610900369
 31
0.0
  0
ARC
  5
D8
330
1F
100
AcDbEntity
  8
0
  6
Continuous
 62
     7
370
    35
100
AcDbCircle
 10
791.5541939014
 20
208.1543841518
 30
0.0
 40
0.8802101628293197
100
AcDbArc
 50
54.3824225248
 51
114.3071190461
  0
ARC
  5
D9
330
1F
100
AcDbEntity
  8
0
  6
Continuous
 62
     7
370
    35
100
AcDbCircle
 10
70.3348304631
 20
-208.0904272802
 30
0.0
 40
0.7642410954998978
100
AcDbArc
 50
50.7967147643
 51
189.2140369905
  0
LINE
  5
DA
330
1F
100
AcDbEntity
  8
0
  6
Continuous
 62
     7
370
    35
100
AcDbLine
 10
70.2875571013
 20
-208.6210039306
 30
0.0
 11
69.5804503201
 21
-208.2127998747
 31
0.0
  0
ARC
  5
DB
330
1F
100
AcDbEntity
  8
0
  6
Continuous
 62
     7
370
    35
100
AcDbCircle
 10
70.6108628768
 20
-208.568558533
 30
0.0
 40
0.3275318980713837
100
AcDbArc
 50
50.7967147643
 51
189.2140369904
  0
LINE
  5
DC
330
1F
100
AcDbEntity
  8
0
  6
Continuous
 62
     7
370
    35
100
AcDbLine
 10
70.2875571013
 20
-208.6210039306
 30
0.0
 11
70.8179733877
 21
-208.3148011262
 31
0.0
  0
LINE
  5
DD
330
1F
100
AcDbEntity
  8
0
  6
Continuous
 62
     7
370
    35
100
AcDbLine
 10
70.2875571013
 20
-411.5313956843
 30
0.0
 11
70.2875571013
 21
-208.6210039306
 31
0.0
  0
LINE
  5
DE
330
1F
100
AcDbEntity
  8
0
  6
Continuous
 62
     7
370
    35
100
AcDbLine
 10
70.2875571013
 20
-411.5313956843
 30
0.0
 11
69.5804503201
 21
-411.1231916283
 31
0.0
  0
LINE
  5
DF
330
1F
100
AcDbEntity
  8
0
  6
Continuous
 62
     7
370
    35
100
AcDbLine
 10
69.5804503201
 20
-411.1231916283
 30
0.0
 11
69.5804503201
 21
-208.2127998747
 31
0.0
  0
LINE
  5
E0
330
1F
100
AcDbEntity
  8
0
  6
Continuous
 62
     7
370
    35
100
AcDbLine
 10
791.5364739115
 20
4.8367413453
 30
0.0
 11
791.5364739115
 21
201.0118657014
 31
0.0
  0
LINE
  5
E1
330
1F
100
AcDbEntity
  8
0
  6
Continuous
 62
     7
370
    35
100
AcDbLine
 10
791.5364739115
 20
4.8367413453
 30
0.0
 11
70.2875571013
 21
-411.5313956843
 31
0.0
  0
LWPOLYLINE
  5
E2
330
1F
100
AcDbEntity
  8
0
  6
Continuous
 62
     7
370
    35
100
AcDbPolyline
 90
       15
 70
   128
 43
0.0
 10
650.1151176742
 20
-16.1759145544
 10
650.2480824991
 20
-14.7364249143
 10
650.6403095621
 20
-13.2155993765
 10
651.2721309606
 20
-11.6896984839
 10
652.1118645314
 20
-10.2352372787
 10
653.1174025268
 20
-8.9251485192
 10
654.238323073
 20
-7.8251255263
 10
655.4184185331
 20
-6.9903280459
 10
656.5985139933
 20
-6.4626163098
 10
657.7194345395
 20
-6.2684519877
 10
658.7249725348
 20
-6.4175712897
 10
659.5647061056
 20
-6.9024967511
 10
660.1965275041
 20
-7.6989121846
 10
660.5887545672
 20
-8.7668819947
 10
660.721719392
 20
-10.0528537158
  0
LINE
  5
E3
330
1F
100
AcDbEntity
  8
0
  6
Continuous
 62
     7
370
    35
100
AcDbLine
 10
650.1151176742
 20
-38.2225164753
 30
0.0
 11
650.1151176742
 21
-16.1759145544
 31
0.0
  0
LWPOLYLINE
  5
E4
330
1F
100
AcDbEntity
  8
0
  6
Continuous
 62
     7
370
    35
100
AcDbPolyline
 90
       15
 70
   128
 43
0.0
 10
660.721719392
 20
-32.0994556367
 10
660.5887545672
 20
-33.5389452768
 10
660.1965275041
 20
-35.0597708146
 10
659.5647061056
 20
-36.5856717072
 10
658.7249725348
 20
-38.0401329124
 10
657.7194345395
 20
-39.3502216718
 10
656.5985139933
 20
-40.4502446648
 10
655.4184185331
 20
-41.2850421451
 10
654.238323073
 20
-41.8127538813
 10
653.1174025268
 20
-42.0069182034
 10
652.1118645314
 20
-41.8577989014
 10
651.2721309606
 20
-41.37287344
 10
650.6403095621
 20
-40.5764580065
 10
650.2480824991
 20
-39.5084881964
 10
650.1151176742
 20
-38.2225164753
  0
LINE
  5
E5
330
1F
100
AcDbEntity
  8
0
  6
Continuous
 62
     7
370
    35
100
AcDbLine
 10
660.721719392
 20
-10.0528537158
 30
0.0
 11
660.721719392
 21
-32.0994556367
 31
0.0
  0
LWPOLYLINE
  5
E6
330
1F
100
AcDbEntity
  8
0
  6
Continuous
 62
     7
370
    35
100
AcDbPolyline
 90
       15
 70
   128
 43
0.0
 10
750.5242806027
 20
19.7424594641
 10
750.3913157779
 20
18.302969824
 10
749.9990887148
 20
16.7821442862
 10
749.3672673163
 20
15.2562433935
 10
748.5275337455
 20
13.8017821884
 10
747.5219957502
 20
12.4916934289
 10
746.401075204
 20
11.3916704359
 10
745.2209797438
 20
10.5568729556
 10
744.0408842837
 20
10.0291612194
 10
742.9199637375
 20
9.8349968974
 10
741.9144257421
 20
9.9841161993
 10
741.0746921713
 20
10.4690416608
 10
740.4428707728
 20
11.2654570943
 10
740.0506437098
 20
12.3334269044
 10
739.9176788849
 20
13.6193986254
  0
LINE
  5
E7
330
1F
100
AcDbEntity
  8
0
  6
Continuous
 62
     7
370
    35
100
AcDbLine
 10
750.5242806027
 20
41.789061385
 30
0.0
 11
750.5242806027
 21
19.7424594641
 31
0.0
  0
LWPOLYLINE
  5
E8
330
1F
100
AcDbEntity
  8
0
  6
Continuous
 62
     7
370
    35
100
AcDbPolyline
 90
       15
 70
   128
 43
0.0
 10
739.9176788849
 20
35.6660005463
 10
740.0506437098
 20
37.1054901864
 10
740.4428707728
 20
38.6263157242
 10
741.0746921713
 20
40.1522166169
 10
741.9144257421
 20
41.606677822
 10
742.9199637375
 20
42.9167665815
 10
744.0408842837
 20
44.0167895745
 10
745.2209797438
 20
44.8515870548
 10
746.401075204
 20
45.379298791
 10
747.5219957502
 20
45.573463113
 10
748.5275337455
 20
45.4243438111
 10
749.3672673163
 20
44.9394183496
 10
749.9990887148
 20
44.1430029161
 10
750.3913157779
 20
43.075033106
 10
750.5242806027
 20
41.789061385
  0
LINE
  5
E9
330
1F
100
AcDbEntity
  8
0
  6
Continuous
 62
     7
370
    35
100
AcDbLine
 10
739.9176788849
 20
13.6193986254
 30
0.0
 11
739.9176788849
 21
35.6660005463
 31
0.0
  0
LWPOLYLINE
  5
EA
330
1F
100
AcDbEntity
  8
0
  6
Continuous
 62
     7
370
    35
100
AcDbPolyline
 90
       15
 70
   128
 43
0.0
 10
560.3125564635
 20
-68.0178296552
 10
560.4455212884
 20
-66.5783400151
 10
560.8377483515
 20
-65.0575144773
 10
561.46956975
 20
-63.5316135846
 10
562.3093033207
 20
-62.0771523795
 10
563.3148413161
 20
-60.76706362
 10
564.4357618623
 20
-59.667040627
 10
565.6158573224
 20
-58.8322431467
 10
566.7959527826
 20
-58.3045314105
 10
567.9168733288
 20
-58.1103670885
 10
568.9224113242
 20
-58.2594863904
 10
569.7621448949
 20
-58.7444118519
 10
570.3939662934
 20
-59.5408272854
 10
570.7861933565
 20
-60.6087970955
 10
570.9191581813
 20
-61.8947688165
  0
LINE
  5
EB
330
1F
100
AcDbEntity
  8
0
  6
Continuous
 62
     7
370
    35
100
AcDbLine
 10
560.3125564635
 20
-90.0644315761
 30
0.0
 11
560.3125564635
 21
-68.0178296552
 31
0.0
  0
LWPOLYLINE
  5
EC
330
1F
100
AcDbEntity
  8
0
  6
Continuous
 62
     7
370
    35
100
AcDbPolyline
 90
       15
 70
   128
 43
0.0
 10
570.9191581813
 20
-83.9413707374
 10
570.7861933565
 20
-85.3808603775
 10
570.3939662934
 20
-86.9016859153
 10
569.7621448949
 20
-88.427586808
 10
568.9224113242
 20
-89.8820480131
 10
567.9168733288
 20
-91.1921367726
 10
566.7959527826
 20
-92.2921597656
 10
565.6158573224
 20
-93.1269572459
 10
564.4357618623
 20
-93.6546689821
 10
563.3148413161
 20
-93.8488333041
 10
562.3093033207
 20
-93.6997140022
 10
561.46956975
 20
-93.2147885407
 10
560.8377483515
 20
-92.4183731072
 10
560.4455212884
 20
-91.3504032971
 10
560.3125564635
 20
-90.0644315761
  0
LINE
  5
ED
330
1F
100
AcDbEntity
  8
0
  6
Continuous
 62
     7
370
    35
100
AcDbLine
 10
570.9191581813
 20
-61.8947688165
 30
0.0
 11
570.9191581813
 21
-83.9413707374
 31
0.0
  0
LWPOLYLINE
  5
EE
330
1F
100
AcDbEntity
  8
0
  6
Continuous
 62
     7
370
    35
100
AcDbPolyline
 90
       15
 70
   128
 43
0.0
 10
290.9048728315
 20
-223.5435749574
 10
291.0378376563
 20
-222.1040853173
 10
291.4300647194
 20
-220.5832597795
 10
292.0618861179
 20
-219.0573588868
 10
292.9016196887
 20
-217.6028976817
 10
293.907157684
 20
-216.2928089222
 10
295.0280782302
 20
-215.1927859292
 10
296.2081736904
 20
-214.3579884489
 10
297.3882691505
 20
-213.8302767127
 10
298.5091896967
 20
-213.6361123907
 10
299.5147276921
 20
-213.7852316926
 10
300.3544612629
 20
-214.2701571541
 10
300.9862826614
 20
-215.0665725876
 10
301.3785097244
 20
-216.1345423977
 10
301.5114745493
 20
-217.4205141187
  0
LINE
  5
EF
330
1F
100
AcDbEntity
  8
0
  6
Continuous
 62
     7
370
    35
100
AcDbLine
 10
290.9048728315
 20
-245.5901768783
 30
0.0
 11
290.9048728315
 21
-223.5435749574
 31
0.0
  0
LWPOLYLINE
  5
F0
330
1F
100
AcDbEntity
  8
0
  6
Continuous
 62
     7
370
    35
100
AcDbPolyline
 90
       15
 70
   128
 43
0.0
 10
301.5114745493
 20
-239.4671160396
 10
301.3785097244
 20
-240.9066056797
 10
300.9862826614
 20
-242.4274312175
 10
300.3544612629
 20
-243.9533321102
 10
299.5147276921
 20
-245.4077933153
 10
298.5091896967
 20
-246.7178820748
 10
297.3882691505
 20
-247.8179050678
 10
296.2081736904
 20
-248.6527025481
 10
295.0280782302
 20
-249.1804142843
 10
293.907157684
 20
-249.3745786063
 10
292.9016196887
 20
-249.2254593044
 10
292.0618861179
 20
-248.7405338429
 10
291.4300647194
 20
-247.9441184095
 10
291.0378376563
 20
-246.8761485993
 10
290.9048728315
 20
-245.5901768783
  0
LINE
  5
F1
330
1F
100
AcDbEntity
  8
0
  6
Continuous
 62
     7
370
    35
100
AcDbLine
 10
301.5114745493
 20
-217.4205141187
 30
0.0
 11
301.5114745493
 21
-239.4671160396
 31
0.0
  0
LWPOLYLINE
  5
F2
330
1F
100
AcDbEntity
  8
0
  6
Continuous
 62
     7
370
    35
100
AcDbPolyline
 90
       15
 70
   128
 43
0.0
 10
111.2997504101
 20
-327.2274051589
 10
111.4327152349
 20
-325.7879155188
 10
111.824942298
 20
-324.267089981
 10
112.4567636965
 20
-322.7411890883
 10
113.2964972673
 20
-321.2867278832
 10
114.3020352627
 20
-319.9766391237
 10
115.4229558088
 20
-318.8766161307
 10
116.603051269
 20
-318.0418186504
 10
117.7831467292
 20
-317.5141069142
 10
118.9040672753
 20
-317.3199425922
 10
119.9096052707
 20
-317.4690618941
 10
120.7493388415
 20
-317.9539873556
 10
121.38116024
 20
-318.7504027891
 10
121.773387303
 20
-319.8183725992
 10
121.9063521279
 20
-321.1043443202
  0
LINE
  5
F3
330
1F
100
AcDbEntity
  8
0
  6
Continuous
 62
     7
370
    35
100
AcDbLine
 10
111.2997504101
 20
-349.2740070798
 30
0.0
 11
111.2997504101
 21
-327.2274051589
 31
0.0
  0
LWPOLYLINE
  5
F4
330
1F
100
AcDbEntity
  8
0
  6
Continuous
 62
     7
370
    35
100
AcDbPolyline
 90
       15
 70
   128
 43
0.0
 10
121.9063521279
 20
-343.1509462411
 10
121.773387303
 20
-344.5904358812
 10
121.38116024
 20
-346.111261419
 10
120.7493388415
 20
-347.6371623117
 10
119.9096052707
 20
-349.0916235168
 10
118.9040672753
 20
-350.4017122763
 10
117.7831467292
 20
-351.5017352693
 10
116.603051269
 20
-352.3365327496
 10
115.4229558088
 20
-352.8642444858
 10
114.3020352627
 20
-353.0584088078
 10
113.2964972673
 20
-352.9092895059
 10
112.4567636965
 20
-352.4243640444
 10
111.824942298
 20
-351.6279486109
 10
111.4327152349
 20
-350.5599788008
 10
111.2997504101
 20
-349.2740070798
  0
LINE
  5
F5
330
1F
100
AcDbEntity
  8
0
  6
Continuous
 62
     7
370
    35
100
AcDbLine
 10
121.9063521279
 20
-321.1043443202
 30
0.0
 11
121.9063521279
 21
-343.1509462411
 31
0.0
  0
LWPOLYLINE
  5
F6
330
1F
100
AcDbEntity
  8
0
  6
Continuous
 62
     7
370
    35
100
AcDbPolyline
 90
       15
 70
   128
 43
0.0
 10
211.7089133386
 20
-291.3090311404
 10
211.5759485137
 20
-292.7485207805
 10
211.1837214507
 20
-294.2693463183
 10
210.5519000522
 20
-295.7952472109
 10
209.7121664814
 20
-297.2497084161
 10
208.706628486
 20
-298.5597971756
 10
207.5857079399
 20
-299.6598201685
 10
206.4056124797
 20
-300.4946176489
 10
205.2255170195
 20
-301.022329385
 10
204.1045964734
 20
-301.2164937071
 10
203.099058478
 20
-301.0673744051
 10
202.2593249072
 20
-300.5824489437
 10
201.6275035087
 20
-299.7860335102
 10
201.2352764456
 20
-298.7180637001
 10
201.1023116208
 20
-297.4320919791
  0
LINE
  5
F7
330
1F
100
AcDbEntity
  8
0
  6
Continuous
 62
     7
370
    35
100
AcDbLine
 10
211.7089133386
 20
-269.2624292195
 30
0.0
 11
211.7089133386
 21
-291.3090311404
 31
0.0
  0
LWPOLYLINE
  5
F8
330
1F
100
AcDbEntity
  8
0
  6
Continuous
 62
     7
370
    35
100
AcDbPolyline
 90
       15
 70
   128
 43
0.0
 10
201.1023116208
 20
-275.3854900581
 10
201.2352764456
 20
-273.946000418
 10
201.6275035087
 20
-272.4251748802
 10
202.2593249072
 20
-270.8992739876
 10
203.099058478
 20
-269.4448127824
 10
204.1045964734
 20
-268.134724023
 10
205.2255170195
 20
-267.03470103
 10
206.4056124797
 20
-266.1999035497
 10
207.5857079399
 20
-265.6721918135
 10
208.706628486
 20
-265.4780274914
 10
209.7121664814
 20
-265.6271467934
 10
210.5519000522
 20
-266.1120722548
 10
211.1837214507
 20
-266.9084876883
 10
211.5759485137
 20
-267.9764574984
 10
211.7089133386
 20
-269.2624292195
  0
LINE
  5
F9
330
1F
100
AcDbEntity
  8
0
  6
Continuous
 62
     7
370
    35
100
AcDbLine
 10
201.1023116208
 20
-297.4320919791
 30
0.0
 11
201.1023116208
 21
-275.3854900581
 31
0.0
  0
LWPOLYLINE
  5
FA
330
1F
100
AcDbEntity
  8
0
  6
Continuous
 62
     7
370
    35
100
AcDbPolyline
 90
       15
 70
   128
 43
0.0
 10
481.1165969707
 20
-135.7832858382
 10
480.9836321458
 20
-137.2227754782
 10
480.5914050827
 20
-138.7436010161
 10
479.9595836842
 20
-140.2695019087
 10
479.1198501135
 20
-141.7239631138
 10
478.1143121181
 20
-143.0340518733
 10
476.9933915719
 20
-144.1340748663
 10
475.8132961118
 20
-144.9688723466
 10
474.6332006516
 20
-145.4965840828
 10
473.5122801054
 20
-145.6907484049
 10
472.50674211
 20
-145.5416291029
 10
471.6670085393
 20
-145.0567036415
 10
471.0351871408
 20
-144.260288208
 10
470.6429600777
 20
-143.1923183978
 10
470.5099952529
 20
-141.9063466768
  0
LINE
  5
FB
330
1F
100
AcDbEntity
  8
0
  6
Continuous
 62
     7
370
    35
100
AcDbLine
 10
481.1165969707
 20
-113.7366839172
 30
0.0
 11
481.1165969707
 21
-135.7832858382
 31
0.0
  0
LWPOLYLINE
  5
FC
330
1F
100
AcDbEntity
  8
0
  6
Continuous
 62
     7
370
    35
100
AcDbPolyline
 90
       15
 70
   128
 43
0.0
 10
470.5099952529
 20
-119.8597447559
 10
470.6429600777
 20
-118.4202551158
 10
471.0351871408
 20
-116.899429578
 10
471.6670085393
 20
-115.3735286854
 10
472.50674211
 20
-113.9190674802
 10
473.5122801054
 20
-112.6089787207
 10
474.6332006516
 20
-111.5089557277
 10
475.8132961118
 20
-110.6741582474
 10
476.9933915719
 20
-110.1464465113
 10
478.1143121181
 20
-109.9522821892
 10
479.1198501135
 20
-110.1014014911
 10
479.9595836842
 20
-110.5863269526
 10
480.5914050827
 20
-111.3827423861
 10
480.9836321458
 20
-112.4507121962
 10
481.1165969707
 20
-113.7366839172
  0
LINE
  5
FD
330
1F
100
AcDbEntity
  8
0
  6
Continuous
 62
     7
370
    35
100
AcDbLine
 10
470.5099952529
 20
-141.9063466768
 30
0.0
 11
470.5099952529
 21
-119.8597447559
 31
0.0
  0
LWPOLYLINE
  5
FE
330
1F
100
AcDbEntity
  8
0
  6
Continuous
 62
     7
370
    35
100
AcDbPolyline
 90
       15
 70
   128
 43
0.0
 10
391.31403576
 20
-187.6252009389
 10
391.1810709351
 20
-189.064690579
 10
390.788843872
 20
-190.5855161168
 10
390.1570224735
 20
-192.1114170095
 10
389.3172889028
 20
-193.5658782146
 10
388.3117509074
 20
-194.8759669741
 10
387.1908303612
 20
-195.9759899671
 10
386.0107349011
 20
-196.8107874474
 10
384.8306394409
 20
-197.3384991835
 10
383.7097188947
 20
-197.5326635056
 10
382.7041808993
 20
-197.3835442037
 10
381.8644473286
 20
-196.8986187422
 10
381.2326259301
 20
-196.1022033087
 10
380.840398867
 20
-195.0342334986
 10
380.7074340422
 20
-193.7482617776
  0
LINE
  5
FF
330
1F
100
AcDbEntity
  8
0
  6
Continuous
 62
     7
370
    35
100
AcDbLine
 10
391.31403576
 20
-165.578599018
 30
0.0
 11
391.31403576
 21
-187.6252009389
 31
0.0
  0
LWPOLYLINE
  5
100
330
1F
100
AcDbEntity
  8
0
  6
Continuous
 62
     7
370
    35
100
AcDbPolyline
 90
       15
 70
   128
 43
0.0
 10
380.7074340422
 20
-171.7016598567
 10
380.840398867
 20
-170.2621702166
 10
381.2326259301
 20
-168.7413446787
 10
381.8644473286
 20
-167.2154437861
 10
382.7041808993
 20
-165.760982581
 10
383.7097188947
 20
-164.4508938215
 10
384.8306394409
 20
-163.3508708285
 10
386.0107349011
 20
-162.5160733482
 10
387.1908303612
 20
-161.988361612
 10
388.3117509074
 20
-161.7941972899
 10
389.3172889028
 20
-161.9433165919
 10
390.1570224735
 20
-162.4282420534
 10
390.788843872
 20
-163.2246574868
 10
391.1810709351
 20
-164.292627297
 10
391.31403576
 20
-165.578599018
  0
LINE
  5
101
330
1F
100
AcDbEntity
  8
0
  6
Continuous
 62
     7
370
    35
100
AcDbLine
 10
380.7074340422
 20
-193.7482617776
 30
0.0
 11
380.7074340422
 21
-171.7016598567
 31
0.0
  0
LWPOLYLINE
  5
102
330
1F
100
AcDbEntity
  8
0
  6
Continuous
 62
     7
370
    35
100
AcDbPolyline
 90
       15
 70
   128
 43
0.0
 10
211.7089133386
 20
-187.6083480309
 10
211.5759485137
 20
-189.047837671
 10
211.1837214507
 20
-190.5686632088
 10
210.5519000522
 20
-192.0945641014
 10
209.7121664814
 20
-193.5490253066
 10
208.706628486
 20
-194.8591140661
 10
207.5857079399
 20
-195.9591370591
 10
206.4056124797
 20
-196.7939345394
 10
205.2255170195
 20
-197.3216462755
 10
204.1045964734
 20
-197.5158105976
 10
203.099058478
 20
-197.3666912957
 10
202.2593249072
 20
-196.8817658342
 10
201.6275035087
 20
-196.0853504007
 10
201.2352764456
 20
-195.0173805906
 10
201.1023116208
 20
-193.7314088696
  0
LINE
  5
103
330
1F
100
AcDbEntity
  8
0
  6
Continuous
 62
     7
370
    35
100
AcDbLine
 10
211.7089133386
 20
-165.56174611
 30
0.0
 11
211.7089133386
 21
-187.6083480309
 31
0.0
  0
LWPOLYLINE
  5
104
330
1F
100
AcDbEntity
  8
0
  6
Continuous
 62
     7
370
    35
100
AcDbPolyline
 90
       15
 70
   128
 43
0.0
 10
201.1023116208
 20
-171.6848069486
 10
201.2352764456
 20
-170.2453173086
 10
201.6275035087
 20
-168.7244917707
 10
202.2593249072
 20
-167.1985908781
 10
203.099058478
 20
-165.744129673
 10
204.1045964734
 20
-164.4340409135
 10
205.2255170195
 20
-163.3340179205
 10
206.4056124797
 20
-162.4992204402
 10
207.5857079399
 20
-161.971508704
 10
208.706628486
 20
-161.7773443819
 10
209.7121664814
 20
-161.9264636839
 10
210.5519000522
 20
-162.4113891453
 10
211.1837214507
 20
-163.2078045788
 10
211.5759485137
 20
-164.2757743889
 10
211.7089133386
 20
-165.56174611
  0
LINE
  5
105
330
1F
100
AcDbEntity
  8
0
  6
Continuous
 62
     7
370
    35
100
AcDbLine
 10
201.1023116208
 20
-193.7314088696
 30
0.0
 11
201.1023116208
 21
-171.6848069486
 31
0.0
  0
LWPOLYLINE
  5
106
330
1F
100
AcDbEntity
  8
0
  6
Continuous
 62
     7
370
    35
100
AcDbPolyline
 90
       15
 70
   128
 43
0.0
 10
111.2997504101
 20
-223.5267220494
 10
111.4327152349
 20
-222.0872324093
 10
111.824942298
 20
-220.5664068715
 10
112.4567636965
 20
-219.0405059788
 10
113.2964972673
 20
-217.5860447737
 10
114.3020352627
 20
-216.2759560142
 10
115.4229558088
 20
-215.1759330212
 10
116.603051269
 20
-214.3411355409
 10
117.7831467292
 20
-213.8134238047
 10
118.9040672753
 20
-213.6192594827
 10
119.9096052707
 20
-213.7683787846
 10
120.7493388415
 20
-214.2533042461
 10
121.38116024
 20
-215.0497196796
 10
121.773387303
 20
-216.1176894897
 10
121.9063521279
 20
-217.4036612107
  0
LINE
  5
107
330
1F
100
AcDbEntity
  8
0
  6
Continuous
 62
     7
370
    35
100
AcDbLine
 10
111.2997504101
 20
-245.5733239703
 30
0.0
 11
111.2997504101
 21
-223.5267220494
 31
0.0
  0
LWPOLYLINE
  5
108
330
1F
100
AcDbEntity
  8
0
  6
Continuous
 62
     7
370
    35
100
AcDbPolyline
 90
       15
 70
   128
 43
0.0
 10
121.9063521279
 20
-239.4502631316
 10
121.773387303
 20
-240.8897527717
 10
121.38116024
 20
-242.4105783095
 10
120.7493388415
 20
-243.9364792022
 10
119.9096052707
 20
-245.3909404073
 10
118.9040672753
 20
-246.7010291668
 10
117.7831467292
 20
-247.8010521598
 10
116.603051269
 20
-248.6358496401
 10
115.4229558088
 20
-249.1635613763
 10
114.3020352627
 20
-249.3577256983
 10
113.2964972673
 20
-249.2086063964
 10
112.4567636965
 20
-248.7236809349
 10
111.824942298
 20
-247.9272655014
 10
111.4327152349
 20
-246.8592956913
 10
111.2997504101
 20
-245.5733239703
  0
LINE
  5
109
330
1F
100
AcDbEntity
  8
0
  6
Continuous
 62
     7
370
    35
100
AcDbLine
 10
121.9063521279
 20
-217.4036612107
 30
0.0
 11
121.9063521279
 21
-239.4502631316
 31
0.0
  0
LWPOLYLINE
  5
10A
330
1F
100
AcDbEntity
  8
0
  6
Continuous
 62
     7
370
    35
100
AcDbPolyline
 90
       15
 70
   128
 43
0.0
 10
301.5114745493
 20
-135.7664329301
 10
301.3785097244
 20
-137.2059225702
 10
300.9862826614
 20
-138.726748108
 10
300.3544612629
 20
-140.2526490007
 10
299.5147276921
 20
-141.7071102058
 10
298.5091896967
 20
-143.0171989653
 10
297.3882691505
 20
-144.1172219583
 10
296.2081736904
 20
-144.9520194386
 10
295.0280782302
 20
-145.4797311748
 10
293.907157684
 20
-145.6738954969
 10
292.9016196887
 20
-145.5247761949
 10
292.0618861179
 20
-145.0398507334
 10
291.4300647194
 20
-144.2434353
 10
291.0378376563
 20
-143.1754654898
 10
290.9048728315
 20
-141.8894937688
  0
LINE
  5
10B
330
1F
100
AcDbEntity
  8
0
  6
Continuous
 62
     7
370
    35
100
AcDbLine
 10
301.5114745493
 20
-113.7198310092
 30
0.0
 11
301.5114745493
 21
-135.7664329301
 31
0.0
  0
LWPOLYLINE
  5
10C
330
1F
100
AcDbEntity
  8
0
  6
Continuous
 62
     7
370
    35
100
AcDbPolyline
 90
       15
 70
   128
 43
0.0
 10
290.9048728315
 20
-119.8428918479
 10
291.0378376563
 20
-118.4034022078
 10
291.4300647194
 20
-116.88257667
 10
292.0618861179
 20
-115.3566757773
 10
292.9016196887
 20
-113.9022145722
 10
293.907157684
 20
-112.5921258127
 10
295.0280782302
 20
-111.4921028197
 10
296.2081736904
 20
-110.6573053394
 10
297.3882691505
 20
-110.1295936032
 10
298.5091896967
 20
-109.9354292812
 10
299.5147276921
 20
-110.0845485831
 10
300.3544612629
 20
-110.5694740446
 10
300.9862826614
 20
-111.3658894781
 10
301.3785097244
 20
-112.4338592882
 10
301.5114745493
 20
-113.7198310092
  0
LINE
  5
10D
330
1F
100
AcDbEntity
  8
0
  6
Continuous
 62
     7
370
    35
100
AcDbLine
 10
290.9048728315
 20
-141.8894937688
 30
0.0
 11
290.9048728315
 21
-119.8428918479
 31
0.0
  0
LWPOLYLINE
  5
10E
330
1F
100
AcDbEntity
  8
0
  6
Continuous
 62
     7
370
    35
100
AcDbPolyline
 90
       15
 70
   128
 43
0.0
 10
560.3125564635
 20
35.6828534543
 10
560.4455212884
 20
37.1223430944
 10
560.8377483515
 20
38.6431686322
 10
561.46956975
 20
40.1690695249
 10
562.3093033207
 20
41.62353073
 10
563.3148413161
 20
42.9336194895
 10
564.4357618623
 20
44.0336424825
 10
565.6158573224
 20
44.8684399628
 10
566.7959527826
 20
45.396151699
 10
567.9168733288
 20
45.590316021
 10
568.9224113242
 20
45.4411967191
 10
569.7621448949
 20
44.9562712576
 10
570.3939662934
 20
44.1598558241
 10
570.7861933565
 20
43.091886014
 10
570.9191581813
 20
41.805914293
  0
LINE
  5
10F
330
1F
100
AcDbEntity
  8
0
  6
Continuous
 62
     7
370
    35
100
AcDbLine
 10
560.3125564635
 20
13.6362515334
 30
0.0
 11
560.3125564635
 21
35.6828534543
 31
0.0
  0
LWPOLYLINE
  5
110
330
1F
100
AcDbEntity
  8
0
  6
Continuous
 62
     7
370
    35
100
AcDbPolyline
 90
       15
 70
   128
 43
0.0
 10
570.9191581813
 20
19.7593123721
 10
570.7861933565
 20
18.319822732
 10
570.3939662934
 20
16.7989971942
 10
569.7621448949
 20
15.2730963015
 10
568.9224113242
 20
13.8186350964
 10
567.9168733288
 20
12.5085463369
 10
566.7959527826
 20
11.4085233439
 10
565.6158573224
 20
10.5737258636
 10
564.4357618623
 20
10.0460141274
 10
563.3148413161
 20
9.8518498054
 10
562.3093033207
 20
10.0009691073
 10
561.46956975
 20
10.4858945688
 10
560.8377483515
 20
11.2823100023
 10
560.4455212884
 20
12.3502798124
 10
560.3125564635
 20
13.6362515334
  0
LINE
  5
111
330
1F
100
AcDbEntity
  8
0
  6
Continuous
 62
     7
370
    35
100
AcDbLine
 10
570.9191581813
 20
41.805914293
 30
0.0
 11
570.9191581813
 21
19.7593123721
 31
0.0
  0
LWPOLYLINE
  5
112
330
1F
100
AcDbEntity
  8
0
  6
Continuous
 62
     7
370
    35
100
AcDbPolyline
 90
       15
 70
   128
 43
0.0
 10
750.5242806027
 20
123.4431425736
 10
750.3913157779
 20
122.0036529335
 10
749.9990887148
 20
120.4828273957
 10
749.3672673163
 20
118.956926503
 10
748.5275337455
 20
117.5024652979
 10
747.5219957502
 20
116.1923765384
 10
746.401075204
 20
115.0923535454
 10
745.2209797438
 20
114.2575560651
 10
744.0408842837
 20
113.7298443289
 10
742.9199637375
 20
113.5356800069
 10
741.9144257421
 20
113.6847993088
 10
741.0746921713
 20
114.1697247703
 10
740.4428707728
 20
114.9661402037
 10
740.0506437098
 20
116.0341100139
 10
739.9176788849
 20
117.3200817349
  0
LINE
  5
113
330
1F
100
AcDbEntity
  8
0
  6
Continuous
 62
     7
370
    35
100
AcDbLine
 10
750.5242806027
 20
145.4897444945
 30
0.0
 11
750.5242806027
 21
123.4431425736
 31
0.0
  0
LWPOLYLINE
  5
114
330
1F
100
AcDbEntity
  8
0
  6
Continuous
 62
     7
370
    35
100
AcDbPolyline
 90
       15
 70
   128
 43
0.0
 10
739.9176788849
 20
139.3666836558
 10
740.0506437098
 20
140.8061732959
 10
740.4428707728
 20
142.3269988337
 10
741.0746921713
 20
143.8528997264
 10
741.9144257421
 20
145.3073609315
 10
742.9199637375
 20
146.617449691
 10
744.0408842837
 20
147.717472684
 10
745.2209797438
 20
148.5522701643
 10
746.401075204
 20
149.0799819005
 10
747.5219957502
 20
149.2741462225
 10
748.5275337455
 20
149.1250269206
 10
749.3672673163
 20
148.6401014591
 10
749.9990887148
 20
147.8436860256
 10
750.3913157779
 20
146.7757162155
 10
750.5242806027
 20
145.4897444945
  0
LINE
  5
115
330
1F
100
AcDbEntity
  8
0
  6
Continuous
 62
     7
370
    35
100
AcDbLine
 10
739.9176788849
 20
117.3200817349
 30
0.0
 11
739.9176788849
 21
139.3666836558
 31
0.0
  0
LWPOLYLINE
  5
116
330
1F
100
AcDbEntity
  8
0
  6
Continuous
 62
     7
370
    35
100
AcDbPolyline
 90
       15
 70
   128
 43
0.0
 10
650.1151176742
 20
87.5247685551
 10
650.2480824991
 20
88.9642581952
 10
650.6403095621
 20
90.485083733
 10
651.2721309606
 20
92.0109846256
 10
652.1118645314
 20
93.4654458308
 10
653.1174025268
 20
94.7755345902
 10
654.238323073
 20
95.8755575832
 10
655.4184185331
 20
96.7103550635
 10
656.5985139933
 20
97.2380667997
 10
657.7194345395
 20
97.4322311218
 10
658.7249725348
 20
97.2831118198
 10
659.5647061056
 20
96.7981863584
 10
660.1965275041
 20
96.0017709249
 10
660.5887545672
 20
94.9338011148
 10
660.721719392
 20
93.6478293937
  0
LINE
  5
117
330
1F
100
AcDbEntity
  8
0
  6
Continuous
 62
     7
370
    35
100
AcDbLine
 10
650.1151176742
 20
65.4781666342
 30
0.0
 11
650.1151176742
 21
87.5247685551
 31
0.0
  0
LWPOLYLINE
  5
118
330
1F
100
AcDbEntity
  8
0
  6
Continuous
 62
     7
370
    35
100
AcDbPolyline
 90
       15
 70
   128
 43
0.0
 10
660.721719392
 20
71.6012274728
 10
660.5887545672
 20
70.1617378327
 10
660.1965275041
 20
68.6409122949
 10
659.5647061056
 20
67.1150114023
 10
658.7249725348
 20
65.6605501971
 10
657.7194345395
 20
64.3504614376
 10
656.5985139933
 20
63.2504384447
 10
655.4184185331
 20
62.4156409643
 10
654.238323073
 20
61.8879292282
 10
653.1174025268
 20
61.6937649061
 10
652.1118645314
 20
61.8428842081
 10
651.2721309606
 20
62.3278096695
 10
650.6403095621
 20
63.124225103
 10
650.2480824991
 20
64.1921949131
 10
650.1151176742
 20
65.4781666342
  0
LINE
  5
119
330
1F
100
AcDbEntity
  8
0
  6
Continuous
 62
     7
370
    35
100
AcDbLine
 10
660.721719392
 20
93.6478293937
 30
0.0
 11
660.721719392
 21
71.6012274728
 31
0.0
  0
LWPOLYLINE
  5
11A
330
1F
100
AcDbEntity
  8
0
  6
Continuous
 62
     7
370
    35
100
AcDbPolyline
 90
       15
 70
   128
 43
0.0
 10
380.7074340422
 20
-68.0009767472
 10
380.840398867
 20
-66.5614871071
 10
381.2326259301
 20
-65.0406615693
 10
381.8644473286
 20
-63.5147606766
 10
382.7041808993
 20
-62.0602994715
 10
383.7097188947
 20
-60.750210712
 10
384.8306394409
 20
-59.650187719
 10
386.0107349011
 20
-58.8153902387
 10
387.1908303612
 20
-58.2876785025
 10
388.3117509074
 20
-58.0935141805
 10
389.3172889028
 20
-58.2426334824
 10
390.1570224735
 20
-58.7275589439
 10
390.788843872
 20
-59.5239743773
 10
391.1810709351
 20
-60.5919441875
 10
391.31403576
 20
-61.8779159085
  0
LINE
  5
11B
330
1F
100
AcDbEntity
  8
0
  6
Continuous
 62
     7
370
    35
100
AcDbLine
 10
380.7074340422
 20
-90.0475786681
 30
0.0
 11
380.7074340422
 21
-68.0009767472
 31
0.0
  0
LWPOLYLINE
  5
11C
330
1F
100
AcDbEntity
  8
0
  6
Continuous
 62
     7
370
    35
100
AcDbPolyline
 90
       15
 70
   128
 43
0.0
 10
391.31403576
 20
-83.9245178294
 10
391.1810709351
 20
-85.3640074695
 10
390.788843872
 20
-86.8848330073
 10
390.1570224735
 20
-88.4107339
 10
389.3172889028
 20
-89.8651951051
 10
388.3117509074
 20
-91.1752838646
 10
387.1908303612
 20
-92.2753068576
 10
386.0107349011
 20
-93.1101043379
 10
384.8306394409
 20
-93.6378160741
 10
383.7097188947
 20
-93.8319803961
 10
382.7041808993
 20
-93.6828610942
 10
381.8644473286
 20
-93.1979356327
 10
381.2326259301
 20
-92.4015201992
 10
380.840398867
 20
-91.3335503891
 10
380.7074340422
 20
-90.0475786681
  0
LINE
  5
11D
330
1F
100
AcDbEntity
  8
0
  6
Continuous
 62
     7
370
    35
100
AcDbLine
 10
391.31403576
 20
-61.8779159085
 30
0.0
 11
391.31403576
 21
-83.9245178294
 31
0.0
  0
LWPOLYLINE
  5
11E
330
1F
100
AcDbEntity
  8
0
  6
Continuous
 62
     7
370
    35
100
AcDbPolyline
 90
       15
 70
   128
 43
0.0
 10
470.5099952529
 20
-16.1590616464
 10
470.6429600777
 20
-14.7195720063
 10
471.0351871408
 20
-13.1987464685
 10
471.6670085393
 20
-11.6728455759
 10
472.50674211
 20
-10.2183843707
 10
473.5122801054
 20
-8.9082956112
 10
474.6332006516
 20
-7.8082726183
 10
475.8132961118
 20
-6.9734751379
 10
476.9933915719
 20
-6.4457634018
 10
478.1143121181
 20
-6.2515990797
 10
479.1198501135
 20
-6.4007183817
 10
479.9595836842
 20
-6.8856438431
 10
480.5914050827
 20
-7.6820592766
 10
480.9836321458
 20
-8.7500290867
 10
481.1165969707
 20
-10.0360008077
  0
LINE
  5
11F
330
1F
100
AcDbEntity
  8
0
  6
Continuous
 62
     7
370
    35
100
AcDbLine
 10
470.5099952529
 20
-38.2056635673
 30
0.0
 11
470.5099952529
 21
-16.1590616464
 31
0.0
  0
LWPOLYLINE
  5
120
330
1F
100
AcDbEntity
  8
0
  6
Continuous
 62
     7
370
    35
100
AcDbPolyline
 90
       15
 70
   128
 43
0.0
 10
481.1165969707
 20
-32.0826027287
 10
480.9836321458
 20
-33.5220923688
 10
480.5914050827
 20
-35.0429179066
 10
479.9595836842
 20
-36.5688187992
 10
479.1198501135
 20
-38.0232800044
 10
478.1143121181
 20
-39.3333687638
 10
476.9933915719
 20
-40.4333917568
 10
475.8132961118
 20
-41.2681892371
 10
474.6332006516
 20
-41.7959009733
 10
473.5122801054
 20
-41.9900652954
 10
472.50674211
 20
-41.8409459934
 10
471.6670085393
 20
-41.356020532
 10
471.0351871408
 20
-40.5596050985
 10
470.6429600777
 20
-39.4916352884
 10
470.5099952529
 20
-38.2056635673
  0
LINE
  5
121
330
1F
100
AcDbEntity
  8
0
  6
Continuous
 62
     7
370
    35
100
AcDbLine
 10
481.1165969707
 20
-10.0360008077
 30
0.0
 11
481.1165969707
 21
-32.0826027287
 31
0.0
  0
LWPOLYLINE
  5
122
330
1F
100
AcDbEntity
  8
0
  6
Continuous
 62
     7
370
    35
100
AcDbPolyline
 90
       12
 70
   128
 43
0.0
 10
703.5016796538
 20
59.5532363206
 10
704.4977546609
 20
59.9628799815
 10
705.4131335949
 20
60.0085803471
 10
706.1736578983
 20
59.6866350455
 10
706.7177144153
 20
59.0231261706
 10
707.0012269224
 20
58.0718072651
 10
707.0012269224
 20
56.9097485293
 10
706.7177144153
 20
55.6310930507
 10
706.1736578983
 20
54.3394298919
 10
705.4131335949
 20
53.1394019201
 10
704.4977546609
 20
52.1282282647
 10
703.5016796538
 20
51.3878282017
  0
LINE
  5
123
330
1F
100
AcDbEntity
  8
0
  6
Continuous
 62
     7
370
    35
100
AcDbLine
 10
692.1879711548
 20
53.021971426
 30
0.0
 11
703.5016796538
 21
59.5532363206
 31
0.0
  0
LWPOLYLINE
  5
124
330
1F
100
AcDbEntity
  8
0
  6
Continuous
 62
     7
370
    35
100
AcDbPolyline
 90
       12
 70
   128
 43
0.0
 10
692.1879711548
 20
44.8565633072
 10
691.1918961477
 20
44.4469196463
 10
690.2765172138
 20
44.4012192807
 10
689.5159929103
 20
44.7231645822
 10
688.9719363933
 20
45.3866734572
 10
688.6884238862
 20
46.3379923626
 10
688.6884238862
 20
47.5000510985
 10
688.9719363933
 20
48.7787065771
 10
689.5159929103
 20
50.0703697359
 10
690.2765172138
 20
51.2703977077
 10
691.1918961477
 20
52.281571363
 10
692.1879711548
 20
53.021971426
  0
LINE
  5
125
330
1F
100
AcDbEntity
  8
0
  6
Continuous
 62
     7
370
    35
100
AcDbLine
 10
703.5016796538
 20
51.3878282017
 30
0.0
 11
692.1879711548
 21
44.8565633072
 31
0.0
  0
LWPOLYLINE
  5
126
330
1F
100
AcDbEntity
  8
0
  6
Continuous
 62
     7
370
    35
100
AcDbPolyline
 90
       12
 70
   128
 43
0.0
 10
158.322351359
 20
-263.3374989059
 10
157.3262763519
 20
-263.7471425668
 10
156.4108974179
 20
-263.7928429324
 10
155.6503731145
 20
-263.4708976308
 10
155.1063165975
 20
-262.8073887559
 10
154.8228040904
 20
-261.8560698504
 10
154.8228040904
 20
-260.6940111146
 10
155.1063165975
 20
-259.415355636
 10
155.6503731145
 20
-258.1236924772
 10
156.4108974179
 20
-256.9236645054
 10
157.3262763519
 20
-255.91249085
 10
158.322351359
 20
-255.1720907871
  0
LINE
  5
127
330
1F
100
AcDbEntity
  8
0
  6
Continuous
 62
     7
370
    35
100
AcDbLine
 10
169.636059858
 20
-256.8062340113
 30
0.0
 11
158.322351359
 21
-263.3374989059
 31
0.0
  0
LWPOLYLINE
  5
128
330
1F
100
AcDbEntity
  8
0
  6
Continuous
 62
     7
370
    35
100
AcDbPolyline
 90
       12
 70
   128
 43
0.0
 10
169.636059858
 20
-248.6408258925
 10
170.6321348651
 20
-248.2311822316
 10
171.547513799
 20
-248.185481866
 10
172.3080381025
 20
-248.5074271675
 10
172.8520946195
 20
-249.1709360425
 10
173.1356071266
 20
-250.1222549479
 10
173.1356071266
 20
-251.2843136838
 10
172.8520946195
 20
-252.5629691624
 10
172.3080381025
 20
-253.8546323212
 10
171.547513799
 20
-255.054660293
 10
170.6321348651
 20
-256.0658339483
 10
169.636059858
 20
-256.8062340113
  0
LINE
  5
129
330
1F
100
AcDbEntity
  8
0
  6
Continuous
 62
     7
370
    35
100
AcDbLine
 10
158.322351359
 20
-255.1720907871
 30
0.0
 11
169.636059858
 21
-248.6408258925
 31
0.0
  0
LWPOLYLINE
  5
12A
330
1F
100
AcDbEntity
  8
0
  6
Continuous
 62
     7
370
    35
100
AcDbPolyline
 90
       22
 70
   128
 43
0.0
 10
428.0835883817
 20
-103.5249475163
 10
428.2092474629
 20
-102.4896875551
 10
428.5750593456
 20
-101.4013320977
 10
429.1485200388
 20
-100.3565863026
 10
429.8786750433
 20
-99.4482804185
 10
430.7006468827
 20
-98.7571214092
 10
431.5413997518
 20
-98.3445217858
 10
432.3262290688
 20
-98.2471428356
 10
432.9853993045
 20
-98.4736371055
 10
433.4603402909
 20
-99.0038795857
 10
433.7088514371
 20
-99.790755905
 10
433.7088514371
 20
-100.7643486493
 10
433.4603402909
 20
-101.8381498306
 10
432.9853993045
 20
-102.9167475016
 10
432.3262290688
 20
-103.9043035261
 10
431.5413997518
 20
-104.7130692174
 10
430.7006468827
 20
-105.2711821945
 10
429.8786750433
 20
-105.5290516703
 10
429.1485200388
 20
-105.4637648102
 10
428.5750593456
 20
-105.0811226382
 10
428.2092474629
 20
-104.4151245905
 10
428.0835883817
 20
-103.5249475163
  0
LINE
  5
12B
330
1F
100
AcDbEntity
  8
0
  6
Continuous
 62
     7
370
    35
100
AcDbLine
 10
121.9063521279
 20
-217.4036612107
 30
0.0
 11
121.1992453467
 21
-216.9954571548
 31
0.0
  0
ARC
  5
12C
330
1F
100
AcDbEntity
  8
0
  6
Continuous
 62
     7
370
    35
100
AcDbCircle
 10
117.3705011199
 20
-216.6192425363
 30
0.0
 40
3.847183358434942
100
AcDbArc
 50
354.3880985856
 51
47.2394268816
  0
LINE
  5
12D
330
1F
100
AcDbEntity
  8
0
  6
Continuous
 62
     7
370
    35
100
AcDbLine
 10
121.9063521279
 20
-239.4502631316
 30
0.0
 11
121.1992453467
 21
-239.0420590757
 31
0.0
  0
LINE
  5
12E
330
1F
100
AcDbEntity
  8
0
  6
Continuous
 62
     7
370
    35
100
AcDbLine
 10
121.1992453467
 20
-216.9954571548
 30
0.0
 11
121.1992453467
 21
-239.0420590757
 31
0.0
  0
LWPOLYLINE
  5
12F
330
1F
100
AcDbEntity
  8
0
  6
Continuous
 62
     7
370
    35
100
AcDbPolyline
 90
       12
 70
   128
 43
0.0
 10
121.1992453467
 20
-239.0420590757
 10
121.0662805218
 20
-240.4815487158
 10
120.6740534588
 20
-242.0023742536
 10
120.0422320603
 20
-243.5282751463
 10
119.2024984895
 20
-244.9827363514
 10
118.1969604941
 20
-246.2928251109
 10
117.076039948
 20
-247.3928481039
 10
115.8959444878
 20
-248.2276455842
 10
114.7158490276
 20
-248.7553573204
 10
113.5949284815
 20
-248.9495216424
 10
112.5893904861
 20
-248.8004023405
 10
112.5165024227
 20
-248.7741299692
  0
LINE
  5
130
330
1F
100
AcDbEntity
  8
0
  6
Continuous
 62
     7
370
    35
100
AcDbLine
 10
121.9063521279
 20
-321.1043443202
 30
0.0
 11
121.1992453467
 21
-320.6961402643
 31
0.0
  0
ARC
  5
131
330
1F
100
AcDbEntity
  8
0
  6
Continuous
 62
     7
370
    35
100
AcDbCircle
 10
117.3705011199
 20
-320.3199256458
 30
0.0
 40
3.847183358443143
100
AcDbArc
 50
354.3880985856
 51
47.2394268812
  0
LINE
  5
132
330
1F
100
AcDbEntity
  8
0
  6
Continuous
 62
     7
370
    35
100
AcDbLine
 10
211.7089133386
 20
-165.56174611
 30
0.0
 11
211.0018065574
 21
-165.1535420541
 31
0.0
  0
ARC
  5
133
330
1F
100
AcDbEntity
  8
0
  6
Continuous
 62
     7
370
    35
100
AcDbCircle
 10
207.1730623306
 20
-164.7773274355
 30
0.0
 40
3.847183358436676
100
AcDbArc
 50
354.3880985856
 51
47.239426882
  0
LINE
  5
134
330
1F
100
AcDbEntity
  8
0
  6
Continuous
 62
     7
370
    35
100
AcDbLine
 10
158.322351359
 20
-263.3374989059
 30
0.0
 11
157.6152445778
 21
-262.92929485
 31
0.0
  0
ARC
  5
135
330
1F
100
AcDbEntity
  8
0
  6
Continuous
 62
     7
370
    35
100
AcDbCircle
 10
156.0991671229
 20
-260.7659531441
 30
0.0
 40
2.641692295841273
100
AcDbArc
 50
256.7596043641
 51
305.0229062373
  0
LINE
  5
136
330
1F
100
AcDbEntity
  8
0
  6
Continuous
 62
     7
370
    35
100
AcDbLine
 10
70.8178871872
 20
-412.4499543351
 30
0.0
 11
792.0668039974
 21
3.9181826945
 31
0.0
  0
LINE
  5
137
330
1F
100
AcDbEntity
  8
0
  6
Continuous
 62
     7
370
    35
100
AcDbLine
 10
792.0668039974
 20
3.9181826945
 30
0.0
 11
795.7791145987
 21
1.7751114009
 31
0.0
  0
ARC
  5
138
330
1F
100
AcDbEntity
  8
0
  6
Continuous
 62
     7
370
    35
100
AcDbCircle
 10
795.3143335183
 20
0.5504992332
 30
0.0
 40
1.309845950502889
100
AcDbArc
 50
290.7834207995
 51
69.2165792005
  0
LINE
  5
139
330
1F
100
AcDbEntity
  8
0
  6
Continuous
 62
     7
370
    35
100
AcDbLine
 10
795.7791145987
 20
-0.6741129345
 30
0.0
 11
78.7728384755
 21
-414.5930256286
 31
0.0
  0
ARC
  5
13A
330
1F
100
AcDbEntity
  8
0
  6
Continuous
 62
     7
370
    35
100
AcDbCircle
 10
76.6515181319
 20
-410.4988923738
 30
0.0
 40
4.611065723735162
100
AcDbArc
 50
242.6096722366
 51
297.3903277634
  0
LINE
  5
13B
330
1F
100
AcDbEntity
  8
0
  6
Continuous
 62
     7
370
    35
100
AcDbLine
 10
74.5301977884
 20
-414.5930256286
 30
0.0
 11
70.8178871872
 21
-412.4499543351
 31
0.0
  0
LINE
  5
13C
330
1F
100
AcDbEntity
  8
0
  6
Continuous
 62
     7
370
    35
100
AcDbLine
 10
74.5301977884
 20
-415.4095664405
 30
0.0
 11
74.5301977884
 21
-414.5930256286
 31
0.0
  0
LINE
  5
13D
330
1F
100
AcDbEntity
  8
0
  6
Continuous
 62
     7
370
    35
100
AcDbLine
 10
78.7728384755
 20
-414.5930256286
 30
0.0
 11
78.7728384755
 21
-415.4095664405
 31
0.0
  0
ARC
  5
13E
330
1F
100
AcDbEntity
  8
0
  6
Continuous
 62
     7
370
    35
100
AcDbCircle
 10
76.6515181319
 20
-411.3154331857
 30
0.0
 40
4.611065723735213
100
AcDbArc
 50
242.6096722366
 51
297.3903277634
  0
LINE
  5
13F
330
1F
100
AcDbEntity
  8
0
  6
Continuous
 62
     7
370
    35
100
AcDbLine
 10
70.8178871872
 20
-412.4499543351
 30
0.0
 11
70.8178871872
 21
-413.266495147
 31
0.0
  0
LINE
  5
140
330
1F
100
AcDbEntity
  8
0
  6
Continuous
 62
     7
370
    35
100
AcDbLine
 10
74.5301977884
 20
-415.4095664405
 30
0.0
 11
70.8178871872
 21
-413.266495147
 31
0.0
  0
LINE
  5
141
330
1F
100
AcDbEntity
  8
0
  6
Continuous
 62
     7
370
    35
100
AcDbLine
 10
795.7791145987
 20
-1.4906537464
 30
0.0
 11
795.7791145987
 21
-0.6741129345
 31
0.0
  0
LINE
  5
142
330
1F
100
AcDbEntity
  8
0
  6
Continuous
 62
     7
370
    35
100
AcDbLine
 10
795.7791145987
 20
-1.4906537464
 30
0.0
 11
78.7728384755
 21
-415.4095664405
 31
0.0
  0
LINE
  5
143
330
1F
100
AcDbEntity
  8
0
  6
Continuous
 62
     7
370
    35
100
AcDbLine
 10
121.9063521279
 20
-343.1509462411
 30
0.0
 11
121.1992453467
 21
-342.7427421852
 31
0.0
  0
LINE
  5
144
330
1F
100
AcDbEntity
  8
0
  6
Continuous
 62
     7
370
    35
100
AcDbLine
 10
121.1992453467
 20
-320.6961402643
 30
0.0
 11
121.1992453467
 21
-342.7427421852
 31
0.0
  0
LINE
  5
145
330
1F
100
AcDbEntity
  8
0
  6
Continuous
 62
     7
370
    35
100
AcDbLine
 10
211.7089133386
 20
-187.6083480309
 30
0.0
 11
211.0018065574
 21
-187.200143975
 31
0.0
  0
LINE
  5
146
330
1F
100
AcDbEntity
  8
0
  6
Continuous
 62
     7
370
    35
100
AcDbLine
 10
211.0018065574
 20
-165.1535420541
 30
0.0
 11
211.0018065574
 21
-187.200143975
 31
0.0
  0
ARC
  5
147
330
1F
100
AcDbEntity
  8
0
  6
Continuous
 62
     7
370
    35
100
AcDbCircle
 10
72.2670784975
 20
-411.0009351369
 30
0.0
 40
2.689408413250944
100
AcDbArc
 50
182.6054784857
 51
237.39452166
  0
ARC
  5
148
330
1F
100
AcDbEntity
  8
0
  6
Continuous
 62
     7
370
    35
100
AcDbCircle
 10
71.4389691773
 20
-411.4790000451
 30
0.0
 40
1.152603605678713
100
AcDbArc
 50
182.6054784857
 51
237.39452166
  0
ARC
  5
149
330
1F
100
AcDbEntity
  8
0
  6
Continuous
 62
     7
370
    35
100
AcDbCircle
 10
792.6878859876
 20
4.8891369845
 30
0.0
 40
1.152603605678693
100
AcDbArc
 50
182.6054784856
 51
237.39452166
  0
LINE
  5
14A
330
1F
100
AcDbEntity
  8
0
  6
Continuous
 62
     7
370
    35
100
AcDbLine
 10
169.636059858
 20
-256.8062340113
 30
0.0
 11
168.9289530768
 21
-256.3980299554
 31
0.0
  0
LINE
  5
14B
330
1F
100
AcDbEntity
  8
0
  6
Continuous
 62
     7
370
    35
100
AcDbLine
 10
168.9289530768
 20
-256.3980299554
 30
0.0
 11
157.6152445778
 21
-262.92929485
 31
0.0
  0
LWPOLYLINE
  5
14C
330
1F
100
AcDbEntity
  8
0
  6
Continuous
 62
     7
370
    35
100
AcDbPolyline
 90
       12
 70
   128
 43
0.0
 10
121.1992453467
 20
-342.7427421852
 10
121.0662805218
 20
-344.1822318253
 10
120.6740534588
 20
-345.7030573631
 10
120.0422320603
 20
-347.2289582558
 10
119.2024984895
 20
-348.6834194609
 10
118.1969604941
 20
-349.9935082204
 10
117.076039948
 20
-351.0935312134
 10
115.8959444878
 20
-351.9283286937
 10
114.7158490276
 20
-352.4560404299
 10
113.5949284815
 20
-352.6502047519
 10
112.5893904861
 20
-352.50108545
 10
112.5165024229
 20
-352.4748130787
  0
LWPOLYLINE
  5
14D
330
1F
100
AcDbEntity
  8
0
  6
Continuous
 62
     7
370
    35
100
AcDbPolyline
 90
       12
 70
   128
 43
0.0
 10
211.0018065574
 20
-187.200143975
 10
210.8688417325
 20
-188.6396336151
 10
210.4766146695
 20
-190.1604591529
 10
209.844793271
 20
-191.6863600455
 10
209.0050597002
 20
-193.1408212507
 10
207.9995217048
 20
-194.4509100102
 10
206.8786011587
 20
-195.5509330031
 10
205.6985056985
 20
-196.3857304835
 10
204.5184102383
 20
-196.9134422196
 10
203.3974896922
 20
-197.1076065417
 10
202.3919516968
 20
-196.9584872397
 10
202.3190636332
 20
-196.9322148684
  0
LWPOLYLINE
  5
14E
330
1F
100
AcDbEntity
  8
0
  6
Continuous
 62
     7
370
    35
100
AcDbPolyline
 90
        9
 70
   128
 43
0.0
 10
171.7571831786
 20
-248.2326976519
 10
172.1449878383
 20
-248.7627319866
 10
172.4285003454
 20
-249.714050892
 10
172.4285003454
 20
-250.8761096279
 10
172.1449878383
 20
-252.1547651065
 10
171.6009313213
 20
-253.4464282653
 10
170.8404070178
 20
-254.6464562371
 10
169.9250280839
 20
-255.6576298924
 10
168.9289530768
 20
-256.3980299554
  0
LINE
  5
14F
330
1F
100
AcDbEntity
  8
0
  6
Continuous
 62
     7
370
    35
100
AcDbLine
 10
211.7089133386
 20
-269.2624292195
 30
0.0
 11
211.0018065574
 21
-268.8542251636
 31
0.0
  0
ARC
  5
150
330
1F
100
AcDbEntity
  8
0
  6
Continuous
 62
     7
370
    35
100
AcDbCircle
 10
207.1730623306
 20
-268.478010545
 30
0.0
 40
3.847183358464896
100
AcDbArc
 50
354.3880985857
 51
47.2394268806
  0
LINE
  5
151
330
1F
100
AcDbEntity
  8
0
  6
Continuous
 62
     7
370
    35
100
AcDbLine
 10
301.5114745493
 20
-113.7198310092
 30
0.0
 11
300.8043677681
 21
-113.3116269533
 31
0.0
  0
ARC
  5
152
330
1F
100
AcDbEntity
  8
0
  6
Continuous
 62
     7
370
    35
100
AcDbCircle
 10
296.9756235413
 20
-112.9354123348
 30
0.0
 40
3.847183358453028
100
AcDbArc
 50
354.3880985857
 51
47.2394268815
  0
LINE
  5
153
330
1F
100
AcDbEntity
  8
0
  6
Continuous
 62
     7
370
    35
100
AcDbLine
 10
211.7089133386
 20
-291.3090311404
 30
0.0
 11
211.0018065574
 21
-290.9008270845
 31
0.0
  0
LINE
  5
154
330
1F
100
AcDbEntity
  8
0
  6
Continuous
 62
     7
370
    35
100
AcDbLine
 10
211.0018065574
 20
-268.8542251636
 30
0.0
 11
211.0018065574
 21
-290.9008270845
 31
0.0
  0
LINE
  5
155
330
1F
100
AcDbEntity
  8
0
  6
Continuous
 62
     7
370
    35
100
AcDbLine
 10
301.5114745493
 20
-135.7664329301
 30
0.0
 11
300.8043677681
 21
-135.3582288742
 31
0.0
  0
LINE
  5
156
330
1F
100
AcDbEntity
  8
0
  6
Continuous
 62
     7
370
    35
100
AcDbLine
 10
300.8043677681
 20
-113.3116269533
 30
0.0
 11
300.8043677681
 21
-135.3582288742
 31
0.0
  0
LWPOLYLINE
  5
157
330
1F
100
AcDbEntity
  8
0
  6
Continuous
 62
     7
370
    35
100
AcDbPolyline
 90
       12
 70
   128
 43
0.0
 10
211.0018065574
 20
-290.9008270845
 10
210.8688417325
 20
-292.3403167246
 10
210.4766146695
 20
-293.8611422624
 10
209.844793271
 20
-295.387043155
 10
209.0050597002
 20
-296.8415043602
 10
207.9995217048
 20
-298.1515931196
 10
206.8786011587
 20
-299.2516161126
 10
205.6985056985
 20
-300.0864135929
 10
204.5184102383
 20
-300.6141253291
 10
203.3974896922
 20
-300.8082896512
 10
202.3919516968
 20
-300.6591703492
 10
202.319063633
 20
-300.6328979778
  0
LWPOLYLINE
  5
158
330
1F
100
AcDbEntity
  8
0
  6
Continuous
 62
     7
370
    35
100
AcDbPolyline
 90
       12
 70
   128
 43
0.0
 10
300.8043677681
 20
-135.3582288742
 10
300.6714029432
 20
-136.7977185143
 10
300.2791758802
 20
-138.3185440521
 10
299.6473544817
 20
-139.8444449448
 10
298.8076209109
 20
-141.2989061499
 10
297.8020829155
 20
-142.6089949094
 10
296.6811623694
 20
-143.7090179024
 10
295.5010669092
 20
-144.5438153827
 10
294.320971449
 20
-145.0715271189
 10
293.2000509029
 20
-145.2656914409
 10
292.1945129075
 20
-145.116572139
 10
292.1216248439
 20
-145.0902997676
  0
LINE
  5
159
330
1F
100
AcDbEntity
  8
0
  6
Continuous
 62
     7
370
    35
100
AcDbLine
 10
301.5114745493
 20
-217.4205141187
 30
0.0
 11
300.8043677681
 21
-217.0123100628
 31
0.0
  0
ARC
  5
15A
330
1F
100
AcDbEntity
  8
0
  6
Continuous
 62
     7
370
    35
100
AcDbCircle
 10
296.9756235412
 20
-216.6360954443
 30
0.0
 40
3.847183358478983
100
AcDbArc
 50
354.3880985858
 51
47.2394268802
  0
LINE
  5
15B
330
1F
100
AcDbEntity
  8
0
  6
Continuous
 62
     7
370
    35
100
AcDbLine
 10
391.31403576
 20
-61.8779159085
 30
0.0
 11
390.6069289788
 21
-61.4697118526
 31
0.0
  0
ARC
  5
15C
330
1F
100
AcDbEntity
  8
0
  6
Continuous
 62
     7
370
    35
100
AcDbCircle
 10
386.778184752
 20
-61.093497234
 30
0.0
 40
3.847183358432853
100
AcDbArc
 50
354.3880985856
 51
47.2394268823
  0
LINE
  5
15D
330
1F
100
AcDbEntity
  8
0
  6
Continuous
 62
     7
370
    35
100
AcDbLine
 10
301.5114745493
 20
-239.4671160396
 30
0.0
 11
300.8043677681
 21
-239.0589119837
 31
0.0
  0
LINE
  5
15E
330
1F
100
AcDbEntity
  8
0
  6
Continuous
 62
     7
370
    35
100
AcDbLine
 10
300.8043677681
 20
-217.0123100628
 30
0.0
 11
300.8043677681
 21
-239.0589119837
 31
0.0
  0
LINE
  5
15F
330
1F
100
AcDbEntity
  8
0
  6
Continuous
 62
     7
370
    35
100
AcDbLine
 10
391.31403576
 20
-83.9245178294
 30
0.0
 11
390.6069289788
 21
-83.5163137735
 31
0.0
  0
LINE
  5
160
330
1F
100
AcDbEntity
  8
0
  6
Continuous
 62
     7
370
    35
100
AcDbLine
 10
390.6069289788
 20
-61.4697118526
 30
0.0
 11
390.6069289788
 21
-83.5163137735
 31
0.0
  0
LWPOLYLINE
  5
161
330
1F
100
AcDbEntity
  8
0
  6
Continuous
 62
     7
370
    35
100
AcDbPolyline
 90
       12
 70
   128
 43
0.0
 10
300.8043677681
 20
-239.0589119837
 10
300.6714029432
 20
-240.4984016238
 10
300.2791758802
 20
-242.0192271616
 10
299.6473544817
 20
-243.5451280543
 10
298.8076209109
 20
-244.9995892594
 10
297.8020829155
 20
-246.3096780189
 10
296.6811623694
 20
-247.4097010119
 10
295.5010669092
 20
-248.2444984922
 10
294.320971449
 20
-248.7722102284
 10
293.2000509029
 20
-248.9663745504
 10
292.1945129075
 20
-248.8172552485
 10
292.1216248439
 20
-248.7909828771
  0
LWPOLYLINE
  5
162
330
1F
100
AcDbEntity
  8
0
  6
Continuous
 62
     7
370
    35
100
AcDbPolyline
 90
       12
 70
   128
 43
0.0
 10
390.6069289788
 20
-83.5163137735
 10
390.4739641539
 20
-84.9558034136
 10
390.0817370909
 20
-86.4766289514
 10
389.4499156924
 20
-88.0025298441
 10
388.6101821216
 20
-89.4569910492
 10
387.6046441262
 20
-90.7670798087
 10
386.48372358
 20
-91.8671028017
 10
385.3036281199
 20
-92.701900282
 10
384.1235326597
 20
-93.2296120181
 10
383.0026121136
 20
-93.4237763402
 10
381.9970741182
 20
-93.2746570383
 10
381.9241860546
 20
-93.2483846669
  0
LINE
  5
163
330
1F
100
AcDbEntity
  8
0
  6
Continuous
 62
     7
370
    35
100
AcDbLine
 10
391.31403576
 20
-165.578599018
 30
0.0
 11
390.6069289788
 21
-165.1703949621
 31
0.0
  0
ARC
  5
164
330
1F
100
AcDbEntity
  8
0
  6
Continuous
 62
     7
370
    35
100
AcDbCircle
 10
386.778184752
 20
-164.7941803435
 30
0.0
 40
3.847183358413497
100
AcDbArc
 50
354.3880985855
 51
47.2394268832
  0
LINE
  5
165
330
1F
100
AcDbEntity
  8
0
  6
Continuous
 62
     7
370
    35
100
AcDbLine
 10
481.1165969707
 20
-10.0360008077
 30
0.0
 11
480.4094901895
 21
-9.6277967518
 31
0.0
  0
ARC
  5
166
330
1F
100
AcDbEntity
  8
0
  6
Continuous
 62
     7
370
    35
100
AcDbCircle
 10
476.5807459627
 20
-9.2515821333
 30
0.0
 40
3.84718335843693
100
AcDbArc
 50
354.3880985856
 51
47.2394268822
  0
LWPOLYLINE
  5
167
330
1F
100
AcDbEntity
  8
0
  6
Continuous
 62
     7
370
    35
100
AcDbPolyline
 90
       11
 70
   128
 43
0.0
 10
432.5268092684
 20
-98.2783825472
 10
432.7532335097
 20
-98.5956755298
 10
433.0017446559
 20
-99.3825518491
 10
433.0017446559
 20
-100.3561445934
 10
432.7532335097
 20
-101.4299457746
 10
432.2782925233
 20
-102.5085434457
 10
431.6191222876
 20
-103.4960994702
 10
430.8342929706
 20
-104.3048651615
 10
429.9935401015
 20
-104.8629781386
 10
429.1715682621
 20
-105.1208476144
 10
428.5901149633
 20
-105.0976759822
  0
LINE
  5
168
330
1F
100
AcDbEntity
  8
0
  6
Continuous
 62
     7
370
    35
100
AcDbLine
 10
391.31403576
 20
-187.6252009389
 30
0.0
 11
390.6069289788
 21
-187.216996883
 31
0.0
  0
LINE
  5
169
330
1F
100
AcDbEntity
  8
0
  6
Continuous
 62
     7
370
    35
100
AcDbLine
 10
390.6069289788
 20
-165.1703949621
 30
0.0
 11
390.6069289788
 21
-187.216996883
 31
0.0
  0
LINE
  5
16A
330
1F
100
AcDbEntity
  8
0
  6
Continuous
 62
     7
370
    35
100
AcDbLine
 10
481.1165969707
 20
-32.0826027287
 30
0.0
 11
480.4094901895
 21
-31.6743986728
 31
0.0
  0
LINE
  5
16B
330
1F
100
AcDbEntity
  8
0
  6
Continuous
 62
     7
370
    35
100
AcDbLine
 10
480.4094901895
 20
-9.6277967518
 30
0.0
 11
480.4094901895
 21
-31.6743986728
 31
0.0
  0
LWPOLYLINE
  5
16C
330
1F
100
AcDbEntity
  8
0
  6
Continuous
 62
     7
370
    35
100
AcDbPolyline
 90
       12
 70
   128
 43
0.0
 10
390.6069289788
 20
-187.216996883
 10
390.4739641539
 20
-188.6564865231
 10
390.0817370909
 20
-190.1773120609
 10
389.4499156924
 20
-191.7032129535
 10
388.6101821216
 20
-193.1576741587
 10
387.6046441262
 20
-194.4677629182
 10
386.48372358
 20
-195.5677859111
 10
385.3036281199
 20
-196.4025833915
 10
384.1235326597
 20
-196.9302951276
 10
383.0026121136
 20
-197.1244594497
 10
381.9970741182
 20
-196.9753401477
 10
381.9241860546
 20
-196.9490677764
  0
LWPOLYLINE
  5
16D
330
1F
100
AcDbEntity
  8
0
  6
Continuous
 62
     7
370
    35
100
AcDbPolyline
 90
       12
 70
   128
 43
0.0
 10
480.4094901895
 20
-31.6743986728
 10
480.2765253646
 20
-33.1138883128
 10
479.8842983016
 20
-34.6347138507
 10
479.2524769031
 20
-36.1606147433
 10
478.4127433323
 20
-37.6150759484
 10
477.4072053369
 20
-38.9251647079
 10
476.2862847907
 20
-40.0251877009
 10
475.1061893306
 20
-40.8599851812
 10
473.9260938704
 20
-41.3876969174
 10
472.8051733242
 20
-41.5818612395
 10
471.7996353289
 20
-41.4327419375
 10
471.7267472653
 20
-41.4064695661
  0
LINE
  5
16E
330
1F
100
AcDbEntity
  8
0
  6
Continuous
 62
     7
370
    35
100
AcDbLine
 10
481.1165969707
 20
-113.7366839172
 30
0.0
 11
480.4094901895
 21
-113.3284798613
 31
0.0
  0
ARC
  5
16F
330
1F
100
AcDbEntity
  8
0
  6
Continuous
 62
     7
370
    35
100
AcDbCircle
 10
476.5807459627
 20
-112.9522652428
 30
0.0
 40
3.847183358435899
100
AcDbArc
 50
354.3880985856
 51
47.2394268822
  0
LINE
  5
170
330
1F
100
AcDbEntity
  8
0
  6
Continuous
 62
     7
370
    35
100
AcDbLine
 10
570.9191581813
 20
41.805914293
 30
0.0
 11
570.2120514002
 21
42.2141183489
 31
0.0
  0
ARC
  5
171
330
1F
100
AcDbEntity
  8
0
  6
Continuous
 62
     7
370
    35
100
AcDbCircle
 10
566.3833071734
 20
42.5903329675
 30
0.0
 40
3.847183358432039
100
AcDbArc
 50
354.3880985856
 51
47.2394268822
  0
LINE
  5
172
330
1F
100
AcDbEntity
  8
0
  6
Continuous
 62
     7
370
    35
100
AcDbLine
 10
481.1165969707
 20
-135.7832858382
 30
0.0
 11
480.4094901895
 21
-135.3750817822
 31
0.0
  0
LINE
  5
173
330
1F
100
AcDbEntity
  8
0
  6
Continuous
 62
     7
370
    35
100
AcDbLine
 10
480.4094901895
 20
-113.3284798613
 30
0.0
 11
480.4094901895
 21
-135.3750817822
 31
0.0
  0
LINE
  5
174
330
1F
100
AcDbEntity
  8
0
  6
Continuous
 62
     7
370
    35
100
AcDbLine
 10
570.9191581813
 20
19.7593123721
 30
0.0
 11
570.2120514002
 21
20.167516428
 31
0.0
  0
LINE
  5
175
330
1F
100
AcDbEntity
  8
0
  6
Continuous
 62
     7
370
    35
100
AcDbLine
 10
570.2120514002
 20
42.2141183489
 30
0.0
 11
570.2120514002
 21
20.167516428
 31
0.0
  0
LWPOLYLINE
  5
176
330
1F
100
AcDbEntity
  8
0
  6
Continuous
 62
     7
370
    35
100
AcDbPolyline
 90
       12
 70
   128
 43
0.0
 10
480.4094901895
 20
-135.3750817822
 10
480.2765253646
 20
-136.8145714223
 10
479.8842983016
 20
-138.3353969601
 10
479.2524769031
 20
-139.8612978528
 10
478.4127433323
 20
-141.3157590579
 10
477.4072053369
 20
-142.6258478174
 10
476.2862847907
 20
-143.7258708104
 10
475.1061893306
 20
-144.5606682907
 10
473.9260938704
 20
-145.0883800269
 10
472.8051733242
 20
-145.2825443489
 10
471.7996353289
 20
-145.133425047
 10
471.7267472653
 20
-145.1071526756
  0
LWPOLYLINE
  5
177
330
1F
100
AcDbEntity
  8
0
  6
Continuous
 62
     7
370
    35
100
AcDbPolyline
 90
       12
 70
   128
 43
0.0
 10
570.2120514002
 20
20.167516428
 10
570.0790865753
 20
18.7280267879
 10
569.6868595122
 20
17.2072012501
 10
569.0550381137
 20
15.6813003574
 10
568.215304543
 20
14.2268391523
 10
567.2097665476
 20
12.9167503928
 10
566.0888460014
 20
11.8167273998
 10
564.9087505413
 20
10.9819299195
 10
563.7286550811
 20
10.4542181833
 10
562.6077345349
 20
10.2600538613
 10
561.6021965395
 20
10.4091731632
 10
561.529308476
 20
10.4354455346
  0
LINE
  5
178
330
1F
100
AcDbEntity
  8
0
  6
Continuous
 62
     7
370
    35
100
AcDbLine
 10
570.9191581813
 20
-61.8947688165
 30
0.0
 11
570.2120514002
 21
-61.4865647606
 31
0.0
  0
ARC
  5
179
330
1F
100
AcDbEntity
  8
0
  6
Continuous
 62
     7
370
    35
100
AcDbCircle
 10
566.3833071734
 20
-61.110350142
 30
0.0
 40
3.847183358424082
100
AcDbArc
 50
354.3880985855
 51
47.2394268825
  0
LINE
  5
17A
330
1F
100
AcDbEntity
  8
0
  6
Continuous
 62
     7
370
    35
100
AcDbLine
 10
660.721719392
 20
93.6478293937
 30
0.0
 11
660.0146126108
 21
94.0560334496
 31
0.0
  0
ARC
  5
17B
330
1F
100
AcDbEntity
  8
0
  6
Continuous
 62
     7
370
    35
100
AcDbCircle
 10
656.1858683841
 20
94.4322480682
 30
0.0
 40
3.84718335843107
100
AcDbArc
 50
354.3880985856
 51
47.2394268824
  0
LINE
  5
17C
330
1F
100
AcDbEntity
  8
0
  6
Continuous
 62
     7
370
    35
100
AcDbLine
 10
570.9191581813
 20
-83.9413707374
 30
0.0
 11
570.2120514002
 21
-83.5331666815
 31
0.0
  0
LINE
  5
17D
330
1F
100
AcDbEntity
  8
0
  6
Continuous
 62
     7
370
    35
100
AcDbLine
 10
570.2120514002
 20
-61.4865647606
 30
0.0
 11
570.2120514002
 21
-83.5331666815
 31
0.0
  0
LINE
  5
17E
330
1F
100
AcDbEntity
  8
0
  6
Continuous
 62
     7
370
    35
100
AcDbLine
 10
660.721719392
 20
71.6012274728
 30
0.0
 11
660.0146126108
 21
72.0094315287
 31
0.0
  0
LINE
  5
17F
330
1F
100
AcDbEntity
  8
0
  6
Continuous
 62
     7
370
    35
100
AcDbLine
 10
660.0146126108
 20
94.0560334496
 30
0.0
 11
660.0146126108
 21
72.0094315287
 31
0.0
  0
LWPOLYLINE
  5
180
330
1F
100
AcDbEntity
  8
0
  6
Continuous
 62
     7
370
    35
100
AcDbPolyline
 90
       12
 70
   128
 43
0.0
 10
570.2120514002
 20
-83.5331666815
 10
570.0790865753
 20
-84.9726563216
 10
569.6868595122
 20
-86.4934818594
 10
569.0550381137
 20
-88.0193827521
 10
568.215304543
 20
-89.4738439572
 10
567.2097665476
 20
-90.7839327167
 10
566.0888460014
 20
-91.8839557097
 10
564.9087505413
 20
-92.71875319
 10
563.7286550811
 20
-93.2464649262
 10
562.6077345349
 20
-93.4406292482
 10
561.6021965395
 20
-93.2915099463
 10
561.5293084759
 20
-93.2652375749
  0
LWPOLYLINE
  5
181
330
1F
100
AcDbEntity
  8
0
  6
Continuous
 62
     7
370
    35
100
AcDbPolyline
 90
       12
 70
   128
 43
0.0
 10
660.0146126108
 20
72.0094315287
 10
659.881647786
 20
70.5699418886
 10
659.4894207229
 20
69.0491163508
 10
658.8575993244
 20
67.5232154582
 10
658.0178657537
 20
66.068754253
 10
657.0123277583
 20
64.7586654936
 10
655.8914072121
 20
63.6586425006
 10
654.7113117519
 20
62.8238450203
 10
653.5312162918
 20
62.2961332841
 10
652.4102957456
 20
62.101968962
 10
651.4047577502
 20
62.251088264
 10
651.3318696867
 20
62.2773606353
  0
LINE
  5
182
330
1F
100
AcDbEntity
  8
0
  6
Continuous
 62
     7
370
    35
100
AcDbLine
 10
660.721719392
 20
-10.0528537158
 30
0.0
 11
660.0146126108
 21
-9.6446496598
 31
0.0
  0
ARC
  5
183
330
1F
100
AcDbEntity
  8
0
  6
Continuous
 62
     7
370
    35
100
AcDbCircle
 10
656.1858683841
 20
-9.2684350413
 30
0.0
 40
3.847183358435464
100
AcDbArc
 50
354.3880985856
 51
47.2394268823
  0
LINE
  5
184
330
1F
100
AcDbEntity
  8
0
  6
Continuous
 62
     7
370
    35
100
AcDbLine
 10
750.5242806027
 20
145.4897444945
 30
0.0
 11
749.8171738215
 21
145.8979485504
 31
0.0
  0
ARC
  5
185
330
1F
100
AcDbEntity
  8
0
  6
Continuous
 62
     7
370
    35
100
AcDbCircle
 10
745.9884295947
 20
146.2741631689
 30
0.0
 40
3.847183358470732
100
AcDbArc
 50
354.3880985858
 51
47.2394268813
  0
LINE
  5
186
330
1F
100
AcDbEntity
  8
0
  6
Continuous
 62
     7
370
    35
100
AcDbLine
 10
692.1879711548
 20
44.8565633072
 30
0.0
 11
691.4808643736
 21
45.2647673631
 31
0.0
  0
ARC
  5
187
330
1F
100
AcDbEntity
  8
0
  6
Continuous
 62
     7
370
    35
100
AcDbCircle
 10
689.9647869188
 20
47.428109069
 30
0.0
 40
2.641692295825725
100
AcDbArc
 50
256.7596043631
 51
305.0229062374
  0
ARC
  5
188
330
1F
100
AcDbEntity
  8
0
  6
Continuous
 62
     7
370
    35
100
AcDbCircle
 10
795.1564230676
 20
204.8354213353
 30
0.0
 40
1.508817835480615
100
AcDbArc
 50
294.3746582936
 51
354.3052007488
  0
LINE
  5
189
330
1F
100
AcDbEntity
  8
0
  6
Continuous
 62
     7
370
    35
100
AcDbLine
 10
703.5016796538
 20
51.3878282017
 30
0.0
 11
702.7945728726
 21
51.7960322577
 31
0.0
  0
LINE
  5
18A
330
1F
100
AcDbEntity
  8
0
  6
Continuous
 62
     7
370
    35
100
AcDbLine
 10
702.7945728726
 20
51.7960322577
 30
0.0
 11
691.4808643736
 21
45.2647673631
 31
0.0
  0
LINE
  5
18B
330
1F
100
AcDbEntity
  8
0
  6
Continuous
 62
     7
370
    35
100
AcDbLine
 10
660.721719392
 20
-32.0994556367
 30
0.0
 11
660.0146126108
 21
-31.6912515808
 31
0.0
  0
LINE
  5
18C
330
1F
100
AcDbEntity
  8
0
  6
Continuous
 62
     7
370
    35
100
AcDbLine
 10
660.0146126108
 20
-9.6446496598
 30
0.0
 11
660.0146126108
 21
-31.6912515808
 31
0.0
  0
LINE
  5
18D
330
1F
100
AcDbEntity
  8
0
  6
Continuous
 62
     7
370
    35
100
AcDbLine
 10
750.5242806027
 20
123.4431425736
 30
0.0
 11
749.8171738215
 21
123.8513466295
 31
0.0
  0
LINE
  5
18E
330
1F
100
AcDbEntity
  8
0
  6
Continuous
 62
     7
370
    35
100
AcDbLine
 10
749.8171738215
 20
145.8979485504
 30
0.0
 11
749.8171738215
 21
123.8513466295
 31
0.0
  0
LWPOLYLINE
  5
18F
330
1F
100
AcDbEntity
  8
0
  6
Continuous
 62
     7
370
    35
100
AcDbPolyline
 90
        9
 70
   128
 43
0.0
 10
705.6228029744
 20
59.9613645613
 10
706.0106076341
 20
59.4313302265
 10
706.2941201412
 20
58.480011321
 10
706.2941201412
 20
57.3179525852
 10
706.0106076341
 20
56.0392971066
 10
705.4665511172
 20
54.7476339478
 10
704.7060268137
 20
53.547605976
 10
703.7906478798
 20
52.5364323206
 10
702.7945728726
 20
51.7960322577
  0
LWPOLYLINE
  5
190
330
1F
100
AcDbEntity
  8
0
  6
Continuous
 62
     7
370
    35
100
AcDbPolyline
 90
       12
 70
   128
 43
0.0
 10
660.0146126108
 20
-31.6912515808
 10
659.881647786
 20
-33.1307412208
 10
659.4894207229
 20
-34.6515667587
 10
658.8575993244
 20
-36.1774676513
 10
658.0178657537
 20
-37.6319288564
 10
657.0123277583
 20
-38.9420176159
 10
655.8914072121
 20
-40.0420406089
 10
654.7113117519
 20
-40.8768380892
 10
653.5312162918
 20
-41.4045498254
 10
652.4102957456
 20
-41.5987141475
 10
651.4047577502
 20
-41.4495948455
 10
651.3318696867
 20
-41.4233224741
  0
LWPOLYLINE
  5
191
330
1F
100
AcDbEntity
  8
0
  6
Continuous
 62
     7
370
    35
100
AcDbPolyline
 90
       12
 70
   128
 43
0.0
 10
749.8171738215
 20
123.8513466295
 10
749.6842089967
 20
122.4118569894
 10
749.2919819336
 20
120.8910314516
 10
748.6601605351
 20
119.3651305589
 10
747.8204269644
 20
117.9106693538
 10
746.814888969
 20
116.6005805943
 10
745.6939684228
 20
115.5005576013
 10
744.5138729626
 20
114.665760121
 10
743.3337775025
 20
114.1380483848
 10
742.2128569563
 20
113.9438840628
 10
741.2073189609
 20
114.0930033647
 10
741.1344308973
 20
114.1192757361
  0
LINE
  5
192
330
1F
100
AcDbEntity
  8
0
  6
Continuous
 62
     7
370
    35
100
AcDbLine
 10
750.5242806027
 20
41.789061385
 30
0.0
 11
749.8171738215
 21
42.1972654409
 31
0.0
  0
ARC
  5
193
330
1F
100
AcDbEntity
  8
0
  6
Continuous
 62
     7
370
    35
100
AcDbCircle
 10
745.9884295947
 20
42.5734800594
 30
0.0
 40
3.847183358453877
100
AcDbArc
 50
354.3880985857
 51
47.2394268821
  0
LINE
  5
194
330
1F
100
AcDbEntity
  8
0
  6
Continuous
 62
     7
370
    35
100
AcDbLine
 10
750.5242806027
 20
19.7424594641
 30
0.0
 11
749.8171738215
 21
20.15066352
 31
0.0
  0
LINE
  5
195
330
1F
100
AcDbEntity
  8
0
  6
Continuous
 62
     7
370
    35
100
AcDbLine
 10
749.8171738215
 20
42.1972654409
 30
0.0
 11
749.8171738215
 21
20.15066352
 31
0.0
  0
LWPOLYLINE
  5
196
330
1F
100
AcDbEntity
  8
0
  6
Continuous
 62
     7
370
    35
100
AcDbPolyline
 90
       12
 70
   128
 43
0.0
 10
749.8171738215
 20
20.15066352
 10
749.6842089967
 20
18.7111738799
 10
749.2919819336
 20
17.1903483421
 10
748.6601605351
 20
15.6644474494
 10
747.8204269644
 20
14.2099862443
 10
746.814888969
 20
12.8998974848
 10
745.6939684228
 20
11.7998744918
 10
744.5138729626
 20
10.9650770115
 10
743.3337775025
 20
10.4373652753
 10
742.2128569563
 20
10.2432009533
 10
741.2073189609
 20
10.3923202552
 10
741.1344308973
 20
10.4185926266
  0
ARC
  5
197
330
1F
100
AcDbEntity
  8
0
  6
Continuous
 62
     7
370
    35
100
AcDbCircle
 10
795.1564230676
 20
-0.116322448
 30
0.0
 40
1.508817835480683
100
AcDbArc
 50
294.3746582936
 51
354.3052007488
  0
INSERT
  5
19D
330
1F
100
AcDbEntity
  8
0
  6
Continuous
 62
     7
370
     0
100
AcDbBlockReference
  2
SW_NOTE_0
 10
480.3132875143
 20
-278.9588670226
 30
0.0
  0
LEADER
  5
1A4
330
1F
100
AcDbEntity
  8
0
  6
Continuous
 62
     7
370
     0
100
AcDbLeader
  3
SLDDIMSTYLE0
 76
     2
 10
410.1929659892
 20
-184.5456855281
 30
0.0
 10
480.3132875143
 20
-278.9588670226
 30
0.0
  0
LINE
  5
1A5
330
1F
100
AcDbEntity
  8
0
  6
Continuous
 62
     7
370
    35
100
AcDbLine
 10
440.8943880619
 20
367.2435461414
 30
0.0
 11
439.8943880619
 21
367.2435461414
 31
0.0
  0
LINE
  5
1A6
330
1F
100
AcDbEntity
  8
0
  6
Continuous
 62
     7
370
    35
100
AcDbLine
 10
440.8943880619
 20
615.7435461414
 30
0.0
 11
439.8943880619
 21
615.7435461414
 31
0.0
  0
LINE
  5
1A7
330
1F
100
AcDbEntity
  8
0
  6
Continuous
 62
     7
370
    35
100
AcDbLine
 10
440.8943880619
 20
367.2435461414
 30
0.0
 11
440.8943880619
 21
615.7435461414
 31
0.0
  0
LINE
  5
1A8
330
1F
100
AcDbEntity
  8
0
  6
Continuous
 62
     7
370
    35
100
AcDbLine
 10
439.8943880619
 20
367.2435461414
 30
0.0
 11
439.8943880619
 21
615.7435461414
 31
0.0
  0
LINE
  5
1A9
330
1F
100
AcDbEntity
  8
0
  6
Continuous
 62
     7
370
    35
100
AcDbLine
 10
449.8943880619
 20
617.4935461414
 30
0.0
 11
449.8943880619
 21
616.4935461414
 31
0.0
  0
LINE
  5
1AA
330
1F
100
AcDbEntity
  8
0
  6
Continuous
 62
     7
370
    35
100
AcDbLine
 10
449.8943880619
 20
616.4935461414
 30
0.0
 11
446.8943880619
 21
616.4935461414
 31
0.0
  0
LINE
  5
1AB
330
1F
100
AcDbEntity
  8
0
  6
Continuous
 62
     7
370
    35
100
AcDbLine
 10
446.8943880619
 20
616.4935461414
 30
0.0
 11
446.8943880619
 21
617.4935461414
 31
0.0
  0
LINE
  5
1AC
330
1F
100
AcDbEntity
  8
0
  6
Continuous
 62
     7
370
    35
100
AcDbLine
 10
446.8943880619
 20
617.4935461414
 30
0.0
 11
449.8943880619
 21
617.4935461414
 31
0.0
  0
LINE
  5
1AD
330
1F
100
AcDbEntity
  8
0
  6
Continuous
 62
     7
370
    35
100
AcDbLine
 10
441.6443880619
 20
616.4935461414
 30
0.0
 11
441.6443880619
 21
617.4935461414
 31
0.0
  0
LINE
  5
1AE
330
1F
100
AcDbEntity
  8
0
  6
Continuous
 62
     7
370
    35
100
AcDbLine
 10
441.6443880619
 20
616.4935461414
 30
0.0
 11
446.8943880619
 21
616.4935461414
 31
0.0
  0
LINE
  5
1AF
330
1F
100
AcDbEntity
  8
0
  6
Continuous
 62
     7
370
    35
100
AcDbLine
 10
441.6443880619
 20
617.4935461414
 30
0.0
 11
446.8943880619
 21
617.4935461414
 31
0.0
  0
ARC
  5
1B0
330
1F
100
AcDbEntity
  8
0
  6
Continuous
 62
     7
370
    35
100
AcDbCircle
 10
441.6443880619
 20
615.7435461414
 30
0.0
 40
1.749999999999943
100
AcDbArc
 50
90.0
 51
180.0
  0
ARC
  5
1B1
330
1F
100
AcDbEntity
  8
0
  6
Continuous
 62
     7
370
    35
100
AcDbCircle
 10
441.6443880619
 20
615.7435461414
 30
0.0
 40
0.7499999999999432
100
AcDbArc
 50
90.0
 51
180.0
  0
LINE
  5
1B2
330
1F
100
AcDbEntity
  8
0
  6
Continuous
 62
     7
370
    35
100
AcDbLine
 10
446.8943880619
 20
365.4935461414
 30
0.0
 11
446.8943880619
 21
366.4935461414
 31
0.0
  0
LINE
  5
1B3
330
1F
100
AcDbEntity
  8
0
  6
Continuous
 62
     7
370
    35
100
AcDbLine
 10
446.8943880619
 20
366.4935461414
 30
0.0
 11
449.8943880619
 21
366.4935461414
 31
0.0
  0
LINE
  5
1B4
330
1F
100
AcDbEntity
  8
0
  6
Continuous
 62
     7
370
    35
100
AcDbLine
 10
449.8943880619
 20
366.4935461414
 30
0.0
 11
449.8943880619
 21
365.4935461414
 31
0.0
  0
LINE
  5
1B5
330
1F
100
AcDbEntity
  8
0
  6
Continuous
 62
     7
370
    35
100
AcDbLine
 10
449.8943880619
 20
365.4935461414
 30
0.0
 11
446.8943880619
 21
365.4935461414
 31
0.0
  0
ARC
  5
1B6
330
1F
100
AcDbEntity
  8
0
  6
Continuous
 62
     7
370
    35
100
AcDbCircle
 10
441.6443880619
 20
367.2435461414
 30
0.0
 40
1.749999999999943
100
AcDbArc
 50
180.0
 51
270.0
  0
LINE
  5
1B7
330
1F
100
AcDbEntity
  8
0
  6
Continuous
 62
     7
370
    35
100
AcDbLine
 10
441.6443880619
 20
366.4935461414
 30
0.0
 11
441.6443880619
 21
365.4935461414
 31
0.0
  0
ARC
  5
1B8
330
1F
100
AcDbEntity
  8
0
  6
Continuous
 62
     7
370
    35
100
AcDbCircle
 10
441.6443880619
 20
367.2435461414
 30
0.0
 40
0.7499999999999432
100
AcDbArc
 50
180.0
 51
270.0
  0
LINE
  5
1B9
330
1F
100
AcDbEntity
  8
0
  6
Continuous
 62
     7
370
    35
100
AcDbLine
 10
446.8943880619
 20
366.4935461414
 30
0.0
 11
441.6443880619
 21
366.4935461414
 31
0.0
  0
LINE
  5
1BA
330
1F
100
AcDbEntity
  8
0
  6
Continuous
 62
     7
370
    35
100
AcDbLine
 10
446.8943880619
 20
365.4935461414
 30
0.0
 11
441.6443880619
 21
365.4935461414
 31
0.0
  0
INSERT
  5
1BF
330
1F
100
AcDbEntity
  8
0
  6
Continuous
 62
     7
370
     0
100
AcDbBlockReference
  2
SW_NOTE_0_1
 10
471.607674685
 20
446.3561387048
 30
0.0
  0
LEADER
  5
1C7
330
1F
100
AcDbEntity
  8
0
  6
Continuous
 62
     7
370
     0
100
AcDbLeader
  3
SLDDIMSTYLE1
 76
     2
 10
440.8943880619
 20
475.447978526
 30
0.0
 10
471.607674685
 20
446.3561387048
 30
0.0
  0
LINE
  5
1C8
330
1F
100
AcDbEntity
  8
0
  6
CENTER
 62
     7
100
AcDbLine
 10
-978.58666474
 20
-32.3303144075
 30
0.0
 11
41.41333526
 21
-32.3303144075
 31
0.0
  0
LINE
  5
1C9
330
1F
100
AcDbEntity
  8
0
  6
CENTER
 62
     7
100
AcDbLine
 10
41.41333526
 20
-282.4388098461
 30
0.0
 11
-978.58666474
 21
-282.4388098461
 31
0.0
  0
ARC
  5
1CA
330
1F
100
AcDbEntity
  8
0
  6
Continuous
 62
     7
370
    35
100
AcDbCircle
 10
38.41333526
 20
-288.4930575654
 30
0.0
 40
3.000000000000114
100
AcDbArc
 50
270.0
 51
0.0
  0
LINE
  5
1CB
330
1F
100
AcDbEntity
  8
0
  6
Continuous
 62
     7
370
    35
100
AcDbLine
 10
38.41333526
 20
-291.4930575654
 30
0.0
 11
-975.58666474
 21
-291.4930575654
 31
0.0
  0
ARC
  5
1CC
330
1F
100
AcDbEntity
  8
0
  6
Continuous
 62
     7
370
    35
100
AcDbCircle
 10
-975.58666474
 20
-288.4930575654
 30
0.0
 40
3.000000000000114
100
AcDbArc
 50
180.0
 51
270.0
  0
LINE
  5
1CD
330
1F
100
AcDbEntity
  8
0
  6
Continuous
 62
     7
370
    35
100
AcDbLine
 10
-978.58666474
 20
-288.4930575654
 30
0.0
 11
-978.58666474
 21
-26.2760666882
 31
0.0
  0
ARC
  5
1CE
330
1F
100
AcDbEntity
  8
0
  6
Continuous
 62
     7
370
    35
100
AcDbCircle
 10
-975.58666474
 20
-26.2760666882
 30
0.0
 40
3.000000000000114
100
AcDbArc
 50
90.0
 51
180.0
  0
LINE
  5
1CF
330
1F
100
AcDbEntity
  8
0
  6
Continuous
 62
     7
370
    35
100
AcDbLine
 10
-975.58666474
 20
-23.2760666882
 30
0.0
 11
38.41333526
 21
-23.2760666882
 31
0.0
  0
ARC
  5
1D0
330
1F
100
AcDbEntity
  8
0
  6
Continuous
 62
     7
370
    35
100
AcDbCircle
 10
38.41333526
 20
-26.2760666882
 30
0.0
 40
3.0
100
AcDbArc
 50
0.0
 51
90.0
  0
LINE
  5
1D1
330
1F
100
AcDbEntity
  8
0
  6
Continuous
 62
     7
370
    35
100
AcDbLine
 10
41.41333526
 20
-288.4930575654
 30
0.0
 11
41.41333526
 21
-26.2760666882
 31
0.0
  0
ARC
  5
1D2
330
1F
100
AcDbEntity
  8
0
  6
Continuous
 62
     7
370
    35
100
AcDbCircle
 10
-151.08666474
 20
-207.3845621268
 30
0.0
 40
7.5
100
AcDbArc
 50
360.0
 51
180.0
  0
LINE
  5
1D3
330
1F
100
AcDbEntity
  8
0
  6
Continuous
 62
     7
370
    35
100
AcDbLine
 10
-158.58666474
 20
-234.3845621268
 30
0.0
 11
-158.58666474
 21
-207.3845621268
 31
0.0
  0
ARC
  5
1D4
330
1F
100
AcDbEntity
  8
0
  6
Continuous
 62
     7
370
    35
100
AcDbCircle
 10
-151.08666474
 20
-234.3845621268
 30
0.0
 40
7.5
100
AcDbArc
 50
180.0
 51
0.0
  0
LINE
  5
1D5
330
1F
100
AcDbEntity
  8
0
  6
Continuous
 62
     7
370
    35
100
AcDbLine
 10
-143.58666474
 20
-207.3845621268
 30
0.0
 11
-143.58666474
 21
-234.3845621268
 31
0.0
  0
ARC
  5
1D6
330
1F
100
AcDbEntity
  8
0
  6
Continuous
 62
     7
370
    35
100
AcDbCircle
 10
-24.08666474
 20
-234.3845621268
 30
0.0
 40
7.500000000000341
100
AcDbArc
 50
180.0
 51
0.0
  0
LINE
  5
1D7
330
1F
100
AcDbEntity
  8
0
  6
Continuous
 62
     7
370
    35
100
AcDbLine
 10
-16.58666474
 20
-207.3845621268
 30
0.0
 11
-16.58666474
 21
-234.3845621268
 31
0.0
  0
ARC
  5
1D8
330
1F
100
AcDbEntity
  8
0
  6
Continuous
 62
     7
370
    35
100
AcDbCircle
 10
-24.08666474
 20
-207.3845621268
 30
0.0
 40
7.500000000000341
100
AcDbArc
 50
0.0
 51
180.0
  0
LINE
  5
1D9
330
1F
100
AcDbEntity
  8
0
  6
Continuous
 62
     7
370
    35
100
AcDbLine
 10
-31.58666474
 20
-234.3845621268
 30
0.0
 11
-31.58666474
 21
-207.3845621268
 31
0.0
  0
ARC
  5
1DA
330
1F
100
AcDbEntity
  8
0
  6
Continuous
 62
     7
370
    35
100
AcDbCircle
 10
-278.08666474
 20
-207.3845621268
 30
0.0
 40
7.5
100
AcDbArc
 50
360.0
 51
180.0
  0
LINE
  5
1DB
330
1F
100
AcDbEntity
  8
0
  6
Continuous
 62
     7
370
    35
100
AcDbLine
 10
-285.58666474
 20
-234.3845621268
 30
0.0
 11
-285.58666474
 21
-207.3845621268
 31
0.0
  0
ARC
  5
1DC
330
1F
100
AcDbEntity
  8
0
  6
Continuous
 62
     7
370
    35
100
AcDbCircle
 10
-278.08666474
 20
-234.3845621268
 30
0.0
 40
7.5
100
AcDbArc
 50
180.0
 51
0.0
  0
LINE
  5
1DD
330
1F
100
AcDbEntity
  8
0
  6
Continuous
 62
     7
370
    35
100
AcDbLine
 10
-270.58666474
 20
-207.3845621268
 30
0.0
 11
-270.58666474
 21
-234.3845621268
 31
0.0
  0
ARC
  5
1DE
330
1F
100
AcDbEntity
  8
0
  6
Continuous
 62
     7
370
    35
100
AcDbCircle
 10
-659.08666474
 20
-207.3845621268
 30
0.0
 40
7.499999999999886
100
AcDbArc
 50
360.0
 51
180.0
  0
LINE
  5
1DF
330
1F
100
AcDbEntity
  8
0
  6
Continuous
 62
     7
370
    35
100
AcDbLine
 10
-666.58666474
 20
-234.3845621268
 30
0.0
 11
-666.58666474
 21
-207.3845621268
 31
0.0
  0
ARC
  5
1E0
330
1F
100
AcDbEntity
  8
0
  6
Continuous
 62
     7
370
    35
100
AcDbCircle
 10
-659.08666474
 20
-234.3845621268
 30
0.0
 40
7.499999999999886
100
AcDbArc
 50
180.0
 51
0.0
  0
LINE
  5
1E1
330
1F
100
AcDbEntity
  8
0
  6
Continuous
 62
     7
370
    35
100
AcDbLine
 10
-651.58666474
 20
-207.3845621268
 30
0.0
 11
-651.58666474
 21
-234.3845621268
 31
0.0
  0
ARC
  5
1E2
330
1F
100
AcDbEntity
  8
0
  6
Continuous
 62
     7
370
    35
100
AcDbCircle
 10
-913.08666474
 20
-207.3845621268
 30
0.0
 40
7.500000000000455
100
AcDbArc
 50
0.0
 51
180.0
  0
LINE
  5
1E3
330
1F
100
AcDbEntity
  8
0
  6
Continuous
 62
     7
370
    35
100
AcDbLine
 10
-920.58666474
 20
-234.3845621268
 30
0.0
 11
-920.58666474
 21
-207.3845621268
 31
0.0
  0
ARC
  5
1E4
330
1F
100
AcDbEntity
  8
0
  6
Continuous
 62
     7
370
    35
100
AcDbCircle
 10
-913.08666474
 20
-234.3845621268
 30
0.0
 40
7.500000000000455
100
AcDbArc
 50
180.0
 51
0.0
  0
LINE
  5
1E5
330
1F
100
AcDbEntity
  8
0
  6
Continuous
 62
     7
370
    35
100
AcDbLine
 10
-905.58666474
 20
-207.3845621268
 30
0.0
 11
-905.58666474
 21
-234.3845621268
 31
0.0
  0
ARC
  5
1E6
330
1F
100
AcDbEntity
  8
0
  6
Continuous
 62
     7
370
    35
100
AcDbCircle
 10
-786.08666474
 20
-234.3845621268
 30
0.0
 40
7.500000000000114
100
AcDbArc
 50
180.0
 51
0.0
  0
LINE
  5
1E7
330
1F
100
AcDbEntity
  8
0
  6
Continuous
 62
     7
370
    35
100
AcDbLine
 10
-778.58666474
 20
-207.3845621268
 30
0.0
 11
-778.58666474
 21
-234.3845621268
 31
0.0
  0
ARC
  5
1E8
330
1F
100
AcDbEntity
  8
0
  6
Continuous
 62
     7
370
    35
100
AcDbCircle
 10
-786.08666474
 20
-207.3845621268
 30
0.0
 40
7.500000000000114
100
AcDbArc
 50
360.0
 51
180.0
  0
LINE
  5
1E9
330
1F
100
AcDbEntity
  8
0
  6
Continuous
 62
     7
370
    35
100
AcDbLine
 10
-793.58666474
 20
-234.3845621268
 30
0.0
 11
-793.58666474
 21
-207.3845621268
 31
0.0
  0
ARC
  5
1EA
330
1F
100
AcDbEntity
  8
0
  6
Continuous
 62
     7
370
    35
100
AcDbCircle
 10
-405.08666474
 20
-234.3845621268
 30
0.0
 40
7.500000000000171
100
AcDbArc
 50
180.0
 51
0.0
  0
LINE
  5
1EB
330
1F
100
AcDbEntity
  8
0
  6
Continuous
 62
     7
370
    35
100
AcDbLine
 10
-397.58666474
 20
-207.3845621268
 30
0.0
 11
-397.58666474
 21
-234.3845621268
 31
0.0
  0
ARC
  5
1EC
330
1F
100
AcDbEntity
  8
0
  6
Continuous
 62
     7
370
    35
100
AcDbCircle
 10
-405.08666474
 20
-207.3845621268
 30
0.0
 40
7.500000000000171
100
AcDbArc
 50
0.0
 51
180.0
  0
LINE
  5
1ED
330
1F
100
AcDbEntity
  8
0
  6
Continuous
 62
     7
370
    35
100
AcDbLine
 10
-412.58666474
 20
-234.3845621268
 30
0.0
 11
-412.58666474
 21
-207.3845621268
 31
0.0
  0
ARC
  5
1EE
330
1F
100
AcDbEntity
  8
0
  6
Continuous
 62
     7
370
    35
100
AcDbCircle
 10
-532.08666474
 20
-234.3845621268
 30
0.0
 40
7.500000000000227
100
AcDbArc
 50
180.0
 51
0.0
  0
LINE
  5
1EF
330
1F
100
AcDbEntity
  8
0
  6
Continuous
 62
     7
370
    35
100
AcDbLine
 10
-524.58666474
 20
-207.3845621268
 30
0.0
 11
-524.58666474
 21
-234.3845621268
 31
0.0
  0
ARC
  5
1F0
330
1F
100
AcDbEntity
  8
0
  6
Continuous
 62
     7
370
    35
100
AcDbCircle
 10
-532.08666474
 20
-207.3845621268
 30
0.0
 40
7.500000000000227
100
AcDbArc
 50
0.0
 51
180.0
  0
LINE
  5
1F1
330
1F
100
AcDbEntity
  8
0
  6
Continuous
 62
     7
370
    35
100
AcDbLine
 10
-539.58666474
 20
-234.3845621268
 30
0.0
 11
-539.58666474
 21
-207.3845621268
 31
0.0
  0
ARC
  5
1F2
330
1F
100
AcDbEntity
  8
0
  6
Continuous
 62
     7
370
    35
100
AcDbCircle
 10
-786.08666474
 20
-107.3845621268
 30
0.0
 40
7.500000000000114
100
AcDbArc
 50
180.0
 51
0.0
  0
LINE
  5
1F3
330
1F
100
AcDbEntity
  8
0
  6
Continuous
 62
     7
370
    35
100
AcDbLine
 10
-778.58666474
 20
-80.3845621268
 30
0.0
 11
-778.58666474
 21
-107.3845621268
 31
0.0
  0
ARC
  5
1F4
330
1F
100
AcDbEntity
  8
0
  6
Continuous
 62
     7
370
    35
100
AcDbCircle
 10
-786.08666474
 20
-80.3845621268
 30
0.0
 40
7.5
100
AcDbArc
 50
360.0
 51
180.0
  0
LINE
  5
1F5
330
1F
100
AcDbEntity
  8
0
  6
Continuous
 62
     7
370
    35
100
AcDbLine
 10
-793.58666474
 20
-107.3845621268
 30
0.0
 11
-793.58666474
 21
-80.3845621268
 31
0.0
  0
LINE
  5
1F6
330
1F
100
AcDbEntity
  8
0
  6
Continuous
 62
     7
370
    35
100
AcDbLine
 10
-920.58666474
 20
-107.3845621268
 30
0.0
 11
-920.58666474
 21
-80.3845621268
 31
0.0
  0
ARC
  5
1F7
330
1F
100
AcDbEntity
  8
0
  6
Continuous
 62
     7
370
    35
100
AcDbCircle
 10
-913.08666474
 20
-107.3845621268
 30
0.0
 40
7.500000000000455
100
AcDbArc
 50
180.0
 51
0.0
  0
ARC
  5
1F8
330
1F
100
AcDbEntity
  8
0
  6
Continuous
 62
     7
370
    35
100
AcDbCircle
 10
-659.08666474
 20
-107.3845621268
 30
0.0
 40
7.5
100
AcDbArc
 50
180.0
 51
0.0
  0
LINE
  5
1F9
330
1F
100
AcDbEntity
  8
0
  6
Continuous
 62
     7
370
    35
100
AcDbLine
 10
-651.58666474
 20
-80.3845621268
 30
0.0
 11
-651.58666474
 21
-107.3845621268
 31
0.0
  0
ARC
  5
1FA
330
1F
100
AcDbEntity
  8
0
  6
Continuous
 62
     7
370
    35
100
AcDbCircle
 10
-659.08666474
 20
-80.3845621268
 30
0.0
 40
7.499999999999886
100
AcDbArc
 50
360.0
 51
180.0
  0
LINE
  5
1FB
330
1F
100
AcDbEntity
  8
0
  6
Continuous
 62
     7
370
    35
100
AcDbLine
 10
-666.58666474
 20
-107.3845621268
 30
0.0
 11
-666.58666474
 21
-80.3845621268
 31
0.0
  0
ARC
  5
1FC
330
1F
100
AcDbEntity
  8
0
  6
Continuous
 62
     7
370
    35
100
AcDbCircle
 10
-278.08666474
 20
-80.3845621268
 30
0.0
 40
7.499999999999943
100
AcDbArc
 50
360.0
 51
180.0
  0
LINE
  5
1FD
330
1F
100
AcDbEntity
  8
0
  6
Continuous
 62
     7
370
    35
100
AcDbLine
 10
-285.58666474
 20
-107.3845621268
 30
0.0
 11
-285.58666474
 21
-80.3845621268
 31
0.0
  0
ARC
  5
1FE
330
1F
100
AcDbEntity
  8
0
  6
Continuous
 62
     7
370
    35
100
AcDbCircle
 10
-278.08666474
 20
-107.3845621268
 30
0.0
 40
7.500000000000057
100
AcDbArc
 50
180.0
 51
0.0
  0
LINE
  5
1FF
330
1F
100
AcDbEntity
  8
0
  6
Continuous
 62
     7
370
    35
100
AcDbLine
 10
-270.58666474
 20
-80.3845621268
 30
0.0
 11
-270.58666474
 21
-107.3845621268
 31
0.0
  0
ARC
  5
200
330
1F
100
AcDbEntity
  8
0
  6
Continuous
 62
     7
370
    35
100
AcDbCircle
 10
-24.08666474
 20
-107.3845621268
 30
0.0
 40
7.500000000000398
100
AcDbArc
 50
180.0
 51
0.0
  0
LINE
  5
201
330
1F
100
AcDbEntity
  8
0
  6
Continuous
 62
     7
370
    35
100
AcDbLine
 10
-16.58666474
 20
-80.3845621268
 30
0.0
 11
-16.58666474
 21
-107.3845621268
 31
0.0
  0
ARC
  5
202
330
1F
100
AcDbEntity
  8
0
  6
Continuous
 62
     7
370
    35
100
AcDbCircle
 10
-24.08666474
 20
-80.3845621268
 30
0.0
 40
7.500000000000284
100
AcDbArc
 50
0.0
 51
180.0
  0
LINE
  5
203
330
1F
100
AcDbEntity
  8
0
  6
Continuous
 62
     7
370
    35
100
AcDbLine
 10
-31.58666474
 20
-107.3845621268
 30
0.0
 11
-31.58666474
 21
-80.3845621268
 31
0.0
  0
ARC
  5
204
330
1F
100
AcDbEntity
  8
0
  6
Continuous
 62
     7
370
    35
100
AcDbCircle
 10
-151.08666474
 20
-80.3845621268
 30
0.0
 40
7.499999999999943
100
AcDbArc
 50
360.0
 51
180.0
  0
LINE
  5
205
330
1F
100
AcDbEntity
  8
0
  6
Continuous
 62
     7
370
    35
100
AcDbLine
 10
-158.58666474
 20
-107.3845621268
 30
0.0
 11
-158.58666474
 21
-80.3845621268
 31
0.0
  0
ARC
  5
206
330
1F
100
AcDbEntity
  8
0
  6
Continuous
 62
     7
370
    35
100
AcDbCircle
 10
-151.08666474
 20
-107.3845621268
 30
0.0
 40
7.500000000000057
100
AcDbArc
 50
180.0
 51
0.0
  0
LINE
  5
207
330
1F
100
AcDbEntity
  8
0
  6
Continuous
 62
     7
370
    35
100
AcDbLine
 10
-143.58666474
 20
-80.3845621268
 30
0.0
 11
-143.58666474
 21
-107.3845621268
 31
0.0
  0
ARC
  5
208
330
1F
100
AcDbEntity
  8
0
  6
Continuous
 62
     7
370
    35
100
AcDbCircle
 10
-532.08666474
 20
-80.3845621268
 30
0.0
 40
7.500000000000227
100
AcDbArc
 50
0.0
 51
180.0
  0
LINE
  5
209
330
1F
100
AcDbEntity
  8
0
  6
Continuous
 62
     7
370
    35
100
AcDbLine
 10
-539.58666474
 20
-107.3845621268
 30
0.0
 11
-539.58666474
 21
-80.3845621268
 31
0.0
  0
ARC
  5
20A
330
1F
100
AcDbEntity
  8
0
  6
Continuous
 62
     7
370
    35
100
AcDbCircle
 10
-532.08666474
 20
-107.3845621268
 30
0.0
 40
7.500000000000227
100
AcDbArc
 50
180.0
 51
0.0
  0
LINE
  5
20B
330
1F
100
AcDbEntity
  8
0
  6
Continuous
 62
     7
370
    35
100
AcDbLine
 10
-524.58666474
 20
-80.3845621268
 30
0.0
 11
-524.58666474
 21
-107.3845621268
 31
0.0
  0
ARC
  5
20C
330
1F
100
AcDbEntity
  8
0
  6
Continuous
 62
     7
370
    35
100
AcDbCircle
 10
-405.08666474
 20
-80.3845621268
 30
0.0
 40
7.500000000000171
100
AcDbArc
 50
0.0
 51
180.0
  0
LINE
  5
20D
330
1F
100
AcDbEntity
  8
0
  6
Continuous
 62
     7
370
    35
100
AcDbLine
 10
-412.58666474
 20
-107.3845621268
 30
0.0
 11
-412.58666474
 21
-80.3845621268
 31
0.0
  0
ARC
  5
20E
330
1F
100
AcDbEntity
  8
0
  6
Continuous
 62
     7
370
    35
100
AcDbCircle
 10
-405.08666474
 20
-107.3845621268
 30
0.0
 40
7.500000000000171
100
AcDbArc
 50
180.0
 51
0.0
  0
LINE
  5
20F
330
1F
100
AcDbEntity
  8
0
  6
Continuous
 62
     7
370
    35
100
AcDbLine
 10
-397.58666474
 20
-80.3845621268
 30
0.0
 11
-397.58666474
 21
-107.3845621268
 31
0.0
  0
ARC
  5
210
330
1F
100
AcDbEntity
  8
0
  6
Continuous
 62
     7
370
    35
100
AcDbCircle
 10
-83.08666474
 20
-157.3845621268
 30
0.0
 40
5.0
100
AcDbArc
 50
270.0
 51
90.0
  0
LINE
  5
211
330
1F
100
AcDbEntity
  8
0
  6
Continuous
 62
     7
370
    35
100
AcDbLine
 10
-99.08666474
 20
-152.3845621268
 30
0.0
 11
-83.08666474
 21
-152.3845621268
 31
0.0
  0
ARC
  5
212
330
1F
100
AcDbEntity
  8
0
  6
Continuous
 62
     7
370
    35
100
AcDbCircle
 10
-99.08666474
 20
-157.3845621268
 30
0.0
 40
5.0
100
AcDbArc
 50
90.0
 51
270.0
  0
LINE
  5
213
330
1F
100
AcDbEntity
  8
0
  6
Continuous
 62
     7
370
    35
100
AcDbLine
 10
-83.08666474
 20
-162.3845621268
 30
0.0
 11
-99.08666474
 21
-162.3845621268
 31
0.0
  0
ARC
  5
214
330
1F
100
AcDbEntity
  8
0
  6
Continuous
 62
     7
370
    35
100
AcDbCircle
 10
-854.08666474
 20
-157.3845621268
 30
0.0
 40
5.000000000000028
100
AcDbArc
 50
90.0
 51
270.0
  0
LINE
  5
215
330
1F
100
AcDbEntity
  8
0
  6
Continuous
 62
     7
370
    35
100
AcDbLine
 10
-838.08666474
 20
-162.3845621268
 30
0.0
 11
-854.08666474
 21
-162.3845621268
 31
0.0
  0
ARC
  5
216
330
1F
100
AcDbEntity
  8
0
  6
Continuous
 62
     7
370
    35
100
AcDbCircle
 10
-838.08666474
 20
-157.3845621268
 30
0.0
 40
5.000000000001194
100
AcDbArc
 50
270.0
 51
90.0
  0
LINE
  5
217
330
1F
100
AcDbEntity
  8
0
  6
Continuous
 62
     7
370
    35
100
AcDbLine
 10
-854.08666474
 20
-152.3845621268
 30
0.0
 11
-838.08666474
 21
-152.3845621268
 31
0.0
  0
CIRCLE
  5
218
330
1F
100
AcDbEntity
  8
0
  6
Continuous
 62
     7
370
    35
100
AcDbCircle
 10
-468.58666474
 20
-157.3845621268
 30
0.0
 40
4.0
  0
ARC
  5
219
330
1F
100
AcDbEntity
  8
0
  6
Continuous
 62
     7
370
    35
100
AcDbCircle
 10
-913.08666474
 20
-80.3845621268
 30
0.0
 40
7.500000000000341
100
AcDbArc
 50
0.0
 51
180.0
  0
LINE
  5
21A
330
1F
100
AcDbEntity
  8
0
  6
Continuous
 62
     7
370
    35
100
AcDbLine
 10
-905.58666474
 20
-80.3845621268
 30
0.0
 11
-905.58666474
 21
-107.3845621268
 31
0.0
  0
MTEXT
  5
21B
330
1F
100
AcDbEntity
  8
0
  6
Continuous
 62
     7
370
     0
100
AcDbMText
 10
-795.4704872354
 20
-136.5688364533
 30
0.0
 40
19.05
 41
0.0
 71
     1
 72
     1
  1
PARLAK PASLANMAZ
  7
SLDTEXTSTYLE0
 73
     1
 44
1.0
  0
MTEXT
  5
21C
330
1F
100
AcDbEntity
  8
0
  6
Continuous
 62
     7
370
     0
100
AcDbMText
 10
-795.4704872354
 20
-162.9688363102
 30
0.0
 40
19.05
 41
0.0
 71
     1
 72
     1
  1
1 mm
  7
SLDTEXTSTYLE0
 73
     1
 44
1.0
  0
MTEXT
  5
21E
330
1F
100
AcDbEntity
  8
0
  6
Continuous
 62
     7
370
     0
100
AcDbMText
 10
-468.9357671378
 20
-28.896460152
 30
0.0
 40
2.6458333333
 41
0.0
 71
     2
 72
     1
  1
UP  900'  R 0.75
  7
SLDTEXTSTYLE1
 73
     1
 44
1.0
  0
MTEXT
  5
21F
330
1F
100
AcDbEntity
  8
0
  6
Continuous
 62
     7
370
     0
100
AcDbMText
 10
-468.9357671378
 20
-279.0049555906
 30
0.0
 40
2.6458333333
 41
0.0
 71
     2
 72
     1
  1
UP  900'  R 0.75
  7
SLDTEXTSTYLE1
 73
     1
 44
1.0
  0
INSERT
  5
22B
330
1F
100
AcDbEntity
  8
0
  6
Continuous
 62
     7
370
    18
100
AcDbBlockReference
  2
SW_CENTERMARKSYMBOL_0
 10
-468.58666474
 20
-157.3845621268
 30
0.0
  0
ENDSEC
  0
SECTION
  2
OBJECTS
  0
DICTIONARY
  5
C
330
0
100
AcDbDictionary
281
     1
  3
ACAD_GROUP
350
D
  3
ACAD_LAYOUT
350
1A
  3
ACAD_MLINESTYLE
350
17
  3
ACAD_PLOTSETTINGS
350
19
  3
ACAD_PLOTSTYLENAME
350
E
  3
ACAD_SCALELIST
350
47
  3
DWGPROPS
350
22C
  0
DICTIONARY
  5
D
102
{ACAD_REACTORS
330
C
102
}
330
C
100
AcDbDictionary
281
     1
  0
DICTIONARY
  5
1A
102
{ACAD_REACTORS
330
C
102
}
330
C
100
AcDbDictionary
281
     1
  3
Layout1
350
1E
  3
Layout2
350
26
  3
Model
350
22
  0
DICTIONARY
  5
17
102
{ACAD_REACTORS
330
C
102
}
330
C
100
AcDbDictionary
281
     1
  3
Standard
350
18
  0
DICTIONARY
  5
19
102
{ACAD_REACTORS
330
C
102
}
330
C
100
AcDbDictionary
281
     1
  0
ACDBDICTIONARYWDFLT
  5
E
102
{ACAD_REACTORS
330
C
102
}
330
C
100
AcDbDictionary
281
     1
  3
Normal
350
F
100
AcDbDictionaryWithDefault
340
F
  0
DICTIONARY
  5
47
102
{ACAD_REACTORS
330
C
102
}
330
C
100
AcDbDictionary
281
     1
  3
A0
350
48
  3
A1
350
49
  3
A2
350
4A
  3
A3
350
4B
  3
A4
350
4C
  3
A5
350
4D
  3
A6
350
4E
  3
A7
350
4F
  3
A8
350
50
  3
A9
350
51
  3
B0
350
52
  3
B1
350
53
  3
B2
350
54
  3
B3
350
55
  3
B4
350
56
  3
B5
350
57
  3
B6
350
58
  0
XRECORD
  5
22C
102
{ACAD_REACTORS
330
C
102
}
330
C
100
AcDbXrecord
280
     1
  1
DWGPROPS COOKIE
  2

  3

  4

  6

  7

  8
Murat
  9

300
=
301
=
302
=
303
=
304
=
305
=
306
=
307
=
308
=
309
=
 40
0.0
 41
2460072.835432026
 42
2460072.835433333
  1

 90
        0
  0
LAYOUT
  5
1E
102
{ACAD_REACTORS
330
1A
102
}
330
1A
100
AcDbPlotSettings
  1

  2
none_device
  4

  6

 40
0.0
 41
0.0
 42
0.0
 43
0.0
 44
0.0
 45
0.0
 46
0.0
 47
0.0
 48
0.0
 49
0.0
140
0.0
141
0.0
142
1.0
143
1.0
 70
   688
 72
     1
 73
     0
 74
     5
  7

 75
    16
147
1.0
148
0.0
149
0.0
100
AcDbLayout
  1
Layout1
 70
     1
 71
     1
 10
0.0
 20
0.0
 11
420.0
 21
297.0
 12
0.0
 22
0.0
 32
0.0
 14
1.0000000000E+20
 24
1.0000000000E+20
 34
1.0000000000E+20
 15
-1.0000000000E+20
 25
-1.0000000000E+20
 35
-1.0000000000E+20
146
0.0
 13
0.0
 23
0.0
 33
0.0
 16
1.0
 26
0.0
 36
0.0
 17
0.0
 27
1.0
 37
0.0
 76
     0
330
1B
  0
LAYOUT
  5
26
102
{ACAD_REACTORS
330
1A
102
}
330
1A
100
AcDbPlotSettings
  1

  2
none_device
  4

  6

 40
0.0
 41
0.0
 42
0.0
 43
0.0
 44
0.0
 45
0.0
 46
0.0
 47
0.0
 48
0.0
 49
0.0
140
0.0
141
0.0
142
1.0
143
1.0
 70
   688
 72
     1
 73
     0
 74
     5
  7

 75
    16
147
1.0
148
0.0
149
0.0
100
AcDbLayout
  1
Layout2
 70
     1
 71
     2
 10
0.0
 20
0.0
 11
0.0
 21
0.0
 12
0.0
 22
0.0
 32
0.0
 14
0.0
 24
0.0
 34
0.0
 15
0.0
 25
0.0
 35
0.0
146
0.0
 13
0.0
 23
0.0
 33
0.0
 16
1.0
 26
0.0
 36
0.0
 17
0.0
 27
1.0
 37
0.0
 76
     0
330
23
  0
LAYOUT
  5
22
102
{ACAD_REACTORS
330
1A
102
}
330
1A
100
AcDbPlotSettings
  1

  2
none_device
  4
Letter_(8.50_x_11.00_Inches)
  6

 40
6.35
 41
6.35
 42
6.35000508
 43
6.35000508
 44
215.9
 45
279.4
 46
0.0
 47
0.0
 48
0.0
 49
0.0
140
0.0
141
0.0
142
1.0
143
1.0
 70
  1712
 72
     1
 73
     0
 74
     0
  7

 75
     0
147
1.0
148
0.0
149
0.0
100
AcDbLayout
  1
Model
 70
     1
 71
     0
 10
0.0
 20
0.0
 11
297.0
 21
210.0
 12
0.0
 22
0.0
 32
0.0
 14
0.0
 24
0.0
 34
0.0
 15
297.0
 25
210.0
 35
0.0
146
0.0
 13
0.0
 23
0.0
 33
0.0
 16
1.0
 26
0.0
 36
0.0
 17
0.0
 27
1.0
 37
0.0
 76
     0
330
1F
331
29
  0
MLINESTYLE
  5
18
102
{ACAD_REACTORS
330
17
102
}
330
17
100
AcDbMlineStyle
  2
Standard
 70
     0
  3

 62
   256
 51
90.0
 52
90.0
 71
     2
 49
0.5
 62
   256
  6
BYLAYER
 49
-0.5
 62
   256
  6
BYLAYER
  0
ACDBPLACEHOLDER
  5
F
102
{ACAD_REACTORS
330
E
102
}
330
E
  0
SCALE
  5
48
102
{ACAD_REACTORS
330
47
102
}
330
47
100
AcDbScale
 70
     0
300
1:1
140
1.0
141
1.0
290
     1
  0
SCALE
  5
49
102
{ACAD_REACTORS
330
47
102
}
330
47
100
AcDbScale
 70
     0
300
1:2
140
1.0
141
2.0
290
     0
  0
SCALE
  5
4A
102
{ACAD_REACTORS
330
47
102
}
330
47
100
AcDbScale
 70
     0
300
1:4
140
1.0
141
4.0
290
     0
  0
SCALE
  5
4B
102
{ACAD_REACTORS
330
47
102
}
330
47
100
AcDbScale
 70
     0
300
1:5
140
1.0
141
5.0
290
     0
  0
SCALE
  5
4C
102
{ACAD_REACTORS
330
47
102
}
330
47
100
AcDbScale
 70
     0
300
1:8
140
1.0
141
8.0
290
     0
  0
SCALE
  5
4D
102
{ACAD_REACTORS
330
47
102
}
330
47
100
AcDbScale
 70
     0
300
1:10
140
1.0
141
10.0
290
     0
  0
SCALE
  5
4E
102
{ACAD_REACTORS
330
47
102
}
330
47
100
AcDbScale
 70
     0
300
1:16
140
1.0
141
16.0
290
     0
  0
SCALE
  5
4F
102
{ACAD_REACTORS
330
47
102
}
330
47
100
AcDbScale
 70
     0
300
1:20
140
1.0
141
20.0
290
     0
  0
SCALE
  5
50
102
{ACAD_REACTORS
330
47
102
}
330
47
100
AcDbScale
 70
     0
300
1:30
140
1.0
141
30.0
290
     0
  0
SCALE
  5
51
102
{ACAD_REACTORS
330
47
102
}
330
47
100
AcDbScale
 70
     0
300
1:40
140
1.0
141
40.0
290
     0
  0
SCALE
  5
52
102
{ACAD_REACTORS
330
47
102
}
330
47
100
AcDbScale
 70
     0
300
1:50
140
1.0
141
50.0
290
     0
  0
SCALE
  5
53
102
{ACAD_REACTORS
330
47
102
}
330
47
100
AcDbScale
 70
     0
300
1:100
140
1.0
141
100.0
290
     0
  0
SCALE
  5
54
102
{ACAD_REACTORS
330
47
102
}
330
47
100
AcDbScale
 70
     0
300
2:1
140
2.0
141
1.0
290
     0
  0
SCALE
  5
55
102
{ACAD_REACTORS
330
47
102
}
330
47
100
AcDbScale
 70
     0
300
4:1
140
4.0
141
1.0
290
     0
  0
SCALE
  5
56
102
{ACAD_REACTORS
330
47
102
}
330
47
100
AcDbScale
 70
     0
300
8:1
140
8.0
141
1.0
290
     0
  0
SCALE
  5
57
102
{ACAD_REACTORS
330
47
102
}
330
47
100
AcDbScale
 70
     0
300
10:1
140
10.0
141
1.0
290
     0
  0
SCALE
  5
58
102
{ACAD_REACTORS
330
47
102
}
330
47
100
AcDbScale
 70
     0
300
100:1
140
100.0
141
1.0
290
     0
  0
ENDSEC
  0
EOF
