  0
SECTION
  2
HEADER
  9
$ACADVER
  1
AC1015
  9
$ACADMAINTVER
 70
     6
  9
$DWGCODEPAGE
  3
ANSI_1254
  9
$INSBASE
 10
0.0
 20
0.0
 30
0.0
  9
$EXTMIN
 10
0.0
 20
0.0
 30
0.0
  9
$EXTMAX
 10
297.0
 20
210.0
 30
0.0
  9
$LIMMIN
 10
0.0
 20
0.0
  9
$LIMMAX
 10
297.0
 20
210.0
  9
$ORTHOMODE
 70
     0
  9
$REGENMODE
 70
     1
  9
$FILLMODE
 70
     1
  9
$QTEXTMODE
 70
     0
  9
$MIRRTEXT
 70
     1
  9
$LTSCALE
 40
1.0
  9
$ATTMODE
 70
     1
  9
$TEXTSIZE
 40
3.5277777778
  9
$TRACEWID
 40
1.0
  9
$TEXTSTYLE
  7
Standard
  9
$CLAYER
  8
0
  9
$CELTYPE
  6
ByLayer
  9
$CECOLOR
 62
   256
  9
$CELTSCALE
 40
1.0
  9
$DISPSILH
 70
     0
  9
$DIMSCALE
 40
1.0
  9
$DIMASZ
 40
2.0
  9
$DIMEXO
 40
1.0
  9
$DIMDLI
 40
3.75
  9
$DIMRND
 40
0.0
  9
$DIMDLE
 40
0.0
  9
$DIMEXE
 40
1.0
  9
$DIMTP
 40
0.0
  9
$DIMTM
 40
0.0
  9
$DIMTXT
 40
3.8805555556
  9
$DIMCEN
 40
2.5
  9
$DIMTSZ
 40
0.0
  9
$DIMTOL
 70
     0
  9
$DIMLIM
 70
     0
  9
$DIMTIH
 70
     1
  9
$DIMTOH
 70
     1
  9
$DIMSE1
 70
     0
  9
$DIMSE2
 70
     0
  9
$DIMTAD
 70
     1
  9
$DIMZIN
 70
     0
  9
$DIMBLK
  1

  9
$DIMASO
 70
     1
  9
$DIMSHO
 70
     1
  9
$DIMPOST
  1

  9
$DIMAPOST
  1

  9
$DIMALT
 70
     0
  9
$DIMALTD
 70
     3
  9
$DIMALTF
 40
0.0393700787
  9
$DIMLFAC
 40
5.0
  9
$DIMTOFL
 70
     1
  9
$DIMTVP
 40
0.0
  9
$DIMTIX
 70
     0
  9
$DIMSOXD
 70
     0
  9
$DIMSAH
 70
     0
  9
$DIMBLK1
  1

  9
$DIMBLK2
  1

  9
$DIMSTYLE
  2
ISO-25
  9
$DIMCLRD
 70
     0
  9
$DIMCLRE
 70
     0
  9
$DIMCLRT
 70
     0
  9
$DIMTFAC
 40
1.0
  9
$DIMGAP
 40
1.524
  9
$DIMJUST
 70
     0
  9
$DIMSD1
 70
     0
  9
$DIMSD2
 70
     0
  9
$DIMTOLJ
 70
     0
  9
$DIMTZIN
 70
     0
  9
$DIMALTZ
 70
     0
  9
$DIMALTTZ
 70
     0
  9
$DIMUPT
 70
     0
  9
$DIMDEC
 70
     2
  9
$DIMTDEC
 70
     2
  9
$DIMALTU
 70
     2
  9
$DIMALTTD
 70
     3
  9
$DIMTXSTY
  7
Standard
  9
$DIMAUNIT
 70
     0
  9
$DIMADEC
 70
     2
  9
$DIMALTRND
 40
0.0
  9
$DIMAZIN
 70
     0
  9
$DIMDSEP
 70
    44
  9
$DIMATFIT
 70
     3
  9
$DIMFRAC
 70
     0
  9
$DIMLDRBLK
  1

  9
$DIMLUNIT
 70
     2
  9
$DIMLWD
 70
    -2
  9
$DIMLWE
 70
    -2
  9
$DIMTMOVE
 70
     0
  9
$LUNITS
 70
     2
  9
$LUPREC
 70
     3
  9
$SKETCHINC
 40
1.0
  9
$FILLETRAD
 40
10.0
  9
$AUNITS
 70
     1
  9
$AUPREC
 70
     2
  9
$MENU
  1
.
  9
$ELEVATION
 40
0.0
  9
$PELEVATION
 40
0.0
  9
$THICKNESS
 40
0.0
  9
$LIMCHECK
 70
     0
  9
$CHAMFERA
 40
0.0
  9
$CHAMFERB
 40
0.0
  9
$CHAMFERC
 40
0.0
  9
$CHAMFERD
 40
0.0
  9
$SKPOLY
 70
     0
  9
$TDCREATE
 40
2459840.68860779
  9
$TDUCREATE
 40
2459840.56360779
  9
$TDUPDATE
 40
2459840.688608229
  9
$TDUUPDATE
 40
2459840.563608229
  9
$TDINDWG
 40
0.0000000116
  9
$TDUSRTIMER
 40
0.0000000116
  9
$USRTIMER
 70
     1
  9
$ANGBASE
 50
0.0
  9
$ANGDIR
 70
     0
  9
$PDMODE
 70
     0
  9
$PDSIZE
 40
-1.0
  9
$PLINEWID
 40
0.0
  9
$SPLFRAME
 70
     0
  9
$SPLINETYPE
 70
     6
  9
$SPLINESEGS
 70
     8
  9
$HANDSEED
  5
17C
  9
$SURFTAB1
 70
     6
  9
$SURFTAB2
 70
     6
  9
$SURFTYPE
 70
     6
  9
$SURFU
 70
     6
  9
$SURFV
 70
     6
  9
$UCSBASE
  2

  9
$UCSNAME
  2

  9
$UCSORG
 10
0.0
 20
0.0
 30
0.0
  9
$UCSXDIR
 10
1.0
 20
0.0
 30
0.0
  9
$UCSYDIR
 10
0.0
 20
1.0
 30
0.0
  9
$UCSORTHOREF
  2

  9
$UCSORTHOVIEW
 70
     0
  9
$UCSORGTOP
 10
0.0
 20
0.0
 30
0.0
  9
$UCSORGBOTTOM
 10
0.0
 20
0.0
 30
0.0
  9
$UCSORGLEFT
 10
0.0
 20
0.0
 30
0.0
  9
$UCSORGRIGHT
 10
0.0
 20
0.0
 30
0.0
  9
$UCSORGFRONT
 10
0.0
 20
0.0
 30
0.0
  9
$UCSORGBACK
 10
0.0
 20
0.0
 30
0.0
  9
$PUCSBASE
  2

  9
$PUCSNAME
  2

  9
$PUCSORG
 10
0.0
 20
0.0
 30
0.0
  9
$PUCSXDIR
 10
1.0
 20
0.0
 30
0.0
  9
$PUCSYDIR
 10
0.0
 20
1.0
 30
0.0
  9
$PUCSORTHOREF
  2

  9
$PUCSORTHOVIEW
 70
     0
  9
$PUCSORGTOP
 10
0.0
 20
0.0
 30
0.0
  9
$PUCSORGBOTTOM
 10
0.0
 20
0.0
 30
0.0
  9
$PUCSORGLEFT
 10
0.0
 20
0.0
 30
0.0
  9
$PUCSORGRIGHT
 10
0.0
 20
0.0
 30
0.0
  9
$PUCSORGFRONT
 10
0.0
 20
0.0
 30
0.0
  9
$PUCSORGBACK
 10
0.0
 20
0.0
 30
0.0
  9
$USERI1
 70
     0
  9
$USERI2
 70
     0
  9
$USERI3
 70
     0
  9
$USERI4
 70
     0
  9
$USERI5
 70
     0
  9
$USERR1
 40
0.0
  9
$USERR2
 40
0.0
  9
$USERR3
 40
0.0
  9
$USERR4
 40
0.0
  9
$USERR5
 40
0.0
  9
$WORLDVIEW
 70
     1
  9
$SHADEDGE
 70
     3
  9
$SHADEDIF
 70
    70
  9
$TILEMODE
 70
     1
  9
$MAXACTVP
 70
    64
  9
$PINSBASE
 10
0.0
 20
0.0
 30
0.0
  9
$PLIMCHECK
 70
     0
  9
$PEXTMIN
 10
1.0000000000E+20
 20
1.0000000000E+20
 30
1.0000000000E+20
  9
$PEXTMAX
 10
-1.0000000000E+20
 20
-1.0000000000E+20
 30
-1.0000000000E+20
  9
$PLIMMIN
 10
0.0
 20
0.0
  9
$PLIMMAX
 10
420.0
 20
297.0
  9
$UNITMODE
 70
     0
  9
$VISRETAIN
 70
     1
  9
$PLINEGEN
 70
     0
  9
$PSLTSCALE
 70
     1
  9
$TREEDEPTH
 70
  3020
  9
$CMLSTYLE
  2
Standard
  9
$CMLJUST
 70
     0
  9
$CMLSCALE
 40
20.0
  9
$PROXYGRAPHICS
 70
     1
  9
$MEASUREMENT
 70
     1
  9
$CELWEIGHT
370
    -1
  9
$ENDCAPS
280
     0
  9
$JOINSTYLE
280
     0
  9
$LWDISPLAY
290
     1
  9
$INSUNITS
 70
     4
  9
$HYPERLINKBASE
  1

  9
$STYLESHEET
  1

  9
$XEDIT
290
     1
  9
$CEPSNTYPE
380
     0
  9
$PSTYLEMODE
290
     1
  9
$FINGERPRINTGUID
  2
{778926d3-24f0-495e-90cb-f072dab142b9}
  9
$VERSIONGUID
  2
{FAEB1C32-E019-11D5-929B-00C0DF256EC4}
  9
$EXTNAMES
290
     1
  9
$PSVPSCALE
 40
0.0
  9
$OLESTARTUP
290
     0
  0
ENDSEC
  0
SECTION
  2
CLASSES
  0
CLASS
  1
ACDBDICTIONARYWDFLT
  2
AcDbDictionaryWithDefault
  3
ObjectDBX Classes
 90
        0
280
     0
281
     0
  0
CLASS
  1
VISUALSTYLE
  2
AcDbVisualStyle
  3
ObjectDBX Classes
 90
     4095
280
     0
281
     0
  0
CLASS
  1
MATERIAL
  2
AcDbMaterial
  3
ObjectDBX Classes
 90
     1153
280
     0
281
     0
  0
CLASS
  1
SCALE
  2
AcDbScale
  3
ObjectDBX Classes
 90
     1153
280
     0
281
     0
  0
CLASS
  1
TABLESTYLE
  2
AcDbTableStyle
  3
ObjectDBX Classes
 90
     4095
280
     0
281
     0
  0
CLASS
  1
MLEADERSTYLE
  2
AcDbMLeaderStyle
  3
ACDB_MLEADERSTYLE_CLASS
 90
     4095
280
     0
281
     0
  0
CLASS
  1
SUN
  2
AcDbSun
  3
SCENEOE
 90
     1153
280
     0
281
     0
  0
CLASS
  1
ACDBPLACEHOLDER
  2
AcDbPlaceHolder
  3
ObjectDBX Classes
 90
        0
280
     0
281
     0
  0
CLASS
  1
LAYOUT
  2
AcDbLayout
  3
ObjectDBX Classes
 90
        0
280
     0
281
     0
  0
ENDSEC
  0
SECTION
  2
TABLES
  0
TABLE
  2
VPORT
  5
8
330
0
100
AcDbSymbolTable
 70
     1
  0
VPORT
  5
29
330
8
100
AcDbSymbolTableRecord
100
AcDbViewportTableRecord
  2
*Active
 70
     0
 10
0.0
 20
0.0
 11
1.0
 21
1.0
 12
148.5
 22
105.0
 13
0.0
 23
0.0
 14
10.0
 24
10.0
 15
10.0
 25
10.0
 16
0.0
 26
0.0
 36
1.0
 17
0.0
 27
0.0
 37
0.0
 40
210.0
 41
1.4142857143
 42
50.0
 43
0.0
 44
0.0
 50
0.0
 51
0.0
 71
     0
 72
  2000
 73
     1
 74
     3
 75
     0
 76
     0
 77
     0
 78
     0
281
     0
 65
     1
110
0.0
120
0.0
130
0.0
111
1.0
121
0.0
131
0.0
112
0.0
122
1.0
132
0.0
 79
     0
146
0.0
  0
ENDTAB
  0
TABLE
  2
LTYPE
  5
5
330
0
100
AcDbSymbolTable
 70
     6
  0
LTYPE
  5
14
330
5
100
AcDbSymbolTableRecord
100
AcDbLinetypeTableRecord
  2
ByBlock
 70
     0
  3

 72
    65
 73
     0
 40
0.0
  0
LTYPE
  5
15
330
5
100
AcDbSymbolTableRecord
100
AcDbLinetypeTableRecord
  2
ByLayer
 70
     0
  3

 72
    65
 73
     0
 40
0.0
  0
LTYPE
  5
16
330
5
100
AcDbSymbolTableRecord
100
AcDbLinetypeTableRecord
  2
Continuous
 70
     0
  3
Solid line
 72
    65
 73
     0
 40
0.0
  0
LTYPE
  5
6E
330
5
100
AcDbSymbolTableRecord
100
AcDbLinetypeTableRecord
  2
HIDDEN
 70
     0
  3
Hidden __ __ __ __ __ __ __ __ __ __ __ __ __ __
 72
    65
 73
     2
 40
1.905
 49
1.27
 74
     0
 49
-0.635
 74
     0
  0
LTYPE
  5
6F
330
5
100
AcDbSymbolTableRecord
100
AcDbLinetypeTableRecord
  2
PHANTOM
 70
     0
  3
Phantom ______  __  __  ______  __  __  ______
 72
    65
 73
     6
 40
12.7
 49
6.35
 74
     0
 49
-1.27
 74
     0
 49
1.27
 74
     0
 49
-1.27
 74
     0
 49
1.27
 74
     0
 49
-1.27
 74
     0
  0
LTYPE
  5
70
330
5
100
AcDbSymbolTableRecord
100
AcDbLinetypeTableRecord
  2
CENTER
 70
     0
  3
Center ____ _ ____ _ ____ _ ____ _ ____ _ ____
 72
    65
 73
     4
 40
10.16
 49
6.35
 74
     0
 49
-1.27
 74
     0
 49
1.27
 74
     0
 49
-1.27
 74
     0
  0
LTYPE
  5
71
330
5
100
AcDbSymbolTableRecord
100
AcDbLinetypeTableRecord
  2
CENTERX2
 70
     0
  3
Center (2x) ________  __  ________  __  _____
 72
    65
 73
     4
 40
20.32
 49
12.7
 74
     0
 49
-2.54
 74
     0
 49
2.54
 74
     0
 49
-2.54
 74
     0
  0
LTYPE
  5
72
330
5
100
AcDbSymbolTableRecord
100
AcDbLinetypeTableRecord
  2
DOT2
 70
     0
  3
Dot (.5x) ........................................
 72
    65
 73
     2
 40
0.635
 49
0.0
 74
     0
 49
-0.635
 74
     0
  0
ENDTAB
  0
TABLE
  2
LAYER
  5
2
330
0
100
AcDbSymbolTable
 70
     1
  0
LAYER
  5
10
330
2
100
AcDbSymbolTableRecord
100
AcDbLayerTableRecord
  2
0
 70
     0
 62
     7
  6
Continuous
370
    -3
390
F
  0
ENDTAB
  0
TABLE
  2
STYLE
  5
3
330
0
100
AcDbSymbolTable
 70
     4
  0
STYLE
  5
11
330
3
100
AcDbSymbolTableRecord
100
AcDbTextStyleTableRecord
  2
Standard
 70
     0
 40
0.0
 41
1.0
 50
0.0
 71
     0
 42
3.5277777778
  3
txt
  4

  0
STYLE
  5
95
330
3
100
AcDbSymbolTableRecord
100
AcDbTextStyleTableRecord
  2
SLDTEXTSTYLE0
 70
     0
 40
0.0
 41
0.5675
 50
0.0
 71
     0
 42
3.5277777778
  3
TXT
  4

  0
STYLE
  5
9A
330
3
100
AcDbSymbolTableRecord
100
AcDbTextStyleTableRecord
  2
SLDTEXTSTYLE1
 70
     0
 40
0.0
 41
0.605
 50
0.0
 71
     0
 42
3.5277777778
  3
TXT
  4

  0
STYLE
  5
9E
330
3
100
AcDbSymbolTableRecord
100
AcDbTextStyleTableRecord
  2
SLDTEXTSTYLE2
 70
     0
 40
0.0
 41
0.5721875
 50
0.0
 71
     0
 42
3.5277777778
  3
TXT
  4

  0
ENDTAB
  0
TABLE
  2
VIEW
  5
6
330
0
100
AcDbSymbolTable
 70
     0
  0
ENDTAB
  0
TABLE
  2
UCS
  5
7
330
0
100
AcDbSymbolTable
 70
     0
  0
ENDTAB
  0
TABLE
  2
APPID
  5
9
330
0
100
AcDbSymbolTable
 70
     1
  0
APPID
  5
12
330
9
100
AcDbSymbolTableRecord
100
AcDbRegAppTableRecord
  2
ACAD
 70
     0
  0
ENDTAB
  0
TABLE
  2
DIMSTYLE
  5
A
330
0
100
AcDbSymbolTable
 70
     1
100
AcDbDimStyleTable
  0
DIMSTYLE
105
27
330
A
100
AcDbSymbolTableRecord
100
AcDbDimStyleTableRecord
  2
ISO-25
 70
     0
 41
2.5
 42
0.625
 43
3.75
 44
1.25
 73
     0
 74
     0
 77
     1
 78
     8
140
2.5
141
2.5
143
0.0393700787
147
0.625
171
     3
172
     1
178
     0
271
     2
272
     2
274
     3
278
    44
283
     0
284
     8
340
11
  0
ENDTAB
  0
TABLE
  2
BLOCK_RECORD
  5
1
330
0
100
AcDbSymbolTable
 70
     2
  0
BLOCK_RECORD
  5
1F
330
1
100
AcDbSymbolTableRecord
100
AcDbBlockTableRecord
  2
*Model_Space
340
22
  0
BLOCK_RECORD
  5
1B
330
1
100
AcDbSymbolTableRecord
100
AcDbBlockTableRecord
  2
*Paper_Space
340
1E
  0
BLOCK_RECORD
  5
23
330
1
100
AcDbSymbolTableRecord
100
AcDbBlockTableRecord
  2
*Paper_Space0
340
26
  0
BLOCK_RECORD
  5
97
330
1
100
AcDbSymbolTableRecord
100
AcDbBlockTableRecord
  2
SW_NOTE_0
340
0
102
{BLKREFS
331
9D
102
}
  0
ENDTAB
  0
ENDSEC
  0
SECTION
  2
BLOCKS
  0
BLOCK
  5
20
330
1F
100
AcDbEntity
  8
0
100
AcDbBlockBegin
  2
*Model_Space
 70
     0
 10
0.0
 20
0.0
 30
0.0
  3
*Model_Space
  1

  0
ENDBLK
  5
21
330
1F
100
AcDbEntity
  8
0
100
AcDbBlockEnd
  0
BLOCK
  5
1C
330
1B
100
AcDbEntity
 67
     1
  8
0
100
AcDbBlockBegin
  2
*Paper_Space
 70
     0
 10
0.0
 20
0.0
 30
0.0
  3
*Paper_Space
  1

  0
ENDBLK
  5
1D
330
1B
100
AcDbEntity
 67
     1
  8
0
100
AcDbBlockEnd
  0
BLOCK
  5
24
330
23
100
AcDbEntity
  8
0
100
AcDbBlockBegin
  2
*Paper_Space0
 70
     0
 10
0.0
 20
0.0
 30
0.0
  3
*Paper_Space0
  1

  0
ENDBLK
  5
25
330
23
100
AcDbEntity
  8
0
100
AcDbBlockEnd
  0
BLOCK
  5
98
330
97
100
AcDbEntity
  8
0
100
AcDbBlockBegin
  2
SW_NOTE_0
 70
     0
 10
0.0
 20
0.0
 30
0.0
  3
SW_NOTE_0
  1

  0
MTEXT
  5
9B
330
97
100
AcDbEntity
  8
0
  6
Continuous
 62
     0
370
     0
100
AcDbMText
 10
0.0
 20
6.8213167896
 30
0.0
 40
5.2916666667
 41
0.0
 71
     1
 72
     1
  1
DKP SAC
  7
SLDTEXTSTYLE1
 73
     1
 44
1.0
  0
MTEXT
  5
9C
330
97
100
AcDbEntity
  8
0
  6
Continuous
 62
     0
370
     0
100
AcDbMText
 10
0.0
 20
-1.2342388446
 30
0.0
 40
5.2916666667
 41
0.0
 71
     1
 72
     1
  1
2mm
  7
SLDTEXTSTYLE1
 73
     1
 44
1.0
  0
ENDBLK
  5
99
330
97
100
AcDbEntity
  8
0
100
AcDbBlockEnd
  0
ENDSEC
  0
SECTION
  2
ENTITIES
  0
LINE
  5
73
330
1F
100
AcDbEntity
  8
0
  6
CENTERX2
 62
     7
100
AcDbLine
 10
-162.1630780273
 20
199.5940349305
 30
0.0
 11
-162.1630780273
 21
499.5940349305
 31
0.0
  0
LINE
  5
74
330
1F
100
AcDbEntity
  8
0
  6
CENTERX2
 62
     7
100
AcDbLine
 10
-238.1654670679
 20
199.5940349305
 30
0.0
 11
-238.1654670679
 21
499.5940349305
 31
0.0
  0
LINE
  5
75
330
1F
100
AcDbEntity
  8
0
  6
Continuous
 62
     7
370
    35
100
AcDbLine
 10
-245.1666615883
 20
402.5940349305
 30
0.0
 11
-245.1666615883
 21
411.5940349305
 31
0.0
  0
ARC
  5
76
330
1F
100
AcDbEntity
  8
0
  6
Continuous
 62
     7
370
    35
100
AcDbCircle
 10
-248.1666615883
 20
411.5940349305
 30
0.0
 40
2.999999999999972
100
AcDbArc
 50
0.0
 51
180.0
  0
LINE
  5
77
330
1F
100
AcDbEntity
  8
0
  6
Continuous
 62
     7
370
    35
100
AcDbLine
 10
-251.1666615883
 20
411.5940349305
 30
0.0
 11
-251.1666615883
 21
402.5940349305
 31
0.0
  0
ARC
  5
78
330
1F
100
AcDbEntity
  8
0
  6
Continuous
 62
     7
370
    35
100
AcDbCircle
 10
-248.1666615883
 20
402.5940349305
 30
0.0
 40
2.999999999999972
100
AcDbArc
 50
180.0
 51
0.0
  0
LINE
  5
79
330
1F
100
AcDbEntity
  8
0
  6
Continuous
 62
     7
370
    35
100
AcDbLine
 10
-245.1666615883
 20
362.5940349305
 30
0.0
 11
-245.1666615883
 21
371.5940349305
 31
0.0
  0
ARC
  5
7A
330
1F
100
AcDbEntity
  8
0
  6
Continuous
 62
     7
370
    35
100
AcDbCircle
 10
-248.1666615883
 20
371.5940349305
 30
0.0
 40
3.0
100
AcDbArc
 50
0.0
 51
180.0
  0
LINE
  5
7B
330
1F
100
AcDbEntity
  8
0
  6
Continuous
 62
     7
370
    35
100
AcDbLine
 10
-251.1666615883
 20
371.5940349305
 30
0.0
 11
-251.1666615883
 21
362.5940349305
 31
0.0
  0
ARC
  5
7C
330
1F
100
AcDbEntity
  8
0
  6
Continuous
 62
     7
370
    35
100
AcDbCircle
 10
-248.1666615883
 20
362.5940349305
 30
0.0
 40
3.0
100
AcDbArc
 50
180.0
 51
0.0
  0
ARC
  5
7D
330
1F
100
AcDbEntity
  8
0
  6
Continuous
 62
     7
370
    35
100
AcDbCircle
 10
-248.1666615883
 20
207.5940349305
 30
0.0
 40
3.000000000000028
100
AcDbArc
 50
180.0
 51
0.0
  0
LINE
  5
7E
330
1F
100
AcDbEntity
  8
0
  6
Continuous
 62
     7
370
    35
100
AcDbLine
 10
-245.1666615883
 20
207.5940349305
 30
0.0
 11
-245.1666615883
 21
216.5940349305
 31
0.0
  0
ARC
  5
7F
330
1F
100
AcDbEntity
  8
0
  6
Continuous
 62
     7
370
    35
100
AcDbCircle
 10
-248.1666615883
 20
216.5940349305
 30
0.0
 40
3.000000000000028
100
AcDbArc
 50
0.0
 51
180.0
  0
LINE
  5
80
330
1F
100
AcDbEntity
  8
0
  6
Continuous
 62
     7
370
    35
100
AcDbLine
 10
-251.1666615883
 20
216.5940349305
 30
0.0
 11
-251.1666615883
 21
207.5940349305
 31
0.0
  0
LINE
  5
81
330
1F
100
AcDbEntity
  8
0
  6
Continuous
 62
     7
370
    35
100
AcDbLine
 10
-245.1666615883
 20
287.5940349305
 30
0.0
 11
-245.1666615883
 21
296.5940349305
 31
0.0
  0
ARC
  5
82
330
1F
100
AcDbEntity
  8
0
  6
Continuous
 62
     7
370
    35
100
AcDbCircle
 10
-248.1666615883
 20
296.5940349305
 30
0.0
 40
3.0
100
AcDbArc
 50
0.0
 51
180.0
  0
LINE
  5
83
330
1F
100
AcDbEntity
  8
0
  6
Continuous
 62
     7
370
    35
100
AcDbLine
 10
-251.1666615883
 20
296.5940349305
 30
0.0
 11
-251.1666615883
 21
287.5940349305
 31
0.0
  0
ARC
  5
84
330
1F
100
AcDbEntity
  8
0
  6
Continuous
 62
     7
370
    35
100
AcDbCircle
 10
-248.1666615883
 20
287.5940349305
 30
0.0
 40
3.0
100
AcDbArc
 50
180.0
 51
0.0
  0
LINE
  5
85
330
1F
100
AcDbEntity
  8
0
  6
Continuous
 62
     7
370
    35
100
AcDbLine
 10
-245.1666615883
 20
327.5940349305
 30
0.0
 11
-245.1666615883
 21
336.5940349305
 31
0.0
  0
ARC
  5
86
330
1F
100
AcDbEntity
  8
0
  6
Continuous
 62
     7
370
    35
100
AcDbCircle
 10
-248.1666615883
 20
336.5940349305
 30
0.0
 40
3.0
100
AcDbArc
 50
0.0
 51
180.0
  0
LINE
  5
87
330
1F
100
AcDbEntity
  8
0
  6
Continuous
 62
     7
370
    35
100
AcDbLine
 10
-251.1666615883
 20
336.5940349305
 30
0.0
 11
-251.1666615883
 21
327.5940349305
 31
0.0
  0
ARC
  5
88
330
1F
100
AcDbEntity
  8
0
  6
Continuous
 62
     7
370
    35
100
AcDbCircle
 10
-248.1666615883
 20
327.5940349305
 30
0.0
 40
3.0
100
AcDbArc
 50
180.0
 51
0.0
  0
ARC
  5
89
330
1F
100
AcDbEntity
  8
0
  6
Continuous
 62
     7
370
    35
100
AcDbCircle
 10
-248.1666615883
 20
491.5940349305
 30
0.0
 40
3.0
100
AcDbArc
 50
0.0
 51
180.0
  0
LINE
  5
8A
330
1F
100
AcDbEntity
  8
0
  6
Continuous
 62
     7
370
    35
100
AcDbLine
 10
-251.1666615883
 20
491.5940349305
 30
0.0
 11
-251.1666615883
 21
482.5940349305
 31
0.0
  0
ARC
  5
8B
330
1F
100
AcDbEntity
  8
0
  6
Continuous
 62
     7
370
    35
100
AcDbCircle
 10
-248.1666615883
 20
482.5940349305
 30
0.0
 40
3.0
100
AcDbArc
 50
180.0
 51
0.0
  0
LINE
  5
8C
330
1F
100
AcDbEntity
  8
0
  6
Continuous
 62
     7
370
    35
100
AcDbLine
 10
-245.1666615883
 20
482.5940349305
 30
0.0
 11
-245.1666615883
 21
491.5940349305
 31
0.0
  0
ARC
  5
8D
330
1F
100
AcDbEntity
  8
0
  6
Continuous
 62
     7
370
    35
100
AcDbCircle
 10
-114.1618835069
 20
494.5940349305
 30
0.0
 40
5.000000000000057
100
AcDbArc
 50
0.0
 51
90.0
  0
LINE
  5
8E
330
1F
100
AcDbEntity
  8
0
  6
Continuous
 62
     7
370
    35
100
AcDbLine
 10
-109.1618835069
 20
204.5940349305
 30
0.0
 11
-109.1618835069
 21
494.5940349305
 31
0.0
  0
ARC
  5
8F
330
1F
100
AcDbEntity
  8
0
  6
Continuous
 62
     7
370
    35
100
AcDbCircle
 10
-114.1618835069
 20
204.5940349305
 30
0.0
 40
5.000000000000028
100
AcDbArc
 50
270.0
 51
0.0
  0
LINE
  5
90
330
1F
100
AcDbEntity
  8
0
  6
Continuous
 62
     7
370
    35
100
AcDbLine
 10
-114.1618835069
 20
199.5940349305
 30
0.0
 11
-253.1666615883
 21
199.5940349305
 31
0.0
  0
ARC
  5
91
330
1F
100
AcDbEntity
  8
0
  6
Continuous
 62
     7
370
    35
100
AcDbCircle
 10
-253.1666615883
 20
204.5940349305
 30
0.0
 40
5.000000000000028
100
AcDbArc
 50
180.0
 51
270.0
  0
LINE
  5
92
330
1F
100
AcDbEntity
  8
0
  6
Continuous
 62
     7
370
    35
100
AcDbLine
 10
-258.1666615883
 20
204.5940349305
 30
0.0
 11
-258.1666615883
 21
494.5940349305
 31
0.0
  0
ARC
  5
93
330
1F
100
AcDbEntity
  8
0
  6
Continuous
 62
     7
370
    35
100
AcDbCircle
 10
-253.1666615883
 20
494.5940349305
 30
0.0
 40
5.000000000000057
100
AcDbArc
 50
90.0
 51
180.0
  0
LINE
  5
94
330
1F
100
AcDbEntity
  8
0
  6
Continuous
 62
     7
370
    35
100
AcDbLine
 10
-114.1618835069
 20
499.5940349305
 30
0.0
 11
-253.1666615883
 21
499.5940349305
 31
0.0
  0
MTEXT
  5
96
330
1F
100
AcDbEntity
  8
0
  6
Continuous
 62
     7
370
     0
100
AcDbMText
 10
-165.66231083
 20
349.2143096779
 30
0.0
 40
2.6458333333
 41
0.0
 71
     2
 72
     1
  1
UP  90°0'  R 2
  7
SLDTEXTSTYLE0
 11
-3.491481338843133E-15
 21
1.0
 31
0.0
 73
     1
 44
1.0
  0
INSERT
  5
9D
330
1F
100
AcDbEntity
  8
0
  6
Continuous
 62
     7
370
     0
100
AcDbBlockReference
  2
SW_NOTE_0
 10
-149.1137534998
 20
265.5062015504
 30
0.0
  0
MTEXT
  5
9F
330
1F
100
AcDbEntity
  8
0
  6
Continuous
 62
     7
370
     0
100
AcDbMText
 10
-241.6646998707
 20
349.2617738201
 30
0.0
 40
2.6458333333
 41
0.0
 71
     2
 72
     1
  1
DOWN  90°0'  R 2
  7
SLDTEXTSTYLE2
 11
-3.491481338843133E-15
 21
1.0
 31
0.0
 73
     1
 44
1.0
  0
LINE
  5
A0
330
1F
100
AcDbEntity
  8
0
  6
Continuous
 62
     7
370
    35
100
AcDbLine
 10
-190.8478943937
 20
-137.158121919
 30
0.0
 11
-236.8478943937
 21
-137.158121919
 31
0.0
  0
LINE
  5
A1
330
1F
100
AcDbEntity
  8
0
  6
Continuous
 62
     7
370
    35
100
AcDbLine
 10
-236.8478943937
 20
162.841878081
 30
0.0
 11
-236.8478943937
 21
-137.158121919
 31
0.0
  0
LINE
  5
A2
330
1F
100
AcDbEntity
  8
0
  6
Continuous
 62
     7
370
    35
100
AcDbLine
 10
-190.8478943937
 20
162.841878081
 30
0.0
 11
-236.8478943937
 21
162.841878081
 31
0.0
  0
ARC
  5
A3
330
1F
100
AcDbEntity
  8
0
  6
Continuous
 62
     7
370
    35
100
AcDbCircle
 10
-190.8478943937
 20
157.841878081
 30
0.0
 40
5.000000000000028
100
AcDbArc
 50
0.0
 51
90.0
  0
LINE
  5
A4
330
1F
100
AcDbEntity
  8
0
  6
Continuous
 62
     7
370
    35
100
AcDbLine
 10
-185.8478943937
 20
157.841878081
 30
0.0
 11
-185.8478943937
 21
-132.158121919
 31
0.0
  0
ARC
  5
A5
330
1F
100
AcDbEntity
  8
0
  6
Continuous
 62
     7
370
    35
100
AcDbCircle
 10
-190.8478943937
 20
-132.158121919
 30
0.0
 40
5.0
100
AcDbArc
 50
270.0
 51
0.0
  0
LINE
  5
A6
330
1F
100
AcDbEntity
  8
0
  6
Continuous
 62
     7
370
    35
100
AcDbLine
 10
-240.8478943937
 20
162.841878081
 30
0.0
 11
-240.8478943937
 21
-137.158121919
 31
0.0
  0
LINE
  5
A7
330
1F
100
AcDbEntity
  8
0
  6
Continuous
 62
     7
370
    35
100
AcDbLine
 10
-236.8478943937
 20
162.841878081
 30
0.0
 11
-240.8478943937
 21
162.841878081
 31
0.0
  0
LINE
  5
A8
330
1F
100
AcDbEntity
  8
0
  6
Continuous
 62
     7
370
    35
100
AcDbLine
 10
-236.8478943937
 20
-137.158121919
 30
0.0
 11
-240.8478943937
 21
-137.158121919
 31
0.0
  0
LINE
  5
A9
330
1F
100
AcDbEntity
  8
0
  6
Continuous
 62
     7
370
    35
100
AcDbLine
 10
-242.8478943937
 20
162.841878081
 30
0.0
 11
-242.8478943937
 21
-137.158121919
 31
0.0
  0
LINE
  5
AA
330
1F
100
AcDbEntity
  8
0
  6
Continuous
 62
     7
370
    35
100
AcDbLine
 10
-240.8478943937
 20
162.841878081
 30
0.0
 11
-242.8478943937
 21
162.841878081
 31
0.0
  0
LINE
  5
AB
330
1F
100
AcDbEntity
  8
0
  6
Continuous
 62
     7
370
    35
100
AcDbLine
 10
-242.8478943937
 20
-137.158121919
 30
0.0
 11
-240.8478943937
 21
-137.158121919
 31
0.0
  0
LINE
  5
AC
330
1F
100
AcDbEntity
  8
0
  6
Continuous
 62
     7
370
    35
100
AcDbLine
 10
-253.8478943937
 20
154.841878081
 30
0.0
 11
-253.8478943937
 21
145.841878081
 31
0.0
  0
ARC
  5
AD
330
1F
100
AcDbEntity
  8
0
  6
Continuous
 62
     7
370
    35
100
AcDbCircle
 10
-250.8478943937
 20
145.841878081
 30
0.0
 40
3.000000000000028
100
AcDbArc
 50
180.0
 51
0.0
  0
LINE
  5
AE
330
1F
100
AcDbEntity
  8
0
  6
Continuous
 62
     7
370
    35
100
AcDbLine
 10
-247.8478943937
 20
154.841878081
 30
0.0
 11
-247.8478943937
 21
145.841878081
 31
0.0
  0
ARC
  5
AF
330
1F
100
AcDbEntity
  8
0
  6
Continuous
 62
     7
370
    35
100
AcDbCircle
 10
-250.8478943937
 20
154.841878081
 30
0.0
 40
3.000000000000028
100
AcDbArc
 50
0.0
 51
180.0
  0
ARC
  5
B0
330
1F
100
AcDbEntity
  8
0
  6
Continuous
 62
     7
370
    35
100
AcDbCircle
 10
-250.8478943937
 20
-9.158121919
 30
0.0
 40
3.000000000000028
100
AcDbArc
 50
180.0
 51
0.0
  0
LINE
  5
B1
330
1F
100
AcDbEntity
  8
0
  6
Continuous
 62
     7
370
    35
100
AcDbLine
 10
-247.8478943937
 20
-0.158121919
 30
0.0
 11
-247.8478943937
 21
-9.158121919
 31
0.0
  0
ARC
  5
B2
330
1F
100
AcDbEntity
  8
0
  6
Continuous
 62
     7
370
    35
100
AcDbCircle
 10
-250.8478943937
 20
-0.158121919
 30
0.0
 40
3.000000000000028
100
AcDbArc
 50
0.0
 51
180.0
  0
LINE
  5
B3
330
1F
100
AcDbEntity
  8
0
  6
Continuous
 62
     7
370
    35
100
AcDbLine
 10
-253.8478943937
 20
-0.158121919
 30
0.0
 11
-253.8478943937
 21
-9.158121919
 31
0.0
  0
ARC
  5
B4
330
1F
100
AcDbEntity
  8
0
  6
Continuous
 62
     7
370
    35
100
AcDbCircle
 10
-255.8478943937
 20
157.841878081
 30
0.0
 40
5.000000000000028
100
AcDbArc
 50
90.0
 51
180.0
  0
ARC
  5
B5
330
1F
100
AcDbEntity
  8
0
  6
Continuous
 62
     7
370
    35
100
AcDbCircle
 10
-255.8478943937
 20
-132.158121919
 30
0.0
 40
5.000000000000028
100
AcDbArc
 50
180.0
 51
270.0
  0
LINE
  5
B6
330
1F
100
AcDbEntity
  8
0
  6
Continuous
 62
     7
370
    35
100
AcDbLine
 10
-260.8478943937
 20
157.841878081
 30
0.0
 11
-260.8478943937
 21
-132.158121919
 31
0.0
  0
LINE
  5
B7
330
1F
100
AcDbEntity
  8
0
  6
Continuous
 62
     7
370
    35
100
AcDbLine
 10
-247.8478943937
 20
-40.158121919
 30
0.0
 11
-247.8478943937
 21
-49.158121919
 31
0.0
  0
ARC
  5
B8
330
1F
100
AcDbEntity
  8
0
  6
Continuous
 62
     7
370
    35
100
AcDbCircle
 10
-250.8478943937
 20
-40.158121919
 30
0.0
 40
3.000000000000057
100
AcDbArc
 50
0.0
 51
180.0
  0
LINE
  5
B9
330
1F
100
AcDbEntity
  8
0
  6
Continuous
 62
     7
370
    35
100
AcDbLine
 10
-253.8478943937
 20
-40.158121919
 30
0.0
 11
-253.8478943937
 21
-49.158121919
 31
0.0
  0
ARC
  5
BA
330
1F
100
AcDbEntity
  8
0
  6
Continuous
 62
     7
370
    35
100
AcDbCircle
 10
-250.8478943937
 20
-49.158121919
 30
0.0
 40
3.000000000000057
100
AcDbArc
 50
180.0
 51
0.0
  0
LINE
  5
BB
330
1F
100
AcDbEntity
  8
0
  6
Continuous
 62
     7
370
    35
100
AcDbLine
 10
-253.8478943937
 20
74.841878081
 30
0.0
 11
-253.8478943937
 21
65.841878081
 31
0.0
  0
ARC
  5
BC
330
1F
100
AcDbEntity
  8
0
  6
Continuous
 62
     7
370
    35
100
AcDbCircle
 10
-250.8478943937
 20
65.841878081
 30
0.0
 40
3.000000000000028
100
AcDbArc
 50
180.0
 51
0.0
  0
LINE
  5
BD
330
1F
100
AcDbEntity
  8
0
  6
Continuous
 62
     7
370
    35
100
AcDbLine
 10
-247.8478943937
 20
74.841878081
 30
0.0
 11
-247.8478943937
 21
65.841878081
 31
0.0
  0
ARC
  5
BE
330
1F
100
AcDbEntity
  8
0
  6
Continuous
 62
     7
370
    35
100
AcDbCircle
 10
-250.8478943937
 20
74.841878081
 30
0.0
 40
3.000000000000028
100
AcDbArc
 50
0.0
 51
180.0
  0
ARC
  5
BF
330
1F
100
AcDbEntity
  8
0
  6
Continuous
 62
     7
370
    35
100
AcDbCircle
 10
-250.8478943937
 20
34.841878081
 30
0.0
 40
3.000000000000028
100
AcDbArc
 50
0.0
 51
180.0
  0
LINE
  5
C0
330
1F
100
AcDbEntity
  8
0
  6
Continuous
 62
     7
370
    35
100
AcDbLine
 10
-253.8478943937
 20
34.841878081
 30
0.0
 11
-253.8478943937
 21
25.841878081
 31
0.0
  0
ARC
  5
C1
330
1F
100
AcDbEntity
  8
0
  6
Continuous
 62
     7
370
    35
100
AcDbCircle
 10
-250.8478943937
 20
25.841878081
 30
0.0
 40
3.000000000000028
100
AcDbArc
 50
180.0
 51
0.0
  0
LINE
  5
C2
330
1F
100
AcDbEntity
  8
0
  6
Continuous
 62
     7
370
    35
100
AcDbLine
 10
-247.8478943937
 20
34.841878081
 30
0.0
 11
-247.8478943937
 21
25.841878081
 31
0.0
  0
ARC
  5
C3
330
1F
100
AcDbEntity
  8
0
  6
Continuous
 62
     7
370
    35
100
AcDbCircle
 10
-250.8478943937
 20
-120.158121919
 30
0.0
 40
3.0
100
AcDbArc
 50
0.0
 51
180.0
  0
LINE
  5
C4
330
1F
100
AcDbEntity
  8
0
  6
Continuous
 62
     7
370
    35
100
AcDbLine
 10
-253.8478943937
 20
-120.158121919
 30
0.0
 11
-253.8478943937
 21
-129.158121919
 31
0.0
  0
ARC
  5
C5
330
1F
100
AcDbEntity
  8
0
  6
Continuous
 62
     7
370
    35
100
AcDbCircle
 10
-250.8478943937
 20
-129.158121919
 30
0.0
 40
3.000000000000057
100
AcDbArc
 50
180.0
 51
0.0
  0
LINE
  5
C6
330
1F
100
AcDbEntity
  8
0
  6
Continuous
 62
     7
370
    35
100
AcDbLine
 10
-247.8478943937
 20
-120.158121919
 30
0.0
 11
-247.8478943937
 21
-129.158121919
 31
0.0
  0
LINE
  5
C7
330
1F
100
AcDbEntity
  8
0
  6
Continuous
 62
     7
370
    35
100
AcDbLine
 10
-242.8478943937
 20
162.841878081
 30
0.0
 11
-255.8478943937
 21
162.841878081
 31
0.0
  0
LINE
  5
C8
330
1F
100
AcDbEntity
  8
0
  6
Continuous
 62
     7
370
    35
100
AcDbLine
 10
-255.8478943937
 20
-137.158121919
 30
0.0
 11
-242.8478943937
 21
-137.158121919
 31
0.0
  0
LINE
  5
C9
330
1F
100
AcDbEntity
  8
0
  6
Continuous
 62
     7
370
    35
100
AcDbLine
 10
-255.8478943937
 20
-176.2165030323
 30
0.0
 11
-255.8478943937
 21
-178.2165030323
 31
0.0
  0
LINE
  5
CA
330
1F
100
AcDbEntity
  8
0
  6
Continuous
 62
     7
370
    35
100
AcDbLine
 10
-260.8478943937
 20
-178.2165030323
 30
0.0
 11
-260.8478943937
 21
-176.2165030323
 31
0.0
  0
LINE
  5
CB
330
1F
100
AcDbEntity
  8
0
  6
Continuous
 62
     7
370
    35
100
AcDbLine
 10
-260.8478943937
 20
-176.2165030323
 30
0.0
 11
-255.8478943937
 21
-176.2165030323
 31
0.0
  0
LINE
  5
CC
330
1F
100
AcDbEntity
  8
0
  6
Continuous
 62
     7
370
    35
100
AcDbLine
 10
-255.8478943937
 20
-178.2165030323
 30
0.0
 11
-260.8478943937
 21
-178.2165030323
 31
0.0
  0
LINE
  5
CD
330
1F
100
AcDbEntity
  8
0
  6
Continuous
 62
     7
370
    35
100
AcDbLine
 10
-242.8478943937
 20
-178.2165030323
 30
0.0
 11
-242.8478943937
 21
-176.2165030323
 31
0.0
  0
LINE
  5
CE
330
1F
100
AcDbEntity
  8
0
  6
Continuous
 62
     7
370
    35
100
AcDbLine
 10
-242.8478943937
 20
-176.2165030323
 30
0.0
 11
-255.8478943937
 21
-176.2165030323
 31
0.0
  0
LINE
  5
CF
330
1F
100
AcDbEntity
  8
0
  6
Continuous
 62
     7
370
    35
100
AcDbLine
 10
-242.8478943937
 20
-178.2165030323
 30
0.0
 11
-255.8478943937
 21
-178.2165030323
 31
0.0
  0
LINE
  5
D0
330
1F
100
AcDbEntity
  8
0
  6
Continuous
 62
     7
370
    35
100
AcDbLine
 10
-238.8478943937
 20
-252.2165030323
 30
0.0
 11
-238.8478943937
 21
-180.2165030323
 31
0.0
  0
LINE
  5
D1
330
1F
100
AcDbEntity
  8
0
  6
Continuous
 62
     7
370
    35
100
AcDbLine
 10
-240.8478943937
 20
-252.2165030323
 30
0.0
 11
-238.8478943937
 21
-252.2165030323
 31
0.0
  0
LINE
  5
D2
330
1F
100
AcDbEntity
  8
0
  6
Continuous
 62
     7
370
    35
100
AcDbLine
 10
-240.8478943937
 20
-252.2165030323
 30
0.0
 11
-240.8478943937
 21
-180.2165030323
 31
0.0
  0
LINE
  5
D3
330
1F
100
AcDbEntity
  8
0
  6
Continuous
 62
     7
370
    35
100
AcDbLine
 10
-240.8478943937
 20
-180.2165030323
 30
0.0
 11
-238.8478943937
 21
-180.2165030323
 31
0.0
  0
ARC
  5
D4
330
1F
100
AcDbEntity
  8
0
  6
Continuous
 62
     7
370
    35
100
AcDbCircle
 10
-242.8478943937
 20
-180.2165030323
 30
0.0
 40
2.0
100
AcDbArc
 50
0.0
 51
90.0
  0
ARC
  5
D5
330
1F
100
AcDbEntity
  8
0
  6
Continuous
 62
     7
370
    35
100
AcDbCircle
 10
-242.8478943937
 20
-180.2165030323
 30
0.0
 40
4.0
100
AcDbArc
 50
0.0
 51
90.0
  0
LINE
  5
D6
330
1F
100
AcDbEntity
  8
0
  6
Continuous
 62
     7
370
    35
100
AcDbLine
 10
-236.8478943937
 20
-254.2165030323
 30
0.0
 11
-236.8478943937
 21
-256.2165030323
 31
0.0
  0
ARC
  5
D7
330
1F
100
AcDbEntity
  8
0
  6
Continuous
 62
     7
370
    35
100
AcDbCircle
 10
-236.8478943937
 20
-252.2165030323
 30
0.0
 40
4.0
100
AcDbArc
 50
180.0
 51
270.0
  0
ARC
  5
D8
330
1F
100
AcDbEntity
  8
0
  6
Continuous
 62
     7
370
    35
100
AcDbCircle
 10
-236.8478943937
 20
-252.2165030323
 30
0.0
 40
2.0
100
AcDbArc
 50
180.0
 51
270.0
  0
LINE
  5
D9
330
1F
100
AcDbEntity
  8
0
  6
Continuous
 62
     7
370
    35
100
AcDbLine
 10
-190.8478943937
 20
-254.2165030323
 30
0.0
 11
-236.8478943937
 21
-254.2165030323
 31
0.0
  0
LINE
  5
DA
330
1F
100
AcDbEntity
  8
0
  6
Continuous
 62
     7
370
    35
100
AcDbLine
 10
-190.8478943937
 20
-256.2165030323
 30
0.0
 11
-190.8478943937
 21
-254.2165030323
 31
0.0
  0
LINE
  5
DB
330
1F
100
AcDbEntity
  8
0
  6
Continuous
 62
     7
370
    35
100
AcDbLine
 10
-190.8478943937
 20
-256.2165030323
 30
0.0
 11
-236.8478943937
 21
-256.2165030323
 31
0.0
  0
LINE
  5
DC
330
1F
100
AcDbEntity
  8
0
  6
Continuous
 62
     7
370
    35
100
AcDbLine
 10
-185.8478943937
 20
-254.2165030323
 30
0.0
 11
-185.8478943937
 21
-256.2165030323
 31
0.0
  0
LINE
  5
DD
330
1F
100
AcDbEntity
  8
0
  6
Continuous
 62
     7
370
    35
100
AcDbLine
 10
-190.8478943937
 20
-254.2165030323
 30
0.0
 11
-185.8478943937
 21
-254.2165030323
 31
0.0
  0
LINE
  5
DE
330
1F
100
AcDbEntity
  8
0
  6
Continuous
 62
     7
370
    35
100
AcDbLine
 10
-185.8478943937
 20
-256.2165030323
 30
0.0
 11
-190.8478943937
 21
-256.2165030323
 31
0.0
  0
LINE
  5
DF
330
1F
100
AcDbEntity
  8
0
  6
Continuous
 62
     7
370
    35
100
AcDbLine
 10
-357.0170314061
 20
148.8104102179
 30
0.0
 11
-358.4312449685
 21
149.6268183297
 31
0.0
  0
LINE
  5
E0
330
1F
100
AcDbEntity
  8
0
  6
Continuous
 62
     7
370
    35
100
AcDbLine
 10
-464.5471083413
 20
-90.5238530141
 30
0.0
 11
-463.132894779
 21
-91.3402611259
 31
0.0
  0
ARC
  5
E1
330
1F
100
AcDbEntity
  8
0
  6
Continuous
 62
     7
370
    35
100
AcDbCircle
 10
-394.872167297
 20
133.3313136753
 30
0.0
 40
3.074043815823593
100
AcDbArc
 50
242.6096722366
 51
297.3903277634
  0
LINE
  5
E2
330
1F
100
AcDbEntity
  8
0
  6
Continuous
 62
     7
370
    35
100
AcDbLine
 10
-393.4579537347
 20
130.6018915053
 30
0.0
 11
-392.0437401723
 21
129.7854833935
 31
0.0
  0
ARC
  5
E3
330
1F
100
AcDbEntity
  8
0
  6
Continuous
 62
     7
370
    35
100
AcDbCircle
 10
-394.872167297
 20
135.2443277333
 30
0.0
 40
6.148087631646631
100
AcDbArc
 50
242.6096722366
 51
297.3903277634
  0
LINE
  5
E4
330
1F
100
AcDbEntity
  8
0
  6
Continuous
 62
     7
370
    35
100
AcDbLine
 10
-397.7005944218
 20
129.7854833935
 30
0.0
 11
-396.2863808594
 21
130.6018915053
 31
0.0
  0
LINE
  5
E5
330
1F
100
AcDbEntity
  8
0
  6
Continuous
 62
     7
370
    35
100
AcDbLine
 10
-397.7005944218
 20
129.7854833935
 30
0.0
 11
-397.7005944218
 21
-115.1767601722
 31
0.0
  0
LINE
  5
E6
330
1F
100
AcDbEntity
  8
0
  6
Continuous
 62
     7
370
    35
100
AcDbLine
 10
-392.0437401723
 20
129.7854833935
 30
0.0
 11
-392.0437401723
 21
-115.1767601722
 31
0.0
  0
ARC
  5
E7
330
1F
100
AcDbEntity
  8
0
  6
Continuous
 62
     7
370
    35
100
AcDbCircle
 10
-394.872167297
 20
-109.7179158324
 30
0.0
 40
6.14808763164677
100
AcDbArc
 50
242.6096722366
 51
297.3903277634
  0
LINE
  5
E8
330
1F
100
AcDbEntity
  8
0
  6
Continuous
 62
     7
370
    35
100
AcDbLine
 10
-397.7005944218
 20
-115.1767601722
 30
0.0
 11
-448.6122826672
 21
-85.7860681466
 31
0.0
  0
LINE
  5
E9
330
1F
100
AcDbEntity
  8
0
  6
Continuous
 62
     7
370
    35
100
AcDbLine
 10
-448.6122826672
 20
-85.7860681466
 30
0.0
 11
-448.6122826672
 21
159.1761754191
 31
0.0
  0
LINE
  5
EA
330
1F
100
AcDbEntity
  8
0
  6
Continuous
 62
     7
370
    35
100
AcDbLine
 10
-397.7005944218
 20
129.7854833935
 30
0.0
 11
-448.6122826672
 21
159.1761754191
 31
0.0
  0
LINE
  5
EB
330
1F
100
AcDbEntity
  8
0
  6
Continuous
 62
     7
370
    35
100
AcDbLine
 10
-396.2863808594
 20
130.6018915053
 30
0.0
 11
-447.1980691048
 21
159.992583531
 31
0.0
  0
LINE
  5
EC
330
1F
100
AcDbEntity
  8
0
  6
Continuous
 62
     7
370
    35
100
AcDbLine
 10
-448.6122826672
 20
159.1761754191
 30
0.0
 11
-447.1980691048
 21
159.992583531
 31
0.0
  0
ARC
  5
ED
330
1F
100
AcDbEntity
  8
0
  6
Continuous
 62
     7
370
    35
100
AcDbCircle
 10
-363.6573748386
 20
-89.926345
 30
0.0
 40
7.684024037860404
100
AcDbArc
 50
302.60547834
 51
357.3945215143
  0
LINE
  5
EE
330
1F
100
AcDbEntity
  8
0
  6
Continuous
 62
     7
370
    35
100
AcDbLine
 10
-359.5168282377
 20
-96.3993736003
 30
0.0
 11
-392.0437401723
 21
-115.1767601722
 31
0.0
  0
LINE
  5
EF
330
1F
100
AcDbEntity
  8
0
  6
Continuous
 62
     7
370
    35
100
AcDbLine
 10
-359.5168282377
 20
148.5628699654
 30
0.0
 11
-392.0437401723
 21
129.7854833935
 31
0.0
  0
ARC
  5
F0
330
1F
100
AcDbEntity
  8
0
  6
Continuous
 62
     7
370
    35
100
AcDbCircle
 10
-358.1366661689
 20
146.8708221701
 30
0.0
 40
2.183545987142357
100
AcDbArc
 50
350.7859630095
 51
129.2032852357
  0
LINE
  5
F1
330
1F
100
AcDbEntity
  8
0
  6
Continuous
 62
     7
370
    35
100
AcDbLine
 10
-355.9812943318
 20
146.5211861856
 30
0.0
 11
-355.9812943318
 21
-90.2756492613
 31
0.0
  0
LINE
  5
F2
330
1F
100
AcDbEntity
  8
0
  6
Continuous
 62
     7
370
    35
100
AcDbLine
 10
-360.9310418001
 20
149.3792780773
 30
0.0
 11
-393.4579537347
 21
130.6018915053
 31
0.0
  0
LINE
  5
F3
330
1F
100
AcDbEntity
  8
0
  6
Continuous
 62
     7
370
    35
100
AcDbLine
 10
-359.5168282377
 20
148.5628699654
 30
0.0
 11
-360.9310418001
 21
149.3792780773
 31
0.0
  0
ARC
  5
F4
330
1F
100
AcDbEntity
  8
0
  6
Continuous
 62
     7
370
    35
100
AcDbCircle
 10
-359.4664415258
 20
147.3348714317
 30
0.0
 40
2.514886179508871
100
AcDbArc
 50
65.6928809539
 51
125.6175774752
  0
LINE
  5
F5
330
1F
100
AcDbEntity
  8
0
  6
Continuous
 62
     7
370
    35
100
AcDbLine
 10
-459.218884385
 20
148.153604309
 30
0.0
 11
-459.218884385
 21
140.8047370021
 31
0.0
  0
LWPOLYLINE
  5
F6
330
1F
100
AcDbEntity
  8
0
  6
Continuous
 62
     7
370
    35
100
AcDbPolyline
 90
       10
 70
   128
 43
0.0
 10
-459.218884385
 20
140.8047370021
 10
-459.0909531146
 20
140.0407699359
 10
-458.7225897027
 20
139.5166548737
 10
-458.1582242132
 20
139.295607827
 10
-457.4659274533
 20
139.4042903319
 10
-456.7292006295
 20
139.8295936745
 10
-456.0369038697
 20
140.5202199947
 10
-455.4725383802
 20
141.3928695658
 10
-455.1041749683
 20
142.3422879706
 10
-454.9762436979
 20
143.2539613375
  0
LINE
  5
F7
330
1F
100
AcDbEntity
  8
0
  6
Continuous
 62
     7
370
    35
100
AcDbLine
 10
-454.9762436979
 20
150.6028286445
 30
0.0
 11
-454.9762436979
 21
143.2539613375
 31
0.0
  0
LWPOLYLINE
  5
F8
330
1F
100
AcDbEntity
  8
0
  6
Continuous
 62
     7
370
    35
100
AcDbPolyline
 90
       10
 70
   128
 43
0.0
 10
-454.9762436979
 20
150.6028286445
 10
-455.1041749683
 20
151.3667957106
 10
-455.4725383802
 20
151.8909107729
 10
-456.0369038697
 20
152.1119578196
 10
-456.7292006295
 20
152.0032753146
 10
-457.4659274533
 20
151.5779719721
 10
-458.1582242132
 20
150.8873456519
 10
-458.7225897027
 20
150.0146960807
 10
-459.0909531146
 20
149.065277676
 10
-459.218884385
 20
148.153604309
  0
LWPOLYLINE
  5
F9
330
1F
100
AcDbEntity
  8
0
  6
Continuous
 62
     7
370
    35
100
AcDbPolyline
 90
       10
 70
   128
 43
0.0
 10
-459.218884385
 20
14.2409111598
 10
-459.0909531146
 20
13.4769440936
 10
-458.7225897027
 20
12.9528290314
 10
-458.1582242132
 20
12.7317819847
 10
-457.4659274533
 20
12.8404644896
 10
-456.7292006295
 20
13.2657678322
 10
-456.0369038697
 20
13.9563941524
 10
-455.4725383802
 20
14.8290437235
 10
-455.1041749683
 20
15.7784621283
 10
-454.9762436979
 20
16.6901354952
  0
LINE
  5
FA
330
1F
100
AcDbEntity
  8
0
  6
Continuous
 62
     7
370
    35
100
AcDbLine
 10
-454.9762436979
 20
24.0390028022
 30
0.0
 11
-454.9762436979
 21
16.6901354952
 31
0.0
  0
LWPOLYLINE
  5
FB
330
1F
100
AcDbEntity
  8
0
  6
Continuous
 62
     7
370
    35
100
AcDbPolyline
 90
       10
 70
   128
 43
0.0
 10
-454.9762436979
 20
24.0390028022
 10
-455.1041749683
 20
24.8029698684
 10
-455.4725383802
 20
25.3270849306
 10
-456.0369038697
 20
25.5481319773
 10
-456.7292006295
 20
25.4394494723
 10
-457.4659274533
 20
25.0141461298
 10
-458.1582242132
 20
24.3235198096
 10
-458.7225897027
 20
23.4508702385
 10
-459.0909531146
 20
22.5014518337
 10
-459.218884385
 20
21.5897784667
  0
LINE
  5
FC
330
1F
100
AcDbEntity
  8
0
  6
Continuous
 62
     7
370
    35
100
AcDbLine
 10
-459.218884385
 20
21.5897784667
 30
0.0
 11
-459.218884385
 21
14.2409111598
 31
0.0
  0
ARC
  5
FD
330
1F
100
AcDbEntity
  8
0
  6
Continuous
 62
     7
370
    35
100
AcDbCircle
 10
-456.4925513465
 20
147.396494092
 30
0.0
 40
7.68402403786058
100
AcDbArc
 50
122.60547834
 51
177.3945215143
  0
LINE
  5
FE
330
1F
100
AcDbEntity
  8
0
  6
Continuous
 62
     7
370
    35
100
AcDbLine
 10
-451.4407097919
 20
159.1761754191
 30
0.0
 11
-460.6330979474
 21
153.8695226923
 31
0.0
  0
LINE
  5
FF
330
1F
100
AcDbEntity
  8
0
  6
Continuous
 62
     7
370
    35
100
AcDbLine
 10
-451.4407097919
 20
159.1761754191
 30
0.0
 11
-451.4407097919
 21
-85.7860681466
 31
0.0
  0
LINE
  5
100
330
1F
100
AcDbEntity
  8
0
  6
Continuous
 62
     7
370
    35
100
AcDbLine
 10
-460.6330979474
 20
-91.0927208734
 30
0.0
 11
-451.4407097919
 21
-85.7860681466
 31
0.0
  0
ARC
  5
101
330
1F
100
AcDbEntity
  8
0
  6
Continuous
 62
     7
370
    35
100
AcDbCircle
 10
-462.0132600162
 20
-89.4006730781
 30
0.0
 40
2.183545987142538
100
AcDbArc
 50
170.7859630095
 51
309.2032852357
  0
LINE
  5
102
330
1F
100
AcDbEntity
  8
0
  6
Continuous
 62
     7
370
    35
100
AcDbLine
 10
-464.1686318533
 20
147.7457983533
 30
0.0
 11
-464.1686318533
 21
-89.0510370936
 31
0.0
  0
LINE
  5
103
330
1F
100
AcDbEntity
  8
0
  6
Continuous
 62
     7
370
    35
100
AcDbLine
 10
-454.9762436979
 20
-8.6226296732
 30
0.0
 11
-454.9762436979
 21
-15.9714969802
 31
0.0
  0
LWPOLYLINE
  5
104
330
1F
100
AcDbEntity
  8
0
  6
Continuous
 62
     7
370
    35
100
AcDbPolyline
 90
       10
 70
   128
 43
0.0
 10
-454.9762436979
 20
-8.6226296732
 10
-455.1041749683
 20
-7.8586626071
 10
-455.4725383802
 20
-7.3345475448
 10
-456.0369038697
 20
-7.1135004981
 10
-456.7292006295
 20
-7.2221830031
 10
-457.4659274533
 20
-7.6474863456
 10
-458.1582242132
 20
-8.3381126659
 10
-458.7225897027
 20
-9.210762237
 10
-459.0909531146
 20
-10.1601806418
 10
-459.218884385
 20
-11.0718540087
  0
LINE
  5
105
330
1F
100
AcDbEntity
  8
0
  6
Continuous
 62
     7
370
    35
100
AcDbLine
 10
-459.218884385
 20
-11.0718540087
 30
0.0
 11
-459.218884385
 21
-18.4207213157
 31
0.0
  0
LWPOLYLINE
  5
106
330
1F
100
AcDbEntity
  8
0
  6
Continuous
 62
     7
370
    35
100
AcDbPolyline
 90
       10
 70
   128
 43
0.0
 10
-459.218884385
 20
-18.4207213157
 10
-459.0909531146
 20
-19.1846883818
 10
-458.7225897027
 20
-19.7088034441
 10
-458.1582242132
 20
-19.9298504908
 10
-457.4659274533
 20
-19.8211679858
 10
-456.7292006295
 20
-19.3958646432
 10
-456.0369038697
 20
-18.705238323
 10
-455.4725383802
 20
-17.8325887519
 10
-455.1041749683
 20
-16.8831703471
 10
-454.9762436979
 20
-15.9714969802
  0
LINE
  5
107
330
1F
100
AcDbEntity
  8
0
  6
Continuous
 62
     7
370
    35
100
AcDbLine
 10
-459.218884385
 20
82.8303393582
 30
0.0
 11
-459.218884385
 21
75.4814720512
 31
0.0
  0
LWPOLYLINE
  5
108
330
1F
100
AcDbEntity
  8
0
  6
Continuous
 62
     7
370
    35
100
AcDbPolyline
 90
       10
 70
   128
 43
0.0
 10
-459.218884385
 20
75.4814720512
 10
-459.0909531146
 20
74.717504985
 10
-458.7225897027
 20
74.1933899228
 10
-458.1582242132
 20
73.9723428761
 10
-457.4659274533
 20
74.0810253811
 10
-456.7292006295
 20
74.5063287236
 10
-456.0369038697
 20
75.1969550438
 10
-455.4725383802
 20
76.0696046149
 10
-455.1041749683
 20
77.0190230197
 10
-454.9762436979
 20
77.9306963867
  0
LINE
  5
109
330
1F
100
AcDbEntity
  8
0
  6
Continuous
 62
     7
370
    35
100
AcDbLine
 10
-454.9762436979
 20
85.2795636936
 30
0.0
 11
-454.9762436979
 21
77.9306963867
 31
0.0
  0
LWPOLYLINE
  5
10A
330
1F
100
AcDbEntity
  8
0
  6
Continuous
 62
     7
370
    35
100
AcDbPolyline
 90
       10
 70
   128
 43
0.0
 10
-454.9762436979
 20
85.2795636936
 10
-455.1041749683
 20
86.0435307598
 10
-455.4725383802
 20
86.567645822
 10
-456.0369038697
 20
86.7886928687
 10
-456.7292006295
 20
86.6800103638
 10
-457.4659274533
 20
86.2547070212
 10
-458.1582242132
 20
85.564080701
 10
-458.7225897027
 20
84.6914311299
 10
-459.0909531146
 20
83.7420127251
 10
-459.218884385
 20
82.8303393582
  0
LWPOLYLINE
  5
10B
330
1F
100
AcDbEntity
  8
0
  6
Continuous
 62
     7
370
    35
100
AcDbPolyline
 90
       10
 70
   128
 43
0.0
 10
-454.9762436979
 20
52.6179312182
 10
-455.1041749683
 20
53.3818982844
 10
-455.4725383802
 20
53.9060133466
 10
-456.0369038697
 20
54.1270603933
 10
-456.7292006295
 20
54.0183778883
 10
-457.4659274533
 20
53.5930745458
 10
-458.1582242132
 20
52.9024482256
 10
-458.7225897027
 20
52.0297986545
 10
-459.0909531146
 20
51.0803802497
 10
-459.218884385
 20
50.1687068827
  0
LINE
  5
10C
330
1F
100
AcDbEntity
  8
0
  6
Continuous
 62
     7
370
    35
100
AcDbLine
 10
-459.218884385
 20
50.1687068827
 30
0.0
 11
-459.218884385
 21
42.8198395758
 31
0.0
  0
LWPOLYLINE
  5
10D
330
1F
100
AcDbEntity
  8
0
  6
Continuous
 62
     7
370
    35
100
AcDbPolyline
 90
       10
 70
   128
 43
0.0
 10
-459.218884385
 20
42.8198395758
 10
-459.0909531146
 20
42.0558725096
 10
-458.7225897027
 20
41.5317574474
 10
-458.1582242132
 20
41.3107104007
 10
-457.4659274533
 20
41.4193929056
 10
-456.7292006295
 20
41.8446962482
 10
-456.0369038697
 20
42.5353225684
 10
-455.4725383802
 20
43.4079721395
 10
-455.1041749683
 20
44.3573905443
 10
-454.9762436979
 20
45.2690639112
  0
LINE
  5
10E
330
1F
100
AcDbEntity
  8
0
  6
Continuous
 62
     7
370
    35
100
AcDbLine
 10
-454.9762436979
 20
52.6179312182
 30
0.0
 11
-454.9762436979
 21
45.2690639112
 31
0.0
  0
LWPOLYLINE
  5
10F
330
1F
100
AcDbEntity
  8
0
  6
Continuous
 62
     7
370
    35
100
AcDbPolyline
 90
       10
 70
   128
 43
0.0
 10
-454.9762436979
 20
-73.9458946241
 10
-455.1041749683
 20
-73.1819275579
 10
-455.4725383802
 20
-72.6578124957
 10
-456.0369038697
 20
-72.436765449
 10
-456.7292006295
 20
-72.545447954
 10
-457.4659274533
 20
-72.9707512965
 10
-458.1582242132
 20
-73.6613776167
 10
-458.7225897027
 20
-74.5340271878
 10
-459.0909531146
 20
-75.4834455926
 10
-459.218884385
 20
-76.3951189596
  0
LINE
  5
110
330
1F
100
AcDbEntity
  8
0
  6
Continuous
 62
     7
370
    35
100
AcDbLine
 10
-459.218884385
 20
-76.3951189596
 30
0.0
 11
-459.218884385
 21
-83.7439862665
 31
0.0
  0
LWPOLYLINE
  5
111
330
1F
100
AcDbEntity
  8
0
  6
Continuous
 62
     7
370
    35
100
AcDbPolyline
 90
       10
 70
   128
 43
0.0
 10
-459.218884385
 20
-83.7439862665
 10
-459.0909531146
 20
-84.5079533327
 10
-458.7225897027
 20
-85.0320683949
 10
-458.1582242132
 20
-85.2531154416
 10
-457.4659274533
 20
-85.1444329367
 10
-456.7292006295
 20
-84.7191295941
 10
-456.0369038697
 20
-84.0285032739
 10
-455.4725383802
 20
-83.1558537028
 10
-455.1041749683
 20
-82.206435298
 10
-454.9762436979
 20
-81.2947619311
  0
LINE
  5
112
330
1F
100
AcDbEntity
  8
0
  6
Continuous
 62
     7
370
    35
100
AcDbLine
 10
-454.9762436979
 20
-73.9458946241
 30
0.0
 11
-454.9762436979
 21
-81.2947619311
 31
0.0
  0
LINE
  5
113
330
1F
100
AcDbEntity
  8
0
  6
Continuous
 62
     7
370
    35
100
AcDbLine
 10
-462.0473115097
 20
154.6859308041
 30
0.0
 11
-460.6330979474
 21
153.8695226923
 31
0.0
  0
LINE
  5
114
330
1F
100
AcDbEntity
  8
0
  6
Continuous
 62
     7
370
    35
100
AcDbLine
 10
-464.1686318533
 20
147.7457983533
 30
0.0
 11
-465.5828454157
 21
148.5622064651
 31
0.0
  0
ARC
  5
115
330
1F
100
AcDbEntity
  8
0
  6
Continuous
 62
     7
370
    35
100
AcDbCircle
 10
-457.9067649088
 20
148.2129022038
 30
0.0
 40
7.684024037860339
100
AcDbArc
 50
122.60547834
 51
177.3945215143
  0
LINE
  5
116
330
1F
100
AcDbEntity
  8
0
  6
Continuous
 62
     7
370
    35
100
AcDbLine
 10
-465.5828454157
 20
-88.2346289817
 30
0.0
 11
-464.1686318533
 21
-89.0510370936
 31
0.0
  0
LINE
  5
117
330
1F
100
AcDbEntity
  8
0
  6
Continuous
 62
     7
370
    35
100
AcDbLine
 10
-465.5828454157
 20
148.5622064651
 30
0.0
 11
-465.5828454157
 21
-88.2346289817
 31
0.0
  0
LINE
  5
118
330
1F
100
AcDbEntity
  8
0
  6
Continuous
 62
     7
370
    35
100
AcDbLine
 10
-451.4407097919
 20
159.1761754191
 30
0.0
 11
-452.8549233543
 21
159.992583531
 31
0.0
  0
LINE
  5
119
330
1F
100
AcDbEntity
  8
0
  6
Continuous
 62
     7
370
    35
100
AcDbLine
 10
-452.8549233543
 20
159.992583531
 30
0.0
 11
-462.0473115097
 21
154.6859308041
 31
0.0
  0
LINE
  5
11A
330
1F
100
AcDbEntity
  8
0
  6
Continuous
 62
     7
370
    35
100
AcDbLine
 10
-454.9762436979
 20
150.6028286445
 30
0.0
 11
-456.3904572603
 21
151.4192367563
 31
0.0
  0
LINE
  5
11B
330
1F
100
AcDbEntity
  8
0
  6
Continuous
 62
     7
370
    35
100
AcDbLine
 10
-456.481871969
 20
152.0778236454
 30
0.0
 11
-456.3904572603
 21
151.4192367563
 31
0.0
  0
ARC
  5
11C
330
1F
100
AcDbEntity
  8
0
  6
Continuous
 62
     7
370
    35
100
AcDbCircle
 10
-450.0264962296
 20
156.4467532492
 30
0.0
 40
3.074043815823519
100
AcDbArc
 50
62.6096722366
 51
117.3903277634
  0
ARC
  5
11D
330
1F
100
AcDbEntity
  8
0
  6
Continuous
 62
     7
370
    35
100
AcDbCircle
 10
-450.0264962296
 20
154.5337391911
 30
0.0
 40
6.148087631647414
100
AcDbArc
 50
62.6096722366
 51
117.3903277634
  0
ARC
  5
11E
330
1F
100
AcDbEntity
  8
0
  6
Continuous
 62
     7
370
    35
100
AcDbCircle
 10
-450.0264962296
 20
-88.5154903165
 30
0.0
 40
3.074043815823429
100
AcDbArc
 50
62.6096722366
 51
117.3903277634
  0
LINE
  5
11F
330
1F
100
AcDbEntity
  8
0
  6
Continuous
 62
     7
370
    35
100
AcDbLine
 10
-456.3904572603
 20
144.0703694493
 30
0.0
 11
-454.9762436979
 21
143.2539613375
 31
0.0
  0
LINE
  5
120
330
1F
100
AcDbEntity
  8
0
  6
Continuous
 62
     7
370
    35
100
AcDbLine
 10
-456.3904572603
 20
151.4192367563
 30
0.0
 11
-456.3904572603
 21
144.0703694493
 31
0.0
  0
ARC
  5
121
330
1F
100
AcDbEntity
  8
0
  6
Continuous
 62
     7
370
    35
100
AcDbCircle
 10
-460.5313390004
 20
144.0418994776
 30
0.0
 40
4.140979609400905
100
AcDbArc
 50
289.8170962819
 51
0.3939217833
  0
LINE
  5
122
330
1F
100
AcDbEntity
  8
0
  6
Continuous
 62
     7
370
    35
100
AcDbLine
 10
-454.9762436979
 20
85.2795636936
 30
0.0
 11
-456.3904572603
 21
86.0959718055
 31
0.0
  0
LINE
  5
123
330
1F
100
AcDbEntity
  8
0
  6
Continuous
 62
     7
370
    35
100
AcDbLine
 10
-456.481871966
 20
86.7545586847
 30
0.0
 11
-456.3904572603
 21
86.0959718055
 31
0.0
  0
LINE
  5
124
330
1F
100
AcDbEntity
  8
0
  6
Continuous
 62
     7
370
    35
100
AcDbLine
 10
-456.3904572603
 20
78.7471044985
 30
0.0
 11
-454.9762436979
 21
77.9306963867
 31
0.0
  0
LINE
  5
125
330
1F
100
AcDbEntity
  8
0
  6
Continuous
 62
     7
370
    35
100
AcDbLine
 10
-456.3904572603
 20
86.0959718055
 30
0.0
 11
-456.3904572603
 21
78.7471044985
 31
0.0
  0
ARC
  5
126
330
1F
100
AcDbEntity
  8
0
  6
Continuous
 62
     7
370
    35
100
AcDbCircle
 10
-460.5313389994
 20
78.7186345263
 30
0.0
 40
4.140979608377458
100
AcDbArc
 50
289.8170962429
 51
0.3939217897
  0
LINE
  5
127
330
1F
100
AcDbEntity
  8
0
  6
Continuous
 62
     7
370
    35
100
AcDbLine
 10
-454.9762436979
 20
52.6179312182
 30
0.0
 11
-456.3904572603
 21
53.43433933
 31
0.0
  0
LINE
  5
128
330
1F
100
AcDbEntity
  8
0
  6
Continuous
 62
     7
370
    35
100
AcDbLine
 10
-456.4818719666
 20
54.0929262115
 30
0.0
 11
-456.3904572603
 21
53.43433933
 31
0.0
  0
LINE
  5
129
330
1F
100
AcDbEntity
  8
0
  6
Continuous
 62
     7
370
    35
100
AcDbLine
 10
-456.3904572603
 20
46.0854720231
 30
0.0
 11
-454.9762436979
 21
45.2690639112
 31
0.0
  0
LINE
  5
12A
330
1F
100
AcDbEntity
  8
0
  6
Continuous
 62
     7
370
    35
100
AcDbLine
 10
-456.3904572603
 20
53.43433933
 30
0.0
 11
-456.3904572603
 21
46.0854720231
 31
0.0
  0
ARC
  5
12B
330
1F
100
AcDbEntity
  8
0
  6
Continuous
 62
     7
370
    35
100
AcDbCircle
 10
-460.5313390004
 20
46.0570020514
 30
0.0
 40
4.140979609402985
100
AcDbArc
 50
289.817096282
 51
0.3939217833
  0
LINE
  5
12C
330
1F
100
AcDbEntity
  8
0
  6
Continuous
 62
     7
370
    35
100
AcDbLine
 10
-454.9762436979
 20
24.0390028022
 30
0.0
 11
-456.3904572603
 21
24.855410914
 31
0.0
  0
LINE
  5
12D
330
1F
100
AcDbEntity
  8
0
  6
Continuous
 62
     7
370
    35
100
AcDbLine
 10
-456.4818719673
 20
25.5139977976
 30
0.0
 11
-456.3904572603
 21
24.855410914
 31
0.0
  0
LINE
  5
12E
330
1F
100
AcDbEntity
  8
0
  6
Continuous
 62
     7
370
    35
100
AcDbLine
 10
-456.3904572603
 20
17.5065436071
 30
0.0
 11
-454.9762436979
 21
16.6901354952
 31
0.0
  0
LINE
  5
12F
330
1F
100
AcDbEntity
  8
0
  6
Continuous
 62
     7
370
    35
100
AcDbLine
 10
-456.3904572603
 20
24.855410914
 30
0.0
 11
-456.3904572603
 21
17.5065436071
 31
0.0
  0
ARC
  5
130
330
1F
100
AcDbEntity
  8
0
  6
Continuous
 62
     7
370
    35
100
AcDbCircle
 10
-460.531339
 20
17.4780736351
 30
0.0
 40
4.140979608926853
100
AcDbArc
 50
289.8170962638
 51
0.3939217863
  0
LINE
  5
131
330
1F
100
AcDbEntity
  8
0
  6
Continuous
 62
     7
370
    35
100
AcDbLine
 10
-454.9762436979
 20
-8.6226296732
 30
0.0
 11
-456.3904572603
 21
-7.8062215614
 31
0.0
  0
LINE
  5
132
330
1F
100
AcDbEntity
  8
0
  6
Continuous
 62
     7
370
    35
100
AcDbLine
 10
-456.4818719664
 20
-7.1476346806
 30
0.0
 11
-456.3904572603
 21
-7.8062215614
 31
0.0
  0
LINE
  5
133
330
1F
100
AcDbEntity
  8
0
  6
Continuous
 62
     7
370
    35
100
AcDbLine
 10
-456.3904572603
 20
-15.1550888684
 30
0.0
 11
-454.9762436979
 21
-15.9714969802
 31
0.0
  0
LINE
  5
134
330
1F
100
AcDbEntity
  8
0
  6
Continuous
 62
     7
370
    35
100
AcDbLine
 10
-456.3904572603
 20
-7.8062215614
 30
0.0
 11
-456.3904572603
 21
-15.1550888684
 31
0.0
  0
ARC
  5
135
330
1F
100
AcDbEntity
  8
0
  6
Continuous
 62
     7
370
    35
100
AcDbCircle
 10
-460.5313390002
 20
-15.1835588402
 30
0.0
 40
4.140979609131654
100
AcDbArc
 50
289.8170962716
 51
0.393921785
  0
LINE
  5
136
330
1F
100
AcDbEntity
  8
0
  6
Continuous
 62
     7
370
    35
100
AcDbLine
 10
-454.9762436979
 20
-73.9458946241
 30
0.0
 11
-456.3904572603
 21
-73.1294865123
 31
0.0
  0
LINE
  5
137
330
1F
100
AcDbEntity
  8
0
  6
Continuous
 62
     7
370
    35
100
AcDbLine
 10
-456.4818719666
 20
-72.4708996308
 30
0.0
 11
-456.3904572603
 21
-73.1294865123
 31
0.0
  0
ARC
  5
138
330
1F
100
AcDbEntity
  8
0
  6
Continuous
 62
     7
370
    35
100
AcDbCircle
 10
-463.1328359037
 20
-88.5050626684
 30
0.0
 40
2.464889650155627
100
AcDbArc
 50
173.7011524836
 51
234.9866671231
  0
LINE
  5
139
330
1F
100
AcDbEntity
  8
0
  6
Continuous
 62
     7
370
    35
100
AcDbLine
 10
-456.3904572603
 20
-80.4783538192
 30
0.0
 11
-454.9762436979
 21
-81.2947619311
 31
0.0
  0
LINE
  5
13A
330
1F
100
AcDbEntity
  8
0
  6
Continuous
 62
     7
370
    35
100
AcDbLine
 10
-456.3904572603
 20
-73.1294865123
 30
0.0
 11
-456.3904572603
 21
-80.4783538192
 31
0.0
  0
ARC
  5
13B
330
1F
100
AcDbEntity
  8
0
  6
Continuous
 62
     7
370
    35
100
AcDbCircle
 10
-460.5313390004
 20
-80.506823791
 30
0.0
 40
4.14097960937295
100
AcDbArc
 50
289.8170962808
 51
0.3939217835
  0
LINE
  5
13C
330
1F
100
AcDbEntity
  8
0
  6
HIDDEN
 62
     7
370
    18
100
AcDbLine
 10
-396.2863808594
 20
130.6018915053
 30
0.0
 11
-396.2863808594
 21
-114.3603520604
 31
0.0
  0
LINE
  5
13D
330
1F
100
AcDbEntity
  8
0
  6
HIDDEN
 62
     7
370
    18
100
AcDbLine
 10
-393.4579537347
 20
130.6018915053
 30
0.0
 11
-393.4579537347
 21
-114.3603520604
 31
0.0
  0
LINE
  5
13E
330
1F
100
AcDbEntity
  8
0
  6
HIDDEN
 62
     7
370
    18
100
AcDbLine
 10
-357.3955078941
 20
147.3375942974
 30
0.0
 11
-355.9812943318
 21
146.5211861856
 31
0.0
  0
ARC
  5
13F
330
1F
100
AcDbEntity
  8
0
  6
HIDDEN
 62
     7
370
    18
100
AcDbCircle
 10
-359.845517406
 20
147.6080279841
 30
0.0
 40
2.464889650100485
100
AcDbArc
 50
353.7011524828
 51
54.9866671238
  0
LINE
  5
140
330
1F
100
AcDbEntity
  8
0
  6
HIDDEN
 62
     7
370
    18
100
AcDbLine
 10
-357.3955078941
 20
147.3375942974
 30
0.0
 11
-357.3955078941
 21
-89.4592411495
 31
0.0
  0
LINE
  5
141
330
1F
100
AcDbEntity
  8
0
  6
HIDDEN
 62
     7
370
    18
100
AcDbLine
 10
-460.6330979474
 20
148.9700124208
 30
0.0
 11
-459.218884385
 21
148.153604309
 31
0.0
  0
LWPOLYLINE
  5
142
330
1F
100
AcDbEntity
  8
0
  6
HIDDEN
 62
     7
370
    18
100
AcDbPolyline
 90
       10
 70
   128
 43
0.0
 10
-460.6330979474
 20
148.9700124208
 10
-460.505166677
 20
149.8816857878
 10
-460.1368032651
 20
150.8311041926
 10
-459.5724377756
 20
151.7037537637
 10
-458.8801410157
 20
152.3943800839
 10
-458.1434141919
 20
152.8196834264
 10
-457.451117432
 20
152.9283659314
 10
-456.8867519426
 20
152.7073188847
 10
-456.5183885306
 20
152.1832038225
 10
-456.481871969
 20
152.0778236454
  0
LINE
  5
143
330
1F
100
AcDbEntity
  8
0
  6
HIDDEN
 62
     7
370
    18
100
AcDbLine
 10
-460.6330979474
 20
141.6211451139
 30
0.0
 11
-460.6330979474
 21
148.9700124208
 31
0.0
  0
LINE
  5
144
330
1F
100
AcDbEntity
  8
0
  6
HIDDEN
 62
     7
370
    18
100
AcDbLine
 10
-452.8549233543
 20
159.992583531
 30
0.0
 11
-452.8549233543
 21
-84.9696600348
 31
0.0
  0
LINE
  5
145
330
1F
100
AcDbEntity
  8
0
  6
HIDDEN
 62
     7
370
    18
100
AcDbLine
 10
-447.1980691048
 20
-84.9696600348
 30
0.0
 11
-447.1980691048
 21
159.992583531
 31
0.0
  0
LINE
  5
146
330
1F
100
AcDbEntity
  8
0
  6
HIDDEN
 62
     7
370
    18
100
AcDbLine
 10
-459.218884385
 20
140.8047370021
 30
0.0
 11
-460.6330979474
 21
141.6211451139
 31
0.0
  0
LWPOLYLINE
  5
147
330
1F
100
AcDbEntity
  8
0
  6
HIDDEN
 62
     7
370
    18
100
AcDbPolyline
 90
        5
 70
   128
 43
0.0
 10
-459.1274696786
 20
140.1461501206
 10
-459.5724377756
 20
140.1120159388
 10
-460.1368032651
 20
140.3330629855
 10
-460.505166677
 20
140.8571780477
 10
-460.6330979474
 20
141.6211451139
  0
LINE
  5
148
330
1F
100
AcDbEntity
  8
0
  6
HIDDEN
 62
     7
370
    18
100
AcDbLine
 10
-460.6330979474
 20
83.64674747
 30
0.0
 11
-459.218884385
 21
82.8303393582
 31
0.0
  0
LWPOLYLINE
  5
149
330
1F
100
AcDbEntity
  8
0
  6
HIDDEN
 62
     7
370
    18
100
AcDbPolyline
 90
       10
 70
   128
 43
0.0
 10
-460.6330979474
 20
83.64674747
 10
-460.505166677
 20
84.5584208369
 10
-460.1368032651
 20
85.5078392417
 10
-459.5724377756
 20
86.3804888128
 10
-458.8801410157
 20
87.071115133
 10
-458.1434141919
 20
87.4964184756
 10
-457.451117432
 20
87.6051009805
 10
-456.8867519426
 20
87.3840539338
 10
-456.5183885306
 20
86.8599388716
 10
-456.481871966
 20
86.7545586847
  0
LINE
  5
14A
330
1F
100
AcDbEntity
  8
0
  6
HIDDEN
 62
     7
370
    18
100
AcDbLine
 10
-460.6330979474
 20
76.297880163
 30
0.0
 11
-460.6330979474
 21
83.64674747
 31
0.0
  0
LINE
  5
14B
330
1F
100
AcDbEntity
  8
0
  6
HIDDEN
 62
     7
370
    18
100
AcDbLine
 10
-459.218884385
 20
75.4814720512
 30
0.0
 11
-460.6330979474
 21
76.297880163
 31
0.0
  0
LWPOLYLINE
  5
14C
330
1F
100
AcDbEntity
  8
0
  6
HIDDEN
 62
     7
370
    18
100
AcDbPolyline
 90
        5
 70
   128
 43
0.0
 10
-459.1274696806
 20
74.8228851693
 10
-459.5724377756
 20
74.7887509879
 10
-460.1368032651
 20
75.0097980346
 10
-460.505166677
 20
75.5339130969
 10
-460.6330979474
 20
76.297880163
  0
LINE
  5
14D
330
1F
100
AcDbEntity
  8
0
  6
HIDDEN
 62
     7
370
    18
100
AcDbLine
 10
-460.6330979474
 20
50.9851149946
 30
0.0
 11
-459.218884385
 21
50.1687068827
 31
0.0
  0
LWPOLYLINE
  5
14E
330
1F
100
AcDbEntity
  8
0
  6
HIDDEN
 62
     7
370
    18
100
AcDbPolyline
 90
       10
 70
   128
 43
0.0
 10
-460.6330979474
 20
50.9851149946
 10
-460.505166677
 20
51.8967883615
 10
-460.1368032651
 20
52.8462067663
 10
-459.5724377756
 20
53.7188563374
 10
-458.8801410157
 20
54.4094826576
 10
-458.1434141919
 20
54.8347860002
 10
-457.451117432
 20
54.9434685051
 10
-456.8867519426
 20
54.7224214584
 10
-456.5183885306
 20
54.1983063962
 10
-456.4818719666
 20
54.0929262115
  0
LINE
  5
14F
330
1F
100
AcDbEntity
  8
0
  6
HIDDEN
 62
     7
370
    18
100
AcDbLine
 10
-460.6330979474
 20
43.6362476876
 30
0.0
 11
-460.6330979474
 21
50.9851149946
 31
0.0
  0
LINE
  5
150
330
1F
100
AcDbEntity
  8
0
  6
HIDDEN
 62
     7
370
    18
100
AcDbLine
 10
-459.218884385
 20
42.8198395758
 30
0.0
 11
-460.6330979474
 21
43.6362476876
 31
0.0
  0
LWPOLYLINE
  5
151
330
1F
100
AcDbEntity
  8
0
  6
HIDDEN
 62
     7
370
    18
100
AcDbPolyline
 90
        5
 70
   128
 43
0.0
 10
-459.1274696786
 20
42.1612526943
 10
-459.5724377756
 20
42.1271185125
 10
-460.1368032651
 20
42.3481655592
 10
-460.505166677
 20
42.8722806214
 10
-460.6330979474
 20
43.6362476876
  0
LINE
  5
152
330
1F
100
AcDbEntity
  8
0
  6
HIDDEN
 62
     7
370
    18
100
AcDbLine
 10
-460.6330979474
 20
22.4061865786
 30
0.0
 11
-459.218884385
 21
21.5897784667
 31
0.0
  0
LWPOLYLINE
  5
153
330
1F
100
AcDbEntity
  8
0
  6
HIDDEN
 62
     7
370
    18
100
AcDbPolyline
 90
       10
 70
   128
 43
0.0
 10
-460.6330979474
 20
22.4061865786
 10
-460.505166677
 20
23.3178599455
 10
-460.1368032651
 20
24.2672783503
 10
-459.5724377756
 20
25.1399279214
 10
-458.8801410157
 20
25.8305542416
 10
-458.1434141919
 20
26.2558575842
 10
-457.451117432
 20
26.3645400891
 10
-456.8867519426
 20
26.1434930424
 10
-456.5183885306
 20
25.6193779802
 10
-456.4818719673
 20
25.5139977976
  0
LINE
  5
154
330
1F
100
AcDbEntity
  8
0
  6
HIDDEN
 62
     7
370
    18
100
AcDbLine
 10
-460.6330979474
 20
15.0573192716
 30
0.0
 11
-460.6330979474
 21
22.4061865786
 31
0.0
  0
LINE
  5
155
330
1F
100
AcDbEntity
  8
0
  6
HIDDEN
 62
     7
370
    18
100
AcDbLine
 10
-459.218884385
 20
14.2409111598
 30
0.0
 11
-460.6330979474
 21
15.0573192716
 31
0.0
  0
LWPOLYLINE
  5
156
330
1F
100
AcDbEntity
  8
0
  6
HIDDEN
 62
     7
370
    18
100
AcDbPolyline
 90
        5
 70
   128
 43
0.0
 10
-459.1274696795
 20
13.5823242781
 10
-459.5724377756
 20
13.5481900965
 10
-460.1368032651
 20
13.7692371432
 10
-460.505166677
 20
14.2933522054
 10
-460.6330979474
 20
15.0573192716
  0
LINE
  5
157
330
1F
100
AcDbEntity
  8
0
  6
HIDDEN
 62
     7
370
    18
100
AcDbLine
 10
-460.6330979474
 20
-10.2554458969
 30
0.0
 11
-459.218884385
 21
-11.0718540087
 31
0.0
  0
LWPOLYLINE
  5
158
330
1F
100
AcDbEntity
  8
0
  6
HIDDEN
 62
     7
370
    18
100
AcDbPolyline
 90
       10
 70
   128
 43
0.0
 10
-460.6330979474
 20
-10.2554458969
 10
-460.505166677
 20
-9.3437725299
 10
-460.1368032651
 20
-8.3943541252
 10
-459.5724377756
 20
-7.521704554
 10
-458.8801410157
 20
-6.8310782338
 10
-458.1434141919
 20
-6.4057748913
 10
-457.451117432
 20
-6.2970923863
 10
-456.8867519426
 20
-6.518139433
 10
-456.5183885306
 20
-7.0422544953
 10
-456.4818719664
 20
-7.1476346806
  0
LINE
  5
159
330
1F
100
AcDbEntity
  8
0
  6
HIDDEN
 62
     7
370
    18
100
AcDbLine
 10
-460.6330979474
 20
-17.6043132038
 30
0.0
 11
-460.6330979474
 21
-10.2554458969
 31
0.0
  0
LINE
  5
15A
330
1F
100
AcDbEntity
  8
0
  6
HIDDEN
 62
     7
370
    18
100
AcDbLine
 10
-459.218884385
 20
-18.4207213157
 30
0.0
 11
-460.6330979474
 21
-17.6043132038
 31
0.0
  0
LWPOLYLINE
  5
15B
330
1F
100
AcDbEntity
  8
0
  6
HIDDEN
 62
     7
370
    18
100
AcDbPolyline
 90
        5
 70
   128
 43
0.0
 10
-459.1274696791
 20
-19.0793081972
 10
-459.5724377756
 20
-19.1134423789
 10
-460.1368032651
 20
-18.8923953322
 10
-460.505166677
 20
-18.36828027
 10
-460.6330979474
 20
-17.6043132038
  0
ARC
  5
15C
330
1F
100
AcDbEntity
  8
0
  6
HIDDEN
 62
     7
370
    18
100
AcDbCircle
 10
-394.872167297
 20
-111.6309298905
 30
0.0
 40
3.074043815823708
100
AcDbArc
 50
242.6096722366
 51
297.3903277634
  0
LINE
  5
15D
330
1F
100
AcDbEntity
  8
0
  6
HIDDEN
 62
     7
370
    18
100
AcDbLine
 10
-396.2863808594
 20
-114.3603520604
 30
0.0
 11
-397.7005944218
 21
-115.1767601722
 31
0.0
  0
LINE
  5
15E
330
1F
100
AcDbEntity
  8
0
  6
HIDDEN
 62
     7
370
    18
100
AcDbLine
 10
-396.2863808594
 20
-114.3603520604
 30
0.0
 11
-447.1980691048
 21
-84.9696600348
 31
0.0
  0
LINE
  5
15F
330
1F
100
AcDbEntity
  8
0
  6
HIDDEN
 62
     7
370
    18
100
AcDbLine
 10
-392.0437401723
 20
-115.1767601722
 30
0.0
 11
-393.4579537347
 21
-114.3603520604
 31
0.0
  0
LINE
  5
160
330
1F
100
AcDbEntity
  8
0
  6
HIDDEN
 62
     7
370
    18
100
AcDbLine
 10
-360.9310418001
 20
-95.5829654885
 30
0.0
 11
-393.4579537347
 21
-114.3603520604
 31
0.0
  0
LINE
  5
161
330
1F
100
AcDbEntity
  8
0
  6
HIDDEN
 62
     7
370
    18
100
AcDbLine
 10
-360.9310418001
 20
-95.5829654885
 30
0.0
 11
-359.5168282377
 21
-96.3993736003
 31
0.0
  0
LINE
  5
162
330
1F
100
AcDbEntity
  8
0
  6
HIDDEN
 62
     7
370
    18
100
AcDbLine
 10
-355.9812943318
 20
-90.2756492613
 30
0.0
 11
-357.3955078941
 21
-89.4592411495
 31
0.0
  0
ARC
  5
163
330
1F
100
AcDbEntity
  8
0
  6
HIDDEN
 62
     7
370
    18
100
AcDbCircle
 10
-365.071588401
 20
-89.1099368882
 30
0.0
 40
7.684024037860691
100
AcDbArc
 50
302.60547834
 51
357.3945215143
  0
LINE
  5
164
330
1F
100
AcDbEntity
  8
0
  6
HIDDEN
 62
     7
370
    18
100
AcDbLine
 10
-460.6330979474
 20
-75.5787108477
 30
0.0
 11
-459.218884385
 21
-76.3951189596
 31
0.0
  0
LWPOLYLINE
  5
165
330
1F
100
AcDbEntity
  8
0
  6
HIDDEN
 62
     7
370
    18
100
AcDbPolyline
 90
       10
 70
   128
 43
0.0
 10
-460.6330979474
 20
-75.5787108477
 10
-460.505166677
 20
-74.6670374808
 10
-460.1368032651
 20
-73.717619076
 10
-459.5724377756
 20
-72.8449695049
 10
-458.8801410157
 20
-72.1543431847
 10
-458.1434141919
 20
-71.7290398421
 10
-457.451117432
 20
-71.6203573372
 10
-456.8867519426
 20
-71.8414043839
 10
-456.5183885306
 20
-72.3655194461
 10
-456.4818719666
 20
-72.4708996308
  0
LINE
  5
166
330
1F
100
AcDbEntity
  8
0
  6
HIDDEN
 62
     7
370
    18
100
AcDbLine
 10
-460.6330979474
 20
-82.9275781547
 30
0.0
 11
-460.6330979474
 21
-75.5787108477
 31
0.0
  0
LINE
  5
167
330
1F
100
AcDbEntity
  8
0
  6
HIDDEN
 62
     7
370
    18
100
AcDbLine
 10
-460.6330979474
 20
-91.0927208734
 30
0.0
 11
-462.0473115097
 21
-90.2763127616
 31
0.0
  0
ARC
  5
168
330
1F
100
AcDbEntity
  8
0
  6
HIDDEN
 62
     7
370
    18
100
AcDbCircle
 10
-463.511911784
 20
-88.231906116
 30
0.0
 40
2.514886179509007
100
AcDbArc
 50
245.6928809539
 51
305.6175774752
  0
LINE
  5
169
330
1F
100
AcDbEntity
  8
0
  6
HIDDEN
 62
     7
370
    18
100
AcDbLine
 10
-459.218884385
 20
-83.7439862665
 30
0.0
 11
-460.6330979474
 21
-82.9275781547
 31
0.0
  0
LWPOLYLINE
  5
16A
330
1F
100
AcDbEntity
  8
0
  6
HIDDEN
 62
     7
370
    18
100
AcDbPolyline
 90
        5
 70
   128
 43
0.0
 10
-459.1274696787
 20
-84.402573148
 10
-459.5724377756
 20
-84.4367073298
 10
-460.1368032651
 20
-84.2156602831
 10
-460.505166677
 20
-83.6915452209
 10
-460.6330979474
 20
-82.9275781547
  0
LINE
  5
16B
330
1F
100
AcDbEntity
  8
0
  6
HIDDEN
 62
     7
370
    18
100
AcDbLine
 10
-462.0473115097
 20
-90.2763127616
 30
0.0
 11
-452.8549233543
 21
-84.9696600348
 31
0.0
  0
LINE
  5
16C
330
1F
100
AcDbEntity
  8
0
  6
HIDDEN
 62
     7
370
    18
100
AcDbLine
 10
-451.4407097919
 20
-85.7860681466
 30
0.0
 11
-452.8549233543
 21
-84.9696600348
 31
0.0
  0
LINE
  5
16D
330
1F
100
AcDbEntity
  8
0
  6
HIDDEN
 62
     7
370
    18
100
AcDbLine
 10
-448.6122826672
 20
-85.7860681466
 30
0.0
 11
-447.1980691048
 21
-84.9696600348
 31
0.0
  0
ARC
  5
16E
330
1F
100
AcDbEntity
  8
0
  6
HIDDEN
 62
     7
370
    18
100
AcDbCircle
 10
-450.0264962296
 20
-90.4285043746
 30
0.0
 40
6.148087631647174
100
AcDbArc
 50
62.6096722366
 51
117.3903277634
  0
LINE
  5
16F
330
1F
100
AcDbEntity
  8
0
  6
HIDDEN
 62
     7
370
    18
100
AcDbLine
 10
-455.5976859425
 20
151.9763630639
 30
0.0
 11
-457.0118995049
 21
152.7927711757
 31
0.0
  0
LINE
  5
170
330
1F
100
AcDbEntity
  8
0
  6
HIDDEN
 62
     7
370
    18
100
AcDbLine
 10
-460.0116557028
 20
140.2476106945
 30
0.0
 11
-458.5974421404
 21
139.4312025826
 31
0.0
  0
LINE
  5
171
330
1F
100
AcDbEntity
  8
0
  6
HIDDEN
 62
     7
370
    18
100
AcDbLine
 10
-455.5976859425
 20
86.653098113
 30
0.0
 11
-457.0118995049
 21
87.4695062249
 31
0.0
  0
LINE
  5
172
330
1F
100
AcDbEntity
  8
0
  6
HIDDEN
 62
     7
370
    18
100
AcDbLine
 10
-460.0116557028
 20
74.9243457436
 30
0.0
 11
-458.5974421404
 21
74.1079376318
 31
0.0
  0
LINE
  5
173
330
1F
100
AcDbEntity
  8
0
  6
HIDDEN
 62
     7
370
    18
100
AcDbLine
 10
-455.5976859425
 20
53.9914656376
 30
0.0
 11
-457.0118995049
 21
54.8078737494
 31
0.0
  0
LINE
  5
174
330
1F
100
AcDbEntity
  8
0
  6
HIDDEN
 62
     7
370
    18
100
AcDbLine
 10
-460.0116557028
 20
42.2627132682
 30
0.0
 11
-458.5974421404
 21
41.4463051564
 31
0.0
  0
LINE
  5
175
330
1F
100
AcDbEntity
  8
0
  6
HIDDEN
 62
     7
370
    18
100
AcDbLine
 10
-455.5976859425
 20
25.4125372216
 30
0.0
 11
-457.0118995049
 21
26.2289453334
 31
0.0
  0
LINE
  5
176
330
1F
100
AcDbEntity
  8
0
  6
HIDDEN
 62
     7
370
    18
100
AcDbLine
 10
-460.0116557028
 20
13.6837848522
 30
0.0
 11
-458.5974421404
 21
12.8673767404
 31
0.0
  0
LINE
  5
177
330
1F
100
AcDbEntity
  8
0
  6
HIDDEN
 62
     7
370
    18
100
AcDbLine
 10
-455.5976859425
 20
-7.2490952538
 30
0.0
 11
-457.0118995049
 21
-6.432687142
 31
0.0
  0
LINE
  5
178
330
1F
100
AcDbEntity
  8
0
  6
HIDDEN
 62
     7
370
    18
100
AcDbLine
 10
-460.0116557028
 20
-18.9778476233
 30
0.0
 11
-458.5974421404
 21
-19.7942557351
 31
0.0
  0
LINE
  5
179
330
1F
100
AcDbEntity
  8
0
  6
HIDDEN
 62
     7
370
    18
100
AcDbLine
 10
-455.5976859425
 20
-72.5723602047
 30
0.0
 11
-457.0118995049
 21
-71.7559520929
 31
0.0
  0
LINE
  5
17A
330
1F
100
AcDbEntity
  8
0
  6
HIDDEN
 62
     7
370
    18
100
AcDbLine
 10
-460.0116557028
 20
-84.3011125741
 30
0.0
 11
-458.5974421404
 21
-85.1175206859
 31
0.0
  0
ENDSEC
  0
SECTION
  2
OBJECTS
  0
DICTIONARY
  5
C
330
0
100
AcDbDictionary
281
     1
  3
ACAD_GROUP
350
D
  3
ACAD_LAYOUT
350
1A
  3
ACAD_MLINESTYLE
350
17
  3
ACAD_PLOTSETTINGS
350
19
  3
ACAD_PLOTSTYLENAME
350
E
  3
ACAD_SCALELIST
350
47
  3
DWGPROPS
350
17B
  0
DICTIONARY
  5
D
102
{ACAD_REACTORS
330
C
102
}
330
C
100
AcDbDictionary
281
     1
  0
DICTIONARY
  5
1A
102
{ACAD_REACTORS
330
C
102
}
330
C
100
AcDbDictionary
281
     1
  3
Layout1
350
1E
  3
Layout2
350
26
  3
Model
350
22
  0
DICTIONARY
  5
17
102
{ACAD_REACTORS
330
C
102
}
330
C
100
AcDbDictionary
281
     1
  3
Standard
350
18
  0
DICTIONARY
  5
19
102
{ACAD_REACTORS
330
C
102
}
330
C
100
AcDbDictionary
281
     1
  0
ACDBDICTIONARYWDFLT
  5
E
102
{ACAD_REACTORS
330
C
102
}
330
C
100
AcDbDictionary
281
     1
  3
Normal
350
F
100
AcDbDictionaryWithDefault
340
F
  0
DICTIONARY
  5
47
102
{ACAD_REACTORS
330
C
102
}
330
C
100
AcDbDictionary
281
     1
  3
A0
350
48
  3
A1
350
49
  3
A2
350
4A
  3
A3
350
4B
  3
A4
350
4C
  3
A5
350
4D
  3
A6
350
4E
  3
A7
350
4F
  3
A8
350
50
  3
A9
350
51
  3
B0
350
52
  3
B1
350
53
  3
B2
350
54
  3
B3
350
55
  3
B4
350
56
  3
B5
350
57
  3
B6
350
58
  3
B7
350
59
  3
B8
350
5A
  3
B9
350
5B
  3
C0
350
5C
  3
C1
350
5D
  3
C2
350
5E
  3
C3
350
5F
  3
C4
350
60
  3
C5
350
61
  3
C6
350
62
  3
C7
350
63
  3
C8
350
64
  3
C9
350
65
  3
D0
350
66
  3
D1
350
67
  3
D2
350
68
  0
XRECORD
  5
17B
102
{ACAD_REACTORS
330
C
102
}
330
C
100
AcDbXrecord
280
     1
  1
DWGPROPS COOKIE
  2

  3

  4

  6

  7

  8
K9
  9

300
=
301
=
302
=
303
=
304
=
305
=
306
=
307
=
308
=
309
=
 40
0.0
 41
2459840.56360779
 42
2459840.563608229
  1

 90
        0
  0
LAYOUT
  5
1E
102
{ACAD_REACTORS
330
1A
102
}
330
1A
100
AcDbPlotSettings
  1

  2
none_device
  4

  6

 40
0.0
 41
0.0
 42
0.0
 43
0.0
 44
0.0
 45
0.0
 46
0.0
 47
0.0
 48
0.0
 49
0.0
140
0.0
141
0.0
142
1.0
143
1.0
 70
   688
 72
     1
 73
     0
 74
     5
  7

 75
    16
147
1.0
148
0.0
149
0.0
100
AcDbLayout
  1
Layout1
 70
     1
 71
     1
 10
0.0
 20
0.0
 11
420.0
 21
297.0
 12
0.0
 22
0.0
 32
0.0
 14
1.0000000000E+20
 24
1.0000000000E+20
 34
1.0000000000E+20
 15
-1.0000000000E+20
 25
-1.0000000000E+20
 35
-1.0000000000E+20
146
0.0
 13
0.0
 23
0.0
 33
0.0
 16
1.0
 26
0.0
 36
0.0
 17
0.0
 27
1.0
 37
0.0
 76
     0
330
1B
  0
LAYOUT
  5
26
102
{ACAD_REACTORS
330
1A
102
}
330
1A
100
AcDbPlotSettings
  1

  2
none_device
  4

  6

 40
0.0
 41
0.0
 42
0.0
 43
0.0
 44
0.0
 45
0.0
 46
0.0
 47
0.0
 48
0.0
 49
0.0
140
0.0
141
0.0
142
1.0
143
1.0
 70
   688
 72
     1
 73
     0
 74
     5
  7

 75
    16
147
1.0
148
0.0
149
0.0
100
AcDbLayout
  1
Layout2
 70
     1
 71
     2
 10
0.0
 20
0.0
 11
0.0
 21
0.0
 12
0.0
 22
0.0
 32
0.0
 14
0.0
 24
0.0
 34
0.0
 15
0.0
 25
0.0
 35
0.0
146
0.0
 13
0.0
 23
0.0
 33
0.0
 16
1.0
 26
0.0
 36
0.0
 17
0.0
 27
1.0
 37
0.0
 76
     0
330
23
  0
LAYOUT
  5
22
102
{ACAD_REACTORS
330
1A
102
}
330
1A
100
AcDbPlotSettings
  1

  2
none_device
  4
Letter_(8.50_x_11.00_Inches)
  6

 40
6.35
 41
6.35
 42
6.35000508
 43
6.35000508
 44
215.9
 45
279.4
 46
0.0
 47
0.0
 48
0.0
 49
0.0
140
0.0
141
0.0
142
1.0
143
1.0
 70
  1712
 72
     1
 73
     0
 74
     0
  7

 75
     0
147
1.0
148
0.0
149
0.0
100
AcDbLayout
  1
Model
 70
     1
 71
     0
 10
0.0
 20
0.0
 11
297.0
 21
210.0
 12
0.0
 22
0.0
 32
0.0
 14
0.0
 24
0.0
 34
0.0
 15
297.0
 25
210.0
 35
0.0
146
0.0
 13
0.0
 23
0.0
 33
0.0
 16
1.0
 26
0.0
 36
0.0
 17
0.0
 27
1.0
 37
0.0
 76
     0
330
1F
331
29
  0
MLINESTYLE
  5
18
102
{ACAD_REACTORS
330
17
102
}
330
17
100
AcDbMlineStyle
  2
Standard
 70
     0
  3

 62
   256
 51
90.0
 52
90.0
 71
     2
 49
0.5
 62
   256
  6
BYLAYER
 49
-0.5
 62
   256
  6
BYLAYER
  0
ACDBPLACEHOLDER
  5
F
102
{ACAD_REACTORS
330
E
102
}
330
E
  0
SCALE
  5
48
102
{ACAD_REACTORS
330
47
102
}
330
47
100
AcDbScale
 70
     0
300
1:1
140
1.0
141
1.0
290
     1
  0
SCALE
  5
49
102
{ACAD_REACTORS
330
47
102
}
330
47
100
AcDbScale
 70
     0
300
1:2
140
1.0
141
2.0
290
     0
  0
SCALE
  5
4A
102
{ACAD_REACTORS
330
47
102
}
330
47
100
AcDbScale
 70
     0
300
1:4
140
1.0
141
4.0
290
     0
  0
SCALE
  5
4B
102
{ACAD_REACTORS
330
47
102
}
330
47
100
AcDbScale
 70
     0
300
1:5
140
1.0
141
5.0
290
     0
  0
SCALE
  5
4C
102
{ACAD_REACTORS
330
47
102
}
330
47
100
AcDbScale
 70
     0
300
1:8
140
1.0
141
8.0
290
     0
  0
SCALE
  5
4D
102
{ACAD_REACTORS
330
47
102
}
330
47
100
AcDbScale
 70
     0
300
1:10
140
1.0
141
10.0
290
     0
  0
SCALE
  5
4E
102
{ACAD_REACTORS
330
47
102
}
330
47
100
AcDbScale
 70
     0
300
1:16
140
1.0
141
16.0
290
     0
  0
SCALE
  5
4F
102
{ACAD_REACTORS
330
47
102
}
330
47
100
AcDbScale
 70
     0
300
1:20
140
1.0
141
20.0
290
     0
  0
SCALE
  5
50
102
{ACAD_REACTORS
330
47
102
}
330
47
100
AcDbScale
 70
     0
300
1:30
140
1.0
141
30.0
290
     0
  0
SCALE
  5
51
102
{ACAD_REACTORS
330
47
102
}
330
47
100
AcDbScale
 70
     0
300
1:40
140
1.0
141
40.0
290
     0
  0
SCALE
  5
52
102
{ACAD_REACTORS
330
47
102
}
330
47
100
AcDbScale
 70
     0
300
1:50
140
1.0
141
50.0
290
     0
  0
SCALE
  5
53
102
{ACAD_REACTORS
330
47
102
}
330
47
100
AcDbScale
 70
     0
300
1:100
140
1.0
141
100.0
290
     0
  0
SCALE
  5
54
102
{ACAD_REACTORS
330
47
102
}
330
47
100
AcDbScale
 70
     0
300
2:1
140
2.0
141
1.0
290
     0
  0
SCALE
  5
55
102
{ACAD_REACTORS
330
47
102
}
330
47
100
AcDbScale
 70
     0
300
4:1
140
4.0
141
1.0
290
     0
  0
SCALE
  5
56
102
{ACAD_REACTORS
330
47
102
}
330
47
100
AcDbScale
 70
     0
300
8:1
140
8.0
141
1.0
290
     0
  0
SCALE
  5
57
102
{ACAD_REACTORS
330
47
102
}
330
47
100
AcDbScale
 70
     0
300
10:1
140
10.0
141
1.0
290
     0
  0
SCALE
  5
58
102
{ACAD_REACTORS
330
47
102
}
330
47
100
AcDbScale
 70
     0
300
100:1
140
100.0
141
1.0
290
     0
  0
SCALE
  5
59
102
{ACAD_REACTORS
330
47
102
}
330
47
100
AcDbScale
 70
     0
300
1/128" = 1'-0"
140
0.0078125
141
12.0
290
     0
  0
SCALE
  5
5A
102
{ACAD_REACTORS
330
47
102
}
330
47
100
AcDbScale
 70
     0
300
1/64" = 1'-0"
140
0.015625
141
12.0
290
     0
  0
SCALE
  5
5B
102
{ACAD_REACTORS
330
47
102
}
330
47
100
AcDbScale
 70
     0
300
1/32" = 1'-0"
140
0.03125
141
12.0
290
     0
  0
SCALE
  5
5C
102
{ACAD_REACTORS
330
47
102
}
330
47
100
AcDbScale
 70
     0
300
1/16" = 1'-0"
140
0.0625
141
12.0
290
     0
  0
SCALE
  5
5D
102
{ACAD_REACTORS
330
47
102
}
330
47
100
AcDbScale
 70
     0
300
3/32" = 1'-0"
140
0.09375
141
12.0
290
     0
  0
SCALE
  5
5E
102
{ACAD_REACTORS
330
47
102
}
330
47
100
AcDbScale
 70
     0
300
1/8" = 1'-0"
140
0.125
141
12.0
290
     0
  0
SCALE
  5
5F
102
{ACAD_REACTORS
330
47
102
}
330
47
100
AcDbScale
 70
     0
300
3/16" = 1'-0"
140
0.1875
141
12.0
290
     0
  0
SCALE
  5
60
102
{ACAD_REACTORS
330
47
102
}
330
47
100
AcDbScale
 70
     0
300
1/4" = 1'-0"
140
0.25
141
12.0
290
     0
  0
SCALE
  5
61
102
{ACAD_REACTORS
330
47
102
}
330
47
100
AcDbScale
 70
     0
300
3/8" = 1'-0"
140
0.375
141
12.0
290
     0
  0
SCALE
  5
62
102
{ACAD_REACTORS
330
47
102
}
330
47
100
AcDbScale
 70
     0
300
1/2" = 1'-0"
140
0.5
141
12.0
290
     0
  0
SCALE
  5
63
102
{ACAD_REACTORS
330
47
102
}
330
47
100
AcDbScale
 70
     0
300
3/4" = 1'-0"
140
0.75
141
12.0
290
     0
  0
SCALE
  5
64
102
{ACAD_REACTORS
330
47
102
}
330
47
100
AcDbScale
 70
     0
300
1" = 1'-0"
140
1.0
141
12.0
290
     0
  0
SCALE
  5
65
102
{ACAD_REACTORS
330
47
102
}
330
47
100
AcDbScale
 70
     0
300
1-1/2" = 1'-0"
140
1.5
141
12.0
290
     0
  0
SCALE
  5
66
102
{ACAD_REACTORS
330
47
102
}
330
47
100
AcDbScale
 70
     0
300
3" = 1'-0"
140
3.0
141
12.0
290
     0
  0
SCALE
  5
67
102
{ACAD_REACTORS
330
47
102
}
330
47
100
AcDbScale
 70
     0
300
6" = 1'-0"
140
6.0
141
12.0
290
     0
  0
SCALE
  5
68
102
{ACAD_REACTORS
330
47
102
}
330
47
100
AcDbScale
 70
     0
300
1'-0" = 1'-0"
140
12.0
141
12.0
290
     0
  0
ENDSEC
  0
EOF