  0
SECTION
  2
HEADER
  9
$ACADVER
  1
AC1015
  9
$ACADMAINTVER
 70
     6
  9
$DWGCODEPAGE
  3
ANSI_1254
  9
$INSBASE
 10
0.0
 20
0.0
 30
0.0
  9
$EXTMIN
 10
0.0
 20
0.0
 30
0.0
  9
$EXTMAX
 10
297.0
 20
210.0
 30
0.0
  9
$LIMMIN
 10
0.0
 20
0.0
  9
$LIMMAX
 10
297.0
 20
210.0
  9
$ORTHOMODE
 70
     0
  9
$REGENMODE
 70
     1
  9
$FILLMODE
 70
     1
  9
$QTEXTMODE
 70
     0
  9
$MIRRTEXT
 70
     1
  9
$LTSCALE
 40
1.0
  9
$ATTMODE
 70
     1
  9
$TEXTSIZE
 40
3.5277777778
  9
$TRACEWID
 40
1.0
  9
$TEXTSTYLE
  7
Standard
  9
$CLAYER
  8
0
  9
$CELTYPE
  6
ByLayer
  9
$CECOLOR
 62
   256
  9
$CELTSCALE
 40
1.0
  9
$DISPSILH
 70
     0
  9
$DIMSCALE
 40
1.0
  9
$DIMASZ
 40
2.0
  9
$DIMEXO
 40
1.0
  9
$DIMDLI
 40
3.75
  9
$DIMRND
 40
0.0
  9
$DIMDLE
 40
0.0
  9
$DIMEXE
 40
1.0
  9
$DIMTP
 40
0.0
  9
$DIMTM
 40
0.0
  9
$DIMTXT
 40
3.5277777778
  9
$DIMCEN
 40
2.5
  9
$DIMTSZ
 40
0.0
  9
$DIMTOL
 70
     0
  9
$DIMLIM
 70
     0
  9
$DIMTIH
 70
     1
  9
$DIMTOH
 70
     1
  9
$DIMSE1
 70
     0
  9
$DIMSE2
 70
     0
  9
$DIMTAD
 70
     1
  9
$DIMZIN
 70
     0
  9
$DIMBLK
  1

  9
$DIMASO
 70
     1
  9
$DIMSHO
 70
     1
  9
$DIMPOST
  1

  9
$DIMAPOST
  1

  9
$DIMALT
 70
     0
  9
$DIMALTD
 70
     3
  9
$DIMALTF
 40
0.0393700787
  9
$DIMLFAC
 40
1.0
  9
$DIMTOFL
 70
     1
  9
$DIMTVP
 40
0.0
  9
$DIMTIX
 70
     0
  9
$DIMSOXD
 70
     0
  9
$DIMSAH
 70
     0
  9
$DIMBLK1
  1

  9
$DIMBLK2
  1

  9
$DIMSTYLE
  2
ISO-25
  9
$DIMCLRD
 70
     0
  9
$DIMCLRE
 70
     0
  9
$DIMCLRT
 70
     0
  9
$DIMTFAC
 40
1.0
  9
$DIMGAP
 40
1.524
  9
$DIMJUST
 70
     0
  9
$DIMSD1
 70
     0
  9
$DIMSD2
 70
     0
  9
$DIMTOLJ
 70
     0
  9
$DIMTZIN
 70
     0
  9
$DIMALTZ
 70
     0
  9
$DIMALTTZ
 70
     0
  9
$DIMUPT
 70
     0
  9
$DIMDEC
 70
     2
  9
$DIMTDEC
 70
     2
  9
$DIMALTU
 70
     2
  9
$DIMALTTD
 70
     3
  9
$DIMTXSTY
  7
Standard
  9
$DIMAUNIT
 70
     0
  9
$DIMADEC
 70
     2
  9
$DIMALTRND
 40
0.0
  9
$DIMAZIN
 70
     0
  9
$DIMDSEP
 70
    44
  9
$DIMATFIT
 70
     3
  9
$DIMFRAC
 70
     0
  9
$DIMLDRBLK
  1

  9
$DIMLUNIT
 70
     2
  9
$DIMLWD
 70
    -2
  9
$DIMLWE
 70
    -2
  9
$DIMTMOVE
 70
     0
  9
$LUNITS
 70
     2
  9
$LUPREC
 70
     2
  9
$SKETCHINC
 40
1.0
  9
$FILLETRAD
 40
10.0
  9
$AUNITS
 70
     1
  9
$AUPREC
 70
     2
  9
$MENU
  1
.
  9
$ELEVATION
 40
0.0
  9
$PELEVATION
 40
0.0
  9
$THICKNESS
 40
0.0
  9
$LIMCHECK
 70
     0
  9
$CHAMFERA
 40
0.0
  9
$CHAMFERB
 40
0.0
  9
$CHAMFERC
 40
0.0
  9
$CHAMFERD
 40
0.0
  9
$SKPOLY
 70
     0
  9
$TDCREATE
 40
2459346.517142592
  9
$TDUCREATE
 40
2459346.392142592
  9
$TDUPDATE
 40
2459346.517143495
  9
$TDUUPDATE
 40
2459346.392143495
  9
$TDINDWG
 40
0.0000000116
  9
$TDUSRTIMER
 40
0.0000000116
  9
$USRTIMER
 70
     1
  9
$ANGBASE
 50
0.0
  9
$ANGDIR
 70
     0
  9
$PDMODE
 70
     0
  9
$PDSIZE
 40
-1.0
  9
$PLINEWID
 40
0.0
  9
$SPLFRAME
 70
     0
  9
$SPLINETYPE
 70
     6
  9
$SPLINESEGS
 70
     8
  9
$HANDSEED
  5
241
  9
$SURFTAB1
 70
     6
  9
$SURFTAB2
 70
     6
  9
$SURFTYPE
 70
     6
  9
$SURFU
 70
     6
  9
$SURFV
 70
     6
  9
$UCSBASE
  2

  9
$UCSNAME
  2

  9
$UCSORG
 10
0.0
 20
0.0
 30
0.0
  9
$UCSXDIR
 10
1.0
 20
0.0
 30
0.0
  9
$UCSYDIR
 10
0.0
 20
1.0
 30
0.0
  9
$UCSORTHOREF
  2

  9
$UCSORTHOVIEW
 70
     0
  9
$UCSORGTOP
 10
0.0
 20
0.0
 30
0.0
  9
$UCSORGBOTTOM
 10
0.0
 20
0.0
 30
0.0
  9
$UCSORGLEFT
 10
0.0
 20
0.0
 30
0.0
  9
$UCSORGRIGHT
 10
0.0
 20
0.0
 30
0.0
  9
$UCSORGFRONT
 10
0.0
 20
0.0
 30
0.0
  9
$UCSORGBACK
 10
0.0
 20
0.0
 30
0.0
  9
$PUCSBASE
  2

  9
$PUCSNAME
  2

  9
$PUCSORG
 10
0.0
 20
0.0
 30
0.0
  9
$PUCSXDIR
 10
1.0
 20
0.0
 30
0.0
  9
$PUCSYDIR
 10
0.0
 20
1.0
 30
0.0
  9
$PUCSORTHOREF
  2

  9
$PUCSORTHOVIEW
 70
     0
  9
$PUCSORGTOP
 10
0.0
 20
0.0
 30
0.0
  9
$PUCSORGBOTTOM
 10
0.0
 20
0.0
 30
0.0
  9
$PUCSORGLEFT
 10
0.0
 20
0.0
 30
0.0
  9
$PUCSORGRIGHT
 10
0.0
 20
0.0
 30
0.0
  9
$PUCSORGFRONT
 10
0.0
 20
0.0
 30
0.0
  9
$PUCSORGBACK
 10
0.0
 20
0.0
 30
0.0
  9
$USERI1
 70
     0
  9
$USERI2
 70
     0
  9
$USERI3
 70
     0
  9
$USERI4
 70
     0
  9
$USERI5
 70
     0
  9
$USERR1
 40
0.0
  9
$USERR2
 40
0.0
  9
$USERR3
 40
0.0
  9
$USERR4
 40
0.0
  9
$USERR5
 40
0.0
  9
$WORLDVIEW
 70
     1
  9
$SHADEDGE
 70
     3
  9
$SHADEDIF
 70
    70
  9
$TILEMODE
 70
     1
  9
$MAXACTVP
 70
    64
  9
$PINSBASE
 10
0.0
 20
0.0
 30
0.0
  9
$PLIMCHECK
 70
     0
  9
$PEXTMIN
 10
1.0000000000E+20
 20
1.0000000000E+20
 30
1.0000000000E+20
  9
$PEXTMAX
 10
-1.0000000000E+20
 20
-1.0000000000E+20
 30
-1.0000000000E+20
  9
$PLIMMIN
 10
0.0
 20
0.0
  9
$PLIMMAX
 10
420.0
 20
297.0
  9
$UNITMODE
 70
     0
  9
$VISRETAIN
 70
     1
  9
$PLINEGEN
 70
     0
  9
$PSLTSCALE
 70
     1
  9
$TREEDEPTH
 70
  3020
  9
$CMLSTYLE
  2
Standard
  9
$CMLJUST
 70
     0
  9
$CMLSCALE
 40
20.0
  9
$PROXYGRAPHICS
 70
     1
  9
$MEASUREMENT
 70
     1
  9
$CELWEIGHT
370
    -1
  9
$ENDCAPS
280
     0
  9
$JOINSTYLE
280
     0
  9
$LWDISPLAY
290
     1
  9
$INSUNITS
 70
     4
  9
$HYPERLINKBASE
  1

  9
$STYLESHEET
  1

  9
$XEDIT
290
     1
  9
$CEPSNTYPE
380
     0
  9
$PSTYLEMODE
290
     1
  9
$FINGERPRINTGUID
  2
{5b0fd023-960e-4f27-bd86-554afc885975}
  9
$VERSIONGUID
  2
{FAEB1C32-E019-11D5-929B-00C0DF256EC4}
  9
$EXTNAMES
290
     1
  9
$PSVPSCALE
 40
0.0
  9
$OLESTARTUP
290
     0
  0
ENDSEC
  0
SECTION
  2
CLASSES
  0
CLASS
  1
ACDBDICTIONARYWDFLT
  2
AcDbDictionaryWithDefault
  3
ObjectDBX Classes
 90
        0
280
     0
281
     0
  0
CLASS
  1
VISUALSTYLE
  2
AcDbVisualStyle
  3
ObjectDBX Classes
 90
     4095
280
     0
281
     0
  0
CLASS
  1
MATERIAL
  2
AcDbMaterial
  3
ObjectDBX Classes
 90
     1153
280
     0
281
     0
  0
CLASS
  1
SCALE
  2
AcDbScale
  3
ObjectDBX Classes
 90
     1153
280
     0
281
     0
  0
CLASS
  1
TABLESTYLE
  2
AcDbTableStyle
  3
ObjectDBX Classes
 90
     4095
280
     0
281
     0
  0
CLASS
  1
MLEADERSTYLE
  2
AcDbMLeaderStyle
  3
ACDB_MLEADERSTYLE_CLASS
 90
     4095
280
     0
281
     0
  0
CLASS
  1
SUN
  2
AcDbSun
  3
SCENEOE
 90
     1153
280
     0
281
     0
  0
CLASS
  1
ACDBPLACEHOLDER
  2
AcDbPlaceHolder
  3
ObjectDBX Classes
 90
        0
280
     0
281
     0
  0
CLASS
  1
LAYOUT
  2
AcDbLayout
  3
ObjectDBX Classes
 90
        0
280
     0
281
     0
  0
ENDSEC
  0
SECTION
  2
TABLES
  0
TABLE
  2
VPORT
  5
8
330
0
100
AcDbSymbolTable
 70
     1
  0
VPORT
  5
29
330
8
100
AcDbSymbolTableRecord
100
AcDbViewportTableRecord
  2
*Active
 70
     0
 10
0.0
 20
0.0
 11
1.0
 21
1.0
 12
148.5
 22
105.0
 13
0.0
 23
0.0
 14
10.0
 24
10.0
 15
10.0
 25
10.0
 16
0.0
 26
0.0
 36
1.0
 17
0.0
 27
0.0
 37
0.0
 40
210.0
 41
1.4142857143
 42
50.0
 43
0.0
 44
0.0
 50
0.0
 51
0.0
 71
     0
 72
  2000
 73
     1
 74
     3
 75
     0
 76
     0
 77
     0
 78
     0
281
     0
 65
     1
110
0.0
120
0.0
130
0.0
111
1.0
121
0.0
131
0.0
112
0.0
122
1.0
132
0.0
 79
     0
146
0.0
  0
ENDTAB
  0
TABLE
  2
LTYPE
  5
5
330
0
100
AcDbSymbolTable
 70
     6
  0
LTYPE
  5
14
330
5
100
AcDbSymbolTableRecord
100
AcDbLinetypeTableRecord
  2
ByBlock
 70
     0
  3

 72
    65
 73
     0
 40
0.0
  0
LTYPE
  5
15
330
5
100
AcDbSymbolTableRecord
100
AcDbLinetypeTableRecord
  2
ByLayer
 70
     0
  3

 72
    65
 73
     0
 40
0.0
  0
LTYPE
  5
16
330
5
100
AcDbSymbolTableRecord
100
AcDbLinetypeTableRecord
  2
Continuous
 70
     0
  3
Solid line
 72
    65
 73
     0
 40
0.0
  0
LTYPE
  5
6E
330
5
100
AcDbSymbolTableRecord
100
AcDbLinetypeTableRecord
  2
HIDDEN
 70
     0
  3
Hidden __ __ __ __ __ __ __ __ __ __ __ __ __ __
 72
    65
 73
     2
 40
1.905
 49
1.27
 74
     0
 49
-0.635
 74
     0
  0
LTYPE
  5
6F
330
5
100
AcDbSymbolTableRecord
100
AcDbLinetypeTableRecord
  2
PHANTOM
 70
     0
  3
Phantom ______  __  __  ______  __  __  ______
 72
    65
 73
     6
 40
12.7
 49
6.35
 74
     0
 49
-1.27
 74
     0
 49
1.27
 74
     0
 49
-1.27
 74
     0
 49
1.27
 74
     0
 49
-1.27
 74
     0
  0
LTYPE
  5
70
330
5
100
AcDbSymbolTableRecord
100
AcDbLinetypeTableRecord
  2
CENTER
 70
     0
  3
Center ____ _ ____ _ ____ _ ____ _ ____ _ ____
 72
    65
 73
     4
 40
10.16
 49
6.35
 74
     0
 49
-1.27
 74
     0
 49
1.27
 74
     0
 49
-1.27
 74
     0
  0
LTYPE
  5
71
330
5
100
AcDbSymbolTableRecord
100
AcDbLinetypeTableRecord
  2
CENTERX2
 70
     0
  3
Center (2x) ________  __  ________  __  _____
 72
    65
 73
     4
 40
20.32
 49
12.7
 74
     0
 49
-2.54
 74
     0
 49
2.54
 74
     0
 49
-2.54
 74
     0
  0
LTYPE
  5
72
330
5
100
AcDbSymbolTableRecord
100
AcDbLinetypeTableRecord
  2
DOT2
 70
     0
  3
Dot (.5x) ........................................
 72
    65
 73
     2
 40
0.635
 49
0.0
 74
     0
 49
-0.635
 74
     0
  0
ENDTAB
  0
TABLE
  2
LAYER
  5
2
330
0
100
AcDbSymbolTable
 70
     1
  0
LAYER
  5
10
330
2
100
AcDbSymbolTableRecord
100
AcDbLayerTableRecord
  2
0
 70
     0
 62
     7
  6
Continuous
370
    -3
390
F
  0
ENDTAB
  0
TABLE
  2
STYLE
  5
3
330
0
100
AcDbSymbolTable
 70
     3
  0
STYLE
  5
11
330
3
100
AcDbSymbolTableRecord
100
AcDbTextStyleTableRecord
  2
Standard
 70
     0
 40
0.0
 41
1.0
 50
0.0
 71
     0
 42
3.5277777778
  3
txt
  4

  0
STYLE
  5
A3
330
3
100
AcDbSymbolTableRecord
100
AcDbTextStyleTableRecord
  2
SLDTEXTSTYLE0
 70
     0
 40
0.0
 41
0.605
 50
0.0
 71
     0
 42
3.5277777778
  3
TXT
  4

  0
STYLE
  5
A5
330
3
100
AcDbSymbolTableRecord
100
AcDbTextStyleTableRecord
  2
SLDTEXTSTYLE1
 70
     0
 40
0.0
 41
0.5741176471
 50
0.0
 71
     0
 42
3.5277777778
  3
TXT
  4

  0
ENDTAB
  0
TABLE
  2
VIEW
  5
6
330
0
100
AcDbSymbolTable
 70
     0
  0
ENDTAB
  0
TABLE
  2
UCS
  5
7
330
0
100
AcDbSymbolTable
 70
     0
  0
ENDTAB
  0
TABLE
  2
APPID
  5
9
330
0
100
AcDbSymbolTable
 70
     1
  0
APPID
  5
12
330
9
100
AcDbSymbolTableRecord
100
AcDbRegAppTableRecord
  2
ACAD
 70
     0
  0
ENDTAB
  0
TABLE
  2
DIMSTYLE
  5
A
330
0
100
AcDbSymbolTable
 70
     1
100
AcDbDimStyleTable
  0
DIMSTYLE
105
27
330
A
100
AcDbSymbolTableRecord
100
AcDbDimStyleTableRecord
  2
ISO-25
 70
     0
 41
2.5
 42
0.625
 43
3.75
 44
1.25
 73
     0
 74
     0
 77
     1
 78
     8
140
2.5
141
2.5
143
0.0393700787
147
0.625
171
     3
172
     1
178
     0
271
     2
272
     2
274
     3
278
    44
283
     0
284
     8
340
11
  0
ENDTAB
  0
TABLE
  2
BLOCK_RECORD
  5
1
330
0
100
AcDbSymbolTable
 70
     4
  0
BLOCK_RECORD
  5
1F
330
1
100
AcDbSymbolTableRecord
100
AcDbBlockTableRecord
  2
*Model_Space
340
22
  0
BLOCK_RECORD
  5
1B
330
1
100
AcDbSymbolTableRecord
100
AcDbBlockTableRecord
  2
*Paper_Space
340
1E
  0
BLOCK_RECORD
  5
23
330
1
100
AcDbSymbolTableRecord
100
AcDbBlockTableRecord
  2
*Paper_Space0
340
26
  0
BLOCK_RECORD
  5
147
330
1
100
AcDbSymbolTableRecord
100
AcDbBlockTableRecord
  2
SW_NOTE_0
340
0
102
{BLKREFS
331
14C
102
}
  0
BLOCK_RECORD
  5
1CE
330
1
100
AcDbSymbolTableRecord
100
AcDbBlockTableRecord
  2
SW_CENTERMARKSYMBOL_0
340
0
102
{BLKREFS
331
1D9
102
}
  0
BLOCK_RECORD
  5
1DA
330
1
100
AcDbSymbolTableRecord
100
AcDbBlockTableRecord
  2
SW_CENTERMARKSYMBOL_1
340
0
102
{BLKREFS
331
1E5
102
}
  0
ENDTAB
  0
ENDSEC
  0
SECTION
  2
BLOCKS
  0
BLOCK
  5
20
330
1F
100
AcDbEntity
  8
0
100
AcDbBlockBegin
  2
*Model_Space
 70
     0
 10
0.0
 20
0.0
 30
0.0
  3
*Model_Space
  1

  0
ENDBLK
  5
21
330
1F
100
AcDbEntity
  8
0
100
AcDbBlockEnd
  0
BLOCK
  5
1C
330
1B
100
AcDbEntity
 67
     1
  8
0
100
AcDbBlockBegin
  2
*Paper_Space
 70
     0
 10
0.0
 20
0.0
 30
0.0
  3
*Paper_Space
  1

  0
ENDBLK
  5
1D
330
1B
100
AcDbEntity
 67
     1
  8
0
100
AcDbBlockEnd
  0
BLOCK
  5
24
330
23
100
AcDbEntity
  8
0
100
AcDbBlockBegin
  2
*Paper_Space0
 70
     0
 10
0.0
 20
0.0
 30
0.0
  3
*Paper_Space0
  1

  0
ENDBLK
  5
25
330
23
100
AcDbEntity
  8
0
100
AcDbBlockEnd
  0
BLOCK
  5
148
330
147
100
AcDbEntity
  8
0
100
AcDbBlockBegin
  2
SW_NOTE_0
 70
     0
 10
0.0
 20
0.0
 30
0.0
  3
SW_NOTE_0
  1

  0
MTEXT
  5
14A
330
147
100
AcDbEntity
  8
0
  6
Continuous
 62
     0
370
     0
100
AcDbMText
 10
0.0
 20
34.1065839481
 30
0.0
 40
26.4583333333
 41
0.0
 71
     1
 72
     1
  1
DKP
  7
SLDTEXTSTYLE0
 73
     1
 44
1.0
  0
MTEXT
  5
14B
330
147
100
AcDbEntity
  8
0
  6
Continuous
 62
     0
370
     0
100
AcDbMText
 10
0.0
 20
-1.171192472
 30
0.0
 40
26.4583333333
 41
0.0
 71
     1
 72
     1
  1
1,5 mm
  7
SLDTEXTSTYLE0
 73
     1
 44
1.0
  0
ENDBLK
  5
149
330
147
100
AcDbEntity
  8
0
100
AcDbBlockEnd
  0
BLOCK
  5
1CF
330
1CE
100
AcDbEntity
  8
0
100
AcDbBlockBegin
  2
SW_CENTERMARKSYMBOL_0
 70
     0
 10
0.0
 20
0.0
 30
0.0
  3
SW_CENTERMARKSYMBOL_0
  1

  0
LINE
  5
1D1
330
1CE
100
AcDbEntity
  8
0
  6
Continuous
 62
     0
370
    18
100
AcDbLine
 10
0.0
 20
0.0
 30
0.0
 11
2.5
 21
0.0
 31
0.0
  0
LINE
  5
1D2
330
1CE
100
AcDbEntity
  8
0
  6
Continuous
 62
     0
370
    18
100
AcDbLine
 10
0.0
 20
0.0
 30
0.0
 11
0.0
 21
2.5
 31
0.0
  0
LINE
  5
1D3
330
1CE
100
AcDbEntity
  8
0
  6
Continuous
 62
     0
370
    18
100
AcDbLine
 10
0.0
 20
0.0
 30
0.0
 11
-2.5
 21
0.0
 31
0.0
  0
LINE
  5
1D4
330
1CE
100
AcDbEntity
  8
0
  6
Continuous
 62
     0
370
    18
100
AcDbLine
 10
0.0
 20
0.0
 30
0.0
 11
0.0
 21
-2.5
 31
0.0
  0
LINE
  5
1D5
330
1CE
100
AcDbEntity
  8
0
  6
Continuous
 62
     0
370
    18
100
AcDbLine
 10
5.0
 20
0.0
 30
0.0
 11
5.75
 21
0.0
 31
0.0
  0
LINE
  5
1D6
330
1CE
100
AcDbEntity
  8
0
  6
Continuous
 62
     0
370
    18
100
AcDbLine
 10
0.0
 20
5.0
 30
0.0
 11
0.0
 21
5.75
 31
0.0
  0
LINE
  5
1D7
330
1CE
100
AcDbEntity
  8
0
  6
Continuous
 62
     0
370
    18
100
AcDbLine
 10
-5.0
 20
0.0
 30
0.0
 11
-5.75
 21
0.0
 31
0.0
  0
LINE
  5
1D8
330
1CE
100
AcDbEntity
  8
0
  6
Continuous
 62
     0
370
    18
100
AcDbLine
 10
0.0
 20
-5.0
 30
0.0
 11
0.0
 21
-5.75
 31
0.0
  0
ENDBLK
  5
1D0
330
1CE
100
AcDbEntity
  8
0
100
AcDbBlockEnd
  0
BLOCK
  5
1DB
330
1DA
100
AcDbEntity
  8
0
100
AcDbBlockBegin
  2
SW_CENTERMARKSYMBOL_1
 70
     0
 10
0.0
 20
0.0
 30
0.0
  3
SW_CENTERMARKSYMBOL_1
  1

  0
LINE
  5
1DD
330
1DA
100
AcDbEntity
  8
0
  6
Continuous
 62
     0
370
    18
100
AcDbLine
 10
0.0
 20
0.0
 30
0.0
 11
2.5
 21
0.0
 31
0.0
  0
LINE
  5
1DE
330
1DA
100
AcDbEntity
  8
0
  6
Continuous
 62
     0
370
    18
100
AcDbLine
 10
0.0
 20
0.0
 30
0.0
 11
0.0
 21
2.5
 31
0.0
  0
LINE
  5
1DF
330
1DA
100
AcDbEntity
  8
0
  6
Continuous
 62
     0
370
    18
100
AcDbLine
 10
0.0
 20
0.0
 30
0.0
 11
-2.5
 21
0.0
 31
0.0
  0
LINE
  5
1E0
330
1DA
100
AcDbEntity
  8
0
  6
Continuous
 62
     0
370
    18
100
AcDbLine
 10
0.0
 20
0.0
 30
0.0
 11
0.0
 21
-2.5
 31
0.0
  0
LINE
  5
1E1
330
1DA
100
AcDbEntity
  8
0
  6
Continuous
 62
     0
370
    18
100
AcDbLine
 10
5.0
 20
0.0
 30
0.0
 11
5.75
 21
0.0
 31
0.0
  0
LINE
  5
1E2
330
1DA
100
AcDbEntity
  8
0
  6
Continuous
 62
     0
370
    18
100
AcDbLine
 10
0.0
 20
5.0
 30
0.0
 11
0.0
 21
5.75
 31
0.0
  0
LINE
  5
1E3
330
1DA
100
AcDbEntity
  8
0
  6
Continuous
 62
     0
370
    18
100
AcDbLine
 10
-5.0
 20
0.0
 30
0.0
 11
-5.75
 21
0.0
 31
0.0
  0
LINE
  5
1E4
330
1DA
100
AcDbEntity
  8
0
  6
Continuous
 62
     0
370
    18
100
AcDbLine
 10
0.0
 20
-5.0
 30
0.0
 11
0.0
 21
-5.75
 31
0.0
  0
ENDBLK
  5
1DC
330
1DA
100
AcDbEntity
  8
0
100
AcDbBlockEnd
  0
ENDSEC
  0
SECTION
  2
ENTITIES
  0
LINE
  5
73
330
1F
100
AcDbEntity
  8
0
  6
CENTERX2
 62
     7
100
AcDbLine
 10
554.8656959635
 20
-77.69571306
 30
0.0
 11
554.8656959635
 21
-219.69571306
 31
0.0
  0
LINE
  5
74
330
1F
100
AcDbEntity
  8
0
  6
CENTERX2
 62
     7
100
AcDbLine
 10
389.7356724717
 20
-35.69571306
 30
0.0
 11
389.7356724717
 21
-310.69571306
 31
0.0
  0
LINE
  5
75
330
1F
100
AcDbEntity
  8
0
  6
CENTERX2
 62
     7
100
AcDbLine
 10
332.9088747736
 20
-35.69571306
 30
0.0
 11
332.9088747736
 21
-310.69571306
 31
0.0
  0
LINE
  5
76
330
1F
100
AcDbEntity
  8
0
  6
CENTERX2
 62
     7
100
AcDbLine
 10
-43.3493804295
 20
-35.69571306
 30
0.0
 11
-43.3493804295
 21
-310.69571306
 31
0.0
  0
LINE
  5
77
330
1F
100
AcDbEntity
  8
0
  6
CENTERX2
 62
     7
100
AcDbLine
 10
-71.8919068801
 20
-35.69571306
 30
0.0
 11
-71.8919068801
 21
-310.69571306
 31
0.0
  0
LINE
  5
78
330
1F
100
AcDbEntity
  8
0
  6
Continuous
 62
     7
370
    35
100
AcDbLine
 10
-180.2710344817
 20
-60.04571306
 30
0.0
 11
-171.7710344817
 21
-60.04571306
 31
0.0
  0
ARC
  5
79
330
1F
100
AcDbEntity
  8
0
  6
Continuous
 62
     7
370
    35
100
AcDbCircle
 10
-171.7710344817
 20
-56.79571306
 30
0.0
 40
3.249999999999979
100
AcDbArc
 50
270.0
 51
90.0
  0
LINE
  5
7A
330
1F
100
AcDbEntity
  8
0
  6
Continuous
 62
     7
370
    35
100
AcDbLine
 10
-180.2710344817
 20
-53.54571306
 30
0.0
 11
-171.7710344817
 21
-53.54571306
 31
0.0
  0
ARC
  5
7B
330
1F
100
AcDbEntity
  8
0
  6
Continuous
 62
     7
370
    35
100
AcDbCircle
 10
-180.2710344817
 20
-56.79571306
 30
0.0
 40
3.249999999999979
100
AcDbArc
 50
90.0
 51
270.0
  0
ARC
  5
7C
330
1F
100
AcDbEntity
  8
0
  6
Continuous
 62
     7
370
    35
100
AcDbCircle
 10
-231.7710344817
 20
-56.79571306
 30
0.0
 40
3.249999999999979
100
AcDbArc
 50
270.0
 51
90.0
  0
LINE
  5
7D
330
1F
100
AcDbEntity
  8
0
  6
Continuous
 62
     7
370
    35
100
AcDbLine
 10
-240.2710344817
 20
-53.54571306
 30
0.0
 11
-231.7710344817
 21
-53.54571306
 31
0.0
  0
ARC
  5
7E
330
1F
100
AcDbEntity
  8
0
  6
Continuous
 62
     7
370
    35
100
AcDbCircle
 10
-240.2710344817
 20
-56.79571306
 30
0.0
 40
3.249999999999979
100
AcDbArc
 50
90.0
 51
270.0
  0
LINE
  5
7F
330
1F
100
AcDbEntity
  8
0
  6
Continuous
 62
     7
370
    35
100
AcDbLine
 10
-240.2710344817
 20
-60.04571306
 30
0.0
 11
-231.7710344817
 21
-60.04571306
 31
0.0
  0
ARC
  5
80
330
1F
100
AcDbEntity
  8
0
  6
Continuous
 62
     7
370
    35
100
AcDbCircle
 10
572.1165918537
 20
-193.69571306
 30
0.0
 40
3.250000000000028
100
AcDbArc
 50
270.0
 51
90.0
  0
LINE
  5
81
330
1F
100
AcDbEntity
  8
0
  6
Continuous
 62
     7
370
    35
100
AcDbLine
 10
563.6165918537
 20
-190.44571306
 30
0.0
 11
572.1165918537
 21
-190.44571306
 31
0.0
  0
ARC
  5
82
330
1F
100
AcDbEntity
  8
0
  6
Continuous
 62
     7
370
    35
100
AcDbCircle
 10
563.6165918537
 20
-193.69571306
 30
0.0
 40
3.250000000000028
100
AcDbArc
 50
90.0
 51
270.0
  0
LINE
  5
83
330
1F
100
AcDbEntity
  8
0
  6
Continuous
 62
     7
370
    35
100
AcDbLine
 10
572.1165918537
 20
-196.94571306
 30
0.0
 11
563.6165918537
 21
-196.94571306
 31
0.0
  0
ARC
  5
84
330
1F
100
AcDbEntity
  8
0
  6
Continuous
 62
     7
370
    35
100
AcDbCircle
 10
572.1165918537
 20
-103.69571306
 30
0.0
 40
3.25
100
AcDbArc
 50
270.0
 51
90.0
  0
LINE
  5
85
330
1F
100
AcDbEntity
  8
0
  6
Continuous
 62
     7
370
    35
100
AcDbLine
 10
563.6165918537
 20
-100.44571306
 30
0.0
 11
572.1165918537
 21
-100.44571306
 31
0.0
  0
ARC
  5
86
330
1F
100
AcDbEntity
  8
0
  6
Continuous
 62
     7
370
    35
100
AcDbCircle
 10
563.6165918537
 20
-103.69571306
 30
0.0
 40
3.25
100
AcDbArc
 50
90.0
 51
270.0
  0
LINE
  5
87
330
1F
100
AcDbEntity
  8
0
  6
Continuous
 62
     7
370
    35
100
AcDbLine
 10
572.1165918537
 20
-106.94571306
 30
0.0
 11
563.6165918537
 21
-106.94571306
 31
0.0
  0
ARC
  5
88
330
1F
100
AcDbEntity
  8
0
  6
Continuous
 62
     7
370
    35
100
AcDbCircle
 10
-247.0210344817
 20
-305.69571306
 30
0.0
 40
5.0
100
AcDbArc
 50
180.0
 51
270.0
  0
LINE
  5
89
330
1F
100
AcDbEntity
  8
0
  6
Continuous
 62
     7
370
    35
100
AcDbLine
 10
-252.0210344817
 20
-215.69571306
 30
0.0
 11
-252.0210344817
 21
-305.69571306
 31
0.0
  0
ARC
  5
8A
330
1F
100
AcDbEntity
  8
0
  6
Continuous
 62
     7
370
    35
100
AcDbCircle
 10
-247.0210344817
 20
-215.69571306
 30
0.0
 40
5.0
100
AcDbArc
 50
90.0
 51
180.0
  0
LINE
  5
8B
330
1F
100
AcDbEntity
  8
0
  6
Continuous
 62
     7
370
    35
100
AcDbLine
 10
-247.0210344817
 20
-210.69571306
 30
0.0
 11
-152.0210344817
 21
-210.69571306
 31
0.0
  0
ARC
  5
8C
330
1F
100
AcDbEntity
  8
0
  6
Continuous
 62
     7
370
    35
100
AcDbCircle
 10
-152.0210344817
 20
-185.69571306
 30
0.0
 40
25.00000000000006
100
AcDbArc
 50
270.0
 51
90.0
  0
LINE
  5
8D
330
1F
100
AcDbEntity
  8
0
  6
Continuous
 62
     7
370
    35
100
AcDbLine
 10
-152.0210344817
 20
-160.69571306
 30
0.0
 11
-247.0210344817
 21
-160.69571306
 31
0.0
  0
ARC
  5
8E
330
1F
100
AcDbEntity
  8
0
  6
Continuous
 62
     7
370
    35
100
AcDbCircle
 10
-247.0210344817
 20
-155.69571306
 30
0.0
 40
5.000000000000028
100
AcDbArc
 50
180.0
 51
270.0
  0
LINE
  5
8F
330
1F
100
AcDbEntity
  8
0
  6
Continuous
 62
     7
370
    35
100
AcDbLine
 10
-252.0210344817
 20
-40.69571306
 30
0.0
 11
-252.0210344817
 21
-155.69571306
 31
0.0
  0
ARC
  5
90
330
1F
100
AcDbEntity
  8
0
  6
Continuous
 62
     7
370
    35
100
AcDbCircle
 10
-247.0210344817
 20
-40.69571306
 30
0.0
 40
5.0
100
AcDbArc
 50
90.0
 51
180.0
  0
LINE
  5
91
330
1F
100
AcDbEntity
  8
0
  6
Continuous
 62
     7
370
    35
100
AcDbLine
 10
459.8648000732
 20
-35.69571306
 30
0.0
 11
-247.0210344817
 21
-35.69571306
 31
0.0
  0
ARC
  5
92
330
1F
100
AcDbEntity
  8
0
  6
Continuous
 62
     7
370
    35
100
AcDbCircle
 10
459.8648000732
 20
-40.69571306
 30
0.0
 40
5.0
100
AcDbArc
 50
0.0
 51
90.0
  0
LINE
  5
93
330
1F
100
AcDbEntity
  8
0
  6
Continuous
 62
     7
370
    35
100
AcDbLine
 10
464.8648000732
 20
-40.69571306
 30
0.0
 11
464.8648000732
 21
-57.69571306
 31
0.0
  0
ARC
  5
94
330
1F
100
AcDbEntity
  8
0
  6
Continuous
 62
     7
370
    35
100
AcDbCircle
 10
484.8648000732
 20
-57.69571306
 30
0.0
 40
20.00000000000006
100
AcDbArc
 50
180.0
 51
270.0
  0
LINE
  5
95
330
1F
100
AcDbEntity
  8
0
  6
Continuous
 62
     7
370
    35
100
AcDbLine
 10
574.8665918537
 20
-77.69571306
 30
0.0
 11
484.8648000732
 21
-77.69571306
 31
0.0
  0
ARC
  5
96
330
1F
100
AcDbEntity
  8
0
  6
Continuous
 62
     7
370
    35
100
AcDbCircle
 10
574.8665918537
 20
-82.69571306
 30
0.0
 40
5.000000000000114
100
AcDbArc
 50
0.0
 51
90.0
  0
LINE
  5
97
330
1F
100
AcDbEntity
  8
0
  6
Continuous
 62
     7
370
    35
100
AcDbLine
 10
579.8665918537
 20
-134.19571306
 30
0.0
 11
579.8665918537
 21
-82.69571306
 31
0.0
  0
ARC
  5
98
330
1F
100
AcDbEntity
  8
0
  6
Continuous
 62
     7
370
    35
100
AcDbCircle
 10
577.8665918537
 20
-134.19571306
 30
0.0
 40
2.0
100
AcDbArc
 50
270.0
 51
0.0
  0
ARC
  5
99
330
1F
100
AcDbEntity
  8
0
  6
Continuous
 62
     7
370
    35
100
AcDbCircle
 10
572.3665918537
 20
-148.69571306
 30
0.0
 40
12.5
100
AcDbArc
 50
90.0
 51
270.0
  0
LINE
  5
9A
330
1F
100
AcDbEntity
  8
0
  6
Continuous
 62
     7
370
    35
100
AcDbLine
 10
577.8665918537
 20
-161.19571306
 30
0.0
 11
572.3665918537
 21
-161.19571306
 31
0.0
  0
LINE
  5
9B
330
1F
100
AcDbEntity
  8
0
  6
Continuous
 62
     7
370
    35
100
AcDbLine
 10
579.8665918537
 20
-214.69571306
 30
0.0
 11
579.8665918537
 21
-163.19571306
 31
0.0
  0
ARC
  5
9C
330
1F
100
AcDbEntity
  8
0
  6
Continuous
 62
     7
370
    35
100
AcDbCircle
 10
574.8665918537
 20
-214.69571306
 30
0.0
 40
5.000000000000114
100
AcDbArc
 50
270.0
 51
0.0
  0
LINE
  5
9D
330
1F
100
AcDbEntity
  8
0
  6
Continuous
 62
     7
370
    35
100
AcDbLine
 10
549.8648000732
 20
-219.69571306
 30
0.0
 11
574.8665918537
 21
-219.69571306
 31
0.0
  0
LINE
  5
9E
330
1F
100
AcDbEntity
  8
0
  6
Continuous
 62
     7
370
    35
100
AcDbLine
 10
549.8648000732
 20
-219.69571306
 30
0.0
 11
549.8648000732
 21
-305.69571306
 31
0.0
  0
ARC
  5
9F
330
1F
100
AcDbEntity
  8
0
  6
Continuous
 62
     7
370
    35
100
AcDbCircle
 10
544.8648000732
 20
-305.69571306
 30
0.0
 40
5.000000000000114
100
AcDbArc
 50
270.0
 51
0.0
  0
LINE
  5
A0
330
1F
100
AcDbEntity
  8
0
  6
Continuous
 62
     7
370
    35
100
AcDbLine
 10
544.8648000732
 20
-310.69571306
 30
0.0
 11
-247.0210344817
 21
-310.69571306
 31
0.0
  0
LINE
  5
A1
330
1F
100
AcDbEntity
  8
0
  6
Continuous
 62
     7
370
    35
100
AcDbLine
 10
572.3665918537
 20
-136.19571306
 30
0.0
 11
577.8665918537
 21
-136.19571306
 31
0.0
  0
ARC
  5
A2
330
1F
100
AcDbEntity
  8
0
  6
Continuous
 62
     7
370
    35
100
AcDbCircle
 10
577.8665918537
 20
-163.19571306
 30
0.0
 40
2.000000000000028
100
AcDbArc
 50
0.0
 51
90.0
  0
MTEXT
  5
A4
330
1F
100
AcDbEntity
  8
0
  6
Continuous
 62
     7
370
    18
100
AcDbMText
 10
551.4519200278
 20
-148.9973494528
 30
0.0
 40
2.6458333333
 41
0.0
 71
     2
 72
     1
  1
DOWN  90°0'  R 1.50
  7
SLDTEXTSTYLE0
 11
-3.491481338843133E-15
 21
1.0
 31
0.0
 73
     1
 44
1.0
  0
MTEXT
  5
A6
330
1F
100
AcDbEntity
  8
0
  6
Continuous
 62
     7
370
    18
100
AcDbMText
 10
386.321896536
 20
-173.5448154577
 30
0.0
 40
2.6458333333
 41
0.0
 71
     2
 72
     1
  1
UP  45°0'  R 1.50
  7
SLDTEXTSTYLE1
 11
-3.491481338843133E-15
 21
1.0
 31
0.0
 73
     1
 44
1.0
  0
MTEXT
  5
A7
330
1F
100
AcDbEntity
  8
0
  6
Continuous
 62
     7
370
    18
100
AcDbMText
 10
329.495098838
 20
-173.5448154577
 30
0.0
 40
2.6458333333
 41
0.0
 71
     2
 72
     1
  1
UP  45°0'  R 1.50
  7
SLDTEXTSTYLE1
 11
-3.491481338843133E-15
 21
1.0
 31
0.0
 73
     1
 44
1.0
  0
MTEXT
  5
A8
330
1F
100
AcDbEntity
  8
0
  6
Continuous
 62
     7
370
    18
100
AcDbMText
 10
-46.7631563652
 20
-173.5448154577
 30
0.0
 40
2.6458333333
 41
0.0
 71
     2
 72
     1
  1
UP  45°0'  R 1.50
  7
SLDTEXTSTYLE1
 11
-3.491481338843133E-15
 21
1.0
 31
0.0
 73
     1
 44
1.0
  0
MTEXT
  5
A9
330
1F
100
AcDbEntity
  8
0
  6
Continuous
 62
     7
370
    18
100
AcDbMText
 10
-75.3056828158
 20
-173.5448154577
 30
0.0
 40
2.6458333333
 41
0.0
 71
     2
 72
     1
  1
UP  45°0'  R 1.50
  7
SLDTEXTSTYLE1
 11
-3.491481338843133E-15
 21
1.0
 31
0.0
 73
     1
 44
1.0
  0
LINE
  5
AA
330
1F
100
AcDbEntity
  8
0
  6
Continuous
 62
     7
370
    35
100
AcDbLine
 10
-46.5956950719
 20
415.6231448205
 30
0.0
 11
-46.5956950719
 21
299.6743495328
 31
0.0
  0
LINE
  5
AB
330
1F
100
AcDbEntity
  8
0
  6
Continuous
 62
     7
370
    35
100
AcDbLine
 10
-29.5143008873
 20
357.7554918544
 30
0.0
 11
-28.4536407155
 21
358.3677979383
 31
0.0
  0
LINE
  5
AC
330
1F
100
AcDbEntity
  8
0
  6
Continuous
 62
     7
370
    35
100
AcDbLine
 10
-30.1357431319
 20
290.6504220782
 30
0.0
 11
-29.0750829601
 21
291.2627281621
 31
0.0
  0
LINE
  5
AD
330
1F
100
AcDbEntity
  8
0
  6
Continuous
 62
     7
370
    35
100
AcDbLine
 10
-42.206404607
 20
229.8159420417
 30
0.0
 11
-41.1457444352
 21
229.2036359578
 31
0.0
  0
LINE
  5
AE
330
1F
100
AcDbEntity
  8
0
  6
Continuous
 62
     7
370
    35
100
AcDbLine
 10
-351.5656213761
 20
530.8863382858
 30
0.0
 11
-350.5049612043
 21
530.2740322019
 31
0.0
  0
LINE
  5
AF
330
1F
100
AcDbEntity
  8
0
  6
Continuous
 62
     7
370
    35
100
AcDbLine
 10
-351.5656213761
 20
408.4052165029
 30
0.0
 11
-350.5049612043
 21
407.792910419
 31
0.0
  0
LINE
  5
B0
330
1F
100
AcDbEntity
  8
0
  6
Continuous
 62
     7
370
    35
100
AcDbLine
 10
-44.6563552437
 20
415.0108387367
 30
0.0
 11
-44.6563552437
 21
416.2354509044
 31
0.0
  0
LINE
  5
B1
330
1F
100
AcDbEntity
  8
0
  6
Continuous
 62
     7
370
    35
100
AcDbLine
 10
-44.6563552437
 20
416.2354509044
 30
0.0
 11
3.7804592676
 21
444.1974287343
 31
0.0
  0
ARC
  5
B2
330
1F
100
AcDbEntity
  8
0
  6
Continuous
 62
     7
370
    35
100
AcDbCircle
 10
-12.6627036204
 20
470.0208248765
 30
0.0
 40
30.61413716039172
100
AcDbArc
 50
302.4871280433
 51
357.512871811
  0
LINE
  5
B3
330
1F
100
AcDbEntity
  8
0
  6
Continuous
 62
     7
370
    35
100
AcDbLine
 10
17.9225948913
 20
482.5735198923
 30
0.0
 11
17.9225948913
 21
468.6923260903
 31
0.0
  0
ARC
  5
B4
330
1F
100
AcDbEntity
  8
0
  6
Continuous
 62
     7
370
    35
100
AcDbCircle
 10
25.5986753982
 20
482.224215631
 30
0.0
 40
7.684024037860692
100
AcDbArc
 50
122.60547834
 51
177.3945215143
  0
LINE
  5
B5
330
1F
100
AcDbEntity
  8
0
  6
Continuous
 62
     7
370
    35
100
AcDbLine
 10
21.4581287973
 20
488.6972442313
 30
0.0
 11
70.5162636521
 21
517.0179026609
 31
0.0
  0
LINE
  5
B6
330
1F
100
AcDbEntity
  8
0
  6
Continuous
 62
     7
370
    35
100
AcDbLine
 10
70.5162636521
 20
517.0179026609
 30
0.0
 11
70.5162636521
 21
292.4691793923
 31
0.0
  0
LINE
  5
B7
330
1F
100
AcDbEntity
  8
0
  6
Continuous
 62
     7
370
    35
100
AcDbLine
 10
-38.6459476036
 20
229.4511762103
 30
0.0
 11
70.5162636521
 21
292.4691793923
 31
0.0
  0
ARC
  5
B8
330
1F
100
AcDbEntity
  8
0
  6
Continuous
 62
     7
370
    35
100
AcDbCircle
 10
-40.0261096724
 20
231.1432240057
 30
0.0
 40
2.183545987142409
100
AcDbArc
 50
170.7859630095
 51
309.2032852357
  0
LINE
  5
B9
330
1F
100
AcDbEntity
  8
0
  6
Continuous
 62
     7
370
    35
100
AcDbLine
 10
-42.1814815095
 20
296.4087170855
 30
0.0
 11
-42.1814815095
 21
231.4928599902
 31
0.0
  0
LINE
  5
BA
330
1F
100
AcDbEntity
  8
0
  6
Continuous
 62
     7
370
    35
100
AcDbLine
 10
-32.6355399635
 20
406.8467576185
 30
0.0
 11
-31.5748797917
 21
407.4590637023
 31
0.0
  0
ARC
  5
BB
330
1F
100
AcDbEntity
  8
0
  6
Continuous
 62
     7
370
    35
100
AcDbCircle
 10
-35.7154263926
 20
400.986035102
 30
0.0
 40
7.6840240378603
100
AcDbArc
 50
2.6054784857
 51
57.39452166
  0
LINE
  5
BC
330
1F
100
AcDbEntity
  8
0
  6
Continuous
 62
     7
370
    35
100
AcDbLine
 10
-28.0393458858
 20
401.3353393633
 30
0.0
 11
-29.1000060576
 21
400.7230332795
 31
0.0
  0
ARC
  5
BD
330
1F
100
AcDbEntity
  8
0
  6
Continuous
 62
     7
370
    35
100
AcDbCircle
 10
-36.7760865644
 20
400.3737290182
 30
0.0
 40
7.684024037860532
100
AcDbArc
 50
2.6054784857
 51
57.39452166
  0
LINE
  5
BE
330
1F
100
AcDbEntity
  8
0
  6
Continuous
 62
     7
370
    35
100
AcDbLine
 10
-45.7170154155
 20
298.449737365
 30
0.0
 11
-45.7170154155
 21
414.3985326528
 31
0.0
  0
LINE
  5
BF
330
1F
100
AcDbEntity
  8
0
  6
Continuous
 62
     7
370
    35
100
AcDbLine
 10
-32.6355399635
 20
406.8467576185
 30
0.0
 11
-45.7170154155
 21
414.3985326528
 31
0.0
  0
LINE
  5
C0
330
1F
100
AcDbEntity
  8
0
  6
Continuous
 62
     7
370
    35
100
AcDbLine
 10
-29.1000060576
 20
358.6711814674
 30
0.0
 11
-29.1000060576
 21
400.7230332795
 31
0.0
  0
ARC
  5
C1
330
1F
100
AcDbEntity
  8
0
  6
Continuous
 62
     7
370
    35
100
AcDbCircle
 10
-29.9621547924
 20
358.5313270736
 30
0.0
 40
0.8734183948569717
100
AcDbArc
 50
230.7967147643
 51
9.2140369905
  0
LINE
  5
C2
330
1F
100
AcDbEntity
  8
0
  6
Continuous
 62
     7
370
    35
100
AcDbLine
 10
-34.4033069165
 20
360.0996302629
 30
0.0
 11
-30.5142196199
 21
357.8545079554
 31
0.0
  0
LWPOLYLINE
  5
C3
330
1F
100
AcDbEntity
  8
0
  6
Continuous
 62
     7
370
    35
100
AcDbPolyline
 90
       19
 70
   128
 43
0.0
 10
-34.4033069165
 20
339.6861099658
 10
-35.9381544661
 20
340.7272222172
 10
-37.4263664496
 20
342.046828042
 10
-38.8227242989
 20
343.6048318848
 10
-40.0848003874
 20
345.3538945873
 10
-41.1742471717
 20
347.2408717644
 10
-42.0579623627
 20
349.2084285694
 10
-42.7090947213
 20
351.1967817844
 10
-43.1078599205
 20
353.1455163031
 10
-43.2421416813
 20
354.9954208132
 10
-43.1078599205
 20
356.6902869024
 10
-42.7090947213
 20
358.1786169222
 10
-42.0579623627
 20
359.415188718
 10
-41.1742471717
 20
360.3624296815
 10
-40.0848003874
 20
360.9915583755
 10
-38.8227242989
 20
361.2834590428
 10
-37.4263664496
 20
361.2292624295
 10
-35.9381544661
 20
360.8306152721
 10
-34.4033069165
 20
360.0996302629
  0
LINE
  5
C4
330
1F
100
AcDbEntity
  8
0
  6
Continuous
 62
     7
370
    35
100
AcDbLine
 10
-30.5142196199
 20
337.4409876583
 30
0.0
 11
-34.4033069165
 21
339.6861099658
 31
0.0
  0
ARC
  5
C5
330
1F
100
AcDbEntity
  8
0
  6
Continuous
 62
     7
370
    35
100
AcDbCircle
 10
-32.1704382603
 20
334.8517762181
 30
0.0
 40
3.073609615144387
100
AcDbArc
 50
2.6054784857
 51
57.39452166
  0
LINE
  5
C6
330
1F
100
AcDbEntity
  8
0
  6
Continuous
 62
     7
370
    35
100
AcDbLine
 10
-29.1000060576
 20
292.9396461105
 30
0.0
 11
-29.1000060576
 21
334.9914979227
 31
0.0
  0
ARC
  5
C7
330
1F
100
AcDbEntity
  8
0
  6
Continuous
 62
     7
370
    35
100
AcDbCircle
 10
-31.2553778947
 20
292.590010126
 30
0.0
 40
2.183545987142399
100
AcDbArc
 50
230.7967147643
 51
9.2140369905
  0
LINE
  5
C8
330
1F
100
AcDbEntity
  8
0
  6
Continuous
 62
     7
370
    35
100
AcDbLine
 10
-45.7170154155
 20
298.449737365
 30
0.0
 11
-32.6355399635
 21
290.8979623307
 31
0.0
  0
LWPOLYLINE
  5
C9
330
1F
100
AcDbEntity
  8
0
  6
Continuous
 62
     7
370
    35
100
AcDbPolyline
 90
       10
 70
   128
 43
0.0
 10
-34.5800836118
 20
315.9043422321
 10
-33.7940881332
 20
315.2905555323
 10
-33.1028953093
 20
314.4307182305
 10
-32.5898731958
 20
313.4285393951
 10
-32.3168998307
 20
312.4048965844
 10
-32.3168998307
 20
311.4832562286
 10
-32.5898731958
 20
310.7747817565
 10
-33.1028953093
 20
310.3649256456
 10
-33.7940881332
 20
310.3031225915
 10
-34.5800836118
 20
310.5968269548
  0
LINE
  5
CA
330
1F
100
AcDbEntity
  8
0
  6
Continuous
 62
     7
370
    35
100
AcDbLine
 10
-40.5904912519
 20
319.3740767073
 30
0.0
 11
-34.5800836118
 21
315.9043422321
 31
0.0
  0
LWPOLYLINE
  5
CB
330
1F
100
AcDbEntity
  8
0
  6
Continuous
 62
     7
370
    35
100
AcDbPolyline
 90
       10
 70
   128
 43
0.0
 10
-40.5904912519
 20
314.0665614301
 10
-41.3764867305
 20
314.6803481299
 10
-42.0676795543
 20
315.5401854317
 10
-42.5807016679
 20
316.542364267
 10
-42.8536750329
 20
317.5660070778
 10
-42.8536750329
 20
318.4876474336
 10
-42.5807016679
 20
319.1961219057
 10
-42.0676795543
 20
319.6059780166
 10
-41.3764867305
 20
319.6677810706
 10
-40.5904912519
 20
319.3740767073
  0
LINE
  5
CC
330
1F
100
AcDbEntity
  8
0
  6
Continuous
 62
     7
370
    35
100
AcDbLine
 10
-34.5800836118
 20
310.5968269548
 30
0.0
 11
-40.5904912519
 21
314.0665614301
 31
0.0
  0
LWPOLYLINE
  5
CD
330
1F
100
AcDbEntity
  8
0
  6
Continuous
 62
     7
370
    35
100
AcDbPolyline
 90
       10
 70
   128
 43
0.0
 10
-34.5800836118
 20
389.3930153018
 10
-33.7940881332
 20
388.779228602
 10
-33.1028953093
 20
387.9193913002
 10
-32.5898731958
 20
386.9172124649
 10
-32.3168998307
 20
385.8935696541
 10
-32.3168998307
 20
384.9719292983
 10
-32.5898731958
 20
384.2634548262
 10
-33.1028953093
 20
383.8535987153
 10
-33.7940881332
 20
383.7917956613
 10
-34.5800836118
 20
384.0855000246
  0
LINE
  5
CE
330
1F
100
AcDbEntity
  8
0
  6
Continuous
 62
     7
370
    35
100
AcDbLine
 10
-40.5904912519
 20
392.8627497771
 30
0.0
 11
-34.5800836118
 21
389.3930153018
 31
0.0
  0
LWPOLYLINE
  5
CF
330
1F
100
AcDbEntity
  8
0
  6
Continuous
 62
     7
370
    35
100
AcDbPolyline
 90
       10
 70
   128
 43
0.0
 10
-40.5904912519
 20
387.5552344998
 10
-41.3764867305
 20
388.1690211996
 10
-42.0676795543
 20
389.0288585014
 10
-42.5807016679
 20
390.0310373367
 10
-42.8536750329
 20
391.0546801475
 10
-42.8536750329
 20
391.9763205033
 10
-42.5807016679
 20
392.6847949754
 10
-42.0676795543
 20
393.0946510863
 10
-41.3764867305
 20
393.1564541404
 10
-40.5904912519
 20
392.8627497771
  0
LINE
  5
D0
330
1F
100
AcDbEntity
  8
0
  6
Continuous
 62
     7
370
    35
100
AcDbLine
 10
-34.5800836118
 20
384.0855000246
 30
0.0
 11
-40.5904912519
 21
387.5552344998
 31
0.0
  0
LINE
  5
D1
330
1F
100
AcDbEntity
  8
0
  6
Continuous
 62
     7
370
    35
100
AcDbLine
 10
-29.1000060576
 20
358.6711814674
 30
0.0
 11
-28.0393458858
 21
359.2834875512
 31
0.0
  0
LINE
  5
D2
330
1F
100
AcDbEntity
  8
0
  6
Continuous
 62
     7
370
    35
100
AcDbLine
 10
-28.0393458858
 20
359.2834875512
 30
0.0
 11
-28.0393458858
 21
401.3353393633
 31
0.0
  0
LINE
  5
D3
330
1F
100
AcDbEntity
  8
0
  6
Continuous
 62
     7
370
    35
100
AcDbLine
 10
-44.6563552437
 20
415.0108387367
 30
0.0
 11
-45.7170154155
 21
414.3985326528
 31
0.0
  0
LINE
  5
D4
330
1F
100
AcDbEntity
  8
0
  6
Continuous
 62
     7
370
    35
100
AcDbLine
 10
-31.5748797917
 20
407.4590637023
 30
0.0
 11
-44.6563552437
 21
415.0108387367
 31
0.0
  0
ARC
  5
D5
330
1F
100
AcDbEntity
  8
0
  6
Continuous
 62
     7
370
    35
100
AcDbCircle
 10
-45.2522343351
 20
415.6231448205
 30
0.0
 40
1.309845950502813
100
AcDbArc
 50
110.7834207995
 51
249.2165792005
  0
ARC
  5
D6
330
1F
100
AcDbEntity
  8
0
  6
Continuous
 62
     7
370
    35
100
AcDbCircle
 10
-45.0943238844
 20
299.8240686635
 30
0.0
 40
1.508817835481214
100
AcDbArc
 50
185.6947992512
 51
245.6253417064
  0
LINE
  5
D7
330
1F
100
AcDbEntity
  8
0
  6
Continuous
 62
     7
370
    35
100
AcDbLine
 10
-44.6563552437
 20
416.2354509044
 30
0.0
 11
-45.7170154155
 21
416.8477569883
 31
0.0
  0
ARC
  5
D8
330
1F
100
AcDbEntity
  8
0
  6
Continuous
 62
     7
370
    35
100
AcDbCircle
 10
-44.4239647035
 20
415.6231448205
 30
0.0
 40
0.6549229752514484
100
AcDbArc
 50
110.7834207995
 51
249.2165792005
  0
LINE
  5
D9
330
1F
100
AcDbEntity
  8
0
  6
Continuous
 62
     7
370
    35
100
AcDbLine
 10
-34.5800836118
 20
384.0855000246
 30
0.0
 11
-33.51942344
 21
384.6978061084
 31
0.0
  0
LWPOLYLINE
  5
DA
330
1F
100
AcDbEntity
  8
0
  6
Continuous
 62
     7
370
    35
100
AcDbPolyline
 90
        3
 70
   128
 43
0.0
 10
-32.5138377628
 20
384.3848382887
 10
-32.7334279614
 20
384.4041017451
 10
-33.51942344
 20
384.6978061084
  0
LINE
  5
DB
330
1F
100
AcDbEntity
  8
0
  6
Continuous
 62
     7
370
    35
100
AcDbLine
 10
2.7197990958
 20
444.8097348182
 30
0.0
 11
3.7804592676
 21
444.1974287343
 31
0.0
  0
LINE
  5
DC
330
1F
100
AcDbEntity
  8
0
  6
Continuous
 62
     7
370
    35
100
AcDbLine
 10
-45.7170154155
 20
416.8477569883
 30
0.0
 11
2.7197990958
 21
444.8097348182
 31
0.0
  0
LINE
  5
DD
330
1F
100
AcDbEntity
  8
0
  6
Continuous
 62
     7
370
    35
100
AcDbLine
 10
-39.5298310801
 20
388.1675405837
 30
0.0
 11
-40.5904912519
 21
387.5552344998
 31
0.0
  0
LINE
  5
DE
330
1F
100
AcDbEntity
  8
0
  6
Continuous
 62
     7
370
    35
100
AcDbLine
 10
-33.51942344
 20
384.6978061084
 30
0.0
 11
-39.5298310801
 21
388.1675405837
 31
0.0
  0
ARC
  5
DF
330
1F
100
AcDbEntity
  8
0
  6
Continuous
 62
     7
370
    35
100
AcDbCircle
 10
-37.4837872284
 20
391.9420146123
 30
0.0
 40
4.293361111759933
100
AcDbArc
 50
163.3005502987
 51
241.5390346986
  0
ARC
  5
E0
330
1F
100
AcDbEntity
  8
0
  6
Continuous
 62
     7
370
    35
100
AcDbCircle
 10
-28.9907169976
 20
359.162359494
 30
0.0
 40
0.9590510928071148
100
AcDbArc
 50
304.0563508307
 51
7.2558295627
  0
LINE
  5
E1
330
1F
100
AcDbEntity
  8
0
  6
Continuous
 62
     7
370
    35
100
AcDbLine
 10
-34.4033069165
 20
339.6861099658
 30
0.0
 11
-33.3426467447
 21
340.2984160496
 31
0.0
  0
LWPOLYLINE
  5
E2
330
1F
100
AcDbEntity
  8
0
  6
Continuous
 62
     7
370
    35
100
AcDbPolyline
 90
       15
 70
   128
 43
0.0
 10
-33.3426467447
 20
340.2984160496
 10
-34.8774942943
 20
341.3395283011
 10
-36.3657062778
 20
342.6591341258
 10
-37.7620641271
 20
344.2171379687
 10
-39.0241402156
 20
345.9662006712
 10
-40.1135869999
 20
347.8531778483
 10
-40.9973021909
 20
349.8207346533
 10
-41.6484345495
 20
351.8090878682
 10
-42.0471997487
 20
353.7578223869
 10
-42.1814815095
 20
355.6077268971
 10
-42.0471997487
 20
357.3025929863
 10
-41.6484345495
 20
358.7909230061
 10
-40.9973021909
 20
360.0274948018
 10
-40.1135869999
 20
360.9747357654
 10
-40.0999337641
 20
360.9855976896
  0
LINE
  5
E3
330
1F
100
AcDbEntity
  8
0
  6
Continuous
 62
     7
370
    35
100
AcDbLine
 10
20.3974686255
 20
489.3095503152
 30
0.0
 11
21.4581287973
 21
488.6972442313
 31
0.0
  0
LINE
  5
E4
330
1F
100
AcDbEntity
  8
0
  6
Continuous
 62
     7
370
    35
100
AcDbLine
 10
17.9225948913
 20
482.5735198923
 30
0.0
 11
16.8619347196
 21
483.1858259762
 31
0.0
  0
ARC
  5
E5
330
1F
100
AcDbEntity
  8
0
  6
Continuous
 62
     7
370
    35
100
AcDbCircle
 10
24.5380152264
 20
482.8365217149
 30
0.0
 40
7.68402403786021
100
AcDbArc
 50
122.60547834
 51
177.3945215143
  0
LINE
  5
E6
330
1F
100
AcDbEntity
  8
0
  6
Continuous
 62
     7
370
    35
100
AcDbLine
 10
16.8619347196
 20
469.3046321742
 30
0.0
 11
17.9225948913
 21
468.6923260903
 31
0.0
  0
ARC
  5
E7
330
1F
100
AcDbEntity
  8
0
  6
Continuous
 62
     7
370
    35
100
AcDbCircle
 10
-13.7233637922
 20
470.6331309604
 30
0.0
 40
30.61413716039181
100
AcDbArc
 50
302.4871280433
 51
357.512871811
  0
LINE
  5
E8
330
1F
100
AcDbEntity
  8
0
  6
Continuous
 62
     7
370
    35
100
AcDbLine
 10
16.8619347196
 20
483.1858259762
 30
0.0
 11
16.8619347196
 21
469.3046321742
 31
0.0
  0
LINE
  5
E9
330
1F
100
AcDbEntity
  8
0
  6
Continuous
 62
     7
370
    35
100
AcDbLine
 10
70.5162636521
 20
517.0179026609
 30
0.0
 11
69.4556034803
 21
517.6302087447
 31
0.0
  0
LINE
  5
EA
330
1F
100
AcDbEntity
  8
0
  6
Continuous
 62
     7
370
    35
100
AcDbLine
 10
20.3974686255
 20
489.3095503152
 30
0.0
 11
69.4556034803
 21
517.6302087447
 31
0.0
  0
LINE
  5
EB
330
1F
100
AcDbEntity
  8
0
  6
Continuous
 62
     7
370
    35
100
AcDbLine
 10
-28.0393458858
 20
335.6038040065
 30
0.0
 11
-29.1000060576
 21
334.9914979227
 31
0.0
  0
LINE
  5
EC
330
1F
100
AcDbEntity
  8
0
  6
Continuous
 62
     7
370
    35
100
AcDbLine
 10
-30.5142196199
 20
337.4409876583
 30
0.0
 11
-29.4535594482
 21
338.0532937421
 31
0.0
  0
ARC
  5
ED
330
1F
100
AcDbEntity
  8
0
  6
Continuous
 62
     7
370
    35
100
AcDbCircle
 10
-31.1097780885
 20
335.464082302
 30
0.0
 40
3.07360961514415
100
AcDbArc
 50
2.6054784857
 51
57.39452166
  0
LINE
  5
EE
330
1F
100
AcDbEntity
  8
0
  6
Continuous
 62
     7
370
    35
100
AcDbLine
 10
-29.1000060576
 20
292.9396461105
 30
0.0
 11
-28.0393458858
 21
293.5519521944
 31
0.0
  0
LINE
  5
EF
330
1F
100
AcDbEntity
  8
0
  6
Continuous
 62
     7
370
    35
100
AcDbLine
 10
-28.0393458858
 20
293.5519521944
 30
0.0
 11
-28.0393458858
 21
335.6038040065
 31
0.0
  0
LINE
  5
F0
330
1F
100
AcDbEntity
  8
0
  6
Continuous
 62
     7
370
    35
100
AcDbLine
 10
-29.4535594482
 20
338.0532937421
 30
0.0
 11
-33.3426467447
 21
340.2984160496
 31
0.0
  0
LINE
  5
F1
330
1F
100
AcDbEntity
  8
0
  6
Continuous
 62
     7
370
    35
100
AcDbLine
 10
-34.5800836118
 20
310.5968269548
 30
0.0
 11
-33.51942344
 21
311.2091330387
 31
0.0
  0
LWPOLYLINE
  5
F2
330
1F
100
AcDbEntity
  8
0
  6
Continuous
 62
     7
370
    35
100
AcDbPolyline
 90
        3
 70
   128
 43
0.0
 10
-32.5138377629
 20
310.896165219
 10
-32.7334279614
 20
310.9154286754
 10
-33.51942344
 20
311.2091330387
  0
LINE
  5
F3
330
1F
100
AcDbEntity
  8
0
  6
Continuous
 62
     7
370
    35
100
AcDbLine
 10
-39.5298310801
 20
314.6788675139
 30
0.0
 11
-40.5904912519
 21
314.0665614301
 31
0.0
  0
LINE
  5
F4
330
1F
100
AcDbEntity
  8
0
  6
Continuous
 62
     7
370
    35
100
AcDbLine
 10
-33.51942344
 20
311.2091330387
 30
0.0
 11
-39.5298310801
 21
314.6788675139
 31
0.0
  0
ARC
  5
F5
330
1F
100
AcDbEntity
  8
0
  6
Continuous
 62
     7
370
    35
100
AcDbCircle
 10
-37.4837872284
 20
318.4533415426
 30
0.0
 40
4.293361111731834
100
AcDbArc
 50
163.3005502977
 51
241.5390346988
  0
ARC
  5
F6
330
1F
100
AcDbEntity
  8
0
  6
Continuous
 62
     7
370
    35
100
AcDbCircle
 10
-30.4177736654
 20
293.2491320515
 30
0.0
 40
2.397627732094554
100
AcDbArc
 50
304.0563508318
 51
7.2558295615
  0
ARC
  5
F7
330
1F
100
AcDbEntity
  8
0
  6
Continuous
 62
     7
370
    35
100
AcDbCircle
 10
69.8935721211
 20
518.3922339593
 30
0.0
 40
1.508817835481514
100
AcDbArc
 50
294.3746582936
 51
354.3052007488
  0
LINE
  5
F8
330
1F
100
AcDbEntity
  8
0
  6
Continuous
 62
     7
370
    35
100
AcDbLine
 10
71.3949433085
 20
518.2425148286
 30
0.0
 11
71.3949433085
 21
293.69379156
 31
0.0
  0
ARC
  5
F9
330
1F
100
AcDbEntity
  8
0
  6
Continuous
 62
     7
370
    35
100
AcDbCircle
 10
69.8935721211
 20
293.8435106907
 30
0.0
 40
1.508817835481392
100
AcDbArc
 50
294.3746582936
 51
354.3052007488
  0
ARC
  5
FA
330
1F
100
AcDbEntity
  8
0
  6
Continuous
 62
     7
370
    35
100
AcDbCircle
 10
69.1442577148
 20
518.3173743939
 30
0.0
 40
0.754408917740884
100
AcDbArc
 50
294.3746582936
 51
354.3052007488
  0
LINE
  5
FB
330
1F
100
AcDbEntity
  8
0
  6
Continuous
 62
     7
370
    35
100
AcDbLine
 10
69.8949433085
 20
518.2425148286
 30
0.0
 11
71.3949433085
 21
518.2425148286
 31
0.0
  0
LINE
  5
FC
330
1F
100
AcDbEntity
  8
0
  6
Continuous
 62
     7
370
    35
100
AcDbLine
 10
71.3949433085
 20
550.1814781023
 30
0.0
 11
69.8949433085
 21
550.1814781023
 31
0.0
  0
LINE
  5
FD
330
1F
100
AcDbEntity
  8
0
  6
Continuous
 62
     7
370
    35
100
AcDbLine
 10
71.3949433085
 20
518.2425148286
 30
0.0
 11
71.3949433085
 21
550.1814781023
 31
0.0
  0
LINE
  5
FE
330
1F
100
AcDbEntity
  8
0
  6
Continuous
 62
     7
370
    35
100
AcDbLine
 10
69.8949433085
 20
518.2425148286
 30
0.0
 11
69.8949433085
 21
550.1814781023
 31
0.0
  0
LINE
  5
FF
330
1F
100
AcDbEntity
  8
0
  6
Continuous
 62
     7
370
    35
100
AcDbLine
 10
-43.2421416813
 20
232.105166074
 30
0.0
 11
-42.1814815095
 21
231.4928599902
 31
0.0
  0
LINE
  5
100
330
1F
100
AcDbEntity
  8
0
  6
Continuous
 62
     7
370
    35
100
AcDbLine
 10
-43.2421416813
 20
297.0210231693
 30
0.0
 11
-43.2421416813
 21
232.105166074
 31
0.0
  0
ARC
  5
101
330
1F
100
AcDbEntity
  8
0
  6
Continuous
 62
     7
370
    35
100
AcDbCircle
 10
69.8935721211
 20
550.0317589716
 30
0.0
 40
1.508817835481311
100
AcDbArc
 50
5.6947992512
 51
65.6253417064
  0
ARC
  5
102
330
1F
100
AcDbEntity
  8
0
  6
Continuous
 62
     7
370
    35
100
AcDbCircle
 10
69.1442577148
 20
550.1066185369
 30
0.0
 40
0.7544089177410034
100
AcDbArc
 50
5.6947992512
 51
65.6253417064
  0
LINE
  5
103
330
1F
100
AcDbEntity
  8
0
  6
Continuous
 62
     7
370
    35
100
AcDbLine
 10
69.4556034803
 20
550.7937841862
 30
0.0
 11
70.5162636521
 21
551.40609027
 31
0.0
  0
LINE
  5
104
330
1F
100
AcDbEntity
  8
0
  6
Continuous
 62
     7
370
    35
100
AcDbLine
 10
69.4556034803
 20
550.7937841862
 30
0.0
 11
69.4556034803
 21
517.6302087447
 31
0.0
  0
LINE
  5
105
330
1F
100
AcDbEntity
  8
0
  6
Continuous
 62
     7
370
    35
100
AcDbLine
 10
-195.5378665894
 20
703.7712582403
 30
0.0
 11
-195.5378665894
 21
479.2225349717
 31
0.0
  0
LINE
  5
106
330
1F
100
AcDbEntity
  8
0
  6
Continuous
 62
     7
370
    35
100
AcDbLine
 10
69.4556034803
 20
550.7937841862
 30
0.0
 11
-195.5378665894
 21
703.7712582403
 31
0.0
  0
LINE
  5
107
330
1F
100
AcDbEntity
  8
0
  6
Continuous
 62
     7
370
    35
100
AcDbLine
 10
-46.5956950719
 20
393.2400495433
 30
0.0
 11
-195.5378665894
 21
479.2225349717
 31
0.0
  0
LINE
  5
108
330
1F
100
AcDbEntity
  8
0
  6
Continuous
 62
     7
370
    35
100
AcDbLine
 10
-194.4772064176
 20
704.3835643242
 30
0.0
 11
-195.5378665894
 21
703.7712582403
 31
0.0
  0
LINE
  5
109
330
1F
100
AcDbEntity
  8
0
  6
Continuous
 62
     7
370
    35
100
AcDbLine
 10
70.5162636521
 20
551.40609027
 30
0.0
 11
-194.4772064176
 21
704.3835643242
 31
0.0
  0
ARC
  5
10A
330
1F
100
AcDbEntity
  8
0
  6
Continuous
 62
     7
370
    35
100
AcDbCircle
 10
-40.7921321693
 20
231.8347323874
 30
0.0
 40
2.464889650244716
100
AcDbArc
 50
173.7011524848
 51
234.9866671218
  0
LINE
  5
10B
330
1F
100
AcDbEntity
  8
0
  6
Continuous
 62
     7
370
    35
100
AcDbLine
 10
-351.5406982786
 20
626.4654496011
 30
0.0
 11
-352.6013584504
 21
627.077755685
 31
0.0
  0
ARC
  5
10C
330
1F
100
AcDbEntity
  8
0
  6
Continuous
 62
     7
370
    35
100
AcDbCircle
 10
-344.9252779436
 20
626.7284514237
 30
0.0
 40
7.684024037860519
100
AcDbArc
 50
122.60547834
 51
177.3945215143
  0
LINE
  5
10D
330
1F
100
AcDbEntity
  8
0
  6
Continuous
 62
     7
370
    35
100
AcDbLine
 10
-349.0658245445
 20
633.2014800239
 30
0.0
 11
-348.0051643727
 21
632.5891739401
 31
0.0
  0
ARC
  5
10E
330
1F
100
AcDbEntity
  8
0
  6
Continuous
 62
     7
370
    35
100
AcDbCircle
 10
-343.8646177718
 20
626.1161453398
 30
0.0
 40
7.684024037860746
100
AcDbArc
 50
122.60547834
 51
177.3945215143
  0
LINE
  5
10F
330
1F
100
AcDbEntity
  8
0
  6
Continuous
 62
     7
370
    35
100
AcDbLine
 10
-300.8057867285
 20
639.9540259027
 30
0.0
 11
-294.7953790884
 21
643.423760378
 31
0.0
  0
LWPOLYLINE
  5
110
330
1F
100
AcDbEntity
  8
0
  6
Continuous
 62
     7
370
    35
100
AcDbPolyline
 90
       10
 70
   128
 43
0.0
 10
-294.7953790884
 20
643.423760378
 10
-294.0093836098
 20
644.0375470778
 10
-293.318190786
 20
644.8973843796
 10
-292.8051686724
 20
645.8995632149
 10
-292.5321953074
 20
646.9232060257
 10
-292.5321953074
 20
647.8448463815
 10
-292.8051686724
 20
648.5533208536
 10
-293.318190786
 20
648.9631769645
 10
-294.0093836098
 20
649.0249800185
 10
-294.7953790884
 20
648.7312756552
  0
LINE
  5
111
330
1F
100
AcDbEntity
  8
0
  6
Continuous
 62
     7
370
    35
100
AcDbLine
 10
-300.8057867285
 20
645.26154118
 30
0.0
 11
-294.7953790884
 21
648.7312756552
 31
0.0
  0
LWPOLYLINE
  5
112
330
1F
100
AcDbEntity
  8
0
  6
Continuous
 62
     7
370
    35
100
AcDbPolyline
 90
       10
 70
   128
 43
0.0
 10
-300.8057867285
 20
645.26154118
 10
-301.5917822071
 20
644.6477544802
 10
-302.2829750309
 20
643.7879171784
 10
-302.7959971445
 20
642.7857383431
 10
-303.0689705095
 20
641.7620955323
 10
-303.0689705095
 20
640.8404551765
 10
-302.7959971445
 20
640.1319807044
 10
-302.2829750309
 20
639.7221245935
 10
-301.5917822071
 20
639.6603215394
 10
-300.8057867285
 20
639.9540259027
  0
LWPOLYLINE
  5
113
330
1F
100
AcDbEntity
  8
0
  6
Continuous
 62
     7
370
    35
100
AcDbPolyline
 90
       10
 70
   128
 43
0.0
 10
-337.2217859596
 20
618.9315170233
 10
-336.435790481
 20
619.5453037231
 10
-335.7445976572
 20
620.4051410249
 10
-335.2315755436
 20
621.4073198603
 10
-334.9586021786
 20
622.430962671
 10
-334.9586021786
 20
623.3526030268
 10
-335.2315755436
 20
624.0610774989
 10
-335.7445976572
 20
624.4709336098
 10
-336.435790481
 20
624.5327366639
 10
-337.2217859596
 20
624.2390323006
  0
LINE
  5
114
330
1F
100
AcDbEntity
  8
0
  6
Continuous
 62
     7
370
    35
100
AcDbLine
 10
-343.2321935997
 20
620.7692978253
 30
0.0
 11
-337.2217859596
 21
624.2390323006
 31
0.0
  0
LWPOLYLINE
  5
115
330
1F
100
AcDbEntity
  8
0
  6
Continuous
 62
     7
370
    35
100
AcDbPolyline
 90
       10
 70
   128
 43
0.0
 10
-343.2321935997
 20
620.7692978253
 10
-344.0181890783
 20
620.1555111255
 10
-344.7093819021
 20
619.2956738237
 10
-345.2224040157
 20
618.2934949884
 10
-345.4953773807
 20
617.2698521776
 10
-345.4953773807
 20
616.3482118218
 10
-345.2224040157
 20
615.6397373498
 10
-344.7093819021
 20
615.2298812388
 10
-344.0181890783
 20
615.1680781848
 10
-343.2321935997
 20
615.4617825481
  0
LINE
  5
116
330
1F
100
AcDbEntity
  8
0
  6
Continuous
 62
     7
370
    35
100
AcDbLine
 10
-343.2321935997
 20
615.4617825481
 30
0.0
 11
-337.2217859596
 21
618.9315170233
 31
0.0
  0
ARC
  5
117
330
1F
100
AcDbEntity
  8
0
  6
Continuous
 62
     7
370
    35
100
AcDbCircle
 10
-343.8646177718
 20
483.2215032598
 30
0.0
 40
7.684024037860339
100
AcDbArc
 50
122.60547834
 51
177.3945215143
  0
LINE
  5
118
330
1F
100
AcDbEntity
  8
0
  6
Continuous
 62
     7
370
    35
100
AcDbLine
 10
-348.0051643727
 20
489.6945318601
 30
0.0
 11
-280.83002016
 21
528.4739171717
 31
0.0
  0
LWPOLYLINE
  5
119
330
1F
100
AcDbEntity
  8
0
  6
Continuous
 62
     7
370
    35
100
AcDbPolyline
 90
       27
 70
   128
 43
0.0
 10
-280.83002016
 20
528.4739171717
 10
-278.6992125602
 20
529.8528437624
 10
-276.5994769334
 20
531.5093375916
 10
-274.5614321532
 20
533.419243249
 10
-272.6147975018
 20
535.5547100095
 10
-270.7879592958
 20
537.8845979591
 10
-269.10755695
 20
540.3749320849
 10
-267.5980945144
 20
542.9893977077
 10
-266.2815833505
 20
545.6898700315
 10
-265.1772211554
 20
548.4369700888
 10
-264.3011120169
 20
551.1906389749
 10
-263.666031579
 20
553.9107219966
 10
-263.2812407445
 20
556.5575542185
 10
-263.1523506303
 20
559.0925388666
 10
-263.2812407445
 20
561.4787101564
 10
-263.666031579
 20
563.6812723373
 10
-264.3011120169
 20
565.6681070931
 10
-265.1772211554
 20
567.4102418989
 10
-266.2815833505
 20
568.8822725065
 10
-267.5980945144
 20
570.0627333947
 10
-269.10755695
 20
570.9344107857
 10
-270.7879592958
 20
571.4845936603
 10
-272.6147975018
 20
571.7052591133
 10
-274.5614321532
 20
571.5931893454
 10
-276.5994769334
 20
571.1500185863
 10
-278.6992125602
 20
570.3822092635
 10
-280.83002016
 20
569.3009577659
  0
LINE
  5
11A
330
1F
100
AcDbEntity
  8
0
  6
Continuous
 62
     7
370
    35
100
AcDbLine
 10
-280.83002016
 20
569.3009577659
 30
0.0
 11
-348.0051643727
 21
530.5215724544
 31
0.0
  0
ARC
  5
11B
330
1F
100
AcDbEntity
  8
0
  6
Continuous
 62
     7
370
    35
100
AcDbCircle
 10
-349.3853264415
 20
532.2136202497
 30
0.0
 40
2.183545987142283
100
AcDbArc
 50
170.7859630095
 51
309.2032852357
  0
LINE
  5
11C
330
1F
100
AcDbEntity
  8
0
  6
Continuous
 62
     7
370
    35
100
AcDbLine
 10
-351.5406982786
 20
626.4654496011
 30
0.0
 11
-351.5406982786
 21
532.5632562342
 31
0.0
  0
LINE
  5
11D
330
1F
100
AcDbEntity
  8
0
  6
Continuous
 62
     7
370
    35
100
AcDbLine
 10
-224.7008174933
 20
703.7712582403
 30
0.0
 11
-348.0051643727
 21
632.5891739401
 31
0.0
  0
LINE
  5
11E
330
1F
100
AcDbEntity
  8
0
  6
Continuous
 62
     7
370
    35
100
AcDbLine
 10
-224.7008174933
 20
703.7712582403
 30
0.0
 11
-224.7008174933
 21
479.2225349717
 31
0.0
  0
LINE
  5
11F
330
1F
100
AcDbEntity
  8
0
  6
Continuous
 62
     7
370
    35
100
AcDbLine
 10
-224.7008174933
 20
479.2225349717
 30
0.0
 11
-348.0051643727
 21
408.0404506715
 31
0.0
  0
ARC
  5
120
330
1F
100
AcDbEntity
  8
0
  6
Continuous
 62
     7
370
    35
100
AcDbCircle
 10
-349.3853264415
 20
409.7324984669
 30
0.0
 40
2.183545987142426
100
AcDbArc
 50
170.7859630095
 51
309.2032852357
  0
LINE
  5
121
330
1F
100
AcDbEntity
  8
0
  6
Continuous
 62
     7
370
    35
100
AcDbLine
 10
-351.5406982786
 20
483.5708075211
 30
0.0
 11
-351.5406982786
 21
410.0821344514
 31
0.0
  0
LINE
  5
122
330
1F
100
AcDbEntity
  8
0
  6
Continuous
 62
     7
370
    35
100
AcDbLine
 10
-352.6013584504
 20
533.1755623181
 30
0.0
 11
-351.5406982786
 21
532.5632562342
 31
0.0
  0
LINE
  5
123
330
1F
100
AcDbEntity
  8
0
  6
Continuous
 62
     7
370
    35
100
AcDbLine
 10
-352.6013584504
 20
627.077755685
 30
0.0
 11
-352.6013584504
 21
533.1755623181
 31
0.0
  0
LINE
  5
124
330
1F
100
AcDbEntity
  8
0
  6
Continuous
 62
     7
370
    35
100
AcDbLine
 10
-224.7008174933
 20
703.7712582403
 30
0.0
 11
-225.7614776651
 21
704.3835643242
 31
0.0
  0
LINE
  5
125
330
1F
100
AcDbEntity
  8
0
  6
Continuous
 62
     7
370
    35
100
AcDbLine
 10
-225.7614776651
 20
704.3835643242
 30
0.0
 11
-349.0658245445
 21
633.2014800239
 31
0.0
  0
LINE
  5
126
330
1F
100
AcDbEntity
  8
0
  6
Continuous
 62
     7
370
    35
100
AcDbLine
 10
-344.2928537715
 20
616.0740886319
 30
0.0
 11
-343.2321935997
 21
615.4617825481
 31
0.0
  0
LWPOLYLINE
  5
127
330
1F
100
AcDbEntity
  8
0
  6
Continuous
 62
     7
370
    35
100
AcDbPolyline
 90
        3
 70
   128
 43
0.0
 10
-344.2928537715
 20
616.0740886319
 10
-345.0788492501
 20
615.7803842686
 10
-345.2984394487
 20
615.7611208122
  0
LINE
  5
128
330
1F
100
AcDbEntity
  8
0
  6
Continuous
 62
     7
370
    35
100
AcDbLine
 10
-337.2217859596
 20
618.9315170233
 30
0.0
 11
-338.2824461314
 21
619.5438231072
 31
0.0
  0
LINE
  5
129
330
1F
100
AcDbEntity
  8
0
  6
Continuous
 62
     7
370
    35
100
AcDbLine
 10
-338.2824461314
 20
619.5438231072
 30
0.0
 11
-344.2928537715
 21
616.0740886319
 31
0.0
  0
ARC
  5
12A
330
1F
100
AcDbEntity
  8
0
  6
Continuous
 62
     7
370
    35
100
AcDbCircle
 10
-340.3284901068
 20
623.3182972285
 30
0.0
 40
4.293361252215353
100
AcDbArc
 50
298.4609661636
 51
16.6994451007
  0
LINE
  5
12B
330
1F
100
AcDbEntity
  8
0
  6
Continuous
 62
     7
370
    35
100
AcDbLine
 10
-301.8664469003
 20
640.5663319866
 30
0.0
 11
-300.8057867285
 21
639.9540259027
 31
0.0
  0
LWPOLYLINE
  5
12C
330
1F
100
AcDbEntity
  8
0
  6
Continuous
 62
     7
370
    35
100
AcDbPolyline
 90
        3
 70
   128
 43
0.0
 10
-301.8664469003
 20
640.5663319866
 10
-302.6524423789
 20
640.2726276233
 10
-302.872032642
 20
640.2533641659
  0
LINE
  5
12D
330
1F
100
AcDbEntity
  8
0
  6
Continuous
 62
     7
370
    35
100
AcDbLine
 10
-294.7953790884
 20
643.423760378
 30
0.0
 11
-295.8560392602
 21
644.0360664619
 31
0.0
  0
LINE
  5
12E
330
1F
100
AcDbEntity
  8
0
  6
Continuous
 62
     7
370
    35
100
AcDbLine
 10
-295.8560392602
 20
644.0360664619
 30
0.0
 11
-301.8664469003
 21
640.5663319866
 31
0.0
  0
ARC
  5
12F
330
1F
100
AcDbEntity
  8
0
  6
Continuous
 62
     7
370
    35
100
AcDbCircle
 10
-297.9020831499
 20
647.810540519
 30
0.0
 40
4.293361154908828
100
AcDbArc
 50
298.4609655663
 51
16.699448288
  0
ARC
  5
130
330
1F
100
AcDbEntity
  8
0
  6
Continuous
 62
     7
370
    35
100
AcDbCircle
 10
-350.1513489387
 20
532.9051286313
 30
0.0
 40
2.464889649988828
100
AcDbArc
 50
173.7011524813
 51
234.9866671254
  0
LINE
  5
131
330
1F
100
AcDbEntity
  8
0
  6
Continuous
 62
     7
370
    35
100
AcDbLine
 10
-223.6401573215
 20
704.8908152927
 30
0.0
 11
-223.6401573215
 21
704.0248837246
 31
0.0
  0
LINE
  5
132
330
1F
100
AcDbEntity
  8
0
  6
Continuous
 62
     7
370
    35
100
AcDbLine
 10
-196.5985267612
 20
704.8908152927
 30
0.0
 11
-223.6401573215
 21
704.8908152927
 31
0.0
  0
LINE
  5
133
330
1F
100
AcDbEntity
  8
0
  6
Continuous
 62
     7
370
    35
100
AcDbLine
 10
-196.5985267612
 20
704.0248837246
 30
0.0
 11
-196.5985267612
 21
704.8908152927
 31
0.0
  0
LINE
  5
134
330
1F
100
AcDbEntity
  8
0
  6
Continuous
 62
     7
370
    35
100
AcDbLine
 10
-196.5985267612
 20
704.0248837246
 30
0.0
 11
-223.6401573215
 21
704.0248837246
 31
0.0
  0
LINE
  5
135
330
1F
100
AcDbEntity
  8
0
  6
Continuous
 62
     7
370
    35
100
AcDbLine
 10
-223.6401573215
 20
704.0248837246
 30
0.0
 11
-223.6401573215
 21
479.476160456
 31
0.0
  0
LINE
  5
136
330
1F
100
AcDbEntity
  8
0
  6
Continuous
 62
     7
370
    35
100
AcDbLine
 10
-196.5985267612
 20
704.0248837246
 30
0.0
 11
-196.5985267612
 21
479.476160456
 31
0.0
  0
LINE
  5
137
330
1F
100
AcDbEntity
  8
0
  6
Continuous
 62
     7
370
    35
100
AcDbLine
 10
-196.5985267612
 20
479.476160456
 30
0.0
 11
-223.6401573215
 21
479.476160456
 31
0.0
  0
LINE
  5
138
330
1F
100
AcDbEntity
  8
0
  6
Continuous
 62
     7
370
    35
100
AcDbLine
 10
-349.0658245445
 20
490.3068379439
 30
0.0
 11
-348.0051643727
 21
489.6945318601
 31
0.0
  0
LINE
  5
139
330
1F
100
AcDbEntity
  8
0
  6
Continuous
 62
     7
370
    35
100
AcDbLine
 10
-351.5406982786
 20
483.5708075211
 30
0.0
 11
-352.6013584504
 21
484.183113605
 31
0.0
  0
ARC
  5
13A
330
1F
100
AcDbEntity
  8
0
  6
Continuous
 62
     7
370
    35
100
AcDbCircle
 10
-344.9252779436
 20
483.8338093437
 30
0.0
 40
7.684024037860665
100
AcDbArc
 50
122.60547834
 51
177.3945215143
  0
ARC
  5
13B
330
1F
100
AcDbEntity
  8
0
  6
Continuous
 62
     7
370
    35
100
AcDbCircle
 10
-196.5553112539
 20
701.8609608939
 30
0.0
 40
2.164354314154206
100
AcDbArc
 50
61.9597608846
 51
91.1440967458
  0
ARC
  5
13C
330
1F
100
AcDbEntity
  8
0
  6
Continuous
 62
     7
370
    35
100
AcDbCircle
 10
-196.5553112539
 20
477.3122376253
 30
0.0
 40
2.164354314153022
100
AcDbArc
 50
61.9597608846
 51
91.1440967458
  0
ARC
  5
13D
330
1F
100
AcDbEntity
  8
0
  6
Continuous
 62
     7
370
    35
100
AcDbCircle
 10
-196.5120957467
 20
700.5629696313
 30
0.0
 40
4.328708628306385
100
AcDbArc
 50
61.9597608846
 51
91.1440967458
  0
ARC
  5
13E
330
1F
100
AcDbEntity
  8
0
  6
Continuous
 62
     7
370
    35
100
AcDbCircle
 10
-223.6833728287
 20
701.8609608939
 30
0.0
 40
2.164354314151731
100
AcDbArc
 50
88.8559032542
 51
118.0402391154
  0
ARC
  5
13F
330
1F
100
AcDbEntity
  8
0
  6
Continuous
 62
     7
370
    35
100
AcDbCircle
 10
-223.6833728287
 20
477.3122376253
 30
0.0
 40
2.16435431415404
100
AcDbArc
 50
88.8559032542
 51
118.0402391154
  0
ARC
  5
140
330
1F
100
AcDbEntity
  8
0
  6
Continuous
 62
     7
370
    35
100
AcDbCircle
 10
-223.7265883359
 20
700.5629696313
 30
0.0
 40
4.328708628304492
100
AcDbArc
 50
88.8559032542
 51
118.0402391154
  0
LINE
  5
141
330
1F
100
AcDbEntity
  8
0
  6
Continuous
 62
     7
370
    35
100
AcDbLine
 10
-352.6013584504
 20
410.6944405352
 30
0.0
 11
-351.5406982786
 21
410.0821344514
 31
0.0
  0
LINE
  5
142
330
1F
100
AcDbEntity
  8
0
  6
Continuous
 62
     7
370
    35
100
AcDbLine
 10
-352.6013584504
 20
484.183113605
 30
0.0
 11
-352.6013584504
 21
410.6944405352
 31
0.0
  0
LINE
  5
143
330
1F
100
AcDbEntity
  8
0
  6
Continuous
 62
     7
370
    35
100
AcDbLine
 10
-280.83002016
 20
528.4739171717
 30
0.0
 11
-281.8906803318
 21
529.0862232555
 31
0.0
  0
LINE
  5
144
330
1F
100
AcDbEntity
  8
0
  6
Continuous
 62
     7
370
    35
100
AcDbLine
 10
-281.8906803318
 20
529.0862232555
 30
0.0
 11
-349.0658245445
 21
490.3068379439
 31
0.0
  0
LWPOLYLINE
  5
145
330
1F
100
AcDbEntity
  8
0
  6
Continuous
 62
     7
370
    35
100
AcDbPolyline
 90
       21
 70
   128
 43
0.0
 10
-268.8726184403
 20
570.8253203837
 10
-268.6587546862
 20
570.6750394786
 10
-267.3422435222
 20
569.4945785903
 10
-266.2378813272
 20
568.0225479828
 10
-265.3617721887
 20
566.280413177
 10
-264.7266917508
 20
564.2935784212
 10
-264.3419009163
 20
562.0910162403
 10
-264.2130108021
 20
559.7048449504
 10
-264.3419009163
 20
557.1698603024
 10
-264.7266917508
 20
554.5230280805
 10
-265.3617721887
 20
551.8029450587
 10
-266.2378813272
 20
549.0492761727
 10
-267.3422435222
 20
546.3021761154
 10
-268.6587546862
 20
543.6017037916
 10
-270.1682171217
 20
540.9872381688
 10
-271.8486194676
 20
538.4969040429
 10
-273.6754576736
 20
536.1670160934
 10
-275.622092325
 20
534.0315493329
 10
-277.6601371052
 20
532.1216436754
 10
-279.759872732
 20
530.4651498463
 10
-281.8906803318
 20
529.0862232555
  0
ARC
  5
146
330
1F
100
AcDbEntity
  8
0
  6
Continuous
 62
     7
370
    35
100
AcDbCircle
 10
-350.1513489385
 20
410.4240068485
 30
0.0
 40
2.464889650117234
100
AcDbArc
 50
173.701152483
 51
234.9866671236
  0
INSERT
  5
14C
330
1F
100
AcDbEntity
  8
0
  6
Continuous
 62
     7
370
     0
100
AcDbBlockReference
  2
SW_NOTE_0
 10
53.6429257127
 20
-126.5691921058
 30
0.0
  0
LINE
  5
14D
330
1F
100
AcDbEntity
  8
0
  6
Continuous
 62
     7
370
    35
100
AcDbLine
 10
1003.6410942604
 20
241.8336148509
 30
0.0
 11
1005.1410942604
 21
241.8336148509
 31
0.0
  0
LINE
  5
14E
330
1F
100
AcDbEntity
  8
0
  6
Continuous
 62
     7
370
    35
100
AcDbLine
 10
1005.1410942604
 20
241.8336148509
 30
0.0
 11
1005.1410942604
 21
236.8336148509
 31
0.0
  0
LINE
  5
14F
330
1F
100
AcDbEntity
  8
0
  6
Continuous
 62
     7
370
    35
100
AcDbLine
 10
1005.1410942604
 20
236.8336148509
 30
0.0
 11
1003.6410942604
 21
236.8336148509
 31
0.0
  0
LINE
  5
150
330
1F
100
AcDbEntity
  8
0
  6
Continuous
 62
     7
370
    35
100
AcDbLine
 10
1003.6410942604
 20
236.8336148509
 30
0.0
 11
1003.6410942604
 21
241.8336148509
 31
0.0
  0
LINE
  5
151
330
1F
100
AcDbEntity
  8
0
  6
Continuous
 62
     7
370
    35
100
AcDbLine
 10
1005.1410942604
 20
311.2122945074
 30
0.0
 11
1003.6410942604
 21
311.2122945074
 31
0.0
  0
LINE
  5
152
330
1F
100
AcDbEntity
  8
0
  6
Continuous
 62
     7
370
    35
100
AcDbLine
 10
1005.1410942604
 20
241.8336148509
 30
0.0
 11
1005.1410942604
 21
311.2122945074
 31
0.0
  0
LINE
  5
153
330
1F
100
AcDbEntity
  8
0
  6
Continuous
 62
     7
370
    35
100
AcDbLine
 10
1003.6410942604
 20
241.8336148509
 30
0.0
 11
1003.6410942604
 21
311.2122945074
 31
0.0
  0
ARC
  5
154
330
1F
100
AcDbEntity
  8
0
  6
Continuous
 62
     7
370
    35
100
AcDbCircle
 10
1002.1410942604
 20
311.2122945074
 30
0.0
 40
3.000000000000114
100
AcDbArc
 50
0.0
 51
45.0
  0
ARC
  5
155
330
1F
100
AcDbEntity
  8
0
  6
Continuous
 62
     7
370
    35
100
AcDbCircle
 10
1002.1410942604
 20
311.2122945074
 30
0.0
 40
1.500000000000012
100
AcDbArc
 50
0.0
 51
45.0
  0
LINE
  5
156
330
1F
100
AcDbEntity
  8
0
  6
Continuous
 62
     7
370
    35
100
AcDbLine
 10
1003.2017544322
 20
312.2729546791
 30
0.0
 11
1004.262414604
 21
313.3336148509
 31
0.0
  0
LINE
  5
157
330
1F
100
AcDbEntity
  8
0
  6
Continuous
 62
     7
370
    35
100
AcDbLine
 10
965.1410942604
 20
352.4549351945
 30
0.0
 11
964.0804340887
 21
351.3942750227
 31
0.0
  0
LINE
  5
158
330
1F
100
AcDbEntity
  8
0
  6
Continuous
 62
     7
370
    35
100
AcDbLine
 10
1004.262414604
 20
313.3336148509
 30
0.0
 11
965.1410942604
 21
352.4549351945
 31
0.0
  0
LINE
  5
159
330
1F
100
AcDbEntity
  8
0
  6
Continuous
 62
     7
370
    35
100
AcDbLine
 10
1003.2017544322
 20
312.2729546791
 30
0.0
 11
964.0804340887
 21
351.3942750227
 31
0.0
  0
ARC
  5
15A
330
1F
100
AcDbEntity
  8
0
  6
Continuous
 62
     7
370
    35
100
AcDbCircle
 10
963.0197739169
 20
350.3336148509
 30
0.0
 40
3.000000000000057
100
AcDbArc
 50
45.0
 51
90.0
  0
ARC
  5
15B
330
1F
100
AcDbEntity
  8
0
  6
Continuous
 62
     7
370
    35
100
AcDbCircle
 10
963.0197739169
 20
350.3336148509
 30
0.0
 40
1.5
100
AcDbArc
 50
45.0
 51
90.0
  0
LINE
  5
15C
330
1F
100
AcDbEntity
  8
0
  6
Continuous
 62
     7
370
    35
100
AcDbLine
 10
963.0197739169
 20
351.8336148509
 30
0.0
 11
963.0197739169
 21
353.3336148509
 31
0.0
  0
LINE
  5
15D
330
1F
100
AcDbEntity
  8
0
  6
Continuous
 62
     7
370
    35
100
AcDbLine
 10
588.262414604
 20
353.3336148509
 30
0.0
 11
588.262414604
 21
351.8336148509
 31
0.0
  0
LINE
  5
15E
330
1F
100
AcDbEntity
  8
0
  6
Continuous
 62
     7
370
    35
100
AcDbLine
 10
963.0197739169
 20
353.3336148509
 30
0.0
 11
588.262414604
 21
353.3336148509
 31
0.0
  0
LINE
  5
15F
330
1F
100
AcDbEntity
  8
0
  6
Continuous
 62
     7
370
    35
100
AcDbLine
 10
963.0197739169
 20
351.8336148509
 30
0.0
 11
588.262414604
 21
351.8336148509
 31
0.0
  0
LINE
  5
160
330
1F
100
AcDbEntity
  8
0
  6
Continuous
 62
     7
370
    35
100
AcDbLine
 10
587.2017544322
 20
351.3942750227
 30
0.0
 11
586.1410942604
 21
352.4549351945
 31
0.0
  0
ARC
  5
161
330
1F
100
AcDbEntity
  8
0
  6
Continuous
 62
     7
370
    35
100
AcDbCircle
 10
588.262414604
 20
350.3336148509
 30
0.0
 40
3.0
100
AcDbArc
 50
90.0
 51
135.0
  0
ARC
  5
162
330
1F
100
AcDbEntity
  8
0
  6
Continuous
 62
     7
370
    35
100
AcDbCircle
 10
588.262414604
 20
350.3336148509
 30
0.0
 40
1.500000000000012
100
AcDbArc
 50
90.0
 51
135.0
  0
LINE
  5
163
330
1F
100
AcDbEntity
  8
0
  6
Continuous
 62
     7
370
    35
100
AcDbLine
 10
567.0197739169
 20
333.3336148509
 30
0.0
 11
568.0804340887
 21
332.2729546791
 31
0.0
  0
LINE
  5
164
330
1F
100
AcDbEntity
  8
0
  6
Continuous
 62
     7
370
    35
100
AcDbLine
 10
586.1410942604
 20
352.4549351945
 30
0.0
 11
567.0197739169
 21
333.3336148509
 31
0.0
  0
LINE
  5
165
330
1F
100
AcDbEntity
  8
0
  6
Continuous
 62
     7
370
    35
100
AcDbLine
 10
587.2017544322
 20
351.3942750227
 30
0.0
 11
568.0804340887
 21
332.2729546791
 31
0.0
  0
ARC
  5
166
330
1F
100
AcDbEntity
  8
0
  6
Continuous
 62
     7
370
    35
100
AcDbCircle
 10
569.1410942604
 20
331.2122945074
 30
0.0
 40
1.500000000000052
100
AcDbArc
 50
135.0
 51
180.0
  0
LINE
  5
167
330
1F
100
AcDbEntity
  8
0
  6
Continuous
 62
     7
370
    35
100
AcDbLine
 10
567.6410942604
 20
331.2122945074
 30
0.0
 11
566.1410942604
 21
331.2122945074
 31
0.0
  0
ARC
  5
168
330
1F
100
AcDbEntity
  8
0
  6
Continuous
 62
     7
370
    35
100
AcDbCircle
 10
569.1410942604
 20
331.2122945074
 30
0.0
 40
3.0
100
AcDbArc
 50
135.0
 51
180.0
  0
LINE
  5
169
330
1F
100
AcDbEntity
  8
0
  6
Continuous
 62
     7
370
    35
100
AcDbLine
 10
566.1410942604
 20
156.8336148509
 30
0.0
 11
567.6410942604
 21
156.8336148509
 31
0.0
  0
LINE
  5
16A
330
1F
100
AcDbEntity
  8
0
  6
Continuous
 62
     7
370
    35
100
AcDbLine
 10
567.6410942604
 20
331.2122945074
 30
0.0
 11
567.6410942604
 21
156.8336148509
 31
0.0
  0
LINE
  5
16B
330
1F
100
AcDbEntity
  8
0
  6
Continuous
 62
     7
370
    35
100
AcDbLine
 10
566.1410942604
 20
331.2122945074
 30
0.0
 11
566.1410942604
 21
156.8336148509
 31
0.0
  0
LINE
  5
16C
330
1F
100
AcDbEntity
  8
0
  6
Continuous
 62
     7
370
    35
100
AcDbLine
 10
567.6410942604
 20
151.8336148509
 30
0.0
 11
566.1410942604
 21
151.8336148509
 31
0.0
  0
LINE
  5
16D
330
1F
100
AcDbEntity
  8
0
  6
Continuous
 62
     7
370
    35
100
AcDbLine
 10
567.6410942604
 20
156.8336148509
 30
0.0
 11
567.6410942604
 21
151.8336148509
 31
0.0
  0
LINE
  5
16E
330
1F
100
AcDbEntity
  8
0
  6
Continuous
 62
     7
370
    35
100
AcDbLine
 10
566.1410942604
 20
151.8336148509
 30
0.0
 11
566.1410942604
 21
156.8336148509
 31
0.0
  0
LINE
  5
16F
330
1F
100
AcDbEntity
  8
0
  6
Continuous
 62
     7
370
    35
100
AcDbLine
 10
1003.6410942604
 20
216.8336148509
 30
0.0
 11
1005.1410942604
 21
216.8336148509
 31
0.0
  0
LINE
  5
170
330
1F
100
AcDbEntity
  8
0
  6
Continuous
 62
     7
370
    35
100
AcDbLine
 10
1005.1410942604
 20
236.8336148509
 30
0.0
 11
1005.1410942604
 21
216.8336148509
 31
0.0
  0
LINE
  5
171
330
1F
100
AcDbEntity
  8
0
  6
Continuous
 62
     7
370
    35
100
AcDbLine
 10
1003.6410942604
 20
236.8336148509
 30
0.0
 11
1003.6410942604
 21
216.8336148509
 31
0.0
  0
LINE
  5
172
330
1F
100
AcDbEntity
  8
0
  6
Continuous
 62
     7
370
    35
100
AcDbLine
 10
1005.1410942604
 20
148.3336148509
 30
0.0
 11
1003.6410942604
 21
148.3336148509
 31
0.0
  0
LINE
  5
173
330
1F
100
AcDbEntity
  8
0
  6
Continuous
 62
     7
370
    35
100
AcDbLine
 10
1005.1410942604
 20
148.3336148509
 30
0.0
 11
1005.1410942604
 21
216.8336148509
 31
0.0
  0
LINE
  5
174
330
1F
100
AcDbEntity
  8
0
  6
Continuous
 62
     7
370
    35
100
AcDbLine
 10
1003.6410942604
 20
148.3336148509
 30
0.0
 11
1003.6410942604
 21
216.8336148509
 31
0.0
  0
ARC
  5
175
330
1F
100
AcDbEntity
  8
0
  6
Continuous
 62
     7
370
    35
100
AcDbCircle
 10
1006.6410942604
 20
148.3336148509
 30
0.0
 40
1.5
100
AcDbArc
 50
180.0
 51
270.0
  0
LINE
  5
176
330
1F
100
AcDbEntity
  8
0
  6
Continuous
 62
     7
370
    35
100
AcDbLine
 10
1006.6410942604
 20
146.8336148509
 30
0.0
 11
1006.6410942604
 21
145.3336148509
 31
0.0
  0
ARC
  5
177
330
1F
100
AcDbEntity
  8
0
  6
Continuous
 62
     7
370
    35
100
AcDbCircle
 10
1006.6410942604
 20
148.3336148509
 30
0.0
 40
3.0
100
AcDbArc
 50
180.0
 51
270.0
  0
LINE
  5
178
330
1F
100
AcDbEntity
  8
0
  6
Continuous
 62
     7
370
    35
100
AcDbLine
 10
1025.1410942604
 20
145.3336148509
 30
0.0
 11
1025.1410942604
 21
146.8336148509
 31
0.0
  0
LINE
  5
179
330
1F
100
AcDbEntity
  8
0
  6
Continuous
 62
     7
370
    35
100
AcDbLine
 10
1025.1410942604
 20
145.3336148509
 30
0.0
 11
1006.6410942604
 21
145.3336148509
 31
0.0
  0
LINE
  5
17A
330
1F
100
AcDbEntity
  8
0
  6
Continuous
 62
     7
370
    35
100
AcDbLine
 10
1025.1410942604
 20
146.8336148509
 30
0.0
 11
1006.6410942604
 21
146.8336148509
 31
0.0
  0
LINE
  5
17B
330
1F
100
AcDbEntity
  8
0
  6
Continuous
 62
     7
370
    35
100
AcDbLine
 10
1030.1410942604
 20
146.8336148509
 30
0.0
 11
1030.1410942604
 21
145.3336148509
 31
0.0
  0
LINE
  5
17C
330
1F
100
AcDbEntity
  8
0
  6
Continuous
 62
     7
370
    35
100
AcDbLine
 10
1030.1410942604
 20
145.3336148509
 30
0.0
 11
1025.1410942604
 21
145.3336148509
 31
0.0
  0
LINE
  5
17D
330
1F
100
AcDbEntity
  8
0
  6
Continuous
 62
     7
370
    35
100
AcDbLine
 10
1025.1410942604
 20
146.8336148509
 30
0.0
 11
1030.1410942604
 21
146.8336148509
 31
0.0
  0
LINE
  5
17E
330
1F
100
AcDbEntity
  8
0
  6
Continuous
 62
     7
370
    35
100
AcDbLine
 10
1006.6410942604
 20
552.9296940554
 30
0.0
 11
1006.6410942604
 21
694.9296940554
 31
0.0
  0
LINE
  5
17F
330
1F
100
AcDbEntity
  8
0
  6
Continuous
 62
     7
370
    35
100
AcDbLine
 10
1025.1410942604
 20
694.9296940554
 30
0.0
 11
1006.6410942604
 21
694.9296940554
 31
0.0
  0
ARC
  5
180
330
1F
100
AcDbEntity
  8
0
  6
Continuous
 62
     7
370
    35
100
AcDbCircle
 10
1022.6410942604
 20
623.9296940554
 30
0.0
 40
12.50000000000011
100
AcDbArc
 50
90.0
 51
270.0
  0
LINE
  5
181
330
1F
100
AcDbEntity
  8
0
  6
Continuous
 62
     7
370
    35
100
AcDbLine
 10
1006.6410942604
 20
552.9296940554
 30
0.0
 11
1025.1410942604
 21
552.9296940554
 31
0.0
  0
ARC
  5
182
330
1F
100
AcDbEntity
  8
0
  6
Continuous
 62
     7
370
    35
100
AcDbCircle
 10
1022.3910942604
 20
578.9296940554
 30
0.0
 40
3.25
100
AcDbArc
 50
270.0
 51
90.0
  0
LINE
  5
183
330
1F
100
AcDbEntity
  8
0
  6
Continuous
 62
     7
370
    35
100
AcDbLine
 10
1013.8910942604
 20
582.1796940554
 30
0.0
 11
1022.3910942604
 21
582.1796940554
 31
0.0
  0
ARC
  5
184
330
1F
100
AcDbEntity
  8
0
  6
Continuous
 62
     7
370
    35
100
AcDbCircle
 10
1013.8910942604
 20
578.9296940554
 30
0.0
 40
3.25
100
AcDbArc
 50
90.0
 51
270.0
  0
LINE
  5
185
330
1F
100
AcDbEntity
  8
0
  6
Continuous
 62
     7
370
    35
100
AcDbLine
 10
1022.3910942604
 20
575.6796940554
 30
0.0
 11
1013.8910942604
 21
575.6796940554
 31
0.0
  0
ARC
  5
186
330
1F
100
AcDbEntity
  8
0
  6
Continuous
 62
     7
370
    35
100
AcDbCircle
 10
1022.3910942604
 20
668.9296940554
 30
0.0
 40
3.25
100
AcDbArc
 50
270.0
 51
90.0
  0
LINE
  5
187
330
1F
100
AcDbEntity
  8
0
  6
Continuous
 62
     7
370
    35
100
AcDbLine
 10
1013.8910942604
 20
672.1796940554
 30
0.0
 11
1022.3910942604
 21
672.1796940554
 31
0.0
  0
ARC
  5
188
330
1F
100
AcDbEntity
  8
0
  6
Continuous
 62
     7
370
    35
100
AcDbCircle
 10
1013.8910942604
 20
668.9296940554
 30
0.0
 40
3.25
100
AcDbArc
 50
90.0
 51
270.0
  0
LINE
  5
189
330
1F
100
AcDbEntity
  8
0
  6
Continuous
 62
     7
370
    35
100
AcDbLine
 10
1022.3910942604
 20
665.6796940554
 30
0.0
 11
1013.8910942604
 21
665.6796940554
 31
0.0
  0
LINE
  5
18A
330
1F
100
AcDbEntity
  8
0
  6
Continuous
 62
     7
370
    35
100
AcDbLine
 10
1022.6410942604
 20
636.4296940554
 30
0.0
 11
1028.1410942604
 21
636.4296940554
 31
0.0
  0
LINE
  5
18B
330
1F
100
AcDbEntity
  8
0
  6
Continuous
 62
     7
370
    35
100
AcDbLine
 10
1030.1410942604
 20
557.9296940554
 30
0.0
 11
1030.1410942604
 21
609.4296940554
 31
0.0
  0
LINE
  5
18C
330
1F
100
AcDbEntity
  8
0
  6
Continuous
 62
     7
370
    35
100
AcDbLine
 10
1030.1410942604
 20
638.4296940554
 30
0.0
 11
1030.1410942604
 21
689.9296940554
 31
0.0
  0
ARC
  5
18D
330
1F
100
AcDbEntity
  8
0
  6
Continuous
 62
     7
370
    35
100
AcDbCircle
 10
1025.1410942604
 20
557.9296940554
 30
0.0
 40
5.000000000000114
100
AcDbArc
 50
270.0
 51
0.0
  0
ARC
  5
18E
330
1F
100
AcDbEntity
  8
0
  6
Continuous
 62
     7
370
    35
100
AcDbCircle
 10
1025.1410942604
 20
689.9296940554
 30
0.0
 40
5.0
100
AcDbArc
 50
0.0
 51
90.0
  0
ARC
  5
18F
330
1F
100
AcDbEntity
  8
0
  6
Continuous
 62
     7
370
    35
100
AcDbCircle
 10
1028.1410942604
 20
638.4296940554
 30
0.0
 40
2.0
100
AcDbArc
 50
270.0
 51
0.0
  0
ARC
  5
190
330
1F
100
AcDbEntity
  8
0
  6
Continuous
 62
     7
370
    35
100
AcDbCircle
 10
1028.1410942604
 20
609.4296940554
 30
0.0
 40
2.0
100
AcDbArc
 50
0.0
 51
90.0
  0
LINE
  5
191
330
1F
100
AcDbEntity
  8
0
  6
Continuous
 62
     7
370
    35
100
AcDbLine
 10
1028.1410942604
 20
611.4296940554
 30
0.0
 11
1022.6410942604
 21
611.4296940554
 31
0.0
  0
LINE
  5
192
330
1F
100
AcDbEntity
  8
0
  6
Continuous
 62
     7
370
    35
100
AcDbLine
 10
1003.6410942604
 20
552.9296940554
 30
0.0
 11
1003.6410942604
 21
694.9296940554
 31
0.0
  0
LINE
  5
193
330
1F
100
AcDbEntity
  8
0
  6
Continuous
 62
     7
370
    35
100
AcDbLine
 10
1003.6410942604
 20
694.9296940554
 30
0.0
 11
1006.6410942604
 21
694.9296940554
 31
0.0
  0
LINE
  5
194
330
1F
100
AcDbEntity
  8
0
  6
Continuous
 62
     7
370
    35
100
AcDbLine
 10
1006.6410942604
 20
552.9296940554
 30
0.0
 11
1003.6410942604
 21
552.9296940554
 31
0.0
  0
LINE
  5
195
330
1F
100
AcDbEntity
  8
0
  6
Continuous
 62
     7
370
    35
100
AcDbLine
 10
1003.6410942604
 20
466.9296940554
 30
0.0
 11
1005.1410942604
 21
466.9296940554
 31
0.0
  0
LINE
  5
196
330
1F
100
AcDbEntity
  8
0
  6
Continuous
 62
     7
370
    35
100
AcDbLine
 10
1003.6410942604
 20
552.9296940554
 30
0.0
 11
1003.6410942604
 21
466.9296940554
 31
0.0
  0
LINE
  5
197
330
1F
100
AcDbEntity
  8
0
  6
Continuous
 62
     7
370
    35
100
AcDbLine
 10
1005.1410942604
 20
552.9296940554
 30
0.0
 11
1005.1410942604
 21
466.9296940554
 31
0.0
  0
LINE
  5
198
330
1F
100
AcDbEntity
  8
0
  6
Continuous
 62
     7
370
    35
100
AcDbLine
 10
566.1410942604
 20
561.9296940554
 30
0.0
 11
567.6410942604
 21
561.9296940554
 31
0.0
  0
LINE
  5
199
330
1F
100
AcDbEntity
  8
0
  6
Continuous
 62
     7
370
    35
100
AcDbLine
 10
567.6410942604
 20
561.9296940554
 30
0.0
 11
567.6410942604
 21
556.9296940554
 31
0.0
  0
LINE
  5
19A
330
1F
100
AcDbEntity
  8
0
  6
Continuous
 62
     7
370
    35
100
AcDbLine
 10
567.6410942604
 20
556.9296940554
 30
0.0
 11
566.1410942604
 21
556.9296940554
 31
0.0
  0
LINE
  5
19B
330
1F
100
AcDbEntity
  8
0
  6
Continuous
 62
     7
370
    35
100
AcDbLine
 10
566.1410942604
 20
556.9296940554
 30
0.0
 11
566.1410942604
 21
561.9296940554
 31
0.0
  0
LINE
  5
19C
330
1F
100
AcDbEntity
  8
0
  6
Continuous
 62
     7
370
    35
100
AcDbLine
 10
567.6410942604
 20
611.9296940554
 30
0.0
 11
566.1410942604
 21
611.9296940554
 31
0.0
  0
LINE
  5
19D
330
1F
100
AcDbEntity
  8
0
  6
Continuous
 62
     7
370
    35
100
AcDbLine
 10
566.1410942604
 20
611.9296940554
 30
0.0
 11
566.1410942604
 21
616.9296940554
 31
0.0
  0
LINE
  5
19E
330
1F
100
AcDbEntity
  8
0
  6
Continuous
 62
     7
370
    35
100
AcDbLine
 10
566.1410942604
 20
616.9296940554
 30
0.0
 11
567.6410942604
 21
616.9296940554
 31
0.0
  0
LINE
  5
19F
330
1F
100
AcDbEntity
  8
0
  6
Continuous
 62
     7
370
    35
100
AcDbLine
 10
567.6410942604
 20
616.9296940554
 30
0.0
 11
567.6410942604
 21
611.9296940554
 31
0.0
  0
LINE
  5
1A0
330
1F
100
AcDbEntity
  8
0
  6
Continuous
 62
     7
370
    35
100
AcDbLine
 10
567.6410942604
 20
556.9296940554
 30
0.0
 11
567.6410942604
 21
466.9296940554
 31
0.0
  0
LINE
  5
1A1
330
1F
100
AcDbEntity
  8
0
  6
Continuous
 62
     7
370
    35
100
AcDbLine
 10
566.1410942604
 20
466.9296940554
 30
0.0
 11
567.6410942604
 21
466.9296940554
 31
0.0
  0
LINE
  5
1A2
330
1F
100
AcDbEntity
  8
0
  6
Continuous
 62
     7
370
    35
100
AcDbLine
 10
566.1410942604
 20
556.9296940554
 30
0.0
 11
566.1410942604
 21
466.9296940554
 31
0.0
  0
LINE
  5
1A3
330
1F
100
AcDbEntity
  8
0
  6
Continuous
 62
     7
370
    35
100
AcDbLine
 10
567.6410942604
 20
731.9296940554
 30
0.0
 11
566.1410942604
 21
731.9296940554
 31
0.0
  0
LINE
  5
1A4
330
1F
100
AcDbEntity
  8
0
  6
Continuous
 62
     7
370
    35
100
AcDbLine
 10
566.1410942604
 20
731.9296940554
 30
0.0
 11
566.1410942604
 21
736.9296940554
 31
0.0
  0
LINE
  5
1A5
330
1F
100
AcDbEntity
  8
0
  6
Continuous
 62
     7
370
    35
100
AcDbLine
 10
566.1410942604
 20
736.9296940554
 30
0.0
 11
567.6410942604
 21
736.9296940554
 31
0.0
  0
LINE
  5
1A6
330
1F
100
AcDbEntity
  8
0
  6
Continuous
 62
     7
370
    35
100
AcDbLine
 10
567.6410942604
 20
736.9296940554
 30
0.0
 11
567.6410942604
 21
731.9296940554
 31
0.0
  0
LINE
  5
1A7
330
1F
100
AcDbEntity
  8
0
  6
Continuous
 62
     7
370
    35
100
AcDbLine
 10
566.1410942604
 20
731.9296940554
 30
0.0
 11
566.1410942604
 21
616.9296940554
 31
0.0
  0
LINE
  5
1A8
330
1F
100
AcDbEntity
  8
0
  6
Continuous
 62
     7
370
    35
100
AcDbLine
 10
567.6410942604
 20
731.9296940554
 30
0.0
 11
567.6410942604
 21
616.9296940554
 31
0.0
  0
LINE
  5
1A9
330
1F
100
AcDbEntity
  8
0
  6
Continuous
 62
     7
370
    35
100
AcDbLine
 10
1005.1410942604
 20
461.9296940554
 30
0.0
 11
1003.6410942604
 21
461.9296940554
 31
0.0
  0
LINE
  5
1AA
330
1F
100
AcDbEntity
  8
0
  6
Continuous
 62
     7
370
    35
100
AcDbLine
 10
1003.6410942604
 20
461.9296940554
 30
0.0
 11
1003.6410942604
 21
466.9296940554
 31
0.0
  0
LINE
  5
1AB
330
1F
100
AcDbEntity
  8
0
  6
Continuous
 62
     7
370
    35
100
AcDbLine
 10
1005.1410942604
 20
466.9296940554
 30
0.0
 11
1005.1410942604
 21
461.9296940554
 31
0.0
  0
LINE
  5
1AC
330
1F
100
AcDbEntity
  8
0
  6
Continuous
 62
     7
370
    35
100
AcDbLine
 10
567.6410942604
 20
461.9296940554
 30
0.0
 11
566.1410942604
 21
461.9296940554
 31
0.0
  0
LINE
  5
1AD
330
1F
100
AcDbEntity
  8
0
  6
Continuous
 62
     7
370
    35
100
AcDbLine
 10
566.1410942604
 20
461.9296940554
 30
0.0
 11
566.1410942604
 21
466.9296940554
 31
0.0
  0
LINE
  5
1AE
330
1F
100
AcDbEntity
  8
0
  6
Continuous
 62
     7
370
    35
100
AcDbLine
 10
567.6410942604
 20
466.9296940554
 30
0.0
 11
567.6410942604
 21
461.9296940554
 31
0.0
  0
LINE
  5
1AF
330
1F
100
AcDbEntity
  8
0
  6
Continuous
 62
     7
370
    35
100
AcDbLine
 10
1003.6410942604
 20
714.9296940554
 30
0.0
 11
1005.1410942604
 21
714.9296940554
 31
0.0
  0
LINE
  5
1B0
330
1F
100
AcDbEntity
  8
0
  6
Continuous
 62
     7
370
    35
100
AcDbLine
 10
1003.6410942604
 20
714.9296940554
 30
0.0
 11
1003.6410942604
 21
694.9296940554
 31
0.0
  0
LINE
  5
1B1
330
1F
100
AcDbEntity
  8
0
  6
Continuous
 62
     7
370
    35
100
AcDbLine
 10
1005.1410942604
 20
714.9296940554
 30
0.0
 11
1005.1410942604
 21
694.9296940554
 31
0.0
  0
LINE
  5
1B2
330
1F
100
AcDbEntity
  8
0
  6
Continuous
 62
     7
370
    35
100
AcDbLine
 10
1005.1410942604
 20
731.9296940554
 30
0.0
 11
1003.6410942604
 21
731.9296940554
 31
0.0
  0
LINE
  5
1B3
330
1F
100
AcDbEntity
  8
0
  6
Continuous
 62
     7
370
    35
100
AcDbLine
 10
1003.6410942604
 20
731.9296940554
 30
0.0
 11
1003.6410942604
 21
714.9296940554
 31
0.0
  0
LINE
  5
1B4
330
1F
100
AcDbEntity
  8
0
  6
Continuous
 62
     7
370
    35
100
AcDbLine
 10
1005.1410942604
 20
731.9296940554
 30
0.0
 11
1005.1410942604
 21
714.9296940554
 31
0.0
  0
LINE
  5
1B5
330
1F
100
AcDbEntity
  8
0
  6
Continuous
 62
     7
370
    35
100
AcDbLine
 10
1003.6410942604
 20
736.9296940554
 30
0.0
 11
1005.1410942604
 21
736.9296940554
 31
0.0
  0
LINE
  5
1B6
330
1F
100
AcDbEntity
  8
0
  6
Continuous
 62
     7
370
    35
100
AcDbLine
 10
1003.6410942604
 20
731.9296940554
 30
0.0
 11
1003.6410942604
 21
736.9296940554
 31
0.0
  0
LINE
  5
1B7
330
1F
100
AcDbEntity
  8
0
  6
Continuous
 62
     7
370
    35
100
AcDbLine
 10
1005.1410942604
 20
736.9296940554
 30
0.0
 11
1005.1410942604
 21
731.9296940554
 31
0.0
  0
LINE
  5
1B8
330
1F
100
AcDbEntity
  8
0
  6
Continuous
 62
     7
370
    35
100
AcDbLine
 10
566.1410942604
 20
611.9296940554
 30
0.0
 11
566.1410942604
 21
561.9296940554
 31
0.0
  0
LINE
  5
1B9
330
1F
100
AcDbEntity
  8
0
  6
Continuous
 62
     7
370
    35
100
AcDbLine
 10
567.6410942604
 20
561.9296940554
 30
0.0
 11
567.6410942604
 21
611.9296940554
 31
0.0
  0
LINE
  5
1BA
330
1F
100
AcDbEntity
  8
0
  6
Continuous
 62
     7
370
    35
100
AcDbLine
 10
1003.2017544322
 20
736.9296940554
 30
0.0
 11
1003.2017544322
 21
461.9296940554
 31
0.0
  0
LINE
  5
1BB
330
1F
100
AcDbEntity
  8
0
  6
Continuous
 62
     7
370
    35
100
AcDbLine
 10
1003.6410942604
 20
461.9296940554
 30
0.0
 11
1003.2017544322
 21
461.9296940554
 31
0.0
  0
LINE
  5
1BC
330
1F
100
AcDbEntity
  8
0
  6
Continuous
 62
     7
370
    35
100
AcDbLine
 10
1003.6410942604
 20
736.9296940554
 30
0.0
 11
1003.2017544322
 21
736.9296940554
 31
0.0
  0
LINE
  5
1BD
330
1F
100
AcDbEntity
  8
0
  6
Continuous
 62
     7
370
    35
100
AcDbLine
 10
964.0804340887
 20
736.9296940554
 30
0.0
 11
964.0804340887
 21
461.9296940554
 31
0.0
  0
LINE
  5
1BE
330
1F
100
AcDbEntity
  8
0
  6
Continuous
 62
     7
370
    35
100
AcDbLine
 10
1003.2017544322
 20
736.9296940554
 30
0.0
 11
964.0804340887
 21
736.9296940554
 31
0.0
  0
LINE
  5
1BF
330
1F
100
AcDbEntity
  8
0
  6
Continuous
 62
     7
370
    35
100
AcDbLine
 10
1003.2017544322
 20
461.9296940554
 30
0.0
 11
964.0804340887
 21
461.9296940554
 31
0.0
  0
LINE
  5
1C0
330
1F
100
AcDbEntity
  8
0
  6
Continuous
 62
     7
370
    35
100
AcDbLine
 10
568.0804340887
 20
736.9296940554
 30
0.0
 11
568.0804340887
 21
461.9296940554
 31
0.0
  0
LINE
  5
1C1
330
1F
100
AcDbEntity
  8
0
  6
Continuous
 62
     7
370
    35
100
AcDbLine
 10
568.0804340887
 20
461.9296940554
 30
0.0
 11
567.6410942604
 21
461.9296940554
 31
0.0
  0
LINE
  5
1C2
330
1F
100
AcDbEntity
  8
0
  6
Continuous
 62
     7
370
    35
100
AcDbLine
 10
568.0804340887
 20
736.9296940554
 30
0.0
 11
567.6410942604
 21
736.9296940554
 31
0.0
  0
LINE
  5
1C3
330
1F
100
AcDbEntity
  8
0
  6
Continuous
 62
     7
370
    35
100
AcDbLine
 10
587.2017544322
 20
736.9296940554
 30
0.0
 11
587.2017544322
 21
461.9296940554
 31
0.0
  0
LINE
  5
1C4
330
1F
100
AcDbEntity
  8
0
  6
Continuous
 62
     7
370
    35
100
AcDbLine
 10
587.2017544322
 20
736.9296940554
 30
0.0
 11
568.0804340887
 21
736.9296940554
 31
0.0
  0
LINE
  5
1C5
330
1F
100
AcDbEntity
  8
0
  6
Continuous
 62
     7
370
    35
100
AcDbLine
 10
587.2017544322
 20
461.9296940554
 30
0.0
 11
568.0804340887
 21
461.9296940554
 31
0.0
  0
LINE
  5
1C6
330
1F
100
AcDbEntity
  8
0
  6
Continuous
 62
     7
370
    35
100
AcDbLine
 10
963.0197739169
 20
736.9296940554
 30
0.0
 11
963.0197739169
 21
461.9296940554
 31
0.0
  0
LINE
  5
1C7
330
1F
100
AcDbEntity
  8
0
  6
Continuous
 62
     7
370
    35
100
AcDbLine
 10
964.0804340887
 20
736.9296940554
 30
0.0
 11
963.0197739169
 21
736.9296940554
 31
0.0
  0
LINE
  5
1C8
330
1F
100
AcDbEntity
  8
0
  6
Continuous
 62
     7
370
    35
100
AcDbLine
 10
964.0804340887
 20
461.9296940554
 30
0.0
 11
963.0197739169
 21
461.9296940554
 31
0.0
  0
LINE
  5
1C9
330
1F
100
AcDbEntity
  8
0
  6
Continuous
 62
     7
370
    35
100
AcDbLine
 10
588.262414604
 20
736.9296940554
 30
0.0
 11
588.262414604
 21
461.9296940554
 31
0.0
  0
LINE
  5
1CA
330
1F
100
AcDbEntity
  8
0
  6
Continuous
 62
     7
370
    35
100
AcDbLine
 10
588.262414604
 20
461.9296940554
 30
0.0
 11
587.2017544322
 21
461.9296940554
 31
0.0
  0
LINE
  5
1CB
330
1F
100
AcDbEntity
  8
0
  6
Continuous
 62
     7
370
    35
100
AcDbLine
 10
588.262414604
 20
736.9296940554
 30
0.0
 11
587.2017544322
 21
736.9296940554
 31
0.0
  0
LINE
  5
1CC
330
1F
100
AcDbEntity
  8
0
  6
Continuous
 62
     7
370
    35
100
AcDbLine
 10
963.0197739169
 20
461.9296940554
 30
0.0
 11
588.262414604
 21
461.9296940554
 31
0.0
  0
LINE
  5
1CD
330
1F
100
AcDbEntity
  8
0
  6
Continuous
 62
     7
370
    35
100
AcDbLine
 10
963.0197739169
 20
736.9296940554
 30
0.0
 11
588.262414604
 21
736.9296940554
 31
0.0
  0
INSERT
  5
1D9
330
1F
100
AcDbEntity
  8
0
  6
Continuous
 62
     7
370
    18
100
AcDbBlockReference
  2
SW_CENTERMARKSYMBOL_0
 10
1018.1410942604
 20
578.9296940554
 30
0.0
  0
INSERT
  5
1E5
330
1F
100
AcDbEntity
  8
0
  6
Continuous
 62
     7
370
    18
100
AcDbBlockReference
  2
SW_CENTERMARKSYMBOL_1
 10
1018.1410942604
 20
668.9296940554
 30
0.0
  0
LINE
  5
1E6
330
1F
100
AcDbEntity
  8
0
  6
Continuous
 62
     7
370
    35
100
AcDbLine
 10
254.8902456081
 20
694.9296940554
 30
0.0
 11
256.3902456081
 21
694.9296940554
 31
0.0
  0
LINE
  5
1E7
330
1F
100
AcDbEntity
  8
0
  6
Continuous
 62
     7
370
    35
100
AcDbLine
 10
256.3902456081
 20
694.9296940554
 30
0.0
 11
256.3902456081
 21
689.9296940554
 31
0.0
  0
LINE
  5
1E8
330
1F
100
AcDbEntity
  8
0
  6
Continuous
 62
     7
370
    35
100
AcDbLine
 10
256.3902456081
 20
689.9296940554
 30
0.0
 11
254.8902456081
 21
689.9296940554
 31
0.0
  0
LINE
  5
1E9
330
1F
100
AcDbEntity
  8
0
  6
Continuous
 62
     7
370
    35
100
AcDbLine
 10
254.8902456081
 20
689.9296940554
 30
0.0
 11
254.8902456081
 21
694.9296940554
 31
0.0
  0
LINE
  5
1EA
330
1F
100
AcDbEntity
  8
0
  6
Continuous
 62
     7
370
    35
100
AcDbLine
 10
254.8902456081
 20
638.4296940554
 30
0.0
 11
256.3902456081
 21
638.4296940554
 31
0.0
  0
LINE
  5
1EB
330
1F
100
AcDbEntity
  8
0
  6
Continuous
 62
     7
370
    35
100
AcDbLine
 10
256.3902456081
 20
636.4296940554
 30
0.0
 11
254.8902456081
 21
636.4296940554
 31
0.0
  0
LINE
  5
1EC
330
1F
100
AcDbEntity
  8
0
  6
Continuous
 62
     7
370
    35
100
AcDbLine
 10
254.8902456081
 20
636.4296940554
 30
0.0
 11
254.8902456081
 21
638.4296940554
 31
0.0
  0
LINE
  5
1ED
330
1F
100
AcDbEntity
  8
0
  6
Continuous
 62
     7
370
    35
100
AcDbLine
 10
256.3902456081
 20
638.4296940554
 30
0.0
 11
256.3902456081
 21
636.4296940554
 31
0.0
  0
LINE
  5
1EE
330
1F
100
AcDbEntity
  8
0
  6
Continuous
 62
     7
370
    35
100
AcDbLine
 10
256.3902456081
 20
609.4296940554
 30
0.0
 11
254.8902456081
 21
609.4296940554
 31
0.0
  0
LINE
  5
1EF
330
1F
100
AcDbEntity
  8
0
  6
Continuous
 62
     7
370
    35
100
AcDbLine
 10
254.8902456081
 20
609.4296940554
 30
0.0
 11
254.8902456081
 21
611.4296940554
 31
0.0
  0
LINE
  5
1F0
330
1F
100
AcDbEntity
  8
0
  6
Continuous
 62
     7
370
    35
100
AcDbLine
 10
254.8902456081
 20
611.4296940554
 30
0.0
 11
256.3902456081
 21
611.4296940554
 31
0.0
  0
LINE
  5
1F1
330
1F
100
AcDbEntity
  8
0
  6
Continuous
 62
     7
370
    35
100
AcDbLine
 10
256.3902456081
 20
611.4296940554
 30
0.0
 11
256.3902456081
 21
609.4296940554
 31
0.0
  0
LINE
  5
1F2
330
1F
100
AcDbEntity
  8
0
  6
Continuous
 62
     7
370
    35
100
AcDbLine
 10
254.8902456081
 20
557.9296940554
 30
0.0
 11
256.3902456081
 21
557.9296940554
 31
0.0
  0
LINE
  5
1F3
330
1F
100
AcDbEntity
  8
0
  6
Continuous
 62
     7
370
    35
100
AcDbLine
 10
256.3902456081
 20
552.9296940554
 30
0.0
 11
254.8902456081
 21
552.9296940554
 31
0.0
  0
LINE
  5
1F4
330
1F
100
AcDbEntity
  8
0
  6
Continuous
 62
     7
370
    35
100
AcDbLine
 10
254.8902456081
 20
552.9296940554
 30
0.0
 11
254.8902456081
 21
557.9296940554
 31
0.0
  0
LINE
  5
1F5
330
1F
100
AcDbEntity
  8
0
  6
Continuous
 62
     7
370
    35
100
AcDbLine
 10
256.3902456081
 20
557.9296940554
 30
0.0
 11
256.3902456081
 21
552.9296940554
 31
0.0
  0
LINE
  5
1F6
330
1F
100
AcDbEntity
  8
0
  6
Continuous
 62
     7
370
    35
100
AcDbLine
 10
254.8902456081
 20
638.4296940554
 30
0.0
 11
254.8902456081
 21
689.9296940554
 31
0.0
  0
LINE
  5
1F7
330
1F
100
AcDbEntity
  8
0
  6
Continuous
 62
     7
370
    35
100
AcDbLine
 10
256.3902456081
 20
638.4296940554
 30
0.0
 11
256.3902456081
 21
689.9296940554
 31
0.0
  0
LINE
  5
1F8
330
1F
100
AcDbEntity
  8
0
  6
Continuous
 62
     7
370
    35
100
AcDbLine
 10
254.8902456081
 20
557.9296940554
 30
0.0
 11
254.8902456081
 21
609.4296940554
 31
0.0
  0
LINE
  5
1F9
330
1F
100
AcDbEntity
  8
0
  6
Continuous
 62
     7
370
    35
100
AcDbLine
 10
256.3902456081
 20
557.9296940554
 30
0.0
 11
256.3902456081
 21
609.4296940554
 31
0.0
  0
LINE
  5
1FA
330
1F
100
AcDbEntity
  8
0
  6
Continuous
 62
     7
370
    35
100
AcDbLine
 10
254.8902456081
 20
611.4296940554
 30
0.0
 11
254.8902456081
 21
636.4296940554
 31
0.0
  0
LINE
  5
1FB
330
1F
100
AcDbEntity
  8
0
  6
Continuous
 62
     7
370
    35
100
AcDbLine
 10
256.3902456081
 20
611.4296940554
 30
0.0
 11
256.3902456081
 21
636.4296940554
 31
0.0
  0
LINE
  5
1FC
330
1F
100
AcDbEntity
  8
0
  6
Continuous
 62
     7
370
    35
100
AcDbLine
 10
256.3902456081
 20
552.9296940554
 30
0.0
 11
257.8902456081
 21
552.9296940554
 31
0.0
  0
LINE
  5
1FD
330
1F
100
AcDbEntity
  8
0
  6
Continuous
 62
     7
370
    35
100
AcDbLine
 10
257.8902456081
 20
694.9296940554
 30
0.0
 11
256.3902456081
 21
694.9296940554
 31
0.0
  0
LINE
  5
1FE
330
1F
100
AcDbEntity
  8
0
  6
Continuous
 62
     7
370
    35
100
AcDbLine
 10
257.8902456081
 20
552.9296940554
 30
0.0
 11
257.8902456081
 21
694.9296940554
 31
0.0
  0
LINE
  5
1FF
330
1F
100
AcDbEntity
  8
0
  6
Continuous
 62
     7
370
    35
100
AcDbLine
 10
257.8902456081
 20
552.9296940554
 30
0.0
 11
261.3902456081
 21
552.9296940554
 31
0.0
  0
LINE
  5
200
330
1F
100
AcDbEntity
  8
0
  6
Continuous
 62
     7
370
    35
100
AcDbLine
 10
257.8902456081
 20
694.9296940554
 30
0.0
 11
326.3902456081
 21
694.9296940554
 31
0.0
  0
ARC
  5
201
330
1F
100
AcDbEntity
  8
0
  6
Continuous
 62
     7
370
    35
100
AcDbCircle
 10
326.3902456081
 20
714.9296940554
 30
0.0
 40
20.0
100
AcDbArc
 50
270.0
 51
0.0
  0
LINE
  5
202
330
1F
100
AcDbEntity
  8
0
  6
Continuous
 62
     7
370
    35
100
AcDbLine
 10
346.3902456081
 20
731.9296940554
 30
0.0
 11
346.3902456081
 21
714.9296940554
 31
0.0
  0
ARC
  5
203
330
1F
100
AcDbEntity
  8
0
  6
Continuous
 62
     7
370
    35
100
AcDbCircle
 10
351.3902456081
 20
731.9296940554
 30
0.0
 40
5.000000000000114
100
AcDbArc
 50
90.0
 51
180.0
  0
LINE
  5
204
330
1F
100
AcDbEntity
  8
0
  6
Continuous
 62
     7
370
    35
100
AcDbLine
 10
420.7689252645
 20
736.9296940554
 30
0.0
 11
420.7689252645
 21
461.9296940554
 31
0.0
  0
LINE
  5
205
330
1F
100
AcDbEntity
  8
0
  6
Continuous
 62
     7
370
    35
100
AcDbLine
 10
266.3902456081
 20
461.9296940554
 30
0.0
 11
420.7689252645
 21
461.9296940554
 31
0.0
  0
ARC
  5
206
330
1F
100
AcDbEntity
  8
0
  6
Continuous
 62
     7
370
    35
100
AcDbCircle
 10
266.3902456081
 20
466.9296940554
 30
0.0
 40
5.0
100
AcDbArc
 50
180.0
 51
270.0
  0
LINE
  5
207
330
1F
100
AcDbEntity
  8
0
  6
Continuous
 62
     7
370
    35
100
AcDbLine
 10
261.3902456081
 20
552.9296940554
 30
0.0
 11
261.3902456081
 21
466.9296940554
 31
0.0
  0
LINE
  5
208
330
1F
100
AcDbEntity
  8
0
  6
Continuous
 62
     7
370
    35
100
AcDbLine
 10
351.3902456081
 20
736.9296940554
 30
0.0
 11
420.7689252645
 21
736.9296940554
 31
0.0
  0
LINE
  5
209
330
1F
100
AcDbEntity
  8
0
  6
Continuous
 62
     7
370
    35
100
AcDbLine
 10
422.8902456081
 20
736.9296940554
 30
0.0
 11
422.8902456081
 21
461.9296940554
 31
0.0
  0
LINE
  5
20A
330
1F
100
AcDbEntity
  8
0
  6
Continuous
 62
     7
370
    35
100
AcDbLine
 10
420.7689252645
 20
736.9296940554
 30
0.0
 11
422.8902456081
 21
736.9296940554
 31
0.0
  0
LINE
  5
20B
330
1F
100
AcDbEntity
  8
0
  6
Continuous
 62
     7
370
    35
100
AcDbLine
 10
420.7689252645
 20
461.9296940554
 30
0.0
 11
422.8902456081
 21
461.9296940554
 31
0.0
  0
LINE
  5
20C
330
1F
100
AcDbEntity
  8
0
  6
Continuous
 62
     7
370
    35
100
AcDbLine
 10
422.8902456081
 20
736.9296940554
 30
0.0
 11
462.0115659517
 21
736.9296940554
 31
0.0
  0
LINE
  5
20D
330
1F
100
AcDbEntity
  8
0
  6
Continuous
 62
     7
370
    35
100
AcDbLine
 10
462.0115659517
 20
736.9296940554
 30
0.0
 11
462.0115659517
 21
461.9296940554
 31
0.0
  0
LINE
  5
20E
330
1F
100
AcDbEntity
  8
0
  6
Continuous
 62
     7
370
    35
100
AcDbLine
 10
422.8902456081
 20
461.9296940554
 30
0.0
 11
462.0115659517
 21
461.9296940554
 31
0.0
  0
LINE
  5
20F
330
1F
100
AcDbEntity
  8
0
  6
Continuous
 62
     7
370
    35
100
AcDbLine
 10
462.0115659517
 20
736.9296940554
 30
0.0
 11
462.8902456081
 21
736.9296940554
 31
0.0
  0
LINE
  5
210
330
1F
100
AcDbEntity
  8
0
  6
Continuous
 62
     7
370
    35
100
AcDbLine
 10
462.8902456081
 20
736.9296940554
 30
0.0
 11
462.8902456081
 21
461.9296940554
 31
0.0
  0
LINE
  5
211
330
1F
100
AcDbEntity
  8
0
  6
Continuous
 62
     7
370
    35
100
AcDbLine
 10
462.0115659517
 20
461.9296940554
 30
0.0
 11
462.8902456081
 21
461.9296940554
 31
0.0
  0
LINE
  5
212
330
1F
100
AcDbEntity
  8
0
  6
Continuous
 62
     7
370
    35
100
AcDbLine
 10
333.1402456081
 20
712.5796940554
 30
0.0
 11
341.6402456081
 21
712.5796940554
 31
0.0
  0
ARC
  5
213
330
1F
100
AcDbEntity
  8
0
  6
Continuous
 62
     7
370
    35
100
AcDbCircle
 10
341.6402456081
 20
715.8296940554
 30
0.0
 40
3.25
100
AcDbArc
 50
270.0
 51
90.0
  0
LINE
  5
214
330
1F
100
AcDbEntity
  8
0
  6
Continuous
 62
     7
370
    35
100
AcDbLine
 10
333.1402456081
 20
719.0796940554
 30
0.0
 11
341.6402456081
 21
719.0796940554
 31
0.0
  0
ARC
  5
215
330
1F
100
AcDbEntity
  8
0
  6
Continuous
 62
     7
370
    35
100
AcDbCircle
 10
333.1402456081
 20
715.8296940554
 30
0.0
 40
3.25
100
AcDbArc
 50
90.0
 51
270.0
  0
ARC
  5
216
330
1F
100
AcDbEntity
  8
0
  6
Continuous
 62
     7
370
    35
100
AcDbCircle
 10
281.6402456081
 20
715.8296940554
 30
0.0
 40
3.25
100
AcDbArc
 50
270.0
 51
90.0
  0
LINE
  5
217
330
1F
100
AcDbEntity
  8
0
  6
Continuous
 62
     7
370
    35
100
AcDbLine
 10
273.1402456081
 20
719.0796940554
 30
0.0
 11
281.6402456081
 21
719.0796940554
 31
0.0
  0
ARC
  5
218
330
1F
100
AcDbEntity
  8
0
  6
Continuous
 62
     7
370
    35
100
AcDbCircle
 10
273.1402456081
 20
715.8296940554
 30
0.0
 40
3.25
100
AcDbArc
 50
90.0
 51
270.0
  0
LINE
  5
219
330
1F
100
AcDbEntity
  8
0
  6
Continuous
 62
     7
370
    35
100
AcDbLine
 10
273.1402456081
 20
712.5796940554
 30
0.0
 11
281.6402456081
 21
712.5796940554
 31
0.0
  0
LINE
  5
21A
330
1F
100
AcDbEntity
  8
0
  6
Continuous
 62
     7
370
    35
100
AcDbLine
 10
261.3902456081
 20
731.9296940554
 30
0.0
 11
261.3902456081
 21
694.9296940554
 31
0.0
  0
ARC
  5
21B
330
1F
100
AcDbEntity
  8
0
  6
Continuous
 62
     7
370
    35
100
AcDbCircle
 10
266.3902456081
 20
731.9296940554
 30
0.0
 40
5.000000000000114
100
AcDbArc
 50
90.0
 51
180.0
  0
LINE
  5
21C
330
1F
100
AcDbEntity
  8
0
  6
Continuous
 62
     7
370
    35
100
AcDbLine
 10
351.3902456081
 20
736.9296940554
 30
0.0
 11
266.3902456081
 21
736.9296940554
 31
0.0
  0
LINE
  5
21D
330
1F
100
AcDbEntity
  8
0
  6
Continuous
 62
     7
370
    35
100
AcDbLine
 10
1167.0028739078
 20
736.9296940554
 30
0.0
 11
1167.0028739078
 21
461.9296940554
 31
0.0
  0
LINE
  5
21E
330
1F
100
AcDbEntity
  8
0
  6
Continuous
 62
     7
370
    35
100
AcDbLine
 10
1169.1241942514
 20
736.9296940554
 30
0.0
 11
1169.1241942514
 21
461.9296940554
 31
0.0
  0
LINE
  5
21F
330
1F
100
AcDbEntity
  8
0
  6
Continuous
 62
     7
370
    35
100
AcDbLine
 10
1167.0028739078
 20
461.9296940554
 30
0.0
 11
1169.1241942514
 21
461.9296940554
 31
0.0
  0
LINE
  5
220
330
1F
100
AcDbEntity
  8
0
  6
Continuous
 62
     7
370
    35
100
AcDbLine
 10
1167.0028739078
 20
736.9296940554
 30
0.0
 11
1169.1241942514
 21
736.9296940554
 31
0.0
  0
ARC
  5
221
330
1F
100
AcDbEntity
  8
0
  6
Continuous
 62
     7
370
    35
100
AcDbCircle
 10
1328.2528739078
 20
715.8296940554
 30
0.0
 40
3.25
100
AcDbArc
 50
90.0
 51
270.0
  0
LINE
  5
222
330
1F
100
AcDbEntity
  8
0
  6
Continuous
 62
     7
370
    35
100
AcDbLine
 10
1328.2528739078
 20
712.5796940554
 30
0.0
 11
1336.7528739078
 21
712.5796940554
 31
0.0
  0
ARC
  5
223
330
1F
100
AcDbEntity
  8
0
  6
Continuous
 62
     7
370
    35
100
AcDbCircle
 10
1336.7528739078
 20
715.8296940554
 30
0.0
 40
3.25
100
AcDbArc
 50
270.0
 51
90.0
  0
LINE
  5
224
330
1F
100
AcDbEntity
  8
0
  6
Continuous
 62
     7
370
    35
100
AcDbLine
 10
1328.2528739078
 20
719.0796940554
 30
0.0
 11
1336.7528739078
 21
719.0796940554
 31
0.0
  0
LINE
  5
225
330
1F
100
AcDbEntity
  8
0
  6
Continuous
 62
     7
370
    35
100
AcDbLine
 10
1169.1241942514
 20
736.9296940554
 30
0.0
 11
1343.5028739078
 21
736.9296940554
 31
0.0
  0
ARC
  5
226
330
1F
100
AcDbEntity
  8
0
  6
Continuous
 62
     7
370
    35
100
AcDbCircle
 10
1343.5028739078
 20
731.9296940554
 30
0.0
 40
5.000000000000114
100
AcDbArc
 50
0.0
 51
90.0
  0
LINE
  5
227
330
1F
100
AcDbEntity
  8
0
  6
Continuous
 62
     7
370
    35
100
AcDbLine
 10
1348.5028739078
 20
731.9296940554
 30
0.0
 11
1348.5028739078
 21
616.9296940554
 31
0.0
  0
ARC
  5
228
330
1F
100
AcDbEntity
  8
0
  6
Continuous
 62
     7
370
    35
100
AcDbCircle
 10
1343.5028739078
 20
616.9296940554
 30
0.0
 40
5.0
100
AcDbArc
 50
270.0
 51
0.0
  0
LINE
  5
229
330
1F
100
AcDbEntity
  8
0
  6
Continuous
 62
     7
370
    35
100
AcDbLine
 10
1343.5028739078
 20
611.9296940554
 30
0.0
 11
1248.5028739078
 21
611.9296940554
 31
0.0
  0
ARC
  5
22A
330
1F
100
AcDbEntity
  8
0
  6
Continuous
 62
     7
370
    35
100
AcDbCircle
 10
1248.5028739078
 20
586.9296940554
 30
0.0
 40
25.0
100
AcDbArc
 50
90.0
 51
270.0
  0
LINE
  5
22B
330
1F
100
AcDbEntity
  8
0
  6
Continuous
 62
     7
370
    35
100
AcDbLine
 10
1248.5028739078
 20
561.9296940554
 30
0.0
 11
1343.5028739078
 21
561.9296940554
 31
0.0
  0
ARC
  5
22C
330
1F
100
AcDbEntity
  8
0
  6
Continuous
 62
     7
370
    35
100
AcDbCircle
 10
1343.5028739078
 20
556.9296940554
 30
0.0
 40
5.0
100
AcDbArc
 50
360.0
 51
90.0
  0
LINE
  5
22D
330
1F
100
AcDbEntity
  8
0
  6
Continuous
 62
     7
370
    35
100
AcDbLine
 10
1348.5028739078
 20
556.9296940554
 30
0.0
 11
1348.5028739078
 21
466.9296940554
 31
0.0
  0
ARC
  5
22E
330
1F
100
AcDbEntity
  8
0
  6
Continuous
 62
     7
370
    35
100
AcDbCircle
 10
1343.5028739078
 20
466.9296940554
 30
0.0
 40
5.0
100
AcDbArc
 50
270.0
 51
0.0
  0
LINE
  5
22F
330
1F
100
AcDbEntity
  8
0
  6
Continuous
 62
     7
370
    35
100
AcDbLine
 10
1169.1241942514
 20
461.9296940554
 30
0.0
 11
1343.5028739078
 21
461.9296940554
 31
0.0
  0
ARC
  5
230
330
1F
100
AcDbEntity
  8
0
  6
Continuous
 62
     7
370
    35
100
AcDbCircle
 10
1268.2528739078
 20
715.8296940554
 30
0.0
 40
3.25
100
AcDbArc
 50
90.0
 51
270.0
  0
LINE
  5
231
330
1F
100
AcDbEntity
  8
0
  6
Continuous
 62
     7
370
    35
100
AcDbLine
 10
1268.2528739078
 20
712.5796940554
 30
0.0
 11
1276.7528739078
 21
712.5796940554
 31
0.0
  0
ARC
  5
232
330
1F
100
AcDbEntity
  8
0
  6
Continuous
 62
     7
370
    35
100
AcDbCircle
 10
1276.7528739078
 20
715.8296940554
 30
0.0
 40
3.25
100
AcDbArc
 50
270.0
 51
90.0
  0
LINE
  5
233
330
1F
100
AcDbEntity
  8
0
  6
Continuous
 62
     7
370
    35
100
AcDbLine
 10
1268.2528739078
 20
719.0796940554
 30
0.0
 11
1276.7528739078
 21
719.0796940554
 31
0.0
  0
LINE
  5
234
330
1F
100
AcDbEntity
  8
0
  6
Continuous
 62
     7
370
    35
100
AcDbLine
 10
1147.8815535642
 20
736.9296940554
 30
0.0
 11
1147.8815535642
 21
461.9296940554
 31
0.0
  0
LINE
  5
235
330
1F
100
AcDbEntity
  8
0
  6
Continuous
 62
     7
370
    35
100
AcDbLine
 10
1147.8815535642
 20
736.9296940554
 30
0.0
 11
1167.0028739078
 21
736.9296940554
 31
0.0
  0
LINE
  5
236
330
1F
100
AcDbEntity
  8
0
  6
Continuous
 62
     7
370
    35
100
AcDbLine
 10
1147.8815535642
 20
461.9296940554
 30
0.0
 11
1167.0028739078
 21
461.9296940554
 31
0.0
  0
LINE
  5
237
330
1F
100
AcDbEntity
  8
0
  6
Continuous
 62
     7
370
    35
100
AcDbLine
 10
1147.0028739078
 20
736.9296940554
 30
0.0
 11
1147.0028739078
 21
461.9296940554
 31
0.0
  0
LINE
  5
238
330
1F
100
AcDbEntity
  8
0
  6
Continuous
 62
     7
370
    35
100
AcDbLine
 10
1147.0028739078
 20
736.9296940554
 30
0.0
 11
1147.8815535642
 21
736.9296940554
 31
0.0
  0
LINE
  5
239
330
1F
100
AcDbEntity
  8
0
  6
Continuous
 62
     7
370
    35
100
AcDbLine
 10
1147.0028739078
 20
461.9296940554
 30
0.0
 11
1147.8815535642
 21
461.9296940554
 31
0.0
  0
LINE
  5
23A
330
1F
100
AcDbEntity
  8
0
  6
Continuous
 62
     7
370
    35
100
AcDbLine
 10
1352.0028739078
 20
694.9296940554
 30
0.0
 11
1348.5028739078
 21
694.9296940554
 31
0.0
  0
LINE
  5
23B
330
1F
100
AcDbEntity
  8
0
  6
Continuous
 62
     7
370
    35
100
AcDbLine
 10
1352.0028739078
 20
552.9296940554
 30
0.0
 11
1352.0028739078
 21
694.9296940554
 31
0.0
  0
LINE
  5
23C
330
1F
100
AcDbEntity
  8
0
  6
Continuous
 62
     7
370
    35
100
AcDbLine
 10
1352.0028739078
 20
552.9296940554
 30
0.0
 11
1348.5028739078
 21
552.9296940554
 31
0.0
  0
LINE
  5
23D
330
1F
100
AcDbEntity
  8
0
  6
Continuous
 62
     7
370
    35
100
AcDbLine
 10
1352.0028739078
 20
694.9296940554
 30
0.0
 11
1355.0028739078
 21
694.9296940554
 31
0.0
  0
LINE
  5
23E
330
1F
100
AcDbEntity
  8
0
  6
Continuous
 62
     7
370
    35
100
AcDbLine
 10
1355.0028739078
 20
552.9296940554
 30
0.0
 11
1355.0028739078
 21
694.9296940554
 31
0.0
  0
LINE
  5
23F
330
1F
100
AcDbEntity
  8
0
  6
Continuous
 62
     7
370
    35
100
AcDbLine
 10
1355.0028739078
 20
552.9296940554
 30
0.0
 11
1352.0028739078
 21
552.9296940554
 31
0.0
  0
ENDSEC
  0
SECTION
  2
OBJECTS
  0
DICTIONARY
  5
C
330
0
100
AcDbDictionary
281
     1
  3
ACAD_GROUP
350
D
  3
ACAD_LAYOUT
350
1A
  3
ACAD_MLINESTYLE
350
17
  3
ACAD_PLOTSETTINGS
350
19
  3
ACAD_PLOTSTYLENAME
350
E
  3
ACAD_SCALELIST
350
47
  3
DWGPROPS
350
240
  0
DICTIONARY
  5
D
102
{ACAD_REACTORS
330
C
102
}
330
C
100
AcDbDictionary
281
     1
  0
DICTIONARY
  5
1A
102
{ACAD_REACTORS
330
C
102
}
330
C
100
AcDbDictionary
281
     1
  3
Layout1
350
1E
  3
Layout2
350
26
  3
Model
350
22
  0
DICTIONARY
  5
17
102
{ACAD_REACTORS
330
C
102
}
330
C
100
AcDbDictionary
281
     1
  3
Standard
350
18
  0
DICTIONARY
  5
19
102
{ACAD_REACTORS
330
C
102
}
330
C
100
AcDbDictionary
281
     1
  0
ACDBDICTIONARYWDFLT
  5
E
102
{ACAD_REACTORS
330
C
102
}
330
C
100
AcDbDictionary
281
     1
  3
Normal
350
F
100
AcDbDictionaryWithDefault
340
F
  0
DICTIONARY
  5
47
102
{ACAD_REACTORS
330
C
102
}
330
C
100
AcDbDictionary
281
     1
  3
A0
350
48
  3
A1
350
49
  3
A2
350
4A
  3
A3
350
4B
  3
A4
350
4C
  3
A5
350
4D
  3
A6
350
4E
  3
A7
350
4F
  3
A8
350
50
  3
A9
350
51
  3
B0
350
52
  3
B1
350
53
  3
B2
350
54
  3
B3
350
55
  3
B4
350
56
  3
B5
350
57
  3
B6
350
58
  3
B7
350
59
  3
B8
350
5A
  3
B9
350
5B
  3
C0
350
5C
  3
C1
350
5D
  3
C2
350
5E
  3
C3
350
5F
  3
C4
350
60
  3
C5
350
61
  3
C6
350
62
  3
C7
350
63
  3
C8
350
64
  3
C9
350
65
  3
D0
350
66
  3
D1
350
67
  3
D2
350
68
  0
XRECORD
  5
240
102
{ACAD_REACTORS
330
C
102
}
330
C
100
AcDbXrecord
280
     1
  1
DWGPROPS COOKIE
  2

  3

  4

  6

  7

  8
K8
  9

300
=
301
=
302
=
303
=
304
=
305
=
306
=
307
=
308
=
309
=
 40
0.0
 41
2459346.392142592
 42
2459346.392143495
  1

 90
        0
  0
LAYOUT
  5
1E
102
{ACAD_REACTORS
330
1A
102
}
330
1A
100
AcDbPlotSettings
  1

  2
none_device
  4

  6

 40
0.0
 41
0.0
 42
0.0
 43
0.0
 44
0.0
 45
0.0
 46
0.0
 47
0.0
 48
0.0
 49
0.0
140
0.0
141
0.0
142
1.0
143
1.0
 70
   688
 72
     1
 73
     0
 74
     5
  7

 75
    16
147
1.0
148
0.0
149
0.0
100
AcDbLayout
  1
Layout1
 70
     1
 71
     1
 10
0.0
 20
0.0
 11
420.0
 21
297.0
 12
0.0
 22
0.0
 32
0.0
 14
1.0000000000E+20
 24
1.0000000000E+20
 34
1.0000000000E+20
 15
-1.0000000000E+20
 25
-1.0000000000E+20
 35
-1.0000000000E+20
146
0.0
 13
0.0
 23
0.0
 33
0.0
 16
1.0
 26
0.0
 36
0.0
 17
0.0
 27
1.0
 37
0.0
 76
     0
330
1B
  0
LAYOUT
  5
26
102
{ACAD_REACTORS
330
1A
102
}
330
1A
100
AcDbPlotSettings
  1

  2
none_device
  4

  6

 40
0.0
 41
0.0
 42
0.0
 43
0.0
 44
0.0
 45
0.0
 46
0.0
 47
0.0
 48
0.0
 49
0.0
140
0.0
141
0.0
142
1.0
143
1.0
 70
   688
 72
     1
 73
     0
 74
     5
  7

 75
    16
147
1.0
148
0.0
149
0.0
100
AcDbLayout
  1
Layout2
 70
     1
 71
     2
 10
0.0
 20
0.0
 11
0.0
 21
0.0
 12
0.0
 22
0.0
 32
0.0
 14
0.0
 24
0.0
 34
0.0
 15
0.0
 25
0.0
 35
0.0
146
0.0
 13
0.0
 23
0.0
 33
0.0
 16
1.0
 26
0.0
 36
0.0
 17
0.0
 27
1.0
 37
0.0
 76
     0
330
23
  0
LAYOUT
  5
22
102
{ACAD_REACTORS
330
1A
102
}
330
1A
100
AcDbPlotSettings
  1

  2
none_device
  4
Letter_(8.50_x_11.00_Inches)
  6

 40
6.35
 41
6.35
 42
6.35000508
 43
6.35000508
 44
215.9
 45
279.4
 46
0.0
 47
0.0
 48
0.0
 49
0.0
140
0.0
141
0.0
142
1.0
143
1.0
 70
  1712
 72
     1
 73
     0
 74
     0
  7

 75
     0
147
1.0
148
0.0
149
0.0
100
AcDbLayout
  1
Model
 70
     1
 71
     0
 10
0.0
 20
0.0
 11
297.0
 21
210.0
 12
0.0
 22
0.0
 32
0.0
 14
0.0
 24
0.0
 34
0.0
 15
297.0
 25
210.0
 35
0.0
146
0.0
 13
0.0
 23
0.0
 33
0.0
 16
1.0
 26
0.0
 36
0.0
 17
0.0
 27
1.0
 37
0.0
 76
     0
330
1F
331
29
  0
MLINESTYLE
  5
18
102
{ACAD_REACTORS
330
17
102
}
330
17
100
AcDbMlineStyle
  2
Standard
 70
     0
  3

 62
   256
 51
90.0
 52
90.0
 71
     2
 49
0.5
 62
   256
  6
BYLAYER
 49
-0.5
 62
   256
  6
BYLAYER
  0
ACDBPLACEHOLDER
  5
F
102
{ACAD_REACTORS
330
E
102
}
330
E
  0
SCALE
  5
48
102
{ACAD_REACTORS
330
47
102
}
330
47
100
AcDbScale
 70
     0
300
1:1
140
1.0
141
1.0
290
     1
  0
SCALE
  5
49
102
{ACAD_REACTORS
330
47
102
}
330
47
100
AcDbScale
 70
     0
300
1:2
140
1.0
141
2.0
290
     0
  0
SCALE
  5
4A
102
{ACAD_REACTORS
330
47
102
}
330
47
100
AcDbScale
 70
     0
300
1:4
140
1.0
141
4.0
290
     0
  0
SCALE
  5
4B
102
{ACAD_REACTORS
330
47
102
}
330
47
100
AcDbScale
 70
     0
300
1:5
140
1.0
141
5.0
290
     0
  0
SCALE
  5
4C
102
{ACAD_REACTORS
330
47
102
}
330
47
100
AcDbScale
 70
     0
300
1:8
140
1.0
141
8.0
290
     0
  0
SCALE
  5
4D
102
{ACAD_REACTORS
330
47
102
}
330
47
100
AcDbScale
 70
     0
300
1:10
140
1.0
141
10.0
290
     0
  0
SCALE
  5
4E
102
{ACAD_REACTORS
330
47
102
}
330
47
100
AcDbScale
 70
     0
300
1:16
140
1.0
141
16.0
290
     0
  0
SCALE
  5
4F
102
{ACAD_REACTORS
330
47
102
}
330
47
100
AcDbScale
 70
     0
300
1:20
140
1.0
141
20.0
290
     0
  0
SCALE
  5
50
102
{ACAD_REACTORS
330
47
102
}
330
47
100
AcDbScale
 70
     0
300
1:30
140
1.0
141
30.0
290
     0
  0
SCALE
  5
51
102
{ACAD_REACTORS
330
47
102
}
330
47
100
AcDbScale
 70
     0
300
1:40
140
1.0
141
40.0
290
     0
  0
SCALE
  5
52
102
{ACAD_REACTORS
330
47
102
}
330
47
100
AcDbScale
 70
     0
300
1:50
140
1.0
141
50.0
290
     0
  0
SCALE
  5
53
102
{ACAD_REACTORS
330
47
102
}
330
47
100
AcDbScale
 70
     0
300
1:100
140
1.0
141
100.0
290
     0
  0
SCALE
  5
54
102
{ACAD_REACTORS
330
47
102
}
330
47
100
AcDbScale
 70
     0
300
2:1
140
2.0
141
1.0
290
     0
  0
SCALE
  5
55
102
{ACAD_REACTORS
330
47
102
}
330
47
100
AcDbScale
 70
     0
300
4:1
140
4.0
141
1.0
290
     0
  0
SCALE
  5
56
102
{ACAD_REACTORS
330
47
102
}
330
47
100
AcDbScale
 70
     0
300
8:1
140
8.0
141
1.0
290
     0
  0
SCALE
  5
57
102
{ACAD_REACTORS
330
47
102
}
330
47
100
AcDbScale
 70
     0
300
10:1
140
10.0
141
1.0
290
     0
  0
SCALE
  5
58
102
{ACAD_REACTORS
330
47
102
}
330
47
100
AcDbScale
 70
     0
300
100:1
140
100.0
141
1.0
290
     0
  0
SCALE
  5
59
102
{ACAD_REACTORS
330
47
102
}
330
47
100
AcDbScale
 70
     0
300
1/128" = 1'-0"
140
0.0078125
141
12.0
290
     0
  0
SCALE
  5
5A
102
{ACAD_REACTORS
330
47
102
}
330
47
100
AcDbScale
 70
     0
300
1/64" = 1'-0"
140
0.015625
141
12.0
290
     0
  0
SCALE
  5
5B
102
{ACAD_REACTORS
330
47
102
}
330
47
100
AcDbScale
 70
     0
300
1/32" = 1'-0"
140
0.03125
141
12.0
290
     0
  0
SCALE
  5
5C
102
{ACAD_REACTORS
330
47
102
}
330
47
100
AcDbScale
 70
     0
300
1/16" = 1'-0"
140
0.0625
141
12.0
290
     0
  0
SCALE
  5
5D
102
{ACAD_REACTORS
330
47
102
}
330
47
100
AcDbScale
 70
     0
300
3/32" = 1'-0"
140
0.09375
141
12.0
290
     0
  0
SCALE
  5
5E
102
{ACAD_REACTORS
330
47
102
}
330
47
100
AcDbScale
 70
     0
300
1/8" = 1'-0"
140
0.125
141
12.0
290
     0
  0
SCALE
  5
5F
102
{ACAD_REACTORS
330
47
102
}
330
47
100
AcDbScale
 70
     0
300
3/16" = 1'-0"
140
0.1875
141
12.0
290
     0
  0
SCALE
  5
60
102
{ACAD_REACTORS
330
47
102
}
330
47
100
AcDbScale
 70
     0
300
1/4" = 1'-0"
140
0.25
141
12.0
290
     0
  0
SCALE
  5
61
102
{ACAD_REACTORS
330
47
102
}
330
47
100
AcDbScale
 70
     0
300
3/8" = 1'-0"
140
0.375
141
12.0
290
     0
  0
SCALE
  5
62
102
{ACAD_REACTORS
330
47
102
}
330
47
100
AcDbScale
 70
     0
300
1/2" = 1'-0"
140
0.5
141
12.0
290
     0
  0
SCALE
  5
63
102
{ACAD_REACTORS
330
47
102
}
330
47
100
AcDbScale
 70
     0
300
3/4" = 1'-0"
140
0.75
141
12.0
290
     0
  0
SCALE
  5
64
102
{ACAD_REACTORS
330
47
102
}
330
47
100
AcDbScale
 70
     0
300
1" = 1'-0"
140
1.0
141
12.0
290
     0
  0
SCALE
  5
65
102
{ACAD_REACTORS
330
47
102
}
330
47
100
AcDbScale
 70
     0
300
1-1/2" = 1'-0"
140
1.5
141
12.0
290
     0
  0
SCALE
  5
66
102
{ACAD_REACTORS
330
47
102
}
330
47
100
AcDbScale
 70
     0
300
3" = 1'-0"
140
3.0
141
12.0
290
     0
  0
SCALE
  5
67
102
{ACAD_REACTORS
330
47
102
}
330
47
100
AcDbScale
 70
     0
300
6" = 1'-0"
140
6.0
141
12.0
290
     0
  0
SCALE
  5
68
102
{ACAD_REACTORS
330
47
102
}
330
47
100
AcDbScale
 70
     0
300
1'-0" = 1'-0"
140
12.0
141
12.0
290
     0
  0
ENDSEC
  0
EOF
