  0
SECTION
  2
HEADER
  9
$ACADVER
  1
AC1015
  9
$ACADMAINTVER
 70
     6
  9
$DWGCODEPAGE
  3
ANSI_1254
  9
$INSBASE
 10
0.0
 20
0.0
 30
0.0
  9
$EXTMIN
 10
0.0
 20
0.0
 30
0.0
  9
$EXTMAX
 10
297.0
 20
210.0
 30
0.0
  9
$LIMMIN
 10
0.0
 20
0.0
  9
$LIMMAX
 10
297.0
 20
210.0
  9
$ORTHOMODE
 70
     0
  9
$REGENMODE
 70
     1
  9
$FILLMODE
 70
     1
  9
$QTEXTMODE
 70
     0
  9
$MIRRTEXT
 70
     1
  9
$LTSCALE
 40
1.0
  9
$ATTMODE
 70
     1
  9
$TEXTSIZE
 40
3.0
  9
$TRACEWID
 40
1.0
  9
$TEXTSTYLE
  7
Standard
  9
$CLAYER
  8
0
  9
$CELTYPE
  6
ByLayer
  9
$CECOLOR
 62
   256
  9
$CELTSCALE
 40
1.0
  9
$DISPSILH
 70
     0
  9
$DIMSCALE
 40
1.0
  9
$DIMASZ
 40
3.0
  9
$DIMEXO
 40
1.0
  9
$DIMDLI
 40
3.75
  9
$DIMRND
 40
0.0
  9
$DIMDLE
 40
0.0
  9
$DIMEXE
 40
1.0
  9
$DIMTP
 40
0.0
  9
$DIMTM
 40
0.0
  9
$DIMTXT
 40
3.0
  9
$DIMCEN
 40
2.5
  9
$DIMTSZ
 40
0.0
  9
$DIMTOL
 70
     0
  9
$DIMLIM
 70
     0
  9
$DIMTIH
 70
     1
  9
$DIMTOH
 70
     1
  9
$DIMSE1
 70
     0
  9
$DIMSE2
 70
     0
  9
$DIMTAD
 70
     1
  9
$DIMZIN
 70
     0
  9
$DIMBLK
  1

  9
$DIMASO
 70
     1
  9
$DIMSHO
 70
     1
  9
$DIMPOST
  1

  9
$DIMAPOST
  1

  9
$DIMALT
 70
     0
  9
$DIMALTD
 70
     3
  9
$DIMALTF
 40
0.0393700787
  9
$DIMLFAC
 40
1.0
  9
$DIMTOFL
 70
     1
  9
$DIMTVP
 40
0.0
  9
$DIMTIX
 70
     0
  9
$DIMSOXD
 70
     0
  9
$DIMSAH
 70
     0
  9
$DIMBLK1
  1

  9
$DIMBLK2
  1

  9
$DIMSTYLE
  2
ISO-25
  9
$DIMCLRD
 70
     0
  9
$DIMCLRE
 70
     0
  9
$DIMCLRT
 70
     0
  9
$DIMTFAC
 40
1.0
  9
$DIMGAP
 40
1.524
  9
$DIMJUST
 70
     0
  9
$DIMSD1
 70
     0
  9
$DIMSD2
 70
     0
  9
$DIMTOLJ
 70
     0
  9
$DIMTZIN
 70
     0
  9
$DIMALTZ
 70
     0
  9
$DIMALTTZ
 70
     0
  9
$DIMUPT
 70
     0
  9
$DIMDEC
 70
     3
  9
$DIMTDEC
 70
     3
  9
$DIMALTU
 70
     2
  9
$DIMALTTD
 70
     3
  9
$DIMTXSTY
  7
Standard
  9
$DIMAUNIT
 70
     0
  9
$DIMADEC
 70
     2
  9
$DIMALTRND
 40
0.0
  9
$DIMAZIN
 70
     0
  9
$DIMDSEP
 70
    44
  9
$DIMATFIT
 70
     3
  9
$DIMFRAC
 70
     0
  9
$DIMLDRBLK
  1

  9
$DIMLUNIT
 70
     2
  9
$DIMLWD
 70
    -2
  9
$DIMLWE
 70
    -2
  9
$DIMTMOVE
 70
     0
  9
$LUNITS
 70
     2
  9
$LUPREC
 70
     2
  9
$SKETCHINC
 40
1.0
  9
$FILLETRAD
 40
0.0
  9
$AUNITS
 70
     0
  9
$AUPREC
 70
     2
  9
$MENU
  1
.
  9
$ELEVATION
 40
0.0
  9
$PELEVATION
 40
0.0
  9
$THICKNESS
 40
0.0
  9
$LIMCHECK
 70
     0
  9
$CHAMFERA
 40
0.0
  9
$CHAMFERB
 40
0.0
  9
$CHAMFERC
 40
0.0
  9
$CHAMFERD
 40
0.0
  9
$SKPOLY
 70
     0
  9
$TDCREATE
 40
2460165.958242581
  9
$TDUCREATE
 40
2460165.833242581
  9
$TDUPDATE
 40
2460165.958243056
  9
$TDUUPDATE
 40
2460165.833243056
  9
$TDINDWG
 40
0.0000000116
  9
$TDUSRTIMER
 40
0.0000000116
  9
$USRTIMER
 70
     1
  9
$ANGBASE
 50
0.0
  9
$ANGDIR
 70
     0
  9
$PDMODE
 70
     0
  9
$PDSIZE
 40
-1.0
  9
$PLINEWID
 40
0.0
  9
$SPLFRAME
 70
     0
  9
$SPLINETYPE
 70
     6
  9
$SPLINESEGS
 70
     8
  9
$HANDSEED
  5
F2
  9
$SURFTAB1
 70
     6
  9
$SURFTAB2
 70
     6
  9
$SURFTYPE
 70
     6
  9
$SURFU
 70
     6
  9
$SURFV
 70
     6
  9
$UCSBASE
  2

  9
$UCSNAME
  2

  9
$UCSORG
 10
0.0
 20
0.0
 30
0.0
  9
$UCSXDIR
 10
1.0
 20
0.0
 30
0.0
  9
$UCSYDIR
 10
0.0
 20
1.0
 30
0.0
  9
$UCSORTHOREF
  2

  9
$UCSORTHOVIEW
 70
     0
  9
$UCSORGTOP
 10
0.0
 20
0.0
 30
0.0
  9
$UCSORGBOTTOM
 10
0.0
 20
0.0
 30
0.0
  9
$UCSORGLEFT
 10
0.0
 20
0.0
 30
0.0
  9
$UCSORGRIGHT
 10
0.0
 20
0.0
 30
0.0
  9
$UCSORGFRONT
 10
0.0
 20
0.0
 30
0.0
  9
$UCSORGBACK
 10
0.0
 20
0.0
 30
0.0
  9
$PUCSBASE
  2

  9
$PUCSNAME
  2

  9
$PUCSORG
 10
0.0
 20
0.0
 30
0.0
  9
$PUCSXDIR
 10
1.0
 20
0.0
 30
0.0
  9
$PUCSYDIR
 10
0.0
 20
1.0
 30
0.0
  9
$PUCSORTHOREF
  2

  9
$PUCSORTHOVIEW
 70
     0
  9
$PUCSORGTOP
 10
0.0
 20
0.0
 30
0.0
  9
$PUCSORGBOTTOM
 10
0.0
 20
0.0
 30
0.0
  9
$PUCSORGLEFT
 10
0.0
 20
0.0
 30
0.0
  9
$PUCSORGRIGHT
 10
0.0
 20
0.0
 30
0.0
  9
$PUCSORGFRONT
 10
0.0
 20
0.0
 30
0.0
  9
$PUCSORGBACK
 10
0.0
 20
0.0
 30
0.0
  9
$USERI1
 70
     0
  9
$USERI2
 70
     0
  9
$USERI3
 70
     0
  9
$USERI4
 70
     0
  9
$USERI5
 70
     0
  9
$USERR1
 40
0.0
  9
$USERR2
 40
0.0
  9
$USERR3
 40
0.0
  9
$USERR4
 40
0.0
  9
$USERR5
 40
0.0
  9
$WORLDVIEW
 70
     1
  9
$SHADEDGE
 70
     3
  9
$SHADEDIF
 70
    70
  9
$TILEMODE
 70
     1
  9
$MAXACTVP
 70
    64
  9
$PINSBASE
 10
0.0
 20
0.0
 30
0.0
  9
$PLIMCHECK
 70
     0
  9
$PEXTMIN
 10
1.0000000000E+20
 20
1.0000000000E+20
 30
1.0000000000E+20
  9
$PEXTMAX
 10
-1.0000000000E+20
 20
-1.0000000000E+20
 30
-1.0000000000E+20
  9
$PLIMMIN
 10
0.0
 20
0.0
  9
$PLIMMAX
 10
420.0
 20
297.0
  9
$UNITMODE
 70
     0
  9
$VISRETAIN
 70
     1
  9
$PLINEGEN
 70
     0
  9
$PSLTSCALE
 70
     1
  9
$TREEDEPTH
 70
  3020
  9
$CMLSTYLE
  2
Standard
  9
$CMLJUST
 70
     0
  9
$CMLSCALE
 40
20.0
  9
$PROXYGRAPHICS
 70
     1
  9
$MEASUREMENT
 70
     1
  9
$CELWEIGHT
370
    -1
  9
$ENDCAPS
280
     0
  9
$JOINSTYLE
280
     0
  9
$LWDISPLAY
290
     1
  9
$INSUNITS
 70
     4
  9
$HYPERLINKBASE
  1

  9
$STYLESHEET
  1

  9
$XEDIT
290
     1
  9
$CEPSNTYPE
380
     0
  9
$PSTYLEMODE
290
     1
  9
$FINGERPRINTGUID
  2
{cac143f4-5107-4215-bbfa-7003fe918e0f}
  9
$VERSIONGUID
  2
{FAEB1C32-E019-11D5-929B-00C0DF256EC4}
  9
$EXTNAMES
290
     1
  9
$PSVPSCALE
 40
0.0
  9
$OLESTARTUP
290
     0
  0
ENDSEC
  0
SECTION
  2
CLASSES
  0
CLASS
  1
ACDBDICTIONARYWDFLT
  2
AcDbDictionaryWithDefault
  3
ObjectDBX Classes
 90
        0
280
     0
281
     0
  0
CLASS
  1
VISUALSTYLE
  2
AcDbVisualStyle
  3
ObjectDBX Classes
 90
     4095
280
     0
281
     0
  0
CLASS
  1
MATERIAL
  2
AcDbMaterial
  3
ObjectDBX Classes
 90
     1153
280
     0
281
     0
  0
CLASS
  1
SCALE
  2
AcDbScale
  3
ObjectDBX Classes
 90
     1153
280
     0
281
     0
  0
CLASS
  1
TABLESTYLE
  2
AcDbTableStyle
  3
ObjectDBX Classes
 90
     4095
280
     0
281
     0
  0
CLASS
  1
MLEADERSTYLE
  2
AcDbMLeaderStyle
  3
ACDB_MLEADERSTYLE_CLASS
 90
     4095
280
     0
281
     0
  0
CLASS
  1
SUN
  2
AcDbSun
  3
SCENEOE
 90
     1153
280
     0
281
     0
  0
CLASS
  1
ACDBPLACEHOLDER
  2
AcDbPlaceHolder
  3
ObjectDBX Classes
 90
        0
280
     0
281
     0
  0
CLASS
  1
LAYOUT
  2
AcDbLayout
  3
ObjectDBX Classes
 90
        0
280
     0
281
     0
  0
ENDSEC
  0
SECTION
  2
TABLES
  0
TABLE
  2
VPORT
  5
8
330
0
100
AcDbSymbolTable
 70
     1
  0
VPORT
  5
29
330
8
100
AcDbSymbolTableRecord
100
AcDbViewportTableRecord
  2
*Active
 70
     0
 10
0.0
 20
0.0
 11
1.0
 21
1.0
 12
148.5
 22
105.0
 13
0.0
 23
0.0
 14
10.0
 24
10.0
 15
10.0
 25
10.0
 16
0.0
 26
0.0
 36
1.0
 17
0.0
 27
0.0
 37
0.0
 40
210.0
 41
1.4142857143
 42
50.0
 43
0.0
 44
0.0
 50
0.0
 51
0.0
 71
     0
 72
  2000
 73
     1
 74
     3
 75
     0
 76
     0
 77
     0
 78
     0
281
     0
 65
     1
110
0.0
120
0.0
130
0.0
111
1.0
121
0.0
131
0.0
112
0.0
122
1.0
132
0.0
 79
     0
146
0.0
  0
ENDTAB
  0
TABLE
  2
LTYPE
  5
5
330
0
100
AcDbSymbolTable
 70
     6
  0
LTYPE
  5
14
330
5
100
AcDbSymbolTableRecord
100
AcDbLinetypeTableRecord
  2
ByBlock
 70
     0
  3

 72
    65
 73
     0
 40
0.0
  0
LTYPE
  5
15
330
5
100
AcDbSymbolTableRecord
100
AcDbLinetypeTableRecord
  2
ByLayer
 70
     0
  3

 72
    65
 73
     0
 40
0.0
  0
LTYPE
  5
16
330
5
100
AcDbSymbolTableRecord
100
AcDbLinetypeTableRecord
  2
Continuous
 70
     0
  3
Solid line
 72
    65
 73
     0
 40
0.0
  0
LTYPE
  5
5E
330
5
100
AcDbSymbolTableRecord
100
AcDbLinetypeTableRecord
  2
HIDDEN
 70
     0
  3
Hidden __ __ __ __ __ __ __ __ __ __ __ __ __ __
 72
    65
 73
     2
 40
1.905
 49
1.27
 74
     0
 49
-0.635
 74
     0
  0
LTYPE
  5
5F
330
5
100
AcDbSymbolTableRecord
100
AcDbLinetypeTableRecord
  2
PHANTOM
 70
     0
  3
Phantom ______  __  __  ______  __  __  ______
 72
    65
 73
     6
 40
12.7
 49
6.35
 74
     0
 49
-1.27
 74
     0
 49
1.27
 74
     0
 49
-1.27
 74
     0
 49
1.27
 74
     0
 49
-1.27
 74
     0
  0
LTYPE
  5
60
330
5
100
AcDbSymbolTableRecord
100
AcDbLinetypeTableRecord
  2
CENTER
 70
     0
  3
Center ____ _ ____ _ ____ _ ____ _ ____ _ ____
 72
    65
 73
     4
 40
10.16
 49
6.35
 74
     0
 49
-1.27
 74
     0
 49
1.27
 74
     0
 49
-1.27
 74
     0
  0
LTYPE
  5
61
330
5
100
AcDbSymbolTableRecord
100
AcDbLinetypeTableRecord
  2
CENTERX2
 70
     0
  3
Center (2x) ________  __  ________  __  _____
 72
    65
 73
     4
 40
20.32
 49
12.7
 74
     0
 49
-2.54
 74
     0
 49
2.54
 74
     0
 49
-2.54
 74
     0
  0
LTYPE
  5
62
330
5
100
AcDbSymbolTableRecord
100
AcDbLinetypeTableRecord
  2
DOT2
 70
     0
  3
Dot (.5x) ........................................
 72
    65
 73
     2
 40
0.635
 49
0.0
 74
     0
 49
-0.635
 74
     0
  0
ENDTAB
  0
TABLE
  2
LAYER
  5
2
330
0
100
AcDbSymbolTable
 70
     1
  0
LAYER
  5
10
330
2
100
AcDbSymbolTableRecord
100
AcDbLayerTableRecord
  2
0
 70
     0
 62
     7
  6
Continuous
370
    -3
390
F
  0
ENDTAB
  0
TABLE
  2
STYLE
  5
3
330
0
100
AcDbSymbolTable
 70
     2
  0
STYLE
  5
11
330
3
100
AcDbSymbolTableRecord
100
AcDbTextStyleTableRecord
  2
Standard
 70
     0
 40
0.0
 41
1.0
 50
0.0
 71
     0
 42
3.0
  3
txt
  4

  0
STYLE
  5
63
330
3
100
AcDbSymbolTableRecord
100
AcDbTextStyleTableRecord
  2
SLDTEXTSTYLE0
 70
     0
 40
0.0
 41
0.605
 50
0.0
 71
     0
 42
3.0
  3
TXT
  4

  0
ENDTAB
  0
TABLE
  2
VIEW
  5
6
330
0
100
AcDbSymbolTable
 70
     0
  0
ENDTAB
  0
TABLE
  2
UCS
  5
7
330
0
100
AcDbSymbolTable
 70
     0
  0
ENDTAB
  0
TABLE
  2
APPID
  5
9
330
0
100
AcDbSymbolTable
 70
     1
  0
APPID
  5
12
330
9
100
AcDbSymbolTableRecord
100
AcDbRegAppTableRecord
  2
ACAD
 70
     0
  0
ENDTAB
  0
TABLE
  2
DIMSTYLE
  5
A
330
0
100
AcDbSymbolTable
 70
     1
100
AcDbDimStyleTable
  0
DIMSTYLE
105
27
330
A
100
AcDbSymbolTableRecord
100
AcDbDimStyleTableRecord
  2
ISO-25
 70
     0
 41
2.5
 42
0.625
 43
3.75
 44
1.25
 73
     0
 74
     0
 77
     1
 78
     8
140
2.5
141
2.5
143
0.0393700787
147
0.625
171
     3
172
     1
178
     0
271
     2
272
     2
274
     3
278
    44
283
     0
284
     8
340
11
  0
ENDTAB
  0
TABLE
  2
BLOCK_RECORD
  5
1
330
0
100
AcDbSymbolTable
 70
     1
  0
BLOCK_RECORD
  5
1F
330
1
100
AcDbSymbolTableRecord
100
AcDbBlockTableRecord
  2
*Model_Space
340
22
  0
BLOCK_RECORD
  5
1B
330
1
100
AcDbSymbolTableRecord
100
AcDbBlockTableRecord
  2
*Paper_Space
340
1E
  0
BLOCK_RECORD
  5
23
330
1
100
AcDbSymbolTableRecord
100
AcDbBlockTableRecord
  2
*Paper_Space0
340
26
  0
ENDTAB
  0
ENDSEC
  0
SECTION
  2
BLOCKS
  0
BLOCK
  5
20
330
1F
100
AcDbEntity
  8
0
100
AcDbBlockBegin
  2
*Model_Space
 70
     0
 10
0.0
 20
0.0
 30
0.0
  3
*Model_Space
  1

  0
ENDBLK
  5
21
330
1F
100
AcDbEntity
  8
0
100
AcDbBlockEnd
  0
BLOCK
  5
1C
330
1B
100
AcDbEntity
 67
     1
  8
0
100
AcDbBlockBegin
  2
*Paper_Space
 70
     0
 10
0.0
 20
0.0
 30
0.0
  3
*Paper_Space
  1

  0
ENDBLK
  5
1D
330
1B
100
AcDbEntity
 67
     1
  8
0
100
AcDbBlockEnd
  0
BLOCK
  5
24
330
23
100
AcDbEntity
  8
0
100
AcDbBlockBegin
  2
*Paper_Space0
 70
     0
 10
0.0
 20
0.0
 30
0.0
  3
*Paper_Space0
  1

  0
ENDBLK
  5
25
330
23
100
AcDbEntity
  8
0
100
AcDbBlockEnd
  0
ENDSEC
  0
SECTION
  2
ENTITIES
  0
MTEXT
  5
64
330
1F
100
AcDbEntity
  8
0
  6
Continuous
 62
     7
370
     0
100
AcDbMText
 10
-437.472799158
 20
294.7315366868
 30
0.0
 40
52.9166666667
 41
0.0
 71
     1
 72
     1
  1
DKP
  7
SLDTEXTSTYLE0
 73
     1
 44
1.0
  0
MTEXT
  5
65
330
1F
100
AcDbEntity
  8
0
  6
Continuous
 62
     7
370
     0
100
AcDbMText
 10
-437.472799158
 20
224.1759838466
 30
0.0
 40
52.9166666667
 41
0.0
 71
     1
 72
     1
  1
1,5 mm
  7
SLDTEXTSTYLE0
 73
     1
 44
1.0
  0
LINE
  5
66
330
1F
100
AcDbEntity
  8
0
  6
CENTER
 62
     7
100
AcDbLine
 10
-492.0059560294
 20
455.1818895987
 30
0.0
 11
-492.0059560294
 21
-238.9626170507
 31
0.0
  0
LINE
  5
67
330
1F
100
AcDbEntity
  8
0
  6
CENTER
 62
     7
100
AcDbLine
 10
1292.2696147075
 20
-238.9626170507
 30
0.0
 11
1292.2696147075
 21
455.1818895987
 31
0.0
  0
ARC
  5
68
330
1F
100
AcDbEntity
  8
0
  6
Continuous
 62
     7
370
    35
100
AcDbCircle
 10
1294.3418680322
 20
431.8964328384
 30
0.0
 40
15.00000000000045
100
AcDbArc
 50
0.0
 51
45.0
  0
LINE
  5
69
330
1F
100
AcDbEntity
  8
0
  6
Continuous
 62
     7
370
    35
100
AcDbLine
 10
1309.3418680322
 20
431.8964328384
 30
0.0
 11
1309.3418680322
 21
-215.6771602904
 31
0.0
  0
ARC
  5
6A
330
1F
100
AcDbEntity
  8
0
  6
Continuous
 62
     7
370
    35
100
AcDbCircle
 10
1294.3418680322
 20
-215.6771602904
 30
0.0
 40
15.00000000000045
100
AcDbArc
 50
315.0
 51
0.0
  0
LINE
  5
6B
330
1F
100
AcDbEntity
  8
0
  6
Continuous
 62
     7
370
    35
100
AcDbLine
 10
1273.7352663144
 20
-257.4969654438
 30
0.0
 11
1304.94846975
 21
-226.2837620082
 31
0.0
  0
ARC
  5
6C
330
1F
100
AcDbEntity
  8
0
  6
Continuous
 62
     7
370
    35
100
AcDbCircle
 10
1263.1286645966
 20
-246.890363726
 30
0.0
 40
14.99999999999994
100
AcDbArc
 50
270.0
 51
315.0
  0
LINE
  5
6D
330
1F
100
AcDbEntity
  8
0
  6
Continuous
 62
     7
370
    35
100
AcDbLine
 10
-462.8650059185
 20
-261.890363726
 30
0.0
 11
1263.1286645966
 21
-261.890363726
 31
0.0
  0
ARC
  5
6E
330
1F
100
AcDbEntity
  8
0
  6
Continuous
 62
     7
370
    35
100
AcDbCircle
 10
-462.8650059185
 20
-246.890363726
 30
0.0
 40
15.00000000000022
100
AcDbArc
 50
225.0
 51
270.0
  0
LINE
  5
6F
330
1F
100
AcDbEntity
  8
0
  6
Continuous
 62
     7
370
    35
100
AcDbLine
 10
-504.6848110719
 20
-226.2837620082
 30
0.0
 11
-473.4716076363
 21
-257.4969654438
 31
0.0
  0
ARC
  5
70
330
1F
100
AcDbEntity
  8
0
  6
Continuous
 62
     7
370
    35
100
AcDbCircle
 10
-494.0782093541
 20
-215.6771602904
 30
0.0
 40
14.9999999999998
100
AcDbArc
 50
180.0
 51
225.0
  0
LINE
  5
71
330
1F
100
AcDbEntity
  8
0
  6
Continuous
 62
     7
370
    35
100
AcDbLine
 10
-509.0782093541
 20
431.8964328384
 30
0.0
 11
-509.0782093541
 21
-215.6771602904
 31
0.0
  0
ARC
  5
72
330
1F
100
AcDbEntity
  8
0
  6
Continuous
 62
     7
370
    35
100
AcDbCircle
 10
-494.0782093541
 20
431.8964328384
 30
0.0
 40
14.99999999999984
100
AcDbArc
 50
135.0
 51
180.0
  0
LINE
  5
73
330
1F
100
AcDbEntity
  8
0
  6
Continuous
 62
     7
370
    35
100
AcDbLine
 10
-473.4716076363
 20
473.7162379918
 30
0.0
 11
-504.6848110719
 21
442.5030345562
 31
0.0
  0
ARC
  5
74
330
1F
100
AcDbEntity
  8
0
  6
Continuous
 62
     7
370
    35
100
AcDbCircle
 10
-462.8650059185
 20
463.109636274
 30
0.0
 40
15.00000000000016
100
AcDbArc
 50
90.0
 51
135.0
  0
LINE
  5
75
330
1F
100
AcDbEntity
  8
0
  6
Continuous
 62
     7
370
    35
100
AcDbLine
 10
-462.8650059185
 20
478.109636274
 30
0.0
 11
1263.1286645966
 21
478.109636274
 31
0.0
  0
ARC
  5
76
330
1F
100
AcDbEntity
  8
0
  6
Continuous
 62
     7
370
    35
100
AcDbCircle
 10
1263.1286645966
 20
463.109636274
 30
0.0
 40
15.0
100
AcDbArc
 50
45.0
 51
90.0
  0
LINE
  5
77
330
1F
100
AcDbEntity
  8
0
  6
Continuous
 62
     7
370
    35
100
AcDbLine
 10
1304.94846975
 20
442.5030345562
 30
0.0
 11
1273.7352663144
 21
473.7162379918
 31
0.0
  0
CIRCLE
  5
78
330
1F
100
AcDbEntity
  8
0
  6
Continuous
 62
     7
370
    35
100
AcDbCircle
 10
-432.3681706609
 20
108.109636274
 30
0.0
 40
2.750000000000043
  0
CIRCLE
  5
79
330
1F
100
AcDbEntity
  8
0
  6
Continuous
 62
     7
370
    35
100
AcDbCircle
 10
-432.3681706609
 20
-181.890363726
 30
0.0
 40
2.750000000000028
  0
CIRCLE
  5
7A
330
1F
100
AcDbEntity
  8
0
  6
Continuous
 62
     7
370
    35
100
AcDbCircle
 10
1232.6318293391
 20
398.109636274
 30
0.0
 40
2.75
  0
CIRCLE
  5
7B
330
1F
100
AcDbEntity
  8
0
  6
Continuous
 62
     7
370
    35
100
AcDbCircle
 10
1232.6318293391
 20
-181.890363726
 30
0.0
 40
2.750000000000028
  0
CIRCLE
  5
7C
330
1F
100
AcDbEntity
  8
0
  6
Continuous
 62
     7
370
    35
100
AcDbCircle
 10
1232.6318293391
 20
108.109636274
 30
0.0
 40
2.750000000000043
  0
CIRCLE
  5
7D
330
1F
100
AcDbEntity
  8
0
  6
Continuous
 62
     7
370
    35
100
AcDbCircle
 10
400.1318293391
 20
398.109636274
 30
0.0
 40
2.749999999999943
  0
CIRCLE
  5
7E
330
1F
100
AcDbEntity
  8
0
  6
Continuous
 62
     7
370
    35
100
AcDbCircle
 10
400.1318293391
 20
-181.890363726
 30
0.0
 40
2.749999999999972
  0
CIRCLE
  5
7F
330
1F
100
AcDbEntity
  8
0
  6
Continuous
 62
     7
370
    35
100
AcDbCircle
 10
400.1318293391
 20
108.109636274
 30
0.0
 40
2.750000000000114
  0
CIRCLE
  5
80
330
1F
100
AcDbEntity
  8
0
  6
Continuous
 62
     7
370
    35
100
AcDbCircle
 10
-432.3681706609
 20
398.109636274
 30
0.0
 40
2.75
  0
MTEXT
  5
81
330
1F
100
AcDbEntity
  8
0
  6
Continuous
 62
     7
370
    18
100
AcDbMText
 10
-495.8335552147
 20
107.1565097392
 30
0.0
 40
3.0
 41
0.0
 71
     2
 72
     1
  1
DOWN  35.00°  R 1.50
  7
SLDTEXTSTYLE0
 11
-3.491481338843133E-15
 21
1.0
 31
0.0
 73
     1
 44
1.0
  0
MTEXT
  5
82
330
1F
100
AcDbEntity
  8
0
  6
Continuous
 62
     7
370
    18
100
AcDbMText
 10
1288.4420155222
 20
107.1565097392
 30
0.0
 40
3.0
 41
0.0
 71
     2
 72
     1
  1
DOWN  35.00°  R 1.50
  7
SLDTEXTSTYLE0
 11
-3.491481338843133E-15
 21
1.0
 31
0.0
 73
     1
 44
1.0
  0
LINE
  5
83
330
1F
100
AcDbEntity
  8
0
  6
Continuous
 62
     7
370
    35
100
AcDbLine
 10
1034.8566965922
 20
1175.224779417
 30
0.0
 11
1035.4650662737
 21
1175.8768816884
 31
0.0
  0
SPLINE
  5
84
330
1F
100
AcDbEntity
  8
0
  6
Continuous
 62
     7
370
    35
100
AcDbSpline
210
0.0
220
0.0
230
1.0
 70
     8
 71
     3
 72
     9
 73
     5
 74
     0
 42
0.00000001
 43
0.00000001
 40
0.0
 40
0.0
 40
0.0
 40
0.0
 40
0.5113816493004703
 40
1.0
 40
1.0
 40
1.0
 40
1.0
 10
-713.3805754126352
 20
1642.477167590989
 30
0.0
 10
-713.345076819018
 20
1642.358177004444
 30
0.0
 10
-713.2756597922914
 20
1642.125492498247
 30
0.0
 10
-713.232567384758
 20
1641.696889831162
 30
0.0
 10
-713.2115116436612
 20
1641.487466702866
 30
0.0
  0
LINE
  5
85
330
1F
100
AcDbEntity
  8
0
  6
Continuous
 62
     7
370
    35
100
AcDbLine
 10
-713.2115116437
 20
1642.2360206877
 30
0.0
 11
-221.5517732426
 21
1926.0651461938
 31
0.0
  0
LINE
  5
86
330
1F
100
AcDbEntity
  8
0
  6
Continuous
 62
     7
370
    35
100
AcDbLine
 10
-196.1656970012
 20
1926.0651461938
 30
0.0
 11
-221.5517732426
 21
1926.0651461938
 31
0.0
  0
ARC
  5
87
330
1F
100
AcDbEntity
  8
0
  6
Continuous
 62
     7
370
    35
100
AcDbCircle
 10
-195.7335419291
 20
1904.425917887
 30
0.0
 40
21.64354314147251
100
AcDbArc
 50
61.9597608846
 51
91.1440967459
  0
LINE
  5
88
330
1F
100
AcDbEntity
  8
0
  6
Continuous
 62
     7
370
    35
100
AcDbLine
 10
1034.9027334229
 20
1218.9712745696
 30
0.0
 11
-185.5590952834
 21
1923.5288913511
 31
0.0
  0
ARC
  5
89
330
1F
100
AcDbEntity
  8
0
  6
Continuous
 62
     7
370
    35
100
AcDbCircle
 10
1031.7892757677
 20
1212.0996180774
 30
0.0
 40
7.544089177415365
100
AcDbArc
 50
5.6947992512
 51
65.6253417064
  0
LINE
  5
8A
330
1F
100
AcDbEntity
  8
0
  6
Continuous
 62
     7
370
    35
100
AcDbLine
 10
1039.2961317051
 20
1198.1931438587
 30
0.0
 11
1039.2961317051
 21
1212.8482137309
 31
0.0
  0
LINE
  5
8B
330
1F
100
AcDbEntity
  8
0
  6
Continuous
 62
     7
370
    35
100
AcDbLine
 10
1039.2961317051
 20
1198.1931438587
 30
0.0
 11
547.636393304
 21
914.3640183526
 31
0.0
  0
LINE
  5
8C
330
1F
100
AcDbEntity
  8
0
  6
Continuous
 62
     7
370
    35
100
AcDbLine
 10
522.2503170626
 20
914.3640183526
 30
0.0
 11
547.636393304
 21
914.3640183526
 31
0.0
  0
ARC
  5
8D
330
1F
100
AcDbEntity
  8
0
  6
Continuous
 62
     7
370
    35
100
AcDbCircle
 10
521.8181619905
 20
936.0032466594
 30
0.0
 40
21.64354314158239
100
AcDbArc
 50
241.9597608846
 51
271.1440967458
  0
LINE
  5
8E
330
1F
100
AcDbEntity
  8
0
  6
Continuous
 62
     7
370
    35
100
AcDbLine
 10
511.6437153448
 20
916.9002731952
 30
0.0
 11
-708.8181133615
 21
1621.4578899767
 31
0.0
  0
ARC
  5
8F
330
1F
100
AcDbEntity
  8
0
  6
Continuous
 62
     7
370
    35
100
AcDbCircle
 10
-705.7046557063
 20
1628.3295464689
 30
0.0
 40
7.544089177397336
100
AcDbArc
 50
185.6947992512
 51
245.6253417065
  0
LINE
  5
90
330
1F
100
AcDbEntity
  8
0
  6
Continuous
 62
     7
370
    35
100
AcDbLine
 10
-713.2115116437
 20
1642.2360206877
 30
0.0
 11
-713.2115116437
 21
1627.5809508154
 31
0.0
  0
LWPOLYLINE
  5
91
330
1F
100
AcDbEntity
  8
0
  6
Continuous
 62
     7
370
    35
100
AcDbPolyline
 90
       18
 70
   128
 43
0.0
 10
749.7641617202
 20
1079.2621445732
 10
750.5979226051
 20
1078.9324327637
 10
751.5817008572
 20
1078.7988584652
 10
752.5826317723
 20
1078.8794616269
 10
753.465534084
 20
1079.1633563451
 10
754.1111669428
 20
1079.6122010651
 10
754.4323340534
 20
1080.1653768203
 10
754.385660018
 20
1080.7481741596
 10
753.9774484236
 20
1081.2818830731
 10
753.2628305082
 20
1081.6944232146
 10
752.3383193809
 20
1081.9300787519
 10
751.3287753924
 20
1081.957023099
 10
750.3705430524
 20
1081.7716172725
 10
749.5930369483
 20
1081.3989013567
 10
749.1012635876
 20
1080.8892127012
 10
748.9616396878
 20
1080.3113875832
 10
749.1930222302
 20
1079.7434644868
 10
749.7641617202
 20
1079.2621445732
  0
LWPOLYLINE
  5
92
330
1F
100
AcDbEntity
  8
0
  6
Continuous
 62
     7
370
    35
100
AcDbPolyline
 90
       18
 70
   128
 43
0.0
 10
954.8251282643
 20
1197.6413207875
 10
955.6588891492
 20
1197.311608978
 10
956.6426674013
 20
1197.1780346795
 10
957.6435983164
 20
1197.2586378412
 10
958.5265006281
 20
1197.5425325594
 10
959.1721334869
 20
1197.9913772794
 10
959.4933005975
 20
1198.5445530346
 10
959.4466265621
 20
1199.1273503739
 10
959.0384149677
 20
1199.6610592874
 10
958.3237970523
 20
1200.0735994289
 10
957.399285925
 20
1200.3092549662
 10
956.3897419365
 20
1200.3361993133
 10
955.4315095965
 20
1200.1507934868
 10
954.6540034924
 20
1199.778077571
 10
954.1622301317
 20
1199.2683889155
 10
954.0226062319
 20
1198.6905637975
 10
954.2539887743
 20
1198.1226407011
 10
954.8251282643
 20
1197.6413207875
  0
LWPOLYLINE
  5
93
330
1F
100
AcDbEntity
  8
0
  6
Continuous
 62
     7
370
    35
100
AcDbPolyline
 90
       18
 70
   128
 43
0.0
 10
-632.6295954995
 20
1640.5427214513
 10
-631.7958346146
 20
1640.2130096418
 10
-630.8120563625
 20
1640.0794353433
 10
-629.8111254474
 20
1640.160038505
 10
-628.9282231357
 20
1640.4439332232
 10
-628.2825902769
 20
1640.8927779432
 10
-627.9614231663
 20
1641.4459536984
 10
-628.0080972017
 20
1642.0287510378
 10
-628.4163087961
 20
1642.5624599512
 10
-629.1309267115
 20
1642.9750000927
 10
-630.0554378388
 20
1643.21065563
 10
-631.0649818273
 20
1643.2375999771
 10
-632.0232141673
 20
1643.0521941507
 10
-632.8007202714
 20
1642.6794782348
 10
-633.2924936321
 20
1642.1697895793
 10
-633.4321175319
 20
1641.5919644613
 10
-633.2007349895
 20
1641.024041365
 10
-632.6295954995
 20
1640.5427214513
  0
LWPOLYLINE
  5
94
330
1F
100
AcDbEntity
  8
0
  6
Continuous
 62
     7
370
    35
100
AcDbPolyline
 90
       18
 70
   128
 43
0.0
 10
-222.5076624113
 20
1877.3010738799
 10
-221.6739015264
 20
1876.9713620704
 10
-220.6901232743
 20
1876.8377877719
 10
-219.6891923592
 20
1876.9183909336
 10
-218.8062900475
 20
1877.2022856518
 10
-218.1606571887
 20
1877.6511303718
 10
-217.8394900781
 20
1878.204306127
 10
-217.8861641135
 20
1878.7871034663
 10
-218.2943757079
 20
1879.3208123798
 10
-219.0089936233
 20
1879.7333525213
 10
-219.9335047506
 20
1879.9690080586
 10
-220.9430487391
 20
1879.9959524057
 10
-221.9012810791
 20
1879.8105465792
 10
-222.6787871832
 20
1879.4378306634
 10
-223.1705605439
 20
1878.9281420079
 10
-223.3101844437
 20
1878.3503168899
 10
-223.0788019013
 20
1877.7823937935
 10
-222.5076624113
 20
1877.3010738799
  0
LWPOLYLINE
  5
95
330
1F
100
AcDbEntity
  8
0
  6
Continuous
 62
     7
370
    35
100
AcDbPolyline
 90
       18
 70
   128
 43
0.0
 10
-427.5686289554
 20
1758.9218976656
 10
-426.7348680705
 20
1758.5921858561
 10
-425.7510898184
 20
1758.4586115576
 10
-424.7501589033
 20
1758.5392147193
 10
-423.8672565916
 20
1758.8231094375
 10
-423.2216237328
 20
1759.2719541575
 10
-422.9004566222
 20
1759.8251299127
 10
-422.9471306576
 20
1760.4079272521
 10
-423.355342252
 20
1760.9416361655
 10
-424.0699601674
 20
1761.354176307
 10
-424.9944712947
 20
1761.5898318443
 10
-426.0040152832
 20
1761.6167761914
 10
-426.9622476232
 20
1761.4313703649
 10
-427.7397537273
 20
1761.0586544491
 10
-428.231527088
 20
1760.5489657936
 10
-428.3711509878
 20
1759.9711406756
 10
-428.1397684454
 20
1759.4032175793
 10
-427.5686289554
 20
1758.9218976656
  0
LWPOLYLINE
  5
96
330
1F
100
AcDbEntity
  8
0
  6
Continuous
 62
     7
370
    35
100
AcDbPolyline
 90
       18
 70
   128
 43
0.0
 10
-43.9632001617
 20
1300.7128449051
 10
-43.1294392768
 20
1300.3831330956
 10
-42.1456610247
 20
1300.2495587971
 10
-41.1447301096
 20
1300.3301619588
 10
-40.2618277979
 20
1300.614056677
 10
-39.6161949391
 20
1301.062901397
 10
-39.2950278285
 20
1301.6160771522
 10
-39.3417018639
 20
1302.1988744916
 10
-39.7499134583
 20
1302.732583405
 10
-40.4645313737
 20
1303.1451235465
 10
-41.389042501
 20
1303.3807790838
 10
-42.3985864895
 20
1303.4077234309
 10
-43.3568188295
 20
1303.2223176045
 10
-44.1343249336
 20
1302.8496016886
 10
-44.6260982943
 20
1302.3399130331
 10
-44.7657221941
 20
1301.7620879151
 10
-44.5343396517
 20
1301.1941648188
 10
-43.9632001617
 20
1300.7128449051
  0
LWPOLYLINE
  5
97
330
1F
100
AcDbEntity
  8
0
  6
Continuous
 62
     7
370
    35
100
AcDbPolyline
 90
       18
 70
   128
 43
0.0
 10
366.1587329265
 20
1537.4711973337
 10
366.9924938114
 20
1537.1414855242
 10
367.9762720635
 20
1537.0079112257
 10
368.9772029786
 20
1537.0885143874
 10
369.8601052903
 20
1537.3724091056
 10
370.5057381491
 20
1537.8212538256
 10
370.8269052597
 20
1538.3744295808
 10
370.7802312243
 20
1538.9572269201
 10
370.3720196299
 20
1539.4909358336
 10
369.6574017145
 20
1539.9034759751
 10
368.7328905872
 20
1540.1391315124
 10
367.7233465987
 20
1540.1660758595
 10
366.7651142587
 20
1539.980670033
 10
365.9876081546
 20
1539.6079541172
 10
365.4958347939
 20
1539.0982654617
 10
365.3562108941
 20
1538.5204403437
 10
365.5875934365
 20
1537.9525172473
 10
366.1587329265
 20
1537.4711973337
  0
LWPOLYLINE
  5
98
330
1F
100
AcDbEntity
  8
0
  6
Continuous
 62
     7
370
    35
100
AcDbPolyline
 90
       18
 70
   128
 43
0.0
 10
161.0977663824
 20
1419.0920211194
 10
161.9315272673
 20
1418.7623093099
 10
162.9153055194
 20
1418.6287350114
 10
163.9162364345
 20
1418.7093381731
 10
164.7991387462
 20
1418.9932328913
 10
165.444771605
 20
1419.4420776113
 10
165.7659387156
 20
1419.9952533665
 10
165.7192646802
 20
1420.5780507059
 10
165.3110530858
 20
1421.1117596193
 10
164.5964351704
 20
1421.5242997608
 10
163.6719240431
 20
1421.7599552981
 10
162.6623800546
 20
1421.7868996452
 10
161.7041477146
 20
1421.6014938187
 10
160.9266416105
 20
1421.2287779029
 10
160.4348682498
 20
1420.7190892474
 10
160.29524435
 20
1420.1412641294
 10
160.5266268924
 20
1419.5733410331
 10
161.0977663824
 20
1419.0920211194
  0
LWPOLYLINE
  5
99
330
1F
100
AcDbEntity
  8
0
  6
Continuous
 62
     7
370
    35
100
AcDbPolyline
 90
       18
 70
   128
 43
0.0
 10
544.7031951761
 20
960.8829683589
 10
545.536956061
 20
960.5532565494
 10
546.5207343131
 20
960.4196822509
 10
547.5216652282
 20
960.5002854126
 10
548.4045675399
 20
960.7841801308
 10
549.0502003987
 20
961.2330248508
 10
549.3713675093
 20
961.786200606
 10
549.3246934739
 20
962.3689979454
 10
548.9164818795
 20
962.9027068588
 10
548.2018639641
 20
963.3152470003
 10
547.2773528368
 20
963.5509025376
 10
546.2678088483
 20
963.5778468847
 10
545.3095765083
 20
963.3924410583
 10
544.5320704042
 20
963.0197251424
 10
544.0402970435
 20
962.5100364869
 10
543.9006731437
 20
961.9322113689
 10
544.1320556861
 20
961.3642882726
 10
544.7031951761
 20
960.8829683589
  0
LINE
  5
9A
330
1F
100
AcDbEntity
  8
0
  6
Continuous
 62
     7
370
    35
100
AcDbLine
 10
547.636393304
 20
914.3640183526
 30
0.0
 11
547.636393304
 21
913.1392071347
 31
0.0
  0
LINE
  5
9B
330
1F
100
AcDbEntity
  8
0
  6
Continuous
 62
     7
370
    35
100
AcDbLine
 10
522.2503170626
 20
914.3640183526
 30
0.0
 11
522.2503170626
 21
913.1392071347
 31
0.0
  0
LINE
  5
9C
330
1F
100
AcDbEntity
  8
0
  6
Continuous
 62
     7
370
    35
100
AcDbLine
 10
522.2503170626
 20
913.1392071347
 30
0.0
 11
547.636393304
 21
913.1392071347
 31
0.0
  0
ARC
  5
9D
330
1F
100
AcDbEntity
  8
0
  6
Continuous
 62
     7
370
    35
100
AcDbCircle
 10
569.3350919261
 20
920.8879243597
 30
0.0
 40
12.64702322335466
100
AcDbArc
 50
251.0929327549
 51
298.0477000876
  0
LINE
  5
9E
330
1F
100
AcDbEntity
  8
0
  6
Continuous
 62
     7
370
    35
100
AcDbLine
 10
549.6785832929
 20
913.695122963
 30
0.0
 11
565.2370249835
 21
908.9232662474
 31
0.0
  0
LINE
  5
9F
330
1F
100
AcDbEntity
  8
0
  6
Continuous
 62
     7
370
    35
100
AcDbLine
 10
1039.6874204422
 20
1196.5712034626
 30
0.0
 11
549.6785832929
 21
913.695122963
 31
0.0
  0
LINE
  5
A0
330
1F
100
AcDbEntity
  8
0
  6
Continuous
 62
     7
370
    35
100
AcDbLine
 10
1038.1407040022
 20
1181.9247491449
 30
0.0
 11
1039.6874204422
 21
1196.5712034626
 31
0.0
  0
ARC
  5
A1
330
1F
100
AcDbEntity
  8
0
  6
Continuous
 62
     7
370
    35
100
AcDbCircle
 10
1028.0788011258
 20
1182.7801791701
 30
0.0
 40
10.09820033581929
100
AcDbArc
 50
300.3779763962
 51
355.1405857104
  0
LINE
  5
A2
330
1F
100
AcDbEntity
  8
0
  6
Continuous
 62
     7
370
    35
100
AcDbLine
 10
575.2818041314
 20
909.7262125573
 30
0.0
 11
1033.1854831501
 21
1174.0683797736
 31
0.0
  0
LINE
  5
A3
330
1F
100
AcDbEntity
  8
0
  6
Continuous
 62
     7
370
    35
100
AcDbLine
 10
549.0702136114
 20
913.0430206916
 30
0.0
 11
549.6785832929
 21
913.695122963
 31
0.0
  0
LINE
  5
A4
330
1F
100
AcDbEntity
  8
0
  6
Continuous
 62
     7
370
    35
100
AcDbLine
 10
564.628655302
 20
908.2711639759
 30
0.0
 11
565.2370249835
 21
908.9232662474
 31
0.0
  0
LINE
  5
A5
330
1F
100
AcDbEntity
  8
0
  6
Continuous
 62
     7
370
    35
100
AcDbLine
 10
549.0702136114
 20
913.0430206916
 30
0.0
 11
564.628655302
 21
908.2711639759
 31
0.0
  0
LINE
  5
A6
330
1F
100
AcDbEntity
  8
0
  6
Continuous
 62
     7
370
    35
100
AcDbLine
 10
511.6437153448
 20
915.6754619773
 30
0.0
 11
511.6437153448
 21
916.9002731952
 31
0.0
  0
ARC
  5
A7
330
1F
100
AcDbEntity
  8
0
  6
Continuous
 62
     7
370
    35
100
AcDbCircle
 10
521.8181619905
 20
934.7784354415
 30
0.0
 40
21.64354314149374
100
AcDbArc
 50
241.9597608846
 51
271.1440967458
  0
SPLINE
  5
A8
330
1F
100
AcDbEntity
  8
0
  6
Continuous
 62
     7
370
    35
100
AcDbSpline
210
0.0
220
0.0
230
1.0
 70
     8
 71
     3
 72
    10
 73
     6
 74
     0
 42
0.00000001
 43
0.00000001
 40
0.0
 40
0.0
 40
0.0
 40
0.0
 40
0.5
 40
0.5
 40
1.0
 40
1.0
 40
1.0
 40
1.0
 10
547.6363933040265
 20
914.3640183525547
 30
0.0
 10
547.9899418845014
 20
914.3187599358403
 30
0.0
 10
548.3434592774441
 20
914.2351390122246
 30
0.0
 10
549.0305646163254
 20
914.0061722425023
 30
0.0
 10
549.3640930741076
 20
913.8608823975416
 30
0.0
 10
549.6785832929307
 20
913.6951229629765
 30
0.0
  0
SPLINE
  5
A9
330
1F
100
AcDbEntity
  8
0
  6
Continuous
 62
     7
370
    35
100
AcDbSpline
210
0.0
220
0.0
230
1.0
 70
     8
 71
     3
 72
    10
 73
     6
 74
     0
 42
0.00000001
 43
0.00000001
 40
0.0
 40
0.0
 40
0.0
 40
0.0
 40
0.5
 40
0.5
 40
1.0
 40
1.0
 40
1.0
 40
1.0
 10
1039.687420442189
 20
1196.571203462568
 30
0.0
 10
1039.648080431994
 20
1196.895803731552
 30
0.0
 10
1039.58970218284
 20
1197.199934410932
 30
0.0
 10
1039.452897261215
 20
1197.746582849492
 30
0.0
 10
1039.374530076902
 20
1197.989044607526
 30
0.0
 10
1039.296131705055
 20
1198.19314385866
 30
0.0
  0
SPLINE
  5
AA
330
1F
100
AcDbEntity
  8
0
  6
Continuous
 62
     7
370
    35
100
AcDbSpline
210
0.0
220
0.0
230
1.0
 70
     8
 71
     3
 72
    10
 73
     6
 74
     0
 42
0.00000001
 43
0.00000001
 40
0.0
 40
0.0
 40
0.0
 40
0.0
 40
0.5
 40
0.5
 40
1.0
 40
1.0
 40
1.0
 40
1.0
 10
547.6363933040265
 20
913.1392071347261
 30
0.0
 10
547.8819613448796
 20
913.1562885661311
 30
0.0
 10
548.1275013950494
 20
913.1541878817704
 30
0.0
 10
548.6086291688041
 20
913.1191249141189
 30
0.0
 10
548.8441752443481
 20
913.0861912899256
 30
0.0
 10
549.0702136114212
 20
913.0430206915654
 30
0.0
  0
LINE
  5
AB
330
1F
100
AcDbEntity
  8
0
  6
Continuous
 62
     7
370
    35
100
AcDbLine
 10
575.2818041314
 20
909.7262125573
 30
0.0
 11
574.6734344499
 21
909.0741102859
 31
0.0
  0
ARC
  5
AC
330
1F
100
AcDbEntity
  8
0
  6
Continuous
 62
     7
370
    35
100
AcDbCircle
 10
568.7267222446
 20
920.2358220883
 30
0.0
 40
12.64702322335733
100
AcDbArc
 50
251.0929327549
 51
298.0477000876
  0
LINE
  5
AD
330
1F
100
AcDbEntity
  8
0
  6
Continuous
 62
     7
370
    35
100
AcDbLine
 10
-708.8181133615
 20
1621.4578899767
 30
0.0
 11
-708.8181133615
 21
1620.2330787589
 31
0.0
  0
LINE
  5
AE
330
1F
100
AcDbEntity
  8
0
  6
Continuous
 62
     7
370
    35
100
AcDbLine
 10
511.6437153448
 20
915.6754619773
 30
0.0
 11
-708.8181133615
 21
1620.2330787589
 31
0.0
  0
LINE
  5
AF
330
1F
100
AcDbEntity
  8
0
  6
Continuous
 62
     7
370
    35
100
AcDbLine
 10
1032.5771134686
 20
1173.4162775022
 30
0.0
 11
1033.1854831501
 21
1174.0683797736
 31
0.0
  0
LINE
  5
B0
330
1F
100
AcDbEntity
  8
0
  6
Continuous
 62
     7
370
    35
100
AcDbLine
 10
574.6734344499
 20
909.0741102859
 30
0.0
 11
1032.5771134686
 21
1173.4162775022
 31
0.0
  0
LWPOLYLINE
  5
B1
330
1F
100
AcDbEntity
  8
0
  6
Continuous
 62
     7
370
    35
100
AcDbPolyline
 90
        3
 70
   128
 43
0.0
 10
548.5922824727
 20
961.9032794486
 10
549.1634219627
 20
961.4219595349
 10
549.1848896383
 20
961.3931239037
  0
ARC
  5
B2
330
1F
100
AcDbEntity
  8
0
  6
Continuous
 62
     7
370
    35
100
AcDbCircle
 10
546.6762318442
 20
958.7948775281
 30
0.0
 40
3.651494558404213
100
AcDbArc
 50
58.3498964195
 51
134.6382643396
  0
LWPOLYLINE
  5
B3
330
1F
100
AcDbEntity
  8
0
  6
Continuous
 62
     7
370
    35
100
AcDbPolyline
 90
        3
 70
   128
 43
0.0
 10
753.6532490168
 20
1080.2824556629
 10
754.2243885068
 20
1079.8011357492
 10
754.2458561824
 20
1079.772300118
  0
ARC
  5
B4
330
1F
100
AcDbEntity
  8
0
  6
Continuous
 62
     7
370
    35
100
AcDbCircle
 10
751.7371983883
 20
1077.1740537424
 30
0.0
 40
3.65149455841193
100
AcDbArc
 50
58.3498964196
 51
134.6382643393
  0
ARC
  5
B5
330
1F
100
AcDbEntity
  8
0
  6
Continuous
 62
     7
370
    35
100
AcDbCircle
 10
1027.6820632775
 20
1181.9273345686
 30
0.0
 40
9.81833024305421
100
AcDbArc
 50
299.9049339742
 51
316.9483528606
  0
LWPOLYLINE
  5
B6
330
1F
100
AcDbEntity
  8
0
  6
Continuous
 62
     7
370
    35
100
AcDbPolyline
 90
        3
 70
   128
 43
0.0
 10
958.7142155609
 20
1198.6616318772
 10
959.2853550509
 20
1198.1803119635
 10
959.3068227264
 20
1198.1514763323
  0
ARC
  5
B7
330
1F
100
AcDbEntity
  8
0
  6
Continuous
 62
     7
370
    35
100
AcDbCircle
 10
956.7981649324
 20
1195.5532299567
 30
0.0
 40
3.651494558419837
100
AcDbArc
 50
58.3498964196
 51
134.638264339
  0
LWPOLYLINE
  5
B8
330
1F
100
AcDbEntity
  8
0
  6
Continuous
 62
     7
370
    35
100
AcDbPolyline
 90
        3
 70
   128
 43
0.0
 10
-40.0741128651
 20
1301.7331559948
 10
-39.5029733751
 20
1301.2518360811
 10
-39.4815057067
 20
1301.2230004599
  0
ARC
  5
B9
330
1F
100
AcDbEntity
  8
0
  6
Continuous
 62
     7
370
    35
100
AcDbCircle
 10
-41.9901634943
 20
1298.624754066
 30
0.0
 40
3.651494565871187
100
AcDbArc
 50
58.3498964773
 51
134.6382640397
  0
LWPOLYLINE
  5
BA
330
1F
100
AcDbEntity
  8
0
  6
Continuous
 62
     7
370
    35
100
AcDbPolyline
 90
        3
 70
   128
 43
0.0
 10
164.986853679
 20
1420.1123322091
 10
165.557993169
 20
1419.6310122954
 10
165.5794608446
 20
1419.6021766642
  0
ARC
  5
BB
330
1F
100
AcDbEntity
  8
0
  6
Continuous
 62
     7
370
    35
100
AcDbCircle
 10
163.0708030505
 20
1417.0039302886
 30
0.0
 40
3.651494558410962
100
AcDbArc
 50
58.3498964196
 51
134.6382643393
  0
LWPOLYLINE
  5
BC
330
1F
100
AcDbEntity
  8
0
  6
Continuous
 62
     7
370
    35
100
AcDbPolyline
 90
        3
 70
   128
 43
0.0
 10
370.0478202231
 20
1538.4915084234
 10
370.6189597131
 20
1538.0101885097
 10
370.6404273962
 20
1537.9813528681
  0
ARC
  5
BD
330
1F
100
AcDbEntity
  8
0
  6
Continuous
 62
     7
370
    35
100
AcDbCircle
 10
368.1317695954
 20
1535.3831065108
 30
0.0
 40
3.651494551309264
100
AcDbArc
 50
58.3498963646
 51
134.6382646245
  0
LINE
  5
BE
330
1F
100
AcDbEntity
  8
0
  6
Continuous
 62
     7
370
    35
100
AcDbLine
 10
-713.2115116437
 20
1626.3561395976
 30
0.0
 11
-713.2115116437
 21
1627.5809508154
 31
0.0
  0
ARC
  5
BF
330
1F
100
AcDbEntity
  8
0
  6
Continuous
 62
     7
370
    35
100
AcDbCircle
 10
-705.7046557063
 20
1627.1047352511
 30
0.0
 40
7.544089177408059
100
AcDbArc
 50
185.6947992512
 51
245.6253417064
  0
LWPOLYLINE
  5
C0
330
1F
100
AcDbEntity
  8
0
  6
Continuous
 62
     7
370
    35
100
AcDbPolyline
 90
        3
 70
   128
 43
0.0
 10
-628.7405082029
 20
1641.563032541
 10
-628.1693687129
 20
1641.0817126273
 10
-628.1479010373
 20
1641.0528769961
  0
ARC
  5
C1
330
1F
100
AcDbEntity
  8
0
  6
Continuous
 62
     7
370
    35
100
AcDbCircle
 10
-630.6565588314
 20
1638.4546306205
 30
0.0
 40
3.65149455839827
100
AcDbArc
 50
58.3498964195
 51
134.6382643398
  0
LINE
  5
C2
330
1F
100
AcDbEntity
  8
0
  6
Continuous
 62
     7
370
    35
100
AcDbLine
 10
-713.6028003808
 20
1642.9719426642
 30
0.0
 11
-223.5939632315
 21
1925.8480231638
 31
0.0
  0
SPLINE
  5
C3
330
1F
100
AcDbEntity
  8
0
  6
Continuous
 62
     7
370
    35
100
AcDbSpline
210
0.0
220
0.0
230
1.0
 70
     8
 71
     3
 72
    10
 73
     6
 74
     0
 42
0.00000001
 43
0.00000001
 40
0.0
 40
0.0
 40
0.0
 40
0.0
 40
0.5
 40
0.5
 40
1.0
 40
1.0
 40
1.0
 40
1.0
 10
-221.5517732426325
 20
1926.065146193763
 30
0.0
 10
-221.9053218231074
 20
1926.110404610477
 30
0.0
 10
-222.2588392160498
 20
1926.117264511932
 30
0.0
 10
-222.9459445549313
 20
1926.046249342623
 30
0.0
 10
-223.2794730127134
 20
1925.968361589442
 30
0.0
 10
-223.5939632315367
 20
1925.848023163834
 30
0.0
  0
SPLINE
  5
C4
330
1F
100
AcDbEntity
  8
0
  6
Continuous
 62
     7
370
    35
100
AcDbSpline
210
0.0
220
0.0
230
1.0
 70
     8
 71
     3
 72
    10
 73
     6
 74
     0
 42
0.00000001
 43
0.00000001
 40
0.0
 40
0.0
 40
0.0
 40
0.0
 40
0.5
 40
0.5
 40
1.0
 40
1.0
 40
1.0
 40
1.0
 10
-713.6028003807949
 20
1642.971942664243
 30
0.0
 10
-713.5634603705998
 20
1642.933440255431
 30
0.0
 10
-713.5050821214461
 20
1642.852487174194
 30
0.0
 10
-713.3682771998218
 20
1642.605820674665
 30
0.0
 10
-713.2899100155078
 20
1642.440119938791
 30
0.0
 10
-713.2115116436612
 20
1642.236020687658
 30
0.0
  0
LINE
  5
C5
330
1F
100
AcDbEntity
  8
0
  6
Continuous
 62
     7
370
    35
100
AcDbLine
 10
-713.6028003808
 20
1642.9719426642
 30
0.0
 11
-713.3805754126
 21
1642.477167591
 31
0.0
  0
ARC
  5
C6
330
1F
100
AcDbEntity
  8
0
  6
Continuous
 62
     7
370
    35
100
AcDbCircle
 10
-203.1559197836
 20
1833.0560825731
 30
0.0
 40
93.4456982506917
100
AcDbArc
 50
112.6569558116
 51
119.5186005076
  0
LINE
  5
C7
330
1F
100
AcDbEntity
  8
0
  6
Continuous
 62
     7
370
    35
100
AcDbLine
 10
-223.5939632315
 20
1925.8480231638
 30
0.0
 11
-239.1524049221
 21
1919.2903656584
 31
0.0
  0
ARC
  5
C8
330
1F
100
AcDbEntity
  8
0
  6
Continuous
 62
     7
370
    35
100
AcDbCircle
 10
-700.7331960119
 20
1636.4434944529
 30
0.0
 40
15.00464801263694
100
AcDbArc
 50
115.1114027747
 51
138.9926454357
  0
LINE
  5
C9
330
1F
100
AcDbEntity
  8
0
  6
Continuous
 62
     7
370
    35
100
AcDbLine
 10
-707.1008630887
 20
1650.029968535
 30
0.0
 11
-249.19718407
 21
1914.3721357513
 31
0.0
  0
LINE
  5
CA
330
1F
100
AcDbEntity
  8
0
  6
Continuous
 62
     7
370
    35
100
AcDbLine
 10
-712.0560839408
 20
1646.2888827609
 30
0.0
 11
-713.6028003808
 21
1642.9719426642
 31
0.0
  0
LWPOLYLINE
  5
CB
330
1F
100
AcDbEntity
  8
0
  6
Continuous
 62
     7
370
    35
100
AcDbPolyline
 90
        3
 70
   128
 43
0.0
 10
-423.6795416588
 20
1759.9422087553
 10
-423.1084021688
 20
1759.4608888416
 10
-423.0869344932
 20
1759.4320532104
  0
ARC
  5
CC
330
1F
100
AcDbEntity
  8
0
  6
Continuous
 62
     7
370
    35
100
AcDbCircle
 10
-425.5955922873
 20
1756.8338068348
 30
0.0
 40
3.651494558399571
100
AcDbArc
 50
58.3498964195
 51
134.6382643398
  0
LWPOLYLINE
  5
CD
330
1F
100
AcDbEntity
  8
0
  6
Continuous
 62
     7
370
    35
100
AcDbPolyline
 90
        3
 70
   128
 43
0.0
 10
-218.6185751147
 20
1878.3213849696
 10
-218.0474356247
 20
1877.8400650559
 10
-218.0259679491
 20
1877.8112294247
  0
ARC
  5
CE
330
1F
100
AcDbEntity
  8
0
  6
Continuous
 62
     7
370
    35
100
AcDbCircle
 10
-220.5346257432
 20
1875.2129830491
 30
0.0
 40
3.651494558403483
100
AcDbArc
 50
58.3498964195
 51
134.6382643397
  0
LINE
  5
CF
330
1F
100
AcDbEntity
  8
0
  6
Continuous
 62
     7
370
    35
100
AcDbLine
 10
1266.056159514
 20
726.8668364435
 30
0.0
 11
1266.056159514
 21
728.3668364435
 31
0.0
  0
LINE
  5
D0
330
1F
100
AcDbEntity
  8
0
  6
Continuous
 62
     7
370
    35
100
AcDbLine
 10
-459.9375110011
 20
728.3668364435
 30
0.0
 11
-459.9375110011
 21
726.8668364435
 31
0.0
  0
LINE
  5
D1
330
1F
100
AcDbEntity
  8
0
  6
Continuous
 62
     7
370
    35
100
AcDbLine
 10
1266.056159514
 20
726.8668364435
 30
0.0
 11
-459.9375110011
 21
726.8668364435
 31
0.0
  0
LINE
  5
D2
330
1F
100
AcDbEntity
  8
0
  6
Continuous
 62
     7
370
    35
100
AcDbLine
 10
1266.056159514
 20
728.3668364435
 30
0.0
 11
-459.9375110011
 21
728.3668364435
 31
0.0
  0
LINE
  5
D3
330
1F
100
AcDbEntity
  8
0
  6
Continuous
 62
     7
370
    35
100
AcDbLine
 10
1276.6627612318
 20
728.3668364435
 30
0.0
 11
1276.6627612318
 21
726.8668364435
 31
0.0
  0
LINE
  5
D4
330
1F
100
AcDbEntity
  8
0
  6
Continuous
 62
     7
370
    35
100
AcDbLine
 10
1276.6627612318
 20
726.8668364435
 30
0.0
 11
1266.056159514
 21
726.8668364435
 31
0.0
  0
LINE
  5
D5
330
1F
100
AcDbEntity
  8
0
  6
Continuous
 62
     7
370
    35
100
AcDbLine
 10
1266.056159514
 20
728.3668364435
 30
0.0
 11
1276.6627612318
 21
728.3668364435
 31
0.0
  0
LINE
  5
D6
330
1F
100
AcDbEntity
  8
0
  6
Continuous
 62
     7
370
    35
100
AcDbLine
 10
-470.5441127189
 20
726.8668364435
 30
0.0
 11
-470.5441127189
 21
728.3668364435
 31
0.0
  0
LINE
  5
D7
330
1F
100
AcDbEntity
  8
0
  6
Continuous
 62
     7
370
    35
100
AcDbLine
 10
-459.9375110011
 20
726.8668364435
 30
0.0
 11
-470.5441127189
 21
726.8668364435
 31
0.0
  0
LINE
  5
D8
330
1F
100
AcDbEntity
  8
0
  6
Continuous
 62
     7
370
    35
100
AcDbLine
 10
-470.5441127189
 20
728.3668364435
 30
0.0
 11
-459.9375110011
 21
728.3668364435
 31
0.0
  0
LINE
  5
D9
330
1F
100
AcDbEntity
  8
0
  6
Continuous
 62
     7
370
    35
100
AcDbLine
 10
-488.4947793769
 20
726.8668364435
 30
0.0
 11
-488.4947793769
 21
728.3668364435
 31
0.0
  0
LINE
  5
DA
330
1F
100
AcDbEntity
  8
0
  6
Continuous
 62
     7
370
    35
100
AcDbLine
 10
-488.4947793769
 20
726.8668364435
 30
0.0
 11
-470.5441127189
 21
726.8668364435
 31
0.0
  0
LINE
  5
DB
330
1F
100
AcDbEntity
  8
0
  6
Continuous
 62
     7
370
    35
100
AcDbLine
 10
-488.4947793769
 20
728.3668364435
 30
0.0
 11
-470.5441127189
 21
728.3668364435
 31
0.0
  0
LINE
  5
DC
330
1F
100
AcDbEntity
  8
0
  6
Continuous
 62
     7
370
    35
100
AcDbLine
 10
1294.6134278898
 20
728.3668364435
 30
0.0
 11
1294.6134278898
 21
726.8668364435
 31
0.0
  0
LINE
  5
DD
330
1F
100
AcDbEntity
  8
0
  6
Continuous
 62
     7
370
    35
100
AcDbLine
 10
1276.6627612318
 20
726.8668364435
 30
0.0
 11
1294.6134278898
 21
726.8668364435
 31
0.0
  0
LINE
  5
DE
330
1F
100
AcDbEntity
  8
0
  6
Continuous
 62
     7
370
    35
100
AcDbLine
 10
1276.6627612318
 20
728.3668364435
 30
0.0
 11
1294.6134278898
 21
728.3668364435
 31
0.0
  0
SPLINE
  5
DF
330
1F
100
AcDbEntity
  8
0
  6
Continuous
 62
     7
370
    35
100
AcDbSpline
210
0.0
220
0.0
230
1.0
 70
     8
 71
     3
 72
    10
 73
     6
 74
     0
 42
0.00000001
 43
0.00000001
 40
0.0
 40
0.0
 40
0.0
 40
0.0
 40
0.5
 40
0.5
 40
1.0
 40
1.0
 40
1.0
 40
1.0
 10
-490.2155086859828
 20
727.8242925763545
 30
0.0
 10
-489.9653129316551
 20
727.9994815295629
 30
0.0
 10
-489.6881930415884
 20
728.1361419358119
 30
0.0
 10
-489.1056005092955
 20
728.3198326556541
 30
0.0
 10
-488.8002119960276
 20
728.3668364434885
 30
0.0
 10
-488.4947793769281
 20
728.3668364434885
 30
0.0
  0
LINE
  5
E0
330
1F
100
AcDbEntity
  8
0
  6
Continuous
 62
     7
370
    35
100
AcDbLine
 10
-490.215508686
 20
727.8242925764
 30
0.0
 11
-489.3551440315
 21
726.5955645099
 31
0.0
  0
SPLINE
  5
E1
330
1F
100
AcDbEntity
  8
0
  6
Continuous
 62
     7
370
    35
100
AcDbSpline
210
0.0
220
0.0
230
1.0
 70
     8
 71
     3
 72
    10
 73
     6
 74
     0
 42
0.00000001
 43
0.00000001
 40
0.0
 40
0.0
 40
0.0
 40
0.0
 40
0.5
 40
0.5
 40
1.0
 40
1.0
 40
1.0
 40
1.0
 10
-489.3551440314555
 20
726.5955645099215
 30
0.0
 10
-489.2300429965779
 20
726.6831611975808
 30
0.0
 10
-489.0914862092581
 20
726.7514891896502
 30
0.0
 10
-488.8001899431118
 20
726.8433345495713
 30
0.0
 10
-488.6474995413348
 20
726.8668364434886
 30
0.0
 10
-488.4947793769281
 20
726.8668364434886
 30
0.0
  0
SPLINE
  5
E2
330
1F
100
AcDbEntity
  8
0
  6
Continuous
 62
     7
370
    35
100
AcDbSpline
210
0.0
220
0.0
230
1.0
 70
     8
 71
     3
 72
    10
 73
     6
 74
     0
 42
0.00000001
 43
0.00000001
 40
0.0
 40
0.0
 40
0.0
 40
0.0
 40
0.5
 40
0.5
 40
1.0
 40
1.0
 40
1.0
 40
1.0
 10
1294.613427889798
 20
728.3668364434885
 30
0.0
 10
1294.918860508897
 20
728.3668364434885
 30
0.0
 10
1295.224249022165
 20
728.319832655654
 30
0.0
 10
1295.806841554458
 20
728.1361419358118
 30
0.0
 10
1296.083961444525
 20
727.9994815295628
 30
0.0
 10
1296.334157198853
 20
727.8242925763543
 30
0.0
  0
LINE
  5
E3
330
1F
100
AcDbEntity
  8
0
  6
Continuous
 62
     7
370
    35
100
AcDbLine
 10
1295.4737925443
 20
726.5955645099
 30
0.0
 11
1296.3341571989
 21
727.8242925764
 31
0.0
  0
SPLINE
  5
E4
330
1F
100
AcDbEntity
  8
0
  6
Continuous
 62
     7
370
    35
100
AcDbSpline
210
0.0
220
0.0
230
1.0
 70
     8
 71
     3
 72
    10
 73
     6
 74
     0
 42
0.00000001
 43
0.00000001
 40
0.0
 40
0.0
 40
0.0
 40
0.0
 40
0.5
 40
0.5
 40
1.0
 40
1.0
 40
1.0
 40
1.0
 10
1294.613427889798
 20
726.8668364434886
 30
0.0
 10
1294.766148054204
 20
726.8668364434885
 30
0.0
 10
1294.918838455982
 20
726.8433345495713
 30
0.0
 10
1295.210134722128
 20
726.7514891896501
 30
0.0
 10
1295.348691509448
 20
726.6831611975807
 30
0.0
 10
1295.473792544325
 20
726.5955645099215
 30
0.0
  0
LINE
  5
E5
330
1F
100
AcDbEntity
  8
0
  6
Continuous
 62
     7
370
    35
100
AcDbLine
 10
1296.3341571989
 20
727.8242925764
 30
0.0
 11
1306.2419431396
 21
720.8867861737
 31
0.0
  0
LINE
  5
E6
330
1F
100
AcDbEntity
  8
0
  6
Continuous
 62
     7
370
    35
100
AcDbLine
 10
1305.3815784851
 20
719.6580581072
 30
0.0
 11
1306.2419431396
 21
720.8867861737
 31
0.0
  0
LINE
  5
E7
330
1F
100
AcDbEntity
  8
0
  6
Continuous
 62
     7
370
    35
100
AcDbLine
 10
1295.4737925443
 20
726.5955645099
 30
0.0
 11
1305.3815784851
 21
719.6580581072
 31
0.0
  0
LINE
  5
E8
330
1F
100
AcDbEntity
  8
0
  6
Continuous
 62
     7
370
    35
100
AcDbLine
 10
-499.2629299722
 20
719.6580581072
 30
0.0
 11
-489.3551440315
 21
726.5955645099
 31
0.0
  0
LINE
  5
E9
330
1F
100
AcDbEntity
  8
0
  6
Continuous
 62
     7
370
    35
100
AcDbLine
 10
-500.1232946267
 20
720.8867861737
 30
0.0
 11
-499.2629299722
 21
719.6580581072
 31
0.0
  0
LINE
  5
EA
330
1F
100
AcDbEntity
  8
0
  6
Continuous
 62
     7
370
    35
100
AcDbLine
 10
-500.1232946267
 20
720.8867861737
 30
0.0
 11
-490.215508686
 21
727.8242925764
 31
0.0
  0
LINE
  5
EB
330
1F
100
AcDbEntity
  8
0
  6
Continuous
 62
     7
370
    35
100
AcDbLine
 10
-502.8617911565
 20
717.1381083771
 30
0.0
 11
-503.722155811
 21
718.3668364435
 31
0.0
  0
LINE
  5
EC
330
1F
100
AcDbEntity
  8
0
  6
Continuous
 62
     7
370
    35
100
AcDbLine
 10
-503.722155811
 20
718.3668364435
 30
0.0
 11
-500.1232946267
 21
720.8867861737
 31
0.0
  0
LINE
  5
ED
330
1F
100
AcDbEntity
  8
0
  6
Continuous
 62
     7
370
    35
100
AcDbLine
 10
-499.2629299722
 20
719.6580581072
 30
0.0
 11
-502.8617911565
 21
717.1381083771
 31
0.0
  0
LINE
  5
EE
330
1F
100
AcDbEntity
  8
0
  6
Continuous
 62
     7
370
    35
100
AcDbLine
 10
1309.8408043239
 20
718.3668364435
 30
0.0
 11
1308.9804396693
 21
717.1381083771
 31
0.0
  0
LINE
  5
EF
330
1F
100
AcDbEntity
  8
0
  6
Continuous
 62
     7
370
    35
100
AcDbLine
 10
1308.9804396693
 20
717.1381083771
 30
0.0
 11
1305.3815784851
 21
719.6580581072
 31
0.0
  0
LINE
  5
F0
330
1F
100
AcDbEntity
  8
0
  6
Continuous
 62
     7
370
    35
100
AcDbLine
 10
1306.2419431396
 20
720.8867861737
 30
0.0
 11
1309.8408043239
 21
718.3668364435
 31
0.0
  0
ENDSEC
  0
SECTION
  2
OBJECTS
  0
DICTIONARY
  5
C
330
0
100
AcDbDictionary
281
     1
  3
ACAD_GROUP
350
D
  3
ACAD_LAYOUT
350
1A
  3
ACAD_MLINESTYLE
350
17
  3
ACAD_PLOTSETTINGS
350
19
  3
ACAD_PLOTSTYLENAME
350
E
  3
ACAD_SCALELIST
350
47
  3
DWGPROPS
350
F1
  0
DICTIONARY
  5
D
102
{ACAD_REACTORS
330
C
102
}
330
C
100
AcDbDictionary
281
     1
  0
DICTIONARY
  5
1A
102
{ACAD_REACTORS
330
C
102
}
330
C
100
AcDbDictionary
281
     1
  3
Layout1
350
1E
  3
Layout2
350
26
  3
Model
350
22
  0
DICTIONARY
  5
17
102
{ACAD_REACTORS
330
C
102
}
330
C
100
AcDbDictionary
281
     1
  3
Standard
350
18
  0
DICTIONARY
  5
19
102
{ACAD_REACTORS
330
C
102
}
330
C
100
AcDbDictionary
281
     1
  0
ACDBDICTIONARYWDFLT
  5
E
102
{ACAD_REACTORS
330
C
102
}
330
C
100
AcDbDictionary
281
     1
  3
Normal
350
F
100
AcDbDictionaryWithDefault
340
F
  0
DICTIONARY
  5
47
102
{ACAD_REACTORS
330
C
102
}
330
C
100
AcDbDictionary
281
     1
  3
A0
350
48
  3
A1
350
49
  3
A2
350
4A
  3
A3
350
4B
  3
A4
350
4C
  3
A5
350
4D
  3
A6
350
4E
  3
A7
350
4F
  3
A8
350
50
  3
A9
350
51
  3
B0
350
52
  3
B1
350
53
  3
B2
350
54
  3
B3
350
55
  3
B4
350
56
  3
B5
350
57
  3
B6
350
58
  0
XRECORD
  5
F1
102
{ACAD_REACTORS
330
C
102
}
330
C
100
AcDbXrecord
280
     1
  1
DWGPROPS COOKIE
  2

  3

  4

  6

  7

  8
K16-M
  9

300
=
301
=
302
=
303
=
304
=
305
=
306
=
307
=
308
=
309
=
 40
0.0
 41
2460165.833242581
 42
2460165.833243056
  1

 90
        0
  0
LAYOUT
  5
1E
102
{ACAD_REACTORS
330
1A
102
}
330
1A
100
AcDbPlotSettings
  1

  2
none_device
  4

  6

 40
0.0
 41
0.0
 42
0.0
 43
0.0
 44
0.0
 45
0.0
 46
0.0
 47
0.0
 48
0.0
 49
0.0
140
0.0
141
0.0
142
1.0
143
1.0
 70
   688
 72
     1
 73
     0
 74
     5
  7

 75
    16
147
1.0
148
0.0
149
0.0
100
AcDbLayout
  1
Layout1
 70
     1
 71
     1
 10
0.0
 20
0.0
 11
420.0
 21
297.0
 12
0.0
 22
0.0
 32
0.0
 14
1.0000000000E+20
 24
1.0000000000E+20
 34
1.0000000000E+20
 15
-1.0000000000E+20
 25
-1.0000000000E+20
 35
-1.0000000000E+20
146
0.0
 13
0.0
 23
0.0
 33
0.0
 16
1.0
 26
0.0
 36
0.0
 17
0.0
 27
1.0
 37
0.0
 76
     0
330
1B
  0
LAYOUT
  5
26
102
{ACAD_REACTORS
330
1A
102
}
330
1A
100
AcDbPlotSettings
  1

  2
none_device
  4

  6

 40
0.0
 41
0.0
 42
0.0
 43
0.0
 44
0.0
 45
0.0
 46
0.0
 47
0.0
 48
0.0
 49
0.0
140
0.0
141
0.0
142
1.0
143
1.0
 70
   688
 72
     1
 73
     0
 74
     5
  7

 75
    16
147
1.0
148
0.0
149
0.0
100
AcDbLayout
  1
Layout2
 70
     1
 71
     2
 10
0.0
 20
0.0
 11
0.0
 21
0.0
 12
0.0
 22
0.0
 32
0.0
 14
0.0
 24
0.0
 34
0.0
 15
0.0
 25
0.0
 35
0.0
146
0.0
 13
0.0
 23
0.0
 33
0.0
 16
1.0
 26
0.0
 36
0.0
 17
0.0
 27
1.0
 37
0.0
 76
     0
330
23
  0
LAYOUT
  5
22
102
{ACAD_REACTORS
330
1A
102
}
330
1A
100
AcDbPlotSettings
  1

  2
none_device
  4
Letter_(8.50_x_11.00_Inches)
  6

 40
6.35
 41
6.35
 42
6.35000508
 43
6.35000508
 44
215.9
 45
279.4
 46
0.0
 47
0.0
 48
0.0
 49
0.0
140
0.0
141
0.0
142
1.0
143
1.0
 70
  1712
 72
     1
 73
     0
 74
     0
  7

 75
     0
147
1.0
148
0.0
149
0.0
100
AcDbLayout
  1
Model
 70
     1
 71
     0
 10
0.0
 20
0.0
 11
297.0
 21
210.0
 12
0.0
 22
0.0
 32
0.0
 14
0.0
 24
0.0
 34
0.0
 15
297.0
 25
210.0
 35
0.0
146
0.0
 13
0.0
 23
0.0
 33
0.0
 16
1.0
 26
0.0
 36
0.0
 17
0.0
 27
1.0
 37
0.0
 76
     0
330
1F
331
29
  0
MLINESTYLE
  5
18
102
{ACAD_REACTORS
330
17
102
}
330
17
100
AcDbMlineStyle
  2
Standard
 70
     0
  3

 62
   256
 51
90.0
 52
90.0
 71
     2
 49
0.5
 62
   256
  6
BYLAYER
 49
-0.5
 62
   256
  6
BYLAYER
  0
ACDBPLACEHOLDER
  5
F
102
{ACAD_REACTORS
330
E
102
}
330
E
  0
SCALE
  5
48
102
{ACAD_REACTORS
330
47
102
}
330
47
100
AcDbScale
 70
     0
300
1:1
140
1.0
141
1.0
290
     1
  0
SCALE
  5
49
102
{ACAD_REACTORS
330
47
102
}
330
47
100
AcDbScale
 70
     0
300
1:2
140
1.0
141
2.0
290
     0
  0
SCALE
  5
4A
102
{ACAD_REACTORS
330
47
102
}
330
47
100
AcDbScale
 70
     0
300
1:4
140
1.0
141
4.0
290
     0
  0
SCALE
  5
4B
102
{ACAD_REACTORS
330
47
102
}
330
47
100
AcDbScale
 70
     0
300
1:5
140
1.0
141
5.0
290
     0
  0
SCALE
  5
4C
102
{ACAD_REACTORS
330
47
102
}
330
47
100
AcDbScale
 70
     0
300
1:8
140
1.0
141
8.0
290
     0
  0
SCALE
  5
4D
102
{ACAD_REACTORS
330
47
102
}
330
47
100
AcDbScale
 70
     0
300
1:10
140
1.0
141
10.0
290
     0
  0
SCALE
  5
4E
102
{ACAD_REACTORS
330
47
102
}
330
47
100
AcDbScale
 70
     0
300
1:16
140
1.0
141
16.0
290
     0
  0
SCALE
  5
4F
102
{ACAD_REACTORS
330
47
102
}
330
47
100
AcDbScale
 70
     0
300
1:20
140
1.0
141
20.0
290
     0
  0
SCALE
  5
50
102
{ACAD_REACTORS
330
47
102
}
330
47
100
AcDbScale
 70
     0
300
1:30
140
1.0
141
30.0
290
     0
  0
SCALE
  5
51
102
{ACAD_REACTORS
330
47
102
}
330
47
100
AcDbScale
 70
     0
300
1:40
140
1.0
141
40.0
290
     0
  0
SCALE
  5
52
102
{ACAD_REACTORS
330
47
102
}
330
47
100
AcDbScale
 70
     0
300
1:50
140
1.0
141
50.0
290
     0
  0
SCALE
  5
53
102
{ACAD_REACTORS
330
47
102
}
330
47
100
AcDbScale
 70
     0
300
1:100
140
1.0
141
100.0
290
     0
  0
SCALE
  5
54
102
{ACAD_REACTORS
330
47
102
}
330
47
100
AcDbScale
 70
     0
300
2:1
140
2.0
141
1.0
290
     0
  0
SCALE
  5
55
102
{ACAD_REACTORS
330
47
102
}
330
47
100
AcDbScale
 70
     0
300
4:1
140
4.0
141
1.0
290
     0
  0
SCALE
  5
56
102
{ACAD_REACTORS
330
47
102
}
330
47
100
AcDbScale
 70
     0
300
8:1
140
8.0
141
1.0
290
     0
  0
SCALE
  5
57
102
{ACAD_REACTORS
330
47
102
}
330
47
100
AcDbScale
 70
     0
300
10:1
140
10.0
141
1.0
290
     0
  0
SCALE
  5
58
102
{ACAD_REACTORS
330
47
102
}
330
47
100
AcDbScale
 70
     0
300
100:1
140
100.0
141
1.0
290
     0
  0
ENDSEC
  0
EOF
