  0
SECTION
  2
HEADER
  9
$ACADVER
  1
AC1015
  9
$ACADMAINTVER
 70
     6
  9
$DWGCODEPAGE
  3
ANSI_1254
  9
$INSBASE
 10
0.0
 20
0.0
 30
0.0
  9
$EXTMIN
 10
0.0
 20
0.0
 30
0.0
  9
$EXTMAX
 10
297.0
 20
210.0
 30
0.0
  9
$LIMMIN
 10
0.0
 20
0.0
  9
$LIMMAX
 10
297.0
 20
210.0
  9
$ORTHOMODE
 70
     0
  9
$REGENMODE
 70
     1
  9
$FILLMODE
 70
     1
  9
$QTEXTMODE
 70
     0
  9
$MIRRTEXT
 70
     1
  9
$LTSCALE
 40
1.0
  9
$ATTMODE
 70
     1
  9
$TEXTSIZE
 40
3.5277777778
  9
$TRACEWID
 40
1.0
  9
$TEXTSTYLE
  7
Standard
  9
$CLAYER
  8
0
  9
$CELTYPE
  6
ByLayer
  9
$CECOLOR
 62
   256
  9
$CELTSCALE
 40
1.0
  9
$DISPSILH
 70
     0
  9
$DIMSCALE
 40
1.0
  9
$DIMASZ
 40
2.0
  9
$DIMEXO
 40
1.0
  9
$DIMDLI
 40
3.75
  9
$DIMRND
 40
0.0
  9
$DIMDLE
 40
0.0
  9
$DIMEXE
 40
1.0
  9
$DIMTP
 40
0.0
  9
$DIMTM
 40
0.0
  9
$DIMTXT
 40
3.8805555556
  9
$DIMCEN
 40
2.5
  9
$DIMTSZ
 40
0.0
  9
$DIMTOL
 70
     0
  9
$DIMLIM
 70
     0
  9
$DIMTIH
 70
     1
  9
$DIMTOH
 70
     1
  9
$DIMSE1
 70
     0
  9
$DIMSE2
 70
     0
  9
$DIMTAD
 70
     1
  9
$DIMZIN
 70
     0
  9
$DIMBLK
  1

  9
$DIMASO
 70
     1
  9
$DIMSHO
 70
     1
  9
$DIMPOST
  1

  9
$DIMAPOST
  1

  9
$DIMALT
 70
     0
  9
$DIMALTD
 70
     3
  9
$DIMALTF
 40
0.0393700787
  9
$DIMLFAC
 40
10.0
  9
$DIMTOFL
 70
     1
  9
$DIMTVP
 40
0.0
  9
$DIMTIX
 70
     0
  9
$DIMSOXD
 70
     0
  9
$DIMSAH
 70
     0
  9
$DIMBLK1
  1

  9
$DIMBLK2
  1

  9
$DIMSTYLE
  2
ISO-25
  9
$DIMCLRD
 70
     0
  9
$DIMCLRE
 70
     0
  9
$DIMCLRT
 70
     0
  9
$DIMTFAC
 40
1.0
  9
$DIMGAP
 40
1.524
  9
$DIMJUST
 70
     0
  9
$DIMSD1
 70
     0
  9
$DIMSD2
 70
     0
  9
$DIMTOLJ
 70
     0
  9
$DIMTZIN
 70
     0
  9
$DIMALTZ
 70
     0
  9
$DIMALTTZ
 70
     0
  9
$DIMUPT
 70
     0
  9
$DIMDEC
 70
     2
  9
$DIMTDEC
 70
     2
  9
$DIMALTU
 70
     2
  9
$DIMALTTD
 70
     3
  9
$DIMTXSTY
  7
Standard
  9
$DIMAUNIT
 70
     0
  9
$DIMADEC
 70
     2
  9
$DIMALTRND
 40
0.0
  9
$DIMAZIN
 70
     0
  9
$DIMDSEP
 70
    44
  9
$DIMATFIT
 70
     3
  9
$DIMFRAC
 70
     0
  9
$DIMLDRBLK
  1

  9
$DIMLUNIT
 70
     2
  9
$DIMLWD
 70
    -2
  9
$DIMLWE
 70
    -2
  9
$DIMTMOVE
 70
     0
  9
$LUNITS
 70
     2
  9
$LUPREC
 70
     3
  9
$SKETCHINC
 40
1.0
  9
$FILLETRAD
 40
0.0
  9
$AUNITS
 70
     1
  9
$AUPREC
 70
     2
  9
$MENU
  1
.
  9
$ELEVATION
 40
0.0
  9
$PELEVATION
 40
0.0
  9
$THICKNESS
 40
0.0
  9
$LIMCHECK
 70
     0
  9
$CHAMFERA
 40
0.0
  9
$CHAMFERB
 40
0.0
  9
$CHAMFERC
 40
0.0
  9
$CHAMFERD
 40
0.0
  9
$SKPOLY
 70
     0
  9
$TDCREATE
 40
2459885.505853021
  9
$TDUCREATE
 40
2459885.380853021
  9
$TDUPDATE
 40
2459885.505853982
  9
$TDUUPDATE
 40
2459885.380853982
  9
$TDINDWG
 40
0.0000000116
  9
$TDUSRTIMER
 40
0.0000000116
  9
$USRTIMER
 70
     1
  9
$ANGBASE
 50
0.0
  9
$ANGDIR
 70
     0
  9
$PDMODE
 70
     0
  9
$PDSIZE
 40
-1.0
  9
$PLINEWID
 40
0.0
  9
$SPLFRAME
 70
     0
  9
$SPLINETYPE
 70
     6
  9
$SPLINESEGS
 70
     8
  9
$HANDSEED
  5
1E4
  9
$SURFTAB1
 70
     6
  9
$SURFTAB2
 70
     6
  9
$SURFTYPE
 70
     6
  9
$SURFU
 70
     6
  9
$SURFV
 70
     6
  9
$UCSBASE
  2

  9
$UCSNAME
  2

  9
$UCSORG
 10
0.0
 20
0.0
 30
0.0
  9
$UCSXDIR
 10
1.0
 20
0.0
 30
0.0
  9
$UCSYDIR
 10
0.0
 20
1.0
 30
0.0
  9
$UCSORTHOREF
  2

  9
$UCSORTHOVIEW
 70
     0
  9
$UCSORGTOP
 10
0.0
 20
0.0
 30
0.0
  9
$UCSORGBOTTOM
 10
0.0
 20
0.0
 30
0.0
  9
$UCSORGLEFT
 10
0.0
 20
0.0
 30
0.0
  9
$UCSORGRIGHT
 10
0.0
 20
0.0
 30
0.0
  9
$UCSORGFRONT
 10
0.0
 20
0.0
 30
0.0
  9
$UCSORGBACK
 10
0.0
 20
0.0
 30
0.0
  9
$PUCSBASE
  2

  9
$PUCSNAME
  2

  9
$PUCSORG
 10
0.0
 20
0.0
 30
0.0
  9
$PUCSXDIR
 10
1.0
 20
0.0
 30
0.0
  9
$PUCSYDIR
 10
0.0
 20
1.0
 30
0.0
  9
$PUCSORTHOREF
  2

  9
$PUCSORTHOVIEW
 70
     0
  9
$PUCSORGTOP
 10
0.0
 20
0.0
 30
0.0
  9
$PUCSORGBOTTOM
 10
0.0
 20
0.0
 30
0.0
  9
$PUCSORGLEFT
 10
0.0
 20
0.0
 30
0.0
  9
$PUCSORGRIGHT
 10
0.0
 20
0.0
 30
0.0
  9
$PUCSORGFRONT
 10
0.0
 20
0.0
 30
0.0
  9
$PUCSORGBACK
 10
0.0
 20
0.0
 30
0.0
  9
$USERI1
 70
     0
  9
$USERI2
 70
     0
  9
$USERI3
 70
     0
  9
$USERI4
 70
     0
  9
$USERI5
 70
     0
  9
$USERR1
 40
0.0
  9
$USERR2
 40
0.0
  9
$USERR3
 40
0.0
  9
$USERR4
 40
0.0
  9
$USERR5
 40
0.0
  9
$WORLDVIEW
 70
     1
  9
$SHADEDGE
 70
     3
  9
$SHADEDIF
 70
    70
  9
$TILEMODE
 70
     1
  9
$MAXACTVP
 70
    64
  9
$PINSBASE
 10
0.0
 20
0.0
 30
0.0
  9
$PLIMCHECK
 70
     0
  9
$PEXTMIN
 10
1.0000000000E+20
 20
1.0000000000E+20
 30
1.0000000000E+20
  9
$PEXTMAX
 10
-1.0000000000E+20
 20
-1.0000000000E+20
 30
-1.0000000000E+20
  9
$PLIMMIN
 10
0.0
 20
0.0
  9
$PLIMMAX
 10
420.0
 20
297.0
  9
$UNITMODE
 70
     0
  9
$VISRETAIN
 70
     1
  9
$PLINEGEN
 70
     0
  9
$PSLTSCALE
 70
     1
  9
$TREEDEPTH
 70
  3020
  9
$CMLSTYLE
  2
Standard
  9
$CMLJUST
 70
     0
  9
$CMLSCALE
 40
20.0
  9
$PROXYGRAPHICS
 70
     1
  9
$MEASUREMENT
 70
     1
  9
$CELWEIGHT
370
    -1
  9
$ENDCAPS
280
     0
  9
$JOINSTYLE
280
     0
  9
$LWDISPLAY
290
     1
  9
$INSUNITS
 70
     4
  9
$HYPERLINKBASE
  1

  9
$STYLESHEET
  1

  9
$XEDIT
290
     1
  9
$CEPSNTYPE
380
     0
  9
$PSTYLEMODE
290
     1
  9
$FINGERPRINTGUID
  2
{e8ff48a0-d2a8-49c4-a23d-568c20b4e174}
  9
$VERSIONGUID
  2
{FAEB1C32-E019-11D5-929B-00C0DF256EC4}
  9
$EXTNAMES
290
     1
  9
$PSVPSCALE
 40
0.0
  9
$OLESTARTUP
290
     0
  0
ENDSEC
  0
SECTION
  2
CLASSES
  0
CLASS
  1
ACDBDICTIONARYWDFLT
  2
AcDbDictionaryWithDefault
  3
ObjectDBX Classes
 90
        0
280
     0
281
     0
  0
CLASS
  1
VISUALSTYLE
  2
AcDbVisualStyle
  3
ObjectDBX Classes
 90
     4095
280
     0
281
     0
  0
CLASS
  1
MATERIAL
  2
AcDbMaterial
  3
ObjectDBX Classes
 90
     1153
280
     0
281
     0
  0
CLASS
  1
SCALE
  2
AcDbScale
  3
ObjectDBX Classes
 90
     1153
280
     0
281
     0
  0
CLASS
  1
TABLESTYLE
  2
AcDbTableStyle
  3
ObjectDBX Classes
 90
     4095
280
     0
281
     0
  0
CLASS
  1
MLEADERSTYLE
  2
AcDbMLeaderStyle
  3
ACDB_MLEADERSTYLE_CLASS
 90
     4095
280
     0
281
     0
  0
CLASS
  1
SUN
  2
AcDbSun
  3
SCENEOE
 90
     1153
280
     0
281
     0
  0
CLASS
  1
ACDBPLACEHOLDER
  2
AcDbPlaceHolder
  3
ObjectDBX Classes
 90
        0
280
     0
281
     0
  0
CLASS
  1
LAYOUT
  2
AcDbLayout
  3
ObjectDBX Classes
 90
        0
280
     0
281
     0
  0
ENDSEC
  0
SECTION
  2
TABLES
  0
TABLE
  2
VPORT
  5
8
330
0
100
AcDbSymbolTable
 70
     1
  0
VPORT
  5
29
330
8
100
AcDbSymbolTableRecord
100
AcDbViewportTableRecord
  2
*Active
 70
     0
 10
0.0
 20
0.0
 11
1.0
 21
1.0
 12
148.5
 22
105.0
 13
0.0
 23
0.0
 14
10.0
 24
10.0
 15
10.0
 25
10.0
 16
0.0
 26
0.0
 36
1.0
 17
0.0
 27
0.0
 37
0.0
 40
210.0
 41
1.4142857143
 42
50.0
 43
0.0
 44
0.0
 50
0.0
 51
0.0
 71
     0
 72
  2000
 73
     1
 74
     3
 75
     0
 76
     0
 77
     0
 78
     0
281
     0
 65
     1
110
0.0
120
0.0
130
0.0
111
1.0
121
0.0
131
0.0
112
0.0
122
1.0
132
0.0
 79
     0
146
0.0
  0
ENDTAB
  0
TABLE
  2
LTYPE
  5
5
330
0
100
AcDbSymbolTable
 70
     6
  0
LTYPE
  5
14
330
5
100
AcDbSymbolTableRecord
100
AcDbLinetypeTableRecord
  2
ByBlock
 70
     0
  3

 72
    65
 73
     0
 40
0.0
  0
LTYPE
  5
15
330
5
100
AcDbSymbolTableRecord
100
AcDbLinetypeTableRecord
  2
ByLayer
 70
     0
  3

 72
    65
 73
     0
 40
0.0
  0
LTYPE
  5
16
330
5
100
AcDbSymbolTableRecord
100
AcDbLinetypeTableRecord
  2
Continuous
 70
     0
  3
Solid line
 72
    65
 73
     0
 40
0.0
  0
LTYPE
  5
5E
330
5
100
AcDbSymbolTableRecord
100
AcDbLinetypeTableRecord
  2
HIDDEN
 70
     0
  3
Hidden __ __ __ __ __ __ __ __ __ __ __ __ __ __
 72
    65
 73
     2
 40
1.905
 49
1.27
 74
     0
 49
-0.635
 74
     0
  0
LTYPE
  5
5F
330
5
100
AcDbSymbolTableRecord
100
AcDbLinetypeTableRecord
  2
PHANTOM
 70
     0
  3
Phantom ______  __  __  ______  __  __  ______
 72
    65
 73
     6
 40
12.7
 49
6.35
 74
     0
 49
-1.27
 74
     0
 49
1.27
 74
     0
 49
-1.27
 74
     0
 49
1.27
 74
     0
 49
-1.27
 74
     0
  0
LTYPE
  5
60
330
5
100
AcDbSymbolTableRecord
100
AcDbLinetypeTableRecord
  2
CENTER
 70
     0
  3
Center ____ _ ____ _ ____ _ ____ _ ____ _ ____
 72
    65
 73
     4
 40
10.16
 49
6.35
 74
     0
 49
-1.27
 74
     0
 49
1.27
 74
     0
 49
-1.27
 74
     0
  0
LTYPE
  5
61
330
5
100
AcDbSymbolTableRecord
100
AcDbLinetypeTableRecord
  2
CENTERX2
 70
     0
  3
Center (2x) ________  __  ________  __  _____
 72
    65
 73
     4
 40
20.32
 49
12.7
 74
     0
 49
-2.54
 74
     0
 49
2.54
 74
     0
 49
-2.54
 74
     0
  0
LTYPE
  5
62
330
5
100
AcDbSymbolTableRecord
100
AcDbLinetypeTableRecord
  2
DOT2
 70
     0
  3
Dot (.5x) ........................................
 72
    65
 73
     2
 40
0.635
 49
0.0
 74
     0
 49
-0.635
 74
     0
  0
ENDTAB
  0
TABLE
  2
LAYER
  5
2
330
0
100
AcDbSymbolTable
 70
     1
  0
LAYER
  5
10
330
2
100
AcDbSymbolTableRecord
100
AcDbLayerTableRecord
  2
0
 70
     0
 62
     7
  6
Continuous
370
    -3
390
F
  0
ENDTAB
  0
TABLE
  2
STYLE
  5
3
330
0
100
AcDbSymbolTable
 70
     4
  0
STYLE
  5
11
330
3
100
AcDbSymbolTableRecord
100
AcDbTextStyleTableRecord
  2
Standard
 70
     0
 40
0.0
 41
1.0
 50
0.0
 71
     0
 42
3.5277777778
  3
txt
  4

  0
STYLE
  5
1D8
330
3
100
AcDbSymbolTableRecord
100
AcDbTextStyleTableRecord
  2
SLDTEXTSTYLE0
 70
     0
 40
0.0
 41
0.5721875
 50
0.0
 71
     0
 42
3.5277777778
  3
TXT
  4

  0
STYLE
  5
1DD
330
3
100
AcDbSymbolTableRecord
100
AcDbTextStyleTableRecord
  2
SLDTEXTSTYLE1
 70
     0
 40
0.0
 41
0.5675
 50
0.0
 71
     0
 42
3.5277777778
  3
TXT
  4

  0
STYLE
  5
1E0
330
3
100
AcDbSymbolTableRecord
100
AcDbTextStyleTableRecord
  2
SLDTEXTSTYLE2
 70
     0
 40
0.0
 41
0.605
 50
0.0
 71
     0
 42
3.5277777778
  3
TXT
  4

  0
ENDTAB
  0
TABLE
  2
VIEW
  5
6
330
0
100
AcDbSymbolTable
 70
     0
  0
ENDTAB
  0
TABLE
  2
UCS
  5
7
330
0
100
AcDbSymbolTable
 70
     0
  0
ENDTAB
  0
TABLE
  2
APPID
  5
9
330
0
100
AcDbSymbolTable
 70
     1
  0
APPID
  5
12
330
9
100
AcDbSymbolTableRecord
100
AcDbRegAppTableRecord
  2
ACAD
 70
     0
  0
ENDTAB
  0
TABLE
  2
DIMSTYLE
  5
A
330
0
100
AcDbSymbolTable
 70
     1
100
AcDbDimStyleTable
  0
DIMSTYLE
105
27
330
A
100
AcDbSymbolTableRecord
100
AcDbDimStyleTableRecord
  2
ISO-25
 70
     0
 41
2.5
 42
0.625
 43
3.75
 44
1.25
 73
     0
 74
     0
 77
     1
 78
     8
140
2.5
141
2.5
143
0.0393700787
147
0.625
171
     3
172
     1
178
     0
271
     2
272
     2
274
     3
278
    44
283
     0
284
     8
340
11
  0
ENDTAB
  0
TABLE
  2
BLOCK_RECORD
  5
1
330
0
100
AcDbSymbolTable
 70
     1
  0
BLOCK_RECORD
  5
1F
330
1
100
AcDbSymbolTableRecord
100
AcDbBlockTableRecord
  2
*Model_Space
340
22
  0
BLOCK_RECORD
  5
1B
330
1
100
AcDbSymbolTableRecord
100
AcDbBlockTableRecord
  2
*Paper_Space
340
1E
  0
BLOCK_RECORD
  5
23
330
1
100
AcDbSymbolTableRecord
100
AcDbBlockTableRecord
  2
*Paper_Space0
340
26
  0
ENDTAB
  0
ENDSEC
  0
SECTION
  2
BLOCKS
  0
BLOCK
  5
20
330
1F
100
AcDbEntity
  8
0
100
AcDbBlockBegin
  2
*Model_Space
 70
     0
 10
0.0
 20
0.0
 30
0.0
  3
*Model_Space
  1

  0
ENDBLK
  5
21
330
1F
100
AcDbEntity
  8
0
100
AcDbBlockEnd
  0
BLOCK
  5
1C
330
1B
100
AcDbEntity
 67
     1
  8
0
100
AcDbBlockBegin
  2
*Paper_Space
 70
     0
 10
0.0
 20
0.0
 30
0.0
  3
*Paper_Space
  1

  0
ENDBLK
  5
1D
330
1B
100
AcDbEntity
 67
     1
  8
0
100
AcDbBlockEnd
  0
BLOCK
  5
24
330
23
100
AcDbEntity
  8
0
100
AcDbBlockBegin
  2
*Paper_Space0
 70
     0
 10
0.0
 20
0.0
 30
0.0
  3
*Paper_Space0
  1

  0
ENDBLK
  5
25
330
23
100
AcDbEntity
  8
0
100
AcDbBlockEnd
  0
ENDSEC
  0
SECTION
  2
ENTITIES
  0
SPLINE
  5
63
330
1F
100
AcDbEntity
  8
0
  6
Continuous
 62
     7
370
    35
100
AcDbSpline
210
0.0
220
0.0
230
1.0
 70
     8
 71
     3
 72
    22
 73
    18
 74
     0
 42
0.00000001
 43
0.00000001
 40
0.0
 40
0.0
 40
0.0
 40
0.0
 40
0.125
 40
0.125
 40
0.25
 40
0.25
 40
0.375
 40
0.375
 40
0.5
 40
0.5
 40
0.625
 40
0.625
 40
0.75
 40
0.75
 40
0.875
 40
0.875
 40
1.0
 40
1.0
 40
1.0
 40
1.0
 10
-521.8316702801873
 20
-252.244035081212
 30
0.0
 10
-521.7776336979977
 20
-252.1986930050265
 30
0.0
 10
-521.7411233609249
 20
-252.1342196849421
 30
0.0
 10
-521.6997933573742
 20
-251.9670716616614
 30
0.0
 10
-521.6951331584706
 20
-251.8631727074013
 30
0.0
 10
-521.7168411779467
 20
-251.6191869577681
 30
0.0
 10
-521.7427671522802
 20
-251.4805338007423
 30
0.0
 10
-521.8221345741796
 20
-251.1691717554786
 30
0.0
 10
-521.8763802941619
 20
-250.9944353675762
 30
0.0
 10
-522.0069102525932
 20
-250.6217249272206
 30
0.0
 10
-522.0831929425758
 20
-250.4231079383179
 30
0.0
 10
-522.2556801845062
 20
-250.0000181031639
 30
0.0
 10
-522.3521681366088
 20
-249.7751244886678
 30
0.0
 10
-522.5549519497597
 20
-249.3168850590842
 30
0.0
 10
-522.6621558494975
 20
-249.0812883762715
 30
0.0
 10
-522.8861818535141
 20
-248.5956344940269
 30
0.0
 10
-523.0015211471518
 20
-248.3487869008949
 30
0.0
 10
-523.1172454995609
 20
-248.101131616309
 30
0.0
  0
LINE
  5
64
330
1F
100
AcDbEntity
  8
0
  6
Continuous
 62
     7
370
    35
100
AcDbLine
 10
-523.1172454996
 20
-250.711946195
 30
0.0
 11
-521.8316702802
 21
-252.2440350812
 31
0.0
  0
SPLINE
  5
65
330
1F
100
AcDbEntity
  8
0
  6
Continuous
 62
     7
370
    35
100
AcDbSpline
210
0.0
220
0.0
230
1.0
 70
     8
 71
     3
 72
    20
 73
    16
 74
     0
 42
0.00000001
 43
0.00000001
 40
0.0
 40
0.0
 40
0.0
 40
0.0
 40
0.249999999999987
 40
0.249999999999987
 40
0.3749999999999892
 40
0.3749999999999892
 40
0.4999999999999913
 40
0.4999999999999913
 40
0.6249999999999934
 40
0.6249999999999934
 40
0.7499999999999957
 40
0.7499999999999957
 40
0.8749999999999978
 40
0.8749999999999978
 40
1.0
 40
1.0
 40
1.0
 40
1.0
 10
-523.1172454995609
 20
-250.711946194974
 30
0.0
 10
-523.0090024287038
 20
-250.6211194741401
 30
0.0
 10
-522.9373087423547
 20
-250.4942873700526
 30
0.0
 10
-522.8727545818887
 20
-250.2445945400565
 30
0.0
 10
-522.8587929224441
 20
-250.1511113095997
 30
0.0
 10
-522.8450512270415
 20
-249.9505240485066
 30
0.0
 10
-522.8449984812942
 20
-249.8425668262732
 30
0.0
 10
-522.8567300220268
 20
-249.6102328224017
 30
0.0
 10
-522.8686052874021
 20
-249.4862279536287
 30
0.0
 10
-522.9012259706486
 20
-249.2304729944058
 30
0.0
 10
-522.9220142754054
 20
-249.0976391096302
 30
0.0
 10
-522.9705133389357
 20
-248.8212352550862
 30
0.0
 10
-522.9980697229515
 20
-248.6787205996413
 30
0.0
 10
-523.0558884028176
 20
-248.3926007057192
 30
0.0
 10
-523.0863531286478
 20
-248.2478605953867
 30
0.0
 10
-523.1172454995609
 20
-248.1011316163094
 30
0.0
  0
LINE
  5
66
330
1F
100
AcDbEntity
  8
0
  6
Continuous
 62
     7
370
    35
100
AcDbLine
 10
-236.0767685521
 20
-7.2455732767
 30
0.0
 11
-523.1172454996
 21
-248.1011316163
 31
0.0
  0
SPLINE
  5
67
330
1F
100
AcDbEntity
  8
0
  6
Continuous
 62
     7
370
    35
100
AcDbSpline
210
0.0
220
0.0
230
1.0
 70
     8
 71
     3
 72
    22
 73
    18
 74
     0
 42
0.00000001
 43
0.00000001
 40
0.0
 40
0.0
 40
0.0
 40
0.0
 40
0.125
 40
0.125
 40
0.25
 40
0.25
 40
0.375
 40
0.375
 40
0.5
 40
0.5
 40
0.625
 40
0.625
 40
0.75
 40
0.75
 40
0.875
 40
0.875
 40
1.0
 40
1.0
 40
1.0
 40
1.0
 10
-236.0767685520566
 20
-7.245573276712214
 30
0.0
 10
-235.961044204614
 20
-7.49322855066964
 30
0.0
 10
-235.847196928847
 20
-7.736891096029708
 30
0.0
 10
-235.6253932523924
 20
-8.217629627789492
 30
0.0
 10
-235.5164516176799
 20
-8.456913975386836
 30
0.0
 10
-235.3121217078634
 20
-8.918540018919174
 30
0.0
 10
-235.2174859387825
 20
-9.139078320681392
 30
0.0
 10
-235.0452543783926
 20
-9.561111536614654
 30
0.0
 10
-234.9671269928775
 20
-9.764308985212855
 30
0.0
 10
-234.8364497092998
 20
-10.1371950008407
 30
0.0
 10
-234.7831663731815
 20
-10.30840242714859
 30
0.0
 10
-234.7030124378771
 20
-10.62145371241524
 30
0.0
 10
-234.6765355516586
 20
-10.76291138762264
 30
0.0
 10
-234.6547421055067
 20
-11.00545489710986
 30
0.0
 10
-234.6588712467232
 20
-11.10837002839084
 30
0.0
 10
-234.7001271145634
 20
-11.27787328680015
 30
0.0
 10
-234.7371567481753
 20
-11.34313466348276
 30
0.0
 10
-234.7911933326843
 20
-11.38847674161426
 30
0.0
  0
LINE
  5
68
330
1F
100
AcDbEntity
  8
0
  6
Continuous
 62
     7
370
    35
100
AcDbLine
 10
-234.7911933327
 20
-11.3884767416
 30
0.0
 11
-521.8316702802
 21
-252.2440350812
 31
0.0
  0
ARC
  5
69
330
1F
100
AcDbEntity
  8
0
  6
Continuous
 62
     7
370
    35
100
AcDbCircle
 10
-238.0767685521
 20
62.0794343721
 30
0.0
 40
2.000000000000163
100
AcDbArc
 50
0.0
 51
90.0
  0
LINE
  5
6A
330
1F
100
AcDbEntity
  8
0
  6
Continuous
 62
     7
370
    35
100
AcDbLine
 10
-236.0767685521
 20
62.0794343721
 30
0.0
 11
-236.0767685521
 21
-7.2455732767
 31
0.0
  0
LINE
  5
6B
330
1F
100
AcDbEntity
  8
0
  6
Continuous
 62
     7
370
    35
100
AcDbLine
 10
-523.1172454996
 20
-248.1011316163
 30
0.0
 11
-523.1172454996
 21
-160.266051258
 31
0.0
  0
ARC
  5
6C
330
1F
100
AcDbEntity
  8
0
  6
Continuous
 62
     7
370
    35
100
AcDbCircle
 10
-521.1172454996
 20
-160.266051258
 30
0.0
 40
2.000000000000682
100
AcDbArc
 50
130.0
 51
180.0
  0
ARC
  5
6D
330
1F
100
AcDbEntity
  8
0
  6
Continuous
 62
     7
370
    35
100
AcDbCircle
 10
-256.1362142027
 20
62.0794343721
 30
0.0
 40
2.000000000000163
100
AcDbArc
 50
90.0
 51
130.0
  0
LINE
  5
6E
330
1F
100
AcDbEntity
  8
0
  6
Continuous
 62
     7
370
    35
100
AcDbLine
 10
-256.1362142027
 20
64.0794343721
 30
0.0
 11
-238.0767685521
 21
64.0794343721
 31
0.0
  0
LINE
  5
6F
330
1F
100
AcDbEntity
  8
0
  6
Continuous
 62
     7
370
    35
100
AcDbLine
 10
-522.4028207189
 20
-158.7339623718
 30
0.0
 11
-257.4217894221
 21
63.6115232584
 31
0.0
  0
LINE
  5
70
330
1F
100
AcDbEntity
  8
0
  6
Continuous
 62
     7
370
    35
100
AcDbLine
 10
-524.4028207189
 20
-249.1798573087
 30
0.0
 11
-675.5634325967
 21
-249.1798573087
 31
0.0
  0
LINE
  5
71
330
1F
100
AcDbEntity
  8
0
  6
Continuous
 62
     7
370
    35
100
AcDbLine
 10
-673.5634325967
 20
-171.1798573087
 30
0.0
 11
-526.4028207189
 21
-171.1798573087
 31
0.0
  0
ARC
  5
72
330
1F
100
AcDbEntity
  8
0
  6
Continuous
 62
     7
370
    35
100
AcDbCircle
 10
-526.4028207189
 20
-173.1798573087
 30
0.0
 40
2.0
100
AcDbArc
 50
360.0
 51
90.0
  0
LINE
  5
73
330
1F
100
AcDbEntity
  8
0
  6
Continuous
 62
     7
370
    35
100
AcDbLine
 10
-524.4028207189
 20
-173.1798573087
 30
0.0
 11
-524.4028207189
 21
-249.1798573087
 31
0.0
  0
LINE
  5
74
330
1F
100
AcDbEntity
  8
0
  6
Continuous
 62
     7
370
    35
100
AcDbLine
 10
-675.5634325967
 20
-249.1798573087
 30
0.0
 11
-675.5634325967
 21
-173.1798573087
 31
0.0
  0
ARC
  5
75
330
1F
100
AcDbEntity
  8
0
  6
Continuous
 62
     7
370
    35
100
AcDbCircle
 10
-673.5634325967
 20
-173.1798573087
 30
0.0
 40
2.0
100
AcDbArc
 50
90.0
 51
180.0
  0
LINE
  5
76
330
1F
100
AcDbEntity
  8
0
  6
Continuous
 62
     7
370
    35
100
AcDbLine
 10
-524.4028207189
 20
-249.1798573087
 30
0.0
 11
-524.4028207189
 21
-253.1798573087
 31
0.0
  0
LINE
  5
77
330
1F
100
AcDbEntity
  8
0
  6
Continuous
 62
     7
370
    35
100
AcDbLine
 10
-524.4028207189
 20
-253.1798573087
 30
0.0
 11
-675.5634325967
 21
-253.1798573087
 31
0.0
  0
LINE
  5
78
330
1F
100
AcDbEntity
  8
0
  6
Continuous
 62
     7
370
    35
100
AcDbLine
 10
-675.5634325967
 20
-253.1798573087
 30
0.0
 11
-675.5634325967
 21
-249.1798573087
 31
0.0
  0
LINE
  5
79
330
1F
100
AcDbEntity
  8
0
  6
Continuous
 62
     7
370
    35
100
AcDbLine
 10
-233.5056181133
 20
-10.9205656279
 30
0.0
 11
-233.5056181133
 21
-8.9205656279
 31
0.0
  0
LINE
  5
7A
330
1F
100
AcDbEntity
  8
0
  6
Continuous
 62
     7
370
    35
100
AcDbLine
 10
-141.9614990504
 20
-10.9205656279
 30
0.0
 11
-141.9614990504
 21
-8.9205656279
 31
0.0
  0
LINE
  5
7B
330
1F
100
AcDbEntity
  8
0
  6
Continuous
 62
     7
370
    35
100
AcDbLine
 10
-141.9614990504
 20
-10.9205656279
 30
0.0
 11
-233.5056181133
 21
-10.9205656279
 31
0.0
  0
LINE
  5
7C
330
1F
100
AcDbEntity
  8
0
  6
Continuous
 62
     7
370
    35
100
AcDbLine
 10
-141.9614990504
 20
-8.9205656279
 30
0.0
 11
-233.5056181133
 21
-8.9205656279
 31
0.0
  0
LINE
  5
7D
330
1F
100
AcDbEntity
  8
0
  6
Continuous
 62
     7
370
    35
100
AcDbLine
 10
-139.9614990504
 20
-8.9205656279
 30
0.0
 11
-139.9614990504
 21
-10.9205656279
 31
0.0
  0
LINE
  5
7E
330
1F
100
AcDbEntity
  8
0
  6
Continuous
 62
     7
370
    35
100
AcDbLine
 10
-139.9614990504
 20
-10.9205656279
 30
0.0
 11
-141.9614990504
 21
-10.9205656279
 31
0.0
  0
LINE
  5
7F
330
1F
100
AcDbEntity
  8
0
  6
Continuous
 62
     7
370
    35
100
AcDbLine
 10
-141.9614990504
 20
-8.9205656279
 30
0.0
 11
-139.9614990504
 21
-8.9205656279
 31
0.0
  0
ARC
  5
80
330
1F
100
AcDbEntity
  8
0
  6
Continuous
 62
     7
370
    35
100
AcDbCircle
 10
-524.4028207189
 20
-249.1798573087
 30
0.0
 40
2.000000000000057
100
AcDbArc
 50
270.0
 51
310.0
  0
ARC
  5
81
330
1F
100
AcDbEntity
  8
0
  6
Continuous
 62
     7
370
    35
100
AcDbCircle
 10
-524.4028207189
 20
-249.1798573087
 30
0.0
 40
4.000000000000257
100
AcDbArc
 50
270.0
 51
310.0
  0
ARC
  5
82
330
1F
100
AcDbEntity
  8
0
  6
Continuous
 62
     7
370
    35
100
AcDbCircle
 10
-233.5056181133
 20
-12.9205656279
 30
0.0
 40
4.000000000000033
100
AcDbArc
 50
90.0
 51
114.5479153282
  0
ARC
  5
83
330
1F
100
AcDbEntity
  8
0
  6
Continuous
 62
     7
370
    35
100
AcDbCircle
 10
-233.5056181133
 20
-12.9205656279
 30
0.0
 40
2.000000000000132
100
AcDbArc
 50
90.0
 51
130.0
  0
LINE
  5
84
330
1F
100
AcDbEntity
  8
0
  6
HIDDEN
 62
     7
370
    18
100
AcDbLine
 10
-236.0767685521
 20
-9.8563878554
 30
0.0
 11
-523.1172454996
 21
-250.711946195
 31
0.0
  0
SPLINE
  5
85
330
1F
100
AcDbEntity
  8
0
  6
HIDDEN
 62
     7
370
    18
100
AcDbSpline
210
0.0
220
0.0
230
1.0
 70
     8
 71
     3
 72
    20
 73
    16
 74
     0
 42
0.00000001
 43
0.00000001
 40
0.0
 40
0.0
 40
0.0
 40
0.0
 40
0.25
 40
0.25
 40
0.375
 40
0.375
 40
0.5
 40
0.5
 40
0.625
 40
0.625
 40
0.75
 40
0.75
 40
0.875
 40
0.875
 40
1.0
 40
1.0
 40
1.0
 40
1.0
 10
-236.076768552057
 20
-7.245573276711992
 30
0.0
 10
-236.0149838048108
 20
-7.539031260611562
 30
0.0
 10
-235.9553198617683
 20
-7.822409291441012
 30
0.0
 10
-235.8825834304862
 20
-8.235718677381765
 30
0.0
 10
-235.8612937618576
 20
-8.37121280471348
 30
0.0
 10
-235.8284914819043
 20
-8.627269015650862
 30
0.0
 10
-235.8166872225584
 20
-8.74935686630135
 30
0.0
 10
-235.8046107857885
 20
-8.98210190126486
 30
0.0
 10
-235.8045143912581
 20
-9.092069258391122
 30
0.0
 10
-235.8179980559549
 20
-9.292879195318736
 30
0.0
 10
-235.8314917261519
 20
-9.384857413281878
 30
0.0
 10
-235.8742559989795
 20
-9.552497858849318
 30
0.0
 10
-235.9035085358242
 20
-9.627310278767231
 30
0.0
 10
-235.977627723198
 20
-9.7561927454069
 30
0.0
 10
-236.0226470213765
 20
-9.81097449894347
 30
0.0
 10
-236.076768552057
 20
-9.856387855376292
 30
0.0
  0
LINE
  5
86
330
1F
100
AcDbEntity
  8
0
  6
HIDDEN
 62
     7
370
    18
100
AcDbLine
 10
-524.4028207189
 20
-251.1798573087
 30
0.0
 11
-675.5634325967
 21
-251.1798573087
 31
0.0
  0
LINE
  5
87
330
1F
100
AcDbEntity
  8
0
  6
HIDDEN
 62
     7
370
    18
100
AcDbLine
 10
-236.0767685521
 20
-9.8563878554
 30
0.0
 11
-234.7911933327
 21
-11.3884767416
 31
0.0
  0
ARC
  5
88
330
1F
100
AcDbEntity
  8
0
  6
HIDDEN
 62
     7
370
    18
100
AcDbCircle
 10
-233.5056181133
 20
-12.9205656279
 30
0.0
 40
4.000000000000033
100
AcDbArc
 50
114.5479153282
 51
130.0
  0
LINE
  5
89
330
1F
100
AcDbEntity
  8
0
  6
Continuous
 62
     7
370
    35
100
AcDbLine
 10
-50.0570899834
 20
-171.1798573087
 30
0.0
 11
-48.0570899834
 21
-171.1798573087
 31
0.0
  0
LINE
  5
8A
330
1F
100
AcDbEntity
  8
0
  6
Continuous
 62
     7
370
    35
100
AcDbLine
 10
-48.0570899834
 20
-171.1798573087
 30
0.0
 11
-48.0570899834
 21
-173.1798573087
 31
0.0
  0
LINE
  5
8B
330
1F
100
AcDbEntity
  8
0
  6
Continuous
 62
     7
370
    35
100
AcDbLine
 10
-48.0570899834
 20
-173.1798573087
 30
0.0
 11
-50.0570899834
 21
-173.1798573087
 31
0.0
  0
LINE
  5
8C
330
1F
100
AcDbEntity
  8
0
  6
Continuous
 62
     7
370
    35
100
AcDbLine
 10
-50.0570899834
 20
-173.1798573087
 30
0.0
 11
-50.0570899834
 21
-171.1798573087
 31
0.0
  0
LINE
  5
8D
330
1F
100
AcDbEntity
  8
0
  6
Continuous
 62
     7
370
    35
100
AcDbLine
 10
-48.0570899834
 20
-249.1798573087
 30
0.0
 11
-50.0570899834
 21
-249.1798573087
 31
0.0
  0
LINE
  5
8E
330
1F
100
AcDbEntity
  8
0
  6
Continuous
 62
     7
370
    35
100
AcDbLine
 10
-48.0570899834
 20
-249.1798573087
 30
0.0
 11
-48.0570899834
 21
-173.1798573087
 31
0.0
  0
LINE
  5
8F
330
1F
100
AcDbEntity
  8
0
  6
Continuous
 62
     7
370
    35
100
AcDbLine
 10
-50.0570899834
 20
-249.1798573087
 30
0.0
 11
-50.0570899834
 21
-173.1798573087
 31
0.0
  0
LINE
  5
90
330
1F
100
AcDbEntity
  8
0
  6
Continuous
 62
     7
370
    35
100
AcDbLine
 10
-46.0570899834
 20
-251.1798573087
 30
0.0
 11
-46.0570899834
 21
-253.1798573087
 31
0.0
  0
ARC
  5
91
330
1F
100
AcDbEntity
  8
0
  6
Continuous
 62
     7
370
    35
100
AcDbCircle
 10
-46.0570899834
 20
-249.1798573087
 30
0.0
 40
2.0
100
AcDbArc
 50
180.0
 51
270.0
  0
ARC
  5
92
330
1F
100
AcDbEntity
  8
0
  6
Continuous
 62
     7
370
    35
100
AcDbCircle
 10
-46.0570899834
 20
-249.1798573087
 30
0.0
 40
4.0
100
AcDbArc
 50
180.0
 51
270.0
  0
LINE
  5
93
330
1F
100
AcDbEntity
  8
0
  6
Continuous
 62
     7
370
    35
100
AcDbLine
 10
345.9429100166
 20
-251.1798573087
 30
0.0
 11
345.9429100166
 21
-253.1798573087
 31
0.0
  0
LINE
  5
94
330
1F
100
AcDbEntity
  8
0
  6
Continuous
 62
     7
370
    35
100
AcDbLine
 10
-46.0570899834
 20
-251.1798573087
 30
0.0
 11
345.9429100166
 21
-251.1798573087
 31
0.0
  0
LINE
  5
95
330
1F
100
AcDbEntity
  8
0
  6
Continuous
 62
     7
370
    35
100
AcDbLine
 10
-46.0570899834
 20
-253.1798573087
 30
0.0
 11
345.9429100166
 21
-253.1798573087
 31
0.0
  0
LINE
  5
96
330
1F
100
AcDbEntity
  8
0
  6
Continuous
 62
     7
370
    35
100
AcDbLine
 10
349.9429100166
 20
-173.1798573087
 30
0.0
 11
347.9429100166
 21
-173.1798573087
 31
0.0
  0
LINE
  5
97
330
1F
100
AcDbEntity
  8
0
  6
Continuous
 62
     7
370
    35
100
AcDbLine
 10
347.9429100166
 20
-173.1798573087
 30
0.0
 11
347.9429100166
 21
-171.1798573087
 31
0.0
  0
LINE
  5
98
330
1F
100
AcDbEntity
  8
0
  6
Continuous
 62
     7
370
    35
100
AcDbLine
 10
347.9429100166
 20
-171.1798573087
 30
0.0
 11
349.9429100166
 21
-171.1798573087
 31
0.0
  0
LINE
  5
99
330
1F
100
AcDbEntity
  8
0
  6
Continuous
 62
     7
370
    35
100
AcDbLine
 10
349.9429100166
 20
-171.1798573087
 30
0.0
 11
349.9429100166
 21
-173.1798573087
 31
0.0
  0
ARC
  5
9A
330
1F
100
AcDbEntity
  8
0
  6
Continuous
 62
     7
370
    35
100
AcDbCircle
 10
345.9429100166
 20
-249.1798573087
 30
0.0
 40
4.0
100
AcDbArc
 50
270.0
 51
360.0
  0
ARC
  5
9B
330
1F
100
AcDbEntity
  8
0
  6
Continuous
 62
     7
370
    35
100
AcDbCircle
 10
345.9429100166
 20
-249.1798573087
 30
0.0
 40
2.0
100
AcDbArc
 50
270.0
 51
360.0
  0
LINE
  5
9C
330
1F
100
AcDbEntity
  8
0
  6
Continuous
 62
     7
370
    35
100
AcDbLine
 10
347.9429100166
 20
-249.1798573087
 30
0.0
 11
349.9429100166
 21
-249.1798573087
 31
0.0
  0
LINE
  5
9D
330
1F
100
AcDbEntity
  8
0
  6
Continuous
 62
     7
370
    35
100
AcDbLine
 10
347.9429100166
 20
-249.1798573087
 30
0.0
 11
347.9429100166
 21
-173.1798573087
 31
0.0
  0
LINE
  5
9E
330
1F
100
AcDbEntity
  8
0
  6
Continuous
 62
     7
370
    35
100
AcDbLine
 10
349.9429100166
 20
-249.1798573087
 30
0.0
 11
349.9429100166
 21
-173.1798573087
 31
0.0
  0
LINE
  5
9F
330
1F
100
AcDbEntity
  8
0
  6
Continuous
 62
     7
370
    35
100
AcDbLine
 10
344.9429100166
 20
-250.711946195
 30
0.0
 11
-45.0570899834
 21
-250.711946195
 31
0.0
  0
LINE
  5
A0
330
1F
100
AcDbEntity
  8
0
  6
Continuous
 62
     7
370
    35
100
AcDbLine
 10
344.9429100166
 20
-251.1798573087
 30
0.0
 11
344.9429100166
 21
-250.711946195
 31
0.0
  0
LINE
  5
A1
330
1F
100
AcDbEntity
  8
0
  6
Continuous
 62
     7
370
    35
100
AcDbLine
 10
-45.0570899834
 20
-250.711946195
 30
0.0
 11
-45.0570899834
 21
-251.1798573087
 31
0.0
  0
LINE
  5
A2
330
1F
100
AcDbEntity
  8
0
  6
Continuous
 62
     7
370
    35
100
AcDbLine
 10
-46.0570899834
 20
-250.711946195
 30
0.0
 11
-46.0570899834
 21
-251.1798573087
 31
0.0
  0
SPLINE
  5
A3
330
1F
100
AcDbEntity
  8
0
  6
Continuous
 62
     7
370
    35
100
AcDbSpline
210
0.0
220
0.0
230
1.0
 70
     8
 71
     3
 72
    20
 73
    16
 74
     0
 42
0.00000001
 43
0.00000001
 40
0.0
 40
0.0
 40
0.0
 40
0.0
 40
0.249999999999993
 40
0.249999999999993
 40
0.3749999999999942
 40
0.3749999999999942
 40
0.4999999999999953
 40
0.4999999999999953
 40
0.6249999999999964
 40
0.6249999999999964
 40
0.7499999999999977
 40
0.7499999999999977
 40
0.8749999999999988
 40
0.8749999999999988
 40
1.0
 40
1.0
 40
1.0
 40
1.0
 10
-48.05708998340278
 20
-248.1011316163095
 30
0.0
 10
-48.05708998340294
 20
-248.3945896002091
 30
0.0
 10
-48.00601476813468
 20
-248.6779676310393
 30
0.0
 10
-47.85623357773089
 20
-249.0912770169803
 30
0.0
 10
-47.79359565021629
 20
-249.2267711443122
 30
0.0
 10
-47.64876988503639
 20
-249.4828273552495
 30
0.0
 10
-47.56610375916267
 20
-249.6049152059
 30
0.0
 10
-47.38058469752377
 20
-249.8376602408634
 30
0.0
 10
-47.27795818343527
 20
-249.9476275979899
 30
0.0
 10
-47.06107034711221
 20
-250.1484375349175
 30
0.0
 10
-46.94595122309791
 20
-250.2404157528808
 30
0.0
 10
-46.70303898914888
 20
-250.408056198448
 30
0.0
 10
-46.57615352706912
 20
-250.482868618366
 30
0.0
 10
-46.31980784123799
 20
-250.6117510850056
 30
0.0
 10
-46.1893481357254
 20
-250.6665328385419
 30
0.0
 10
-46.05708998340188
 20
-250.7119461949747
 30
0.0
  0
LINE
  5
A4
330
1F
100
AcDbEntity
  8
0
  6
Continuous
 62
     7
370
    35
100
AcDbLine
 10
345.9429100166
 20
-250.711946195
 30
0.0
 11
345.9429100166
 21
-251.1798573087
 31
0.0
  0
SPLINE
  5
A5
330
1F
100
AcDbEntity
  8
0
  6
Continuous
 62
     7
370
    35
100
AcDbSpline
210
0.0
220
0.0
230
1.0
 70
     8
 71
     3
 72
    20
 73
    16
 74
     0
 42
0.00000001
 43
0.00000001
 40
0.0
 40
0.0
 40
0.0
 40
0.0
 40
0.249999999999987
 40
0.249999999999987
 40
0.3749999999999892
 40
0.3749999999999892
 40
0.4999999999999913
 40
0.4999999999999913
 40
0.6249999999999934
 40
0.6249999999999934
 40
0.7499999999999957
 40
0.7499999999999957
 40
0.8749999999999978
 40
0.8749999999999978
 40
1.0
 40
1.0
 40
1.0
 40
1.0
 10
345.9429100165978
 20
-250.711946194974
 30
0.0
 10
346.2074263444503
 20
-250.6211194741401
 30
0.0
 10
346.4628577536022
 20
-250.4942873700526
 30
0.0
 10
346.8262251887918
 20
-250.2445945400565
 30
0.0
 10
346.9437044473184
 20
-250.1511113095997
 30
0.0
 10
347.1609397839566
 20
-249.9505240485066
 30
0.0
 10
347.2620521351689
 20
-249.8425668262732
 30
0.0
 10
347.4481077597911
 20
-249.6102328224017
 30
0.0
 10
347.5324096038519
 20
-249.4862279536287
 30
0.0
 10
347.6775718075581
 20
-249.2304729944058
 30
0.0
 10
347.7393576463049
 20
-249.0976391096302
 30
0.0
 10
347.8402893333629
 20
-248.8212352550862
 30
0.0
 10
347.8787958036816
 20
-248.6787205996413
 30
0.0
 10
347.9298826057825
 20
-248.3926007057192
 30
0.0
 10
347.9429100165977
 20
-248.2478605953867
 30
0.0
 10
347.9429100165976
 20
-248.1011316163094
 30
0.0
  0
SPLINE
  5
A6
330
1F
100
AcDbEntity
  8
0
  6
Continuous
 62
     7
370
    35
100
AcDbSpline
210
0.0
220
0.0
230
1.0
 70
     8
 71
     3
 72
    20
 73
    16
 74
     0
 42
0.00000001
 43
0.00000001
 40
0.0
 40
0.0
 40
0.0
 40
0.0
 40
0.2499999999999953
 40
0.2499999999999953
 40
0.3749999999999961
 40
0.3749999999999961
 40
0.4999999999999969
 40
0.4999999999999969
 40
0.6249999999999978
 40
0.6249999999999978
 40
0.7499999999999984
 40
0.7499999999999984
 40
0.8749999999999992
 40
0.8749999999999992
 40
1.0
 40
1.0
 40
1.0
 40
1.0
 10
-46.05708998340211
 20
-9.856387855375958
 30
0.0
 10
-46.32160631125484
 20
-9.765561134542134
 30
0.0
 10
-46.5770377204065
 20
-9.638729030453707
 30
0.0
 10
-46.94040515559622
 20
-9.389036200457724
 30
0.0
 10
-47.05788441412276
 20
-9.295552970000953
 30
0.0
 10
-47.27511975076104
 20
-9.094965708907887
 30
0.0
 10
-47.37623210197336
 20
-8.987008486674608
 30
0.0
 10
-47.56228772659596
 20
-8.754674482803315
 30
0.0
 10
-47.64658957065662
 20
-8.630669614030085
 30
0.0
 10
-47.79175177436271
 20
-8.37491465480722
 30
0.0
 10
-47.85353761310973
 20
-8.24208077003169
 30
0.0
 10
-47.95446930016787
 20
-7.965676915487774
 30
0.0
 10
-47.99297577048678
 20
-7.823162260042816
 30
0.0
 10
-48.04406257258778
 20
-7.537042366120906
 30
0.0
 10
-48.05708998340192
 20
-7.392302255789518
 30
0.0
 10
-48.05708998340211
 20
-7.245573276712047
 30
0.0
  0
LINE
  5
A7
330
1F
100
AcDbEntity
  8
0
  6
Continuous
 62
     7
370
    35
100
AcDbLine
 10
-46.0570899834
 20
-250.711946195
 30
0.0
 11
-46.0570899834
 21
-9.8563878554
 31
0.0
  0
SPLINE
  5
A8
330
1F
100
AcDbEntity
  8
0
  6
Continuous
 62
     7
370
    35
100
AcDbSpline
210
0.0
220
0.0
230
1.0
 70
     8
 71
     3
 72
    20
 73
    16
 74
     0
 42
0.00000001
 43
0.00000001
 40
0.0
 40
0.0
 40
0.0
 40
0.0
 40
0.25
 40
0.25
 40
0.375
 40
0.375
 40
0.5
 40
0.5
 40
0.625
 40
0.625
 40
0.75
 40
0.75
 40
0.875
 40
0.875
 40
1.0
 40
1.0
 40
1.0
 40
1.0
 10
347.9429100165976
 20
-7.245573276711992
 30
0.0
 10
347.9429100165975
 20
-7.539031260611562
 30
0.0
 10
347.8918348013293
 20
-7.822409291441012
 30
0.0
 10
347.7420536109254
 20
-8.235718677381765
 30
0.0
 10
347.6794156834108
 20
-8.37121280471348
 30
0.0
 10
347.5345899182309
 20
-8.627269015650862
 30
0.0
 10
347.4519237923573
 20
-8.74935686630135
 30
0.0
 10
347.2664047307186
 20
-8.98210190126486
 30
0.0
 10
347.1637782166302
 20
-9.092069258391122
 30
0.0
 10
346.9468903803074
 20
-9.292879195318736
 30
0.0
 10
346.8317712562928
 20
-9.384857413281878
 30
0.0
 10
346.588859022344
 20
-9.552497858849318
 30
0.0
 10
346.4619735602645
 20
-9.627310278767231
 30
0.0
 10
346.2056278744335
 20
-9.7561927454069
 30
0.0
 10
346.075168168921
 20
-9.81097449894347
 30
0.0
 10
345.9429100165975
 20
-9.856387855376292
 30
0.0
  0
LINE
  5
A9
330
1F
100
AcDbEntity
  8
0
  6
Continuous
 62
     7
370
    35
100
AcDbLine
 10
345.9429100166
 20
-9.8563878554
 30
0.0
 11
345.9429100166
 21
-250.711946195
 31
0.0
  0
LINE
  5
AA
330
1F
100
AcDbEntity
  8
0
  6
Continuous
 62
     7
370
    35
100
AcDbLine
 10
-48.0570899834
 20
-160.266051258
 30
0.0
 11
-50.0570899834
 21
-160.266051258
 31
0.0
  0
LINE
  5
AB
330
1F
100
AcDbEntity
  8
0
  6
Continuous
 62
     7
370
    35
100
AcDbLine
 10
-48.0570899834
 20
-171.1798573087
 30
0.0
 11
-48.0570899834
 21
-160.266051258
 31
0.0
  0
LINE
  5
AC
330
1F
100
AcDbEntity
  8
0
  6
Continuous
 62
     7
370
    35
100
AcDbLine
 10
-50.0570899834
 20
-171.1798573087
 30
0.0
 11
-50.0570899834
 21
-160.266051258
 31
0.0
  0
LINE
  5
AD
330
1F
100
AcDbEntity
  8
0
  6
Continuous
 62
     7
370
    35
100
AcDbLine
 10
345.9429100166
 20
-9.8563878554
 30
0.0
 11
344.9429100166
 21
-9.8563878554
 31
0.0
  0
LINE
  5
AE
330
1F
100
AcDbEntity
  8
0
  6
Continuous
 62
     7
370
    35
100
AcDbLine
 10
345.9429100166
 20
-250.711946195
 30
0.0
 11
344.9429100166
 21
-250.711946195
 31
0.0
  0
LINE
  5
AF
330
1F
100
AcDbEntity
  8
0
  6
Continuous
 62
     7
370
    35
100
AcDbLine
 10
-46.0570899834
 20
-250.711946195
 30
0.0
 11
-45.0570899834
 21
-250.711946195
 31
0.0
  0
LINE
  5
B0
330
1F
100
AcDbEntity
  8
0
  6
Continuous
 62
     7
370
    35
100
AcDbLine
 10
-46.0570899834
 20
-9.8563878554
 30
0.0
 11
-45.0570899834
 21
-9.8563878554
 31
0.0
  0
LINE
  5
B1
330
1F
100
AcDbEntity
  8
0
  6
Continuous
 62
     7
370
    35
100
AcDbLine
 10
344.9429100166
 20
-9.8563878554
 30
0.0
 11
-45.0570899834
 21
-9.8563878554
 31
0.0
  0
LINE
  5
B2
330
1F
100
AcDbEntity
  8
0
  6
Continuous
 62
     7
370
    35
100
AcDbLine
 10
-50.0570899834
 20
-158.7339623718
 30
0.0
 11
-48.0570899834
 21
-158.7339623718
 31
0.0
  0
LINE
  5
B3
330
1F
100
AcDbEntity
  8
0
  6
Continuous
 62
     7
370
    35
100
AcDbLine
 10
-48.0570899834
 20
-158.7339623718
 30
0.0
 11
-48.0570899834
 21
-160.266051258
 31
0.0
  0
LINE
  5
B4
330
1F
100
AcDbEntity
  8
0
  6
Continuous
 62
     7
370
    35
100
AcDbLine
 10
-50.0570899834
 20
-160.266051258
 30
0.0
 11
-50.0570899834
 21
-158.7339623718
 31
0.0
  0
LINE
  5
B5
330
1F
100
AcDbEntity
  8
0
  6
Continuous
 62
     7
370
    35
100
AcDbLine
 10
347.9429100166
 20
-171.1798573087
 30
0.0
 11
347.9429100166
 21
-160.266051258
 31
0.0
  0
LINE
  5
B6
330
1F
100
AcDbEntity
  8
0
  6
Continuous
 62
     7
370
    35
100
AcDbLine
 10
349.9429100166
 20
-160.266051258
 30
0.0
 11
347.9429100166
 21
-160.266051258
 31
0.0
  0
LINE
  5
B7
330
1F
100
AcDbEntity
  8
0
  6
Continuous
 62
     7
370
    35
100
AcDbLine
 10
349.9429100166
 20
-171.1798573087
 30
0.0
 11
349.9429100166
 21
-160.266051258
 31
0.0
  0
LINE
  5
B8
330
1F
100
AcDbEntity
  8
0
  6
Continuous
 62
     7
370
    35
100
AcDbLine
 10
347.9429100166
 20
-158.7339623718
 30
0.0
 11
349.9429100166
 21
-158.7339623718
 31
0.0
  0
LINE
  5
B9
330
1F
100
AcDbEntity
  8
0
  6
Continuous
 62
     7
370
    35
100
AcDbLine
 10
349.9429100166
 20
-158.7339623718
 30
0.0
 11
349.9429100166
 21
-160.266051258
 31
0.0
  0
LINE
  5
BA
330
1F
100
AcDbEntity
  8
0
  6
Continuous
 62
     7
370
    35
100
AcDbLine
 10
347.9429100166
 20
-160.266051258
 30
0.0
 11
347.9429100166
 21
-158.7339623718
 31
0.0
  0
LINE
  5
BB
330
1F
100
AcDbEntity
  8
0
  6
Continuous
 62
     7
370
    35
100
AcDbLine
 10
-48.0570899834
 20
63.6115232584
 30
0.0
 11
-50.0570899834
 21
63.6115232584
 31
0.0
  0
LINE
  5
BC
330
1F
100
AcDbEntity
  8
0
  6
Continuous
 62
     7
370
    35
100
AcDbLine
 10
-48.0570899834
 20
-158.7339623718
 30
0.0
 11
-48.0570899834
 21
63.6115232584
 31
0.0
  0
LINE
  5
BD
330
1F
100
AcDbEntity
  8
0
  6
Continuous
 62
     7
370
    35
100
AcDbLine
 10
-50.0570899834
 20
-158.7339623718
 30
0.0
 11
-50.0570899834
 21
63.6115232584
 31
0.0
  0
LINE
  5
BE
330
1F
100
AcDbEntity
  8
0
  6
Continuous
 62
     7
370
    35
100
AcDbLine
 10
349.9429100166
 20
63.6115232584
 30
0.0
 11
347.9429100166
 21
63.6115232584
 31
0.0
  0
LINE
  5
BF
330
1F
100
AcDbEntity
  8
0
  6
Continuous
 62
     7
370
    35
100
AcDbLine
 10
349.9429100166
 20
-158.7339623718
 30
0.0
 11
349.9429100166
 21
63.6115232584
 31
0.0
  0
LINE
  5
C0
330
1F
100
AcDbEntity
  8
0
  6
Continuous
 62
     7
370
    35
100
AcDbLine
 10
347.9429100166
 20
-158.7339623718
 30
0.0
 11
347.9429100166
 21
63.6115232584
 31
0.0
  0
LINE
  5
C1
330
1F
100
AcDbEntity
  8
0
  6
Continuous
 62
     7
370
    35
100
AcDbLine
 10
-50.0570899834
 20
64.0794343721
 30
0.0
 11
-48.0570899834
 21
64.0794343721
 31
0.0
  0
LINE
  5
C2
330
1F
100
AcDbEntity
  8
0
  6
Continuous
 62
     7
370
    35
100
AcDbLine
 10
-48.0570899834
 20
64.0794343721
 30
0.0
 11
-48.0570899834
 21
63.6115232584
 31
0.0
  0
LINE
  5
C3
330
1F
100
AcDbEntity
  8
0
  6
Continuous
 62
     7
370
    35
100
AcDbLine
 10
-50.0570899834
 20
63.6115232584
 30
0.0
 11
-50.0570899834
 21
64.0794343721
 31
0.0
  0
LINE
  5
C4
330
1F
100
AcDbEntity
  8
0
  6
Continuous
 62
     7
370
    35
100
AcDbLine
 10
347.9429100166
 20
64.0794343721
 30
0.0
 11
349.9429100166
 21
64.0794343721
 31
0.0
  0
LINE
  5
C5
330
1F
100
AcDbEntity
  8
0
  6
Continuous
 62
     7
370
    35
100
AcDbLine
 10
349.9429100166
 20
64.0794343721
 30
0.0
 11
349.9429100166
 21
63.6115232584
 31
0.0
  0
LINE
  5
C6
330
1F
100
AcDbEntity
  8
0
  6
Continuous
 62
     7
370
    35
100
AcDbLine
 10
347.9429100166
 20
63.6115232584
 30
0.0
 11
347.9429100166
 21
64.0794343721
 31
0.0
  0
LINE
  5
C7
330
1F
100
AcDbEntity
  8
0
  6
Continuous
 62
     7
370
    35
100
AcDbLine
 10
-45.0570899834
 20
-8.9205656279
 30
0.0
 11
344.9429100166
 21
-8.9205656279
 31
0.0
  0
LINE
  5
C8
330
1F
100
AcDbEntity
  8
0
  6
Continuous
 62
     7
370
    35
100
AcDbLine
 10
344.9429100166
 20
-8.9205656279
 30
0.0
 11
344.9429100166
 21
-9.8563878554
 31
0.0
  0
LINE
  5
C9
330
1F
100
AcDbEntity
  8
0
  6
Continuous
 62
     7
370
    35
100
AcDbLine
 10
-45.0570899834
 20
-9.8563878554
 30
0.0
 11
-45.0570899834
 21
-8.9205656279
 31
0.0
  0
LINE
  5
CA
330
1F
100
AcDbEntity
  8
0
  6
HIDDEN
 62
     7
370
    18
100
AcDbLine
 10
-45.0570899834
 20
-251.1798573087
 30
0.0
 11
-45.0570899834
 21
-253.1798573087
 31
0.0
  0
LINE
  5
CB
330
1F
100
AcDbEntity
  8
0
  6
HIDDEN
 62
     7
370
    18
100
AcDbLine
 10
-45.0570899834
 20
-252.2440350812
 30
0.0
 11
344.9429100166
 21
-252.2440350812
 31
0.0
  0
LINE
  5
CC
330
1F
100
AcDbEntity
  8
0
  6
HIDDEN
 62
     7
370
    18
100
AcDbLine
 10
344.9429100166
 20
-251.1798573087
 30
0.0
 11
344.9429100166
 21
-253.1798573087
 31
0.0
  0
SPLINE
  5
CD
330
1F
100
AcDbEntity
  8
0
  6
HIDDEN
 62
     7
370
    18
100
AcDbSpline
210
0.0
220
0.0
230
1.0
 70
     8
 71
     3
 72
    22
 73
    18
 74
     0
 42
0.00000001
 43
0.00000001
 40
0.0
 40
0.0
 40
0.0
 40
0.0
 40
0.125
 40
0.125
 40
0.25
 40
0.25
 40
0.375
 40
0.375
 40
0.5
 40
0.5
 40
0.625
 40
0.625
 40
0.75
 40
0.75
 40
0.875
 40
0.875
 40
1.0
 40
1.0
 40
1.0
 40
1.0
 10
-46.05708998340233
 20
-11.38847674161393
 30
0.0
 10
-46.32119110650182
 20
-11.34313466542845
 30
0.0
 10
-46.58102706363088
 20
-11.27866134534312
 30
0.0
 10
-47.09186679948668
 20
-11.11151332206269
 30
0.0
 10
-47.34519557726133
 20
-11.00761436780229
 30
0.0
 10
-47.83016237702681
 20
-10.76362861816926
 30
0.0
 10
-48.059935217385
 20
-10.6249754611436
 30
0.0
 10
-48.49393973027804
 20
-10.31361341587983
 30
0.0
 10
-48.69981732201878
 20
-10.13887702797728
 30
0.0
 10
-49.06946232095877
 20
-9.766166587621694
 30
0.0
 10
-49.2348646867623
 20
-9.56754959871886
 30
0.0
 10
-49.52619784073347
 20
-9.144459763565038
 30
0.0
 10
-49.6515797211669
 20
-8.919566149068913
 30
0.0
 10
-49.85138738598316
 20
-8.461326719485907
 30
0.0
 10
-49.92757078960114
 20
-8.225730036673317
 30
0.0
 10
-50.03089905812166
 20
-7.740076154428732
 30
0.0
 10
-50.05708998340205
 20
-7.493228561298581
 30
0.0
 10
-50.05708998340211
 20
-7.245573276712824
 30
0.0
  0
SPLINE
  5
CE
330
1F
100
AcDbEntity
  8
0
  6
HIDDEN
 62
     7
370
    18
100
AcDbSpline
210
0.0
220
0.0
230
1.0
 70
     8
 71
     3
 72
    22
 73
    18
 74
     0
 42
0.00000001
 43
0.00000001
 40
0.0
 40
0.0
 40
0.0
 40
0.0
 40
0.125
 40
0.125
 40
0.25
 40
0.25
 40
0.375
 40
0.375
 40
0.5
 40
0.5
 40
0.625
 40
0.625
 40
0.75
 40
0.75
 40
0.875
 40
0.875
 40
1.0
 40
1.0
 40
1.0
 40
1.0
 10
-50.05708998340278
 20
-248.1011316163087
 30
0.0
 10
-50.05708998340291
 20
-248.3487868902661
 30
0.0
 10
-50.03116894711832
 20
-248.5924494356269
 30
0.0
 10
-49.92969254689667
 20
-249.0731879673868
 30
0.0
 10
-49.85309684845399
 20
-249.3124723149845
 30
0.0
 10
-49.65223927479734
 20
-249.7740983585169
 30
0.0
 10
-49.52935989926627
 20
-249.9946366602793
 30
0.0
 10
-49.23982633928426
 20
-250.4166698762126
 30
0.0
 10
-49.07110202363754
 20
-250.619867324811
 30
0.0
 10
-48.70168622193815
 20
-250.9927533404392
 30
0.0
 10
-48.50050321332594
 20
-251.1639607667471
 30
0.0
 10
-48.06552493422414
 20
-251.4770120520138
 30
0.0
 10
-47.83122517045074
 20
-251.6184697272212
 30
0.0
 10
-47.3498464792616
 20
-251.8610132367085
 30
0.0
 10
-47.10045961111409
 20
-251.9639283679895
 30
0.0
 10
-46.58442601371171
 20
-252.133431626399
 30
0.0
 10
-46.32119111783564
 20
-252.1986930030812
 30
0.0
 10
-46.05708998340188
 20
-252.2440350812127
 30
0.0
  0
LINE
  5
CF
330
1F
100
AcDbEntity
  8
0
  6
HIDDEN
 62
     7
370
    18
100
AcDbLine
 10
-48.0570899834
 20
-248.1011316163
 30
0.0
 11
-50.0570899834
 21
-248.1011316163
 31
0.0
  0
SPLINE
  5
D0
330
1F
100
AcDbEntity
  8
0
  6
HIDDEN
 62
     7
370
    18
100
AcDbSpline
210
0.0
220
0.0
230
1.0
 70
     8
 71
     3
 72
    22
 73
    18
 74
     0
 42
0.00000001
 43
0.00000001
 40
0.0
 40
0.0
 40
0.0
 40
0.0
 40
0.125
 40
0.125
 40
0.25
 40
0.25
 40
0.375
 40
0.375
 40
0.5
 40
0.5
 40
0.625
 40
0.625
 40
0.75
 40
0.75
 40
0.875
 40
0.875
 40
1.0
 40
1.0
 40
1.0
 40
1.0
 10
345.9429100165979
 20
-252.244035081212
 30
0.0
 10
346.2070111396974
 20
-252.1986930050265
 30
0.0
 10
346.4668470968265
 20
-252.1342196849421
 30
0.0
 10
346.9776868326821
 20
-251.9670716616614
 30
0.0
 10
347.2310156104568
 20
-251.8631727074013
 30
0.0
 10
347.715982410222
 20
-251.6191869577681
 30
0.0
 10
347.9457552505802
 20
-251.4805338007423
 30
0.0
 10
348.3797597634731
 20
-251.1691717554786
 30
0.0
 10
348.5856373552139
 20
-250.9944353675762
 30
0.0
 10
348.9552823541538
 20
-250.6217249272206
 30
0.0
 10
349.1206847199573
 20
-250.4231079383179
 30
0.0
 10
349.4120178739284
 20
-250.0000181031639
 30
0.0
 10
349.5373997543617
 20
-249.7751244886678
 30
0.0
 10
349.7372074191778
 20
-249.3168850590842
 30
0.0
 10
349.813390822796
 20
-249.0812883762715
 30
0.0
 10
349.9167190913165
 20
-248.5956344940269
 30
0.0
 10
349.9429100165977
 20
-248.3487869008949
 30
0.0
 10
349.9429100165976
 20
-248.101131616309
 30
0.0
  0
SPLINE
  5
D1
330
1F
100
AcDbEntity
  8
0
  6
HIDDEN
 62
     7
370
    18
100
AcDbSpline
210
0.0
220
0.0
230
1.0
 70
     8
 71
     3
 72
    22
 73
    18
 74
     0
 42
0.00000001
 43
0.00000001
 40
0.0
 40
0.0
 40
0.0
 40
0.0
 40
0.125
 40
0.125
 40
0.25
 40
0.25
 40
0.375
 40
0.375
 40
0.5
 40
0.5
 40
0.625
 40
0.625
 40
0.75
 40
0.75
 40
0.875
 40
0.875
 40
1.0
 40
1.0
 40
1.0
 40
1.0
 10
349.9429100165976
 20
-7.245573276712214
 30
0.0
 10
349.9429100165976
 20
-7.49322855066964
 30
0.0
 10
349.9169889803129
 20
-7.736891096029708
 30
0.0
 10
349.8155125800911
 20
-8.217629627789492
 30
0.0
 10
349.7389168816482
 20
-8.456913975386836
 30
0.0
 10
349.5380593079913
 20
-8.918540018919174
 30
0.0
 10
349.4151799324603
 20
-9.139078320681392
 30
0.0
 10
349.1256463724782
 20
-9.561111536614654
 30
0.0
 10
348.9569220568318
 20
-9.764308985212855
 30
0.0
 10
348.5875062551324
 20
-10.1371950008407
 30
0.0
 10
348.3863232465201
 20
-10.30840242714859
 30
0.0
 10
347.9513449674185
 20
-10.62145371241524
 30
0.0
 10
347.7170452036453
 20
-10.76291138762264
 30
0.0
 10
347.2356665124564
 20
-11.00545489710986
 30
0.0
 10
346.9862796443089
 20
-11.10837002839084
 30
0.0
 10
346.4702460469068
 20
-11.27787328680015
 30
0.0
 10
346.2070111510309
 20
-11.34313466348276
 30
0.0
 10
345.9429100165974
 20
-11.38847674161426
 30
0.0
  0
LINE
  5
D2
330
1F
100
AcDbEntity
  8
0
  6
HIDDEN
 62
     7
370
    18
100
AcDbLine
 10
347.9429100166
 20
-248.1011316163
 30
0.0
 11
349.9429100166
 21
-248.1011316163
 31
0.0
  0
LINE
  5
D3
330
1F
100
AcDbEntity
  8
0
  6
HIDDEN
 62
     7
370
    18
100
AcDbLine
 10
-46.0570899834
 20
-252.2440350812
 30
0.0
 11
-45.0570899834
 21
-252.2440350812
 31
0.0
  0
LINE
  5
D4
330
1F
100
AcDbEntity
  8
0
  6
HIDDEN
 62
     7
370
    18
100
AcDbLine
 10
345.9429100166
 20
-252.2440350812
 30
0.0
 11
344.9429100166
 21
-252.2440350812
 31
0.0
  0
LINE
  5
D5
330
1F
100
AcDbEntity
  8
0
  6
HIDDEN
 62
     7
370
    18
100
AcDbLine
 10
-50.0570899834
 20
62.0794343721
 30
0.0
 11
-48.0570899834
 21
62.0794343721
 31
0.0
  0
LINE
  5
D6
330
1F
100
AcDbEntity
  8
0
  6
HIDDEN
 62
     7
370
    18
100
AcDbLine
 10
347.9429100166
 20
62.0794343721
 30
0.0
 11
349.9429100166
 21
62.0794343721
 31
0.0
  0
LINE
  5
D7
330
1F
100
AcDbEntity
  8
0
  6
HIDDEN
 62
     7
370
    18
100
AcDbLine
 10
-48.0570899834
 20
-7.2455732767
 30
0.0
 11
-50.0570899834
 21
-7.2455732767
 31
0.0
  0
LINE
  5
D8
330
1F
100
AcDbEntity
  8
0
  6
HIDDEN
 62
     7
370
    18
100
AcDbLine
 10
-45.0570899834
 20
-11.3884767416
 30
0.0
 11
-45.0570899834
 21
-9.8563878554
 31
0.0
  0
LINE
  5
D9
330
1F
100
AcDbEntity
  8
0
  6
HIDDEN
 62
     7
370
    18
100
AcDbLine
 10
-46.0570899834
 20
-11.3884767416
 30
0.0
 11
-45.0570899834
 21
-11.3884767416
 31
0.0
  0
LINE
  5
DA
330
1F
100
AcDbEntity
  8
0
  6
HIDDEN
 62
     7
370
    18
100
AcDbLine
 10
347.9429100166
 20
-7.2455732767
 30
0.0
 11
349.9429100166
 21
-7.2455732767
 31
0.0
  0
LINE
  5
DB
330
1F
100
AcDbEntity
  8
0
  6
HIDDEN
 62
     7
370
    18
100
AcDbLine
 10
345.9429100166
 20
-11.3884767416
 30
0.0
 11
344.9429100166
 21
-11.3884767416
 31
0.0
  0
LINE
  5
DC
330
1F
100
AcDbEntity
  8
0
  6
HIDDEN
 62
     7
370
    18
100
AcDbLine
 10
344.9429100166
 20
-11.3884767416
 30
0.0
 11
344.9429100166
 21
-9.8563878554
 31
0.0
  0
LINE
  5
DD
330
1F
100
AcDbEntity
  8
0
  6
HIDDEN
 62
     7
370
    18
100
AcDbLine
 10
-45.0570899834
 20
-10.9205656279
 30
0.0
 11
344.9429100166
 21
-10.9205656279
 31
0.0
  0
LINE
  5
DE
330
1F
100
AcDbEntity
  8
0
  6
HIDDEN
 62
     7
370
    18
100
AcDbLine
 10
344.9429100166
 20
-11.3884767416
 30
0.0
 11
-45.0570899834
 21
-11.3884767416
 31
0.0
  0
LINE
  5
DF
330
1F
100
AcDbEntity
  8
0
  6
HIDDEN
 62
     7
370
    18
100
AcDbLine
 10
342.9429100166
 20
-8.9205656279
 30
0.0
 11
342.9429100166
 21
-10.9205656279
 31
0.0
  0
LINE
  5
E0
330
1F
100
AcDbEntity
  8
0
  6
HIDDEN
 62
     7
370
    18
100
AcDbLine
 10
-43.0570899834
 20
-10.9205656279
 30
0.0
 11
-43.0570899834
 21
-8.9205656279
 31
0.0
  0
LINE
  5
E1
330
1F
100
AcDbEntity
  8
0
  6
Continuous
 62
     7
370
    35
100
AcDbLine
 10
-243.6709750635
 20
-808.6620856399
 30
0.0
 11
-40.7030882665
 21
-494.8231945945
 31
0.0
  0
LINE
  5
E2
330
1F
100
AcDbEntity
  8
0
  6
Continuous
 62
     7
370
    35
100
AcDbLine
 10
-352.4685950261
 20
-872.5119270634
 30
0.0
 11
-245.5819013191
 21
-810.8075522009
 31
0.0
  0
LINE
  5
E3
330
1F
100
AcDbEntity
  8
0
  6
Continuous
 62
     7
370
    35
100
AcDbLine
 10
-245.1676064893
 20
-746.0033816587
 30
0.0
 11
-246.5818200517
 21
-745.1869735469
 31
0.0
  0
LINE
  5
E4
330
1F
100
AcDbEntity
  8
0
  6
Continuous
 62
     7
370
    35
100
AcDbLine
 10
-41.2902998094
 20
-436.2087047065
 30
0.0
 11
-42.7045133717
 21
-435.3922965947
 31
0.0
  0
LINE
  5
E5
330
1F
100
AcDbEntity
  8
0
  6
Continuous
 62
     7
370
    35
100
AcDbLine
 10
22.7237928299
 20
-455.456210462
 30
0.0
 11
22.7237928299
 21
-453.8231288382
 31
0.0
  0
LINE
  5
E6
330
1F
100
AcDbEntity
  8
0
  6
Continuous
 62
     7
370
    35
100
AcDbLine
 10
-526.5961054016
 20
-583.538167406
 30
0.0
 11
-528.0103189639
 21
-582.7217592942
 31
0.0
  0
LINE
  5
E7
330
1F
100
AcDbEntity
  8
0
  6
Continuous
 62
     7
370
    35
100
AcDbLine
 10
-322.7187987216
 20
-273.7434904538
 30
0.0
 11
-324.133012284
 21
-272.927082342
 31
0.0
  0
SPLINE
  5
E8
330
1F
100
AcDbEntity
  8
0
  6
Continuous
 62
     7
370
    35
100
AcDbSpline
210
0.0
220
0.0
230
1.0
 70
     8
 71
     3
 72
     9
 73
     5
 74
     0
 42
0.00000001
 43
0.00000001
 40
0.0
 40
0.0
 40
0.0
 40
0.0
 40
0.4563644948639246
 40
1.0
 40
1.0
 40
1.0
 40
1.0
 10
-320.8437328229935
 20
-333.995524256795
 30
0.0
 10
-320.9512822601897
 20
-333.8755409029138
 30
0.0
 10
-321.1869479143032
 20
-333.6126296658842
 30
0.0
 10
-321.3075383672787
 20
-333.4210821125429
 30
0.0
 10
-321.3730956190964
 20
-333.3169500616248
 30
0.0
  0
ARC
  5
E9
330
1F
100
AcDbEntity
  8
0
  6
Continuous
 62
     7
370
    35
100
AcDbCircle
 10
-41.7381537145
 20
-436.9845399257
 30
0.0
 40
0.8734183948570474
100
AcDbArc
 50
350.7859630096
 51
129.2032852357
  0
LINE
  5
EA
330
1F
100
AcDbEntity
  8
0
  6
Continuous
 62
     7
370
    35
100
AcDbLine
 10
-40.8760049796
 20
-437.1243943195
 30
0.0
 11
-40.8760049796
 21
-493.7310923491
 31
0.0
  0
LINE
  5
EB
330
1F
100
AcDbEntity
  8
0
  6
Continuous
 62
     7
370
    35
100
AcDbLine
 10
-40.8760049796
 20
-493.7310923491
 30
0.0
 11
-243.8442727042
 21
-807.5705724036
 31
0.0
  0
LINE
  5
EC
330
1F
100
AcDbEntity
  8
0
  6
Continuous
 62
     7
370
    35
100
AcDbLine
 10
-243.8442727042
 20
-807.5705724036
 30
0.0
 11
-243.8442727042
 21
-735.8496445758
 31
0.0
  0
ARC
  5
ED
330
1F
100
AcDbEntity
  8
0
  6
Continuous
 62
     7
370
    35
100
AcDbCircle
 10
-240.8872747337
 20
-735.9639444503
 30
0.0
 40
2.959206221147925
100
AcDbArc
 50
145.9491428403
 51
177.7863895242
  0
LINE
  5
EE
330
1F
100
AcDbEntity
  8
0
  6
Continuous
 62
     7
370
    35
100
AcDbLine
 10
-243.3390980972
 20
-734.3070003796
 30
0.0
 11
-55.9692139814
 21
-444.5865053091
 31
0.0
  0
ARC
  5
EF
330
1F
100
AcDbEntity
  8
0
  6
Continuous
 62
     7
370
    35
100
AcDbCircle
 10
-53.5893810733
 20
-446.0630527861
 30
0.0
 40
2.800677975518222
100
AcDbArc
 50
121.6787723709
 51
148.1828119834
  0
LINE
  5
F0
330
1F
100
AcDbEntity
  8
0
  6
Continuous
 62
     7
370
    35
100
AcDbLine
 10
-55.060175026
 20
-443.6796597696
 30
0.0
 11
-42.290218542
 21
-436.3077208075
 31
0.0
  0
LINE
  5
F1
330
1F
100
AcDbEntity
  8
0
  6
Continuous
 62
     7
370
    35
100
AcDbLine
 10
-244.7533116596
 20
-733.4905922678
 30
0.0
 11
-243.3390980972
 21
-734.3070003796
 31
0.0
  0
LINE
  5
F2
330
1F
100
AcDbEntity
  8
0
  6
Continuous
 62
     7
370
    35
100
AcDbLine
 10
-244.7533116596
 20
-733.4905922678
 30
0.0
 11
-57.3834275438
 21
-443.7700971972
 31
0.0
  0
LINE
  5
F3
330
1F
100
AcDbEntity
  8
0
  6
Continuous
 62
     7
370
    35
100
AcDbLine
 10
-55.9692139814
 20
-444.5865053091
 30
0.0
 11
-57.3834275438
 21
-443.7700971972
 31
0.0
  0
SPLINE
  5
F4
330
1F
100
AcDbEntity
  8
0
  6
Continuous
 62
     7
370
    35
100
AcDbSpline
210
0.0
220
0.0
230
1.0
 70
     8
 71
     3
 72
    18
 73
    14
 74
     0
 42
0.00000001
 43
0.00000001
 40
0.0
 40
0.0
 40
0.0
 40
0.0
 40
0.2500000000000099
 40
0.2500000000000099
 40
0.3750000000000085
 40
0.3750000000000085
 40
0.5000000000000072
 40
0.5000000000000072
 40
0.6250000000000058
 40
0.6250000000000058
 40
0.7500000000000044
 40
0.7500000000000044
 40
1.0
 40
1.0
 40
1.0
 40
1.0
 10
-244.7034805096999
 20
-808.9543593136066
 30
0.0
 10
-244.4350723716433
 20
-808.968977482267
 30
0.0
 10
-244.2147463686931
 20
-808.9534709990927
 30
0.0
 10
-243.9519517584094
 20
-808.8796156016632
 30
0.0
 10
-243.876276242696
 20
-808.8463164953738
 30
0.0
 10
-243.7523826549626
 20
-808.7636859805333
 30
0.0
 10
-243.7033882091074
 20
-808.7141853238475
 30
0.0
 10
-243.6308147590877
 20
-808.5977754886817
 30
0.0
 10
-243.6072653000435
 20
-808.5301996945409
 30
0.0
 10
-243.5868604236932
 20
-808.380111885129
 30
0.0
 10
-243.5896493653298
 20
-808.2975119704749
 30
0.0
 10
-243.6354109134197
 20
-808.0260012298361
 30
0.0
 10
-243.7170286241441
 20
-807.8115672063838
 30
0.0
 10
-243.8442727042372
 20
-807.5705724035627
 30
0.0
  0
SPLINE
  5
F5
330
1F
100
AcDbEntity
  8
0
  6
Continuous
 62
     7
370
    35
100
AcDbSpline
210
0.0
220
0.0
230
1.0
 70
     8
 71
     3
 72
     9
 73
     5
 74
     0
 42
0.00000001
 43
0.00000001
 40
0.0
 40
0.0
 40
0.0
 40
0.0
 40
0.5654133019619674
 40
1.0
 40
1.0
 40
1.0
 40
1.0
 10
-40.87600497963656
 20
-493.7310923490517
 30
0.0
 10
-40.75560075444412
 20
-493.991184261676
 30
0.0
 10
-40.54265170500593
 20
-494.4511874340843
 30
0.0
 10
-40.67988124226979
 20
-494.6943164377934
 30
0.0
 10
-40.73951937374265
 20
-494.7999770687126
 30
0.0
  0
LINE
  5
F6
330
1F
100
AcDbEntity
  8
0
  6
Continuous
 62
     7
370
    35
100
AcDbLine
 10
-301.5053065874
 20
-776.4154027324
 30
0.0
 11
-523.1514512729
 21
-648.4618069743
 31
0.0
  0
LINE
  5
F7
330
1F
100
AcDbEntity
  8
0
  6
Continuous
 62
     7
370
    35
100
AcDbLine
 10
-523.8585580541
 20
-648.0536029184
 30
0.0
 11
-523.1514512729
 21
-648.4618069743
 31
0.0
  0
LINE
  5
F8
330
1F
100
AcDbEntity
  8
0
  6
Continuous
 62
     7
370
    35
100
AcDbLine
 10
-523.8585580541
 20
-648.0536029184
 30
0.0
 11
-320.8902903295
 21
-334.2141228639
 31
0.0
  0
LINE
  5
F9
330
1F
100
AcDbEntity
  8
0
  6
Continuous
 62
     7
370
    35
100
AcDbLine
 10
-320.8902903295
 20
-334.2141228639
 30
0.0
 11
-320.1831835483
 21
-334.6223269198
 31
0.0
  0
LINE
  5
FA
330
1F
100
AcDbEntity
  8
0
  6
Continuous
 62
     7
370
    35
100
AcDbLine
 10
-77.4270177743
 20
-474.7624784542
 30
0.0
 11
-320.1831835483
 21
-334.6223269198
 31
0.0
  0
LINE
  5
FB
330
1F
100
AcDbEntity
  8
0
  6
Continuous
 62
     7
370
    35
100
AcDbLine
 10
-244.7533116596
 20
-808.976172975
 30
0.0
 11
-351.6400053666
 21
-870.6805478375
 31
0.0
  0
LINE
  5
FC
330
1F
100
AcDbEntity
  8
0
  6
Continuous
 62
     7
370
    35
100
AcDbLine
 10
-351.6400053666
 20
-870.6805478375
 30
0.0
 11
-351.6400053666
 21
-808.6234461342
 31
0.0
  0
ARC
  5
FD
330
1F
100
AcDbEntity
  8
0
  6
Continuous
 62
     7
370
    35
100
AcDbCircle
 10
-348.5695731639
 20
-808.7631678387
 30
0.0
 40
3.073609615143234
100
AcDbArc
 50
122.60547834
 51
177.3945215144
  0
LINE
  5
FE
330
1F
100
AcDbEntity
  8
0
  6
Continuous
 62
     7
370
    35
100
AcDbLine
 10
-350.2257918043
 20
-806.1739563986
 30
0.0
 11
-246.167525222
 21
-746.1023977597
 31
0.0
  0
ARC
  5
FF
330
1F
100
AcDbEntity
  8
0
  6
Continuous
 62
     7
370
    35
100
AcDbCircle
 10
-245.6154603944
 20
-746.7792168779
 30
0.0
 40
0.8734183948569865
100
AcDbArc
 50
350.7859630095
 51
129.2032852357
  0
LINE
  5
100
330
1F
100
AcDbEntity
  8
0
  6
Continuous
 62
     7
370
    35
100
AcDbLine
 10
-244.7533116596
 20
-746.9190712717
 30
0.0
 11
-244.7533116596
 21
-808.976172975
 31
0.0
  0
LINE
  5
101
330
1F
100
AcDbEntity
  8
0
  6
Continuous
 62
     7
370
    35
100
AcDbLine
 10
-351.6400053666
 20
-808.6234461342
 30
0.0
 11
-353.054218929
 21
-807.8070380224
 31
0.0
  0
ARC
  5
102
330
1F
100
AcDbEntity
  8
0
  6
Continuous
 62
     7
370
    35
100
AcDbCircle
 10
-349.9837867263
 20
-807.9467597269
 30
0.0
 40
3.073609615144605
100
AcDbArc
 50
122.60547834
 51
177.3945215143
  0
LINE
  5
103
330
1F
100
AcDbEntity
  8
0
  6
Continuous
 62
     7
370
    35
100
AcDbLine
 10
-351.6400053666
 20
-805.3575482868
 30
0.0
 11
-350.2257918043
 21
-806.1739563986
 31
0.0
  0
LINE
  5
104
330
1F
100
AcDbEntity
  8
0
  6
Continuous
 62
     7
370
    35
100
AcDbLine
 10
-353.054218929
 20
-869.8641397257
 30
0.0
 11
-351.6400053666
 21
-870.6805478375
 31
0.0
  0
LINE
  5
105
330
1F
100
AcDbEntity
  8
0
  6
Continuous
 62
     7
370
    35
100
AcDbLine
 10
-353.054218929
 20
-869.8641397257
 30
0.0
 11
-353.054218929
 21
-807.8070380224
 31
0.0
  0
LINE
  5
106
330
1F
100
AcDbEntity
  8
0
  6
Continuous
 62
     7
370
    35
100
AcDbLine
 10
-246.167525222
 20
-746.1023977597
 30
0.0
 11
-247.5817387843
 21
-745.2859896479
 31
0.0
  0
LINE
  5
107
330
1F
100
AcDbEntity
  8
0
  6
Continuous
 62
     7
370
    35
100
AcDbLine
 10
-351.6400053666
 20
-805.3575482868
 30
0.0
 11
-247.5817387843
 21
-745.2859896479
 31
0.0
  0
ARC
  5
108
330
1F
100
AcDbEntity
  8
0
  6
Continuous
 62
     7
370
    35
100
AcDbCircle
 10
-353.3643028363
 20
-870.9602566251
 30
0.0
 40
1.746836789713936
100
AcDbArc
 50
230.7967147643
 51
9.2140369905
  0
ARC
  5
109
330
1F
100
AcDbEntity
  8
0
  6
Continuous
 62
     7
370
    35
100
AcDbCircle
 10
-246.6560538837
 20
-809.2184290892
 30
0.0
 40
1.918102186054869
100
AcDbArc
 50
304.0563508388
 51
7.2558295546
  0
LINE
  5
10A
330
1F
100
AcDbEntity
  8
0
  6
Continuous
 62
     7
370
    35
100
AcDbLine
 10
-354.4684324914
 20
-870.6808132377
 30
0.0
 11
-354.4684324914
 21
-872.3138948614
 31
0.0
  0
ARC
  5
10B
330
1F
100
AcDbEntity
  8
0
  6
Continuous
 62
     7
370
    35
100
AcDbCircle
 10
-353.9163676639
 20
-870.0039941195
 30
0.0
 40
0.8734183948570342
100
AcDbArc
 50
230.7967147643
 51
9.2140369905
  0
LINE
  5
10C
330
1F
100
AcDbEntity
  8
0
  6
Continuous
 62
     7
370
    35
100
AcDbLine
 10
-353.0542189477
 20
-869.8644051366
 30
0.0
 11
-354.4684324914
 21
-870.6808132377
 31
0.0
  0
LINE
  5
10D
330
1F
100
AcDbEntity
  8
0
  6
Continuous
 62
     7
370
    35
100
AcDbLine
 10
-631.6542907165
 20
-712.2979049442
 30
0.0
 11
-354.4684324914
 21
-872.3138948614
 31
0.0
  0
LINE
  5
10E
330
1F
100
AcDbEntity
  8
0
  6
Continuous
 62
     7
370
    35
100
AcDbLine
 10
-631.6542907165
 20
-710.6648233204
 30
0.0
 11
-631.6542907165
 21
-712.2979049442
 31
0.0
  0
LINE
  5
10F
330
1F
100
AcDbEntity
  8
0
  6
Continuous
 62
     7
370
    35
100
AcDbLine
 10
-631.6542907165
 20
-710.6648233204
 30
0.0
 11
-354.4684324914
 21
-870.6808132377
 31
0.0
  0
LINE
  5
110
330
1F
100
AcDbEntity
  8
0
  6
Continuous
 62
     7
370
    35
100
AcDbLine
 10
-631.6542907165
 20
-710.6648233204
 30
0.0
 11
-524.7675970095
 21
-648.9604484579
 31
0.0
  0
LINE
  5
111
330
1F
100
AcDbEntity
  8
0
  6
Continuous
 62
     7
370
    35
100
AcDbLine
 10
-524.7675970095
 20
-648.9604484579
 30
0.0
 11
-524.0604902283
 21
-649.3686525138
 31
0.0
  0
LINE
  5
112
330
1F
100
AcDbEntity
  8
0
  6
Continuous
 62
     7
370
    35
100
AcDbLine
 10
-524.0604902283
 20
-649.3686525138
 30
0.0
 11
-302.7452624432
 21
-777.1312140115
 31
0.0
  0
LINE
  5
113
330
1F
100
AcDbEntity
  8
0
  6
Continuous
 62
     7
370
    35
100
AcDbLine
 10
-243.8442727042
 20
-735.8496445758
 30
0.0
 11
-245.2584862666
 21
-735.0332364639
 31
0.0
  0
ARC
  5
114
330
1F
100
AcDbEntity
  8
0
  6
Continuous
 62
     7
370
    35
100
AcDbCircle
 10
-242.301488296
 20
-735.1475363384
 30
0.0
 40
2.959206221142748
100
AcDbArc
 50
145.9491428403
 51
177.7863895242
  0
LINE
  5
115
330
1F
100
AcDbEntity
  8
0
  6
Continuous
 62
     7
370
    35
100
AcDbLine
 10
-244.7533116596
 20
-807.0457953848
 30
0.0
 11
-243.8442727042
 21
-807.5705724036
 31
0.0
  0
LINE
  5
116
330
1F
100
AcDbEntity
  8
0
  6
Continuous
 62
     7
370
    35
100
AcDbLine
 10
-245.2584862666
 20
-745.95091788
 30
0.0
 11
-245.2584862666
 21
-735.0332364639
 31
0.0
  0
ARC
  5
117
330
1F
100
AcDbEntity
  8
0
  6
Continuous
 62
     7
370
    35
100
AcDbCircle
 10
-246.9958986746
 20
-746.1037523061
 30
0.0
 40
1.005954471803471
100
AcDbArc
 50
65.6928809539
 51
125.6175774752
  0
LINE
  5
118
330
1F
100
AcDbEntity
  8
0
  6
Continuous
 62
     7
370
    35
100
AcDbLine
 10
-56.4743885884
 20
-442.8632516578
 30
0.0
 11
-55.060175026
 21
-443.6796597696
 31
0.0
  0
ARC
  5
119
330
1F
100
AcDbEntity
  8
0
  6
Continuous
 62
     7
370
    35
100
AcDbCircle
 10
-55.0035946356
 20
-445.2466446743
 30
0.0
 40
2.800677975520897
100
AcDbArc
 50
121.678772371
 51
148.1828119834
  0
LINE
  5
11A
330
1F
100
AcDbEntity
  8
0
  6
Continuous
 62
     7
370
    35
100
AcDbLine
 10
-42.290218542
 20
-436.3077208075
 30
0.0
 11
-43.7044321044
 21
-435.4913126957
 31
0.0
  0
LINE
  5
11B
330
1F
100
AcDbEntity
  8
0
  6
Continuous
 62
     7
370
    35
100
AcDbLine
 10
-56.4743885884
 20
-442.8632516578
 30
0.0
 11
-43.7044321044
 21
-435.4913126957
 31
0.0
  0
ARC
  5
11C
330
1F
100
AcDbEntity
  8
0
  6
Continuous
 62
     7
370
    35
100
AcDbCircle
 10
-43.1185919947
 20
-436.3090753539
 30
0.0
 40
1.005954471803157
100
AcDbArc
 50
65.6928809539
 51
125.6175774752
  0
ARC
  5
11D
330
1F
100
AcDbEntity
  8
0
  6
Continuous
 62
     7
370
    35
100
AcDbCircle
 10
-525.531284181
 20
-646.9852594973
 30
0.0
 40
2.800677975491488
100
AcDbArc
 50
301.6787723708
 51
328.1828119835
  0
ARC
  5
11E
330
1F
100
AcDbEntity
  8
0
  6
Continuous
 62
     7
370
    35
100
AcDbCircle
 10
-315.4235177321
 20
-337.5754218739
 30
0.0
 40
5.601355951023093
100
AcDbArc
 50
121.6787723709
 51
148.1828119834
  0
LINE
  5
11F
330
1F
100
AcDbEntity
  8
0
  6
Continuous
 62
     7
370
    35
100
AcDbLine
 10
-318.3651056376
 20
-332.8086358409
 30
0.0
 11
-76.0786798311
 21
-472.6776122641
 31
0.0
  0
LINE
  5
120
330
1F
100
AcDbEntity
  8
0
  6
Continuous
 62
     7
370
    35
100
AcDbLine
 10
-318.3651056376
 20
-332.8086358409
 30
0.0
 11
-253.6336382705
 21
-295.4399551446
 31
0.0
  0
ARC
  5
121
330
1F
100
AcDbEntity
  8
0
  6
Continuous
 62
     7
370
    35
100
AcDbCircle
 10
-252.2194247081
 20
-298.1693773145
 30
0.0
 40
3.074043815824399
100
AcDbArc
 50
62.6096722366
 51
117.3903277634
  0
LINE
  5
122
330
1F
100
AcDbEntity
  8
0
  6
Continuous
 62
     7
370
    35
100
AcDbLine
 10
-250.8052111457
 20
-295.4399551446
 30
0.0
 11
22.1380063923
 21
-453.0067207264
 31
0.0
  0
ARC
  5
123
330
1F
100
AcDbEntity
  8
0
  6
Continuous
 62
     7
370
    35
100
AcDbCircle
 10
21.8281523387
 20
-453.8231288382
 30
0.0
 40
0.8732306336685246
100
AcDbArc
 50
290.7834207995
 51
69.2165792006
  0
LINE
  5
124
330
1F
100
AcDbEntity
  8
0
  6
Continuous
 62
     7
370
    35
100
AcDbLine
 10
22.1380063923
 20
-454.63953695
 30
0.0
 11
-40.8760049796
 21
-491.0167514042
 31
0.0
  0
LINE
  5
125
330
1F
100
AcDbEntity
  8
0
  6
Continuous
 62
     7
370
    35
100
AcDbLine
 10
22.1380063923
 20
-456.2726185738
 30
0.0
 11
22.1380063923
 21
-454.63953695
 31
0.0
  0
LINE
  5
126
330
1F
100
AcDbEntity
  8
0
  6
Continuous
 62
     7
370
    35
100
AcDbLine
 10
22.1380063923
 20
-456.2726185738
 30
0.0
 11
-40.8760049796
 21
-492.649833028
 31
0.0
  0
LINE
  5
127
330
1F
100
AcDbEntity
  8
0
  6
Continuous
 62
     7
370
    35
100
AcDbLine
 10
-322.3045038919
 20
-331.2658780963
 30
0.0
 11
-525.2727716165
 21
-645.1053581508
 31
0.0
  0
LINE
  5
128
330
1F
100
AcDbEntity
  8
0
  6
Continuous
 62
     7
370
    35
100
AcDbLine
 10
-525.2727716165
 20
-645.1053581508
 30
0.0
 11
-525.2727716165
 21
-573.384430323
 31
0.0
  0
ARC
  5
129
330
1F
100
AcDbEntity
  8
0
  6
Continuous
 62
     7
370
    35
100
AcDbCircle
 10
-522.3157736459
 20
-573.4987301975
 30
0.0
 40
2.959206221146395
100
AcDbArc
 50
145.9491428403
 51
177.7863895242
  0
LINE
  5
12A
330
1F
100
AcDbEntity
  8
0
  6
Continuous
 62
     7
370
    35
100
AcDbLine
 10
-524.7675970095
 20
-571.8417861269
 30
0.0
 11
-337.3977128936
 21
-282.1212910563
 31
0.0
  0
ARC
  5
12B
330
1F
100
AcDbEntity
  8
0
  6
Continuous
 62
     7
370
    35
100
AcDbCircle
 10
-335.0178799855
 20
-283.5978385334
 30
0.0
 40
2.800677975529874
100
AcDbArc
 50
121.678772371
 51
148.1828119833
  0
LINE
  5
12C
330
1F
100
AcDbEntity
  8
0
  6
Continuous
 62
     7
370
    35
100
AcDbLine
 10
-336.4886739383
 20
-281.2144455169
 30
0.0
 11
-323.7187174543
 21
-273.8425065548
 31
0.0
  0
ARC
  5
12D
330
1F
100
AcDbEntity
  8
0
  6
Continuous
 62
     7
370
    35
100
AcDbCircle
 10
-323.1666526267
 20
-274.5193256729
 30
0.0
 40
0.8734183948566483
100
AcDbArc
 50
350.7859630095
 51
129.2032852357
  0
LINE
  5
12E
330
1F
100
AcDbEntity
  8
0
  6
Continuous
 62
     7
370
    35
100
AcDbLine
 10
-322.3045038919
 20
-274.6591800667
 30
0.0
 11
-322.3045038919
 21
-331.2658780963
 31
0.0
  0
LINE
  5
12F
330
1F
100
AcDbEntity
  8
0
  6
Continuous
 62
     7
370
    35
100
AcDbLine
 10
-526.1818105718
 20
-571.0253780151
 30
0.0
 11
-524.7675970095
 21
-571.8417861269
 31
0.0
  0
LINE
  5
130
330
1F
100
AcDbEntity
  8
0
  6
Continuous
 62
     7
370
    35
100
AcDbLine
 10
-526.1818105718
 20
-571.0253780151
 30
0.0
 11
-338.811926456
 21
-281.3048829445
 31
0.0
  0
LINE
  5
131
330
1F
100
AcDbEntity
  8
0
  6
Continuous
 62
     7
370
    35
100
AcDbLine
 10
-337.3977128936
 20
-282.1212910563
 30
0.0
 11
-338.811926456
 21
-281.3048829445
 31
0.0
  0
ARC
  5
132
330
1F
100
AcDbEntity
  8
0
  6
Continuous
 62
     7
370
    35
100
AcDbCircle
 10
21.7228787049
 20
-455.3563977082
 30
0.0
 40
1.005878556988407
100
AcDbArc
 50
294.3746582936
 51
354.3052007488
  0
SPLINE
  5
133
330
1F
100
AcDbEntity
  8
0
  6
Continuous
 62
     7
370
    35
100
AcDbSpline
210
0.0
220
0.0
230
1.0
 70
     8
 71
     3
 72
    20
 73
    16
 74
     0
 42
0.00000001
 43
0.00000001
 40
0.0
 40
0.0
 40
0.0
 40
0.0
 40
0.249999999999993
 40
0.249999999999993
 40
0.3749999999999942
 40
0.3749999999999942
 40
0.4999999999999953
 40
0.4999999999999953
 40
0.6249999999999964
 40
0.6249999999999964
 40
0.7499999999999977
 40
0.7499999999999977
 40
0.8749999999999988
 40
0.8749999999999988
 40
1.0
 40
1.0
 40
1.0
 40
1.0
 10
-525.2727716164839
 20
-645.1053581508442
 30
0.0
 10
-525.229083202732
 20
-645.3197577868522
 30
0.0
 10
-525.1507787929476
 20
-645.5476415607044
 30
0.0
 10
-524.9934350737201
 20
-645.916575525421
 30
0.0
 10
-524.9340893013584
 20
-646.0440905371403
 30
0.0
 10
-524.8084873061155
 20
-646.298899324534
 30
0.0
 10
-524.7416866561053
 20
-646.4275151385517
 30
0.0
 10
-524.6019655392481
 20
-646.6883609413023
 30
0.0
 10
-524.5293294739807
 20
-646.8200069870281
 30
0.0
 10
-524.3855010049024
 20
-647.0780150770446
 30
0.0
 10
-524.3136409573669
 20
-647.2056193100551
 30
0.0
 10
-524.1721149768173
 20
-647.4591188843283
 30
0.0
 10
-524.1030780733165
 20
-647.5839424428701
 30
0.0
 10
-523.9742244805453
 20
-647.8240773383963
 30
0.0
 10
-523.9138089891322
 20
-647.9404401169394
 30
0.0
 10
-523.8585580541095
 20
-648.0536029184133
 30
0.0
  0
SPLINE
  5
134
330
1F
100
AcDbEntity
  8
0
  6
Continuous
 62
     7
370
    35
100
AcDbSpline
210
0.0
220
0.0
230
1.0
 70
     8
 71
     3
 72
    20
 73
    16
 74
     0
 42
0.00000001
 43
0.00000001
 40
0.0
 40
0.0
 40
0.0
 40
0.0
 40
0.2499999999999953
 40
0.2499999999999953
 40
0.3749999999999961
 40
0.3749999999999961
 40
0.4999999999999969
 40
0.4999999999999969
 40
0.6249999999999978
 40
0.6249999999999978
 40
0.7499999999999984
 40
0.7499999999999984
 40
0.8749999999999992
 40
0.8749999999999992
 40
1.0
 40
1.0
 40
1.0
 40
1.0
 10
-320.8902903295098
 20
-334.214122863901
 30
0.0
 10
-321.0007922092491
 20
-333.9877972410979
 30
0.0
 10
-321.1307143990034
 20
-333.7506998610789
 30
0.0
 10
-321.3420072918689
 20
-333.3721361439931
 30
0.0
 10
-321.415205288152
 20
-333.2421485552698
 30
0.0
 10
-321.559097021798
 20
-332.9840751089413
 30
0.0
 10
-321.6305569541262
 20
-332.8546276281545
 30
0.0
 10
-321.7704135999805
 20
-332.5937576339177
 30
0.0
 10
-321.8384210862577
 20
-332.4629377745168
 30
0.0
 10
-321.9641325712005
 20
-332.208163507359
 30
0.0
 10
-322.0225213080226
 20
-332.0829638595812
 30
0.0
 10
-322.1281848050817
 20
-331.8358656221976
 30
0.0
 10
-322.1748982973663
 20
-331.7150267200934
 30
0.0
 10
-322.2519061021735
 20
-331.4841461294212
 30
0.0
 10
-322.2826596869228
 20
-331.3730779049325
 30
0.0
 10
-322.3045038918822
 20
-331.2658780963326
 30
0.0
  0
LINE
  5
135
330
1F
100
AcDbEntity
  8
0
  6
Continuous
 62
     7
370
    35
100
AcDbLine
 10
-526.1818105718
 20
-646.5109587223
 30
0.0
 11
-633.0685042789
 21
-708.2153335848
 31
0.0
  0
LINE
  5
136
330
1F
100
AcDbEntity
  8
0
  6
Continuous
 62
     7
370
    35
100
AcDbLine
 10
-633.0685042789
 20
-708.2153335848
 30
0.0
 11
-633.0685042789
 21
-646.1582318815
 31
0.0
  0
ARC
  5
137
330
1F
100
AcDbEntity
  8
0
  6
Continuous
 62
     7
370
    35
100
AcDbCircle
 10
-629.9980720762
 20
-646.297953586
 30
0.0
 40
3.0736096151432
100
AcDbArc
 50
122.60547834
 51
177.3945215144
  0
LINE
  5
138
330
1F
100
AcDbEntity
  8
0
  6
Continuous
 62
     7
370
    35
100
AcDbLine
 10
-631.6542907165
 20
-643.7087421459
 30
0.0
 11
-527.5960241342
 21
-583.637183507
 31
0.0
  0
ARC
  5
139
330
1F
100
AcDbEntity
  8
0
  6
Continuous
 62
     7
370
    35
100
AcDbCircle
 10
-527.0439593067
 20
-584.3140026251
 30
0.0
 40
0.8734183948569962
100
AcDbArc
 50
350.7859630095
 51
129.2032852357
  0
LINE
  5
13A
330
1F
100
AcDbEntity
  8
0
  6
Continuous
 62
     7
370
    35
100
AcDbLine
 10
-526.1818105718
 20
-584.4538570189
 30
0.0
 11
-526.1818105718
 21
-646.5109587223
 31
0.0
  0
LINE
  5
13B
330
1F
100
AcDbEntity
  8
0
  6
Continuous
 62
     7
370
    35
100
AcDbLine
 10
-633.0685042789
 20
-642.8923340341
 30
0.0
 11
-631.6542907165
 21
-643.7087421459
 31
0.0
  0
LINE
  5
13C
330
1F
100
AcDbEntity
  8
0
  6
Continuous
 62
     7
370
    35
100
AcDbLine
 10
-633.0685042789
 20
-646.1582318815
 30
0.0
 11
-634.4827178413
 21
-645.3418237697
 31
0.0
  0
ARC
  5
13D
330
1F
100
AcDbEntity
  8
0
  6
Continuous
 62
     7
370
    35
100
AcDbCircle
 10
-631.4122856385
 20
-645.4815454742
 30
0.0
 40
3.073609615145856
100
AcDbArc
 50
122.60547834
 51
177.3945215143
  0
LINE
  5
13E
330
1F
100
AcDbEntity
  8
0
  6
Continuous
 62
     7
370
    35
100
AcDbLine
 10
-633.0685042789
 20
-708.2153335848
 30
0.0
 11
-634.4827178413
 21
-707.398925473
 31
0.0
  0
LINE
  5
13F
330
1F
100
AcDbEntity
  8
0
  6
Continuous
 62
     7
370
    35
100
AcDbLine
 10
-634.4827178413
 20
-707.398925473
 30
0.0
 11
-634.4827178413
 21
-645.3418237697
 31
0.0
  0
LINE
  5
140
330
1F
100
AcDbEntity
  8
0
  6
Continuous
 62
     7
370
    35
100
AcDbLine
 10
-527.5960241342
 20
-583.637183507
 30
0.0
 11
-529.0102376966
 21
-582.8207753952
 31
0.0
  0
LINE
  5
141
330
1F
100
AcDbEntity
  8
0
  6
Continuous
 62
     7
370
    35
100
AcDbLine
 10
-633.0685042789
 20
-642.8923340341
 30
0.0
 11
-529.0102376966
 21
-582.8207753952
 31
0.0
  0
ARC
  5
142
330
1F
100
AcDbEntity
  8
0
  6
Continuous
 62
     7
370
    35
100
AcDbCircle
 10
-629.9980720762
 20
-708.0756118803
 30
0.0
 40
3.073609615144168
100
AcDbArc
 50
182.6054784857
 51
237.39452166
  0
ARC
  5
143
330
1F
100
AcDbEntity
  8
0
  6
Continuous
 62
     7
370
    35
100
AcDbCircle
 10
-628.3418534358
 20
-707.1194820639
 30
0.0
 40
6.14721923028872
100
AcDbArc
 50
182.6054784857
 51
237.39452166
  0
ARC
  5
144
330
1F
100
AcDbEntity
  8
0
  6
Continuous
 62
     7
370
    35
100
AcDbCircle
 10
-523.1113783691
 20
-646.3712370177
 30
0.0
 40
3.073609615145278
100
AcDbArc
 50
182.6054784857
 51
237.39452166
  0
LINE
  5
145
330
1F
100
AcDbEntity
  8
0
  6
Continuous
 62
     7
370
    35
100
AcDbLine
 10
-525.2727716165
 20
-573.384430323
 30
0.0
 11
-526.6869851789
 21
-572.5680222112
 31
0.0
  0
ARC
  5
146
330
1F
100
AcDbEntity
  8
0
  6
Continuous
 62
     7
370
    35
100
AcDbCircle
 10
-523.7299872083
 20
-572.6823220857
 30
0.0
 40
2.959206221143091
100
AcDbArc
 50
145.9491428403
 51
177.7863895242
  0
LINE
  5
147
330
1F
100
AcDbEntity
  8
0
  6
Continuous
 62
     7
370
    35
100
AcDbLine
 10
-525.2727716165
 20
-645.1053581508
 30
0.0
 11
-526.1818105718
 21
-644.5805811321
 31
0.0
  0
LINE
  5
148
330
1F
100
AcDbEntity
  8
0
  6
Continuous
 62
     7
370
    35
100
AcDbLine
 10
-526.6869851789
 20
-583.4857036273
 30
0.0
 11
-526.6869851789
 21
-572.5680222112
 31
0.0
  0
ARC
  5
149
330
1F
100
AcDbEntity
  8
0
  6
Continuous
 62
     7
370
    35
100
AcDbCircle
 10
-528.4243975869
 20
-583.6385380534
 30
0.0
 40
1.005954471803216
100
AcDbArc
 50
65.6928809539
 51
125.6175774752
  0
LINE
  5
14A
330
1F
100
AcDbEntity
  8
0
  6
Continuous
 62
     7
370
    35
100
AcDbLine
 10
-337.9028875007
 20
-280.3980374051
 30
0.0
 11
-336.4886739383
 21
-281.2144455169
 31
0.0
  0
ARC
  5
14B
330
1F
100
AcDbEntity
  8
0
  6
Continuous
 62
     7
370
    35
100
AcDbCircle
 10
-336.4320935479
 20
-282.7814304216
 30
0.0
 40
2.800677975512976
100
AcDbArc
 50
121.6787723709
 51
148.1828119834
  0
LINE
  5
14C
330
1F
100
AcDbEntity
  8
0
  6
Continuous
 62
     7
370
    35
100
AcDbLine
 10
-323.7187174543
 20
-273.8425065548
 30
0.0
 11
-325.1329310166
 21
-273.026098443
 31
0.0
  0
LINE
  5
14D
330
1F
100
AcDbEntity
  8
0
  6
Continuous
 62
     7
370
    35
100
AcDbLine
 10
-337.9028875007
 20
-280.3980374051
 30
0.0
 11
-325.1329310166
 21
-273.026098443
 31
0.0
  0
ARC
  5
14E
330
1F
100
AcDbEntity
  8
0
  6
Continuous
 62
     7
370
    35
100
AcDbCircle
 10
-324.5470909069
 20
-273.8438611012
 30
0.0
 40
1.00595447180366
100
AcDbArc
 50
65.6928809539
 51
125.6175774752
  0
LINE
  5
14F
330
1F
100
AcDbEntity
  8
0
  6
Continuous
 62
     7
370
    35
100
AcDbLine
 10
-523.8585580541
 20
-648.0536029184
 30
0.0
 11
-523.2200038984
 21
-648.5637472494
 31
0.0
  0
SPLINE
  5
150
330
1F
100
AcDbEntity
  8
0
  6
Continuous
 62
     7
370
    35
100
AcDbSpline
210
0.0
220
0.0
230
1.0
 70
     8
 71
     3
 72
    11
 73
     7
 74
     0
 42
0.00000001
 43
0.00000001
 40
0.0
 40
0.0
 40
0.0
 40
0.0
 40
0.0640742372988979
 40
0.5065076346874985
 40
0.9489412326226552
 40
1.0
 40
1.0
 40
1.0
 40
1.0
 10
-526.1818105718277
 20
-645.0654964937187
 30
0.0
 10
-526.1540190055321
 20
-645.1089629520583
 30
0.0
 10
-525.9343263318142
 20
-645.4525658403633
 30
0.0
 10
-525.2666478027757
 20
-646.2280495658605
 30
0.0
 10
-524.5785045353102
 20
-647.0030406052273
 30
0.0
 10
-524.2304949535836
 20
-647.3805231278676
 30
0.0
 10
-524.1944884385341
 20
-647.4195790356532
 30
0.0
  0
LINE
  5
151
330
1F
100
AcDbEntity
  8
0
  6
Continuous
 62
     7
370
    35
100
AcDbLine
 10
-320.3701621411
 20
-334.5143864758
 30
0.0
 11
-320.8486600254
 21
-333.9902895771
 31
0.0
  0
SPLINE
  5
152
330
1F
100
AcDbEntity
  8
0
  6
HIDDEN
 62
     7
370
    18
100
AcDbSpline
210
0.0
220
0.0
230
1.0
 70
     8
 71
     3
 72
     8
 73
     4
 74
     0
 42
0.00000001
 43
0.00000001
 40
0.0
 40
0.0
 40
0.0
 40
0.0
 40
1.0
 40
1.0
 40
1.0
 40
1.0
 10
-245.7636608736387
 20
-808.795828919986
 30
0.0
 10
-245.3632285536462
 20
-808.882562176884
 30
0.0
 10
-245.0107340044388
 20
-808.9376255310914
 30
0.0
 10
-244.7034805096999
 20
-808.9543593136066
 30
0.0
  0
SPLINE
  5
153
330
1F
100
AcDbEntity
  8
0
  6
HIDDEN
 62
     7
370
    18
100
AcDbSpline
210
0.0
220
0.0
230
1.0
 70
     8
 71
     3
 72
    11
 73
     7
 74
     0
 42
0.00000001
 43
0.00000001
 40
0.0
 40
0.0
 40
0.0
 40
0.0
 40
0.0847678692924439
 40
0.4509770109047914
 40
0.8171858383490701
 40
1.0
 40
1.0
 40
1.0
 40
1.0
 10
-40.73951937374265
 20
-494.7999770687126
 30
0.0
 10
-40.74820017735065
 20
-494.8376275494086
 30
0.0
 10
-40.79438327592394
 20
-495.0379334127637
 30
0.0
 10
-41.28454142674715
 20
-495.1371678016353
 30
0.0
 10
-42.02565350437371
 20
-495.1112509857135
 30
0.0
 10
-42.60311088011426
 20
-494.9950436778664
 30
0.0
 10
-42.79539314903913
 20
-494.9563488654746
 30
0.0
  0
LINE
  5
154
330
1F
100
AcDbEntity
  8
0
  6
HIDDEN
 62
     7
370
    18
100
AcDbLine
 10
-42.795393149
 20
-494.9563488655
 30
0.0
 11
-245.7636608736
 21
-808.79582892
 31
0.0
  0
SPLINE
  5
155
330
1F
100
AcDbEntity
  8
0
  6
HIDDEN
 62
     7
370
    18
100
AcDbSpline
210
0.0
220
0.0
230
1.0
 70
     8
 71
     3
 72
    20
 73
    16
 74
     0
 42
0.00000001
 43
0.00000001
 40
0.0
 40
0.0
 40
0.0
 40
0.0
 40
0.25
 40
0.25
 40
0.375
 40
0.375
 40
0.5
 40
0.5
 40
0.625
 40
0.625
 40
0.75
 40
0.75
 40
0.875
 40
0.875
 40
1.0
 40
1.0
 40
1.0
 40
1.0
 10
-42.29021854200976
 20
-492.9146842372289
 30
0.0
 10
-42.24653012825813
 20
-493.1290838732372
 30
0.0
 10
-42.24045698060714
 20
-493.3152694270306
 30
0.0
 10
-42.29493585223704
 20
-493.5619208129027
 30
0.0
 10
-42.32417348648559
 20
-493.6382977124914
 30
0.0
 10
-42.4033860525414
 20
-493.7748695703915
 30
0.0
 10
-42.45349295889073
 20
-493.835996088673
 30
0.0
 10
-42.57613541508215
 20
-493.9453826246043
 30
0.0
 10
-42.64863515789757
 20
-493.9932435517399
 30
0.0
 10
-42.81153240846075
 20
-494.0741826528264
 30
0.0
 10
-42.90247538739506
 20
-494.1078026991657
 30
0.0
 10
-43.10447918256239
 20
-494.1629867551822
 30
0.0
 10
-43.21488542040247
 20
-494.1842199932098
 30
0.0
 10
-43.44855937318965
 20
-494.2150721913928
 30
0.0
 10
-43.57264176665537
 20
-494.2249266080896
 30
0.0
 10
-43.70443210438296
 20
-494.2301127811518
 30
0.0
  0
SPLINE
  5
156
330
1F
100
AcDbEntity
  8
0
  6
HIDDEN
 62
     7
370
    18
100
AcDbSpline
210
0.0
220
0.0
230
1.0
 70
     8
 71
     3
 72
    20
 73
    16
 74
     0
 42
0.00000001
 43
0.00000001
 40
0.0
 40
0.0
 40
0.0
 40
0.0
 40
0.249999999999987
 40
0.249999999999987
 40
0.3749999999999892
 40
0.3749999999999892
 40
0.4999999999999913
 40
0.4999999999999913
 40
0.6249999999999934
 40
0.6249999999999934
 40
0.7499999999999957
 40
0.7499999999999957
 40
0.8749999999999978
 40
0.8749999999999978
 40
1.0
 40
1.0
 40
1.0
 40
1.0
 10
-246.6726998289832
 20
-808.0695928356636
 30
0.0
 10
-246.4091191304046
 20
-808.059220488629
 30
0.0
 10
-246.1778067570796
 20
-808.0306593830562
 30
0.0
 10
-245.8752204949753
 20
-807.9487517876314
 30
0.0
 10
-245.7822777305525
 20
-807.91467521854
 30
0.0
 10
-245.6189523048981
 20
-807.8339544632177
 30
0.0
 10
-245.5474177788186
 20
-807.787055926166
 30
0.0
 10
-245.4241520369762
 20
-807.678083253121
 30
0.0
 10
-245.3729387120495
 20
-807.6160881030531
 30
0.0
 10
-245.2933598397673
 20
-807.479825436531
 30
0.0
 10
-245.2643702054711
 20
-807.4050682487019
 30
0.0
 10
-245.2272947418194
 20
-807.2403714593723
 30
0.0
 10
-245.2195518615399
 20
-807.1509695519942
 30
0.0
 10
-245.2243120179578
 20
-806.9617966409643
 30
0.0
 10
-245.2366420616506
 20
-806.8613641003399
 30
0.0
 10
-245.2584862666103
 20
-806.7541642917402
 30
0.0
  0
LINE
  5
157
330
1F
100
AcDbEntity
  8
0
  6
HIDDEN
 62
     7
370
    18
100
AcDbLine
 10
-43.7044321044
 20
-494.2301127812
 30
0.0
 11
-246.672699829
 21
-808.0695928357
 31
0.0
  0
LINE
  5
158
330
1F
100
AcDbEntity
  8
0
  6
HIDDEN
 62
     7
370
    18
100
AcDbLine
 10
-245.2584862666
 20
-806.7541642917
 30
0.0
 11
-42.290218542
 21
-492.9146842372
 31
0.0
  0
LINE
  5
159
330
1F
100
AcDbEntity
  8
0
  6
HIDDEN
 62
     7
370
    18
100
AcDbLine
 10
-43.7044321044
 20
-494.2301127812
 30
0.0
 11
-44.4115388856
 21
-493.8219087252
 31
0.0
  0
LINE
  5
15A
330
1F
100
AcDbEntity
  8
0
  6
HIDDEN
 62
     7
370
    18
100
AcDbLine
 10
-246.672699829
 20
-808.0695928357
 30
0.0
 11
-247.3798066102
 21
-807.6613887798
 31
0.0
  0
LINE
  5
15B
330
1F
100
AcDbEntity
  8
0
  6
HIDDEN
 62
     7
370
    18
100
AcDbLine
 10
-247.3798066102
 20
-807.6613887798
 30
0.0
 11
-301.5053065874
 21
-776.4154027324
 31
0.0
  0
LINE
  5
15C
330
1F
100
AcDbEntity
  8
0
  6
HIDDEN
 62
     7
370
    18
100
AcDbLine
 10
-44.4115388856
 20
-493.8219087252
 30
0.0
 11
-77.4270177743
 21
-474.7624784542
 31
0.0
  0
ARC
  5
15D
330
1F
100
AcDbEntity
  8
0
  6
HIDDEN
 62
     7
370
    18
100
AcDbCircle
 10
-246.4100585649
 20
-808.9739946824
 30
0.0
 40
2.011908943607572
100
AcDbArc
 50
234.3824225248
 51
294.3071190461
  0
LINE
  5
15E
330
1F
100
AcDbEntity
  8
0
  6
HIDDEN
 62
     7
370
    18
100
AcDbLine
 10
-247.5817387843
 20
-810.6095199989
 30
0.0
 11
-354.4684324914
 21
-872.3138948614
 31
0.0
  0
ARC
  5
15F
330
1F
100
AcDbEntity
  8
0
  6
HIDDEN
 62
     7
370
    18
100
AcDbCircle
 10
-247.0296739568
 20
-808.299619257
 30
0.0
 40
0.8734183948570284
100
AcDbArc
 50
230.7967147643
 51
9.2140369905
  0
LINE
  5
160
330
1F
100
AcDbEntity
  8
0
  6
HIDDEN
 62
     7
370
    18
100
AcDbLine
 10
-247.5817387843
 20
-808.9764383751
 30
0.0
 11
-353.0542189477
 21
-869.8644051366
 31
0.0
  0
LINE
  5
161
330
1F
100
AcDbEntity
  8
0
  6
HIDDEN
 62
     7
370
    18
100
AcDbLine
 10
-353.054218929
 20
-869.8641397257
 30
0.0
 11
-246.167525222
 21
-808.1597648632
 31
0.0
  0
LINE
  5
162
330
1F
100
AcDbEntity
  8
0
  6
HIDDEN
 62
     7
370
    18
100
AcDbLine
 10
-302.7452624432
 20
-777.1312140115
 30
0.0
 11
-248.2888455655
 21
-808.5682343192
 31
0.0
  0
LINE
  5
163
330
1F
100
AcDbEntity
  8
0
  6
HIDDEN
 62
     7
370
    18
100
AcDbLine
 10
-247.5817387843
 20
-808.9764383751
 30
0.0
 11
-248.2888455655
 21
-808.5682343192
 31
0.0
  0
LINE
  5
164
330
1F
100
AcDbEntity
  8
0
  6
HIDDEN
 62
     7
370
    18
100
AcDbLine
 10
-245.2584862666
 20
-806.7541642917
 30
0.0
 11
-244.7533116596
 21
-807.0457953848
 31
0.0
  0
LINE
  5
165
330
1F
100
AcDbEntity
  8
0
  6
HIDDEN
 62
     7
370
    18
100
AcDbLine
 10
-245.2584862666
 20
-806.7541642917
 30
0.0
 11
-245.2584862666
 21
-745.95091788
 31
0.0
  0
LINE
  5
166
330
1F
100
AcDbEntity
  8
0
  6
HIDDEN
 62
     7
370
    18
100
AcDbLine
 10
-246.167525222
 20
-746.1026631598
 30
0.0
 11
-244.7533116596
 21
-746.9190712717
 31
0.0
  0
ARC
  5
167
330
1F
100
AcDbEntity
  8
0
  6
HIDDEN
 62
     7
370
    18
100
AcDbCircle
 10
-247.1475290266
 20
-745.9944896851
 30
0.0
 40
0.9859558599060015
100
AcDbArc
 50
353.7011524782
 51
54.9866671284
  0
LINE
  5
168
330
1F
100
AcDbEntity
  8
0
  6
HIDDEN
 62
     7
370
    18
100
AcDbLine
 10
-246.167525222
 20
-746.1026631598
 30
0.0
 11
-246.167525222
 21
-808.1597648632
 31
0.0
  0
LINE
  5
169
330
1F
100
AcDbEntity
  8
0
  6
HIDDEN
 62
     7
370
    18
100
AcDbLine
 10
-42.290218542
 20
-436.3079862076
 30
0.0
 11
-40.8760049796
 21
-437.1243943195
 31
0.0
  0
ARC
  5
16A
330
1F
100
AcDbEntity
  8
0
  6
HIDDEN
 62
     7
370
    18
100
AcDbCircle
 10
-43.2702223467
 20
-436.1998127329
 30
0.0
 40
0.9859558599566105
100
AcDbArc
 50
353.7011524799
 51
54.9866671267
  0
LINE
  5
16B
330
1F
100
AcDbEntity
  8
0
  6
HIDDEN
 62
     7
370
    18
100
AcDbLine
 10
-42.290218542
 20
-436.3079862076
 30
0.0
 11
-42.290218542
 21
-492.9146842372
 31
0.0
  0
LINE
  5
16C
330
1F
100
AcDbEntity
  8
0
  6
HIDDEN
 62
     7
370
    18
100
AcDbLine
 10
-246.672699829
 20
-808.0695928357
 30
0.0
 11
-245.7636608736
 21
-808.79582892
 31
0.0
  0
LINE
  5
16D
330
1F
100
AcDbEntity
  8
0
  6
HIDDEN
 62
     7
370
    18
100
AcDbLine
 10
-246.167525222
 20
-808.1597648632
 30
0.0
 11
-244.7533116596
 21
-808.976172975
 31
0.0
  0
LINE
  5
16E
330
1F
100
AcDbEntity
  8
0
  6
HIDDEN
 62
     7
370
    18
100
AcDbLine
 10
-247.5817387843
 20
-808.9764383751
 30
0.0
 11
-247.5817387843
 21
-810.6095199989
 31
0.0
  0
LINE
  5
16F
330
1F
100
AcDbEntity
  8
0
  6
HIDDEN
 62
     7
370
    18
100
AcDbLine
 10
-247.5817387843
 20
-810.6095199989
 30
0.0
 11
-248.2888455655
 21
-810.201315943
 31
0.0
  0
ARC
  5
170
330
1F
100
AcDbEntity
  8
0
  6
HIDDEN
 62
     7
370
    18
100
AcDbCircle
 10
-249.7596395183
 20
-806.1848413027
 30
0.0
 40
2.800677975517539
100
AcDbArc
 50
301.6787723709
 51
328.1828119834
  0
ARC
  5
171
330
1F
100
AcDbEntity
  8
0
  6
HIDDEN
 62
     7
370
    18
100
AcDbCircle
 10
-251.2304334711
 20
-805.43452991
 30
0.0
 40
5.601355951041532
100
AcDbArc
 50
301.6787723709
 51
328.1828119834
  0
LINE
  5
172
330
1F
100
AcDbEntity
  8
0
  6
HIDDEN
 62
     7
370
    18
100
AcDbLine
 10
-247.3798066102
 20
-807.6613887798
 30
0.0
 11
-246.4707676548
 21
-808.3876248641
 31
0.0
  0
LINE
  5
173
330
1F
100
AcDbEntity
  8
0
  6
HIDDEN
 62
     7
370
    18
100
AcDbLine
 10
-248.2888455655
 20
-808.5682343192
 30
0.0
 11
-248.2888455655
 21
-810.201315943
 31
0.0
  0
LINE
  5
174
330
1F
100
AcDbEntity
  8
0
  6
HIDDEN
 62
     7
370
    18
100
AcDbLine
 10
-245.7636608736
 20
-808.79582892
 30
0.0
 11
-246.4707676548
 21
-808.3876248641
 31
0.0
  0
LINE
  5
175
330
1F
100
AcDbEntity
  8
0
  6
HIDDEN
 62
     7
370
    18
100
AcDbLine
 10
-524.0604902283
 20
-651.0017341375
 30
0.0
 11
-248.2888455655
 21
-810.201315943
 31
0.0
  0
LINE
  5
176
330
1F
100
AcDbEntity
  8
0
  6
HIDDEN
 62
     7
370
    18
100
AcDbLine
 10
-522.2424123176
 20
-649.1880430586
 30
0.0
 11
-246.4707676548
 21
-808.3876248641
 31
0.0
  0
LINE
  5
177
330
1F
100
AcDbEntity
  8
0
  6
HIDDEN
 62
     7
370
    18
100
AcDbLine
 10
-42.290218542
 20
-492.9146842372
 30
0.0
 11
-40.8760049796
 21
-493.7310923491
 31
0.0
  0
LINE
  5
178
330
1F
100
AcDbEntity
  8
0
  6
HIDDEN
 62
     7
370
    18
100
AcDbLine
 10
-43.7044321044
 20
-494.2301127812
 30
0.0
 11
-42.795393149
 21
-494.9563488655
 31
0.0
  0
LINE
  5
179
330
1F
100
AcDbEntity
  8
0
  6
HIDDEN
 62
     7
370
    18
100
AcDbLine
 10
-42.795393149
 20
-494.9563488655
 30
0.0
 11
-43.5024999302
 21
-494.5481448096
 31
0.0
  0
LINE
  5
17A
330
1F
100
AcDbEntity
  8
0
  6
HIDDEN
 62
     7
370
    18
100
AcDbLine
 10
-76.0786798311
 20
-472.6776122641
 30
0.0
 11
-42.5934609749
 21
-492.0082176463
 31
0.0
  0
ARC
  5
17B
330
1F
100
AcDbEntity
  8
0
  6
HIDDEN
 62
     7
370
    18
100
AcDbCircle
 10
-39.6518730693
 20
-496.7750036793
 30
0.0
 40
5.601355951038022
100
AcDbArc
 50
121.6787723709
 51
148.1828119834
  0
LINE
  5
17C
330
1F
100
AcDbEntity
  8
0
  6
HIDDEN
 62
     7
370
    18
100
AcDbLine
 10
-42.5934609749
 20
-493.6412992701
 30
0.0
 11
-42.5934609749
 21
-492.0082176463
 31
0.0
  0
ARC
  5
17D
330
1F
100
AcDbEntity
  8
0
  6
HIDDEN
 62
     7
370
    18
100
AcDbCircle
 10
-41.1226670221
 20
-496.0246922866
 30
0.0
 40
2.800677975521272
100
AcDbArc
 50
121.6787723709
 51
148.1828119834
  0
LINE
  5
17E
330
1F
100
AcDbEntity
  8
0
  6
HIDDEN
 62
     7
370
    18
100
AcDbLine
 10
-43.5024999302
 20
-494.5481448096
 30
0.0
 11
-44.4115388856
 21
-493.8219087252
 31
0.0
  0
LINE
  5
17F
330
1F
100
AcDbEntity
  8
0
  6
HIDDEN
 62
     7
370
    18
100
AcDbLine
 10
-40.8760049796
 20
-491.0167514042
 30
0.0
 11
-42.5934609749
 21
-492.0082176463
 31
0.0
  0
LINE
  5
180
330
1F
100
AcDbEntity
  8
0
  6
HIDDEN
 62
     7
370
    18
100
AcDbLine
 10
-40.8760049796
 20
-492.649833028
 30
0.0
 11
-42.5934609749
 21
-493.6412992701
 31
0.0
  0
LINE
  5
181
330
1F
100
AcDbEntity
  8
0
  6
HIDDEN
 62
     7
370
    18
100
AcDbLine
 10
-43.5024999302
 20
-494.5481448096
 30
0.0
 11
-319.274144593
 21
-335.3485630041
 31
0.0
  0
LINE
  5
182
330
1F
100
AcDbEntity
  8
0
  6
HIDDEN
 62
     7
370
    18
100
AcDbLine
 10
-318.3651056376
 20
-334.4417174647
 30
0.0
 11
-42.5934609749
 21
-493.6412992701
 31
0.0
  0
LINE
  5
183
330
1F
100
AcDbEntity
  8
0
  6
HIDDEN
 62
     7
370
    18
100
AcDbLine
 10
22.1380063923
 20
-453.0067207264
 30
0.0
 11
22.1380063923
 21
-454.63953695
 31
0.0
  0
ARC
  5
184
330
1F
100
AcDbEntity
  8
0
  6
HIDDEN
 62
     7
370
    18
100
AcDbCircle
 10
21.7228787049
 20
-455.5560232158
 30
0.0
 40
1.005878556987811
100
AcDbArc
 50
5.6947992512
 51
65.6253417064
  0
LINE
  5
185
330
1F
100
AcDbEntity
  8
0
  6
HIDDEN
 62
     7
370
    18
100
AcDbLine
 10
-250.8052111457
 20
-297.0730367684
 30
0.0
 11
22.1380063923
 21
-454.6398023501
 31
0.0
  0
LINE
  5
186
330
1F
100
AcDbEntity
  8
0
  6
HIDDEN
 62
     7
370
    18
100
AcDbLine
 10
-526.6869851789
 20
-644.288950039
 30
0.0
 11
-323.7187174543
 21
-330.4494699845
 31
0.0
  0
LINE
  5
187
330
1F
100
AcDbEntity
  8
0
  6
HIDDEN
 62
     7
370
    18
100
AcDbLine
 10
-522.9495190988
 20
-648.7798390027
 30
0.0
 11
-319.9812513742
 21
-334.9403589482
 31
0.0
  0
LINE
  5
188
330
1F
100
AcDbEntity
  8
0
  6
HIDDEN
 62
     7
370
    18
100
AcDbLine
 10
-634.4827178413
 20
-707.398925473
 30
0.0
 11
-527.5960241342
 21
-645.6945506104
 31
0.0
  0
LINE
  5
189
330
1F
100
AcDbEntity
  8
0
  6
HIDDEN
 62
     7
370
    18
100
AcDbLine
 10
-631.6542907165
 20
-712.2979049442
 30
0.0
 11
-524.7675970095
 21
-650.5935300816
 31
0.0
  0
LINE
  5
18A
330
1F
100
AcDbEntity
  8
0
  6
HIDDEN
 62
     7
370
    18
100
AcDbLine
 10
-526.1818105718
 20
-644.5805811321
 30
0.0
 11
-526.6869851789
 21
-644.288950039
 31
0.0
  0
LINE
  5
18B
330
1F
100
AcDbEntity
  8
0
  6
HIDDEN
 62
     7
370
    18
100
AcDbLine
 10
-526.6869851789
 20
-644.288950039
 30
0.0
 11
-526.6869851789
 21
-583.4857036273
 31
0.0
  0
LINE
  5
18C
330
1F
100
AcDbEntity
  8
0
  6
HIDDEN
 62
     7
370
    18
100
AcDbLine
 10
-527.5960241342
 20
-583.6374489071
 30
0.0
 11
-526.1818105718
 21
-584.4538570189
 31
0.0
  0
ARC
  5
18D
330
1F
100
AcDbEntity
  8
0
  6
HIDDEN
 62
     7
370
    18
100
AcDbCircle
 10
-528.5760279385
 20
-583.5292754323
 30
0.0
 40
0.9859558596492691
100
AcDbArc
 50
353.7011524693
 51
54.9866671373
  0
LINE
  5
18E
330
1F
100
AcDbEntity
  8
0
  6
HIDDEN
 62
     7
370
    18
100
AcDbLine
 10
-527.5960241342
 20
-583.6374489071
 30
0.0
 11
-527.5960241342
 21
-645.6945506104
 31
0.0
  0
LINE
  5
18F
330
1F
100
AcDbEntity
  8
0
  6
HIDDEN
 62
     7
370
    18
100
AcDbLine
 10
-323.7187174543
 20
-273.8427719549
 30
0.0
 11
-322.3045038919
 21
-274.6591800667
 31
0.0
  0
ARC
  5
190
330
1F
100
AcDbEntity
  8
0
  6
HIDDEN
 62
     7
370
    18
100
AcDbCircle
 10
-324.6987212595
 20
-273.7345984804
 30
0.0
 40
0.9859558604793501
100
AcDbArc
 50
353.7011524979
 51
54.9866671087
  0
LINE
  5
191
330
1F
100
AcDbEntity
  8
0
  6
HIDDEN
 62
     7
370
    18
100
AcDbLine
 10
-323.7187174543
 20
-273.8427719549
 30
0.0
 11
-323.7187174543
 21
-330.4494699845
 31
0.0
  0
LINE
  5
192
330
1F
100
AcDbEntity
  8
0
  6
HIDDEN
 62
     7
370
    18
100
AcDbLine
 10
-523.2200038984
 20
-648.5637472494
 30
0.0
 11
-522.9495190988
 21
-648.7798390027
 31
0.0
  0
LINE
  5
193
330
1F
100
AcDbEntity
  8
0
  6
HIDDEN
 62
     7
370
    18
100
AcDbLine
 10
-526.6869851789
 20
-644.288950039
 30
0.0
 11
-526.1818105718
 21
-645.0654964937
 31
0.0
  0
SPLINE
  5
194
330
1F
100
AcDbEntity
  8
0
  6
HIDDEN
 62
     7
370
    18
100
AcDbSpline
210
0.0
220
0.0
230
1.0
 70
     8
 71
     3
 72
     9
 73
     5
 74
     0
 42
0.00000001
 43
0.00000001
 40
0.0
 40
0.0
 40
0.0
 40
0.0
 40
0.6392496395479971
 40
1.0
 40
1.0
 40
1.0
 40
1.0
 10
-524.1944884385341
 20
-647.4195790356532
 30
0.0
 10
-523.908234215087
 20
-647.7289928175406
 30
0.0
 10
-523.4604369763593
 20
-648.2130193429307
 30
0.0
 10
-523.0849692252988
 20
-648.6295686794432
 30
0.0
 10
-522.9495190987657
 20
-648.779839002736
 30
0.0
  0
LINE
  5
195
330
1F
100
AcDbEntity
  8
0
  6
HIDDEN
 62
     7
370
    18
100
AcDbLine
 10
-526.1818105718
 20
-646.5109587223
 30
0.0
 11
-527.5960241342
 21
-645.6945506104
 31
0.0
  0
ARC
  5
196
330
1F
100
AcDbEntity
  8
0
  6
HIDDEN
 62
     7
370
    18
100
AcDbCircle
 10
-521.4551597287
 20
-645.4151072014
 30
0.0
 40
6.147219230288568
100
AcDbArc
 50
182.6054784857
 51
237.39452166
  0
ARC
  5
197
330
1F
100
AcDbEntity
  8
0
  6
HIDDEN
 62
     7
370
    18
100
AcDbCircle
 10
-527.0020781338
 20
-646.2349481046
 30
0.0
 40
5.601355951018873
100
AcDbArc
 50
301.6787723709
 51
328.1828119834
  0
LINE
  5
198
330
1F
100
AcDbEntity
  8
0
  6
HIDDEN
 62
     7
370
    18
100
AcDbLine
 10
-524.0604902283
 20
-649.3686525138
 30
0.0
 11
-524.0604902283
 21
-651.0017341375
 31
0.0
  0
LINE
  5
199
330
1F
100
AcDbEntity
  8
0
  6
HIDDEN
 62
     7
370
    18
100
AcDbLine
 10
-524.7675970095
 20
-648.9604484579
 30
0.0
 11
-524.7675970095
 21
-650.5935300816
 31
0.0
  0
LINE
  5
19A
330
1F
100
AcDbEntity
  8
0
  6
HIDDEN
 62
     7
370
    18
100
AcDbLine
 10
-524.7675970095
 20
-650.5935300816
 30
0.0
 11
-524.0604902283
 21
-651.0017341375
 31
0.0
  0
LINE
  5
19B
330
1F
100
AcDbEntity
  8
0
  6
HIDDEN
 62
     7
370
    18
100
AcDbLine
 10
-523.1514512729
 20
-648.4618069743
 30
0.0
 11
-522.2424123176
 21
-649.1880430586
 31
0.0
  0
LINE
  5
19C
330
1F
100
AcDbEntity
  8
0
  6
HIDDEN
 62
     7
370
    18
100
AcDbLine
 10
-522.9495190988
 20
-648.7798390027
 30
0.0
 11
-522.2424123176
 21
-649.1880430586
 31
0.0
  0
LINE
  5
19D
330
1F
100
AcDbEntity
  8
0
  6
HIDDEN
 62
     7
370
    18
100
AcDbLine
 10
-320.8902903295
 20
-334.2141228639
 30
0.0
 11
-319.9812513742
 21
-334.9403589482
 31
0.0
  0
LINE
  5
19E
330
1F
100
AcDbEntity
  8
0
  6
HIDDEN
 62
     7
370
    18
100
AcDbLine
 10
-322.3045038919
 20
-331.2658780963
 30
0.0
 11
-323.7187174543
 21
-330.4494699845
 31
0.0
  0
LINE
  5
19F
330
1F
100
AcDbEntity
  8
0
  6
HIDDEN
 62
     7
370
    18
100
AcDbLine
 10
-319.9812513742
 20
-334.9403589482
 30
0.0
 11
-320.3701621411
 21
-334.5143864758
 31
0.0
  0
SPLINE
  5
1A0
330
1F
100
AcDbEntity
  8
0
  6
HIDDEN
 62
     7
370
    18
100
AcDbSpline
210
0.0
220
0.0
230
1.0
 70
     8
 71
     3
 72
    12
 73
     8
 74
     0
 42
0.00000001
 43
0.00000001
 40
0.0
 40
0.0
 40
0.0
 40
0.0
 40
0.0026229001449898
 40
0.2876523441349552
 40
0.5726819173233099
 40
0.8577112459870918
 40
1.0
 40
1.0
 40
1.0
 40
1.0
 10
-320.8486600254346
 20
-333.990289577058
 30
0.0
 10
-320.8513442229041
 20
-333.9873493958871
 30
0.0
 10
-321.1457190185563
 20
-333.6649009764927
 30
0.0
 10
-321.8416481307829
 20
-332.9162576349258
 30
0.0
 10
-322.7610733458752
 20
-331.8516286743829
 30
0.0
 10
-323.3975236417197
 20
-331.0128587874084
 30
0.0
 10
-323.6384826950534
 20
-330.5902054631347
 30
0.0
 10
-323.7187174542572
 20
-330.4494699845103
 30
0.0
  0
ARC
  5
1A1
330
1F
100
AcDbEntity
  8
0
  6
HIDDEN
 62
     7
370
    18
100
AcDbCircle
 10
-316.8943116848
 20
-336.8251104812
 30
0.0
 40
2.800677975519589
100
AcDbArc
 50
121.6787723709
 51
148.1828119834
  0
LINE
  5
1A2
330
1F
100
AcDbEntity
  8
0
  6
HIDDEN
 62
     7
370
    18
100
AcDbLine
 10
-319.274144593
 20
-335.3485630041
 30
0.0
 11
-320.1831835483
 21
-334.6223269198
 31
0.0
  0
LINE
  5
1A3
330
1F
100
AcDbEntity
  8
0
  6
HIDDEN
 62
     7
370
    18
100
AcDbLine
 10
-319.9812513742
 20
-334.9403589482
 30
0.0
 11
-319.274144593
 21
-335.3485630041
 31
0.0
  0
LINE
  5
1A4
330
1F
100
AcDbEntity
  8
0
  6
HIDDEN
 62
     7
370
    18
100
AcDbLine
 10
-318.3651056376
 20
-334.4417174647
 30
0.0
 11
-318.3651056376
 21
-332.8086358409
 31
0.0
  0
LINE
  5
1A5
330
1F
100
AcDbEntity
  8
0
  6
HIDDEN
 62
     7
370
    18
100
AcDbLine
 10
-318.3651056376
 20
-334.4417174647
 30
0.0
 11
-253.6336382705
 21
-297.0730367684
 31
0.0
  0
LINE
  5
1A6
330
1F
100
AcDbEntity
  8
0
  6
HIDDEN
 62
     7
370
    18
100
AcDbLine
 10
-253.6336382705
 20
-295.4399551446
 30
0.0
 11
-253.6336382705
 21
-297.0730367684
 31
0.0
  0
LINE
  5
1A7
330
1F
100
AcDbEntity
  8
0
  6
HIDDEN
 62
     7
370
    18
100
AcDbLine
 10
-250.8052111457
 20
-297.0730367684
 30
0.0
 11
-250.8052111457
 21
-295.4399551446
 31
0.0
  0
ARC
  5
1A8
330
1F
100
AcDbEntity
  8
0
  6
HIDDEN
 62
     7
370
    18
100
AcDbCircle
 10
-252.2194247081
 20
-299.8024589383
 30
0.0
 40
3.074043815823238
100
AcDbArc
 50
62.6096722366
 51
117.3903277634
  0
LINE
  5
1A9
330
1F
100
AcDbEntity
  8
0
  6
HIDDEN
 62
     7
370
    18
100
AcDbLine
 10
-245.3507777199
 20
-807.5766071283
 30
0.0
 11
-42.3821942552
 21
-493.736638861
 31
0.0
  0
LINE
  5
1AA
330
1F
100
AcDbEntity
  8
0
  6
HIDDEN
 62
     7
370
    18
100
AcDbLine
 10
-353.4685137588
 20
-870.7798293386
 30
0.0
 11
-246.5818200517
 21
-809.0754544761
 31
0.0
  0
SPLINE
  5
1AB
330
1F
100
AcDbEntity
  8
0
  6
HIDDEN
 62
     7
370
    18
100
AcDbSpline
210
0.0
220
0.0
230
1.0
 70
     8
 71
     3
 72
     9
 73
     5
 74
     0
 42
0.00000001
 43
0.00000001
 40
0.0
 40
0.0
 40
0.0
 40
0.0
 40
0.4563644948631665
 40
1.0
 40
1.0
 40
1.0
 40
1.0
 10
-523.8120005475952
 20
-647.8350043113057
 30
0.0
 10
-523.9195499847903
 20
-647.7150209574262
 30
0.0
 10
-524.1552156389015
 20
-647.4521097203993
 30
0.0
 10
-524.2758060918813
 20
-647.2605621670506
 30
0.0
 10
-524.3413633437018
 20
-647.156430116128
 30
0.0
  0
LINE
  5
1AC
330
1F
100
AcDbEntity
  8
0
  6
CENTER
 62
     7
100
AcDbLine
 10
-560.0961795935
 20
559.4374203678
 30
0.0
 11
-185.3914486528
 21
559.4374203678
 31
0.0
  0
LINE
  5
1AD
330
1F
100
AcDbEntity
  8
0
  6
CENTER
 62
     7
100
AcDbLine
 10
-185.3914486528
 20
163.4350313271
 30
0.0
 11
-560.0961795935
 21
163.4350313271
 31
0.0
  0
LINE
  5
1AE
330
1F
100
AcDbEntity
  8
0
  6
CENTER
 62
     7
100
AcDbLine
 10
-713.874730676
 20
559.4374203678
 30
0.0
 11
-562.7141187983
 21
559.4374203678
 31
0.0
  0
LINE
  5
1AF
330
1F
100
AcDbEntity
  8
0
  6
CENTER
 62
     7
100
AcDbLine
 10
-185.3411284971
 20
556.4362258474
 30
0.0
 11
-185.3411284971
 21
166.4362258474
 31
0.0
  0
LINE
  5
1B0
330
1F
100
AcDbEntity
  8
0
  6
CENTER
 62
     7
100
AcDbLine
 10
-561.8246990114
 20
556.4362258474
 30
0.0
 11
-561.8246990114
 21
166.4362258474
 31
0.0
  0
LINE
  5
1B1
330
1F
100
AcDbEntity
  8
0
  6
CENTER
 62
     7
100
AcDbLine
 10
-562.7141187983
 20
163.4350313271
 30
0.0
 11
-713.874730676
 21
163.4350313271
 31
0.0
  0
LINE
  5
1B2
330
1F
100
AcDbEntity
  8
0
  6
Continuous
 62
     7
370
    35
100
AcDbLine
 10
-559.2570799623
 20
561.4386148881
 30
0.0
 11
-560.9352792246
 21
557.4362258474
 31
0.0
  0
LINE
  5
1B3
330
1F
100
AcDbEntity
  8
0
  6
Continuous
 62
     7
370
    35
100
AcDbLine
 10
-559.2570799623
 20
561.4386148881
 30
0.0
 11
-502.7977786121
 21
628.7241901075
 31
0.0
  0
ARC
  5
1B4
330
1F
100
AcDbEntity
  8
0
  6
Continuous
 62
     7
370
    35
100
AcDbCircle
 10
-501.2656897259
 20
627.4386148881
 30
0.0
 40
2.000000000000132
100
AcDbArc
 50
90.0
 51
140.0
  0
LINE
  5
1B5
330
1F
100
AcDbEntity
  8
0
  6
Continuous
 62
     7
370
    35
100
AcDbLine
 10
-501.2656897259
 20
629.4386148881
 30
0.0
 11
-155.3575199362
 21
629.4386148881
 31
0.0
  0
ARC
  5
1B6
330
1F
100
AcDbEntity
  8
0
  6
Continuous
 62
     7
370
    35
100
AcDbCircle
 10
-155.3575199362
 20
627.4386148881
 30
0.0
 40
2.000000000000114
100
AcDbArc
 50
50.0
 51
90.0
  0
LINE
  5
1B7
330
1F
100
AcDbEntity
  8
0
  6
Continuous
 62
     7
370
    35
100
AcDbLine
 10
-154.0719447168
 20
628.9707037743
 30
0.0
 11
-140.2376067303
 21
617.3623158723
 31
0.0
  0
ARC
  5
1B8
330
1F
100
AcDbEntity
  8
0
  6
Continuous
 62
     7
370
    35
100
AcDbCircle
 10
-141.5231819497
 20
615.8302269861
 30
0.0
 40
2.00000000000011
100
AcDbArc
 50
320.0
 51
50.0
  0
LINE
  5
1B9
330
1F
100
AcDbEntity
  8
0
  6
Continuous
 62
     7
370
    35
100
AcDbLine
 10
-139.9910930635
 20
614.5446517667
 30
0.0
 11
-184.5523490216
 21
561.4386148881
 31
0.0
  0
LINE
  5
1BA
330
1F
100
AcDbEntity
  8
0
  6
Continuous
 62
     7
370
    35
100
AcDbLine
 10
-186.2305482839
 20
557.4362258474
 30
0.0
 11
-184.5523490216
 21
561.4386148881
 31
0.0
  0
LINE
  5
1BB
330
1F
100
AcDbEntity
  8
0
  6
Continuous
 62
     7
370
    35
100
AcDbLine
 10
-186.2305482839
 20
557.4362258474
 30
0.0
 11
-186.2305482839
 21
556.4362258474
 31
0.0
  0
LINE
  5
1BC
330
1F
100
AcDbEntity
  8
0
  6
Continuous
 62
     7
370
    35
100
AcDbLine
 10
-92.9075896474
 20
556.4362258474
 30
0.0
 11
-186.2305482839
 21
556.4362258474
 31
0.0
  0
ARC
  5
1BD
330
1F
100
AcDbEntity
  8
0
  6
Continuous
 62
     7
370
    35
100
AcDbCircle
 10
-92.9075896474
 20
554.4362258474
 30
0.0
 40
2.0
100
AcDbArc
 50
0.0
 51
90.0
  0
LINE
  5
1BE
330
1F
100
AcDbEntity
  8
0
  6
Continuous
 62
     7
370
    35
100
AcDbLine
 10
-90.9075896474
 20
168.4362258474
 30
0.0
 11
-90.9075896474
 21
554.4362258474
 31
0.0
  0
ARC
  5
1BF
330
1F
100
AcDbEntity
  8
0
  6
Continuous
 62
     7
370
    35
100
AcDbCircle
 10
-92.9075896474
 20
168.4362258474
 30
0.0
 40
2.0
100
AcDbArc
 50
270.0
 51
0.0
  0
LINE
  5
1C0
330
1F
100
AcDbEntity
  8
0
  6
Continuous
 62
     7
370
    35
100
AcDbLine
 10
-186.2305482839
 20
166.4362258474
 30
0.0
 11
-92.9075896474
 21
166.4362258474
 31
0.0
  0
LINE
  5
1C1
330
1F
100
AcDbEntity
  8
0
  6
Continuous
 62
     7
370
    35
100
AcDbLine
 10
-186.2305482839
 20
165.4362258474
 30
0.0
 11
-186.2305482839
 21
166.4362258474
 31
0.0
  0
LINE
  5
1C2
330
1F
100
AcDbEntity
  8
0
  6
Continuous
 62
     7
370
    35
100
AcDbLine
 10
-184.5523490216
 20
161.4338368067
 30
0.0
 11
-186.2305482839
 21
165.4362258474
 31
0.0
  0
LINE
  5
1C3
330
1F
100
AcDbEntity
  8
0
  6
Continuous
 62
     7
370
    35
100
AcDbLine
 10
-139.9910930635
 20
108.3277999282
 30
0.0
 11
-184.5523490216
 21
161.4338368067
 31
0.0
  0
ARC
  5
1C4
330
1F
100
AcDbEntity
  8
0
  6
Continuous
 62
     7
370
    35
100
AcDbCircle
 10
-141.5231819497
 20
107.0422247088
 30
0.0
 40
2.000000000000132
100
AcDbArc
 50
310.0
 51
40.0
  0
LINE
  5
1C5
330
1F
100
AcDbEntity
  8
0
  6
Continuous
 62
     7
370
    35
100
AcDbLine
 10
-154.0719447168
 20
93.9017479205
 30
0.0
 11
-140.2376067303
 21
105.5101358226
 31
0.0
  0
ARC
  5
1C6
330
1F
100
AcDbEntity
  8
0
  6
Continuous
 62
     7
370
    35
100
AcDbCircle
 10
-155.3575199362
 20
95.4338368068
 30
0.0
 40
2.0
100
AcDbArc
 50
270.0
 51
310.0
  0
LINE
  5
1C7
330
1F
100
AcDbEntity
  8
0
  6
Continuous
 62
     7
370
    35
100
AcDbLine
 10
-501.2656897259
 20
93.4338368067
 30
0.0
 11
-155.3575199362
 21
93.4338368068
 31
0.0
  0
ARC
  5
1C8
330
1F
100
AcDbEntity
  8
0
  6
Continuous
 62
     7
370
    35
100
AcDbCircle
 10
-501.2656897259
 20
95.4338368067
 30
0.0
 40
2.000000000000014
100
AcDbArc
 50
220.0
 51
270.0
  0
LINE
  5
1C9
330
1F
100
AcDbEntity
  8
0
  6
Continuous
 62
     7
370
    35
100
AcDbLine
 10
-559.2570799623
 20
161.4338368067
 30
0.0
 11
-502.7977786121
 21
94.1482615874
 31
0.0
  0
LINE
  5
1CA
330
1F
100
AcDbEntity
  8
0
  6
Continuous
 62
     7
370
    35
100
AcDbLine
 10
-560.9352792246
 20
165.4362258474
 30
0.0
 11
-559.2570799623
 21
161.4338368067
 31
0.0
  0
LINE
  5
1CB
330
1F
100
AcDbEntity
  8
0
  6
Continuous
 62
     7
370
    35
100
AcDbLine
 10
-560.9352792246
 20
165.4362258474
 30
0.0
 11
-560.9352792246
 21
166.4362258474
 31
0.0
  0
LINE
  5
1CC
330
1F
100
AcDbEntity
  8
0
  6
Continuous
 62
     7
370
    35
100
AcDbLine
 10
-562.7141187983
 20
166.4362258474
 30
0.0
 11
-560.9352792246
 21
166.4362258474
 31
0.0
  0
LINE
  5
1CD
330
1F
100
AcDbEntity
  8
0
  6
Continuous
 62
     7
370
    35
100
AcDbLine
 10
-562.7141187983
 20
85.4338368067
 30
0.0
 11
-562.7141187983
 21
166.4362258474
 31
0.0
  0
ARC
  5
1CE
330
1F
100
AcDbEntity
  8
0
  6
Continuous
 62
     7
370
    35
100
AcDbCircle
 10
-564.7141187983
 20
85.4338368067
 30
0.0
 40
2.0
100
AcDbArc
 50
270.0
 51
0.0
  0
LINE
  5
1CF
330
1F
100
AcDbEntity
  8
0
  6
Continuous
 62
     7
370
    35
100
AcDbLine
 10
-711.874730676
 20
83.4338368067
 30
0.0
 11
-564.7141187983
 21
83.4338368067
 31
0.0
  0
ARC
  5
1D0
330
1F
100
AcDbEntity
  8
0
  6
Continuous
 62
     7
370
    35
100
AcDbCircle
 10
-711.874730676
 20
85.4338368067
 30
0.0
 40
2.0
100
AcDbArc
 50
180.0
 51
270.0
  0
LINE
  5
1D1
330
1F
100
AcDbEntity
  8
0
  6
Continuous
 62
     7
370
    35
100
AcDbLine
 10
-713.874730676
 20
85.4338368067
 30
0.0
 11
-713.874730676
 21
637.4386148881
 31
0.0
  0
ARC
  5
1D2
330
1F
100
AcDbEntity
  8
0
  6
Continuous
 62
     7
370
    35
100
AcDbCircle
 10
-711.874730676
 20
637.4386148881
 30
0.0
 40
2.0
100
AcDbArc
 50
90.0
 51
180.0
  0
LINE
  5
1D3
330
1F
100
AcDbEntity
  8
0
  6
Continuous
 62
     7
370
    35
100
AcDbLine
 10
-711.874730676
 20
639.4386148881
 30
0.0
 11
-564.7141187983
 21
639.4386148881
 31
0.0
  0
ARC
  5
1D4
330
1F
100
AcDbEntity
  8
0
  6
Continuous
 62
     7
370
    35
100
AcDbCircle
 10
-564.7141187983
 20
637.4386148881
 30
0.0
 40
2.0
100
AcDbArc
 50
0.0
 51
90.0
  0
LINE
  5
1D5
330
1F
100
AcDbEntity
  8
0
  6
Continuous
 62
     7
370
    35
100
AcDbLine
 10
-562.7141187983
 20
637.4386148881
 30
0.0
 11
-562.7141187983
 21
556.4362258474
 31
0.0
  0
LINE
  5
1D6
330
1F
100
AcDbEntity
  8
0
  6
Continuous
 62
     7
370
    35
100
AcDbLine
 10
-560.9352792246
 20
556.4362258474
 30
0.0
 11
-562.7141187983
 21
556.4362258474
 31
0.0
  0
LINE
  5
1D7
330
1F
100
AcDbEntity
  8
0
  6
Continuous
 62
     7
370
    35
100
AcDbLine
 10
-560.9352792246
 20
557.4362258474
 30
0.0
 11
-560.9352792246
 21
556.4362258474
 31
0.0
  0
MTEXT
  5
1D9
330
1F
100
AcDbEntity
  8
0
  6
Continuous
 62
     7
370
     0
100
AcDbMText
 10
-373.0760752335
 20
562.9180021876
 30
0.0
 40
2.6458333333
 41
0.0
 71
     2
 72
     1
  1
DOWN  900'  R 2
  7
SLDTEXTSTYLE0
 73
     1
 44
1.0
  0
MTEXT
  5
1DA
330
1F
100
AcDbEntity
  8
0
  6
Continuous
 62
     7
370
     0
100
AcDbMText
 10
-638.6266858475
 20
562.9180021876
 30
0.0
 40
2.6458333333
 41
0.0
 71
     2
 72
     1
  1
DOWN  900'  R 2
  7
SLDTEXTSTYLE0
 73
     1
 44
1.0
  0
MTEXT
  5
1DB
330
1F
100
AcDbEntity
  8
0
  6
Continuous
 62
     7
370
     0
100
AcDbMText
 10
-638.6266858475
 20
166.7878992261
 30
0.0
 40
2.6458333333
 41
0.0
 71
     2
 72
     1
  1
DOWN  900'  R 2
  7
SLDTEXTSTYLE0
 73
     1
 44
1.0
  0
MTEXT
  5
1DC
330
1F
100
AcDbEntity
  8
0
  6
Continuous
 62
     7
370
     0
100
AcDbMText
 10
-373.0760752335
 20
166.7878992261
 30
0.0
 40
2.6458333333
 41
0.0
 71
     2
 72
     1
  1
DOWN  900'  R 2
  7
SLDTEXTSTYLE0
 73
     1
 44
1.0
  0
MTEXT
  5
1DE
330
1F
100
AcDbEntity
  8
0
  6
Continuous
 62
     7
370
     0
100
AcDbMText
 10
-188.8217103169
 20
361.0565005948
 30
0.0
 40
2.6458333333
 41
0.0
 71
     2
 72
     1
  1
UP  400'  R 2
  7
SLDTEXTSTYLE1
 11
-3.491481338843133E-15
 21
1.0
 31
0.0
 73
     1
 44
1.0
  0
MTEXT
  5
1DF
330
1F
100
AcDbEntity
  8
0
  6
Continuous
 62
     7
370
     0
100
AcDbMText
 10
-565.3052808313
 20
361.1039647371
 30
0.0
 40
2.6458333333
 41
0.0
 71
     2
 72
     1
  1
DOWN  400'  R 2
  7
SLDTEXTSTYLE0
 11
-3.491481338843133E-15
 21
1.0
 31
0.0
 73
     1
 44
1.0
  0
MTEXT
  5
1E1
330
1F
100
AcDbEntity
  8
0
  6
Continuous
 62
     7
370
     0
100
AcDbMText
 10
-351.4034180425
 20
224.3583630364
 30
0.0
 40
12.7
 41
0.0
 71
     1
 72
     1
  1
DKP SAC
  7
SLDTEXTSTYLE2
 73
     1
 44
1.0
  0
MTEXT
  5
1E2
330
1F
100
AcDbEntity
  8
0
  6
Continuous
 62
     7
370
     0
100
AcDbMText
 10
-351.4034180425
 20
206.4250297438
 30
0.0
 40
12.7
 41
0.0
 71
     1
 72
     1
  1
2mm
  7
SLDTEXTSTYLE2
 73
     1
 44
1.0
  0
ENDSEC
  0
SECTION
  2
OBJECTS
  0
DICTIONARY
  5
C
330
0
100
AcDbDictionary
281
     1
  3
ACAD_GROUP
350
D
  3
ACAD_LAYOUT
350
1A
  3
ACAD_MLINESTYLE
350
17
  3
ACAD_PLOTSETTINGS
350
19
  3
ACAD_PLOTSTYLENAME
350
E
  3
ACAD_SCALELIST
350
47
  3
DWGPROPS
350
1E3
  0
DICTIONARY
  5
D
102
{ACAD_REACTORS
330
C
102
}
330
C
100
AcDbDictionary
281
     1
  0
DICTIONARY
  5
1A
102
{ACAD_REACTORS
330
C
102
}
330
C
100
AcDbDictionary
281
     1
  3
Layout1
350
1E
  3
Layout2
350
26
  3
Model
350
22
  0
DICTIONARY
  5
17
102
{ACAD_REACTORS
330
C
102
}
330
C
100
AcDbDictionary
281
     1
  3
Standard
350
18
  0
DICTIONARY
  5
19
102
{ACAD_REACTORS
330
C
102
}
330
C
100
AcDbDictionary
281
     1
  0
ACDBDICTIONARYWDFLT
  5
E
102
{ACAD_REACTORS
330
C
102
}
330
C
100
AcDbDictionary
281
     1
  3
Normal
350
F
100
AcDbDictionaryWithDefault
340
F
  0
DICTIONARY
  5
47
102
{ACAD_REACTORS
330
C
102
}
330
C
100
AcDbDictionary
281
     1
  3
A0
350
48
  3
A1
350
49
  3
A2
350
4A
  3
A3
350
4B
  3
A4
350
4C
  3
A5
350
4D
  3
A6
350
4E
  3
A7
350
4F
  3
A8
350
50
  3
A9
350
51
  3
B0
350
52
  3
B1
350
53
  3
B2
350
54
  3
B3
350
55
  3
B4
350
56
  3
B5
350
57
  3
B6
350
58
  0
XRECORD
  5
1E3
102
{ACAD_REACTORS
330
C
102
}
330
C
100
AcDbXrecord
280
     1
  1
DWGPROPS COOKIE
  2

  3

  4

  6

  7

  8
K17
  9

300
=
301
=
302
=
303
=
304
=
305
=
306
=
307
=
308
=
309
=
 40
0.0
 41
2459885.380853021
 42
2459885.380853982
  1

 90
        0
  0
LAYOUT
  5
1E
102
{ACAD_REACTORS
330
1A
102
}
330
1A
100
AcDbPlotSettings
  1

  2
none_device
  4

  6

 40
0.0
 41
0.0
 42
0.0
 43
0.0
 44
0.0
 45
0.0
 46
0.0
 47
0.0
 48
0.0
 49
0.0
140
0.0
141
0.0
142
1.0
143
1.0
 70
   688
 72
     1
 73
     0
 74
     5
  7

 75
    16
147
1.0
148
0.0
149
0.0
100
AcDbLayout
  1
Layout1
 70
     1
 71
     1
 10
0.0
 20
0.0
 11
420.0
 21
297.0
 12
0.0
 22
0.0
 32
0.0
 14
1.0000000000E+20
 24
1.0000000000E+20
 34
1.0000000000E+20
 15
-1.0000000000E+20
 25
-1.0000000000E+20
 35
-1.0000000000E+20
146
0.0
 13
0.0
 23
0.0
 33
0.0
 16
1.0
 26
0.0
 36
0.0
 17
0.0
 27
1.0
 37
0.0
 76
     0
330
1B
  0
LAYOUT
  5
26
102
{ACAD_REACTORS
330
1A
102
}
330
1A
100
AcDbPlotSettings
  1

  2
none_device
  4

  6

 40
0.0
 41
0.0
 42
0.0
 43
0.0
 44
0.0
 45
0.0
 46
0.0
 47
0.0
 48
0.0
 49
0.0
140
0.0
141
0.0
142
1.0
143
1.0
 70
   688
 72
     1
 73
     0
 74
     5
  7

 75
    16
147
1.0
148
0.0
149
0.0
100
AcDbLayout
  1
Layout2
 70
     1
 71
     2
 10
0.0
 20
0.0
 11
0.0
 21
0.0
 12
0.0
 22
0.0
 32
0.0
 14
0.0
 24
0.0
 34
0.0
 15
0.0
 25
0.0
 35
0.0
146
0.0
 13
0.0
 23
0.0
 33
0.0
 16
1.0
 26
0.0
 36
0.0
 17
0.0
 27
1.0
 37
0.0
 76
     0
330
23
  0
LAYOUT
  5
22
102
{ACAD_REACTORS
330
1A
102
}
330
1A
100
AcDbPlotSettings
  1

  2
none_device
  4
Letter_(8.50_x_11.00_Inches)
  6

 40
6.35
 41
6.35
 42
6.35000508
 43
6.35000508
 44
215.9
 45
279.4
 46
0.0
 47
0.0
 48
0.0
 49
0.0
140
0.0
141
0.0
142
1.0
143
1.0
 70
  1712
 72
     1
 73
     0
 74
     0
  7

 75
     0
147
1.0
148
0.0
149
0.0
100
AcDbLayout
  1
Model
 70
     1
 71
     0
 10
0.0
 20
0.0
 11
297.0
 21
210.0
 12
0.0
 22
0.0
 32
0.0
 14
0.0
 24
0.0
 34
0.0
 15
297.0
 25
210.0
 35
0.0
146
0.0
 13
0.0
 23
0.0
 33
0.0
 16
1.0
 26
0.0
 36
0.0
 17
0.0
 27
1.0
 37
0.0
 76
     0
330
1F
331
29
  0
MLINESTYLE
  5
18
102
{ACAD_REACTORS
330
17
102
}
330
17
100
AcDbMlineStyle
  2
Standard
 70
     0
  3

 62
   256
 51
90.0
 52
90.0
 71
     2
 49
0.5
 62
   256
  6
BYLAYER
 49
-0.5
 62
   256
  6
BYLAYER
  0
ACDBPLACEHOLDER
  5
F
102
{ACAD_REACTORS
330
E
102
}
330
E
  0
SCALE
  5
48
102
{ACAD_REACTORS
330
47
102
}
330
47
100
AcDbScale
 70
     0
300
1:1
140
1.0
141
1.0
290
     1
  0
SCALE
  5
49
102
{ACAD_REACTORS
330
47
102
}
330
47
100
AcDbScale
 70
     0
300
1:2
140
1.0
141
2.0
290
     0
  0
SCALE
  5
4A
102
{ACAD_REACTORS
330
47
102
}
330
47
100
AcDbScale
 70
     0
300
1:4
140
1.0
141
4.0
290
     0
  0
SCALE
  5
4B
102
{ACAD_REACTORS
330
47
102
}
330
47
100
AcDbScale
 70
     0
300
1:5
140
1.0
141
5.0
290
     0
  0
SCALE
  5
4C
102
{ACAD_REACTORS
330
47
102
}
330
47
100
AcDbScale
 70
     0
300
1:8
140
1.0
141
8.0
290
     0
  0
SCALE
  5
4D
102
{ACAD_REACTORS
330
47
102
}
330
47
100
AcDbScale
 70
     0
300
1:10
140
1.0
141
10.0
290
     0
  0
SCALE
  5
4E
102
{ACAD_REACTORS
330
47
102
}
330
47
100
AcDbScale
 70
     0
300
1:16
140
1.0
141
16.0
290
     0
  0
SCALE
  5
4F
102
{ACAD_REACTORS
330
47
102
}
330
47
100
AcDbScale
 70
     0
300
1:20
140
1.0
141
20.0
290
     0
  0
SCALE
  5
50
102
{ACAD_REACTORS
330
47
102
}
330
47
100
AcDbScale
 70
     0
300
1:30
140
1.0
141
30.0
290
     0
  0
SCALE
  5
51
102
{ACAD_REACTORS
330
47
102
}
330
47
100
AcDbScale
 70
     0
300
1:40
140
1.0
141
40.0
290
     0
  0
SCALE
  5
52
102
{ACAD_REACTORS
330
47
102
}
330
47
100
AcDbScale
 70
     0
300
1:50
140
1.0
141
50.0
290
     0
  0
SCALE
  5
53
102
{ACAD_REACTORS
330
47
102
}
330
47
100
AcDbScale
 70
     0
300
1:100
140
1.0
141
100.0
290
     0
  0
SCALE
  5
54
102
{ACAD_REACTORS
330
47
102
}
330
47
100
AcDbScale
 70
     0
300
2:1
140
2.0
141
1.0
290
     0
  0
SCALE
  5
55
102
{ACAD_REACTORS
330
47
102
}
330
47
100
AcDbScale
 70
     0
300
4:1
140
4.0
141
1.0
290
     0
  0
SCALE
  5
56
102
{ACAD_REACTORS
330
47
102
}
330
47
100
AcDbScale
 70
     0
300
8:1
140
8.0
141
1.0
290
     0
  0
SCALE
  5
57
102
{ACAD_REACTORS
330
47
102
}
330
47
100
AcDbScale
 70
     0
300
10:1
140
10.0
141
1.0
290
     0
  0
SCALE
  5
58
102
{ACAD_REACTORS
330
47
102
}
330
47
100
AcDbScale
 70
     0
300
100:1
140
100.0
141
1.0
290
     0
  0
ENDSEC
  0
EOF