  0
SECTION
  2
HEADER
  9
$ACADVER
  1
AC1015
  9
$ACADMAINTVER
 70
     6
  9
$DWGCODEPAGE
  3
ANSI_1254
  9
$INSBASE
 10
0.0
 20
0.0
 30
0.0
  9
$EXTMIN
 10
0.0
 20
0.0
 30
0.0
  9
$EXTMAX
 10
297.0
 20
210.0
 30
0.0
  9
$LIMMIN
 10
0.0
 20
0.0
  9
$LIMMAX
 10
297.0
 20
210.0
  9
$ORTHOMODE
 70
     0
  9
$REGENMODE
 70
     1
  9
$FILLMODE
 70
     1
  9
$QTEXTMODE
 70
     0
  9
$MIRRTEXT
 70
     1
  9
$LTSCALE
 40
1.0
  9
$ATTMODE
 70
     1
  9
$TEXTSIZE
 40
3.5277777778
  9
$TRACEWID
 40
1.0
  9
$TEXTSTYLE
  7
Standard
  9
$CLAYER
  8
0
  9
$CELTYPE
  6
ByLayer
  9
$CECOLOR
 62
   256
  9
$CELTSCALE
 40
1.0
  9
$DISPSILH
 70
     0
  9
$DIMSCALE
 40
1.0
  9
$DIMASZ
 40
3.0
  9
$DIMEXO
 40
1.0
  9
$DIMDLI
 40
3.75
  9
$DIMRND
 40
0.0
  9
$DIMDLE
 40
0.0
  9
$DIMEXE
 40
1.0
  9
$DIMTP
 40
0.0
  9
$DIMTM
 40
0.0
  9
$DIMTXT
 40
4.2333333333
  9
$DIMCEN
 40
2.5
  9
$DIMTSZ
 40
0.0
  9
$DIMTOL
 70
     0
  9
$DIMLIM
 70
     0
  9
$DIMTIH
 70
     1
  9
$DIMTOH
 70
     1
  9
$DIMSE1
 70
     0
  9
$DIMSE2
 70
     0
  9
$DIMTAD
 70
     1
  9
$DIMZIN
 70
     0
  9
$DIMBLK
  1

  9
$DIMASO
 70
     1
  9
$DIMSHO
 70
     1
  9
$DIMPOST
  1

  9
$DIMAPOST
  1

  9
$DIMALT
 70
     0
  9
$DIMALTD
 70
     3
  9
$DIMALTF
 40
0.0393700787
  9
$DIMLFAC
 40
1.0
  9
$DIMTOFL
 70
     1
  9
$DIMTVP
 40
0.0
  9
$DIMTIX
 70
     0
  9
$DIMSOXD
 70
     0
  9
$DIMSAH
 70
     0
  9
$DIMBLK1
  1

  9
$DIMBLK2
  1

  9
$DIMSTYLE
  2
ISO-25
  9
$DIMCLRD
 70
     0
  9
$DIMCLRE
 70
     0
  9
$DIMCLRT
 70
     0
  9
$DIMTFAC
 40
1.0
  9
$DIMGAP
 40
1.524
  9
$DIMJUST
 70
     0
  9
$DIMSD1
 70
     0
  9
$DIMSD2
 70
     0
  9
$DIMTOLJ
 70
     0
  9
$DIMTZIN
 70
     0
  9
$DIMALTZ
 70
     0
  9
$DIMALTTZ
 70
     0
  9
$DIMUPT
 70
     0
  9
$DIMDEC
 70
     2
  9
$DIMTDEC
 70
     2
  9
$DIMALTU
 70
     2
  9
$DIMALTTD
 70
     3
  9
$DIMTXSTY
  7
Standard
  9
$DIMAUNIT
 70
     0
  9
$DIMADEC
 70
     2
  9
$DIMALTRND
 40
0.0
  9
$DIMAZIN
 70
     0
  9
$DIMDSEP
 70
    44
  9
$DIMATFIT
 70
     3
  9
$DIMFRAC
 70
     0
  9
$DIMLDRBLK
  1

  9
$DIMLUNIT
 70
     2
  9
$DIMLWD
 70
    -2
  9
$DIMLWE
 70
    -2
  9
$DIMTMOVE
 70
     0
  9
$LUNITS
 70
     2
  9
$LUPREC
 70
     2
  9
$SKETCHINC
 40
1.0
  9
$FILLETRAD
 40
10.0
  9
$AUNITS
 70
     1
  9
$AUPREC
 70
     2
  9
$MENU
  1
.
  9
$ELEVATION
 40
0.0
  9
$PELEVATION
 40
0.0
  9
$THICKNESS
 40
0.0
  9
$LIMCHECK
 70
     0
  9
$CHAMFERA
 40
0.0
  9
$CHAMFERB
 40
0.0
  9
$CHAMFERC
 40
0.0
  9
$CHAMFERD
 40
0.0
  9
$SKPOLY
 70
     0
  9
$TDCREATE
 40
2459346.522213611
  9
$TDUCREATE
 40
2459346.397213611
  9
$TDUPDATE
 40
2459346.52221434
  9
$TDUUPDATE
 40
2459346.39721434
  9
$TDINDWG
 40
0.0000000116
  9
$TDUSRTIMER
 40
0.0000000116
  9
$USRTIMER
 70
     1
  9
$ANGBASE
 50
0.0
  9
$ANGDIR
 70
     0
  9
$PDMODE
 70
     0
  9
$PDSIZE
 40
-1.0
  9
$PLINEWID
 40
0.0
  9
$SPLFRAME
 70
     0
  9
$SPLINETYPE
 70
     6
  9
$SPLINESEGS
 70
     8
  9
$HANDSEED
  5
17D
  9
$SURFTAB1
 70
     6
  9
$SURFTAB2
 70
     6
  9
$SURFTYPE
 70
     6
  9
$SURFU
 70
     6
  9
$SURFV
 70
     6
  9
$UCSBASE
  2

  9
$UCSNAME
  2

  9
$UCSORG
 10
0.0
 20
0.0
 30
0.0
  9
$UCSXDIR
 10
1.0
 20
0.0
 30
0.0
  9
$UCSYDIR
 10
0.0
 20
1.0
 30
0.0
  9
$UCSORTHOREF
  2

  9
$UCSORTHOVIEW
 70
     0
  9
$UCSORGTOP
 10
0.0
 20
0.0
 30
0.0
  9
$UCSORGBOTTOM
 10
0.0
 20
0.0
 30
0.0
  9
$UCSORGLEFT
 10
0.0
 20
0.0
 30
0.0
  9
$UCSORGRIGHT
 10
0.0
 20
0.0
 30
0.0
  9
$UCSORGFRONT
 10
0.0
 20
0.0
 30
0.0
  9
$UCSORGBACK
 10
0.0
 20
0.0
 30
0.0
  9
$PUCSBASE
  2

  9
$PUCSNAME
  2

  9
$PUCSORG
 10
0.0
 20
0.0
 30
0.0
  9
$PUCSXDIR
 10
1.0
 20
0.0
 30
0.0
  9
$PUCSYDIR
 10
0.0
 20
1.0
 30
0.0
  9
$PUCSORTHOREF
  2

  9
$PUCSORTHOVIEW
 70
     0
  9
$PUCSORGTOP
 10
0.0
 20
0.0
 30
0.0
  9
$PUCSORGBOTTOM
 10
0.0
 20
0.0
 30
0.0
  9
$PUCSORGLEFT
 10
0.0
 20
0.0
 30
0.0
  9
$PUCSORGRIGHT
 10
0.0
 20
0.0
 30
0.0
  9
$PUCSORGFRONT
 10
0.0
 20
0.0
 30
0.0
  9
$PUCSORGBACK
 10
0.0
 20
0.0
 30
0.0
  9
$USERI1
 70
     0
  9
$USERI2
 70
     0
  9
$USERI3
 70
     0
  9
$USERI4
 70
     0
  9
$USERI5
 70
     0
  9
$USERR1
 40
0.0
  9
$USERR2
 40
0.0
  9
$USERR3
 40
0.0
  9
$USERR4
 40
0.0
  9
$USERR5
 40
0.0
  9
$WORLDVIEW
 70
     1
  9
$SHADEDGE
 70
     3
  9
$SHADEDIF
 70
    70
  9
$TILEMODE
 70
     1
  9
$MAXACTVP
 70
    64
  9
$PINSBASE
 10
0.0
 20
0.0
 30
0.0
  9
$PLIMCHECK
 70
     0
  9
$PEXTMIN
 10
1.0000000000E+20
 20
1.0000000000E+20
 30
1.0000000000E+20
  9
$PEXTMAX
 10
-1.0000000000E+20
 20
-1.0000000000E+20
 30
-1.0000000000E+20
  9
$PLIMMIN
 10
0.0
 20
0.0
  9
$PLIMMAX
 10
420.0
 20
297.0
  9
$UNITMODE
 70
     0
  9
$VISRETAIN
 70
     1
  9
$PLINEGEN
 70
     0
  9
$PSLTSCALE
 70
     1
  9
$TREEDEPTH
 70
  3020
  9
$CMLSTYLE
  2
Standard
  9
$CMLJUST
 70
     0
  9
$CMLSCALE
 40
20.0
  9
$PROXYGRAPHICS
 70
     1
  9
$MEASUREMENT
 70
     1
  9
$CELWEIGHT
370
    -1
  9
$ENDCAPS
280
     0
  9
$JOINSTYLE
280
     0
  9
$LWDISPLAY
290
     1
  9
$INSUNITS
 70
     4
  9
$HYPERLINKBASE
  1

  9
$STYLESHEET
  1

  9
$XEDIT
290
     1
  9
$CEPSNTYPE
380
     0
  9
$PSTYLEMODE
290
     1
  9
$FINGERPRINTGUID
  2
{a921a1a1-51b7-4469-be58-cd4065fbc519}
  9
$VERSIONGUID
  2
{FAEB1C32-E019-11D5-929B-00C0DF256EC4}
  9
$EXTNAMES
290
     1
  9
$PSVPSCALE
 40
0.0
  9
$OLESTARTUP
290
     0
  0
ENDSEC
  0
SECTION
  2
CLASSES
  0
CLASS
  1
ACDBDICTIONARYWDFLT
  2
AcDbDictionaryWithDefault
  3
ObjectDBX Classes
 90
        0
280
     0
281
     0
  0
CLASS
  1
VISUALSTYLE
  2
AcDbVisualStyle
  3
ObjectDBX Classes
 90
     4095
280
     0
281
     0
  0
CLASS
  1
MATERIAL
  2
AcDbMaterial
  3
ObjectDBX Classes
 90
     1153
280
     0
281
     0
  0
CLASS
  1
SCALE
  2
AcDbScale
  3
ObjectDBX Classes
 90
     1153
280
     0
281
     0
  0
CLASS
  1
TABLESTYLE
  2
AcDbTableStyle
  3
ObjectDBX Classes
 90
     4095
280
     0
281
     0
  0
CLASS
  1
MLEADERSTYLE
  2
AcDbMLeaderStyle
  3
ACDB_MLEADERSTYLE_CLASS
 90
     4095
280
     0
281
     0
  0
CLASS
  1
SUN
  2
AcDbSun
  3
SCENEOE
 90
     1153
280
     0
281
     0
  0
CLASS
  1
ACDBPLACEHOLDER
  2
AcDbPlaceHolder
  3
ObjectDBX Classes
 90
        0
280
     0
281
     0
  0
CLASS
  1
LAYOUT
  2
AcDbLayout
  3
ObjectDBX Classes
 90
        0
280
     0
281
     0
  0
ENDSEC
  0
SECTION
  2
TABLES
  0
TABLE
  2
VPORT
  5
8
330
0
100
AcDbSymbolTable
 70
     1
  0
VPORT
  5
29
330
8
100
AcDbSymbolTableRecord
100
AcDbViewportTableRecord
  2
*Active
 70
     0
 10
0.0
 20
0.0
 11
1.0
 21
1.0
 12
148.5
 22
105.0
 13
0.0
 23
0.0
 14
10.0
 24
10.0
 15
10.0
 25
10.0
 16
0.0
 26
0.0
 36
1.0
 17
0.0
 27
0.0
 37
0.0
 40
210.0
 41
1.4142857143
 42
50.0
 43
0.0
 44
0.0
 50
0.0
 51
0.0
 71
     0
 72
  2000
 73
     1
 74
     3
 75
     0
 76
     0
 77
     0
 78
     0
281
     0
 65
     1
110
0.0
120
0.0
130
0.0
111
1.0
121
0.0
131
0.0
112
0.0
122
1.0
132
0.0
 79
     0
146
0.0
  0
ENDTAB
  0
TABLE
  2
LTYPE
  5
5
330
0
100
AcDbSymbolTable
 70
     6
  0
LTYPE
  5
14
330
5
100
AcDbSymbolTableRecord
100
AcDbLinetypeTableRecord
  2
ByBlock
 70
     0
  3

 72
    65
 73
     0
 40
0.0
  0
LTYPE
  5
15
330
5
100
AcDbSymbolTableRecord
100
AcDbLinetypeTableRecord
  2
ByLayer
 70
     0
  3

 72
    65
 73
     0
 40
0.0
  0
LTYPE
  5
16
330
5
100
AcDbSymbolTableRecord
100
AcDbLinetypeTableRecord
  2
Continuous
 70
     0
  3
Solid line
 72
    65
 73
     0
 40
0.0
  0
LTYPE
  5
6E
330
5
100
AcDbSymbolTableRecord
100
AcDbLinetypeTableRecord
  2
HIDDEN
 70
     0
  3
Hidden __ __ __ __ __ __ __ __ __ __ __ __ __ __
 72
    65
 73
     2
 40
1.905
 49
1.27
 74
     0
 49
-0.635
 74
     0
  0
LTYPE
  5
6F
330
5
100
AcDbSymbolTableRecord
100
AcDbLinetypeTableRecord
  2
PHANTOM
 70
     0
  3
Phantom ______  __  __  ______  __  __  ______
 72
    65
 73
     6
 40
12.7
 49
6.35
 74
     0
 49
-1.27
 74
     0
 49
1.27
 74
     0
 49
-1.27
 74
     0
 49
1.27
 74
     0
 49
-1.27
 74
     0
  0
LTYPE
  5
70
330
5
100
AcDbSymbolTableRecord
100
AcDbLinetypeTableRecord
  2
CENTER
 70
     0
  3
Center ____ _ ____ _ ____ _ ____ _ ____ _ ____
 72
    65
 73
     4
 40
10.16
 49
6.35
 74
     0
 49
-1.27
 74
     0
 49
1.27
 74
     0
 49
-1.27
 74
     0
  0
LTYPE
  5
71
330
5
100
AcDbSymbolTableRecord
100
AcDbLinetypeTableRecord
  2
CENTERX2
 70
     0
  3
Center (2x) ________  __  ________  __  _____
 72
    65
 73
     4
 40
20.32
 49
12.7
 74
     0
 49
-2.54
 74
     0
 49
2.54
 74
     0
 49
-2.54
 74
     0
  0
LTYPE
  5
72
330
5
100
AcDbSymbolTableRecord
100
AcDbLinetypeTableRecord
  2
DOT2
 70
     0
  3
Dot (.5x) ........................................
 72
    65
 73
     2
 40
0.635
 49
0.0
 74
     0
 49
-0.635
 74
     0
  0
ENDTAB
  0
TABLE
  2
LAYER
  5
2
330
0
100
AcDbSymbolTable
 70
     1
  0
LAYER
  5
10
330
2
100
AcDbSymbolTableRecord
100
AcDbLayerTableRecord
  2
0
 70
     0
 62
     7
  6
Continuous
370
    -3
390
F
  0
ENDTAB
  0
TABLE
  2
STYLE
  5
3
330
0
100
AcDbSymbolTable
 70
     4
  0
STYLE
  5
11
330
3
100
AcDbSymbolTableRecord
100
AcDbTextStyleTableRecord
  2
Standard
 70
     0
 40
0.0
 41
1.0
 50
0.0
 71
     0
 42
3.5277777778
  3
txt
  4

  0
STYLE
  5
F4
330
3
100
AcDbSymbolTableRecord
100
AcDbTextStyleTableRecord
  2
SLDTEXTSTYLE0
 70
     0
 40
0.0
 41
0.5675
 50
0.0
 71
     0
 42
3.5277777778
  3
TXT
  4

  0
STYLE
  5
F6
330
3
100
AcDbSymbolTableRecord
100
AcDbTextStyleTableRecord
  2
SLDTEXTSTYLE1
 70
     0
 40
0.0
 41
0.5721875
 50
0.0
 71
     0
 42
3.5277777778
  3
TXT
  4

  0
STYLE
  5
FB
330
3
100
AcDbSymbolTableRecord
100
AcDbTextStyleTableRecord
  2
SLDTEXTSTYLE2
 70
     0
 40
0.0
 41
0.605
 50
0.0
 71
     0
 42
3.5277777778
  3
TXT
  4

  0
ENDTAB
  0
TABLE
  2
VIEW
  5
6
330
0
100
AcDbSymbolTable
 70
     0
  0
ENDTAB
  0
TABLE
  2
UCS
  5
7
330
0
100
AcDbSymbolTable
 70
     0
  0
ENDTAB
  0
TABLE
  2
APPID
  5
9
330
0
100
AcDbSymbolTable
 70
     1
  0
APPID
  5
12
330
9
100
AcDbSymbolTableRecord
100
AcDbRegAppTableRecord
  2
ACAD
 70
     0
  0
ENDTAB
  0
TABLE
  2
DIMSTYLE
  5
A
330
0
100
AcDbSymbolTable
 70
     1
100
AcDbDimStyleTable
  0
DIMSTYLE
105
27
330
A
100
AcDbSymbolTableRecord
100
AcDbDimStyleTableRecord
  2
ISO-25
 70
     0
 41
2.5
 42
0.625
 43
3.75
 44
1.25
 73
     0
 74
     0
 77
     1
 78
     8
140
2.5
141
2.5
143
0.0393700787
147
0.625
171
     3
172
     1
178
     0
271
     2
272
     2
274
     3
278
    44
283
     0
284
     8
340
11
  0
ENDTAB
  0
TABLE
  2
BLOCK_RECORD
  5
1
330
0
100
AcDbSymbolTable
 70
     8
  0
BLOCK_RECORD
  5
1F
330
1
100
AcDbSymbolTableRecord
100
AcDbBlockTableRecord
  2
*Model_Space
340
22
  0
BLOCK_RECORD
  5
1B
330
1
100
AcDbSymbolTableRecord
100
AcDbBlockTableRecord
  2
*Paper_Space
340
1E
  0
BLOCK_RECORD
  5
23
330
1
100
AcDbSymbolTableRecord
100
AcDbBlockTableRecord
  2
*Paper_Space0
340
26
  0
BLOCK_RECORD
  5
F8
330
1
100
AcDbSymbolTableRecord
100
AcDbBlockTableRecord
  2
SW_NOTE_0
340
0
102
{BLKREFS
331
FE
102
}
  0
BLOCK_RECORD
  5
FF
330
1
100
AcDbSymbolTableRecord
100
AcDbBlockTableRecord
  2
SW_CENTERMARKSYMBOL_0
340
0
102
{BLKREFS
331
10A
102
}
  0
BLOCK_RECORD
  5
10B
330
1
100
AcDbSymbolTableRecord
100
AcDbBlockTableRecord
  2
SW_CENTERMARKSYMBOL_1
340
0
102
{BLKREFS
331
116
102
}
  0
BLOCK_RECORD
  5
117
330
1
100
AcDbSymbolTableRecord
100
AcDbBlockTableRecord
  2
SW_CENTERMARKSYMBOL_2
340
0
102
{BLKREFS
331
122
102
}
  0
BLOCK_RECORD
  5
123
330
1
100
AcDbSymbolTableRecord
100
AcDbBlockTableRecord
  2
SW_CENTERMARKSYMBOL_3
340
0
102
{BLKREFS
331
12E
102
}
  0
BLOCK_RECORD
  5
12F
330
1
100
AcDbSymbolTableRecord
100
AcDbBlockTableRecord
  2
SW_CENTERMARKSYMBOL_4
340
0
102
{BLKREFS
331
13A
102
}
  0
BLOCK_RECORD
  5
13B
330
1
100
AcDbSymbolTableRecord
100
AcDbBlockTableRecord
  2
SW_CENTERMARKSYMBOL_5
340
0
102
{BLKREFS
331
146
102
}
  0
ENDTAB
  0
ENDSEC
  0
SECTION
  2
BLOCKS
  0
BLOCK
  5
20
330
1F
100
AcDbEntity
  8
0
100
AcDbBlockBegin
  2
*Model_Space
 70
     0
 10
0.0
 20
0.0
 30
0.0
  3
*Model_Space
  1

  0
ENDBLK
  5
21
330
1F
100
AcDbEntity
  8
0
100
AcDbBlockEnd
  0
BLOCK
  5
1C
330
1B
100
AcDbEntity
 67
     1
  8
0
100
AcDbBlockBegin
  2
*Paper_Space
 70
     0
 10
0.0
 20
0.0
 30
0.0
  3
*Paper_Space
  1

  0
ENDBLK
  5
1D
330
1B
100
AcDbEntity
 67
     1
  8
0
100
AcDbBlockEnd
  0
BLOCK
  5
24
330
23
100
AcDbEntity
  8
0
100
AcDbBlockBegin
  2
*Paper_Space0
 70
     0
 10
0.0
 20
0.0
 30
0.0
  3
*Paper_Space0
  1

  0
ENDBLK
  5
25
330
23
100
AcDbEntity
  8
0
100
AcDbBlockEnd
  0
BLOCK
  5
F9
330
F8
100
AcDbEntity
  8
0
100
AcDbBlockBegin
  2
SW_NOTE_0
 70
     0
 10
0.0
 20
0.0
 30
0.0
  3
SW_NOTE_0
  1

  0
MTEXT
  5
FC
330
F8
100
AcDbEntity
  8
0
  6
Continuous
 62
     0
370
     0
100
AcDbMText
 10
0.0
 20
6.8213167896
 30
0.0
 40
5.2916666667
 41
0.0
 71
     1
 72
     1
  1
DKP SAC
  7
SLDTEXTSTYLE2
 73
     1
 44
1.0
  0
MTEXT
  5
FD
330
F8
100
AcDbEntity
  8
0
  6
Continuous
 62
     0
370
     0
100
AcDbMText
 10
0.0
 20
-1.2342388446
 30
0.0
 40
5.2916666667
 41
0.0
 71
     1
 72
     1
  1
6mm
  7
SLDTEXTSTYLE2
 73
     1
 44
1.0
  0
ENDBLK
  5
FA
330
F8
100
AcDbEntity
  8
0
100
AcDbBlockEnd
  0
BLOCK
  5
100
330
FF
100
AcDbEntity
  8
0
100
AcDbBlockBegin
  2
SW_CENTERMARKSYMBOL_0
 70
     0
 10
0.0
 20
0.0
 30
0.0
  3
SW_CENTERMARKSYMBOL_0
  1

  0
LINE
  5
102
330
FF
100
AcDbEntity
  8
0
  6
Continuous
 62
     0
370
    18
100
AcDbLine
 10
0.0
 20
0.0
 30
0.0
 11
-2.5
 21
0.0
 31
0.0
  0
LINE
  5
103
330
FF
100
AcDbEntity
  8
0
  6
Continuous
 62
     0
370
    18
100
AcDbLine
 10
0.0
 20
0.0
 30
0.0
 11
0.0
 21
-2.5
 31
0.0
  0
LINE
  5
104
330
FF
100
AcDbEntity
  8
0
  6
Continuous
 62
     0
370
    18
100
AcDbLine
 10
0.0
 20
0.0
 30
0.0
 11
2.5
 21
0.0
 31
0.0
  0
LINE
  5
105
330
FF
100
AcDbEntity
  8
0
  6
Continuous
 62
     0
370
    18
100
AcDbLine
 10
0.0
 20
0.0
 30
0.0
 11
0.0
 21
2.5
 31
0.0
  0
LINE
  5
106
330
FF
100
AcDbEntity
  8
0
  6
Continuous
 62
     0
370
    18
100
AcDbLine
 10
-5.0
 20
0.0
 30
0.0
 11
-5.75
 21
0.0
 31
0.0
  0
LINE
  5
107
330
FF
100
AcDbEntity
  8
0
  6
Continuous
 62
     0
370
    18
100
AcDbLine
 10
0.0
 20
-5.0
 30
0.0
 11
0.0
 21
-5.75
 31
0.0
  0
LINE
  5
108
330
FF
100
AcDbEntity
  8
0
  6
Continuous
 62
     0
370
    18
100
AcDbLine
 10
5.0
 20
0.0
 30
0.0
 11
5.75
 21
0.0
 31
0.0
  0
LINE
  5
109
330
FF
100
AcDbEntity
  8
0
  6
Continuous
 62
     0
370
    18
100
AcDbLine
 10
0.0
 20
5.0
 30
0.0
 11
0.0
 21
5.75
 31
0.0
  0
ENDBLK
  5
101
330
FF
100
AcDbEntity
  8
0
100
AcDbBlockEnd
  0
BLOCK
  5
10C
330
10B
100
AcDbEntity
  8
0
100
AcDbBlockBegin
  2
SW_CENTERMARKSYMBOL_1
 70
     0
 10
0.0
 20
0.0
 30
0.0
  3
SW_CENTERMARKSYMBOL_1
  1

  0
LINE
  5
10E
330
10B
100
AcDbEntity
  8
0
  6
Continuous
 62
     0
370
    18
100
AcDbLine
 10
0.0
 20
0.0
 30
0.0
 11
-2.5
 21
0.0
 31
0.0
  0
LINE
  5
10F
330
10B
100
AcDbEntity
  8
0
  6
Continuous
 62
     0
370
    18
100
AcDbLine
 10
0.0
 20
0.0
 30
0.0
 11
0.0
 21
-2.5
 31
0.0
  0
LINE
  5
110
330
10B
100
AcDbEntity
  8
0
  6
Continuous
 62
     0
370
    18
100
AcDbLine
 10
0.0
 20
0.0
 30
0.0
 11
2.5
 21
0.0
 31
0.0
  0
LINE
  5
111
330
10B
100
AcDbEntity
  8
0
  6
Continuous
 62
     0
370
    18
100
AcDbLine
 10
0.0
 20
0.0
 30
0.0
 11
0.0
 21
2.5
 31
0.0
  0
LINE
  5
112
330
10B
100
AcDbEntity
  8
0
  6
Continuous
 62
     0
370
    18
100
AcDbLine
 10
-5.0
 20
0.0
 30
0.0
 11
-5.75
 21
0.0
 31
0.0
  0
LINE
  5
113
330
10B
100
AcDbEntity
  8
0
  6
Continuous
 62
     0
370
    18
100
AcDbLine
 10
0.0
 20
-5.0
 30
0.0
 11
0.0
 21
-5.75
 31
0.0
  0
LINE
  5
114
330
10B
100
AcDbEntity
  8
0
  6
Continuous
 62
     0
370
    18
100
AcDbLine
 10
5.0
 20
0.0
 30
0.0
 11
5.75
 21
0.0
 31
0.0
  0
LINE
  5
115
330
10B
100
AcDbEntity
  8
0
  6
Continuous
 62
     0
370
    18
100
AcDbLine
 10
0.0
 20
5.0
 30
0.0
 11
0.0
 21
5.75
 31
0.0
  0
ENDBLK
  5
10D
330
10B
100
AcDbEntity
  8
0
100
AcDbBlockEnd
  0
BLOCK
  5
118
330
117
100
AcDbEntity
  8
0
100
AcDbBlockBegin
  2
SW_CENTERMARKSYMBOL_2
 70
     0
 10
0.0
 20
0.0
 30
0.0
  3
SW_CENTERMARKSYMBOL_2
  1

  0
LINE
  5
11A
330
117
100
AcDbEntity
  8
0
  6
Continuous
 62
     0
370
    18
100
AcDbLine
 10
0.0
 20
0.0
 30
0.0
 11
-2.5
 21
0.0
 31
0.0
  0
LINE
  5
11B
330
117
100
AcDbEntity
  8
0
  6
Continuous
 62
     0
370
    18
100
AcDbLine
 10
0.0
 20
0.0
 30
0.0
 11
0.0
 21
-2.5
 31
0.0
  0
LINE
  5
11C
330
117
100
AcDbEntity
  8
0
  6
Continuous
 62
     0
370
    18
100
AcDbLine
 10
0.0
 20
0.0
 30
0.0
 11
2.5
 21
0.0
 31
0.0
  0
LINE
  5
11D
330
117
100
AcDbEntity
  8
0
  6
Continuous
 62
     0
370
    18
100
AcDbLine
 10
0.0
 20
0.0
 30
0.0
 11
0.0
 21
2.5
 31
0.0
  0
LINE
  5
11E
330
117
100
AcDbEntity
  8
0
  6
Continuous
 62
     0
370
    18
100
AcDbLine
 10
-5.0
 20
0.0
 30
0.0
 11
-6.75
 21
0.0
 31
0.0
  0
LINE
  5
11F
330
117
100
AcDbEntity
  8
0
  6
Continuous
 62
     0
370
    18
100
AcDbLine
 10
0.0
 20
-5.0
 30
0.0
 11
0.0
 21
-6.75
 31
0.0
  0
LINE
  5
120
330
117
100
AcDbEntity
  8
0
  6
Continuous
 62
     0
370
    18
100
AcDbLine
 10
5.0
 20
0.0
 30
0.0
 11
6.75
 21
0.0
 31
0.0
  0
LINE
  5
121
330
117
100
AcDbEntity
  8
0
  6
Continuous
 62
     0
370
    18
100
AcDbLine
 10
0.0
 20
5.0
 30
0.0
 11
0.0
 21
6.75
 31
0.0
  0
ENDBLK
  5
119
330
117
100
AcDbEntity
  8
0
100
AcDbBlockEnd
  0
BLOCK
  5
124
330
123
100
AcDbEntity
  8
0
100
AcDbBlockBegin
  2
SW_CENTERMARKSYMBOL_3
 70
     0
 10
0.0
 20
0.0
 30
0.0
  3
SW_CENTERMARKSYMBOL_3
  1

  0
LINE
  5
126
330
123
100
AcDbEntity
  8
0
  6
Continuous
 62
     0
370
    18
100
AcDbLine
 10
0.0
 20
0.0
 30
0.0
 11
-2.5
 21
0.0
 31
0.0
  0
LINE
  5
127
330
123
100
AcDbEntity
  8
0
  6
Continuous
 62
     0
370
    18
100
AcDbLine
 10
0.0
 20
0.0
 30
0.0
 11
0.0
 21
-2.5
 31
0.0
  0
LINE
  5
128
330
123
100
AcDbEntity
  8
0
  6
Continuous
 62
     0
370
    18
100
AcDbLine
 10
0.0
 20
0.0
 30
0.0
 11
2.5
 21
0.0
 31
0.0
  0
LINE
  5
129
330
123
100
AcDbEntity
  8
0
  6
Continuous
 62
     0
370
    18
100
AcDbLine
 10
0.0
 20
0.0
 30
0.0
 11
0.0
 21
2.5
 31
0.0
  0
LINE
  5
12A
330
123
100
AcDbEntity
  8
0
  6
Continuous
 62
     0
370
    18
100
AcDbLine
 10
-5.0
 20
0.0
 30
0.0
 11
-6.75
 21
0.0
 31
0.0
  0
LINE
  5
12B
330
123
100
AcDbEntity
  8
0
  6
Continuous
 62
     0
370
    18
100
AcDbLine
 10
0.0
 20
-5.0
 30
0.0
 11
0.0
 21
-6.75
 31
0.0
  0
LINE
  5
12C
330
123
100
AcDbEntity
  8
0
  6
Continuous
 62
     0
370
    18
100
AcDbLine
 10
5.0
 20
0.0
 30
0.0
 11
6.75
 21
0.0
 31
0.0
  0
LINE
  5
12D
330
123
100
AcDbEntity
  8
0
  6
Continuous
 62
     0
370
    18
100
AcDbLine
 10
0.0
 20
5.0
 30
0.0
 11
0.0
 21
6.75
 31
0.0
  0
ENDBLK
  5
125
330
123
100
AcDbEntity
  8
0
100
AcDbBlockEnd
  0
BLOCK
  5
130
330
12F
100
AcDbEntity
  8
0
100
AcDbBlockBegin
  2
SW_CENTERMARKSYMBOL_4
 70
     0
 10
0.0
 20
0.0
 30
0.0
  3
SW_CENTERMARKSYMBOL_4
  1

  0
LINE
  5
132
330
12F
100
AcDbEntity
  8
0
  6
Continuous
 62
     0
370
    18
100
AcDbLine
 10
0.0
 20
0.0
 30
0.0
 11
-2.5
 21
0.0
 31
0.0
  0
LINE
  5
133
330
12F
100
AcDbEntity
  8
0
  6
Continuous
 62
     0
370
    18
100
AcDbLine
 10
0.0
 20
0.0
 30
0.0
 11
0.0
 21
-2.5
 31
0.0
  0
LINE
  5
134
330
12F
100
AcDbEntity
  8
0
  6
Continuous
 62
     0
370
    18
100
AcDbLine
 10
0.0
 20
0.0
 30
0.0
 11
2.5
 21
0.0
 31
0.0
  0
LINE
  5
135
330
12F
100
AcDbEntity
  8
0
  6
Continuous
 62
     0
370
    18
100
AcDbLine
 10
0.0
 20
0.0
 30
0.0
 11
0.0
 21
2.5
 31
0.0
  0
LINE
  5
136
330
12F
100
AcDbEntity
  8
0
  6
Continuous
 62
     0
370
    18
100
AcDbLine
 10
-5.0
 20
0.0
 30
0.0
 11
-6.75
 21
0.0
 31
0.0
  0
LINE
  5
137
330
12F
100
AcDbEntity
  8
0
  6
Continuous
 62
     0
370
    18
100
AcDbLine
 10
0.0
 20
-5.0
 30
0.0
 11
0.0
 21
-6.75
 31
0.0
  0
LINE
  5
138
330
12F
100
AcDbEntity
  8
0
  6
Continuous
 62
     0
370
    18
100
AcDbLine
 10
5.0
 20
0.0
 30
0.0
 11
6.75
 21
0.0
 31
0.0
  0
LINE
  5
139
330
12F
100
AcDbEntity
  8
0
  6
Continuous
 62
     0
370
    18
100
AcDbLine
 10
0.0
 20
5.0
 30
0.0
 11
0.0
 21
6.75
 31
0.0
  0
ENDBLK
  5
131
330
12F
100
AcDbEntity
  8
0
100
AcDbBlockEnd
  0
BLOCK
  5
13C
330
13B
100
AcDbEntity
  8
0
100
AcDbBlockBegin
  2
SW_CENTERMARKSYMBOL_5
 70
     0
 10
0.0
 20
0.0
 30
0.0
  3
SW_CENTERMARKSYMBOL_5
  1

  0
LINE
  5
13E
330
13B
100
AcDbEntity
  8
0
  6
Continuous
 62
     0
370
    18
100
AcDbLine
 10
0.0
 20
0.0
 30
0.0
 11
-2.5
 21
0.0
 31
0.0
  0
LINE
  5
13F
330
13B
100
AcDbEntity
  8
0
  6
Continuous
 62
     0
370
    18
100
AcDbLine
 10
0.0
 20
0.0
 30
0.0
 11
0.0
 21
-2.5
 31
0.0
  0
LINE
  5
140
330
13B
100
AcDbEntity
  8
0
  6
Continuous
 62
     0
370
    18
100
AcDbLine
 10
0.0
 20
0.0
 30
0.0
 11
2.5
 21
0.0
 31
0.0
  0
LINE
  5
141
330
13B
100
AcDbEntity
  8
0
  6
Continuous
 62
     0
370
    18
100
AcDbLine
 10
0.0
 20
0.0
 30
0.0
 11
0.0
 21
2.5
 31
0.0
  0
LINE
  5
142
330
13B
100
AcDbEntity
  8
0
  6
Continuous
 62
     0
370
    18
100
AcDbLine
 10
-5.0
 20
0.0
 30
0.0
 11
-6.75
 21
0.0
 31
0.0
  0
LINE
  5
143
330
13B
100
AcDbEntity
  8
0
  6
Continuous
 62
     0
370
    18
100
AcDbLine
 10
0.0
 20
-5.0
 30
0.0
 11
0.0
 21
-6.75
 31
0.0
  0
LINE
  5
144
330
13B
100
AcDbEntity
  8
0
  6
Continuous
 62
     0
370
    18
100
AcDbLine
 10
5.0
 20
0.0
 30
0.0
 11
6.75
 21
0.0
 31
0.0
  0
LINE
  5
145
330
13B
100
AcDbEntity
  8
0
  6
Continuous
 62
     0
370
    18
100
AcDbLine
 10
0.0
 20
5.0
 30
0.0
 11
0.0
 21
6.75
 31
0.0
  0
ENDBLK
  5
13D
330
13B
100
AcDbEntity
  8
0
100
AcDbBlockEnd
  0
ENDSEC
  0
SECTION
  2
ENTITIES
  0
LINE
  5
73
330
1F
100
AcDbEntity
  8
0
  6
Continuous
 62
     7
370
    35
100
AcDbLine
 10
-106.8678747177
 20
26.5245576617
 30
0.0
 11
-106.8678747177
 21
21.6253127903
 31
0.0
  0
LINE
  5
74
330
1F
100
AcDbEntity
  8
0
  6
Continuous
 62
     7
370
    35
100
AcDbLine
 10
-80.0766284533
 20
41.9908149216
 30
0.0
 11
-80.0766284533
 21
37.0915700502
 31
0.0
  0
LINE
  5
75
330
1F
100
AcDbEntity
  8
0
  6
Continuous
 62
     7
370
    35
100
AcDbLine
 10
-2.1155660388
 20
-114.7334198929
 30
0.0
 11
-2.1155660388
 21
-109.8341750216
 31
0.0
  0
ARC
  5
76
330
1F
100
AcDbEntity
  8
0
  6
Continuous
 62
     7
370
    35
100
AcDbCircle
 10
-94.3730078554
 20
2.2757119992
 30
0.0
 40
13.73024879635258
100
AcDbArc
 50
2.3868561234
 51
57.6131440222
  0
LINE
  5
77
330
1F
100
AcDbEntity
  8
0
  6
Continuous
 62
     7
370
    35
100
AcDbLine
 10
-51.6632932535
 20
34.280434724
 30
0.0
 11
-87.0186323128
 21
13.8702319284
 31
0.0
  0
ARC
  5
78
330
1F
100
AcDbEntity
  8
0
  6
Continuous
 62
     7
370
    35
100
AcDbCircle
 10
-59.017668796
 20
22.6859147947
 30
0.0
 40
13.73024879635268
100
AcDbArc
 50
2.3868561234
 51
57.6131440222
  0
LINE
  5
79
330
1F
100
AcDbEntity
  8
0
  6
Continuous
 62
     7
370
    35
100
AcDbLine
 10
-45.2993322228
 20
23.2577309138
 30
0.0
 11
-80.6546712822
 21
2.8475281182
 31
0.0
  0
LINE
  5
7A
330
1F
100
AcDbEntity
  8
0
  6
Continuous
 62
     7
370
    35
100
AcDbLine
 10
-84.8973119693
 20
5.2967524537
 30
0.0
 11
-80.6546712822
 21
2.8475281182
 31
0.0
  0
ARC
  5
7B
330
1F
100
AcDbEntity
  8
0
  6
Continuous
 62
     7
370
    35
100
AcDbCircle
 10
-89.5029602734
 20
5.0871698969
 30
0.0
 40
4.610414422716315
100
AcDbArc
 50
2.6054784857
 51
57.39452166
  0
LINE
  5
7C
330
1F
100
AcDbEntity
  8
0
  6
Continuous
 62
     7
370
    35
100
AcDbLine
 10
-87.0186323128
 20
8.9709870571
 30
0.0
 11
-87.0186323128
 21
13.8702319284
 31
0.0
  0
LINE
  5
7D
330
1F
100
AcDbEntity
  8
0
  6
Continuous
 62
     7
370
    35
100
AcDbLine
 10
-45.2993322228
 20
-81.2594930076
 30
0.0
 11
-80.6546712822
 21
-101.6696958031
 31
0.0
  0
LINE
  5
7E
330
1F
100
AcDbEntity
  8
0
  6
Continuous
 62
     7
370
    35
100
AcDbLine
 10
-80.6546712822
 20
-101.6696958031
 30
0.0
 11
-80.6546712822
 21
2.8475281182
 31
0.0
  0
LINE
  5
7F
330
1F
100
AcDbEntity
  8
0
  6
Continuous
 62
     7
370
    35
100
AcDbLine
 10
-45.2993322228
 20
23.2577309138
 30
0.0
 11
-45.2993322228
 21
-81.2594930076
 31
0.0
  0
LINE
  5
80
330
1F
100
AcDbEntity
  8
0
  6
Continuous
 62
     7
370
    35
100
AcDbLine
 10
-80.6546712822
 20
-101.6696958031
 30
0.0
 11
-84.8973119693
 21
-99.2204714677
 31
0.0
  0
LINE
  5
81
330
1F
100
AcDbEntity
  8
0
  6
Continuous
 62
     7
370
    35
100
AcDbLine
 10
-84.8973119693
 20
-99.2204714677
 30
0.0
 11
-84.8973119693
 21
5.2967524537
 31
0.0
  0
LWPOLYLINE
  5
82
330
1F
100
AcDbEntity
  8
0
  6
Continuous
 62
     7
370
    35
100
AcDbPolyline
 90
       27
 70
   128
 43
0.0
 10
-93.2058166482
 20
27.2389147595
 10
-92.7226245521
 20
26.8828730579
 10
-92.4010708709
 20
26.470422364
 10
-92.2598431358
 20
26.0255328129
 10
-92.3071489895
 20
25.5740597681
 10
-92.5402391876
 20
25.142241202
 10
-92.9455673751
 20
24.7551728401
 10
-93.499577351
 20
24.4353496886
 10
-94.1700720693
 20
24.2013587066
 10
-94.9180848142
 20
24.0667985994
 10
-95.7001438037
 20
24.0394895114
 10
-96.4707986121
 20
24.1210185475
 10
-97.1852615831
 20
24.3066475364
 10
-97.8020107259
 20
24.5855883961
 10
-98.2852028221
 20
24.9416300976
 10
-98.6067565032
 20
25.3540807916
 10
-98.7479842383
 20
25.7989703427
 10
-98.7006783846
 20
26.2504433875
 10
-98.4675881865
 20
26.6822619536
 10
-98.0622599991
 20
27.0693303155
 10
-97.5082500231
 20
27.389153467
 10
-96.8377553048
 20
27.623144449
 10
-96.08974256
 20
27.7577045561
 10
-95.3076835704
 20
27.7850136441
 10
-94.537028762
 20
27.7034846081
 10
-93.822565791
 20
27.5178556192
 10
-93.2058166482
 20
27.2389147595
  0
LWPOLYLINE
  5
83
330
1F
100
AcDbEntity
  8
0
  6
Continuous
 62
     7
370
    35
100
AcDbPolyline
 90
       27
 70
   128
 43
0.0
 10
-70.2248462597
 20
40.5055465766
 10
-69.7416541635
 20
40.1495048751
 10
-69.4201004824
 20
39.7370541811
 10
-69.2788727473
 20
39.29216463
 10
-69.3261786009
 20
38.8406915852
 10
-69.559268799
 20
38.4088730191
 10
-69.9645969865
 20
38.0218046572
 10
-70.5186069625
 20
37.7019815057
 10
-71.1891016808
 20
37.4679905237
 10
-71.9371144256
 20
37.3334304166
 10
-72.7191734151
 20
37.3061213285
 10
-73.4898282235
 20
37.3876503646
 10
-74.2042911946
 20
37.5732793535
 10
-74.8210403374
 20
37.8522202132
 10
-75.3042324335
 20
38.2082619148
 10
-75.6257861147
 20
38.6207126087
 10
-75.7670138497
 20
39.0656021598
 10
-75.7197079961
 20
39.5170752046
 10
-75.486617798
 20
39.9488937707
 10
-75.0812896105
 20
40.3359621326
 10
-74.5272796346
 20
40.6557852841
 10
-73.8567849162
 20
40.8897762661
 10
-73.1087721714
 20
41.0243363732
 10
-72.3267131819
 20
41.0516454613
 10
-71.5560583735
 20
40.9701164252
 10
-70.8415954024
 20
40.7844874363
 10
-70.2248462597
 20
40.5055465766
  0
ARC
  5
84
330
1F
100
AcDbEntity
  8
0
  6
Continuous
 62
     7
370
    35
100
AcDbCircle
 10
-73.5836034703
 20
38.0701847529
 30
0.0
 40
7.685109539558876
100
AcDbArc
 50
62.6096722366
 51
117.3903277634
  0
LINE
  5
85
330
1F
100
AcDbEntity
  8
0
  6
Continuous
 62
     7
370
    35
100
AcDbLine
 10
-51.6632932535
 20
34.280434724
 30
0.0
 11
-70.0480695644
 21
44.8937401777
 31
0.0
  0
LINE
  5
86
330
1F
100
AcDbEntity
  8
0
  6
Continuous
 62
     7
370
    35
100
AcDbLine
 10
-105.4034086237
 20
24.4835373821
 30
0.0
 11
-87.0186323128
 21
13.8702319284
 31
0.0
  0
ARC
  5
87
330
1F
100
AcDbEntity
  8
0
  6
Continuous
 62
     7
370
    35
100
AcDbCircle
 10
-104.6287734897
 20
26.5245576617
 30
0.0
 40
2.183076584171352
100
AcDbArc
 50
110.7834207995
 51
249.2165792005
  0
LINE
  5
88
330
1F
100
AcDbEntity
  8
0
  6
Continuous
 62
     7
370
    35
100
AcDbLine
 10
-103.9103836406
 20
29.4274829178
 30
0.0
 11
-105.4034086237
 21
28.5655779412
 31
0.0
  0
ARC
  5
89
330
1F
100
AcDbEntity
  8
0
  6
Continuous
 62
     7
370
    35
100
AcDbCircle
 10
-100.3927163362
 20
22.6455622073
 30
0.0
 40
7.639923545900717
100
AcDbArc
 50
81.1331119381
 51
117.4150043048
  0
LWPOLYLINE
  5
8A
330
1F
100
AcDbEntity
  8
0
  6
Continuous
 62
     7
370
    35
100
AcDbPolyline
 90
       19
 70
   128
 43
0.0
 10
-79.9402677947
 20
41.3213074152
 10
-79.6205239226
 20
40.2920057214
 10
-79.5043673193
 20
39.2484364476
 10
-79.5932868364
 20
38.2039756692
 10
-79.886142737
 20
37.1720108884
 10
-80.3791813052
 20
36.1657694386
 10
-81.0660829597
 20
35.1981489413
 10
-81.9380432553
 20
34.2815519892
 10
-82.9838857356
 20
33.4277271746
 10
-84.1902051881
 20
32.6476185003
 10
-85.5415394673
 20
31.9512251036
 10
-87.0205676827
 20
31.3474730909
 10
-88.6083322114
 20
30.8441011268
 10
-90.2844816894
 20
30.4475612423
 10
-92.0275318683
 20
30.1629361352
 10
-93.8151409914
 20
29.9938740224
 10
-95.6243961628
 20
29.9425418779
 10
-97.4321070354
 20
30.0095976576
 10
-99.2151030567
 20
30.194181866
  0
ARC
  5
8B
330
1F
100
AcDbEntity
  8
0
  6
Continuous
 62
     7
370
    35
100
AcDbCircle
 10
-77.8134920163
 20
41.9598657066
 30
0.0
 40
2.2205701752125
100
AcDbArc
 50
111.0798720278
 51
196.7122329256
  0
LINE
  5
8C
330
1F
100
AcDbEntity
  8
0
  6
Continuous
 62
     7
370
    35
100
AcDbLine
 10
-77.1191373762
 20
44.8937401777
 30
0.0
 11
-78.6121623593
 21
44.0318352011
 31
0.0
  0
LINE
  5
8D
330
1F
100
AcDbEntity
  8
0
  6
Continuous
 62
     7
370
    35
100
AcDbLine
 10
-105.4034086237
 20
19.5842925108
 30
0.0
 11
-87.0186323128
 21
8.9709870571
 31
0.0
  0
LINE
  5
8E
330
1F
100
AcDbEntity
  8
0
  6
Continuous
 62
     7
370
    35
100
AcDbLine
 10
-105.4034086237
 20
24.4835373821
 30
0.0
 11
-105.4034086237
 21
19.5842925108
 31
0.0
  0
ARC
  5
8F
330
1F
100
AcDbEntity
  8
0
  6
Continuous
 62
     7
370
    35
100
AcDbCircle
 10
-104.3655894053
 20
21.8748446748
 30
0.0
 40
2.514696392468945
100
AcDbArc
 50
185.6947992512
 51
245.6253417064
  0
LINE
  5
90
330
1F
100
AcDbEntity
  8
0
  6
Continuous
 62
     7
370
    35
100
AcDbLine
 10
-79.9402677947
 20
41.3213074152
 30
0.0
 11
-79.9402677947
 21
37.0364593746
 31
0.0
  0
LINE
  5
91
330
1F
100
AcDbEntity
  8
0
  6
Continuous
 62
     7
370
    35
100
AcDbLine
 10
-31.8643033803
 20
-128.2033575376
 30
0.0
 11
-31.8643033803
 21
-133.1026024089
 31
0.0
  0
ARC
  5
92
330
1F
100
AcDbEntity
  8
0
  6
Continuous
 62
     7
370
    35
100
AcDbCircle
 10
-35.3998372862
 20
-126.2790469841
 30
0.0
 40
7.685109539558844
100
AcDbArc
 50
242.6096722366
 51
297.3903277634
  0
LINE
  5
93
330
1F
100
AcDbEntity
  8
0
  6
Continuous
 62
     7
370
    35
100
AcDbLine
 10
-38.9353711921
 20
-133.1026024089
 30
0.0
 11
-38.9353711921
 21
-128.2033575376
 31
0.0
  0
ARC
  5
94
330
1F
100
AcDbEntity
  8
0
  6
Continuous
 62
     7
370
    35
100
AcDbCircle
 10
-35.3998372862
 20
-121.3798021128
 30
0.0
 40
7.685109539558465
100
AcDbArc
 50
242.6096722366
 51
297.3903277634
  0
LINE
  5
95
330
1F
100
AcDbEntity
  8
0
  6
Continuous
 62
     7
370
    35
100
AcDbLine
 10
-78.5333509386
 20
-105.3439304065
 30
0.0
 11
-43.1780118793
 21
-84.933727611
 31
0.0
  0
LINE
  5
96
330
1F
100
AcDbEntity
  8
0
  6
Continuous
 62
     7
370
    35
100
AcDbLine
 10
-3.5800321328
 20
-107.793154742
 30
0.0
 11
-43.1780118793
 21
-84.933727611
 31
0.0
  0
ARC
  5
97
330
1F
100
AcDbEntity
  8
0
  6
Continuous
 62
     7
370
    35
100
AcDbCircle
 10
-4.3546672668
 20
-109.8341750216
 30
0.0
 40
2.183076584171354
100
AcDbArc
 50
290.7834207995
 51
69.2165792005
  0
LINE
  5
98
330
1F
100
AcDbEntity
  8
0
  6
Continuous
 62
     7
370
    35
100
AcDbLine
 10
-31.8643033803
 20
-128.2033575376
 30
0.0
 11
-3.5800321328
 21
-111.8751953011
 31
0.0
  0
LINE
  5
99
330
1F
100
AcDbEntity
  8
0
  6
Continuous
 62
     7
370
    35
100
AcDbLine
 10
-78.5333509386
 20
-105.3439304065
 30
0.0
 11
-38.9353711921
 21
-128.2033575376
 31
0.0
  0
LWPOLYLINE
  5
9A
330
1F
100
AcDbEntity
  8
0
  6
Continuous
 62
     7
370
    35
100
AcDbPolyline
 90
       30
 70
   128
 43
0.0
 10
-38.4050411063
 20
-123.8151639365
 10
-37.6887511228
 20
-124.1475488784
 10
-36.8654340724
 20
-124.3832714059
 10
-35.9735873451
 20
-124.5113093957
 10
-35.0549127027
 20
-124.5256759337
 10
-34.1523663505
 20
-124.4256992565
 10
-33.3081503528
 20
-124.2160541624
 10
-32.5617393114
 20
-123.9065434231
 10
-31.9480345769
 20
-123.5116394166
 10
-31.4957323007
 20
-123.0498074155
 10
-31.2259816346
 20
-122.5426421709
 10
-31.1513958198
 20
-122.0138581658
 10
-31.2754624061
 20
-121.4881807527
 10
-31.592380178
 20
-120.9901900231
 10
-32.0873304125
 20
-120.5431714702
 10
-32.7371697869
 20
-120.1680271845
 10
-33.5115125342
 20
-119.882298496
 10
-34.3741512482
 20
-119.6993457606
 10
-35.2847499013
 20
-119.6277236448
 10
-36.2007299127
 20
-119.6707811192
 10
-37.079261075
 20
-119.8265048641
 10
-37.8792642474
 20
-120.0876134103
 10
-38.5633321709
 20
-120.4418976123
 10
-39.0994785895
 20
-120.8727915347
 10
-39.4626338926
 20
-121.3601470565
 10
-39.6358173418
 20
-121.8811759753
 10
-39.6109310717
 20
-122.4115155577
 10
-39.3891387364
 20
-122.9263677144
 10
-38.9808110991
 20
-123.4016585308
 10
-38.4050411063
 20
-123.8151639365
  0
LWPOLYLINE
  5
9B
330
1F
100
AcDbEntity
  8
0
  6
Continuous
 62
     7
370
    35
100
AcDbPolyline
 90
       30
 70
   128
 43
0.0
 10
-59.6182445419
 20
-111.5690422592
 10
-58.9019545584
 20
-111.901427201
 10
-58.078637508
 20
-112.1371497286
 10
-57.1867907807
 20
-112.2651877183
 10
-56.2681161383
 20
-112.2795542563
 10
-55.3655697861
 20
-112.1795775791
 10
-54.5213537884
 20
-111.969932485
 10
-53.774942747
 20
-111.6604217457
 10
-53.1612380125
 20
-111.2655177393
 10
-52.7089357363
 20
-110.8036857382
 10
-52.4391850702
 20
-110.2965204935
 10
-52.3645992554
 20
-109.7677364885
 10
-52.4886658417
 20
-109.2420590754
 10
-52.8055836136
 20
-108.7440683458
 10
-53.3005338481
 20
-108.2970497928
 10
-53.9503732225
 20
-107.9219055072
 10
-54.7247159698
 20
-107.6361768187
 10
-55.5873546838
 20
-107.4532240833
 10
-56.4979533369
 20
-107.3816019675
 10
-57.4139333483
 20
-107.4246594418
 10
-58.2924645106
 20
-107.5803831867
 10
-59.092467683
 20
-107.8414917329
 10
-59.7765356065
 20
-108.195775935
 10
-60.312682025
 20
-108.6266698574
 10
-60.6758373282
 20
-109.1140253792
 10
-60.8490207774
 20
-109.6350542979
 10
-60.8241345073
 20
-110.1653938804
 10
-60.602342172
 20
-110.6802460371
 10
-60.1940145347
 20
-111.1555368535
 10
-59.6182445419
 20
-111.5690422592
  0
LWPOLYLINE
  5
9C
330
1F
100
AcDbEntity
  8
0
  6
Continuous
 62
     7
370
    35
100
AcDbPolyline
 90
       30
 70
   128
 43
0.0
 10
-17.1918376707
 20
-111.5690422592
 10
-16.4755476873
 20
-111.901427201
 10
-15.6522306368
 20
-112.1371497286
 10
-14.7603839095
 20
-112.2651877183
 10
-13.8417092671
 20
-112.2795542563
 10
-12.9391629149
 20
-112.1795775791
 10
-12.0949469172
 20
-111.969932485
 10
-11.3485358758
 20
-111.6604217457
 10
-10.7348311413
 20
-111.2655177393
 10
-10.2825288651
 20
-110.8036857382
 10
-10.012778199
 20
-110.2965204935
 10
-9.9381923842
 20
-109.7677364885
 10
-10.0622589705
 20
-109.2420590754
 10
-10.3791767424
 20
-108.7440683458
 10
-10.8741269769
 20
-108.2970497928
 10
-11.5239663513
 20
-107.9219055072
 10
-12.2983090986
 20
-107.6361768187
 10
-13.1609478126
 20
-107.4532240833
 10
-14.0715464657
 20
-107.3816019675
 10
-14.9875264771
 20
-107.4246594418
 10
-15.8660576394
 20
-107.5803831867
 10
-16.6660608118
 20
-107.8414917329
 10
-17.3501287353
 20
-108.195775935
 10
-17.8862751539
 20
-108.6266698574
 10
-18.249430457
 20
-109.1140253792
 10
-18.4226139062
 20
-109.6350542979
 10
-18.3977276361
 20
-110.1653938804
 10
-18.1759353008
 20
-110.6802460371
 10
-17.7676076635
 20
-111.1555368535
 10
-17.1918376707
 20
-111.5690422592
  0
LWPOLYLINE
  5
9D
330
1F
100
AcDbEntity
  8
0
  6
Continuous
 62
     7
370
    35
100
AcDbPolyline
 90
       30
 70
   128
 43
0.0
 10
-38.4050411063
 20
-99.3229205818
 10
-37.6887511228
 20
-99.6553055237
 10
-36.8654340724
 20
-99.8910280512
 10
-35.9735873451
 20
-100.019066041
 10
-35.0549127027
 20
-100.033432579
 10
-34.1523663505
 20
-99.9334559018
 10
-33.3081503528
 20
-99.7238108077
 10
-32.5617393114
 20
-99.4143000684
 10
-31.9480345769
 20
-99.0193960619
 10
-31.4957323007
 20
-98.5575640609
 10
-31.2259816346
 20
-98.0503988162
 10
-31.1513958198
 20
-97.5216148111
 10
-31.2754624061
 20
-96.995937398
 10
-31.592380178
 20
-96.4979466685
 10
-32.0873304125
 20
-96.0509281155
 10
-32.7371697869
 20
-95.6757838299
 10
-33.5115125342
 20
-95.3900551414
 10
-34.3741512482
 20
-95.2071024059
 10
-35.2847499013
 20
-95.1354802901
 10
-36.2007299127
 20
-95.1785377645
 10
-37.079261075
 20
-95.3342615094
 10
-37.8792642474
 20
-95.5953700556
 10
-38.5633321709
 20
-95.9496542576
 10
-39.0994785895
 20
-96.38054818
 10
-39.4626338926
 20
-96.8679037019
 10
-39.6358173418
 20
-97.3889326206
 10
-39.6109310717
 20
-97.919272203
 10
-39.3891387364
 20
-98.4341243598
 10
-38.9808110991
 20
-98.9094151761
 10
-38.4050411063
 20
-99.3229205818
  0
LINE
  5
9E
330
1F
100
AcDbEntity
  8
0
  6
Continuous
 62
     7
370
    35
100
AcDbLine
 10
-80.0489921175
 20
36.7885079712
 30
0.0
 11
-80.0766284533
 21
37.0915700502
 31
0.0
  0
LINE
  5
9F
330
1F
100
AcDbEntity
  8
0
  6
Continuous
 62
     7
370
    35
100
AcDbLine
 10
-3.5800321328
 20
-116.7744401724
 30
0.0
 11
-3.5800321328
 21
-111.8751953011
 31
0.0
  0
LINE
  5
A0
330
1F
100
AcDbEntity
  8
0
  6
Continuous
 62
     7
370
    35
100
AcDbLine
 10
-31.8643033803
 20
-133.1026024089
 30
0.0
 11
-3.5800321328
 21
-116.7744401724
 31
0.0
  0
LINE
  5
A1
330
1F
100
AcDbEntity
  8
0
  6
Continuous
 62
     7
370
    35
100
AcDbLine
 10
-78.5333509386
 20
-105.3439304065
 30
0.0
 11
-78.5333509386
 21
-110.2431752779
 31
0.0
  0
LINE
  5
A2
330
1F
100
AcDbEntity
  8
0
  6
Continuous
 62
     7
370
    35
100
AcDbLine
 10
-78.5333509386
 20
-110.2431752779
 30
0.0
 11
-38.9353711921
 21
-133.1026024089
 31
0.0
  0
LWPOLYLINE
  5
A3
330
1F
100
AcDbEntity
  8
0
  6
Continuous
 62
     7
370
    35
100
AcDbPolyline
 90
        3
 70
   128
 43
0.0
 10
-35.1618288064
 20
-124.5299191346
 10
-35.2847499013
 20
-124.5269685161
 10
-35.637845766
 20
-124.5299191346
  0
LWPOLYLINE
  5
A4
330
1F
100
AcDbEntity
  8
0
  6
Continuous
 62
     7
370
    35
100
AcDbPolyline
 90
        3
 70
   128
 43
0.0
 10
-13.9486253708
 20
-112.2837974572
 10
-14.0715464657
 20
-112.2808468388
 10
-14.4246423304
 20
-112.2837974572
  0
LWPOLYLINE
  5
A5
330
1F
100
AcDbEntity
  8
0
  6
Continuous
 62
     7
370
    35
100
AcDbPolyline
 90
        3
 70
   128
 43
0.0
 10
-56.375032242
 20
-112.2837974572
 10
-56.4979533369
 20
-112.2808468388
 10
-56.8510492016
 20
-112.2837974572
  0
ARC
  5
A6
330
1F
100
AcDbEntity
  8
0
  6
Continuous
 62
     7
370
    35
100
AcDbCircle
 10
-4.6178513512
 20
-114.4838880084
 30
0.0
 40
2.514696392468927
100
AcDbArc
 50
294.3746582936
 51
354.3052007488
  0
ARC
  5
A7
330
1F
100
AcDbEntity
  8
0
  6
Continuous
 62
     7
370
    35
100
AcDbCircle
 10
-71.1789753961
 20
-98.6486553486
 30
0.0
 40
13.73024879635263
100
AcDbArc
 50
182.3868561234
 51
237.6131440222
  0
ARC
  5
A8
330
1F
100
AcDbEntity
  8
0
  6
Continuous
 62
     7
370
    35
100
AcDbCircle
 10
-76.0490229781
 20
-101.4601132464
 30
0.0
 40
4.610414422716302
100
AcDbArc
 50
182.6054784857
 51
237.39452166
  0
ARC
  5
A9
330
1F
100
AcDbEntity
  8
0
  6
Continuous
 62
     7
370
    35
100
AcDbCircle
 10
-40.6936839187
 20
-81.0499104508
 30
0.0
 40
4.610414422716242
100
AcDbArc
 50
182.6054784857
 51
237.39452166
  0
LWPOLYLINE
  5
AA
330
1F
100
AcDbEntity
  8
0
  6
Continuous
 62
     7
370
    35
100
AcDbPolyline
 90
        3
 70
   128
 43
0.0
 10
-35.1618288064
 20
-100.0376757799
 10
-35.2847499013
 20
-100.0347251614
 10
-35.637845766
 20
-100.0376757799
  0
LINE
  5
AB
330
1F
100
AcDbEntity
  8
0
  6
HIDDEN
 62
     7
370
    18
100
AcDbLine
 10
-49.5419729099
 20
25.7069552493
 30
0.0
 11
-84.8973119693
 21
5.2967524537
 31
0.0
  0
LINE
  5
AC
330
1F
100
AcDbEntity
  8
0
  6
HIDDEN
 62
     7
370
    18
100
AcDbLine
 10
-87.0186323128
 20
8.9709870571
 30
0.0
 11
-51.6632932535
 21
29.3811898527
 31
0.0
  0
LWPOLYLINE
  5
AD
330
1F
100
AcDbEntity
  8
0
  6
HIDDEN
 62
     7
370
    18
100
AcDbPolyline
 90
       27
 70
   128
 43
0.0
 10
-93.2058166482
 20
22.3396698882
 10
-92.7226245521
 20
21.9836281866
 10
-92.4010708709
 20
21.5711774927
 10
-92.2598431358
 20
21.1262879415
 10
-92.3071489895
 20
20.6748148968
 10
-92.5402391876
 20
20.2429963307
 10
-92.9455673751
 20
19.8559279688
 10
-93.499577351
 20
19.5361048173
 10
-94.1700720693
 20
19.3021138353
 10
-94.9180848142
 20
19.1675537281
 10
-95.7001438037
 20
19.1402446401
 10
-96.4707986121
 20
19.2217736762
 10
-97.1852615831
 20
19.4074026651
 10
-97.8020107259
 20
19.6863435248
 10
-98.2852028221
 20
20.0423852263
 10
-98.6067565032
 20
20.4548359203
 10
-98.7479842383
 20
20.8997254714
 10
-98.7006783846
 20
21.3511985162
 10
-98.4675881865
 20
21.7830170823
 10
-98.0622599991
 20
22.1700854442
 10
-97.5082500231
 20
22.4899085956
 10
-96.8377553048
 20
22.7238995776
 10
-96.08974256
 20
22.8584596848
 10
-95.3076835704
 20
22.8857687728
 10
-94.537028762
 20
22.8042397368
 10
-93.822565791
 20
22.6186107479
 10
-93.2058166482
 20
22.3396698882
  0
LINE
  5
AE
330
1F
100
AcDbEntity
  8
0
  6
HIDDEN
 62
     7
370
    18
100
AcDbLine
 10
-105.4034086237
 20
24.4835373821
 30
0.0
 11
-105.4034086237
 21
28.5655779412
 31
0.0
  0
ARC
  5
AF
330
1F
100
AcDbEntity
  8
0
  6
HIDDEN
 62
     7
370
    18
100
AcDbCircle
 10
-104.3655894053
 20
21.3757809058
 30
0.0
 40
2.514696392468878
100
AcDbArc
 50
114.3746582936
 51
174.3052007488
  0
LINE
  5
B0
330
1F
100
AcDbEntity
  8
0
  6
HIDDEN
 62
     7
370
    18
100
AcDbLine
 10
-99.2151030567
 20
25.2949369947
 30
0.0
 11
-99.2151030567
 21
30.194181866
 31
0.0
  0
LINE
  5
B1
330
1F
100
AcDbEntity
  8
0
  6
HIDDEN
 62
     7
370
    18
100
AcDbLine
 10
-79.9402677947
 20
37.0364593746
 30
0.0
 11
-79.9402677947
 21
36.4220625439
 31
0.0
  0
LWPOLYLINE
  5
B2
330
1F
100
AcDbEntity
  8
0
  6
HIDDEN
 62
     7
370
    18
100
AcDbPolyline
 90
       19
 70
   128
 43
0.0
 10
-79.9402677947
 20
36.4220625439
 10
-79.6205239226
 20
35.3927608501
 10
-79.5043673193
 20
34.3491915763
 10
-79.5932868364
 20
33.3047307979
 10
-79.886142737
 20
32.2727660171
 10
-80.3791813052
 20
31.2665245673
 10
-81.0660829597
 20
30.29890407
 10
-81.9380432553
 20
29.3823071179
 10
-82.9838857356
 20
28.5284823033
 10
-84.1902051881
 20
27.748373629
 10
-85.5415394673
 20
27.0519802322
 10
-87.0205676827
 20
26.4482282196
 10
-88.6083322114
 20
25.9448562555
 10
-90.2844816894
 20
25.548316371
 10
-92.0275318683
 20
25.2636912639
 10
-93.8151409914
 20
25.0946291511
 10
-95.6243961628
 20
25.0432970066
 10
-97.4321070354
 20
25.1103527863
 10
-99.2151030567
 20
25.2949369947
  0
ARC
  5
B3
330
1F
100
AcDbEntity
  8
0
  6
HIDDEN
 62
     7
370
    18
100
AcDbCircle
 10
-100.3927163362
 20
17.746317336
 30
0.0
 40
7.639923545900994
100
AcDbArc
 50
81.1331119381
 51
117.4150043048
  0
LINE
  5
B4
330
1F
100
AcDbEntity
  8
0
  6
HIDDEN
 62
     7
370
    18
100
AcDbLine
 10
-103.9103836406
 20
29.4274829178
 30
0.0
 11
-103.9103836406
 21
24.5282380465
 31
0.0
  0
LINE
  5
B5
330
1F
100
AcDbEntity
  8
0
  6
HIDDEN
 62
     7
370
    18
100
AcDbLine
 10
-103.9103836406
 20
24.5282380465
 30
0.0
 11
-105.4034086237
 21
23.6663330699
 31
0.0
  0
ARC
  5
B6
330
1F
100
AcDbEntity
  8
0
  6
HIDDEN
 62
     7
370
    18
100
AcDbCircle
 10
-54.147621214
 20
25.4973726925
 30
0.0
 40
4.610414422716242
100
AcDbArc
 50
2.6054784857
 51
57.39452166
  0
LINE
  5
B7
330
1F
100
AcDbEntity
  8
0
  6
HIDDEN
 62
     7
370
    18
100
AcDbLine
 10
-49.5419729099
 20
25.7069552493
 30
0.0
 11
-45.2993322228
 21
23.2577309138
 31
0.0
  0
LINE
  5
B8
330
1F
100
AcDbEntity
  8
0
  6
HIDDEN
 62
     7
370
    18
100
AcDbLine
 10
-49.5419729099
 20
25.7069552493
 30
0.0
 11
-49.5419729099
 21
-78.8102686721
 31
0.0
  0
LINE
  5
B9
330
1F
100
AcDbEntity
  8
0
  6
HIDDEN
 62
     7
370
    18
100
AcDbLine
 10
-51.6632932535
 20
29.3811898527
 30
0.0
 11
-51.6632932535
 21
34.280434724
 31
0.0
  0
LINE
  5
BA
330
1F
100
AcDbEntity
  8
0
  6
HIDDEN
 62
     7
370
    18
100
AcDbLine
 10
-51.6632932535
 20
29.3811898527
 30
0.0
 11
-70.0480695644
 21
39.9944953064
 31
0.0
  0
LWPOLYLINE
  5
BB
330
1F
100
AcDbEntity
  8
0
  6
HIDDEN
 62
     7
370
    18
100
AcDbPolyline
 90
       27
 70
   128
 43
0.0
 10
-70.2248462597
 20
35.6063017053
 10
-69.7416541635
 20
35.2502600037
 10
-69.4201004824
 20
34.8378093098
 10
-69.2788727473
 20
34.3929197587
 10
-69.3261786009
 20
33.9414467139
 10
-69.559268799
 20
33.5096281478
 10
-69.9645969865
 20
33.1225597859
 10
-70.5186069625
 20
32.8027366344
 10
-71.1891016808
 20
32.5687456524
 10
-71.9371144256
 20
32.4341855453
 10
-72.7191734151
 20
32.4068764572
 10
-73.4898282235
 20
32.4884054933
 10
-74.2042911946
 20
32.6740344822
 10
-74.8210403374
 20
32.9529753419
 10
-75.3042324335
 20
33.3090170434
 10
-75.6257861147
 20
33.7214677374
 10
-75.7670138497
 20
34.1663572885
 10
-75.7197079961
 20
34.6178303333
 10
-75.486617798
 20
35.0496488994
 10
-75.0812896105
 20
35.4367172613
 10
-74.5272796346
 20
35.7565404128
 10
-73.8567849162
 20
35.9905313948
 10
-73.1087721714
 20
36.1250915019
 10
-72.3267131819
 20
36.15240059
 10
-71.5560583735
 20
36.0708715539
 10
-70.8415954024
 20
35.885242565
 10
-70.2248462597
 20
35.6063017053
  0
LINE
  5
BC
330
1F
100
AcDbEntity
  8
0
  6
HIDDEN
 62
     7
370
    18
100
AcDbLine
 10
-78.6121623593
 20
39.1325903298
 30
0.0
 11
-78.6121623593
 21
44.0318352011
 31
0.0
  0
LWPOLYLINE
  5
BD
330
1F
100
AcDbEntity
  8
0
  6
HIDDEN
 62
     7
370
    18
100
AcDbPolyline
 90
        3
 70
   128
 43
0.0
 10
-79.9402677947
 20
36.4220625439
 10
-80.0482218224
 20
36.7843253091
 10
-80.0489921175
 20
36.7885079712
  0
ARC
  5
BE
330
1F
100
AcDbEntity
  8
0
  6
HIDDEN
 62
     7
370
    18
100
AcDbCircle
 10
-77.5537089128
 20
36.8272327629
 30
0.0
 40
2.536729628742686
100
AcDbArc
 50
114.6611646114
 51
174.018694431
  0
LINE
  5
BF
330
1F
100
AcDbEntity
  8
0
  6
HIDDEN
 62
     7
370
    18
100
AcDbLine
 10
-70.0480695644
 20
39.9944953064
 30
0.0
 11
-70.0480695644
 21
44.8937401777
 31
0.0
  0
ARC
  5
C0
330
1F
100
AcDbEntity
  8
0
  6
HIDDEN
 62
     7
370
    18
100
AcDbCircle
 10
-73.5836034703
 20
33.1709398816
 30
0.0
 40
7.685109539558591
100
AcDbArc
 50
62.6096722366
 51
117.3903277634
  0
LINE
  5
C1
330
1F
100
AcDbEntity
  8
0
  6
HIDDEN
 62
     7
370
    18
100
AcDbLine
 10
-77.1191373762
 20
44.8937401777
 30
0.0
 11
-77.1191373762
 21
39.9944953064
 31
0.0
  0
LINE
  5
C2
330
1F
100
AcDbEntity
  8
0
  6
HIDDEN
 62
     7
370
    18
100
AcDbLine
 10
-77.1191373762
 20
39.9944953064
 30
0.0
 11
-78.6121623593
 21
39.1325903298
 31
0.0
  0
LWPOLYLINE
  5
C3
330
1F
100
AcDbEntity
  8
0
  6
HIDDEN
 62
     7
370
    18
100
AcDbPolyline
 90
       19
 70
   128
 43
0.0
 10
-38.4050411063
 20
-128.7144088078
 10
-37.6887511228
 20
-129.0467937497
 10
-36.8654340724
 20
-129.2825162772
 10
-35.9735873451
 20
-129.410554267
 10
-35.0549127027
 20
-129.424920805
 10
-34.1523663505
 20
-129.3249441278
 10
-33.3081503528
 20
-129.1152990337
 10
-32.5617393114
 20
-128.8057882944
 10
-31.9480345769
 20
-128.4108842879
 10
-31.4957323007
 20
-127.9490522868
 10
-31.2259816346
 20
-127.4418870422
 10
-31.1513958198
 20
-126.9131030371
 10
-31.2754624061
 20
-126.387425624
 10
-31.592380178
 20
-125.8894348945
 10
-32.0873304125
 20
-125.4424163415
 10
-32.7371697869
 20
-125.0672720558
 10
-33.5115125342
 20
-124.7815433673
 10
-34.3741512482
 20
-124.5985906319
 10
-35.1618288064
 20
-124.5299191346
  0
LWPOLYLINE
  5
C4
330
1F
100
AcDbEntity
  8
0
  6
HIDDEN
 62
     7
370
    18
100
AcDbPolyline
 90
       12
 70
   128
 43
0.0
 10
-35.637845766
 20
-124.5299191346
 10
-36.2007299127
 20
-124.5700259905
 10
-37.079261075
 20
-124.7257497354
 10
-37.8792642474
 20
-124.9868582816
 10
-38.5633321709
 20
-125.3411424836
 10
-39.0994785895
 20
-125.772036406
 10
-39.4626338926
 20
-126.2593919279
 10
-39.6358173418
 20
-126.7804208466
 10
-39.6109310717
 20
-127.310760429
 10
-39.3891387364
 20
-127.8256125857
 10
-38.9808110991
 20
-128.3009034021
 10
-38.4050411063
 20
-128.7144088078
  0
LWPOLYLINE
  5
C5
330
1F
100
AcDbEntity
  8
0
  6
HIDDEN
 62
     7
370
    18
100
AcDbPolyline
 90
       19
 70
   128
 43
0.0
 10
-17.1918376707
 20
-116.4682871305
 10
-16.4755476873
 20
-116.8006720723
 10
-15.6522306368
 20
-117.0363945999
 10
-14.7603839095
 20
-117.1644325897
 10
-13.8417092671
 20
-117.1787991276
 10
-12.9391629149
 20
-117.0788224504
 10
-12.0949469172
 20
-116.8691773564
 10
-11.3485358758
 20
-116.559666617
 10
-10.7348311413
 20
-116.1647626106
 10
-10.2825288651
 20
-115.7029306095
 10
-10.012778199
 20
-115.1957653648
 10
-9.9381923842
 20
-114.6669813598
 10
-10.0622589705
 20
-114.1413039467
 10
-10.3791767424
 20
-113.6433132171
 10
-10.8741269769
 20
-113.1962946642
 10
-11.5239663513
 20
-112.8211503785
 10
-12.2983090986
 20
-112.53542169
 10
-13.1609478126
 20
-112.3524689546
 10
-13.9486253708
 20
-112.2837974572
  0
LWPOLYLINE
  5
C6
330
1F
100
AcDbEntity
  8
0
  6
HIDDEN
 62
     7
370
    18
100
AcDbPolyline
 90
       12
 70
   128
 43
0.0
 10
-14.4246423304
 20
-112.2837974572
 10
-14.9875264771
 20
-112.3239043132
 10
-15.8660576394
 20
-112.4796280581
 10
-16.6660608118
 20
-112.7407366042
 10
-17.3501287353
 20
-113.0950208063
 10
-17.8862751539
 20
-113.5259147287
 10
-18.249430457
 20
-114.0132702505
 10
-18.4226139062
 20
-114.5342991692
 10
-18.3977276361
 20
-115.0646387517
 10
-18.1759353008
 20
-115.5794909084
 10
-17.7676076635
 20
-116.0547817248
 10
-17.1918376707
 20
-116.4682871305
  0
LWPOLYLINE
  5
C7
330
1F
100
AcDbEntity
  8
0
  6
HIDDEN
 62
     7
370
    18
100
AcDbPolyline
 90
       19
 70
   128
 43
0.0
 10
-59.6182445419
 20
-116.4682871305
 10
-58.9019545584
 20
-116.8006720723
 10
-58.078637508
 20
-117.0363945999
 10
-57.1867907807
 20
-117.1644325897
 10
-56.2681161383
 20
-117.1787991276
 10
-55.3655697861
 20
-117.0788224504
 10
-54.5213537884
 20
-116.8691773564
 10
-53.774942747
 20
-116.559666617
 10
-53.1612380125
 20
-116.1647626106
 10
-52.7089357363
 20
-115.7029306095
 10
-52.4391850702
 20
-115.1957653648
 10
-52.3645992554
 20
-114.6669813598
 10
-52.4886658417
 20
-114.1413039467
 10
-52.8055836136
 20
-113.6433132171
 10
-53.3005338481
 20
-113.1962946642
 10
-53.9503732225
 20
-112.8211503785
 10
-54.7247159698
 20
-112.53542169
 10
-55.5873546838
 20
-112.3524689546
 10
-56.375032242
 20
-112.2837974572
  0
LWPOLYLINE
  5
C8
330
1F
100
AcDbEntity
  8
0
  6
HIDDEN
 62
     7
370
    18
100
AcDbPolyline
 90
       12
 70
   128
 43
0.0
 10
-56.8510492016
 20
-112.2837974572
 10
-57.4139333483
 20
-112.3239043132
 10
-58.2924645106
 20
-112.4796280581
 10
-59.092467683
 20
-112.7407366042
 10
-59.7765356065
 20
-113.0950208063
 10
-60.312682025
 20
-113.5259147287
 10
-60.6758373282
 20
-114.0132702505
 10
-60.8490207774
 20
-114.5342991692
 10
-60.8241345073
 20
-115.0646387517
 10
-60.602342172
 20
-115.5794909084
 10
-60.1940145347
 20
-116.0547817248
 10
-59.6182445419
 20
-116.4682871305
  0
LINE
  5
C9
330
1F
100
AcDbEntity
  8
0
  6
HIDDEN
 62
     7
370
    18
100
AcDbLine
 10
-3.5800321328
 20
-107.793154742
 30
0.0
 11
-3.5800321328
 21
-111.8751953011
 31
0.0
  0
ARC
  5
CA
330
1F
100
AcDbEntity
  8
0
  6
HIDDEN
 62
     7
370
    18
100
AcDbCircle
 10
-4.6178513512
 20
-114.9829517774
 30
0.0
 40
2.514696392468841
100
AcDbArc
 50
5.6947992512
 51
65.6253417064
  0
LINE
  5
CB
330
1F
100
AcDbEntity
  8
0
  6
HIDDEN
 62
     7
370
    18
100
AcDbLine
 10
-3.5800321328
 20
-112.6923996133
 30
0.0
 11
-43.1780118793
 21
-89.8329724823
 31
0.0
  0
LINE
  5
CC
330
1F
100
AcDbEntity
  8
0
  6
HIDDEN
 62
     7
370
    18
100
AcDbLine
 10
-78.5333509386
 20
-110.2431752779
 30
0.0
 11
-43.1780118793
 21
-89.8329724823
 31
0.0
  0
LINE
  5
CD
330
1F
100
AcDbEntity
  8
0
  6
HIDDEN
 62
     7
370
    18
100
AcDbLine
 10
-84.8973119693
 20
-99.2204714677
 30
0.0
 11
-49.5419729099
 21
-78.8102686721
 31
0.0
  0
LWPOLYLINE
  5
CE
330
1F
100
AcDbEntity
  8
0
  6
HIDDEN
 62
     7
370
    18
100
AcDbPolyline
 90
       19
 70
   128
 43
0.0
 10
-38.4050411063
 20
-104.2221654532
 10
-37.6887511228
 20
-104.554550395
 10
-36.8654340724
 20
-104.7902729225
 10
-35.9735873451
 20
-104.9183109123
 10
-35.0549127027
 20
-104.9326774503
 10
-34.1523663505
 20
-104.8327007731
 10
-33.3081503528
 20
-104.623055679
 10
-32.5617393114
 20
-104.3135449397
 10
-31.9480345769
 20
-103.9186409333
 10
-31.4957323007
 20
-103.4568089322
 10
-31.2259816346
 20
-102.9496436875
 10
-31.1513958198
 20
-102.4208596824
 10
-31.2754624061
 20
-101.8951822693
 10
-31.592380178
 20
-101.3971915398
 10
-32.0873304125
 20
-100.9501729868
 10
-32.7371697869
 20
-100.5750287012
 10
-33.5115125342
 20
-100.2893000127
 10
-34.3741512482
 20
-100.1063472772
 10
-35.1618288064
 20
-100.0376757799
  0
LWPOLYLINE
  5
CF
330
1F
100
AcDbEntity
  8
0
  6
HIDDEN
 62
     7
370
    18
100
AcDbPolyline
 90
       12
 70
   128
 43
0.0
 10
-35.637845766
 20
-100.0376757799
 10
-36.2007299127
 20
-100.0777826358
 10
-37.079261075
 20
-100.2335063807
 10
-37.8792642474
 20
-100.4946149269
 10
-38.5633321709
 20
-100.848899129
 10
-39.0994785895
 20
-101.2797930514
 10
-39.4626338926
 20
-101.7671485732
 10
-39.6358173418
 20
-102.2881774919
 10
-39.6109310717
 20
-102.8185170743
 10
-39.3891387364
 20
-103.3333692311
 10
-38.9808110991
 20
-103.8086600474
 10
-38.4050411063
 20
-104.2221654532
  0
ARC
  5
D0
330
1F
100
AcDbEntity
  8
0
  6
HIDDEN
 62
     7
370
    18
100
AcDbCircle
 10
-35.8236363367
 20
-78.2384525531
 30
0.0
 40
13.73024879635273
100
AcDbArc
 50
182.3868561234
 51
237.6131440222
  0
LINE
  5
D1
330
1F
100
AcDbEntity
  8
0
  6
HIDDEN
 62
     7
370
    18
100
AcDbLine
 10
-43.1780118793
 20
-84.933727611
 30
0.0
 11
-43.1780118793
 21
-89.8329724823
 31
0.0
  0
LINE
  5
D2
330
1F
100
AcDbEntity
  8
0
  6
HIDDEN
 62
     7
370
    18
100
AcDbLine
 10
-45.2993322228
 20
-81.2594930076
 30
0.0
 11
-49.5419729099
 21
-78.8102686721
 31
0.0
  0
LINE
  5
D3
330
1F
100
AcDbEntity
  8
0
  6
HIDDEN
 62
     7
370
    18
100
AcDbLine
 10
-92.2539136871
 20
21.0130067065
 30
0.0
 11
-92.2539136871
 21
25.9122515778
 31
0.0
  0
LINE
  5
D4
330
1F
100
AcDbEntity
  8
0
  6
HIDDEN
 62
     7
370
    18
100
AcDbLine
 10
-98.7539136871
 20
25.9122515778
 30
0.0
 11
-98.7539136871
 21
21.0130067065
 31
0.0
  0
LINE
  5
D5
330
1F
100
AcDbEntity
  8
0
  6
HIDDEN
 62
     7
370
    18
100
AcDbLine
 10
-79.5039136871
 20
34.2796385236
 30
0.0
 11
-79.5039136871
 21
39.1788833949
 31
0.0
  0
LINE
  5
D6
330
1F
100
AcDbEntity
  8
0
  6
HIDDEN
 62
     7
370
    18
100
AcDbLine
 10
-69.2729432985
 20
34.2796385236
 30
0.0
 11
-69.2729432985
 21
39.1788833949
 31
0.0
  0
LINE
  5
D7
330
1F
100
AcDbEntity
  8
0
  6
HIDDEN
 62
     7
370
    18
100
AcDbLine
 10
-75.7729432985
 20
39.1788833949
 30
0.0
 11
-75.7729432985
 21
34.2796385236
 31
0.0
  0
LINE
  5
D8
330
1F
100
AcDbEntity
  8
0
  6
HIDDEN
 62
     7
370
    18
100
AcDbLine
 10
-39.6498372862
 20
-122.0802966989
 30
0.0
 11
-39.6498372862
 21
-126.9795415702
 31
0.0
  0
LINE
  5
D9
330
1F
100
AcDbEntity
  8
0
  6
HIDDEN
 62
     7
370
    18
100
AcDbLine
 10
-31.1498372862
 20
-126.9795415702
 30
0.0
 11
-31.1498372862
 21
-122.0802966989
 31
0.0
  0
LINE
  5
DA
330
1F
100
AcDbEntity
  8
0
  6
HIDDEN
 62
     7
370
    18
100
AcDbLine
 10
-18.4366338506
 20
-109.8341750216
 30
0.0
 11
-18.4366338506
 21
-114.7334198929
 31
0.0
  0
LINE
  5
DB
330
1F
100
AcDbEntity
  8
0
  6
HIDDEN
 62
     7
370
    18
100
AcDbLine
 10
-9.9366338506
 20
-114.7334198929
 30
0.0
 11
-9.9366338506
 21
-109.8341750216
 31
0.0
  0
LINE
  5
DC
330
1F
100
AcDbEntity
  8
0
  6
HIDDEN
 62
     7
370
    18
100
AcDbLine
 10
-60.8630407218
 20
-109.8341750216
 30
0.0
 11
-60.8630407218
 21
-114.7334198929
 31
0.0
  0
LINE
  5
DD
330
1F
100
AcDbEntity
  8
0
  6
HIDDEN
 62
     7
370
    18
100
AcDbLine
 10
-52.3630407218
 20
-114.7334198929
 30
0.0
 11
-52.3630407218
 21
-109.8341750216
 31
0.0
  0
LINE
  5
DE
330
1F
100
AcDbEntity
  8
0
  6
HIDDEN
 62
     7
370
    18
100
AcDbLine
 10
-39.6498372862
 20
-97.5880533442
 30
0.0
 11
-39.6498372862
 21
-102.4872982155
 31
0.0
  0
LINE
  5
DF
330
1F
100
AcDbEntity
  8
0
  6
HIDDEN
 62
     7
370
    18
100
AcDbLine
 10
-31.1498372862
 20
-102.4872982155
 30
0.0
 11
-31.1498372862
 21
-97.5880533442
 31
0.0
  0
LINE
  5
E0
330
1F
100
AcDbEntity
  8
0
  6
CENTERX2
 62
     7
100
AcDbLine
 10
-257.4070657837
 20
104.9525333417
 30
0.0
 11
-257.4070657837
 21
154.9525333417
 31
0.0
  0
LINE
  5
E1
330
1F
100
AcDbEntity
  8
0
  6
CENTERX2
 62
     7
100
AcDbLine
 10
-122.1122876421
 20
104.9525333417
 30
0.0
 11
-122.1122876421
 21
154.9525333417
 31
0.0
  0
CIRCLE
  5
E2
330
1F
100
AcDbEntity
  8
0
  6
Continuous
 62
     7
370
    35
100
AcDbCircle
 10
-312.0544548545
 20
114.9525333417
 30
0.0
 40
4.25
  0
CIRCLE
  5
E3
330
1F
100
AcDbEntity
  8
0
  6
Continuous
 62
     7
370
    35
100
AcDbCircle
 10
-282.0544548545
 20
114.9525333417
 30
0.0
 40
4.250000000000014
  0
CIRCLE
  5
E4
330
1F
100
AcDbEntity
  8
0
  6
Continuous
 62
     7
370
    35
100
AcDbCircle
 10
-312.0544548545
 20
144.9525333417
 30
0.0
 40
4.25
  0
CIRCLE
  5
E5
330
1F
100
AcDbEntity
  8
0
  6
Continuous
 62
     7
370
    35
100
AcDbCircle
 10
-282.0544548545
 20
144.9525333417
 30
0.0
 40
4.25
  0
CIRCLE
  5
E6
330
1F
100
AcDbEntity
  8
0
  6
Continuous
 62
     7
370
    35
100
AcDbCircle
 10
-97.7148985713
 20
113.7025333417
 30
0.0
 40
3.25
  0
CIRCLE
  5
E7
330
1F
100
AcDbEntity
  8
0
  6
Continuous
 62
     7
370
    35
100
AcDbCircle
 10
-97.7148985713
 20
146.2025333417
 30
0.0
 40
3.25
  0
ARC
  5
E8
330
1F
100
AcDbEntity
  8
0
  6
Continuous
 62
     7
370
    35
100
AcDbCircle
 10
-317.0544548545
 20
109.9525333417
 30
0.0
 40
5.0
100
AcDbArc
 50
180.0
 51
270.0
  0
LINE
  5
E9
330
1F
100
AcDbEntity
  8
0
  6
Continuous
 62
     7
370
    35
100
AcDbLine
 10
-322.0544548545
 20
109.9525333417
 30
0.0
 11
-322.0544548545
 21
149.9525333417
 31
0.0
  0
ARC
  5
EA
330
1F
100
AcDbEntity
  8
0
  6
Continuous
 62
     7
370
    35
100
AcDbCircle
 10
-317.0544548545
 20
149.9525333417
 30
0.0
 40
5.0
100
AcDbArc
 50
90.0
 51
180.0
  0
LINE
  5
EB
330
1F
100
AcDbEntity
  8
0
  6
Continuous
 62
     7
370
    35
100
AcDbLine
 10
-92.4648985713
 20
154.9525333417
 30
0.0
 11
-317.0544548545
 21
154.9525333417
 31
0.0
  0
ARC
  5
EC
330
1F
100
AcDbEntity
  8
0
  6
Continuous
 62
     7
370
    35
100
AcDbCircle
 10
-92.4648985713
 20
149.9525333417
 30
0.0
 40
5.000000000000028
100
AcDbArc
 50
0.0
 51
90.0
  0
LINE
  5
ED
330
1F
100
AcDbEntity
  8
0
  6
Continuous
 62
     7
370
    35
100
AcDbLine
 10
-87.4648985713
 20
149.9525333417
 30
0.0
 11
-87.4648985713
 21
147.8410771617
 31
0.0
  0
ARC
  5
EE
330
1F
100
AcDbEntity
  8
0
  6
Continuous
 62
     7
370
    35
100
AcDbCircle
 10
-92.4648985713
 20
112.0639895217
 30
0.0
 40
5.000000000000023
100
AcDbArc
 50
0.0
 51
58.4118644948
  0
LINE
  5
EF
330
1F
100
AcDbEntity
  8
0
  6
Continuous
 62
     7
370
    35
100
AcDbLine
 10
-87.4648985713
 20
112.0639895217
 30
0.0
 11
-87.4648985713
 21
109.9525333417
 31
0.0
  0
ARC
  5
F0
330
1F
100
AcDbEntity
  8
0
  6
Continuous
 62
     7
370
    35
100
AcDbCircle
 10
-92.4648985713
 20
109.9525333417
 30
0.0
 40
5.0
100
AcDbArc
 50
270.0
 51
0.0
  0
LINE
  5
F1
330
1F
100
AcDbEntity
  8
0
  6
Continuous
 62
     7
370
    35
100
AcDbLine
 10
-317.0544548545
 20
104.9525333417
 30
0.0
 11
-92.4648985713
 21
104.9525333417
 31
0.0
  0
ARC
  5
F2
330
1F
100
AcDbEntity
  8
0
  6
Continuous
 62
     7
370
    35
100
AcDbCircle
 10
-92.4648985713
 20
147.8410771617
 30
0.0
 40
5.000000000000012
100
AcDbArc
 50
301.5881355052
 51
0.0
  0
ARC
  5
F3
330
1F
100
AcDbEntity
  8
0
  6
Continuous
 62
     7
370
    35
100
AcDbCircle
 10
-81.4648985713
 20
129.9525333417
 30
0.0
 40
16.0
100
AcDbArc
 50
121.5881355052
 51
238.4118644948
  0
MTEXT
  5
F5
330
1F
100
AcDbEntity
  8
0
  6
Continuous
 62
     7
370
     0
100
AcDbMText
 10
-125.534890885
 20
129.5728080891
 30
0.0
 40
2.6458333333
 41
0.0
 71
     2
 72
     1
  1
UP  900'  R 3
  7
SLDTEXTSTYLE0
 11
-3.491481338843133E-15
 21
1.0
 31
0.0
 73
     1
 44
1.0
  0
MTEXT
  5
F7
330
1F
100
AcDbEntity
  8
0
  6
Continuous
 62
     7
370
     0
100
AcDbMText
 10
-260.8296690266
 20
129.6202722314
 30
0.0
 40
2.6458333333
 41
0.0
 71
     2
 72
     1
  1
DOWN  900'  R 3
  7
SLDTEXTSTYLE1
 11
-3.491481338843133E-15
 21
1.0
 31
0.0
 73
     1
 44
1.0
  0
INSERT
  5
FE
330
1F
100
AcDbEntity
  8
0
  6
Continuous
 62
     7
370
     0
100
AcDbBlockReference
  2
SW_NOTE_0
 10
-162.7116298168
 20
132.9073741966
 30
0.0
  0
INSERT
  5
10A
330
1F
100
AcDbEntity
  8
0
  6
Continuous
 62
     7
370
    18
100
AcDbBlockReference
  2
SW_CENTERMARKSYMBOL_0
 10
-97.7148985713
 20
113.7025333417
 30
0.0
  0
INSERT
  5
116
330
1F
100
AcDbEntity
  8
0
  6
Continuous
 62
     7
370
    18
100
AcDbBlockReference
  2
SW_CENTERMARKSYMBOL_1
 10
-97.7148985713
 20
146.2025333417
 30
0.0
  0
INSERT
  5
122
330
1F
100
AcDbEntity
  8
0
  6
Continuous
 62
     7
370
    18
100
AcDbBlockReference
  2
SW_CENTERMARKSYMBOL_2
 10
-312.0544548545
 20
114.9525333417
 30
0.0
  0
INSERT
  5
12E
330
1F
100
AcDbEntity
  8
0
  6
Continuous
 62
     7
370
    18
100
AcDbBlockReference
  2
SW_CENTERMARKSYMBOL_3
 10
-282.0544548545
 20
114.9525333417
 30
0.0
  0
INSERT
  5
13A
330
1F
100
AcDbEntity
  8
0
  6
Continuous
 62
     7
370
    18
100
AcDbBlockReference
  2
SW_CENTERMARKSYMBOL_4
 10
-312.0544548545
 20
144.9525333417
 30
0.0
  0
INSERT
  5
146
330
1F
100
AcDbEntity
  8
0
  6
Continuous
 62
     7
370
    18
100
AcDbBlockReference
  2
SW_CENTERMARKSYMBOL_5
 10
-282.0544548545
 20
144.9525333417
 30
0.0
  0
LINE
  5
147
330
1F
100
AcDbEntity
  8
0
  6
Continuous
 62
     7
370
    35
100
AcDbLine
 10
-302.2683999315
 20
-88.1957019084
 30
0.0
 11
-302.2683999315
 21
-94.1957019084
 31
0.0
  0
ARC
  5
148
330
1F
100
AcDbEntity
  8
0
  6
Continuous
 62
     7
370
    35
100
AcDbCircle
 10
-302.2683999315
 20
-85.1957019084
 30
0.0
 40
9.0
100
AcDbArc
 50
180.0
 51
270.0
  0
LINE
  5
149
330
1F
100
AcDbEntity
  8
0
  6
Continuous
 62
     7
370
    35
100
AcDbLine
 10
-305.2683999315
 20
-85.1957019084
 30
0.0
 11
-311.2683999315
 21
-85.1957019084
 31
0.0
  0
ARC
  5
14A
330
1F
100
AcDbEntity
  8
0
  6
Continuous
 62
     7
370
    35
100
AcDbCircle
 10
-302.2683999315
 20
-85.1957019084
 30
0.0
 40
3.0
100
AcDbArc
 50
180.0
 51
270.0
  0
LINE
  5
14B
330
1F
100
AcDbEntity
  8
0
  6
Continuous
 62
     7
370
    35
100
AcDbLine
 10
-241.2683999315
 20
-88.1957019084
 30
0.0
 11
-241.2683999315
 21
-94.1957019084
 31
0.0
  0
LINE
  5
14C
330
1F
100
AcDbEntity
  8
0
  6
Continuous
 62
     7
370
    35
100
AcDbLine
 10
-246.2683999315
 20
-94.1957019084
 30
0.0
 11
-246.2683999315
 21
-88.1957019084
 31
0.0
  0
LINE
  5
14D
330
1F
100
AcDbEntity
  8
0
  6
Continuous
 62
     7
370
    35
100
AcDbLine
 10
-246.2683999315
 20
-88.1957019084
 30
0.0
 11
-241.2683999315
 21
-88.1957019084
 31
0.0
  0
LINE
  5
14E
330
1F
100
AcDbEntity
  8
0
  6
Continuous
 62
     7
370
    35
100
AcDbLine
 10
-241.2683999315
 20
-94.1957019084
 30
0.0
 11
-246.2683999315
 21
-94.1957019084
 31
0.0
  0
LINE
  5
14F
330
1F
100
AcDbEntity
  8
0
  6
Continuous
 62
     7
370
    35
100
AcDbLine
 10
-302.2683999315
 20
-88.1957019084
 30
0.0
 11
-246.2683999315
 21
-88.1957019084
 31
0.0
  0
LINE
  5
150
330
1F
100
AcDbEntity
  8
0
  6
Continuous
 62
     7
370
    35
100
AcDbLine
 10
-302.2683999315
 20
-94.1957019084
 30
0.0
 11
-246.2683999315
 21
-94.1957019084
 31
0.0
  0
LINE
  5
151
330
1F
100
AcDbEntity
  8
0
  6
Continuous
 62
     7
370
    35
100
AcDbLine
 10
-305.2683999315
 20
-85.1957019084
 30
0.0
 11
-305.2683999315
 21
42.8042980916
 31
0.0
  0
LINE
  5
152
330
1F
100
AcDbEntity
  8
0
  6
Continuous
 62
     7
370
    35
100
AcDbLine
 10
-311.2683999315
 20
-85.1957019084
 30
0.0
 11
-311.2683999315
 21
42.8042980916
 31
0.0
  0
LINE
  5
153
330
1F
100
AcDbEntity
  8
0
  6
Continuous
 62
     7
370
    35
100
AcDbLine
 10
-311.2683999315
 20
42.8042980916
 30
0.0
 11
-305.2683999315
 21
42.8042980916
 31
0.0
  0
ARC
  5
154
330
1F
100
AcDbEntity
  8
0
  6
Continuous
 62
     7
370
    35
100
AcDbCircle
 10
-314.2683999315
 20
42.8042980916
 30
0.0
 40
9.000000000000007
100
AcDbArc
 50
0.0
 51
90.0
  0
ARC
  5
155
330
1F
100
AcDbEntity
  8
0
  6
Continuous
 62
     7
370
    35
100
AcDbCircle
 10
-314.2683999315
 20
42.8042980916
 30
0.0
 40
3.0
100
AcDbArc
 50
0.0
 51
90.0
  0
LINE
  5
156
330
1F
100
AcDbEntity
  8
0
  6
Continuous
 62
     7
370
    35
100
AcDbLine
 10
-314.2683999315
 20
45.8042980916
 30
0.0
 11
-314.2683999315
 21
51.8042980916
 31
0.0
  0
LINE
  5
157
330
1F
100
AcDbEntity
  8
0
  6
Continuous
 62
     7
370
    35
100
AcDbLine
 10
-340.2683999315
 20
45.8042980916
 30
0.0
 11
-314.2683999315
 21
45.8042980916
 31
0.0
  0
LINE
  5
158
330
1F
100
AcDbEntity
  8
0
  6
Continuous
 62
     7
370
    35
100
AcDbLine
 10
-340.2683999315
 20
51.8042980916
 30
0.0
 11
-340.2683999315
 21
45.8042980916
 31
0.0
  0
LINE
  5
159
330
1F
100
AcDbEntity
  8
0
  6
Continuous
 62
     7
370
    35
100
AcDbLine
 10
-340.2683999315
 20
51.8042980916
 30
0.0
 11
-314.2683999315
 21
51.8042980916
 31
0.0
  0
LINE
  5
15A
330
1F
100
AcDbEntity
  8
0
  6
Continuous
 62
     7
370
    35
100
AcDbLine
 10
-340.2683999315
 20
45.8042980916
 30
0.0
 11
-345.2683999315
 21
45.8042980916
 31
0.0
  0
LINE
  5
15B
330
1F
100
AcDbEntity
  8
0
  6
Continuous
 62
     7
370
    35
100
AcDbLine
 10
-345.2683999315
 20
45.8042980916
 30
0.0
 11
-345.2683999315
 21
51.8042980916
 31
0.0
  0
LINE
  5
15C
330
1F
100
AcDbEntity
  8
0
  6
Continuous
 62
     7
370
    35
100
AcDbLine
 10
-345.2683999315
 20
51.8042980916
 30
0.0
 11
-340.2683999315
 21
51.8042980916
 31
0.0
  0
LINE
  5
15D
330
1F
100
AcDbEntity
  8
0
  6
Continuous
 62
     7
370
    35
100
AcDbLine
 10
-195.100656848
 20
51.8042980916
 30
0.0
 11
-195.100656848
 21
45.8042980916
 31
0.0
  0
LINE
  5
15E
330
1F
100
AcDbEntity
  8
0
  6
Continuous
 62
     7
370
    35
100
AcDbLine
 10
-200.100656848
 20
45.8042980916
 30
0.0
 11
-200.100656848
 21
51.8042980916
 31
0.0
  0
LINE
  5
15F
330
1F
100
AcDbEntity
  8
0
  6
Continuous
 62
     7
370
    35
100
AcDbLine
 10
-200.100656848
 20
51.8042980916
 30
0.0
 11
-195.100656848
 21
51.8042980916
 31
0.0
  0
LINE
  5
160
330
1F
100
AcDbEntity
  8
0
  6
Continuous
 62
     7
370
    35
100
AcDbLine
 10
-195.100656848
 20
45.8042980916
 30
0.0
 11
-200.100656848
 21
45.8042980916
 31
0.0
  0
LINE
  5
161
330
1F
100
AcDbEntity
  8
0
  6
Continuous
 62
     7
370
    35
100
AcDbLine
 10
-192.989200668
 20
45.8042980916
 30
0.0
 11
-192.989200668
 21
51.8042980916
 31
0.0
  0
LINE
  5
162
330
1F
100
AcDbEntity
  8
0
  6
Continuous
 62
     7
370
    35
100
AcDbLine
 10
-195.100656848
 20
51.8042980916
 30
0.0
 11
-192.989200668
 21
51.8042980916
 31
0.0
  0
LINE
  5
163
330
1F
100
AcDbEntity
  8
0
  6
Continuous
 62
     7
370
    35
100
AcDbLine
 10
-195.100656848
 20
45.8042980916
 30
0.0
 11
-192.989200668
 21
45.8042980916
 31
0.0
  0
LINE
  5
164
330
1F
100
AcDbEntity
  8
0
  6
Continuous
 62
     7
370
    35
100
AcDbLine
 10
-188.730023568
 20
51.8042980916
 30
0.0
 11
-188.730023568
 21
45.8042980916
 31
0.0
  0
LINE
  5
165
330
1F
100
AcDbEntity
  8
0
  6
Continuous
 62
     7
370
    35
100
AcDbLine
 10
-192.989200668
 20
51.8042980916
 30
0.0
 11
-188.730023568
 21
51.8042980916
 31
0.0
  0
LINE
  5
166
330
1F
100
AcDbEntity
  8
0
  6
Continuous
 62
     7
370
    35
100
AcDbLine
 10
-188.730023568
 20
45.8042980916
 30
0.0
 11
-192.989200668
 21
45.8042980916
 31
0.0
  0
LINE
  5
167
330
1F
100
AcDbEntity
  8
0
  6
Continuous
 62
     7
370
    35
100
AcDbLine
 10
-161.471290128
 20
45.8042980916
 30
0.0
 11
-161.471290128
 21
51.8042980916
 31
0.0
  0
LINE
  5
168
330
1F
100
AcDbEntity
  8
0
  6
Continuous
 62
     7
370
    35
100
AcDbLine
 10
-157.212113028
 20
51.8042980916
 30
0.0
 11
-157.212113028
 21
45.8042980916
 31
0.0
  0
LINE
  5
169
330
1F
100
AcDbEntity
  8
0
  6
Continuous
 62
     7
370
    35
100
AcDbLine
 10
-161.471290128
 20
51.8042980916
 30
0.0
 11
-157.212113028
 21
51.8042980916
 31
0.0
  0
LINE
  5
16A
330
1F
100
AcDbEntity
  8
0
  6
Continuous
 62
     7
370
    35
100
AcDbLine
 10
-157.212113028
 20
45.8042980916
 30
0.0
 11
-161.471290128
 21
45.8042980916
 31
0.0
  0
LINE
  5
16B
330
1F
100
AcDbEntity
  8
0
  6
Continuous
 62
     7
370
    35
100
AcDbLine
 10
-155.100656848
 20
45.8042980916
 30
0.0
 11
-155.100656848
 21
51.8042980916
 31
0.0
  0
LINE
  5
16C
330
1F
100
AcDbEntity
  8
0
  6
Continuous
 62
     7
370
    35
100
AcDbLine
 10
-157.212113028
 20
51.8042980916
 30
0.0
 11
-155.100656848
 21
51.8042980916
 31
0.0
  0
LINE
  5
16D
330
1F
100
AcDbEntity
  8
0
  6
Continuous
 62
     7
370
    35
100
AcDbLine
 10
-157.212113028
 20
45.8042980916
 30
0.0
 11
-155.100656848
 21
45.8042980916
 31
0.0
  0
LINE
  5
16E
330
1F
100
AcDbEntity
  8
0
  6
Continuous
 62
     7
370
    35
100
AcDbLine
 10
-150.100656848
 20
51.8042980916
 30
0.0
 11
-150.100656848
 21
45.8042980916
 31
0.0
  0
LINE
  5
16F
330
1F
100
AcDbEntity
  8
0
  6
Continuous
 62
     7
370
    35
100
AcDbLine
 10
-155.100656848
 20
51.8042980916
 30
0.0
 11
-150.100656848
 21
51.8042980916
 31
0.0
  0
LINE
  5
170
330
1F
100
AcDbEntity
  8
0
  6
Continuous
 62
     7
370
    35
100
AcDbLine
 10
-150.100656848
 20
45.8042980916
 30
0.0
 11
-155.100656848
 21
45.8042980916
 31
0.0
  0
LINE
  5
171
330
1F
100
AcDbEntity
  8
0
  6
Continuous
 62
     7
370
    35
100
AcDbLine
 10
-188.730023568
 20
51.8042980916
 30
0.0
 11
-161.471290128
 21
51.8042980916
 31
0.0
  0
LINE
  5
172
330
1F
100
AcDbEntity
  8
0
  6
Continuous
 62
     7
370
    35
100
AcDbLine
 10
-188.730023568
 20
45.8042980916
 30
0.0
 11
-161.471290128
 21
45.8042980916
 31
0.0
  0
LINE
  5
173
330
1F
100
AcDbEntity
  8
0
  6
Continuous
 62
     7
370
    35
100
AcDbLine
 10
-150.100656848
 20
42.8042980916
 30
0.0
 11
-150.100656848
 21
45.8042980916
 31
0.0
  0
LINE
  5
174
330
1F
100
AcDbEntity
  8
0
  6
Continuous
 62
     7
370
    35
100
AcDbLine
 10
-200.100656848
 20
42.8042980916
 30
0.0
 11
-150.100656848
 21
42.8042980916
 31
0.0
  0
LINE
  5
175
330
1F
100
AcDbEntity
  8
0
  6
Continuous
 62
     7
370
    35
100
AcDbLine
 10
-200.100656848
 20
45.8042980916
 30
0.0
 11
-200.100656848
 21
42.8042980916
 31
0.0
  0
LINE
  5
176
330
1F
100
AcDbEntity
  8
0
  6
Continuous
 62
     7
370
    35
100
AcDbLine
 10
-150.100656848
 20
-85.1957019084
 30
0.0
 11
-150.100656848
 21
42.8042980916
 31
0.0
  0
LINE
  5
177
330
1F
100
AcDbEntity
  8
0
  6
Continuous
 62
     7
370
    35
100
AcDbLine
 10
-150.100656848
 20
-85.1957019084
 30
0.0
 11
-200.100656848
 21
-85.1957019084
 31
0.0
  0
LINE
  5
178
330
1F
100
AcDbEntity
  8
0
  6
Continuous
 62
     7
370
    35
100
AcDbLine
 10
-200.100656848
 20
42.8042980916
 30
0.0
 11
-200.100656848
 21
-85.1957019084
 31
0.0
  0
LINE
  5
179
330
1F
100
AcDbEntity
  8
0
  6
Continuous
 62
     7
370
    35
100
AcDbLine
 10
-150.100656848
 20
-85.1957019084
 30
0.0
 11
-150.100656848
 21
-94.1957019084
 31
0.0
  0
LINE
  5
17A
330
1F
100
AcDbEntity
  8
0
  6
Continuous
 62
     7
370
    35
100
AcDbLine
 10
-150.100656848
 20
-94.1957019084
 30
0.0
 11
-200.100656848
 21
-94.1957019084
 31
0.0
  0
LINE
  5
17B
330
1F
100
AcDbEntity
  8
0
  6
Continuous
 62
     7
370
    35
100
AcDbLine
 10
-200.100656848
 20
-94.1957019084
 30
0.0
 11
-200.100656848
 21
-85.1957019084
 31
0.0
  0
ENDSEC
  0
SECTION
  2
OBJECTS
  0
DICTIONARY
  5
C
330
0
100
AcDbDictionary
281
     1
  3
ACAD_GROUP
350
D
  3
ACAD_LAYOUT
350
1A
  3
ACAD_MLINESTYLE
350
17
  3
ACAD_PLOTSETTINGS
350
19
  3
ACAD_PLOTSTYLENAME
350
E
  3
ACAD_SCALELIST
350
47
  3
DWGPROPS
350
17C
  0
DICTIONARY
  5
D
102
{ACAD_REACTORS
330
C
102
}
330
C
100
AcDbDictionary
281
     1
  0
DICTIONARY
  5
1A
102
{ACAD_REACTORS
330
C
102
}
330
C
100
AcDbDictionary
281
     1
  3
Layout1
350
1E
  3
Layout2
350
26
  3
Model
350
22
  0
DICTIONARY
  5
17
102
{ACAD_REACTORS
330
C
102
}
330
C
100
AcDbDictionary
281
     1
  3
Standard
350
18
  0
DICTIONARY
  5
19
102
{ACAD_REACTORS
330
C
102
}
330
C
100
AcDbDictionary
281
     1
  0
ACDBDICTIONARYWDFLT
  5
E
102
{ACAD_REACTORS
330
C
102
}
330
C
100
AcDbDictionary
281
     1
  3
Normal
350
F
100
AcDbDictionaryWithDefault
340
F
  0
DICTIONARY
  5
47
102
{ACAD_REACTORS
330
C
102
}
330
C
100
AcDbDictionary
281
     1
  3
A0
350
48
  3
A1
350
49
  3
A2
350
4A
  3
A3
350
4B
  3
A4
350
4C
  3
A5
350
4D
  3
A6
350
4E
  3
A7
350
4F
  3
A8
350
50
  3
A9
350
51
  3
B0
350
52
  3
B1
350
53
  3
B2
350
54
  3
B3
350
55
  3
B4
350
56
  3
B5
350
57
  3
B6
350
58
  3
B7
350
59
  3
B8
350
5A
  3
B9
350
5B
  3
C0
350
5C
  3
C1
350
5D
  3
C2
350
5E
  3
C3
350
5F
  3
C4
350
60
  3
C5
350
61
  3
C6
350
62
  3
C7
350
63
  3
C8
350
64
  3
C9
350
65
  3
D0
350
66
  3
D1
350
67
  3
D2
350
68
  0
XRECORD
  5
17C
102
{ACAD_REACTORS
330
C
102
}
330
C
100
AcDbXrecord
280
     1
  1
DWGPROPS COOKIE
  2

  3

  4

  6

  7

  8
K8
  9

300
=
301
=
302
=
303
=
304
=
305
=
306
=
307
=
308
=
309
=
 40
0.0
 41
2459346.397213611
 42
2459346.39721434
  1

 90
        0
  0
LAYOUT
  5
1E
102
{ACAD_REACTORS
330
1A
102
}
330
1A
100
AcDbPlotSettings
  1

  2
none_device
  4

  6

 40
0.0
 41
0.0
 42
0.0
 43
0.0
 44
0.0
 45
0.0
 46
0.0
 47
0.0
 48
0.0
 49
0.0
140
0.0
141
0.0
142
1.0
143
1.0
 70
   688
 72
     1
 73
     0
 74
     5
  7

 75
    16
147
1.0
148
0.0
149
0.0
100
AcDbLayout
  1
Layout1
 70
     1
 71
     1
 10
0.0
 20
0.0
 11
420.0
 21
297.0
 12
0.0
 22
0.0
 32
0.0
 14
1.0000000000E+20
 24
1.0000000000E+20
 34
1.0000000000E+20
 15
-1.0000000000E+20
 25
-1.0000000000E+20
 35
-1.0000000000E+20
146
0.0
 13
0.0
 23
0.0
 33
0.0
 16
1.0
 26
0.0
 36
0.0
 17
0.0
 27
1.0
 37
0.0
 76
     0
330
1B
  0
LAYOUT
  5
26
102
{ACAD_REACTORS
330
1A
102
}
330
1A
100
AcDbPlotSettings
  1

  2
none_device
  4

  6

 40
0.0
 41
0.0
 42
0.0
 43
0.0
 44
0.0
 45
0.0
 46
0.0
 47
0.0
 48
0.0
 49
0.0
140
0.0
141
0.0
142
1.0
143
1.0
 70
   688
 72
     1
 73
     0
 74
     5
  7

 75
    16
147
1.0
148
0.0
149
0.0
100
AcDbLayout
  1
Layout2
 70
     1
 71
     2
 10
0.0
 20
0.0
 11
0.0
 21
0.0
 12
0.0
 22
0.0
 32
0.0
 14
0.0
 24
0.0
 34
0.0
 15
0.0
 25
0.0
 35
0.0
146
0.0
 13
0.0
 23
0.0
 33
0.0
 16
1.0
 26
0.0
 36
0.0
 17
0.0
 27
1.0
 37
0.0
 76
     0
330
23
  0
LAYOUT
  5
22
102
{ACAD_REACTORS
330
1A
102
}
330
1A
100
AcDbPlotSettings
  1

  2
none_device
  4
Letter_(8.50_x_11.00_Inches)
  6

 40
6.35
 41
6.35
 42
6.35000508
 43
6.35000508
 44
215.9
 45
279.4
 46
0.0
 47
0.0
 48
0.0
 49
0.0
140
0.0
141
0.0
142
1.0
143
1.0
 70
  1712
 72
     1
 73
     0
 74
     0
  7

 75
     0
147
1.0
148
0.0
149
0.0
100
AcDbLayout
  1
Model
 70
     1
 71
     0
 10
0.0
 20
0.0
 11
297.0
 21
210.0
 12
0.0
 22
0.0
 32
0.0
 14
0.0
 24
0.0
 34
0.0
 15
297.0
 25
210.0
 35
0.0
146
0.0
 13
0.0
 23
0.0
 33
0.0
 16
1.0
 26
0.0
 36
0.0
 17
0.0
 27
1.0
 37
0.0
 76
     0
330
1F
331
29
  0
MLINESTYLE
  5
18
102
{ACAD_REACTORS
330
17
102
}
330
17
100
AcDbMlineStyle
  2
Standard
 70
     0
  3

 62
   256
 51
90.0
 52
90.0
 71
     2
 49
0.5
 62
   256
  6
BYLAYER
 49
-0.5
 62
   256
  6
BYLAYER
  0
ACDBPLACEHOLDER
  5
F
102
{ACAD_REACTORS
330
E
102
}
330
E
  0
SCALE
  5
48
102
{ACAD_REACTORS
330
47
102
}
330
47
100
AcDbScale
 70
     0
300
1:1
140
1.0
141
1.0
290
     1
  0
SCALE
  5
49
102
{ACAD_REACTORS
330
47
102
}
330
47
100
AcDbScale
 70
     0
300
1:2
140
1.0
141
2.0
290
     0
  0
SCALE
  5
4A
102
{ACAD_REACTORS
330
47
102
}
330
47
100
AcDbScale
 70
     0
300
1:4
140
1.0
141
4.0
290
     0
  0
SCALE
  5
4B
102
{ACAD_REACTORS
330
47
102
}
330
47
100
AcDbScale
 70
     0
300
1:5
140
1.0
141
5.0
290
     0
  0
SCALE
  5
4C
102
{ACAD_REACTORS
330
47
102
}
330
47
100
AcDbScale
 70
     0
300
1:8
140
1.0
141
8.0
290
     0
  0
SCALE
  5
4D
102
{ACAD_REACTORS
330
47
102
}
330
47
100
AcDbScale
 70
     0
300
1:10
140
1.0
141
10.0
290
     0
  0
SCALE
  5
4E
102
{ACAD_REACTORS
330
47
102
}
330
47
100
AcDbScale
 70
     0
300
1:16
140
1.0
141
16.0
290
     0
  0
SCALE
  5
4F
102
{ACAD_REACTORS
330
47
102
}
330
47
100
AcDbScale
 70
     0
300
1:20
140
1.0
141
20.0
290
     0
  0
SCALE
  5
50
102
{ACAD_REACTORS
330
47
102
}
330
47
100
AcDbScale
 70
     0
300
1:30
140
1.0
141
30.0
290
     0
  0
SCALE
  5
51
102
{ACAD_REACTORS
330
47
102
}
330
47
100
AcDbScale
 70
     0
300
1:40
140
1.0
141
40.0
290
     0
  0
SCALE
  5
52
102
{ACAD_REACTORS
330
47
102
}
330
47
100
AcDbScale
 70
     0
300
1:50
140
1.0
141
50.0
290
     0
  0
SCALE
  5
53
102
{ACAD_REACTORS
330
47
102
}
330
47
100
AcDbScale
 70
     0
300
1:100
140
1.0
141
100.0
290
     0
  0
SCALE
  5
54
102
{ACAD_REACTORS
330
47
102
}
330
47
100
AcDbScale
 70
     0
300
2:1
140
2.0
141
1.0
290
     0
  0
SCALE
  5
55
102
{ACAD_REACTORS
330
47
102
}
330
47
100
AcDbScale
 70
     0
300
4:1
140
4.0
141
1.0
290
     0
  0
SCALE
  5
56
102
{ACAD_REACTORS
330
47
102
}
330
47
100
AcDbScale
 70
     0
300
8:1
140
8.0
141
1.0
290
     0
  0
SCALE
  5
57
102
{ACAD_REACTORS
330
47
102
}
330
47
100
AcDbScale
 70
     0
300
10:1
140
10.0
141
1.0
290
     0
  0
SCALE
  5
58
102
{ACAD_REACTORS
330
47
102
}
330
47
100
AcDbScale
 70
     0
300
100:1
140
100.0
141
1.0
290
     0
  0
SCALE
  5
59
102
{ACAD_REACTORS
330
47
102
}
330
47
100
AcDbScale
 70
     0
300
1/128" = 1'-0"
140
0.0078125
141
12.0
290
     0
  0
SCALE
  5
5A
102
{ACAD_REACTORS
330
47
102
}
330
47
100
AcDbScale
 70
     0
300
1/64" = 1'-0"
140
0.015625
141
12.0
290
     0
  0
SCALE
  5
5B
102
{ACAD_REACTORS
330
47
102
}
330
47
100
AcDbScale
 70
     0
300
1/32" = 1'-0"
140
0.03125
141
12.0
290
     0
  0
SCALE
  5
5C
102
{ACAD_REACTORS
330
47
102
}
330
47
100
AcDbScale
 70
     0
300
1/16" = 1'-0"
140
0.0625
141
12.0
290
     0
  0
SCALE
  5
5D
102
{ACAD_REACTORS
330
47
102
}
330
47
100
AcDbScale
 70
     0
300
3/32" = 1'-0"
140
0.09375
141
12.0
290
     0
  0
SCALE
  5
5E
102
{ACAD_REACTORS
330
47
102
}
330
47
100
AcDbScale
 70
     0
300
1/8" = 1'-0"
140
0.125
141
12.0
290
     0
  0
SCALE
  5
5F
102
{ACAD_REACTORS
330
47
102
}
330
47
100
AcDbScale
 70
     0
300
3/16" = 1'-0"
140
0.1875
141
12.0
290
     0
  0
SCALE
  5
60
102
{ACAD_REACTORS
330
47
102
}
330
47
100
AcDbScale
 70
     0
300
1/4" = 1'-0"
140
0.25
141
12.0
290
     0
  0
SCALE
  5
61
102
{ACAD_REACTORS
330
47
102
}
330
47
100
AcDbScale
 70
     0
300
3/8" = 1'-0"
140
0.375
141
12.0
290
     0
  0
SCALE
  5
62
102
{ACAD_REACTORS
330
47
102
}
330
47
100
AcDbScale
 70
     0
300
1/2" = 1'-0"
140
0.5
141
12.0
290
     0
  0
SCALE
  5
63
102
{ACAD_REACTORS
330
47
102
}
330
47
100
AcDbScale
 70
     0
300
3/4" = 1'-0"
140
0.75
141
12.0
290
     0
  0
SCALE
  5
64
102
{ACAD_REACTORS
330
47
102
}
330
47
100
AcDbScale
 70
     0
300
1" = 1'-0"
140
1.0
141
12.0
290
     0
  0
SCALE
  5
65
102
{ACAD_REACTORS
330
47
102
}
330
47
100
AcDbScale
 70
     0
300
1-1/2" = 1'-0"
140
1.5
141
12.0
290
     0
  0
SCALE
  5
66
102
{ACAD_REACTORS
330
47
102
}
330
47
100
AcDbScale
 70
     0
300
3" = 1'-0"
140
3.0
141
12.0
290
     0
  0
SCALE
  5
67
102
{ACAD_REACTORS
330
47
102
}
330
47
100
AcDbScale
 70
     0
300
6" = 1'-0"
140
6.0
141
12.0
290
     0
  0
SCALE
  5
68
102
{ACAD_REACTORS
330
47
102
}
330
47
100
AcDbScale
 70
     0
300
1'-0" = 1'-0"
140
12.0
141
12.0
290
     0
  0
ENDSEC
  0
EOF
