  0
SECTION
  2
HEADER
  9
$ACADVER
  1
AC1015
  9
$ACADMAINTVER
 70
     6
  9
$DWGCODEPAGE
  3
ANSI_1254
  9
$INSBASE
 10
0.0
 20
0.0
 30
0.0
  9
$EXTMIN
 10
0.0
 20
0.0
 30
0.0
  9
$EXTMAX
 10
297.0
 20
210.0
 30
0.0
  9
$LIMMIN
 10
0.0
 20
0.0
  9
$LIMMAX
 10
297.0
 20
210.0
  9
$ORTHOMODE
 70
     0
  9
$REGENMODE
 70
     1
  9
$FILLMODE
 70
     1
  9
$QTEXTMODE
 70
     0
  9
$MIRRTEXT
 70
     1
  9
$LTSCALE
 40
1.0
  9
$ATTMODE
 70
     1
  9
$TEXTSIZE
 40
3.0
  9
$TRACEWID
 40
1.0
  9
$TEXTSTYLE
  7
Standard
  9
$CLAYER
  8
0
  9
$CELTYPE
  6
ByLayer
  9
$CECOLOR
 62
   256
  9
$CELTSCALE
 40
1.0
  9
$DISPSILH
 70
     0
  9
$DIMSCALE
 40
1.0
  9
$DIMASZ
 40
2.0
  9
$DIMEXO
 40
1.0
  9
$DIMDLI
 40
3.75
  9
$DIMRND
 40
0.0
  9
$DIMDLE
 40
0.0
  9
$DIMEXE
 40
1.0
  9
$DIMTP
 40
0.0
  9
$DIMTM
 40
0.0
  9
$DIMTXT
 40
3.5277777778
  9
$DIMCEN
 40
2.5
  9
$DIMTSZ
 40
0.0
  9
$DIMTOL
 70
     0
  9
$DIMLIM
 70
     0
  9
$DIMTIH
 70
     1
  9
$DIMTOH
 70
     1
  9
$DIMSE1
 70
     0
  9
$DIMSE2
 70
     0
  9
$DIMTAD
 70
     1
  9
$DIMZIN
 70
     0
  9
$DIMBLK
  1

  9
$DIMASO
 70
     1
  9
$DIMSHO
 70
     1
  9
$DIMPOST
  1

  9
$DIMAPOST
  1

  9
$DIMALT
 70
     0
  9
$DIMALTD
 70
     3
  9
$DIMALTF
 40
0.0393700787
  9
$DIMLFAC
 40
1.0
  9
$DIMTOFL
 70
     1
  9
$DIMTVP
 40
0.0
  9
$DIMTIX
 70
     0
  9
$DIMSOXD
 70
     0
  9
$DIMSAH
 70
     0
  9
$DIMBLK1
  1

  9
$DIMBLK2
  1

  9
$DIMSTYLE
  2
ISO-25
  9
$DIMCLRD
 70
     0
  9
$DIMCLRE
 70
     0
  9
$DIMCLRT
 70
     0
  9
$DIMTFAC
 40
1.0
  9
$DIMGAP
 40
1.524
  9
$DIMJUST
 70
     0
  9
$DIMSD1
 70
     0
  9
$DIMSD2
 70
     0
  9
$DIMTOLJ
 70
     0
  9
$DIMTZIN
 70
     0
  9
$DIMALTZ
 70
     0
  9
$DIMALTTZ
 70
     0
  9
$DIMUPT
 70
     0
  9
$DIMDEC
 70
     2
  9
$DIMTDEC
 70
     2
  9
$DIMALTU
 70
     2
  9
$DIMALTTD
 70
     3
  9
$DIMTXSTY
  7
Standard
  9
$DIMAUNIT
 70
     0
  9
$DIMADEC
 70
     2
  9
$DIMALTRND
 40
0.0
  9
$DIMAZIN
 70
     0
  9
$DIMDSEP
 70
    44
  9
$DIMATFIT
 70
     3
  9
$DIMFRAC
 70
     0
  9
$DIMLDRBLK
  1

  9
$DIMLUNIT
 70
     2
  9
$DIMLWD
 70
    -2
  9
$DIMLWE
 70
    -2
  9
$DIMTMOVE
 70
     0
  9
$LUNITS
 70
     2
  9
$LUPREC
 70
     4
  9
$SKETCHINC
 40
1.0
  9
$FILLETRAD
 40
0.0
  9
$AUNITS
 70
     0
  9
$AUPREC
 70
     2
  9
$MENU
  1
.
  9
$ELEVATION
 40
0.0
  9
$PELEVATION
 40
0.0
  9
$THICKNESS
 40
0.0
  9
$LIMCHECK
 70
     0
  9
$CHAMFERA
 40
0.0
  9
$CHAMFERB
 40
0.0
  9
$CHAMFERC
 40
0.0
  9
$CHAMFERD
 40
0.0
  9
$SKPOLY
 70
     0
  9
$TDCREATE
 40
2460194.995941748
  9
$TDUCREATE
 40
2460194.870941748
  9
$TDUPDATE
 40
2460194.995942199
  9
$TDUUPDATE
 40
2460194.870942199
  9
$TDINDWG
 40
0.0000000116
  9
$TDUSRTIMER
 40
0.0000000116
  9
$USRTIMER
 70
     1
  9
$ANGBASE
 50
0.0
  9
$ANGDIR
 70
     0
  9
$PDMODE
 70
     0
  9
$PDSIZE
 40
-1.0
  9
$PLINEWID
 40
0.0
  9
$SPLFRAME
 70
     0
  9
$SPLINETYPE
 70
     6
  9
$SPLINESEGS
 70
     8
  9
$HANDSEED
  5
1B8
  9
$SURFTAB1
 70
     6
  9
$SURFTAB2
 70
     6
  9
$SURFTYPE
 70
     6
  9
$SURFU
 70
     6
  9
$SURFV
 70
     6
  9
$UCSBASE
  2

  9
$UCSNAME
  2

  9
$UCSORG
 10
0.0
 20
0.0
 30
0.0
  9
$UCSXDIR
 10
1.0
 20
0.0
 30
0.0
  9
$UCSYDIR
 10
0.0
 20
1.0
 30
0.0
  9
$UCSORTHOREF
  2

  9
$UCSORTHOVIEW
 70
     0
  9
$UCSORGTOP
 10
0.0
 20
0.0
 30
0.0
  9
$UCSORGBOTTOM
 10
0.0
 20
0.0
 30
0.0
  9
$UCSORGLEFT
 10
0.0
 20
0.0
 30
0.0
  9
$UCSORGRIGHT
 10
0.0
 20
0.0
 30
0.0
  9
$UCSORGFRONT
 10
0.0
 20
0.0
 30
0.0
  9
$UCSORGBACK
 10
0.0
 20
0.0
 30
0.0
  9
$PUCSBASE
  2

  9
$PUCSNAME
  2

  9
$PUCSORG
 10
0.0
 20
0.0
 30
0.0
  9
$PUCSXDIR
 10
1.0
 20
0.0
 30
0.0
  9
$PUCSYDIR
 10
0.0
 20
1.0
 30
0.0
  9
$PUCSORTHOREF
  2

  9
$PUCSORTHOVIEW
 70
     0
  9
$PUCSORGTOP
 10
0.0
 20
0.0
 30
0.0
  9
$PUCSORGBOTTOM
 10
0.0
 20
0.0
 30
0.0
  9
$PUCSORGLEFT
 10
0.0
 20
0.0
 30
0.0
  9
$PUCSORGRIGHT
 10
0.0
 20
0.0
 30
0.0
  9
$PUCSORGFRONT
 10
0.0
 20
0.0
 30
0.0
  9
$PUCSORGBACK
 10
0.0
 20
0.0
 30
0.0
  9
$USERI1
 70
     0
  9
$USERI2
 70
     0
  9
$USERI3
 70
     0
  9
$USERI4
 70
     0
  9
$USERI5
 70
     0
  9
$USERR1
 40
0.0
  9
$USERR2
 40
0.0
  9
$USERR3
 40
0.0
  9
$USERR4
 40
0.0
  9
$USERR5
 40
0.0
  9
$WORLDVIEW
 70
     1
  9
$SHADEDGE
 70
     3
  9
$SHADEDIF
 70
    70
  9
$TILEMODE
 70
     1
  9
$MAXACTVP
 70
    64
  9
$PINSBASE
 10
0.0
 20
0.0
 30
0.0
  9
$PLIMCHECK
 70
     0
  9
$PEXTMIN
 10
1.0000000000E+20
 20
1.0000000000E+20
 30
1.0000000000E+20
  9
$PEXTMAX
 10
-1.0000000000E+20
 20
-1.0000000000E+20
 30
-1.0000000000E+20
  9
$PLIMMIN
 10
0.0
 20
0.0
  9
$PLIMMAX
 10
420.0
 20
297.0
  9
$UNITMODE
 70
     0
  9
$VISRETAIN
 70
     1
  9
$PLINEGEN
 70
     0
  9
$PSLTSCALE
 70
     1
  9
$TREEDEPTH
 70
  3020
  9
$CMLSTYLE
  2
Standard
  9
$CMLJUST
 70
     0
  9
$CMLSCALE
 40
20.0
  9
$PROXYGRAPHICS
 70
     1
  9
$MEASUREMENT
 70
     1
  9
$CELWEIGHT
370
    -1
  9
$ENDCAPS
280
     0
  9
$JOINSTYLE
280
     0
  9
$LWDISPLAY
290
     1
  9
$INSUNITS
 70
     4
  9
$HYPERLINKBASE
  1

  9
$STYLESHEET
  1

  9
$XEDIT
290
     1
  9
$CEPSNTYPE
380
     0
  9
$PSTYLEMODE
290
     1
  9
$FINGERPRINTGUID
  2
{19368b27-b371-4b25-b7aa-a83eee5c120c}
  9
$VERSIONGUID
  2
{FAEB1C32-E019-11D5-929B-00C0DF256EC4}
  9
$EXTNAMES
290
     1
  9
$PSVPSCALE
 40
0.0
  9
$OLESTARTUP
290
     0
  0
ENDSEC
  0
SECTION
  2
CLASSES
  0
CLASS
  1
ACDBDICTIONARYWDFLT
  2
AcDbDictionaryWithDefault
  3
ObjectDBX Classes
 90
        0
280
     0
281
     0
  0
CLASS
  1
VISUALSTYLE
  2
AcDbVisualStyle
  3
ObjectDBX Classes
 90
     4095
280
     0
281
     0
  0
CLASS
  1
MATERIAL
  2
AcDbMaterial
  3
ObjectDBX Classes
 90
     1153
280
     0
281
     0
  0
CLASS
  1
SCALE
  2
AcDbScale
  3
ObjectDBX Classes
 90
     1153
280
     0
281
     0
  0
CLASS
  1
TABLESTYLE
  2
AcDbTableStyle
  3
ObjectDBX Classes
 90
     4095
280
     0
281
     0
  0
CLASS
  1
MLEADERSTYLE
  2
AcDbMLeaderStyle
  3
ACDB_MLEADERSTYLE_CLASS
 90
     4095
280
     0
281
     0
  0
CLASS
  1
SUN
  2
AcDbSun
  3
SCENEOE
 90
     1153
280
     0
281
     0
  0
CLASS
  1
ACDBPLACEHOLDER
  2
AcDbPlaceHolder
  3
ObjectDBX Classes
 90
        0
280
     0
281
     0
  0
CLASS
  1
LAYOUT
  2
AcDbLayout
  3
ObjectDBX Classes
 90
        0
280
     0
281
     0
  0
ENDSEC
  0
SECTION
  2
TABLES
  0
TABLE
  2
VPORT
  5
8
330
0
100
AcDbSymbolTable
 70
     1
  0
VPORT
  5
29
330
8
100
AcDbSymbolTableRecord
100
AcDbViewportTableRecord
  2
*Active
 70
     0
 10
0.0
 20
0.0
 11
1.0
 21
1.0
 12
148.5
 22
105.0
 13
0.0
 23
0.0
 14
10.0
 24
10.0
 15
10.0
 25
10.0
 16
0.0
 26
0.0
 36
1.0
 17
0.0
 27
0.0
 37
0.0
 40
210.0
 41
1.4142857143
 42
50.0
 43
0.0
 44
0.0
 50
0.0
 51
0.0
 71
     0
 72
  2000
 73
     1
 74
     3
 75
     0
 76
     0
 77
     0
 78
     0
281
     0
 65
     1
110
0.0
120
0.0
130
0.0
111
1.0
121
0.0
131
0.0
112
0.0
122
1.0
132
0.0
 79
     0
146
0.0
  0
ENDTAB
  0
TABLE
  2
LTYPE
  5
5
330
0
100
AcDbSymbolTable
 70
     6
  0
LTYPE
  5
14
330
5
100
AcDbSymbolTableRecord
100
AcDbLinetypeTableRecord
  2
ByBlock
 70
     0
  3

 72
    65
 73
     0
 40
0.0
  0
LTYPE
  5
15
330
5
100
AcDbSymbolTableRecord
100
AcDbLinetypeTableRecord
  2
ByLayer
 70
     0
  3

 72
    65
 73
     0
 40
0.0
  0
LTYPE
  5
16
330
5
100
AcDbSymbolTableRecord
100
AcDbLinetypeTableRecord
  2
Continuous
 70
     0
  3
Solid line
 72
    65
 73
     0
 40
0.0
  0
LTYPE
  5
5E
330
5
100
AcDbSymbolTableRecord
100
AcDbLinetypeTableRecord
  2
HIDDEN
 70
     0
  3
Hidden __ __ __ __ __ __ __ __ __ __ __ __ __ __
 72
    65
 73
     2
 40
1.905
 49
1.27
 74
     0
 49
-0.635
 74
     0
  0
LTYPE
  5
5F
330
5
100
AcDbSymbolTableRecord
100
AcDbLinetypeTableRecord
  2
PHANTOM
 70
     0
  3
Phantom ______  __  __  ______  __  __  ______
 72
    65
 73
     6
 40
12.7
 49
6.35
 74
     0
 49
-1.27
 74
     0
 49
1.27
 74
     0
 49
-1.27
 74
     0
 49
1.27
 74
     0
 49
-1.27
 74
     0
  0
LTYPE
  5
60
330
5
100
AcDbSymbolTableRecord
100
AcDbLinetypeTableRecord
  2
CENTER
 70
     0
  3
Center ____ _ ____ _ ____ _ ____ _ ____ _ ____
 72
    65
 73
     4
 40
10.16
 49
6.35
 74
     0
 49
-1.27
 74
     0
 49
1.27
 74
     0
 49
-1.27
 74
     0
  0
LTYPE
  5
61
330
5
100
AcDbSymbolTableRecord
100
AcDbLinetypeTableRecord
  2
CENTERX2
 70
     0
  3
Center (2x) ________  __  ________  __  _____
 72
    65
 73
     4
 40
20.32
 49
12.7
 74
     0
 49
-2.54
 74
     0
 49
2.54
 74
     0
 49
-2.54
 74
     0
  0
LTYPE
  5
62
330
5
100
AcDbSymbolTableRecord
100
AcDbLinetypeTableRecord
  2
DOT2
 70
     0
  3
Dot (.5x) ........................................
 72
    65
 73
     2
 40
0.635
 49
0.0
 74
     0
 49
-0.635
 74
     0
  0
ENDTAB
  0
TABLE
  2
LAYER
  5
2
330
0
100
AcDbSymbolTable
 70
     1
  0
LAYER
  5
10
330
2
100
AcDbSymbolTableRecord
100
AcDbLayerTableRecord
  2
0
 70
     0
 62
     7
  6
Continuous
370
    -3
390
F
  0
ENDTAB
  0
TABLE
  2
STYLE
  5
3
330
0
100
AcDbSymbolTable
 70
     4
  0
STYLE
  5
11
330
3
100
AcDbSymbolTableRecord
100
AcDbTextStyleTableRecord
  2
Standard
 70
     0
 40
0.0
 41
1.0
 50
0.0
 71
     0
 42
3.0
  3
txt
  4

  0
STYLE
  5
63
330
3
100
AcDbSymbolTableRecord
100
AcDbTextStyleTableRecord
  2
SLDTEXTSTYLE0
 70
     0
 40
0.0
 41
0.605
 50
0.0
 71
     0
 42
3.0
  3
TXT
  4

  0
STYLE
  5
8C
330
3
100
AcDbSymbolTableRecord
100
AcDbTextStyleTableRecord
  2
SLDTEXTSTYLE1
 70
     0
 40
0.0
 41
0.56125
 50
0.0
 71
     0
 42
3.0
  3
TXT
  4

  0
STYLE
  5
8E
330
3
100
AcDbSymbolTableRecord
100
AcDbTextStyleTableRecord
  2
SLDTEXTSTYLE2
 70
     0
 40
0.0
 41
0.5675
 50
0.0
 71
     0
 42
3.0
  3
TXT
  4

  0
ENDTAB
  0
TABLE
  2
VIEW
  5
6
330
0
100
AcDbSymbolTable
 70
     0
  0
ENDTAB
  0
TABLE
  2
UCS
  5
7
330
0
100
AcDbSymbolTable
 70
     0
  0
ENDTAB
  0
TABLE
  2
APPID
  5
9
330
0
100
AcDbSymbolTable
 70
     1
  0
APPID
  5
12
330
9
100
AcDbSymbolTableRecord
100
AcDbRegAppTableRecord
  2
ACAD
 70
     0
  0
ENDTAB
  0
TABLE
  2
DIMSTYLE
  5
A
330
0
100
AcDbSymbolTable
 70
     1
100
AcDbDimStyleTable
  0
DIMSTYLE
105
27
330
A
100
AcDbSymbolTableRecord
100
AcDbDimStyleTableRecord
  2
ISO-25
 70
     0
 41
2.5
 42
0.625
 43
3.75
 44
1.25
 73
     0
 74
     0
 77
     1
 78
     8
140
2.5
141
2.5
143
0.0393700787
147
0.625
171
     3
172
     1
178
     0
271
     2
272
     2
274
     3
278
    44
283
     0
284
     8
340
11
  0
ENDTAB
  0
TABLE
  2
BLOCK_RECORD
  5
1
330
0
100
AcDbSymbolTable
 70
     4
  0
BLOCK_RECORD
  5
1F
330
1
100
AcDbSymbolTableRecord
100
AcDbBlockTableRecord
  2
*Model_Space
340
22
  0
BLOCK_RECORD
  5
1B
330
1
100
AcDbSymbolTableRecord
100
AcDbBlockTableRecord
  2
*Paper_Space
340
1E
  0
BLOCK_RECORD
  5
23
330
1
100
AcDbSymbolTableRecord
100
AcDbBlockTableRecord
  2
*Paper_Space0
340
26
  0
BLOCK_RECORD
  5
90
330
1
100
AcDbSymbolTableRecord
100
AcDbBlockTableRecord
  2
SW_CENTERMARKSYMBOL_0
340
0
102
{BLKREFS
331
9B
102
}
  0
BLOCK_RECORD
  5
9C
330
1
100
AcDbSymbolTableRecord
100
AcDbBlockTableRecord
  2
SW_CENTERMARKSYMBOL_1
340
0
102
{BLKREFS
331
A7
102
}
  0
BLOCK_RECORD
  5
A8
330
1
100
AcDbSymbolTableRecord
100
AcDbBlockTableRecord
  2
SW_CENTERMARKSYMBOL_2
340
0
102
{BLKREFS
331
15B
102
}
  0
ENDTAB
  0
ENDSEC
  0
SECTION
  2
BLOCKS
  0
BLOCK
  5
20
330
1F
100
AcDbEntity
  8
0
100
AcDbBlockBegin
  2
*Model_Space
 70
     0
 10
0.0
 20
0.0
 30
0.0
  3
*Model_Space
  1

  0
ENDBLK
  5
21
330
1F
100
AcDbEntity
  8
0
100
AcDbBlockEnd
  0
BLOCK
  5
1C
330
1B
100
AcDbEntity
 67
     1
  8
0
100
AcDbBlockBegin
  2
*Paper_Space
 70
     0
 10
0.0
 20
0.0
 30
0.0
  3
*Paper_Space
  1

  0
ENDBLK
  5
1D
330
1B
100
AcDbEntity
 67
     1
  8
0
100
AcDbBlockEnd
  0
BLOCK
  5
24
330
23
100
AcDbEntity
  8
0
100
AcDbBlockBegin
  2
*Paper_Space0
 70
     0
 10
0.0
 20
0.0
 30
0.0
  3
*Paper_Space0
  1

  0
ENDBLK
  5
25
330
23
100
AcDbEntity
  8
0
100
AcDbBlockEnd
  0
BLOCK
  5
91
330
90
100
AcDbEntity
  8
0
100
AcDbBlockBegin
  2
SW_CENTERMARKSYMBOL_0
 70
     0
 10
0.0
 20
0.0
 30
0.0
  3
SW_CENTERMARKSYMBOL_0
  1

  0
LINE
  5
93
330
90
100
AcDbEntity
  8
0
  6
Continuous
 62
     0
370
    18
100
AcDbLine
 10
0.0
 20
0.0
 30
0.0
 11
0.0
 21
2.5
 31
0.0
  0
LINE
  5
94
330
90
100
AcDbEntity
  8
0
  6
Continuous
 62
     0
370
    18
100
AcDbLine
 10
0.0
 20
0.0
 30
0.0
 11
-2.5
 21
0.0
 31
0.0
  0
LINE
  5
95
330
90
100
AcDbEntity
  8
0
  6
Continuous
 62
     0
370
    18
100
AcDbLine
 10
0.0
 20
0.0
 30
0.0
 11
0.0
 21
-2.5
 31
0.0
  0
LINE
  5
96
330
90
100
AcDbEntity
  8
0
  6
Continuous
 62
     0
370
    18
100
AcDbLine
 10
0.0
 20
0.0
 30
0.0
 11
2.5
 21
0.0
 31
0.0
  0
LINE
  5
97
330
90
100
AcDbEntity
  8
0
  6
Continuous
 62
     0
370
    18
100
AcDbLine
 10
0.0
 20
5.0
 30
0.0
 11
0.0
 21
6.75
 31
0.0
  0
LINE
  5
98
330
90
100
AcDbEntity
  8
0
  6
Continuous
 62
     0
370
    18
100
AcDbLine
 10
-5.0
 20
0.0
 30
0.0
 11
-6.75
 21
0.0
 31
0.0
  0
LINE
  5
99
330
90
100
AcDbEntity
  8
0
  6
Continuous
 62
     0
370
    18
100
AcDbLine
 10
0.0
 20
-5.0
 30
0.0
 11
0.0
 21
-6.75
 31
0.0
  0
LINE
  5
9A
330
90
100
AcDbEntity
  8
0
  6
Continuous
 62
     0
370
    18
100
AcDbLine
 10
5.0
 20
0.0
 30
0.0
 11
6.75
 21
0.0
 31
0.0
  0
ENDBLK
  5
92
330
90
100
AcDbEntity
  8
0
100
AcDbBlockEnd
  0
BLOCK
  5
9D
330
9C
100
AcDbEntity
  8
0
100
AcDbBlockBegin
  2
SW_CENTERMARKSYMBOL_1
 70
     0
 10
0.0
 20
0.0
 30
0.0
  3
SW_CENTERMARKSYMBOL_1
  1

  0
LINE
  5
9F
330
9C
100
AcDbEntity
  8
0
  6
Continuous
 62
     0
370
    18
100
AcDbLine
 10
0.0
 20
0.0
 30
0.0
 11
0.0
 21
2.5
 31
0.0
  0
LINE
  5
A0
330
9C
100
AcDbEntity
  8
0
  6
Continuous
 62
     0
370
    18
100
AcDbLine
 10
0.0
 20
0.0
 30
0.0
 11
-2.5
 21
0.0
 31
0.0
  0
LINE
  5
A1
330
9C
100
AcDbEntity
  8
0
  6
Continuous
 62
     0
370
    18
100
AcDbLine
 10
0.0
 20
0.0
 30
0.0
 11
0.0
 21
-2.5
 31
0.0
  0
LINE
  5
A2
330
9C
100
AcDbEntity
  8
0
  6
Continuous
 62
     0
370
    18
100
AcDbLine
 10
0.0
 20
0.0
 30
0.0
 11
2.5
 21
0.0
 31
0.0
  0
LINE
  5
A3
330
9C
100
AcDbEntity
  8
0
  6
Continuous
 62
     0
370
    18
100
AcDbLine
 10
0.0
 20
5.0
 30
0.0
 11
0.0
 21
6.75
 31
0.0
  0
LINE
  5
A4
330
9C
100
AcDbEntity
  8
0
  6
Continuous
 62
     0
370
    18
100
AcDbLine
 10
-5.0
 20
0.0
 30
0.0
 11
-6.75
 21
0.0
 31
0.0
  0
LINE
  5
A5
330
9C
100
AcDbEntity
  8
0
  6
Continuous
 62
     0
370
    18
100
AcDbLine
 10
0.0
 20
-5.0
 30
0.0
 11
0.0
 21
-6.75
 31
0.0
  0
LINE
  5
A6
330
9C
100
AcDbEntity
  8
0
  6
Continuous
 62
     0
370
    18
100
AcDbLine
 10
5.0
 20
0.0
 30
0.0
 11
6.75
 21
0.0
 31
0.0
  0
ENDBLK
  5
9E
330
9C
100
AcDbEntity
  8
0
100
AcDbBlockEnd
  0
BLOCK
  5
A9
330
A8
100
AcDbEntity
  8
0
100
AcDbBlockBegin
  2
SW_CENTERMARKSYMBOL_2
 70
     0
 10
0.0
 20
0.0
 30
0.0
  3
SW_CENTERMARKSYMBOL_2
  1

  0
ARC
  5
AB
330
A8
100
AcDbEntity
  8
0
  6
Continuous
 62
     0
370
    18
100
AcDbCircle
 10
-31.7341336116
 20
-24.3504571603
 30
0.0
 40
40.00000000000004
100
AcDbArc
 50
37.5
 51
41.0809862196
  0
ARC
  5
AC
330
A8
100
AcDbEntity
  8
0
  6
Continuous
 62
     0
370
    18
100
AcDbCircle
 10
-31.7341336116
 20
-24.3504571603
 30
0.0
 40
40.00000000000004
100
AcDbArc
 50
33.9190137804
 51
37.5
  0
ARC
  5
AD
330
A8
100
AcDbEntity
  8
0
  6
Continuous
 62
     0
370
    18
100
AcDbCircle
 10
-31.7341336116
 20
-24.3504571603
 30
0.0
 40
40.00000000000004
100
AcDbArc
 50
60.0
 51
63.5809862196
  0
ARC
  5
AE
330
A8
100
AcDbEntity
  8
0
  6
Continuous
 62
     0
370
    18
100
AcDbCircle
 10
-31.7341336116
 20
-24.3504571603
 30
0.0
 40
40.00000000000004
100
AcDbArc
 50
56.4190137804
 51
60.0
  0
ARC
  5
AF
330
A8
100
AcDbEntity
  8
0
  6
Continuous
 62
     0
370
    18
100
AcDbCircle
 10
-31.7341336116
 20
-24.3504571603
 30
0.0
 40
40.00000000000003
100
AcDbArc
 50
15.0
 51
18.5809862196
  0
ARC
  5
B0
330
A8
100
AcDbEntity
  8
0
  6
Continuous
 62
     0
370
    18
100
AcDbCircle
 10
-31.7341336116
 20
-24.3504571603
 30
0.0
 40
40.00000000000003
100
AcDbArc
 50
11.4190137804
 51
15.0
  0
ARC
  5
B1
330
A8
100
AcDbEntity
  8
0
  6
Continuous
 62
     0
370
    18
100
AcDbCircle
 10
-31.7341336116
 20
-24.3504571603
 30
0.0
 40
40.00000000000004
100
AcDbArc
 50
352.5
 51
356.0809862196
  0
ARC
  5
B2
330
A8
100
AcDbEntity
  8
0
  6
Continuous
 62
     0
370
    18
100
AcDbCircle
 10
-31.7341336116
 20
-24.3504571603
 30
0.0
 40
40.00000000000002
100
AcDbArc
 50
348.9190137804
 51
352.5
  0
ARC
  5
B3
330
A8
100
AcDbEntity
  8
0
  6
Continuous
 62
     0
370
    18
100
AcDbCircle
 10
-31.7341336116
 20
-24.3504571603
 30
0.0
 40
40.00000000000003
100
AcDbArc
 50
330.0
 51
333.5809862196
  0
ARC
  5
B4
330
A8
100
AcDbEntity
  8
0
  6
Continuous
 62
     0
370
    18
100
AcDbCircle
 10
-31.7341336116
 20
-24.3504571603
 30
0.0
 40
40.00000000000003
100
AcDbArc
 50
326.4190137804
 51
330.0
  0
ARC
  5
B5
330
A8
100
AcDbEntity
  8
0
  6
Continuous
 62
     0
370
    18
100
AcDbCircle
 10
-31.7341336116
 20
-24.3504571603
 30
0.0
 40
40.00000000000004
100
AcDbArc
 50
307.5
 51
311.0809862196
  0
ARC
  5
B6
330
A8
100
AcDbEntity
  8
0
  6
Continuous
 62
     0
370
    18
100
AcDbCircle
 10
-31.7341336116
 20
-24.3504571603
 30
0.0
 40
40.00000000000003
100
AcDbArc
 50
303.9190137804
 51
307.5
  0
ARC
  5
B7
330
A8
100
AcDbEntity
  8
0
  6
Continuous
 62
     0
370
    18
100
AcDbCircle
 10
-31.7341336116
 20
-24.3504571603
 30
0.0
 40
40.00000000000003
100
AcDbArc
 50
285.0
 51
288.5809862196
  0
ARC
  5
B8
330
A8
100
AcDbEntity
  8
0
  6
Continuous
 62
     0
370
    18
100
AcDbCircle
 10
-31.7341336116
 20
-24.3504571603
 30
0.0
 40
40.00000000000002
100
AcDbArc
 50
281.4190137804
 51
285.0
  0
ARC
  5
B9
330
A8
100
AcDbEntity
  8
0
  6
Continuous
 62
     0
370
    18
100
AcDbCircle
 10
-31.7341336116
 20
-24.3504571603
 30
0.0
 40
40.00000000000005
100
AcDbArc
 50
262.5
 51
266.0809862196
  0
ARC
  5
BA
330
A8
100
AcDbEntity
  8
0
  6
Continuous
 62
     0
370
    18
100
AcDbCircle
 10
-31.7341336116
 20
-24.3504571603
 30
0.0
 40
40.00000000000005
100
AcDbArc
 50
258.9190137804
 51
262.5
  0
ARC
  5
BB
330
A8
100
AcDbEntity
  8
0
  6
Continuous
 62
     0
370
    18
100
AcDbCircle
 10
-31.7341336116
 20
-24.3504571603
 30
0.0
 40
40.00000000000001
100
AcDbArc
 50
240.0
 51
243.5809862196
  0
ARC
  5
BC
330
A8
100
AcDbEntity
  8
0
  6
Continuous
 62
     0
370
    18
100
AcDbCircle
 10
-31.7341336116
 20
-24.3504571603
 30
0.0
 40
40.00000000000003
100
AcDbArc
 50
236.4190137804
 51
240.0
  0
ARC
  5
BD
330
A8
100
AcDbEntity
  8
0
  6
Continuous
 62
     0
370
    18
100
AcDbCircle
 10
-31.7341336116
 20
-24.3504571603
 30
0.0
 40
40.00000000000004
100
AcDbArc
 50
217.5
 51
221.0809862196
  0
ARC
  5
BE
330
A8
100
AcDbEntity
  8
0
  6
Continuous
 62
     0
370
    18
100
AcDbCircle
 10
-31.7341336116
 20
-24.3504571603
 30
0.0
 40
40.00000000000004
100
AcDbArc
 50
213.9190137804
 51
217.5
  0
ARC
  5
BF
330
A8
100
AcDbEntity
  8
0
  6
Continuous
 62
     0
370
    18
100
AcDbCircle
 10
-31.7341336116
 20
-24.3504571603
 30
0.0
 40
40.00000000000003
100
AcDbArc
 50
195.0
 51
198.5809862196
  0
ARC
  5
C0
330
A8
100
AcDbEntity
  8
0
  6
Continuous
 62
     0
370
    18
100
AcDbCircle
 10
-31.7341336116
 20
-24.3504571603
 30
0.0
 40
40.00000000000004
100
AcDbArc
 50
191.4190137804
 51
195.0
  0
ARC
  5
C1
330
A8
100
AcDbEntity
  8
0
  6
Continuous
 62
     0
370
    18
100
AcDbCircle
 10
-31.7341336116
 20
-24.3504571603
 30
0.0
 40
40.00000000000004
100
AcDbArc
 50
172.5
 51
176.0809862196
  0
ARC
  5
C2
330
A8
100
AcDbEntity
  8
0
  6
Continuous
 62
     0
370
    18
100
AcDbCircle
 10
-31.7341336116
 20
-24.3504571603
 30
0.0
 40
40.00000000000004
100
AcDbArc
 50
168.9190137804
 51
172.5
  0
ARC
  5
C3
330
A8
100
AcDbEntity
  8
0
  6
Continuous
 62
     0
370
    18
100
AcDbCircle
 10
-31.7341336116
 20
-24.3504571603
 30
0.0
 40
40.00000000000004
100
AcDbArc
 50
150.0
 51
153.5809862196
  0
ARC
  5
C4
330
A8
100
AcDbEntity
  8
0
  6
Continuous
 62
     0
370
    18
100
AcDbCircle
 10
-31.7341336116
 20
-24.3504571603
 30
0.0
 40
40.00000000000005
100
AcDbArc
 50
146.4190137804
 51
150.0
  0
ARC
  5
C5
330
A8
100
AcDbEntity
  8
0
  6
Continuous
 62
     0
370
    18
100
AcDbCircle
 10
-31.7341336116
 20
-24.3504571603
 30
0.0
 40
40.00000000000001
100
AcDbArc
 50
127.5
 51
131.0809862196
  0
ARC
  5
C6
330
A8
100
AcDbEntity
  8
0
  6
Continuous
 62
     0
370
    18
100
AcDbCircle
 10
-31.7341336116
 20
-24.3504571603
 30
0.0
 40
40.00000000000004
100
AcDbArc
 50
123.9190137804
 51
127.5
  0
ARC
  5
C7
330
A8
100
AcDbEntity
  8
0
  6
Continuous
 62
     0
370
    18
100
AcDbCircle
 10
-31.7341336116
 20
-24.3504571603
 30
0.0
 40
40.00000000000003
100
AcDbArc
 50
105.0
 51
108.5809862196
  0
ARC
  5
C8
330
A8
100
AcDbEntity
  8
0
  6
Continuous
 62
     0
370
    18
100
AcDbCircle
 10
-31.7341336116
 20
-24.3504571603
 30
0.0
 40
40.00000000000002
100
AcDbArc
 50
101.4190137804
 51
105.0
  0
ARC
  5
C9
330
A8
100
AcDbEntity
  8
0
  6
Continuous
 62
     0
370
    18
100
AcDbCircle
 10
-31.7341336116
 20
-24.3504571603
 30
0.0
 40
40.00000000000004
100
AcDbArc
 50
82.5
 51
86.0809862196
  0
ARC
  5
CA
330
A8
100
AcDbEntity
  8
0
  6
Continuous
 62
     0
370
    18
100
AcDbCircle
 10
-31.7341336116
 20
-24.3504571603
 30
0.0
 40
40.00000000000004
100
AcDbArc
 50
78.9190137804
 51
82.5
  0
ARC
  5
CB
330
A8
100
AcDbEntity
  8
0
  6
Continuous
 62
     0
370
    18
100
AcDbCircle
 10
-31.7341336116
 20
-24.3504571603
 30
0.0
 40
32.5
100
AcDbArc
 50
48.75
 51
53.1573676549
  0
ARC
  5
CC
330
A8
100
AcDbEntity
  8
0
  6
Continuous
 62
     0
370
    18
100
AcDbCircle
 10
-31.7341336116
 20
-24.3504571603
 30
0.0
 40
32.5
100
AcDbArc
 50
44.3426323451
 51
48.75
  0
ARC
  5
CD
330
A8
100
AcDbEntity
  8
0
  6
Continuous
 62
     0
370
    18
100
AcDbCircle
 10
-31.7341336116
 20
-24.3504571603
 30
0.0
 40
32.49999999999999
100
AcDbArc
 50
93.75
 51
98.1573676549
  0
ARC
  5
CE
330
A8
100
AcDbEntity
  8
0
  6
Continuous
 62
     0
370
    18
100
AcDbCircle
 10
-31.7341336116
 20
-24.3504571603
 30
0.0
 40
32.50000000000001
100
AcDbArc
 50
89.3426323451
 51
93.75
  0
ARC
  5
CF
330
A8
100
AcDbEntity
  8
0
  6
Continuous
 62
     0
370
    18
100
AcDbCircle
 10
-31.7341336116
 20
-24.3504571603
 30
0.0
 40
32.50000000000001
100
AcDbArc
 50
3.75
 51
8.1573676549
  0
ARC
  5
D0
330
A8
100
AcDbEntity
  8
0
  6
Continuous
 62
     0
370
    18
100
AcDbCircle
 10
-31.7341336116
 20
-24.3504571603
 30
0.0
 40
32.50000000000001
100
AcDbArc
 50
359.3426323451
 51
3.75
  0
ARC
  5
D1
330
A8
100
AcDbEntity
  8
0
  6
Continuous
 62
     0
370
    18
100
AcDbCircle
 10
-31.7341336116
 20
-24.3504571603
 30
0.0
 40
32.5
100
AcDbArc
 50
318.75
 51
323.1573676549
  0
ARC
  5
D2
330
A8
100
AcDbEntity
  8
0
  6
Continuous
 62
     0
370
    18
100
AcDbCircle
 10
-31.7341336116
 20
-24.3504571603
 30
0.0
 40
32.5
100
AcDbArc
 50
314.3426323451
 51
318.75
  0
ARC
  5
D3
330
A8
100
AcDbEntity
  8
0
  6
Continuous
 62
     0
370
    18
100
AcDbCircle
 10
-31.7341336116
 20
-24.3504571603
 30
0.0
 40
32.50000000000001
100
AcDbArc
 50
273.75
 51
278.1573676549
  0
ARC
  5
D4
330
A8
100
AcDbEntity
  8
0
  6
Continuous
 62
     0
370
    18
100
AcDbCircle
 10
-31.7341336116
 20
-24.3504571603
 30
0.0
 40
32.50000000000001
100
AcDbArc
 50
269.3426323451
 51
273.75
  0
ARC
  5
D5
330
A8
100
AcDbEntity
  8
0
  6
Continuous
 62
     0
370
    18
100
AcDbCircle
 10
-31.7341336116
 20
-24.3504571603
 30
0.0
 40
32.5
100
AcDbArc
 50
228.75
 51
233.1573676549
  0
ARC
  5
D6
330
A8
100
AcDbEntity
  8
0
  6
Continuous
 62
     0
370
    18
100
AcDbCircle
 10
-31.7341336116
 20
-24.3504571603
 30
0.0
 40
32.49999999999999
100
AcDbArc
 50
224.3426323451
 51
228.75
  0
ARC
  5
D7
330
A8
100
AcDbEntity
  8
0
  6
Continuous
 62
     0
370
    18
100
AcDbCircle
 10
-31.7341336116
 20
-24.3504571603
 30
0.0
 40
32.50000000000002
100
AcDbArc
 50
183.75
 51
188.1573676549
  0
ARC
  5
D8
330
A8
100
AcDbEntity
  8
0
  6
Continuous
 62
     0
370
    18
100
AcDbCircle
 10
-31.7341336116
 20
-24.3504571603
 30
0.0
 40
32.50000000000001
100
AcDbArc
 50
179.3426323451
 51
183.75
  0
ARC
  5
D9
330
A8
100
AcDbEntity
  8
0
  6
Continuous
 62
     0
370
    18
100
AcDbCircle
 10
-31.7341336116
 20
-24.3504571603
 30
0.0
 40
32.50000000000001
100
AcDbArc
 50
138.75
 51
143.1573676549
  0
ARC
  5
DA
330
A8
100
AcDbEntity
  8
0
  6
Continuous
 62
     0
370
    18
100
AcDbCircle
 10
-31.7341336116
 20
-24.3504571603
 30
0.0
 40
32.49999999999999
100
AcDbArc
 50
134.3426323451
 51
138.75
  0
ARC
  5
DB
330
A8
100
AcDbEntity
  8
0
  6
Continuous
 62
     0
370
    18
100
AcDbCircle
 10
-31.7341336116
 20
-24.3504571603
 30
0.0
 40
40.00000000000004
100
AcDbArc
 50
22.1619724391
 51
30.3380275609
  0
ARC
  5
DC
330
A8
100
AcDbEntity
  8
0
  6
Continuous
 62
     0
370
    18
100
AcDbCircle
 10
-31.7341336116
 20
-24.3504571603
 30
0.0
 40
40.00000000000005
100
AcDbArc
 50
44.6619724391
 51
52.8380275609
  0
ARC
  5
DD
330
A8
100
AcDbEntity
  8
0
  6
Continuous
 62
     0
370
    18
100
AcDbCircle
 10
-31.7341336116
 20
-24.3504571603
 30
0.0
 40
40.00000000000004
100
AcDbArc
 50
67.1619724391
 51
75.3380275609
  0
ARC
  5
DE
330
A8
100
AcDbEntity
  8
0
  6
Continuous
 62
     0
370
    18
100
AcDbCircle
 10
-31.7341336116
 20
-24.3504571603
 30
0.0
 40
40.00000000000003
100
AcDbArc
 50
89.6619724391
 51
97.8380275609
  0
ARC
  5
DF
330
A8
100
AcDbEntity
  8
0
  6
Continuous
 62
     0
370
    18
100
AcDbCircle
 10
-31.7341336116
 20
-24.3504571603
 30
0.0
 40
40.00000000000001
100
AcDbArc
 50
112.1619724391
 51
120.3380275609
  0
ARC
  5
E0
330
A8
100
AcDbEntity
  8
0
  6
Continuous
 62
     0
370
    18
100
AcDbCircle
 10
-31.7341336116
 20
-24.3504571603
 30
0.0
 40
40.00000000000003
100
AcDbArc
 50
134.6619724391
 51
142.8380275609
  0
ARC
  5
E1
330
A8
100
AcDbEntity
  8
0
  6
Continuous
 62
     0
370
    18
100
AcDbCircle
 10
-31.7341336116
 20
-24.3504571603
 30
0.0
 40
40.00000000000004
100
AcDbArc
 50
157.1619724391
 51
165.3380275609
  0
ARC
  5
E2
330
A8
100
AcDbEntity
  8
0
  6
Continuous
 62
     0
370
    18
100
AcDbCircle
 10
-31.7341336116
 20
-24.3504571603
 30
0.0
 40
40.00000000000003
100
AcDbArc
 50
179.6619724391
 51
187.8380275609
  0
ARC
  5
E3
330
A8
100
AcDbEntity
  8
0
  6
Continuous
 62
     0
370
    18
100
AcDbCircle
 10
-31.7341336116
 20
-24.3504571603
 30
0.0
 40
40.00000000000004
100
AcDbArc
 50
202.1619724391
 51
210.3380275609
  0
ARC
  5
E4
330
A8
100
AcDbEntity
  8
0
  6
Continuous
 62
     0
370
    18
100
AcDbCircle
 10
-31.7341336116
 20
-24.3504571603
 30
0.0
 40
40.00000000000001
100
AcDbArc
 50
224.6619724391
 51
232.8380275609
  0
ARC
  5
E5
330
A8
100
AcDbEntity
  8
0
  6
Continuous
 62
     0
370
    18
100
AcDbCircle
 10
-31.7341336116
 20
-24.3504571603
 30
0.0
 40
40.00000000000004
100
AcDbArc
 50
247.1619724391
 51
255.3380275609
  0
ARC
  5
E6
330
A8
100
AcDbEntity
  8
0
  6
Continuous
 62
     0
370
    18
100
AcDbCircle
 10
-31.7341336116
 20
-24.3504571603
 30
0.0
 40
40.00000000000003
100
AcDbArc
 50
269.6619724391
 51
277.8380275609
  0
ARC
  5
E7
330
A8
100
AcDbEntity
  8
0
  6
Continuous
 62
     0
370
    18
100
AcDbCircle
 10
-31.7341336116
 20
-24.3504571603
 30
0.0
 40
40.00000000000004
100
AcDbArc
 50
292.1619724391
 51
300.3380275609
  0
ARC
  5
E8
330
A8
100
AcDbEntity
  8
0
  6
Continuous
 62
     0
370
    18
100
AcDbCircle
 10
-31.7341336116
 20
-24.3504571603
 30
0.0
 40
40.00000000000003
100
AcDbArc
 50
314.6619724391
 51
322.8380275609
  0
ARC
  5
E9
330
A8
100
AcDbEntity
  8
0
  6
Continuous
 62
     0
370
    18
100
AcDbCircle
 10
-31.7341336116
 20
-24.3504571603
 30
0.0
 40
40.00000000000004
100
AcDbArc
 50
337.1619724391
 51
345.3380275609
  0
ARC
  5
EA
330
A8
100
AcDbEntity
  8
0
  6
Continuous
 62
     0
370
    18
100
AcDbCircle
 10
-31.7341336116
 20
-24.3504571603
 30
0.0
 40
40.00000000000002
100
AcDbArc
 50
359.6619724391
 51
7.8380275609
  0
ARC
  5
EB
330
A8
100
AcDbEntity
  8
0
  6
Continuous
 62
     0
370
    18
100
AcDbCircle
 10
-31.7341336116
 20
-24.3504571603
 30
0.0
 40
32.50000000000001
100
AcDbArc
 50
12.5647353097
 51
39.9352646903
  0
ARC
  5
EC
330
A8
100
AcDbEntity
  8
0
  6
Continuous
 62
     0
370
    18
100
AcDbCircle
 10
-31.7341336116
 20
-24.3504571603
 30
0.0
 40
32.5
100
AcDbArc
 50
57.5647353097
 51
84.9352646903
  0
ARC
  5
ED
330
A8
100
AcDbEntity
  8
0
  6
Continuous
 62
     0
370
    18
100
AcDbCircle
 10
-31.7341336116
 20
-24.3504571603
 30
0.0
 40
32.50000000000001
100
AcDbArc
 50
102.5647353097
 51
129.9352646903
  0
ARC
  5
EE
330
A8
100
AcDbEntity
  8
0
  6
Continuous
 62
     0
370
    18
100
AcDbCircle
 10
-31.7341336116
 20
-24.3504571603
 30
0.0
 40
32.50000000000001
100
AcDbArc
 50
147.5647353097
 51
174.9352646903
  0
ARC
  5
EF
330
A8
100
AcDbEntity
  8
0
  6
Continuous
 62
     0
370
    18
100
AcDbCircle
 10
-31.7341336116
 20
-24.3504571603
 30
0.0
 40
32.50000000000001
100
AcDbArc
 50
192.5647353097
 51
219.9352646903
  0
ARC
  5
F0
330
A8
100
AcDbEntity
  8
0
  6
Continuous
 62
     0
370
    18
100
AcDbCircle
 10
-31.7341336116
 20
-24.3504571603
 30
0.0
 40
32.50000000000001
100
AcDbArc
 50
237.5647353097
 51
264.9352646903
  0
ARC
  5
F1
330
A8
100
AcDbEntity
  8
0
  6
Continuous
 62
     0
370
    18
100
AcDbCircle
 10
-31.7341336116
 20
-24.3504571603
 30
0.0
 40
32.50000000000002
100
AcDbArc
 50
282.5647353097
 51
309.9352646903
  0
ARC
  5
F2
330
A8
100
AcDbEntity
  8
0
  6
Continuous
 62
     0
370
    18
100
AcDbCircle
 10
-31.7341336116
 20
-24.3504571603
 30
0.0
 40
32.50000000000001
100
AcDbArc
 50
327.5647353097
 51
354.9352646903
  0
LINE
  5
F3
330
A8
100
AcDbEntity
  8
0
  6
Continuous
 62
     0
370
    18
100
AcDbLine
 10
0.0
 20
0.0
 30
0.0
 11
1.9833833507
 21
1.5219035725
 31
0.0
  0
LINE
  5
F4
330
A8
100
AcDbEntity
  8
0
  6
Continuous
 62
     0
370
    18
100
AcDbLine
 10
0.0
 20
0.0
 30
0.0
 11
-1.9833833507
 21
-1.5219035725
 31
0.0
  0
LINE
  5
F5
330
A8
100
AcDbEntity
  8
0
  6
Continuous
 62
     0
370
    18
100
AcDbLine
 10
3.9667667015
 20
3.043807145
 30
0.0
 11
4.6014493737
 21
3.5308162883
 31
0.0
  0
LINE
  5
F6
330
A8
100
AcDbEntity
  8
0
  6
Continuous
 62
     0
370
    18
100
AcDbLine
 10
-3.9667667015
 20
-3.043807145
 30
0.0
 11
-4.6014493737
 21
-3.5308162883
 31
0.0
  0
LINE
  5
F7
330
A8
100
AcDbEntity
  8
0
  6
Continuous
 62
     0
370
    18
100
AcDbLine
 10
-31.7341336116
 20
-24.3504571603
 30
0.0
 11
-31.7341336116
 21
-21.8504571603
 31
0.0
  0
LINE
  5
F8
330
A8
100
AcDbEntity
  8
0
  6
Continuous
 62
     0
370
    18
100
AcDbLine
 10
-31.7341336116
 20
-24.3504571603
 30
0.0
 11
-34.2341336116
 21
-24.3504571603
 31
0.0
  0
LINE
  5
F9
330
A8
100
AcDbEntity
  8
0
  6
Continuous
 62
     0
370
    18
100
AcDbLine
 10
-31.7341336116
 20
-24.3504571603
 30
0.0
 11
-31.7341336116
 21
-26.8504571603
 31
0.0
  0
LINE
  5
FA
330
A8
100
AcDbEntity
  8
0
  6
Continuous
 62
     0
370
    18
100
AcDbLine
 10
-31.7341336116
 20
-24.3504571603
 30
0.0
 11
-29.2341336116
 21
-24.3504571603
 31
0.0
  0
LINE
  5
FB
330
A8
100
AcDbEntity
  8
0
  6
Continuous
 62
     0
370
    18
100
AcDbLine
 10
-31.7341336116
 20
-19.3504571603
 30
0.0
 11
-31.7341336116
 21
18.1495428397
 31
0.0
  0
LINE
  5
FC
330
A8
100
AcDbEntity
  8
0
  6
Continuous
 62
     0
370
    18
100
AcDbLine
 10
-36.7341336116
 20
-24.3504571603
 30
0.0
 11
-74.2341336116
 21
-24.3504571603
 31
0.0
  0
LINE
  5
FD
330
A8
100
AcDbEntity
  8
0
  6
Continuous
 62
     0
370
    18
100
AcDbLine
 10
-31.7341336116
 20
-29.3504571603
 30
0.0
 11
-31.7341336116
 21
-66.8504571603
 31
0.0
  0
LINE
  5
FE
330
A8
100
AcDbEntity
  8
0
  6
Continuous
 62
     0
370
    18
100
AcDbLine
 10
-26.7341336116
 20
-24.3504571603
 30
0.0
 11
10.7658663884
 21
-24.3504571603
 31
0.0
  0
LINE
  5
FF
330
A8
100
AcDbEntity
  8
0
  6
Continuous
 62
     0
370
    18
100
AcDbLine
 10
-11.7341336116
 20
10.290558991
 30
0.0
 11
-10.4841336116
 21
12.4556225005
 31
0.0
  0
LINE
  5
100
330
A8
100
AcDbEntity
  8
0
  6
Continuous
 62
     0
370
    18
100
AcDbLine
 10
-11.7341336116
 20
10.290558991
 30
0.0
 11
-12.9841336116
 21
8.1254954816
 31
0.0
  0
LINE
  5
101
330
A8
100
AcDbEntity
  8
0
  6
Continuous
 62
     0
370
    18
100
AcDbLine
 10
-9.2341336116
 20
14.62068601
 30
0.0
 11
-8.8341336116
 21
15.313506333
 31
0.0
  0
LINE
  5
102
330
A8
100
AcDbEntity
  8
0
  6
Continuous
 62
     0
370
    18
100
AcDbLine
 10
-14.2341336116
 20
5.9604319721
 30
0.0
 11
-14.6341336116
 21
5.2676116491
 31
0.0
  0
LINE
  5
103
330
A8
100
AcDbEntity
  8
0
  6
Continuous
 62
     0
370
    18
100
AcDbLine
 10
6.9028994399
 20
-13.9976953562
 30
0.0
 11
9.3177140056
 21
-13.3506477435
 31
0.0
  0
LINE
  5
104
330
A8
100
AcDbEntity
  8
0
  6
Continuous
 62
     0
370
    18
100
AcDbLine
 10
6.9028994399
 20
-13.9976953562
 30
0.0
 11
4.4880848742
 21
-14.644742969
 31
0.0
  0
LINE
  5
105
330
A8
100
AcDbEntity
  8
0
  6
Continuous
 62
     0
370
    18
100
AcDbLine
 10
11.7325285714
 20
-12.7036001307
 30
0.0
 11
12.5052692324
 21
-12.4965448947
 31
0.0
  0
LINE
  5
106
330
A8
100
AcDbEntity
  8
0
  6
Continuous
 62
     0
370
    18
100
AcDbLine
 10
2.0732703085
 20
-15.2917905818
 30
0.0
 11
1.3005296474
 21
-15.4988458178
 31
0.0
  0
LINE
  5
107
330
A8
100
AcDbEntity
  8
0
  6
Continuous
 62
     0
370
    18
100
AcDbLine
 10
7.9236608433
 20
-29.5715048492
 30
0.0
 11
10.4022729967
 21
-29.8978203297
 31
0.0
  0
LINE
  5
108
330
A8
100
AcDbEntity
  8
0
  6
Continuous
 62
     0
370
    18
100
AcDbLine
 10
7.9236608433
 20
-29.5715048492
 30
0.0
 11
5.4450486899
 21
-29.2451893686
 31
0.0
  0
LINE
  5
109
330
A8
100
AcDbEntity
  8
0
  6
Continuous
 62
     0
370
    18
100
AcDbLine
 10
12.8808851502
 20
-30.2241358103
 30
0.0
 11
13.6740410393
 21
-30.328556764
 31
0.0
  0
LINE
  5
10A
330
A8
100
AcDbEntity
  8
0
  6
Continuous
 62
     0
370
    18
100
AcDbLine
 10
2.9664365364
 20
-28.9188738881
 30
0.0
 11
2.1732806473
 21
-28.8144529343
 31
0.0
  0
LINE
  5
10B
330
A8
100
AcDbEntity
  8
0
  6
Continuous
 62
     0
370
    18
100
AcDbLine
 10
2.9068825397
 20
-44.3504571603
 30
0.0
 11
5.0719460492
 21
-45.6004571603
 31
0.0
  0
LINE
  5
10C
330
A8
100
AcDbEntity
  8
0
  6
Continuous
 62
     0
370
    18
100
AcDbLine
 10
2.9068825397
 20
-44.3504571603
 30
0.0
 11
0.7418190303
 21
-43.1004571603
 31
0.0
  0
LINE
  5
10D
330
A8
100
AcDbEntity
  8
0
  6
Continuous
 62
     0
370
    18
100
AcDbLine
 10
7.2370095587
 20
-46.8504571603
 30
0.0
 11
7.9298298817
 21
-47.2504571603
 31
0.0
  0
LINE
  5
10E
330
A8
100
AcDbEntity
  8
0
  6
Continuous
 62
     0
370
    18
100
AcDbLine
 10
-1.4232444792
 20
-41.8504571603
 30
0.0
 11
-2.1160648022
 21
-41.4504571603
 31
0.0
  0
LINE
  5
10F
330
A8
100
AcDbEntity
  8
0
  6
Continuous
 62
     0
370
    18
100
AcDbLine
 10
-7.3836764513
 20
-56.084590772
 30
0.0
 11
-5.8617728788
 21
-58.0679741227
 31
0.0
  0
LINE
  5
110
330
A8
100
AcDbEntity
  8
0
  6
Continuous
 62
     0
370
    18
100
AcDbLine
 10
-7.3836764513
 20
-56.084590772
 30
0.0
 11
-8.9055800238
 21
-54.1012074213
 31
0.0
  0
LINE
  5
111
330
A8
100
AcDbEntity
  8
0
  6
Continuous
 62
     0
370
    18
100
AcDbLine
 10
-4.3398693063
 20
-60.0513574735
 30
0.0
 11
-3.8528601631
 21
-60.6860401457
 31
0.0
  0
LINE
  5
112
330
A8
100
AcDbEntity
  8
0
  6
Continuous
 62
     0
370
    18
100
AcDbLine
 10
-10.4274835963
 20
-52.1178240705
 30
0.0
 11
-10.9144927396
 21
-51.4831413983
 31
0.0
  0
LINE
  5
113
330
A8
100
AcDbEntity
  8
0
  6
Continuous
 62
     0
370
    18
100
AcDbLine
 10
-21.3813718075
 20
-62.9874902119
 30
0.0
 11
-20.7343241948
 21
-65.4023047776
 31
0.0
  0
LINE
  5
114
330
A8
100
AcDbEntity
  8
0
  6
Continuous
 62
     0
370
    18
100
AcDbLine
 10
-21.3813718075
 20
-62.9874902119
 30
0.0
 11
-22.0284194203
 21
-60.5726756462
 31
0.0
  0
LINE
  5
115
330
A8
100
AcDbEntity
  8
0
  6
Continuous
 62
     0
370
    18
100
AcDbLine
 10
-20.087276582
 20
-67.8171193434
 30
0.0
 11
-19.880221346
 21
-68.5898600044
 31
0.0
  0
LINE
  5
116
330
A8
100
AcDbEntity
  8
0
  6
Continuous
 62
     0
370
    18
100
AcDbLine
 10
-22.6754670331
 20
-58.1578610805
 30
0.0
 11
-22.8825222691
 21
-57.3851204194
 31
0.0
  0
LINE
  5
117
330
A8
100
AcDbEntity
  8
0
  6
Continuous
 62
     0
370
    18
100
AcDbLine
 10
-36.9551813005
 20
-64.0082516153
 30
0.0
 11
-37.281496781
 21
-66.4868637687
 31
0.0
  0
LINE
  5
118
330
A8
100
AcDbEntity
  8
0
  6
Continuous
 62
     0
370
    18
100
AcDbLine
 10
-36.9551813005
 20
-64.0082516153
 30
0.0
 11
-36.6288658199
 21
-61.5296394619
 31
0.0
  0
LINE
  5
119
330
A8
100
AcDbEntity
  8
0
  6
Continuous
 62
     0
370
    18
100
AcDbLine
 10
-37.6078122616
 20
-68.9654759222
 30
0.0
 11
-37.7122332153
 21
-69.7586318113
 31
0.0
  0
LINE
  5
11A
330
A8
100
AcDbEntity
  8
0
  6
Continuous
 62
     0
370
    18
100
AcDbLine
 10
-36.3025503394
 20
-59.0510273084
 30
0.0
 11
-36.1981293856
 21
-58.2578714193
 31
0.0
  0
LINE
  5
11B
330
A8
100
AcDbEntity
  8
0
  6
Continuous
 62
     0
370
    18
100
AcDbLine
 10
-51.7341336116
 20
-58.9914733117
 30
0.0
 11
-52.9841336116
 21
-61.1565368212
 31
0.0
  0
LINE
  5
11C
330
A8
100
AcDbEntity
  8
0
  6
Continuous
 62
     0
370
    18
100
AcDbLine
 10
-51.7341336116
 20
-58.9914733117
 30
0.0
 11
-50.4841336116
 21
-56.8264098023
 31
0.0
  0
LINE
  5
11D
330
A8
100
AcDbEntity
  8
0
  6
Continuous
 62
     0
370
    18
100
AcDbLine
 10
-54.2341336117
 20
-63.3216003306
 30
0.0
 11
-54.6341336117
 21
-64.0144206537
 31
0.0
  0
LINE
  5
11E
330
A8
100
AcDbEntity
  8
0
  6
Continuous
 62
     0
370
    18
100
AcDbLine
 10
-49.2341336116
 20
-54.6613462928
 30
0.0
 11
-48.8341336116
 21
-53.9685259698
 31
0.0
  0
LINE
  5
11F
330
A8
100
AcDbEntity
  8
0
  6
Continuous
 62
     0
370
    18
100
AcDbLine
 10
-63.4682672233
 20
-48.7009143207
 30
0.0
 11
-65.451650574
 21
-50.2228178932
 31
0.0
  0
LINE
  5
120
330
A8
100
AcDbEntity
  8
0
  6
Continuous
 62
     0
370
    18
100
AcDbLine
 10
-63.4682672233
 20
-48.7009143207
 30
0.0
 11
-61.4848838726
 21
-47.1790107482
 31
0.0
  0
LINE
  5
121
330
A8
100
AcDbEntity
  8
0
  6
Continuous
 62
     0
370
    18
100
AcDbLine
 10
-67.4350339248
 20
-51.7447214657
 30
0.0
 11
-68.069716597
 21
-52.2317306089
 31
0.0
  0
LINE
  5
122
330
A8
100
AcDbEntity
  8
0
  6
Continuous
 62
     0
370
    18
100
AcDbLine
 10
-59.5015005218
 20
-45.6571071757
 30
0.0
 11
-58.8668178496
 21
-45.1700980324
 31
0.0
  0
LINE
  5
123
330
A8
100
AcDbEntity
  8
0
  6
Continuous
 62
     0
370
    18
100
AcDbLine
 10
-70.3711666632
 20
-34.7032189644
 30
0.0
 11
-72.7859812289
 21
-35.3502665772
 31
0.0
  0
LINE
  5
124
330
A8
100
AcDbEntity
  8
0
  6
Continuous
 62
     0
370
    18
100
AcDbLine
 10
-70.3711666632
 20
-34.7032189644
 30
0.0
 11
-67.9563520975
 21
-34.0561713517
 31
0.0
  0
LINE
  5
125
330
A8
100
AcDbEntity
  8
0
  6
Continuous
 62
     0
370
    18
100
AcDbLine
 10
-75.2007957947
 20
-35.99731419
 30
0.0
 11
-75.9735364557
 21
-36.204369426
 31
0.0
  0
LINE
  5
126
330
A8
100
AcDbEntity
  8
0
  6
Continuous
 62
     0
370
    18
100
AcDbLine
 10
-65.5415375318
 20
-33.4091237389
 30
0.0
 11
-64.7687968707
 21
-33.2020685029
 31
0.0
  0
LINE
  5
127
330
A8
100
AcDbEntity
  8
0
  6
Continuous
 62
     0
370
    18
100
AcDbLine
 10
-71.3919280666
 20
-19.1294094715
 30
0.0
 11
-73.87054022
 21
-18.803093991
 31
0.0
  0
LINE
  5
128
330
A8
100
AcDbEntity
  8
0
  6
Continuous
 62
     0
370
    18
100
AcDbLine
 10
-71.3919280666
 20
-19.1294094715
 30
0.0
 11
-68.9133159132
 21
-19.4557249521
 31
0.0
  0
LINE
  5
129
330
A8
100
AcDbEntity
  8
0
  6
Continuous
 62
     0
370
    18
100
AcDbLine
 10
-76.3491523735
 20
-18.4767785104
 30
0.0
 11
-77.1423082626
 21
-18.3723575567
 31
0.0
  0
LINE
  5
12A
330
A8
100
AcDbEntity
  8
0
  6
Continuous
 62
     0
370
    18
100
AcDbLine
 10
-66.4347037597
 20
-19.7820404326
 30
0.0
 11
-65.6415478706
 21
-19.8864613864
 31
0.0
  0
LINE
  5
12B
330
A8
100
AcDbEntity
  8
0
  6
Continuous
 62
     0
370
    18
100
AcDbLine
 10
-66.375149763
 20
-4.3504571603
 30
0.0
 11
-68.5402132725
 21
-3.1004571603
 31
0.0
  0
LINE
  5
12C
330
A8
100
AcDbEntity
  8
0
  6
Continuous
 62
     0
370
    18
100
AcDbLine
 10
-66.375149763
 20
-4.3504571603
 30
0.0
 11
-64.2100862536
 21
-5.6004571603
 31
0.0
  0
LINE
  5
12D
330
A8
100
AcDbEntity
  8
0
  6
Continuous
 62
     0
370
    18
100
AcDbLine
 10
-70.7052767819
 20
-1.8504571603
 30
0.0
 11
-71.398097105
 21
-1.4504571603
 31
0.0
  0
LINE
  5
12E
330
A8
100
AcDbEntity
  8
0
  6
Continuous
 62
     0
370
    18
100
AcDbLine
 10
-62.0450227441
 20
-6.8504571603
 30
0.0
 11
-61.3522024211
 21
-7.2504571603
 31
0.0
  0
LINE
  5
12F
330
A8
100
AcDbEntity
  8
0
  6
Continuous
 62
     0
370
    18
100
AcDbLine
 10
-56.084590772
 20
7.3836764513
 30
0.0
 11
-57.6064943445
 21
9.367059802
 31
0.0
  0
LINE
  5
130
330
A8
100
AcDbEntity
  8
0
  6
Continuous
 62
     0
370
    18
100
AcDbLine
 10
-56.084590772
 20
7.3836764513
 30
0.0
 11
-54.5626871995
 21
5.4002931006
 31
0.0
  0
LINE
  5
131
330
A8
100
AcDbEntity
  8
0
  6
Continuous
 62
     0
370
    18
100
AcDbLine
 10
-59.128397917
 20
11.3504431528
 30
0.0
 11
-59.6154070602
 21
11.985125825
 31
0.0
  0
LINE
  5
132
330
A8
100
AcDbEntity
  8
0
  6
Continuous
 62
     0
370
    18
100
AcDbLine
 10
-53.040783627
 20
3.4169097498
 30
0.0
 11
-52.5537744837
 21
2.7822270776
 31
0.0
  0
LINE
  5
133
330
A8
100
AcDbEntity
  8
0
  6
Continuous
 62
     0
370
    18
100
AcDbLine
 10
-42.0868954157
 20
14.2865758912
 30
0.0
 11
-42.7339430285
 21
16.7013904569
 31
0.0
  0
LINE
  5
134
330
A8
100
AcDbEntity
  8
0
  6
Continuous
 62
     0
370
    18
100
AcDbLine
 10
-42.0868954157
 20
14.2865758912
 30
0.0
 11
-41.439847803
 21
11.8717613255
 31
0.0
  0
LINE
  5
135
330
A8
100
AcDbEntity
  8
0
  6
Continuous
 62
     0
370
    18
100
AcDbLine
 10
-43.3809906413
 20
19.1162050227
 30
0.0
 11
-43.5880458773
 21
19.8889456837
 31
0.0
  0
LINE
  5
136
330
A8
100
AcDbEntity
  8
0
  6
Continuous
 62
     0
370
    18
100
AcDbLine
 10
-40.7928001902
 20
9.4569467598
 30
0.0
 11
-40.5857449542
 21
8.6842060987
 31
0.0
  0
LINE
  5
137
330
A8
100
AcDbEntity
  8
0
  6
Continuous
 62
     0
370
    18
100
AcDbLine
 10
-26.5130859228
 20
15.3073372946
 30
0.0
 11
-26.1867704423
 21
17.785949448
 31
0.0
  0
LINE
  5
138
330
A8
100
AcDbEntity
  8
0
  6
Continuous
 62
     0
370
    18
100
AcDbLine
 10
-26.5130859228
 20
15.3073372946
 30
0.0
 11
-26.8394014034
 21
12.8287251412
 31
0.0
  0
LINE
  5
139
330
A8
100
AcDbEntity
  8
0
  6
Continuous
 62
     0
370
    18
100
AcDbLine
 10
-25.8604549617
 20
20.2645616015
 30
0.0
 11
-25.756034008
 21
21.0577174906
 31
0.0
  0
LINE
  5
13A
330
A8
100
AcDbEntity
  8
0
  6
Continuous
 62
     0
370
    18
100
AcDbLine
 10
-27.1657168839
 20
10.3501129877
 30
0.0
 11
-27.2701378377
 21
9.5569570986
 31
0.0
  0
LINE
  5
13B
330
A8
100
AcDbEntity
  8
0
  6
Continuous
 62
     0
370
    18
100
AcDbLine
 10
-10.3053946209
 20
0.0843365827
 30
0.0
 11
-8.6570300831
 21
1.9639361014
 31
0.0
  0
LINE
  5
13C
330
A8
100
AcDbEntity
  8
0
  6
Continuous
 62
     0
370
    18
100
AcDbLine
 10
-10.3053946209
 20
0.0843365827
 30
0.0
 11
-11.9537591586
 21
-1.795262936
 31
0.0
  0
LINE
  5
13D
330
A8
100
AcDbEntity
  8
0
  6
Continuous
 62
     0
370
    18
100
AcDbLine
 10
-7.0086655454
 20
3.8435356201
 30
0.0
 11
-6.4811888933
 21
4.4450074661
 31
0.0
  0
LINE
  5
13E
330
A8
100
AcDbEntity
  8
0
  6
Continuous
 62
     0
370
    18
100
AcDbLine
 10
-13.6021236964
 20
-3.6748624547
 30
0.0
 11
-14.1296003485
 21
-4.2763343007
 31
0.0
  0
LINE
  5
13F
330
A8
100
AcDbEntity
  8
0
  6
Continuous
 62
     0
370
    18
100
AcDbLine
 10
-33.8597353116
 20
8.0799578449
 30
0.0
 11
-34.0232431347
 21
10.574605153
 31
0.0
  0
LINE
  5
140
330
A8
100
AcDbEntity
  8
0
  6
Continuous
 62
     0
370
    18
100
AcDbLine
 10
-33.8597353116
 20
8.0799578449
 30
0.0
 11
-33.6962274886
 21
5.5853105368
 31
0.0
  0
LINE
  5
141
330
A8
100
AcDbEntity
  8
0
  6
Continuous
 62
     0
370
    18
100
AcDbLine
 10
-34.1867509578
 20
13.0692524611
 30
0.0
 11
-34.2390734612
 21
13.8675395997
 31
0.0
  0
LINE
  5
142
330
A8
100
AcDbEntity
  8
0
  6
Continuous
 62
     0
370
    18
100
AcDbLine
 10
-33.5327196655
 20
3.0906632287
 30
0.0
 11
-33.4803971621
 21
2.2923760901
 31
0.0
  0
LINE
  5
143
330
A8
100
AcDbEntity
  8
0
  6
Continuous
 62
     0
370
    18
100
AcDbLine
 10
0.6962813936
 20
-22.2248554604
 30
0.0
 11
3.1909287017
 21
-22.0613476373
 31
0.0
  0
LINE
  5
144
330
A8
100
AcDbEntity
  8
0
  6
Continuous
 62
     0
370
    18
100
AcDbLine
 10
0.6962813936
 20
-22.2248554604
 30
0.0
 11
-1.7983659145
 21
-22.3883632834
 31
0.0
  0
LINE
  5
145
330
A8
100
AcDbEntity
  8
0
  6
Continuous
 62
     0
370
    18
100
AcDbLine
 10
5.6855760098
 20
-21.8978398142
 30
0.0
 11
6.4838631484
 21
-21.8455173108
 31
0.0
  0
LINE
  5
146
330
A8
100
AcDbEntity
  8
0
  6
Continuous
 62
     0
370
    18
100
AcDbLine
 10
-4.2930132226
 20
-22.5518711065
 30
0.0
 11
-5.0913003612
 21
-22.6041936099
 31
0.0
  0
LINE
  5
147
330
A8
100
AcDbEntity
  8
0
  6
Continuous
 62
     0
370
    18
100
AcDbLine
 10
-7.2993398686
 20
-45.7791961511
 30
0.0
 11
-5.4197403499
 21
-47.4275606889
 31
0.0
  0
LINE
  5
148
330
A8
100
AcDbEntity
  8
0
  6
Continuous
 62
     0
370
    18
100
AcDbLine
 10
-7.2993398686
 20
-45.7791961511
 30
0.0
 11
-9.1789393873
 21
-44.1308316134
 31
0.0
  0
LINE
  5
149
330
A8
100
AcDbEntity
  8
0
  6
Continuous
 62
     0
370
    18
100
AcDbLine
 10
-3.5401408312
 20
-49.0759252266
 30
0.0
 11
-2.9386689852
 21
-49.6034018787
 31
0.0
  0
LINE
  5
14A
330
A8
100
AcDbEntity
  8
0
  6
Continuous
 62
     0
370
    18
100
AcDbLine
 10
-11.058538906
 20
-42.4824670756
 30
0.0
 11
-11.660010752
 21
-41.9549904235
 31
0.0
  0
LINE
  5
14B
330
A8
100
AcDbEntity
  8
0
  6
Continuous
 62
     0
370
    18
100
AcDbLine
 10
-29.6085319117
 20
-56.7808721656
 30
0.0
 11
-29.4450240886
 21
-59.2755194737
 31
0.0
  0
LINE
  5
14C
330
A8
100
AcDbEntity
  8
0
  6
Continuous
 62
     0
370
    18
100
AcDbLine
 10
-29.6085319117
 20
-56.7808721656
 30
0.0
 11
-29.7720397347
 21
-54.2862248575
 31
0.0
  0
LINE
  5
14D
330
A8
100
AcDbEntity
  8
0
  6
Continuous
 62
     0
370
    18
100
AcDbLine
 10
-29.2815162655
 20
-61.7701667818
 30
0.0
 11
-29.2291937621
 21
-62.5684539204
 31
0.0
  0
LINE
  5
14E
330
A8
100
AcDbEntity
  8
0
  6
Continuous
 62
     0
370
    18
100
AcDbLine
 10
-29.9355475578
 20
-51.7915775494
 30
0.0
 11
-29.9878700612
 21
-50.9932904108
 31
0.0
  0
LINE
  5
14F
330
A8
100
AcDbEntity
  8
0
  6
Continuous
 62
     0
370
    18
100
AcDbLine
 10
-53.1628726024
 20
-48.7852509034
 30
0.0
 11
-54.8112371402
 21
-50.6648504221
 31
0.0
  0
LINE
  5
150
330
A8
100
AcDbEntity
  8
0
  6
Continuous
 62
     0
370
    18
100
AcDbLine
 10
-53.1628726024
 20
-48.7852509034
 30
0.0
 11
-51.5145080647
 21
-46.9056513847
 31
0.0
  0
LINE
  5
151
330
A8
100
AcDbEntity
  8
0
  6
Continuous
 62
     0
370
    18
100
AcDbLine
 10
-56.4596016779
 20
-52.5444499408
 30
0.0
 11
-56.98707833
 21
-53.1459217868
 31
0.0
  0
LINE
  5
152
330
A8
100
AcDbEntity
  8
0
  6
Continuous
 62
     0
370
    18
100
AcDbLine
 10
-49.8661435269
 20
-45.026051866
 30
0.0
 11
-49.3386668748
 21
-44.42458002
 31
0.0
  0
LINE
  5
153
330
A8
100
AcDbEntity
  8
0
  6
Continuous
 62
     0
370
    18
100
AcDbLine
 10
-64.1645486169
 20
-26.4760588603
 30
0.0
 11
-66.659195925
 21
-26.6395666834
 31
0.0
  0
LINE
  5
154
330
A8
100
AcDbEntity
  8
0
  6
Continuous
 62
     0
370
    18
100
AcDbLine
 10
-64.1645486169
 20
-26.4760588603
 30
0.0
 11
-61.6699013088
 21
-26.3125510373
 31
0.0
  0
LINE
  5
155
330
A8
100
AcDbEntity
  8
0
  6
Continuous
 62
     0
370
    18
100
AcDbLine
 10
-69.1538432331
 20
-26.8030745065
 30
0.0
 11
-69.9521303717
 21
-26.8553970099
 31
0.0
  0
LINE
  5
156
330
A8
100
AcDbEntity
  8
0
  6
Continuous
 62
     0
370
    18
100
AcDbLine
 10
-59.1752540007
 20
-26.1490432142
 30
0.0
 11
-58.3769668621
 21
-26.0967207108
 31
0.0
  0
LINE
  5
157
330
A8
100
AcDbEntity
  8
0
  6
Continuous
 62
     0
370
    18
100
AcDbLine
 10
-56.1689273547
 20
-2.9217181696
 30
0.0
 11
-58.0485268734
 21
-1.2733536318
 31
0.0
  0
LINE
  5
158
330
A8
100
AcDbEntity
  8
0
  6
Continuous
 62
     0
370
    18
100
AcDbLine
 10
-56.1689273547
 20
-2.9217181696
 30
0.0
 11
-54.289327836
 21
-4.5700827073
 31
0.0
  0
LINE
  5
159
330
A8
100
AcDbEntity
  8
0
  6
Continuous
 62
     0
370
    18
100
AcDbLine
 10
-59.9281263921
 20
0.3750109059
 30
0.0
 11
-60.5295982381
 21
0.902487558
 31
0.0
  0
LINE
  5
15A
330
A8
100
AcDbEntity
  8
0
  6
Continuous
 62
     0
370
    18
100
AcDbLine
 10
-52.4097283173
 20
-6.2184472451
 30
0.0
 11
-51.8082564713
 21
-6.7459238972
 31
0.0
  0
ENDBLK
  5
AA
330
A8
100
AcDbEntity
  8
0
100
AcDbBlockEnd
  0
ENDSEC
  0
SECTION
  2
ENTITIES
  0
MTEXT
  5
64
330
1F
100
AcDbEntity
  8
0
  6
Continuous
 62
     7
370
     0
100
AcDbMText
 10
-263.1900622583
 20
14.315058842
 30
0.0
 40
12.7
 41
0.0
 71
     1
 72
     1
  1
DKP SAC
  7
SLDTEXTSTYLE0
 73
     1
 44
1.0
  0
MTEXT
  5
65
330
1F
100
AcDbEntity
  8
0
  6
Continuous
 62
     7
370
     0
100
AcDbMText
 10
-263.1900622583
 20
-3.6182744506
 30
0.0
 40
12.7
 41
0.0
 71
     1
 72
     1
  1
4 mm
  7
SLDTEXTSTYLE0
 73
     1
 44
1.0
  0
MTEXT
  5
66
330
1F
100
AcDbEntity
  8
0
  6
Continuous
 62
     7
370
     0
100
AcDbMText
 10
-263.1900622583
 20
-21.5516077432
 30
0.0
 40
12.7
 41
0.0
 71
     1
 72
     1
  1
2 Adet
  7
SLDTEXTSTYLE0
 73
     1
 44
1.0
  0
LINE
  5
67
330
1F
100
AcDbEntity
  8
0
  6
Continuous
 62
     7
100
AcDbLine
 10
-275.8907606963
 20
109.3671826427
 30
0.0
 11
-209.8255280164
 21
109.3671826427
 31
0.0
  0
LINE
  5
68
330
1F
100
AcDbEntity
  8
0
  6
HIDDEN
 62
     7
100
AcDbLine
 10
-276.3772025372
 20
117.4512530924
 30
0.0
 11
-209.3459286285
 21
117.4512530924
 31
0.0
  0
CIRCLE
  5
69
330
1F
100
AcDbEntity
  8
0
  6
Continuous
 62
     7
370
    35
100
AcDbCircle
 10
-242.9205872038
 20
188.8582527495
 30
0.0
 40
25.04999999999998
  0
CIRCLE
  5
6A
330
1F
100
AcDbEntity
  8
0
  6
Continuous
 62
     7
370
    35
100
AcDbCircle
 10
-222.9205872038
 20
223.4992689009
 30
0.0
 40
3.300000000000011
  0
CIRCLE
  5
6B
330
1F
100
AcDbEntity
  8
0
  6
Continuous
 62
     7
370
    35
100
AcDbCircle
 10
-211.1864535921
 20
213.2087099098
 30
0.0
 40
3.300000000000011
  0
CIRCLE
  5
6C
330
1F
100
AcDbEntity
  8
0
  6
Continuous
 62
     7
370
    35
100
AcDbCircle
 10
-204.2835541522
 20
199.2110145536
 30
0.0
 40
3.299999999999983
  0
CIRCLE
  5
6D
330
1F
100
AcDbEntity
  8
0
  6
Continuous
 62
     7
370
    35
100
AcDbCircle
 10
-203.2627927488
 20
183.6372050607
 30
0.0
 40
3.300000000000011
  0
CIRCLE
  5
6E
330
1F
100
AcDbEntity
  8
0
  6
Continuous
 62
     7
370
    35
100
AcDbCircle
 10
-208.2795710524
 20
168.8582527495
 30
0.0
 40
3.300000000000011
  0
CIRCLE
  5
6F
330
1F
100
AcDbEntity
  8
0
  6
Continuous
 62
     7
370
    35
100
AcDbCircle
 10
-218.5701300434
 20
157.1241191378
 30
0.0
 40
3.300000000000011
  0
CIRCLE
  5
70
330
1F
100
AcDbEntity
  8
0
  6
Continuous
 62
     7
370
    35
100
AcDbCircle
 10
-232.5678253997
 20
150.2212196979
 30
0.0
 40
3.299999999999983
  0
CIRCLE
  5
71
330
1F
100
AcDbEntity
  8
0
  6
Continuous
 62
     7
370
    35
100
AcDbCircle
 10
-248.1416348926
 20
149.2004582945
 30
0.0
 40
3.299999999999983
  0
CIRCLE
  5
72
330
1F
100
AcDbEntity
  8
0
  6
Continuous
 62
     7
370
    35
100
AcDbCircle
 10
-262.9205872038
 20
154.2172365981
 30
0.0
 40
3.300000000000011
  0
CIRCLE
  5
73
330
1F
100
AcDbEntity
  8
0
  6
Continuous
 62
     7
370
    35
100
AcDbCircle
 10
-274.6547208154
 20
164.5077955891
 30
0.0
 40
3.300000000000068
  0
CIRCLE
  5
74
330
1F
100
AcDbEntity
  8
0
  6
Continuous
 62
     7
370
    35
100
AcDbCircle
 10
-281.5576202553
 20
178.5054909454
 30
0.0
 40
3.299999999999955
  0
CIRCLE
  5
75
330
1F
100
AcDbEntity
  8
0
  6
Continuous
 62
     7
370
    35
100
AcDbCircle
 10
-282.5783816587
 20
194.0793004383
 30
0.0
 40
3.300000000000011
  0
CIRCLE
  5
76
330
1F
100
AcDbEntity
  8
0
  6
Continuous
 62
     7
370
    35
100
AcDbCircle
 10
-277.5616033551
 20
208.8582527495
 30
0.0
 40
3.300000000000011
  0
CIRCLE
  5
77
330
1F
100
AcDbEntity
  8
0
  6
Continuous
 62
     7
370
    35
100
AcDbCircle
 10
-267.2710443641
 20
220.5923863611
 30
0.0
 40
3.300000000000011
  0
CIRCLE
  5
78
330
1F
100
AcDbEntity
  8
0
  6
Continuous
 62
     7
370
    35
100
AcDbCircle
 10
-253.2733490079
 20
227.495285801
 30
0.0
 40
3.299999999999983
  0
CIRCLE
  5
79
330
1F
100
AcDbEntity
  8
0
  6
Continuous
 62
     7
370
    35
100
AcDbCircle
 10
-237.699539515
 20
228.5160472044
 30
0.0
 40
3.300000000000011
  0
CIRCLE
  5
7A
330
1F
100
AcDbEntity
  8
0
  6
Continuous
 62
     7
370
    35
100
AcDbCircle
 10
-221.491848213
 20
213.2930464925
 30
0.0
 40
3.300000000000011
  0
CIRCLE
  5
7B
330
1F
100
AcDbEntity
  8
0
  6
Continuous
 62
     7
370
    35
100
AcDbCircle
 10
-210.4901721985
 20
190.9838544495
 30
0.0
 40
3.299999999999983
  0
CIRCLE
  5
7C
330
1F
100
AcDbEntity
  8
0
  6
Continuous
 62
     7
370
    35
100
AcDbCircle
 10
-240.7949855038
 20
156.4278377442
 30
0.0
 40
3.299999999999983
  0
CIRCLE
  5
7D
330
1F
100
AcDbEntity
  8
0
  6
Continuous
 62
     7
370
    35
100
AcDbCircle
 10
-264.3493261945
 20
164.4234590064
 30
0.0
 40
3.299999999999955
  0
CIRCLE
  5
7E
330
1F
100
AcDbEntity
  8
0
  6
Continuous
 62
     7
370
    35
100
AcDbCircle
 10
-275.351002209
 20
186.7326510495
 30
0.0
 40
3.299999999999955
  0
CIRCLE
  5
7F
330
1F
100
AcDbEntity
  8
0
  6
Continuous
 62
     7
370
    35
100
AcDbCircle
 10
-242.7242991842
 20
39.6901118501
 30
0.0
 40
4.25
  0
CIRCLE
  5
80
330
1F
100
AcDbEntity
  8
0
  6
Continuous
 62
     7
370
    35
100
AcDbCircle
 10
-245.2723367969
 20
74.6867821848
 30
0.0
 40
4.25
  0
LINE
  5
81
330
1F
100
AcDbEntity
  8
0
  6
Continuous
 62
     7
370
    35
100
AcDbLine
 10
-276.3772025372
 20
117.4512530924
 30
0.0
 11
-291.38299118
 21
176.5539689082
 31
0.0
  0
ARC
  5
82
330
1F
100
AcDbEntity
  8
0
  6
Continuous
 62
     7
370
    35
100
AcDbCircle
 10
-242.9205872038
 20
188.8582527495
 30
0.0
 40
50.00000000000002
100
AcDbArc
 50
342.4980079145
 51
194.2460029248
  0
LINE
  5
83
330
1F
100
AcDbEntity
  8
0
  6
Continuous
 62
     7
370
    35
100
AcDbLine
 10
-195.2352624489
 20
173.8213048203
 30
0.0
 11
-209.3459286285
 21
117.4512530924
 31
0.0
  0
LINE
  5
84
330
1F
100
AcDbEntity
  8
0
  6
Continuous
 62
     7
370
    35
100
AcDbLine
 10
-209.3459286285
 20
111.2831121931
 30
0.0
 11
-209.3459286285
 21
117.4512530924
 31
0.0
  0
LINE
  5
85
330
1F
100
AcDbEntity
  8
0
  6
Continuous
 62
     7
370
    35
100
AcDbLine
 10
-209.3459286285
 20
111.2831121931
 30
0.0
 11
-228.278034257
 21
35.6521136268
 31
0.0
  0
ARC
  5
86
330
1F
100
AcDbEntity
  8
0
  6
Continuous
 62
     7
370
    35
100
AcDbCircle
 10
-242.7242991842
 20
39.6901118501
 30
0.0
 40
14.99999999999998
100
AcDbArc
 50
194.2460029248
 51
344.383339301
  0
LINE
  5
87
330
1F
100
AcDbEntity
  8
0
  6
Continuous
 62
     7
370
    35
100
AcDbLine
 10
-257.2630203771
 20
35.9988266978
 30
0.0
 11
-276.3772025372
 21
111.2831121931
 31
0.0
  0
LINE
  5
88
330
1F
100
AcDbEntity
  8
0
  6
Continuous
 62
     7
370
    35
100
AcDbLine
 10
-276.3772025372
 20
111.2831121931
 30
0.0
 11
-276.3772025372
 21
117.4512530924
 31
0.0
  0
CIRCLE
  5
89
330
1F
100
AcDbEntity
  8
0
  6
Continuous
 62
     7
370
    35
100
AcDbCircle
 10
-245.0461889037
 20
221.2886677547
 30
0.0
 40
3.299999999999983
  0
CIRCLE
  5
8A
330
1F
100
AcDbEntity
  8
0
  6
Continuous
 62
     7
370
    35
100
AcDbCircle
 10
-218.4857934607
 20
167.4295137587
 30
0.0
 40
3.299999999999983
  0
CIRCLE
  5
8B
330
1F
100
AcDbEntity
  8
0
  6
Continuous
 62
     7
370
    35
100
AcDbCircle
 10
-267.3553809468
 20
210.2869917402
 30
0.0
 40
3.300000000000011
  0
MTEXT
  5
8D
330
1F
100
AcDbEntity
  8
0
  6
Continuous
 62
     7
370
     0
100
AcDbMText
 10
-243.5715128094
 20
113.8232540934
 30
0.0
 40
3.5
 41
0.0
 71
     2
 72
     1
  1
UP  90  R 1
  7
SLDTEXTSTYLE1
 73
     1
 44
1.0
  0
MTEXT
  5
8F
330
1F
100
AcDbEntity
  8
0
  6
Continuous
 62
     7
370
     0
100
AcDbMText
 10
-243.738995247
 20
122.0310869193
 30
0.0
 40
3.5
 41
0.0
 71
     2
 72
     1
  1
DOWN  90  R 1
  7
SLDTEXTSTYLE2
 73
     1
 44
1.0
  0
INSERT
  5
9B
330
1F
100
AcDbEntity
  8
0
  6
Continuous
 62
     7
370
    18
100
AcDbBlockReference
  2
SW_CENTERMARKSYMBOL_0
 10
-245.2723367969
 20
74.6867821848
 30
0.0
  0
INSERT
  5
A7
330
1F
100
AcDbEntity
  8
0
  6
Continuous
 62
     7
370
    18
100
AcDbBlockReference
  2
SW_CENTERMARKSYMBOL_1
 10
-242.7242991842
 20
39.6901118501
 30
0.0
  0
INSERT
  5
15B
330
1F
100
AcDbEntity
  8
0
  6
Continuous
 62
     7
370
    18
100
AcDbBlockReference
  2
SW_CENTERMARKSYMBOL_2
 10
-211.1864535921
 20
213.2087099098
 30
0.0
  0
LINE
  5
15C
330
1F
100
AcDbEntity
  8
0
  6
Continuous
 62
     7
370
    35
100
AcDbLine
 10
-104.7702409296
 20
221.04195678
 30
0.0
 11
-107.5986680544
 21
219.4091405563
 31
0.0
  0
LINE
  5
15D
330
1F
100
AcDbEntity
  8
0
  6
Continuous
 62
     7
370
    35
100
AcDbLine
 10
-105.2223244318
 20
130.8352532799
 30
0.0
 11
-57.8240939095
 21
103.4728372247
 31
0.0
  0
LINE
  5
15E
330
1F
100
AcDbEntity
  8
0
  6
Continuous
 62
     7
370
    35
100
AcDbLine
 10
-50.3351856522
 20
109.0626626978
 30
0.0
 11
-54.5955943714
 21
111.5221442999
 31
0.0
  0
LINE
  5
15F
330
1F
100
AcDbEntity
  8
0
  6
Continuous
 62
     7
370
    35
100
AcDbLine
 10
-67.8914448421
 20
50.3525433953
 30
0.0
 11
-65.0630177174
 21
51.985359619
 31
0.0
  0
LWPOLYLINE
  5
160
330
1F
100
AcDbEntity
  8
0
  6
Continuous
 62
     7
370
    35
100
AcDbPolyline
 90
       80
 70
   128
 43
0.0
 10
-64.8876748697
 20
165.8811858367
 10
-64.9436685929
 20
167.5386116363
 10
-65.111295752
 20
169.250207633
 10
-65.3894965541
 20
171.0051525659
 10
-65.7765121244
 20
172.7923511079
 10
-66.2698956255
 20
174.6005040146
 10
-66.8665277284
 20
176.4181795611
 10
-67.5626363326
 20
178.2338858173
 10
-68.3538204155
 20
180.0361433036
 10
-69.2350778565
 20
181.813557568
 10
-70.2008370625
 20
183.5548912252
 10
-71.2449921926
 20
185.2491350032
 10
-72.3609417621
 20
186.8855773474
 10
-73.5416303784
 20
188.4538721422
 10
-74.7795933479
 20
189.9441041231
 10
-76.0670038702
 20
191.3468515637
 10
-77.3957225214
 20
192.6532458431
 10
-78.7573487145
 20
193.8550275159
 10
-80.1432738102
 20
194.9445985315
 10
-81.5447355438
 20
195.9150702712
 10
-82.952873423
 20
196.7603071001
 10
-84.3587847468
 20
197.4749651588
 10
-85.7535808912
 20
198.0545261491
 10
-87.1284435057
 20
198.4953258997
 10
-88.4746802664
 20
198.7945775327
 10
-89.7837798309
 20
198.9503890828
 10
-91.0474656504
 20
198.9617754594
 10
-92.2577482961
 20
198.8286646741
 10
-93.4069759715
 20
198.5518982961
 10
-94.4878828893
 20
198.1332261316
 10
-95.493635208
 20
197.5752951607
 10
-96.4178742374
 20
196.8816328028
 10
-97.2547566409
 20
196.0566246146
 10
-97.9989913785
 20
195.1054865636
 10
-98.6458731586
 20
194.0342320505
 10
-99.1913121862
 20
192.8496338916
 10
-99.6318600202
 20
191.5591814976
 10
-99.9647313754
 20
190.1710335242
 10
-100.1878217319
 20
188.6939662897
 10
-100.2997206406
 20
187.1373182888
 10
-100.2997206406
 20
185.5109311513
 10
-100.1878217319
 20
183.8250874204
 10
-99.9647313754
 20
182.090445543
 10
-99.6318600202
 20
180.3179724834
 10
-99.1913121862
 20
178.5188743871
 10
-98.6458731586
 20
176.7045257314
 10
-97.9989913785
 20
174.8863974128
 10
-97.2547566409
 20
173.0759842239
 10
-96.4178742374
 20
171.2847321797
 10
-95.493635208
 20
169.5239661523
 10
-94.4878828893
 20
167.8048182716
 10
-93.4069759715
 20
166.138157544
 10
-92.2577482961
 20
164.5345211351
 10
-91.0474656504
 20
163.0040477507
 10
-89.7837798309
 20
161.5564135364
 10
-88.4746802664
 20
160.2007709015
 10
-87.1284435057
 20
158.9456906555
 10
-85.7535808912
 20
157.7991078197
 10
-84.3587847468
 20
156.76827146
 10
-82.952873423
 20
155.8596988557
 10
-81.5447355438
 20
155.0791342954
 10
-80.1432738102
 20
154.4315127595
 10
-78.7573487145
 20
153.9209287199
 10
-77.3957225214
 20
153.5506102533
 10
-76.0670038702
 20
153.3228986323
 10
-74.7795933479
 20
153.2392335231
 10
-73.5416303784
 20
153.3001438833
 10
-72.3609417621
 20
153.5052446182
 10
-71.2449921926
 20
153.8532390148
 10
-70.2008370625
 20
154.3419269405
 10
-69.2350778565
 20
154.9682187529
 10
-68.3538204155
 20
155.7281548335
 10
-67.5626363326
 20
156.6169306218
 10
-66.8665277284
 20
157.628926991
 10
-66.2698956255
 20
158.7577457742
 10
-65.7765121244
 20
159.9962502157
 10
-65.3894965541
 20
161.3366100917
 10
-65.111295752
 20
162.7703512154
 10
-64.9436685929
 20
164.2884090138
 10
-64.8876748697
 20
165.8811858367
  0
LWPOLYLINE
  5
161
330
1F
100
AcDbEntity
  8
0
  6
Continuous
 62
     7
370
    35
100
AcDbPolyline
 90
       29
 70
   128
 43
0.0
 10
-66.1251117368
 20
194.8813463873
 10
-66.1836162598
 20
195.514721829
 10
-66.3561961675
 20
196.1838850656
 10
-66.6341975828
 20
196.8552814584
 10
-67.003680354
 20
197.4952443887
 10
-67.4461170719
 20
198.0716834428
 10
-67.9393221123
 20
198.5556935597
 10
-68.4585641147
 20
198.9230044511
 10
-68.9778061172
 20
199.155197615
 10
-69.4710111575
 20
199.2406299167
 10
-69.9134478755
 20
199.1750174238
 10
-70.2829306466
 20
198.9616502208
 10
-70.560932062
 20
198.6112274301
 10
-70.7335119697
 20
198.1413207136
 10
-70.7920164926
 20
197.5754931564
 10
-70.7335119697
 20
196.9421177147
 10
-70.560932062
 20
196.2729544781
 10
-70.2829306466
 20
195.6015580853
 10
-69.9134478755
 20
194.9615951551
 10
-69.4710111575
 20
194.3851561009
 10
-68.9778061172
 20
193.901145984
 10
-68.4585641147
 20
193.5338350926
 10
-67.9393221123
 20
193.3016419287
 10
-67.4461170719
 20
193.216209627
 10
-67.003680354
 20
193.2818221199
 10
-66.6341975828
 20
193.4951893229
 10
-66.3561961675
 20
193.8456121136
 10
-66.1836162598
 20
194.3155188301
 10
-66.1251117368
 20
194.8813463873
  0
LWPOLYLINE
  5
162
330
1F
100
AcDbEntity
  8
0
  6
Continuous
 62
     7
370
    35
100
AcDbPolyline
 90
       29
 70
   128
 43
0.0
 10
-57.8278262887
 20
181.6887640612
 10
-57.8863308116
 20
182.3221395028
 10
-58.0589107193
 20
182.9913027394
 10
-58.3369121347
 20
183.6626991322
 10
-58.7063949058
 20
184.3026620625
 10
-59.1488316238
 20
184.8791011167
 10
-59.6420366641
 20
185.3631112336
 10
-60.1612786666
 20
185.7304221249
 10
-60.6805206691
 20
185.9626152888
 10
-61.1737257094
 20
186.0480475905
 10
-61.6161624273
 20
185.9824350977
 10
-61.9856451985
 20
185.7690678946
 10
-62.2636466138
 20
185.4186451039
 10
-62.4362265216
 20
184.9487383874
 10
-62.4947310445
 20
184.3829108302
 10
-62.4362265216
 20
183.7495353885
 10
-62.2636466138
 20
183.0803721519
 10
-61.9856451985
 20
182.4089757591
 10
-61.6161624273
 20
181.7690128289
 10
-61.1737257094
 20
181.1925737747
 10
-60.6805206691
 20
180.7085636578
 10
-60.1612786666
 20
180.3412527665
 10
-59.6420366641
 20
180.1090596025
 10
-59.1488316238
 20
180.0236273008
 10
-58.7063949058
 20
180.0892397937
 10
-58.3369121347
 20
180.3026069967
 10
-58.0589107193
 20
180.6530297875
 10
-57.8863308116
 20
181.1229365039
 10
-57.8278262887
 20
181.6887640612
  0
LWPOLYLINE
  5
163
330
1F
100
AcDbEntity
  8
0
  6
Continuous
 62
     7
370
    35
100
AcDbPolyline
 90
       29
 70
   128
 43
0.0
 10
-52.9467392849
 20
167.4412829815
 10
-53.0052438078
 20
168.0746584232
 10
-53.1778237155
 20
168.7438216598
 10
-53.4558251309
 20
169.4152180526
 10
-53.825307902
 20
170.0551809828
 10
-54.26774462
 20
170.631620037
 10
-54.7609496603
 20
171.1156301539
 10
-55.2801916628
 20
171.4829410453
 10
-55.7994336652
 20
171.7151342092
 10
-56.2926387056
 20
171.8005665109
 10
-56.7350754235
 20
171.734954018
 10
-57.1045581947
 20
171.521586815
 10
-57.38255961
 20
171.1711640243
 10
-57.5551395177
 20
170.7012573078
 10
-57.6136440407
 20
170.1354297505
 10
-57.5551395177
 20
169.5020543089
 10
-57.38255961
 20
168.8328910723
 10
-57.1045581947
 20
168.1614946795
 10
-56.7350754235
 20
167.5215317492
 10
-56.2926387056
 20
166.9450926951
 10
-55.7994336652
 20
166.4610825782
 10
-55.2801916628
 20
166.0937716868
 10
-54.7609496603
 20
165.8615785229
 10
-54.26774462
 20
165.7761462212
 10
-53.825307902
 20
165.8417587141
 10
-53.4558251309
 20
166.0551259171
 10
-53.1778237155
 20
166.4055487078
 10
-53.0052438078
 20
166.8754554243
 10
-52.9467392849
 20
167.4412829815
  0
LWPOLYLINE
  5
164
330
1F
100
AcDbEntity
  8
0
  6
Continuous
 62
     7
370
    35
100
AcDbPolyline
 90
       29
 70
   128
 43
0.0
 10
-52.2249519745
 20
154.3079529891
 10
-52.2834564975
 20
154.9413284307
 10
-52.4560364052
 20
155.6104916673
 10
-52.7340378206
 20
156.2818880601
 10
-53.1035205917
 20
156.9218509904
 10
-53.5459573097
 20
157.4982900445
 10
-54.03916235
 20
157.9823001615
 10
-54.5584043525
 20
158.3496110528
 10
-55.0776463549
 20
158.5818042167
 10
-55.5708513952
 20
158.6672365184
 10
-56.0132881132
 20
158.6016240256
 10
-56.3827708844
 20
158.3882568225
 10
-56.6607722997
 20
158.0378340318
 10
-56.8333522074
 20
157.5679273153
 10
-56.8918567304
 20
157.0020997581
 10
-56.8333522074
 20
156.3687243164
 10
-56.6607722997
 20
155.6995610798
 10
-56.3827708844
 20
155.028164687
 10
-56.0132881132
 20
154.3882017568
 10
-55.5708513952
 20
153.8117627026
 10
-55.0776463549
 20
153.3277525857
 10
-54.5584043525
 20
152.9604416943
 10
-54.03916235
 20
152.7282485304
 10
-53.5459573097
 20
152.6428162287
 10
-53.1035205917
 20
152.7084287216
 10
-52.7340378206
 20
152.9217959246
 10
-52.4560364052
 20
153.2722187154
 10
-52.2834564975
 20
153.7421254318
 10
-52.2249519745
 20
154.3079529891
  0
LWPOLYLINE
  5
165
330
1F
100
AcDbEntity
  8
0
  6
Continuous
 62
     7
370
    35
100
AcDbPolyline
 90
       29
 70
   128
 43
0.0
 10
-55.7723499327
 20
144.2882045212
 10
-55.8308544557
 20
144.9215799628
 10
-56.0034343634
 20
145.5907431995
 10
-56.2814357787
 20
146.2621395922
 10
-56.6509185499
 20
146.9021025225
 10
-57.0933552678
 20
147.4785415767
 10
-57.5865603082
 20
147.9625516936
 10
-58.1058023106
 20
148.3298625849
 10
-58.6250443131
 20
148.5620557488
 10
-59.1182493534
 20
148.6474880505
 10
-59.5606860714
 20
148.5818755577
 10
-59.9301688425
 20
148.3685083546
 10
-60.2081702579
 20
148.0180855639
 10
-60.3807501656
 20
147.5481788474
 10
-60.4392546885
 20
146.9823512902
 10
-60.3807501656
 20
146.3489758486
 10
-60.2081702579
 20
145.6798126119
 10
-59.9301688425
 20
145.0084162192
 10
-59.5606860714
 20
144.3684532889
 10
-59.1182493534
 20
143.7920142347
 10
-58.6250443131
 20
143.3080041178
 10
-58.1058023106
 20
142.9406932265
 10
-57.5865603082
 20
142.7085000625
 10
-57.0933552678
 20
142.6230677608
 10
-56.6509185499
 20
142.6886802537
 10
-56.2814357787
 20
142.9020474567
 10
-56.0034343634
 20
143.2524702475
 10
-55.8308544557
 20
143.7223769639
 10
-55.7723499327
 20
144.2882045212
  0
LWPOLYLINE
  5
166
330
1F
100
AcDbEntity
  8
0
  6
Continuous
 62
     7
370
    35
100
AcDbPolyline
 90
       29
 70
   128
 43
0.0
 10
-63.0488739775
 20
138.9074534529
 10
-63.1073785004
 20
139.5408288945
 10
-63.2799584082
 20
140.2099921312
 10
-63.5579598235
 20
140.8813885239
 10
-63.9274425946
 20
141.5213514542
 10
-64.3698793126
 20
142.0977905084
 10
-64.8630843529
 20
142.5818006253
 10
-65.3823263554
 20
142.9491115166
 10
-65.9015683579
 20
143.1813046805
 10
-66.3947733982
 20
143.2667369822
 10
-66.8372101161
 20
143.2011244894
 10
-67.2066928873
 20
142.9877572863
 10
-67.4846943026
 20
142.6373344956
 10
-67.6572742104
 20
142.1674277791
 10
-67.7157787333
 20
141.6016002219
 10
-67.6572742104
 20
140.9682247803
 10
-67.4846943026
 20
140.2990615436
 10
-67.2066928873
 20
139.6276651509
 10
-66.8372101161
 20
138.9877022206
 10
-66.3947733982
 20
138.4112631664
 10
-65.9015683579
 20
137.9272530495
 10
-65.3823263554
 20
137.5599421582
 10
-64.8630843529
 20
137.3277489943
 10
-64.3698793126
 20
137.2423166925
 10
-63.9274425946
 20
137.3079291854
 10
-63.5579598235
 20
137.5212963884
 10
-63.2799584082
 20
137.8717191792
 10
-63.1073785004
 20
138.3416258956
 10
-63.0488739775
 20
138.9074534529
  0
LWPOLYLINE
  5
167
330
1F
100
AcDbEntity
  8
0
  6
Continuous
 62
     7
370
    35
100
AcDbPolyline
 90
       29
 70
   128
 43
0.0
 10
-72.9467392849
 20
138.9848703577
 10
-73.0052438078
 20
139.6182457993
 10
-73.1778237155
 20
140.287409036
 10
-73.4558251309
 20
140.9588054287
 10
-73.825307902
 20
141.598768359
 10
-74.26774462
 20
142.1752074132
 10
-74.7609496603
 20
142.6592175301
 10
-75.2801916628
 20
143.0265284214
 10
-75.7994336652
 20
143.2587215853
 10
-76.2926387056
 20
143.344153887
 10
-76.7350754235
 20
143.2785413942
 10
-77.1045581947
 20
143.0651741911
 10
-77.38255961
 20
142.7147514004
 10
-77.5551395177
 20
142.2448446839
 10
-77.6136440407
 20
141.6790171267
 10
-77.5551395177
 20
141.0456416851
 10
-77.38255961
 20
140.3764784484
 10
-77.1045581947
 20
139.7050820557
 10
-76.7350754235
 20
139.0651191254
 10
-76.2926387056
 20
138.4886800712
 10
-75.7994336652
 20
138.0046699543
 10
-75.2801916628
 20
137.637359063
 10
-74.7609496603
 20
137.4051658991
 10
-74.26774462
 20
137.3197335973
 10
-73.825307902
 20
137.3853460902
 10
-73.4558251309
 20
137.5987132932
 10
-73.1778237155
 20
137.949136084
 10
-73.0052438078
 20
138.4190428004
 10
-72.9467392849
 20
138.9848703577
  0
LWPOLYLINE
  5
168
330
1F
100
AcDbEntity
  8
0
  6
Continuous
 62
     7
370
    35
100
AcDbPolyline
 90
       29
 70
   128
 43
0.0
 10
-83.9590855862
 20
144.5086692136
 10
-84.0175901091
 20
145.1420446553
 10
-84.1901700169
 20
145.8112078919
 10
-84.4681714322
 20
146.4826042847
 10
-84.8376542034
 20
147.1225672149
 10
-85.2800909213
 20
147.6990062691
 10
-85.7732959616
 20
148.183016386
 10
-86.2925379641
 20
148.5503272773
 10
-86.8117799666
 20
148.7825204413
 10
-87.3049850069
 20
148.867952743
 10
-87.7474217249
 20
148.8023402501
 10
-88.116904496
 20
148.5889730471
 10
-88.3949059113
 20
148.2385502563
 10
-88.5674858191
 20
147.7686435399
 10
-88.625990342
 20
147.2028159826
 10
-88.5674858191
 20
146.569440541
 10
-88.3949059113
 20
145.9002773043
 10
-88.116904496
 20
145.2288809116
 10
-87.7474217249
 20
144.5889179813
 10
-87.3049850069
 20
144.0124789271
 10
-86.8117799666
 20
143.5284688102
 10
-86.2925379641
 20
143.1611579189
 10
-85.7732959616
 20
142.928964755
 10
-85.2800909213
 20
142.8435324533
 10
-84.8376542034
 20
142.9091449461
 10
-84.4681714322
 20
143.1225121492
 10
-84.1901700169
 20
143.4729349399
 10
-84.0175901091
 20
143.9428416564
 10
-83.9590855862
 20
144.5086692136
  0
LWPOLYLINE
  5
169
330
1F
100
AcDbEntity
  8
0
  6
Continuous
 62
     7
370
    35
100
AcDbPolyline
 90
       29
 70
   128
 43
0.0
 10
-94.4093829843
 20
154.6379017182
 10
-94.4678875072
 20
155.2712771599
 10
-94.640467415
 20
155.9404403965
 10
-94.9184688303
 20
156.6118367893
 10
-95.2879516014
 20
157.2517997195
 10
-95.7303883194
 20
157.8282387737
 10
-96.2235933597
 20
158.3122488906
 10
-96.7428353622
 20
158.6795597819
 10
-97.2620773647
 20
158.9117529459
 10
-97.755282405
 20
158.9971852476
 10
-98.1977191229
 20
158.9315727547
 10
-98.5672018941
 20
158.7182055517
 10
-98.8452033094
 20
158.3677827609
 10
-99.0177832172
 20
157.8978760445
 10
-99.0762877401
 20
157.3320484872
 10
-99.0177832172
 20
156.6986730456
 10
-98.8452033094
 20
156.029509809
 10
-98.5672018941
 20
155.3581134162
 10
-98.1977191229
 20
154.7181504859
 10
-97.755282405
 20
154.1417114318
 10
-97.2620773647
 20
153.6577013148
 10
-96.7428353622
 20
153.2903904235
 10
-96.2235933597
 20
153.0581972596
 10
-95.7303883194
 20
152.9727649579
 10
-95.2879516014
 20
153.0383774507
 10
-94.9184688303
 20
153.2517446538
 10
-94.640467415
 20
153.6021674445
 10
-94.4678875072
 20
154.072074161
 10
-94.4093829843
 20
154.6379017182
  0
LWPOLYLINE
  5
16A
330
1F
100
AcDbEntity
  8
0
  6
Continuous
 62
     7
370
    35
100
AcDbPolyline
 90
       29
 70
   128
 43
0.0
 10
-102.7066684324
 20
167.8304840444
 10
-102.7651729554
 20
168.463859486
 10
-102.9377528631
 20
169.1330227227
 10
-103.2157542784
 20
169.8044191154
 10
-103.5852370496
 20
170.4443820457
 10
-104.0276737676
 20
171.0208210999
 10
-104.5208788079
 20
171.5048312168
 10
-105.0401208103
 20
171.8721421081
 10
-105.5593628128
 20
172.104335272
 10
-106.0525678531
 20
172.1897675737
 10
-106.4950045711
 20
172.1241550809
 10
-106.8644873422
 20
171.9107878778
 10
-107.1424887576
 20
171.5603650871
 10
-107.3150686653
 20
171.0904583707
 10
-107.3735731883
 20
170.5246308134
 10
-107.3150686653
 20
169.8912553718
 10
-107.1424887576
 20
169.2220921351
 10
-106.8644873422
 20
168.5506957424
 10
-106.4950045711
 20
167.9107328121
 10
-106.0525678531
 20
167.3342937579
 10
-105.5593628128
 20
166.850283641
 10
-105.0401208103
 20
166.4829727497
 10
-104.5208788079
 20
166.2507795858
 10
-104.0276737676
 20
166.1653472841
 10
-103.5852370496
 20
166.2309597769
 10
-103.2157542784
 20
166.44432698
 10
-102.9377528631
 20
166.7947497707
 10
-102.7651729554
 20
167.2646564871
 10
-102.7066684324
 20
167.8304840444
  0
LWPOLYLINE
  5
16B
330
1F
100
AcDbEntity
  8
0
  6
Continuous
 62
     7
370
    35
100
AcDbPolyline
 90
       29
 70
   128
 43
0.0
 10
-107.5877554362
 20
182.077965124
 10
-107.6462599592
 20
182.7113405657
 10
-107.8188398669
 20
183.3805038023
 10
-108.0968412823
 20
184.0519001951
 10
-108.4663240534
 20
184.6918631253
 10
-108.9087607714
 20
185.2683021795
 10
-109.4019658117
 20
185.7523122964
 10
-109.9212078142
 20
186.1196231878
 10
-110.4404498166
 20
186.3518163517
 10
-110.9336548569
 20
186.4372486534
 10
-111.3760915749
 20
186.3716361605
 10
-111.745574346
 20
186.1582689575
 10
-112.0235757614
 20
185.8078461667
 10
-112.1961556691
 20
185.3379394503
 10
-112.2546601921
 20
184.772111893
 10
-112.1961556691
 20
184.1387364514
 10
-112.0235757614
 20
183.4695732148
 10
-111.745574346
 20
182.798176822
 10
-111.3760915749
 20
182.1582138917
 10
-110.9336548569
 20
181.5817748376
 10
-110.4404498166
 20
181.0977647207
 10
-109.9212078142
 20
180.7304538293
 10
-109.4019658117
 20
180.4982606654
 10
-108.9087607714
 20
180.4128283637
 10
-108.4663240534
 20
180.4784408565
 10
-108.0968412823
 20
180.6918080596
 10
-107.8188398669
 20
181.0422308503
 10
-107.6462599592
 20
181.5121375668
 10
-107.5877554362
 20
182.077965124
  0
LWPOLYLINE
  5
16C
330
1F
100
AcDbEntity
  8
0
  6
Continuous
 62
     7
370
    35
100
AcDbPolyline
 90
       29
 70
   128
 43
0.0
 10
-108.3095427465
 20
195.2112951165
 10
-108.3680472695
 20
195.8446705581
 10
-108.5406271772
 20
196.5138337948
 10
-108.8186285926
 20
197.1852301875
 10
-109.1881113637
 20
197.8251931178
 10
-109.6305480817
 20
198.401632172
 10
-110.123753122
 20
198.8856422889
 10
-110.6429951245
 20
199.2529531802
 10
-111.1622371269
 20
199.4851463441
 10
-111.6554421672
 20
199.5705786459
 10
-112.0978788852
 20
199.504966153
 10
-112.4673616564
 20
199.29159895
 10
-112.7453630717
 20
198.9411761592
 10
-112.9179429794
 20
198.4712694428
 10
-112.9764475024
 20
197.9054418855
 10
-112.9179429794
 20
197.2720664439
 10
-112.7453630717
 20
196.6029032072
 10
-112.4673616564
 20
195.9315068145
 10
-112.0978788852
 20
195.2915438842
 10
-111.6554421672
 20
194.71510483
 10
-111.1622371269
 20
194.2310947131
 10
-110.6429951245
 20
193.8637838218
 10
-110.123753122
 20
193.6315906579
 10
-109.6305480817
 20
193.5461583562
 10
-109.1881113637
 20
193.611770849
 10
-108.8186285926
 20
193.8251380521
 10
-108.5406271772
 20
194.1755608428
 10
-108.3680472695
 20
194.6454675592
 10
-108.3095427465
 20
195.2112951165
  0
LWPOLYLINE
  5
16D
330
1F
100
AcDbEntity
  8
0
  6
Continuous
 62
     7
370
    35
100
AcDbPolyline
 90
       29
 70
   128
 43
0.0
 10
-104.7621447884
 20
205.2310435844
 10
-104.8206493113
 20
205.864419026
 10
-104.9932292191
 20
206.5335822627
 10
-105.2712306344
 20
207.2049786554
 10
-105.6407134055
 20
207.8449415857
 10
-106.0831501235
 20
208.4213806399
 10
-106.5763551638
 20
208.9053907568
 10
-107.0955971663
 20
209.2727016481
 10
-107.6148391688
 20
209.504894812
 10
-108.1080442091
 20
209.5903271137
 10
-108.550480927
 20
209.5247146209
 10
-108.9199636982
 20
209.3113474178
 10
-109.1979651135
 20
208.9609246271
 10
-109.3705450213
 20
208.4910179106
 10
-109.4290495442
 20
207.9251903534
 10
-109.3705450213
 20
207.2918149118
 10
-109.1979651135
 20
206.6226516751
 10
-108.9199636982
 20
205.9512552823
 10
-108.550480927
 20
205.3112923521
 10
-108.1080442091
 20
204.7348532979
 10
-107.6148391688
 20
204.250843181
 10
-107.0955971663
 20
203.8835322897
 10
-106.5763551638
 20
203.6513391257
 10
-106.0831501235
 20
203.565906824
 10
-105.6407134055
 20
203.6315193169
 10
-105.2712306344
 20
203.8448865199
 10
-104.9932292191
 20
204.1953093107
 10
-104.8206493113
 20
204.6652160271
 10
-104.7621447884
 20
205.2310435844
  0
LWPOLYLINE
  5
16E
330
1F
100
AcDbEntity
  8
0
  6
Continuous
 62
     7
370
    35
100
AcDbPolyline
 90
       29
 70
   128
 43
0.0
 10
-97.4856207436
 20
210.6117946527
 10
-97.5441252666
 20
211.2451700943
 10
-97.7167051743
 20
211.914333331
 10
-97.9947065896
 20
212.5857297237
 10
-98.3641893608
 20
213.225692654
 10
-98.8066260788
 20
213.8021317082
 10
-99.2998311191
 20
214.2861418251
 10
-99.8190731215
 20
214.6534527164
 10
-100.338315124
 20
214.8856458803
 10
-100.8315201643
 20
214.971078182
 10
-101.2739568823
 20
214.9054656892
 10
-101.6434396534
 20
214.6920984861
 10
-101.9214410688
 20
214.3416756954
 10
-102.0940209765
 20
213.8717689789
 10
-102.1525254995
 20
213.3059414217
 10
-102.0940209765
 20
212.6725659801
 10
-101.9214410688
 20
212.0034027434
 10
-101.6434396534
 20
211.3320063506
 10
-101.2739568823
 20
210.6920434204
 10
-100.8315201643
 20
210.1156043662
 10
-100.338315124
 20
209.6315942493
 10
-99.8190731215
 20
209.264283358
 10
-99.2998311191
 20
209.032090194
 10
-98.8066260788
 20
208.9466578923
 10
-98.3641893608
 20
209.0122703852
 10
-97.9947065896
 20
209.2256375882
 10
-97.7167051743
 20
209.576060379
 10
-97.5441252666
 20
210.0459670954
 10
-97.4856207436
 20
210.6117946527
  0
LWPOLYLINE
  5
16F
330
1F
100
AcDbEntity
  8
0
  6
Continuous
 62
     7
370
    35
100
AcDbPolyline
 90
       29
 70
   128
 43
0.0
 10
-87.5877554362
 20
210.5343777479
 10
-87.6462599592
 20
211.1677531895
 10
-87.8188398669
 20
211.8369164262
 10
-88.0968412823
 20
212.5083128189
 10
-88.4663240534
 20
213.1482757492
 10
-88.9087607714
 20
213.7247148034
 10
-89.4019658117
 20
214.2087249203
 10
-89.9212078141
 20
214.5760358116
 10
-90.4404498166
 20
214.8082289755
 10
-90.9336548569
 20
214.8936612772
 10
-91.3760915749
 20
214.8280487844
 10
-91.745574346
 20
214.6146815813
 10
-92.0235757614
 20
214.2642587906
 10
-92.1961556691
 20
213.7943520741
 10
-92.2546601921
 20
213.2285245169
 10
-92.1961556691
 20
212.5951490753
 10
-92.0235757614
 20
211.9259858386
 10
-91.745574346
 20
211.2545894458
 10
-91.3760915749
 20
210.6146265156
 10
-90.9336548569
 20
210.0381874614
 10
-90.4404498166
 20
209.5541773445
 10
-89.9212078141
 20
209.1868664532
 10
-89.4019658117
 20
208.9546732892
 10
-88.9087607714
 20
208.8692409875
 10
-88.4663240534
 20
208.9348534804
 10
-88.0968412823
 20
209.1482206834
 10
-87.8188398669
 20
209.4986434742
 10
-87.6462599592
 20
209.9685501906
 10
-87.5877554362
 20
210.5343777479
  0
LWPOLYLINE
  5
170
330
1F
100
AcDbEntity
  8
0
  6
Continuous
 62
     7
370
    35
100
AcDbPolyline
 90
       29
 70
   128
 43
0.0
 10
-76.5754091349
 20
205.0105788919
 10
-76.6339136578
 20
205.6439543336
 10
-76.8064935656
 20
206.3131175702
 10
-77.0844949809
 20
206.984513963
 10
-77.4539777521
 20
207.6244768933
 10
-77.89641447
 20
208.2009159474
 10
-78.3896195103
 20
208.6849260643
 10
-78.9088615128
 20
209.0522369557
 10
-79.4281035153
 20
209.2844301196
 10
-79.9213085556
 20
209.3698624213
 10
-80.3637452736
 20
209.3042499284
 10
-80.7332280447
 20
209.0908827254
 10
-81.01122946
 20
208.7404599347
 10
-81.1838093678
 20
208.2705532182
 10
-81.2423138907
 20
207.704725661
 10
-81.1838093678
 20
207.0713502193
 10
-81.01122946
 20
206.4021869827
 10
-80.7332280447
 20
205.7307905899
 10
-80.3637452736
 20
205.0908276597
 10
-79.9213085556
 20
204.5143886055
 10
-79.4281035153
 20
204.0303784886
 10
-78.9088615128
 20
203.6630675972
 10
-78.3896195103
 20
203.4308744333
 10
-77.89641447
 20
203.3454421316
 10
-77.4539777521
 20
203.4110546245
 10
-77.0844949809
 20
203.6244218275
 10
-76.8064935656
 20
203.9748446182
 10
-76.6339136578
 20
204.4447513347
 10
-76.5754091349
 20
205.0105788919
  0
LINE
  5
171
330
1F
100
AcDbEntity
  8
0
  6
Continuous
 62
     7
370
    35
100
AcDbLine
 10
-116.8687942226
 20
185.8422973822
 30
0.0
 11
-106.624705359
 21
133.3361363032
 31
0.0
  0
LWPOLYLINE
  5
172
330
1F
100
AcDbEntity
  8
0
  6
Continuous
 62
     7
370
    35
100
AcDbPolyline
 90
       66
 70
   128
 43
0.0
 10
-48.8820832412
 20
144.3630727945
 10
-48.3323513277
 20
146.2782060537
 10
-47.8933691784
 20
148.2897401767
 10
-47.5665555127
 20
150.3911742103
 10
-47.3529665396
 20
152.5757166594
 10
-47.2532925442
 20
154.8363074356
 10
-47.2678556566
 20
157.1656406751
 10
-47.3966088112
 20
159.5561883491
 10
-47.6391358988
 20
162.0002245939
 10
-47.9946531108
 20
164.4898506793
 10
-48.4620114731
 20
167.0170205361
 10
-49.0397005591
 20
169.5735667598
 10
-49.7258533709
 20
172.151227006
 10
-50.5182523736
 20
174.7416706935
 10
-51.4143366616
 20
177.3365259269
 10
-52.4112102353
 20
179.9274065533
 10
-53.5056513604
 20
182.5059392652
 10
-54.6941229801
 20
185.0637906617
 10
-55.9727841461
 20
187.5926941804
 10
-57.3375024323
 20
190.0844768137
 10
-58.7838672895
 20
192.531085523
 10
-60.3072043005
 20
194.9246132641
 10
-61.902590286
 20
197.2573245423
 10
-63.5648692164
 20
199.5216804116
 10
-65.2886688749
 20
201.7103628399
 10
-67.0684182195
 20
203.8162983592
 10
-68.8983653879
 20
205.8326809261
 10
-70.7725962866
 20
207.7529939182
 10
-72.6850537042
 20
209.5710311942
 10
-74.6295568875
 20
211.2809171513
 10
-76.5998215163
 20
212.8771257145
 10
-78.5894800137
 20
214.3544981956
 10
-80.5921021251
 20
215.7082599656
 10
-82.6012156994
 20
216.9340358851
 10
-84.6103276062
 20
218.0278644446
 10
-86.6129447205
 20
218.9862105667
 10
-88.6025949073
 20
219.8059770318
 10
-90.5728479389
 20
220.4845144871
 10
-92.5173362759
 20
221.0196300092
 10
-94.4297756461
 20
221.4095941913
 10
-96.3039853545
 20
221.653146732
 10
-98.1339082583
 20
221.7495005089
 10
-99.9136303423
 20
221.6983441222
 10
-101.6373998324
 20
221.4998429012
 10
-103.2996457842
 20
221.1546383695
 10
-104.8949960873
 20
220.6638461726
 10
-106.4182948274
 20
220.0290524714
 10
-107.8646189491
 20
219.2523088167
 10
-109.2292941666
 20
218.3361255183
 10
-110.5079100702
 20
217.2834635328
 10
-111.6963343797
 20
216.0977248934
 10
-112.7907263
 20
214.7827417159
 10
-113.7875489332
 20
213.3427638133
 10
-114.6835807097
 20
211.7824449616
 10
-115.4759257994
 20
210.1068278592
 10
-116.1620234712
 20
208.3213278297
 10
-116.7396563683
 20
206.4317153207
 10
-117.2069576744
 20
204.4440972544
 10
-117.5624171472
 20
202.3648972913
 10
-117.8048859993
 20
200.2008350696
 10
-117.9335806104
 20
197.9589044888
 10
-117.9480850603
 20
195.646351106
 10
-117.8483524731
 20
193.2706487203
 10
-117.6347051683
 20
190.8394752177
 10
-117.3078336195
 20
188.3606877582
 10
-116.8687942226
 20
185.8422973822
  0
LINE
  5
173
330
1F
100
AcDbEntity
  8
0
  6
Continuous
 62
     7
370
    35
100
AcDbLine
 10
-58.4983817439
 20
105.5534010523
 30
0.0
 11
-48.8820832412
 21
144.3630727945
 31
0.0
  0
LINE
  5
174
330
1F
100
AcDbEntity
  8
0
  6
Continuous
 62
     7
370
    35
100
AcDbLine
 10
-58.4983817439
 20
105.5534010523
 30
0.0
 11
-106.624705359
 21
133.3361363032
 31
0.0
  0
LWPOLYLINE
  5
175
330
1F
100
AcDbEntity
  8
0
  6
Continuous
 62
     7
370
    35
100
AcDbPolyline
 90
       29
 70
   128
 43
0.0
 10
-81.7702747367
 20
202.1080606861
 10
-81.8287792596
 20
202.7414361278
 10
-82.0013591674
 20
203.4105993644
 10
-82.2793605827
 20
204.0819957572
 10
-82.6488433539
 20
204.7219586875
 10
-83.0912800718
 20
205.2983977416
 10
-83.5844851121
 20
205.7824078585
 10
-84.1037271146
 20
206.1497187499
 10
-84.6229691171
 20
206.3819119138
 10
-85.1161741574
 20
206.4673442155
 10
-85.5586108754
 20
206.4017317226
 10
-85.9280936465
 20
206.1883645196
 10
-86.2060950619
 20
205.8379417289
 10
-86.3786749696
 20
205.3680350124
 10
-86.4371794925
 20
204.8022074552
 10
-86.3786749696
 20
204.1688320135
 10
-86.2060950619
 20
203.4996687769
 10
-85.9280936465
 20
202.8282723841
 10
-85.5586108754
 20
202.1883094539
 10
-85.1161741574
 20
201.6118703997
 10
-84.6229691171
 20
201.1278602828
 10
-84.1037271146
 20
200.7605493914
 10
-83.5844851121
 20
200.5283562275
 10
-83.0912800718
 20
200.4429239258
 10
-82.6488433539
 20
200.5085364187
 10
-82.2793605827
 20
200.7219036217
 10
-82.0013591674
 20
201.0723264124
 10
-81.8287792596
 20
201.5422331289
 10
-81.7702747367
 20
202.1080606861
  0
LWPOLYLINE
  5
176
330
1F
100
AcDbEntity
  8
0
  6
Continuous
 62
     7
370
    35
100
AcDbPolyline
 90
       29
 70
   128
 43
0.0
 10
-65.1148407079
 20
185.9643322049
 10
-65.1733452308
 20
186.5977076466
 10
-65.3459251386
 20
187.2668708832
 10
-65.6239265539
 20
187.938267276
 10
-65.9934093251
 20
188.5782302062
 10
-66.435846043
 20
189.1546692604
 10
-66.9290510833
 20
189.6386793773
 10
-67.4482930858
 20
190.0059902686
 10
-67.9675350883
 20
190.2381834326
 10
-68.4607401286
 20
190.3236157343
 10
-68.9031768466
 20
190.2580032414
 10
-69.2726596177
 20
190.0446360384
 10
-69.5506610331
 20
189.6942132476
 10
-69.7232409408
 20
189.2243065312
 10
-69.7817454637
 20
188.6584789739
 10
-69.7232409408
 20
188.0251035323
 10
-69.5506610331
 20
187.3559402957
 10
-69.2726596177
 20
186.6845439029
 10
-68.9031768466
 20
186.0445809726
 10
-68.4607401286
 20
185.4681419185
 10
-67.9675350883
 20
184.9841318015
 10
-67.4482930858
 20
184.6168209102
 10
-66.9290510833
 20
184.3846277463
 10
-66.435846043
 20
184.2991954446
 10
-65.9934093251
 20
184.3648079374
 10
-65.6239265539
 20
184.5781751405
 10
-65.3459251386
 20
184.9285979312
 10
-65.1733452308
 20
185.3985046477
 10
-65.1148407079
 20
185.9643322049
  0
LWPOLYLINE
  5
177
330
1F
100
AcDbEntity
  8
0
  6
Continuous
 62
     7
370
    35
100
AcDbPolyline
 90
       29
 70
   128
 43
0.0
 10
-57.3354809936
 20
163.2570376506
 10
-57.3939855166
 20
163.8904130922
 10
-57.5665654243
 20
164.5595763289
 10
-57.8445668397
 20
165.2309727216
 10
-58.2140496108
 20
165.8709356519
 10
-58.6564863288
 20
166.4473747061
 10
-59.1496913691
 20
166.931384823
 10
-59.6689333716
 20
167.2986957143
 10
-60.188175374
 20
167.5308888782
 10
-60.6813804143
 20
167.6163211799
 10
-61.1238171323
 20
167.5507086871
 10
-61.4932999034
 20
167.337341484
 10
-61.7713013188
 20
166.9869186933
 10
-61.9438812265
 20
166.5170119769
 10
-62.0023857495
 20
165.9511844196
 10
-61.9438812265
 20
165.317808978
 10
-61.7713013188
 20
164.6486457413
 10
-61.4932999034
 20
163.9772493486
 10
-61.1238171323
 20
163.3372864183
 10
-60.6813804143
 20
162.7608473641
 10
-60.188175374
 20
162.2768372472
 10
-59.6689333716
 20
161.9095263559
 10
-59.1496913691
 20
161.677333192
 10
-58.6564863288
 20
161.5919008903
 10
-58.2140496108
 20
161.6575133831
 10
-57.8445668397
 20
161.8708805862
 10
-57.5665654243
 20
162.2213033769
 10
-57.3939855166
 20
162.6912100933
 10
-57.3354809936
 20
163.2570376506
  0
LWPOLYLINE
  5
178
330
1F
100
AcDbEntity
  8
0
  6
Continuous
 62
     7
370
    35
100
AcDbPolyline
 90
       29
 70
   128
 43
0.0
 10
-62.9892390079
 20
147.2878022083
 10
-63.0477435309
 20
147.9211776499
 10
-63.2203234386
 20
148.5903408866
 10
-63.498324854
 20
149.2617372794
 10
-63.8678076251
 20
149.9017002096
 10
-64.3102443431
 20
150.4781392638
 10
-64.8034493834
 20
150.9621493807
 10
-65.3226913858
 20
151.329460272
 10
-65.8419333883
 20
151.561653436
 10
-66.3351384286
 20
151.6470857377
 10
-66.7775751466
 20
151.5814732448
 10
-67.1470579177
 20
151.3681060418
 10
-67.4250593331
 20
151.017683251
 10
-67.5976392408
 20
150.5477765346
 10
-67.6561437638
 20
149.9819489773
 10
-67.5976392408
 20
149.3485735357
 10
-67.4250593331
 20
148.679410299
 10
-67.1470579177
 20
148.0080139063
 10
-66.7775751466
 20
147.368050976
 10
-66.3351384286
 20
146.7916119218
 10
-65.8419333883
 20
146.3076018049
 10
-65.3226913858
 20
145.9402909136
 10
-64.8034493834
 20
145.7080977497
 10
-64.3102443431
 20
145.622665448
 10
-63.8678076251
 20
145.6882779408
 10
-63.498324854
 20
145.9016451439
 10
-63.2203234386
 20
146.2520679346
 10
-63.0477435309
 20
146.7219746511
 10
-62.9892390079
 20
147.2878022083
  0
LWPOLYLINE
  5
179
330
1F
100
AcDbEntity
  8
0
  6
Continuous
 62
     7
370
    35
100
AcDbPolyline
 90
       29
 70
   128
 43
0.0
 10
-78.7642199844
 20
147.4111874194
 10
-78.8227245073
 20
148.0445628611
 10
-78.9953044151
 20
148.7137260977
 10
-79.2733058304
 20
149.3851224905
 10
-79.6427886016
 20
150.0250854207
 10
-80.0852253195
 20
150.6015244749
 10
-80.5784303598
 20
151.0855345918
 10
-81.0976723623
 20
151.4528454831
 10
-81.6169143648
 20
151.6850386471
 10
-82.1101194051
 20
151.7704709488
 10
-82.5525561231
 20
151.7048584559
 10
-82.9220388942
 20
151.4914912529
 10
-83.2000403095
 20
151.1410684621
 10
-83.3726202173
 20
150.6711617457
 10
-83.4311247402
 20
150.1053341884
 10
-83.3726202173
 20
149.4719587468
 10
-83.2000403095
 20
148.8027955102
 10
-82.9220388942
 20
148.1313991174
 10
-82.5525561231
 20
147.4914361871
 10
-82.1101194051
 20
146.914997133
 10
-81.6169143648
 20
146.430987016
 10
-81.0976723623
 20
146.0636761247
 10
-80.5784303598
 20
145.8314829608
 10
-80.0852253195
 20
145.7460506591
 10
-79.6427886016
 20
145.8116631519
 10
-79.2733058304
 20
146.025030355
 10
-78.9953044151
 20
146.3754531457
 10
-78.8227245073
 20
146.8453598622
 10
-78.7642199844
 20
147.4111874194
  0
LWPOLYLINE
  5
17A
330
1F
100
AcDbEntity
  8
0
  6
Continuous
 62
     7
370
    35
100
AcDbPolyline
 90
       29
 70
   128
 43
0.0
 10
-95.4196540132
 20
163.5549159006
 10
-95.4781585361
 20
164.1882913423
 10
-95.6507384439
 20
164.8574545789
 10
-95.9287398592
 20
165.5288509717
 10
-96.2982226303
 20
166.168813902
 10
-96.7406593483
 20
166.7452529561
 10
-97.2338643886
 20
167.229263073
 10
-97.7531063911
 20
167.5965739644
 10
-98.2723483936
 20
167.8287671283
 10
-98.7655534339
 20
167.91419943
 10
-99.2079901519
 20
167.8485869371
 10
-99.577472923
 20
167.6352197341
 10
-99.8554743383
 20
167.2847969434
 10
-100.0280542461
 20
166.8148902269
 10
-100.086558769
 20
166.2490626697
 10
-100.0280542461
 20
165.615687228
 10
-99.8554743383
 20
164.9465239914
 10
-99.577472923
 20
164.2751275986
 10
-99.2079901519
 20
163.6351646684
 10
-98.7655534339
 20
163.0587256142
 10
-98.2723483936
 20
162.5747154973
 10
-97.7531063911
 20
162.2074046059
 10
-97.2338643886
 20
161.975211442
 10
-96.7406593483
 20
161.8897791403
 10
-96.2982226303
 20
161.9553916332
 10
-95.9287398592
 20
162.1687588362
 10
-95.6507384439
 20
162.5191816269
 10
-95.4781585361
 20
162.9890883434
 10
-95.4196540132
 20
163.5549159006
  0
LWPOLYLINE
  5
17B
330
1F
100
AcDbEntity
  8
0
  6
Continuous
 62
     7
370
    35
100
AcDbPolyline
 90
       29
 70
   128
 43
0.0
 10
-103.1990137275
 20
186.262210455
 10
-103.2575182504
 20
186.8955858966
 10
-103.4300981581
 20
187.5647491332
 10
-103.7080995735
 20
188.236145526
 10
-104.0775823446
 20
188.8761084563
 10
-104.5200190626
 20
189.4525475104
 10
-105.0132241029
 20
189.9365576274
 10
-105.5324661054
 20
190.3038685187
 10
-106.0517081078
 20
190.5360616826
 10
-106.5449131482
 20
190.6214939843
 10
-106.9873498661
 20
190.5558814915
 10
-107.3568326373
 20
190.3425142884
 10
-107.6348340526
 20
189.9920914977
 10
-107.8074139603
 20
189.5221847812
 10
-107.8659184833
 20
188.956357224
 10
-107.8074139603
 20
188.3229817823
 10
-107.6348340526
 20
187.6538185457
 10
-107.3568326373
 20
186.9824221529
 10
-106.9873498661
 20
186.3424592227
 10
-106.5449131482
 20
185.7660201685
 10
-106.0517081078
 20
185.2820100516
 10
-105.5324661054
 20
184.9146991603
 10
-105.0132241029
 20
184.6825059963
 10
-104.5200190626
 20
184.5970736946
 10
-104.0775823446
 20
184.6626861875
 10
-103.7080995735
 20
184.8760533905
 10
-103.4300981581
 20
185.2264761813
 10
-103.2575182504
 20
185.6963828977
 10
-103.1990137275
 20
186.262210455
  0
LWPOLYLINE
  5
17C
330
1F
100
AcDbEntity
  8
0
  6
Continuous
 62
     7
370
    35
100
AcDbPolyline
 90
       29
 70
   128
 43
0.0
 10
-97.5452557132
 20
202.2314458973
 10
-97.6037602361
 20
202.8648213389
 10
-97.7763401438
 20
203.5339845755
 10
-98.0543415592
 20
204.2053809683
 10
-98.4238243303
 20
204.8453438986
 10
-98.8662610483
 20
205.4217829527
 10
-99.3594660886
 20
205.9057930696
 10
-99.8787080911
 20
206.273103961
 10
-100.3979500936
 20
206.5052971249
 10
-100.8911551339
 20
206.5907294266
 10
-101.3335918518
 20
206.5251169338
 10
-101.703074623
 20
206.3117497307
 10
-101.9810760383
 20
205.96132694
 10
-102.1536559461
 20
205.4914202235
 10
-102.212160469
 20
204.9255926663
 10
-102.1536559461
 20
204.2922172246
 10
-101.9810760383
 20
203.623053988
 10
-101.703074623
 20
202.9516575952
 10
-101.3335918518
 20
202.311694665
 10
-100.8911551339
 20
201.7352556108
 10
-100.3979500936
 20
201.2512454939
 10
-99.8787080911
 20
200.8839346025
 10
-99.3594660886
 20
200.6517414386
 10
-98.8662610483
 20
200.5663091369
 10
-98.4238243303
 20
200.6319216298
 10
-98.0543415592
 20
200.8452888328
 10
-97.7763401438
 20
201.1957116236
 10
-97.6037602361
 20
201.66561834
 10
-97.5452557132
 20
202.2314458973
  0
LWPOLYLINE
  5
17D
330
1F
100
AcDbEntity
  8
0
  6
Continuous
 62
     7
370
    35
100
AcDbPolyline
 90
       48
 70
   128
 43
0.0
 10
-46.0536561165
 20
145.9958890182
 10
-45.5039242029
 20
147.9110222773
 10
-45.0649420536
 20
149.9225564003
 10
-44.738128388
 20
152.023990434
 10
-44.5245394149
 20
154.208532883
 10
-44.4248654194
 20
156.4691236593
 10
-44.4394285318
 20
158.7984568987
 10
-44.5681816865
 20
161.1890045727
 10
-44.810708774
 20
163.6330408175
 10
-45.166225986
 20
166.1226669029
 10
-45.6335843484
 20
168.6498367597
 10
-46.2112734343
 20
171.2063829834
 10
-46.8974262462
 20
173.7840432297
 10
-47.6898252488
 20
176.3744869172
 10
-48.5859095368
 20
178.9693421505
 10
-49.5827831105
 20
181.5602227769
 10
-50.6772242357
 20
184.1387554889
 10
-51.8656958553
 20
186.6966068854
 10
-53.1443570214
 20
189.225510404
 10
-54.5090753075
 20
191.7172930374
 10
-55.9554401648
 20
194.1639017466
 10
-57.4787771757
 20
196.5574294878
 10
-59.0741631612
 20
198.8901407659
 10
-60.7364420917
 20
201.1544966353
 10
-62.4602417501
 20
203.3431790635
 10
-64.2399910947
 20
205.4491145828
 10
-66.0699382631
 20
207.4654971498
 10
-67.9441691618
 20
209.3858101419
 10
-69.8566265795
 20
211.2038474178
 10
-71.8011297627
 20
212.9137333749
 10
-73.7713943915
 20
214.5099419381
 10
-75.761052889
 20
215.9873144193
 10
-77.7636750004
 20
217.3410761892
 10
-79.7727885747
 20
218.5668521088
 10
-81.7819004814
 20
219.6606806682
 10
-83.7845175957
 20
220.6190267904
 10
-85.7741677826
 20
221.4387932555
 10
-87.7444208142
 20
222.1173307108
 10
-89.6889091511
 20
222.6524462329
 10
-91.6013485213
 20
223.0424104149
 10
-93.4755582297
 20
223.2859629556
 10
-95.3054811335
 20
223.3823167325
 10
-97.0852032176
 20
223.3311603459
 10
-98.8089727077
 20
223.1326591248
 10
-100.4712186595
 20
222.7874545932
 10
-102.0665689626
 20
222.2966623962
 10
-103.5898677027
 20
221.661868695
 10
-104.7702409296
 20
221.04195678
  0
LINE
  5
17E
330
1F
100
AcDbEntity
  8
0
  6
Continuous
 62
     7
370
    35
100
AcDbLine
 10
-46.0536561165
 20
145.9958890182
 30
0.0
 11
-48.8820832412
 21
144.3630727945
 31
0.0
  0
ARC
  5
17F
330
1F
100
AcDbEntity
  8
0
  6
Continuous
 62
     7
370
    35
100
AcDbCircle
 10
-54.3341881946
 20
186.3997451724
 30
0.0
 40
5.371641920394116
100
AcDbArc
 50
191.5430234394
 51
228.4516000279
  0
ARC
  5
180
330
1F
100
AcDbEntity
  8
0
  6
Continuous
 62
     7
370
    35
100
AcDbCircle
 10
-62.6314736427
 20
199.5923274985
 30
0.0
 40
5.371641920393879
100
AcDbArc
 50
191.5430234394
 51
228.4516000279
  0
ARC
  5
181
330
1F
100
AcDbEntity
  8
0
  6
Continuous
 62
     7
370
    35
100
AcDbCircle
 10
-49.4531011908
 20
172.1522640927
 30
0.0
 40
5.371641920393805
100
AcDbArc
 50
191.5430234394
 51
228.4516000279
  0
ARC
  5
182
330
1F
100
AcDbEntity
  8
0
  6
Continuous
 62
     7
370
    35
100
AcDbCircle
 10
-61.6212026138
 20
190.6753133161
 30
0.0
 40
5.371641920396896
100
AcDbArc
 50
191.5430234395
 51
228.4516000278
  0
ARC
  5
183
330
1F
100
AcDbEntity
  8
0
  6
Continuous
 62
     7
370
    35
100
AcDbCircle
 10
-73.0817710408
 20
209.7215600032
 30
0.0
 40
5.371641920394136
100
AcDbArc
 50
191.5430234394
 51
228.4516000279
  0
LWPOLYLINE
  5
184
330
1F
100
AcDbEntity
  8
0
  6
Continuous
 62
     7
370
    35
100
AcDbPolyline
 90
       38
 70
   128
 43
0.0
 10
-93.6303914436
 20
198.4789173341
 10
-94.4263295161
 20
197.6894408383
 10
-95.1705642537
 20
196.7383027872
 10
-95.8174460338
 20
195.6670482742
 10
-96.3628850614
 20
194.4824501152
 10
-96.8034328955
 20
193.1919977213
 10
-97.1363042507
 20
191.8038497478
 10
-97.3593946072
 20
190.3267825133
 10
-97.4712935159
 20
188.7701345124
 10
-97.4712935159
 20
187.143747375
 10
-97.3593946072
 20
185.4579036441
 10
-97.1363042507
 20
183.7232617666
 10
-96.8034328955
 20
181.950788707
 10
-96.3628850614
 20
180.1516906107
 10
-95.8174460338
 20
178.3373419551
 10
-95.1705642537
 20
176.5192136365
 10
-94.4263295161
 20
174.7088004475
 10
-93.5894471126
 20
172.9175484033
 10
-92.6652080832
 20
171.156782376
 10
-91.6594557646
 20
169.4376344953
 10
-90.5785488468
 20
167.7709737676
 10
-89.4293211713
 20
166.1673373588
 10
-88.2190385256
 20
164.6368639744
 10
-86.9553527062
 20
163.18922976
 10
-85.6462531417
 20
161.8335871252
 10
-84.300016381
 20
160.5785068792
 10
-82.9251537664
 20
159.4319240434
 10
-81.5303576221
 20
158.4010876836
 10
-80.1244462983
 20
157.4925150794
 10
-78.716308419
 20
156.711950519
 10
-77.3148466854
 20
156.0643289831
 10
-75.9289215897
 20
155.5537449436
 10
-74.5672953967
 20
155.183426477
 10
-73.2385767454
 20
154.955714856
 10
-71.9511662231
 20
154.8720497467
 10
-70.7132032536
 20
154.932960107
 10
-69.5325146373
 20
155.1380608419
 10
-68.7425809086
 20
155.3672937642
  0
ARC
  5
185
330
1F
100
AcDbEntity
  8
0
  6
Continuous
 62
     7
370
    35
100
AcDbCircle
 10
-53.8418428996
 20
167.9680187618
 30
0.0
 40
5.371641920394045
100
AcDbArc
 50
191.5430234394
 51
228.4516000279
  0
ARC
  5
186
330
1F
100
AcDbEntity
  8
0
  6
Continuous
 62
     7
370
    35
100
AcDbCircle
 10
-48.7313138805
 20
159.0189341003
 30
0.0
 40
5.371641920393557
100
AcDbArc
 50
191.5430234394
 51
228.4516000279
  0
ARC
  5
187
330
1F
100
AcDbEntity
  8
0
  6
Continuous
 62
     7
370
    35
100
AcDbCircle
 10
-78.2766366426
 20
206.8190417973
 30
0.0
 40
5.371641920394131
100
AcDbArc
 50
191.5430234394
 51
228.4516000279
  0
ARC
  5
188
330
1F
100
AcDbEntity
  8
0
  6
Continuous
 62
     7
370
    35
100
AcDbCircle
 10
-84.0941173422
 20
215.2453588591
 30
0.0
 40
5.371641920395908
100
AcDbArc
 50
191.5430234395
 51
228.4516000278
  0
LINE
  5
189
330
1F
100
AcDbEntity
  8
0
  6
Continuous
 62
     7
370
    35
100
AcDbLine
 10
-55.6699546191
 20
107.1862172759
 30
0.0
 11
-58.4983817439
 21
105.5534010523
 31
0.0
  0
LINE
  5
18A
330
1F
100
AcDbEntity
  8
0
  6
Continuous
 62
     7
370
    35
100
AcDbLine
 10
-55.6699546191
 20
107.1862172759
 30
0.0
 11
-46.0536561165
 21
145.9958890182
 31
0.0
  0
ARC
  5
18B
330
1F
100
AcDbEntity
  8
0
  6
Continuous
 62
     7
370
    35
100
AcDbCircle
 10
-52.2787118386
 20
148.9991856324
 30
0.0
 40
5.371641920393616
100
AcDbArc
 50
191.5430234394
 51
228.4516000279
  0
ARC
  5
18C
330
1F
100
AcDbEntity
  8
0
  6
Continuous
 62
     7
370
    35
100
AcDbCircle
 10
-93.9919826495
 20
215.3227757639
 30
0.0
 40
5.37164192039371
100
AcDbArc
 50
191.5430234394
 51
228.4516000279
  0
ARC
  5
18D
330
1F
100
AcDbEntity
  8
0
  6
Continuous
 62
     7
370
    35
100
AcDbCircle
 10
-59.4956009139
 20
151.9987833195
 30
0.0
 40
5.371641920393543
100
AcDbArc
 50
191.5430234394
 51
228.4516000279
  0
ARC
  5
18E
330
1F
100
AcDbEntity
  8
0
  6
Continuous
 62
     7
370
    35
100
AcDbCircle
 10
-94.0516176191
 20
206.9424270085
 30
0.0
 40
5.371641920393155
100
AcDbArc
 50
191.5430234394
 51
228.4516000279
  0
ARC
  5
18F
330
1F
100
AcDbEntity
  8
0
  6
Continuous
 62
     7
370
    35
100
AcDbCircle
 10
-59.5552358834
 20
143.6184345641
 30
0.0
 40
5.371641920393419
100
AcDbArc
 50
191.5430234394
 51
228.4516000279
  0
ARC
  5
190
330
1F
100
AcDbEntity
  8
0
  6
Continuous
 62
     7
370
    35
100
AcDbCircle
 10
-101.2685066943
 20
209.9420246956
 30
0.0
 40
5.371641920393783
100
AcDbArc
 50
191.5430234394
 51
228.4516000279
  0
ARC
  5
191
330
1F
100
AcDbEntity
  8
0
  6
Continuous
 62
     7
370
    35
100
AcDbCircle
 10
-69.4531011908
 20
143.6958514689
 30
0.0
 40
5.371641920393828
100
AcDbArc
 50
191.5430234394
 51
228.4516000279
  0
ARC
  5
192
330
1F
100
AcDbEntity
  8
0
  6
Continuous
 62
     7
370
    35
100
AcDbCircle
 10
-75.2705818903
 20
152.1221685306
 30
0.0
 40
5.37164192039365
100
AcDbArc
 50
191.5430234394
 51
228.4516000279
  0
ARC
  5
193
330
1F
100
AcDbEntity
  8
0
  6
Continuous
 62
     7
370
    35
100
AcDbCircle
 10
-104.8159046525
 20
199.9222762277
 30
0.0
 40
5.371641920393651
100
AcDbArc
 50
191.5430234394
 51
228.4516000279
  0
ARC
  5
194
330
1F
100
AcDbEntity
  8
0
  6
Continuous
 62
     7
370
    35
100
AcDbCircle
 10
-99.7053756334
 20
190.9731915662
 30
0.0
 40
5.371641920393667
100
AcDbArc
 50
191.5430234394
 51
228.4516000279
  0
SPLINE
  5
195
330
1F
100
AcDbEntity
  8
0
  6
Continuous
 62
     7
370
    35
100
AcDbSpline
210
0.0
220
0.0
230
1.0
 70
     8
 71
     3
 72
     8
 73
     4
 74
     0
 42
0.00000001
 43
0.00000001
 40
0.0
 40
0.0
 40
0.0
 40
0.0
 40
1.0
 40
1.0
 40
1.0
 40
1.0
 10
-55.66995461912278
 20
107.1862172759406
 30
0.0
 10
-55.79043769911765
 20
107.0420007928711
 30
0.0
 10
-55.83471369182553
 20
106.9430940840556
 30
0.0
 10
-55.82429707792083
 20
106.9370561353949
 30
0.0
  0
LINE
  5
196
330
1F
100
AcDbEntity
  8
0
  6
Continuous
 62
     7
370
    35
100
AcDbLine
 10
-57.8242970779
 20
103.4729545304
 30
0.0
 11
-55.8242970779
 21
106.9370561354
 31
0.0
  0
SPLINE
  5
197
330
1F
100
AcDbEntity
  8
0
  6
Continuous
 62
     7
370
    35
100
AcDbSpline
210
0.0
220
0.0
230
1.0
 70
     8
 71
     3
 72
    10
 73
     6
 74
     0
 42
0.00000001
 43
0.00000001
 40
0.0
 40
0.0
 40
0.0
 40
0.0
 40
0.5
 40
0.5
 40
1.0
 40
1.0
 40
1.0
 40
1.0
 10
-58.49838174386897
 20
105.5534010522951
 30
0.0
 10
-58.55863396428759
 20
105.0536644571882
 30
0.0
 10
-58.52684433974399
 20
104.6074375986124
 30
0.0
 10
-58.29311540049494
 20
103.893985140845
 30
0.0
 10
-58.0913521113466
 20
103.6271835441892
 30
0.0
 10
-57.8242970779208
 20
103.4729545304239
 30
0.0
  0
ARC
  5
198
330
1F
100
AcDbEntity
  8
0
  6
Continuous
 62
     7
370
    35
100
AcDbCircle
 10
-56.7888650448
 20
105.7646941685
 30
0.0
 40
2.514794238911162
100
AcDbArc
 50
245.6860478386
 51
305.6181726599
  0
SPLINE
  5
199
330
1F
100
AcDbEntity
  8
0
  6
Continuous
 62
     7
370
    35
100
AcDbSpline
210
0.0
220
0.0
230
1.0
 70
     8
 71
     3
 72
    10
 73
     6
 74
     0
 42
0.00000001
 43
0.00000001
 40
0.0
 40
0.0
 40
0.0
 40
0.0
 40
0.5
 40
0.5
 40
1.0
 40
1.0
 40
1.0
 40
1.0
 10
-105.2225654103638
 20
130.8353924128766
 30
0.0
 10
-105.6109844711749
 20
131.0596833883355
 30
0.0
 10
-105.9340688271699
 20
131.3965221461042
 30
0.0
 10
-106.4104828606509
 20
132.250073726678
 30
0.0
 10
-106.5635935242746
 20
132.7663377756772
 30
0.0
 10
-106.6247053590077
 20
133.3361363031671
 30
0.0
  0
ARC
  5
19A
330
1F
100
AcDbEntity
  8
0
  6
Continuous
 62
     7
370
    35
100
AcDbCircle
 10
-55.6172106713
 20
107.395404063
 30
0.0
 40
0.5029588477822275
100
AcDbArc
 50
245.6860478386
 51
305.6181726599
  0
LINE
  5
19B
330
1F
100
AcDbEntity
  8
0
  6
Continuous
 62
     7
370
    35
100
AcDbLine
 10
-55.3242970779
 20
103.7203774772
 30
0.0
 11
-55.3242970779
 21
106.9865407248
 31
0.0
  0
ARC
  5
19C
330
1F
100
AcDbEntity
  8
0
  6
Continuous
 62
     7
370
    35
100
AcDbCircle
 10
-80.4654474921
 20
149.2196503248
 30
0.0
 40
5.37164192039359
100
AcDbArc
 50
191.5430234394
 51
228.4516000279
  0
LINE
  5
19D
330
1F
100
AcDbEntity
  8
0
  6
Continuous
 62
     7
370
    35
100
AcDbLine
 10
-55.3242970779
 20
106.9865407248
 30
0.0
 11
-55.669983385
 21
107.1861011821
 31
0.0
  0
ARC
  5
19E
330
1F
100
AcDbEntity
  8
0
  6
Continuous
 62
     7
370
    35
100
AcDbCircle
 10
-91.9260159191
 20
168.2658970118
 30
0.0
 40
5.371641920394038
100
AcDbArc
 50
191.5430234394
 51
228.4516000279
  0
LINE
  5
19F
330
1F
100
AcDbEntity
  8
0
  6
Continuous
 62
     7
370
    35
100
AcDbLine
 10
-52.4958699532
 20
108.6193569484
 30
0.0
 11
-54.9620808088
 21
110.0430701707
 31
0.0
  0
LINE
  5
1A0
330
1F
100
AcDbEntity
  8
0
  6
Continuous
 62
     7
370
    35
100
AcDbLine
 10
-52.4958699532
 20
108.6193569484
 30
0.0
 11
-55.3242970779
 21
106.9865407248
 31
0.0
  0
LINE
  5
1A1
330
1F
100
AcDbEntity
  8
0
  6
Continuous
 62
     7
370
    35
100
AcDbLine
 10
-52.4958699532
 20
105.3531937009
 30
0.0
 11
-52.4958699532
 21
108.6193569484
 31
0.0
  0
LINE
  5
1A2
330
1F
100
AcDbEntity
  8
0
  6
Continuous
 62
     7
370
    35
100
AcDbLine
 10
-52.4958699532
 20
105.3531937009
 30
0.0
 11
-55.3242970779
 21
103.7203774772
 31
0.0
  0
ARC
  5
1A3
330
1F
100
AcDbEntity
  8
0
  6
Continuous
 62
     7
370
    35
100
AcDbCircle
 10
-104.0941173422
 20
186.7889462352
 30
0.0
 40
5.371641920393853
100
AcDbArc
 50
191.5430234394
 51
228.4516000279
  0
SPLINE
  5
1A4
330
1F
100
AcDbEntity
  8
0
  6
Continuous
 62
     7
370
    35
100
AcDbSpline
210
0.0
220
0.0
230
1.0
 70
     8
 71
     3
 72
    14
 73
    10
 74
     0
 42
0.00000001
 43
0.00000001
 40
0.0
 40
0.0
 40
0.0
 40
0.0
 40
0.25
 40
0.25
 40
0.5
 40
0.5
 40
0.75
 40
0.75
 40
1.0
 40
1.0
 40
1.0
 40
1.0
 10
-52.32445606831725
 20
108.713510816668
 30
0.0
 10
-51.93485473791548
 20
108.980718097502
 30
0.0
 10
-51.54959600179013
 20
109.1458181875045
 30
0.0
 10
-50.85065274783657
 20
109.2531775329877
 30
0.0
 10
-50.5372514606324
 20
109.195422915732
 30
0.0
 10
-50.03529231046294
 20
108.870009827947
 30
0.0
 10
-49.84694928102501
 20
108.6024877525323
 30
0.0
 10
-49.63051119441905
 20
107.9005132378535
 30
0.0
 10
-49.60253183175435
 20
107.4663279438906
 30
0.0
 10
-49.66091326671005
 20
106.9821077886914
 30
0.0
  0
ARC
  5
1A5
330
1F
100
AcDbEntity
  8
0
  6
Continuous
 62
     7
370
    35
100
AcDbCircle
 10
-50.2236415427
 20
104.6857143853
 30
0.0
 40
4.542748701370006
100
AcDbArc
 50
117.5456049
 51
120.0124390954
  0
LINE
  5
1A6
330
1F
100
AcDbEntity
  8
0
  6
Continuous
 62
     7
370
    35
100
AcDbLine
 10
-52.4615871762
 20
105.3720244745
 30
0.0
 11
-52.3244560683
 21
108.7135108167
 31
0.0
  0
ARC
  5
1A7
330
1F
100
AcDbEntity
  8
0
  6
Continuous
 62
     7
370
    35
100
AcDbCircle
 10
-52.0414242711
 20
104.5664651882
 30
0.0
 40
0.9085497402785788
100
AcDbArc
 50
117.5456049
 51
120.0124390954
  0
LINE
  5
1A8
330
1F
100
AcDbEntity
  8
0
  6
Continuous
 62
     7
370
    35
100
AcDbLine
 10
-49.6609132667
 20
106.9821077887
 30
0.0
 11
-52.4893403915
 21
105.349291565
 31
0.0
  0
SPLINE
  5
1A9
330
1F
100
AcDbEntity
  8
0
  6
Continuous
 62
     7
370
    35
100
AcDbSpline
210
0.0
220
0.0
230
1.0
 70
     8
 71
     3
 72
     9
 73
     5
 74
     0
 42
0.00000001
 43
0.00000001
 40
0.0
 40
0.0
 40
0.0
 40
0.0
 40
0.5163433605297578
 40
1.0
 40
1.0
 40
1.0
 40
1.0
 10
-52.46158717620315
 20
105.3720244745085
 30
0.0
 10
-52.42971422661284
 20
105.4426210086732
 30
0.0
 10
-52.3679860201
 20
105.5793450174651
 30
0.0
 10
-52.34702123194937
 20
105.5896476210674
 30
0.0
 10
-52.33688147296522
 20
105.5946305437035
 30
0.0
  0
ARC
  5
1AA
330
1F
100
AcDbEntity
  8
0
  6
Continuous
 62
     7
370
    35
100
AcDbCircle
 10
-90.9157448902
 20
159.3488828294
 30
0.0
 40
5.371641920393763
100
AcDbArc
 50
191.5430234394
 51
228.4516000279
  0
ARC
  5
1AB
330
1F
100
AcDbEntity
  8
0
  6
Continuous
 62
     7
370
    35
100
AcDbCircle
 10
-99.2130303383
 20
172.5414651556
 30
0.0
 40
5.371641920393655
100
AcDbArc
 50
191.5430234394
 51
228.4516000279
  0
LINE
  5
1AC
330
1F
100
AcDbEntity
  8
0
  6
Continuous
 62
     7
370
    35
100
AcDbLine
 10
-52.4893403915
 20
105.349291565
 30
0.0
 11
-52.4959274109
 21
105.3530941704
 31
0.0
  0
LINE
  5
1AD
330
1F
100
AcDbEntity
  8
0
  6
Continuous
 62
     7
370
    35
100
AcDbLine
 10
-62.3473563193
 20
55.7818782709
 30
0.0
 11
-65.175783444
 21
54.1490620473
 31
0.0
  0
LINE
  5
1AE
330
1F
100
AcDbEntity
  8
0
  6
Continuous
 62
     7
370
    35
100
AcDbLine
 10
-65.175783444
 20
54.1490620473
 30
0.0
 11
-52.4893403915
 21
105.349291565
 31
0.0
  0
LINE
  5
1AF
330
1F
100
AcDbEntity
  8
0
  6
Continuous
 62
     7
370
    35
100
AcDbLine
 10
-62.3473563193
 20
55.7818782709
 30
0.0
 11
-49.6609132667
 21
106.9821077887
 31
0.0
  0
LWPOLYLINE
  5
1B0
330
1F
100
AcDbEntity
  8
0
  6
Continuous
 62
     7
370
    35
100
AcDbPolyline
 90
       26
 70
   128
 43
0.0
 10
-85.6712636822
 20
66.2639563145
 10
-85.3417612908
 20
64.8482429581
 10
-84.9030349236
 20
63.4160106929
 10
-84.3599001563
 20
61.9829800762
 10
-83.7183185788
 20
60.5648804284
 10
-82.9853323588
 20
59.1772771834
 10
-82.1689869455
 20
57.8354010389
 10
-81.2782427606
 20
56.5539807797
 10
-80.3228768461
 20
55.347081611
 10
-79.313375549
 20
54.2279507749
 10
-78.2608194208
 20
53.2088721454
 10
-77.1767615937
 20
52.3010313969
 10
-76.0731009711
 20
51.514393228
 10
-74.9619516218
 20
50.8575919857
 10
-73.8555098128
 20
50.3378368929
 10
-72.7659201398
 20
49.960832918
 10
-71.7051422252
 20
49.7307181554
 10
-70.6848194459
 20
49.6500184054
 10
-69.7161511325
 20
49.7196194496
 10
-68.8097696428
 20
49.9387573285
 10
-67.9756236581
 20
50.3050267274
 10
-67.2228689836
 20
50.8144073771
 10
-66.5597680523
 20
51.4613081819
 10
-65.9935992341
 20
52.2386285886
 10
-65.5305769466
 20
53.1378365246
 10
-65.175783444
 20
54.1490620473
  0
LINE
  5
1B1
330
1F
100
AcDbEntity
  8
0
  6
Continuous
 62
     7
370
    35
100
AcDbLine
 10
-97.3867709729
 20
126.3118845506
 30
0.0
 11
-85.6712636822
 21
66.2639563145
 31
0.0
  0
LWPOLYLINE
  5
1B2
330
1F
100
AcDbEntity
  8
0
  6
Continuous
 62
     7
370
    35
100
AcDbPolyline
 90
       33
 70
   128
 43
0.0
 10
-72.3856315169
 20
61.6084090934
 10
-72.4433756656
 20
62.3187657231
 10
-72.6143890365
 20
63.0684937209
 10
-72.8920996818
 20
63.8287814604
 10
-73.2658353369
 20
64.5704115099
 10
-73.7212335503
 20
65.2648834428
 10
-74.2407936241
 20
65.885509092
 10
-74.8045491559
 20
66.4084381619
 10
-75.3908353369
 20
66.8135747815
 10
-75.9771215179
 20
67.0853497779
 10
-76.5408770497
 20
67.2133189904
 10
-77.0604371235
 20
67.1925646337
 10
-77.5158353369
 20
67.0238842863
 10
-77.889570992
 20
66.7137602393
 10
-78.1672816373
 20
66.2741103859
 10
-78.3382950082
 20
65.7218302233
 10
-78.3960391569
 20
65.0781435686
 10
-78.3382950082
 20
64.3677869389
 10
-78.1672816373
 20
63.6180589411
 10
-77.889570992
 20
62.8577712017
 10
-77.5158353369
 20
62.1161411521
 10
-77.0604371235
 20
61.4216692193
 10
-76.5408770497
 20
60.8010435701
 10
-75.9771215179
 20
60.2781145002
 10
-75.3908353369
 20
59.8729778805
 10
-74.8045491559
 20
59.6012028841
 10
-74.2407936241
 20
59.4732336717
 10
-73.7212335503
 20
59.4939880283
 10
-73.2658353369
 20
59.6626683757
 10
-72.8920996818
 20
59.9727924228
 10
-72.6143890365
 20
60.4124422762
 10
-72.4433756656
 20
60.9647224387
 10
-72.3856315169
 20
61.6084090934
  0
LWPOLYLINE
  5
1B3
330
1F
100
AcDbEntity
  8
0
  6
Continuous
 62
     7
370
    35
100
AcDbPolyline
 90
       33
 70
   128
 43
0.0
 10
-74.1873661915
 20
91.2247379898
 10
-74.2451103402
 20
91.9350946196
 10
-74.4161237112
 20
92.6848226174
 10
-74.6938343564
 20
93.4451103568
 10
-75.0675700116
 20
94.1867404064
 10
-75.522968225
 20
94.8812123392
 10
-76.0425282987
 20
95.5018379884
 10
-76.6062838306
 20
96.0247670583
 10
-77.1925700116
 20
96.429903678
 10
-77.7788561925
 20
96.7016786744
 10
-78.3426117244
 20
96.8296478868
 10
-78.8621717981
 20
96.8088935302
 10
-79.3175700116
 20
96.6402131828
 10
-79.6913056667
 20
96.3300891357
 10
-79.9690163119
 20
95.8904392823
 10
-80.1400296829
 20
95.3381591198
 10
-80.1977738316
 20
94.6944724651
 10
-80.1400296829
 20
93.9841158354
 10
-79.9690163119
 20
93.2343878376
 10
-79.6913056667
 20
92.4741000981
 10
-79.3175700116
 20
91.7324700486
 10
-78.8621717981
 20
91.0379981157
 10
-78.3426117244
 20
90.4173724665
 10
-77.7788561925
 20
89.8944433966
 10
-77.1925700116
 20
89.489306777
 10
-76.6062838306
 20
89.2175317806
 10
-76.0425282987
 20
89.0895625681
 10
-75.522968225
 20
89.1103169248
 10
-75.0675700116
 20
89.2789972722
 10
-74.6938343564
 20
89.5891213192
 10
-74.4161237112
 20
90.0287711726
 10
-74.2451103402
 20
90.5810513352
 10
-74.1873661915
 20
91.2247379898
  0
ARC
  5
1B4
330
1F
100
AcDbEntity
  8
0
  6
Continuous
 62
     7
370
    35
100
AcDbCircle
 10
-71.0640637909
 20
96.4975165621
 30
0.0
 40
6.300391660311179
100
AcDbArc
 50
179.7644076408
 51
240.2302158265
  0
ARC
  5
1B5
330
1F
100
AcDbEntity
  8
0
  6
Continuous
 62
     7
370
    35
100
AcDbCircle
 10
-68.3570470867
 20
57.2111086731
 30
0.0
 40
6.177303834445169
100
AcDbArc
 50
302.2251121237
 51
346.6223752935
  0
ARC
  5
1B6
330
1F
100
AcDbEntity
  8
0
  6
Continuous
 62
     7
370
    35
100
AcDbCircle
 10
-69.2623291162
 20
66.8811876656
 30
0.0
 40
6.300391660311327
100
AcDbArc
 50
179.7644076408
 51
240.2302158265
  0
ENDSEC
  0
SECTION
  2
OBJECTS
  0
DICTIONARY
  5
C
330
0
100
AcDbDictionary
281
     1
  3
ACAD_GROUP
350
D
  3
ACAD_LAYOUT
350
1A
  3
ACAD_MLINESTYLE
350
17
  3
ACAD_PLOTSETTINGS
350
19
  3
ACAD_PLOTSTYLENAME
350
E
  3
ACAD_SCALELIST
350
47
  3
DWGPROPS
350
1B7
  0
DICTIONARY
  5
D
102
{ACAD_REACTORS
330
C
102
}
330
C
100
AcDbDictionary
281
     1
  0
DICTIONARY
  5
1A
102
{ACAD_REACTORS
330
C
102
}
330
C
100
AcDbDictionary
281
     1
  3
Layout1
350
1E
  3
Layout2
350
26
  3
Model
350
22
  0
DICTIONARY
  5
17
102
{ACAD_REACTORS
330
C
102
}
330
C
100
AcDbDictionary
281
     1
  3
Standard
350
18
  0
DICTIONARY
  5
19
102
{ACAD_REACTORS
330
C
102
}
330
C
100
AcDbDictionary
281
     1
  0
ACDBDICTIONARYWDFLT
  5
E
102
{ACAD_REACTORS
330
C
102
}
330
C
100
AcDbDictionary
281
     1
  3
Normal
350
F
100
AcDbDictionaryWithDefault
340
F
  0
DICTIONARY
  5
47
102
{ACAD_REACTORS
330
C
102
}
330
C
100
AcDbDictionary
281
     1
  3
A0
350
48
  3
A1
350
49
  3
A2
350
4A
  3
A3
350
4B
  3
A4
350
4C
  3
A5
350
4D
  3
A6
350
4E
  3
A7
350
4F
  3
A8
350
50
  3
A9
350
51
  3
B0
350
52
  3
B1
350
53
  3
B2
350
54
  3
B3
350
55
  3
B4
350
56
  3
B5
350
57
  3
B6
350
58
  0
XRECORD
  5
1B7
102
{ACAD_REACTORS
330
C
102
}
330
C
100
AcDbXrecord
280
     1
  1
DWGPROPS COOKIE
  2

  3

  4

  6

  7

  8
K16-M
  9

300
=
301
=
302
=
303
=
304
=
305
=
306
=
307
=
308
=
309
=
 40
0.0
 41
2460194.870941748
 42
2460194.870942199
  1

 90
        0
  0
LAYOUT
  5
1E
102
{ACAD_REACTORS
330
1A
102
}
330
1A
100
AcDbPlotSettings
  1

  2
none_device
  4

  6

 40
0.0
 41
0.0
 42
0.0
 43
0.0
 44
0.0
 45
0.0
 46
0.0
 47
0.0
 48
0.0
 49
0.0
140
0.0
141
0.0
142
1.0
143
1.0
 70
   688
 72
     1
 73
     0
 74
     5
  7

 75
    16
147
1.0
148
0.0
149
0.0
100
AcDbLayout
  1
Layout1
 70
     1
 71
     1
 10
0.0
 20
0.0
 11
420.0
 21
297.0
 12
0.0
 22
0.0
 32
0.0
 14
1.0000000000E+20
 24
1.0000000000E+20
 34
1.0000000000E+20
 15
-1.0000000000E+20
 25
-1.0000000000E+20
 35
-1.0000000000E+20
146
0.0
 13
0.0
 23
0.0
 33
0.0
 16
1.0
 26
0.0
 36
0.0
 17
0.0
 27
1.0
 37
0.0
 76
     0
330
1B
  0
LAYOUT
  5
26
102
{ACAD_REACTORS
330
1A
102
}
330
1A
100
AcDbPlotSettings
  1

  2
none_device
  4

  6

 40
0.0
 41
0.0
 42
0.0
 43
0.0
 44
0.0
 45
0.0
 46
0.0
 47
0.0
 48
0.0
 49
0.0
140
0.0
141
0.0
142
1.0
143
1.0
 70
   688
 72
     1
 73
     0
 74
     5
  7

 75
    16
147
1.0
148
0.0
149
0.0
100
AcDbLayout
  1
Layout2
 70
     1
 71
     2
 10
0.0
 20
0.0
 11
0.0
 21
0.0
 12
0.0
 22
0.0
 32
0.0
 14
0.0
 24
0.0
 34
0.0
 15
0.0
 25
0.0
 35
0.0
146
0.0
 13
0.0
 23
0.0
 33
0.0
 16
1.0
 26
0.0
 36
0.0
 17
0.0
 27
1.0
 37
0.0
 76
     0
330
23
  0
LAYOUT
  5
22
102
{ACAD_REACTORS
330
1A
102
}
330
1A
100
AcDbPlotSettings
  1

  2
none_device
  4
Letter_(8.50_x_11.00_Inches)
  6

 40
6.35
 41
6.35
 42
6.35000508
 43
6.35000508
 44
215.9
 45
279.4
 46
0.0
 47
0.0
 48
0.0
 49
0.0
140
0.0
141
0.0
142
1.0
143
1.0
 70
  1712
 72
     1
 73
     0
 74
     0
  7

 75
     0
147
1.0
148
0.0
149
0.0
100
AcDbLayout
  1
Model
 70
     1
 71
     0
 10
0.0
 20
0.0
 11
297.0
 21
210.0
 12
0.0
 22
0.0
 32
0.0
 14
0.0
 24
0.0
 34
0.0
 15
297.0
 25
210.0
 35
0.0
146
0.0
 13
0.0
 23
0.0
 33
0.0
 16
1.0
 26
0.0
 36
0.0
 17
0.0
 27
1.0
 37
0.0
 76
     0
330
1F
331
29
  0
MLINESTYLE
  5
18
102
{ACAD_REACTORS
330
17
102
}
330
17
100
AcDbMlineStyle
  2
Standard
 70
     0
  3

 62
   256
 51
90.0
 52
90.0
 71
     2
 49
0.5
 62
   256
  6
BYLAYER
 49
-0.5
 62
   256
  6
BYLAYER
  0
ACDBPLACEHOLDER
  5
F
102
{ACAD_REACTORS
330
E
102
}
330
E
  0
SCALE
  5
48
102
{ACAD_REACTORS
330
47
102
}
330
47
100
AcDbScale
 70
     0
300
1:1
140
1.0
141
1.0
290
     1
  0
SCALE
  5
49
102
{ACAD_REACTORS
330
47
102
}
330
47
100
AcDbScale
 70
     0
300
1:2
140
1.0
141
2.0
290
     0
  0
SCALE
  5
4A
102
{ACAD_REACTORS
330
47
102
}
330
47
100
AcDbScale
 70
     0
300
1:4
140
1.0
141
4.0
290
     0
  0
SCALE
  5
4B
102
{ACAD_REACTORS
330
47
102
}
330
47
100
AcDbScale
 70
     0
300
1:5
140
1.0
141
5.0
290
     0
  0
SCALE
  5
4C
102
{ACAD_REACTORS
330
47
102
}
330
47
100
AcDbScale
 70
     0
300
1:8
140
1.0
141
8.0
290
     0
  0
SCALE
  5
4D
102
{ACAD_REACTORS
330
47
102
}
330
47
100
AcDbScale
 70
     0
300
1:10
140
1.0
141
10.0
290
     0
  0
SCALE
  5
4E
102
{ACAD_REACTORS
330
47
102
}
330
47
100
AcDbScale
 70
     0
300
1:16
140
1.0
141
16.0
290
     0
  0
SCALE
  5
4F
102
{ACAD_REACTORS
330
47
102
}
330
47
100
AcDbScale
 70
     0
300
1:20
140
1.0
141
20.0
290
     0
  0
SCALE
  5
50
102
{ACAD_REACTORS
330
47
102
}
330
47
100
AcDbScale
 70
     0
300
1:30
140
1.0
141
30.0
290
     0
  0
SCALE
  5
51
102
{ACAD_REACTORS
330
47
102
}
330
47
100
AcDbScale
 70
     0
300
1:40
140
1.0
141
40.0
290
     0
  0
SCALE
  5
52
102
{ACAD_REACTORS
330
47
102
}
330
47
100
AcDbScale
 70
     0
300
1:50
140
1.0
141
50.0
290
     0
  0
SCALE
  5
53
102
{ACAD_REACTORS
330
47
102
}
330
47
100
AcDbScale
 70
     0
300
1:100
140
1.0
141
100.0
290
     0
  0
SCALE
  5
54
102
{ACAD_REACTORS
330
47
102
}
330
47
100
AcDbScale
 70
     0
300
2:1
140
2.0
141
1.0
290
     0
  0
SCALE
  5
55
102
{ACAD_REACTORS
330
47
102
}
330
47
100
AcDbScale
 70
     0
300
4:1
140
4.0
141
1.0
290
     0
  0
SCALE
  5
56
102
{ACAD_REACTORS
330
47
102
}
330
47
100
AcDbScale
 70
     0
300
8:1
140
8.0
141
1.0
290
     0
  0
SCALE
  5
57
102
{ACAD_REACTORS
330
47
102
}
330
47
100
AcDbScale
 70
     0
300
10:1
140
10.0
141
1.0
290
     0
  0
SCALE
  5
58
102
{ACAD_REACTORS
330
47
102
}
330
47
100
AcDbScale
 70
     0
300
100:1
140
100.0
141
1.0
290
     0
  0
ENDSEC
  0
EOF
