  0
SECTION
  2
HEADER
  9
$ACADVER
  1
AC1015
  9
$ACADMAINTVER
 70
     6
  9
$DWGCODEPAGE
  3
ANSI_1254
  9
$INSBASE
 10
0.0
 20
0.0
 30
0.0
  9
$EXTMIN
 10
0.0
 20
0.0
 30
0.0
  9
$EXTMAX
 10
297.0
 20
210.0
 30
0.0
  9
$LIMMIN
 10
0.0
 20
0.0
  9
$LIMMAX
 10
297.0
 20
210.0
  9
$ORTHOMODE
 70
     0
  9
$REGENMODE
 70
     1
  9
$FILLMODE
 70
     1
  9
$QTEXTMODE
 70
     0
  9
$MIRRTEXT
 70
     1
  9
$LTSCALE
 40
1.0
  9
$ATTMODE
 70
     1
  9
$TEXTSIZE
 40
3.5277777778
  9
$TRACEWID
 40
1.0
  9
$TEXTSTYLE
  7
Standard
  9
$CLAYER
  8
0
  9
$CELTYPE
  6
ByLayer
  9
$CECOLOR
 62
   256
  9
$CELTSCALE
 40
1.0
  9
$DISPSILH
 70
     0
  9
$DIMSCALE
 40
1.0
  9
$DIMASZ
 40
2.0
  9
$DIMEXO
 40
1.0
  9
$DIMDLI
 40
3.75
  9
$DIMRND
 40
0.0
  9
$DIMDLE
 40
0.0
  9
$DIMEXE
 40
1.0
  9
$DIMTP
 40
0.0
  9
$DIMTM
 40
0.0
  9
$DIMTXT
 40
3.5277777778
  9
$DIMCEN
 40
2.5
  9
$DIMTSZ
 40
0.0
  9
$DIMTOL
 70
     0
  9
$DIMLIM
 70
     0
  9
$DIMTIH
 70
     1
  9
$DIMTOH
 70
     1
  9
$DIMSE1
 70
     0
  9
$DIMSE2
 70
     0
  9
$DIMTAD
 70
     1
  9
$DIMZIN
 70
     0
  9
$DIMBLK
  1

  9
$DIMASO
 70
     1
  9
$DIMSHO
 70
     1
  9
$DIMPOST
  1

  9
$DIMAPOST
  1

  9
$DIMALT
 70
     0
  9
$DIMALTD
 70
     3
  9
$DIMALTF
 40
0.0393700787
  9
$DIMLFAC
 40
1.0
  9
$DIMTOFL
 70
     1
  9
$DIMTVP
 40
0.0
  9
$DIMTIX
 70
     0
  9
$DIMSOXD
 70
     0
  9
$DIMSAH
 70
     0
  9
$DIMBLK1
  1

  9
$DIMBLK2
  1

  9
$DIMSTYLE
  2
ISO-25
  9
$DIMCLRD
 70
     0
  9
$DIMCLRE
 70
     0
  9
$DIMCLRT
 70
     0
  9
$DIMTFAC
 40
1.0
  9
$DIMGAP
 40
1.524
  9
$DIMJUST
 70
     0
  9
$DIMSD1
 70
     0
  9
$DIMSD2
 70
     0
  9
$DIMTOLJ
 70
     0
  9
$DIMTZIN
 70
     0
  9
$DIMALTZ
 70
     0
  9
$DIMALTTZ
 70
     0
  9
$DIMUPT
 70
     0
  9
$DIMDEC
 70
     2
  9
$DIMTDEC
 70
     2
  9
$DIMALTU
 70
     2
  9
$DIMALTTD
 70
     3
  9
$DIMTXSTY
  7
Standard
  9
$DIMAUNIT
 70
     0
  9
$DIMADEC
 70
     2
  9
$DIMALTRND
 40
0.0
  9
$DIMAZIN
 70
     0
  9
$DIMDSEP
 70
    44
  9
$DIMATFIT
 70
     3
  9
$DIMFRAC
 70
     0
  9
$DIMLDRBLK
  1

  9
$DIMLUNIT
 70
     2
  9
$DIMLWD
 70
    -2
  9
$DIMLWE
 70
    -2
  9
$DIMTMOVE
 70
     0
  9
$LUNITS
 70
     2
  9
$LUPREC
 70
     2
  9
$SKETCHINC
 40
1.0
  9
$FILLETRAD
 40
10.0
  9
$AUNITS
 70
     1
  9
$AUPREC
 70
     2
  9
$MENU
  1
.
  9
$ELEVATION
 40
0.0
  9
$PELEVATION
 40
0.0
  9
$THICKNESS
 40
0.0
  9
$LIMCHECK
 70
     0
  9
$CHAMFERA
 40
0.0
  9
$CHAMFERB
 40
0.0
  9
$CHAMFERC
 40
0.0
  9
$CHAMFERD
 40
0.0
  9
$SKPOLY
 70
     0
  9
$TDCREATE
 40
2459424.617587211
  9
$TDUCREATE
 40
2459424.492587211
  9
$TDUPDATE
 40
2459424.617588982
  9
$TDUUPDATE
 40
2459424.492588982
  9
$TDINDWG
 40
0.0000000116
  9
$TDUSRTIMER
 40
0.0000000116
  9
$USRTIMER
 70
     1
  9
$ANGBASE
 50
0.0
  9
$ANGDIR
 70
     0
  9
$PDMODE
 70
     0
  9
$PDSIZE
 40
-1.0
  9
$PLINEWID
 40
0.0
  9
$SPLFRAME
 70
     0
  9
$SPLINETYPE
 70
     6
  9
$SPLINESEGS
 70
     8
  9
$HANDSEED
  5
2BB
  9
$SURFTAB1
 70
     6
  9
$SURFTAB2
 70
     6
  9
$SURFTYPE
 70
     6
  9
$SURFU
 70
     6
  9
$SURFV
 70
     6
  9
$UCSBASE
  2

  9
$UCSNAME
  2

  9
$UCSORG
 10
0.0
 20
0.0
 30
0.0
  9
$UCSXDIR
 10
1.0
 20
0.0
 30
0.0
  9
$UCSYDIR
 10
0.0
 20
1.0
 30
0.0
  9
$UCSORTHOREF
  2

  9
$UCSORTHOVIEW
 70
     0
  9
$UCSORGTOP
 10
0.0
 20
0.0
 30
0.0
  9
$UCSORGBOTTOM
 10
0.0
 20
0.0
 30
0.0
  9
$UCSORGLEFT
 10
0.0
 20
0.0
 30
0.0
  9
$UCSORGRIGHT
 10
0.0
 20
0.0
 30
0.0
  9
$UCSORGFRONT
 10
0.0
 20
0.0
 30
0.0
  9
$UCSORGBACK
 10
0.0
 20
0.0
 30
0.0
  9
$PUCSBASE
  2

  9
$PUCSNAME
  2

  9
$PUCSORG
 10
0.0
 20
0.0
 30
0.0
  9
$PUCSXDIR
 10
1.0
 20
0.0
 30
0.0
  9
$PUCSYDIR
 10
0.0
 20
1.0
 30
0.0
  9
$PUCSORTHOREF
  2

  9
$PUCSORTHOVIEW
 70
     0
  9
$PUCSORGTOP
 10
0.0
 20
0.0
 30
0.0
  9
$PUCSORGBOTTOM
 10
0.0
 20
0.0
 30
0.0
  9
$PUCSORGLEFT
 10
0.0
 20
0.0
 30
0.0
  9
$PUCSORGRIGHT
 10
0.0
 20
0.0
 30
0.0
  9
$PUCSORGFRONT
 10
0.0
 20
0.0
 30
0.0
  9
$PUCSORGBACK
 10
0.0
 20
0.0
 30
0.0
  9
$USERI1
 70
     0
  9
$USERI2
 70
     0
  9
$USERI3
 70
     0
  9
$USERI4
 70
     0
  9
$USERI5
 70
     0
  9
$USERR1
 40
0.0
  9
$USERR2
 40
0.0
  9
$USERR3
 40
0.0
  9
$USERR4
 40
0.0
  9
$USERR5
 40
0.0
  9
$WORLDVIEW
 70
     1
  9
$SHADEDGE
 70
     3
  9
$SHADEDIF
 70
    70
  9
$TILEMODE
 70
     1
  9
$MAXACTVP
 70
    64
  9
$PINSBASE
 10
0.0
 20
0.0
 30
0.0
  9
$PLIMCHECK
 70
     0
  9
$PEXTMIN
 10
1.0000000000E+20
 20
1.0000000000E+20
 30
1.0000000000E+20
  9
$PEXTMAX
 10
-1.0000000000E+20
 20
-1.0000000000E+20
 30
-1.0000000000E+20
  9
$PLIMMIN
 10
0.0
 20
0.0
  9
$PLIMMAX
 10
420.0
 20
297.0
  9
$UNITMODE
 70
     0
  9
$VISRETAIN
 70
     1
  9
$PLINEGEN
 70
     0
  9
$PSLTSCALE
 70
     1
  9
$TREEDEPTH
 70
  3020
  9
$CMLSTYLE
  2
Standard
  9
$CMLJUST
 70
     0
  9
$CMLSCALE
 40
20.0
  9
$PROXYGRAPHICS
 70
     1
  9
$MEASUREMENT
 70
     1
  9
$CELWEIGHT
370
    -1
  9
$ENDCAPS
280
     0
  9
$JOINSTYLE
280
     0
  9
$LWDISPLAY
290
     1
  9
$INSUNITS
 70
     4
  9
$HYPERLINKBASE
  1

  9
$STYLESHEET
  1

  9
$XEDIT
290
     1
  9
$CEPSNTYPE
380
     0
  9
$PSTYLEMODE
290
     1
  9
$FINGERPRINTGUID
  2
{f023b577-3103-4f7c-840e-16b38369280e}
  9
$VERSIONGUID
  2
{FAEB1C32-E019-11D5-929B-00C0DF256EC4}
  9
$EXTNAMES
290
     1
  9
$PSVPSCALE
 40
0.0
  9
$OLESTARTUP
290
     0
  0
ENDSEC
  0
SECTION
  2
CLASSES
  0
CLASS
  1
ACDBDICTIONARYWDFLT
  2
AcDbDictionaryWithDefault
  3
ObjectDBX Classes
 90
        0
280
     0
281
     0
  0
CLASS
  1
VISUALSTYLE
  2
AcDbVisualStyle
  3
ObjectDBX Classes
 90
     4095
280
     0
281
     0
  0
CLASS
  1
MATERIAL
  2
AcDbMaterial
  3
ObjectDBX Classes
 90
     1153
280
     0
281
     0
  0
CLASS
  1
SCALE
  2
AcDbScale
  3
ObjectDBX Classes
 90
     1153
280
     0
281
     0
  0
CLASS
  1
TABLESTYLE
  2
AcDbTableStyle
  3
ObjectDBX Classes
 90
     4095
280
     0
281
     0
  0
CLASS
  1
MLEADERSTYLE
  2
AcDbMLeaderStyle
  3
ACDB_MLEADERSTYLE_CLASS
 90
     4095
280
     0
281
     0
  0
CLASS
  1
SUN
  2
AcDbSun
  3
SCENEOE
 90
     1153
280
     0
281
     0
  0
CLASS
  1
ACDBPLACEHOLDER
  2
AcDbPlaceHolder
  3
ObjectDBX Classes
 90
        0
280
     0
281
     0
  0
CLASS
  1
LAYOUT
  2
AcDbLayout
  3
ObjectDBX Classes
 90
        0
280
     0
281
     0
  0
ENDSEC
  0
SECTION
  2
TABLES
  0
TABLE
  2
VPORT
  5
8
330
0
100
AcDbSymbolTable
 70
     1
  0
VPORT
  5
29
330
8
100
AcDbSymbolTableRecord
100
AcDbViewportTableRecord
  2
*Active
 70
     0
 10
0.0
 20
0.0
 11
1.0
 21
1.0
 12
148.5
 22
105.0
 13
0.0
 23
0.0
 14
10.0
 24
10.0
 15
10.0
 25
10.0
 16
0.0
 26
0.0
 36
1.0
 17
0.0
 27
0.0
 37
0.0
 40
210.0
 41
1.4142857143
 42
50.0
 43
0.0
 44
0.0
 50
0.0
 51
0.0
 71
     0
 72
  2000
 73
     1
 74
     3
 75
     0
 76
     0
 77
     0
 78
     0
281
     0
 65
     1
110
0.0
120
0.0
130
0.0
111
1.0
121
0.0
131
0.0
112
0.0
122
1.0
132
0.0
 79
     0
146
0.0
  0
ENDTAB
  0
TABLE
  2
LTYPE
  5
5
330
0
100
AcDbSymbolTable
 70
     6
  0
LTYPE
  5
14
330
5
100
AcDbSymbolTableRecord
100
AcDbLinetypeTableRecord
  2
ByBlock
 70
     0
  3

 72
    65
 73
     0
 40
0.0
  0
LTYPE
  5
15
330
5
100
AcDbSymbolTableRecord
100
AcDbLinetypeTableRecord
  2
ByLayer
 70
     0
  3

 72
    65
 73
     0
 40
0.0
  0
LTYPE
  5
16
330
5
100
AcDbSymbolTableRecord
100
AcDbLinetypeTableRecord
  2
Continuous
 70
     0
  3
Solid line
 72
    65
 73
     0
 40
0.0
  0
LTYPE
  5
6E
330
5
100
AcDbSymbolTableRecord
100
AcDbLinetypeTableRecord
  2
HIDDEN
 70
     0
  3
Hidden __ __ __ __ __ __ __ __ __ __ __ __ __ __
 72
    65
 73
     2
 40
1.905
 49
1.27
 74
     0
 49
-0.635
 74
     0
  0
LTYPE
  5
6F
330
5
100
AcDbSymbolTableRecord
100
AcDbLinetypeTableRecord
  2
PHANTOM
 70
     0
  3
Phantom ______  __  __  ______  __  __  ______
 72
    65
 73
     6
 40
12.7
 49
6.35
 74
     0
 49
-1.27
 74
     0
 49
1.27
 74
     0
 49
-1.27
 74
     0
 49
1.27
 74
     0
 49
-1.27
 74
     0
  0
LTYPE
  5
70
330
5
100
AcDbSymbolTableRecord
100
AcDbLinetypeTableRecord
  2
CENTER
 70
     0
  3
Center ____ _ ____ _ ____ _ ____ _ ____ _ ____
 72
    65
 73
     4
 40
10.16
 49
6.35
 74
     0
 49
-1.27
 74
     0
 49
1.27
 74
     0
 49
-1.27
 74
     0
  0
LTYPE
  5
71
330
5
100
AcDbSymbolTableRecord
100
AcDbLinetypeTableRecord
  2
CENTERX2
 70
     0
  3
Center (2x) ________  __  ________  __  _____
 72
    65
 73
     4
 40
20.32
 49
12.7
 74
     0
 49
-2.54
 74
     0
 49
2.54
 74
     0
 49
-2.54
 74
     0
  0
LTYPE
  5
72
330
5
100
AcDbSymbolTableRecord
100
AcDbLinetypeTableRecord
  2
DOT2
 70
     0
  3
Dot (.5x) ........................................
 72
    65
 73
     2
 40
0.635
 49
0.0
 74
     0
 49
-0.635
 74
     0
  0
ENDTAB
  0
TABLE
  2
LAYER
  5
2
330
0
100
AcDbSymbolTable
 70
     1
  0
LAYER
  5
10
330
2
100
AcDbSymbolTableRecord
100
AcDbLayerTableRecord
  2
0
 70
     0
 62
     7
  6
Continuous
370
    -3
390
F
  0
ENDTAB
  0
TABLE
  2
STYLE
  5
3
330
0
100
AcDbSymbolTable
 70
     3
  0
STYLE
  5
11
330
3
100
AcDbSymbolTableRecord
100
AcDbTextStyleTableRecord
  2
Standard
 70
     0
 40
0.0
 41
1.0
 50
0.0
 71
     0
 42
3.5277777778
  3
txt
  4

  0
STYLE
  5
76
330
3
100
AcDbSymbolTableRecord
100
AcDbTextStyleTableRecord
  2
SLDTEXTSTYLE0
 70
     0
 40
0.0
 41
0.605
 50
0.0
 71
     0
 42
3.5277777778
  3
TXT
  4

  0
STYLE
  5
B7
330
3
100
AcDbSymbolTableRecord
100
AcDbTextStyleTableRecord
  2
SLDTEXTSTYLE1
 70
     0
 40
0.0
 41
0.5741176471
 50
0.0
 71
     0
 42
3.5277777778
  3
TXT
  4

  0
ENDTAB
  0
TABLE
  2
VIEW
  5
6
330
0
100
AcDbSymbolTable
 70
     0
  0
ENDTAB
  0
TABLE
  2
UCS
  5
7
330
0
100
AcDbSymbolTable
 70
     0
  0
ENDTAB
  0
TABLE
  2
APPID
  5
9
330
0
100
AcDbSymbolTable
 70
     1
  0
APPID
  5
12
330
9
100
AcDbSymbolTableRecord
100
AcDbRegAppTableRecord
  2
ACAD
 70
     0
  0
ENDTAB
  0
TABLE
  2
DIMSTYLE
  5
A
330
0
100
AcDbSymbolTable
 70
     1
100
AcDbDimStyleTable
  0
DIMSTYLE
105
27
330
A
100
AcDbSymbolTableRecord
100
AcDbDimStyleTableRecord
  2
ISO-25
 70
     0
 41
2.5
 42
0.625
 43
3.75
 44
1.25
 73
     0
 74
     0
 77
     1
 78
     8
140
2.5
141
2.5
143
0.0393700787
147
0.625
171
     3
172
     1
178
     0
271
     2
272
     2
274
     3
278
    44
283
     0
284
     8
340
11
  0
ENDTAB
  0
TABLE
  2
BLOCK_RECORD
  5
1
330
0
100
AcDbSymbolTable
 70
     4
  0
BLOCK_RECORD
  5
1F
330
1
100
AcDbSymbolTableRecord
100
AcDbBlockTableRecord
  2
*Model_Space
340
22
  0
BLOCK_RECORD
  5
1B
330
1
100
AcDbSymbolTableRecord
100
AcDbBlockTableRecord
  2
*Paper_Space
340
1E
  0
BLOCK_RECORD
  5
23
330
1
100
AcDbSymbolTableRecord
100
AcDbBlockTableRecord
  2
*Paper_Space0
340
26
  0
BLOCK_RECORD
  5
73
330
1
100
AcDbSymbolTableRecord
100
AcDbBlockTableRecord
  2
SW_NOTE_0
340
0
102
{BLKREFS
331
7A
102
}
  0
BLOCK_RECORD
  5
C0
330
1
100
AcDbSymbolTableRecord
100
AcDbBlockTableRecord
  2
SW_CENTERMARKSYMBOL_0
340
0
102
{BLKREFS
331
D9
102
}
  0
BLOCK_RECORD
  5
DA
330
1
100
AcDbSymbolTableRecord
100
AcDbBlockTableRecord
  2
SW_CENTERMARKSYMBOL_1
340
0
102
{BLKREFS
331
F3
102
}
  0
ENDTAB
  0
ENDSEC
  0
SECTION
  2
BLOCKS
  0
BLOCK
  5
20
330
1F
100
AcDbEntity
  8
0
100
AcDbBlockBegin
  2
*Model_Space
 70
     0
 10
0.0
 20
0.0
 30
0.0
  3
*Model_Space
  1

  0
ENDBLK
  5
21
330
1F
100
AcDbEntity
  8
0
100
AcDbBlockEnd
  0
BLOCK
  5
1C
330
1B
100
AcDbEntity
 67
     1
  8
0
100
AcDbBlockBegin
  2
*Paper_Space
 70
     0
 10
0.0
 20
0.0
 30
0.0
  3
*Paper_Space
  1

  0
ENDBLK
  5
1D
330
1B
100
AcDbEntity
 67
     1
  8
0
100
AcDbBlockEnd
  0
BLOCK
  5
24
330
23
100
AcDbEntity
  8
0
100
AcDbBlockBegin
  2
*Paper_Space0
 70
     0
 10
0.0
 20
0.0
 30
0.0
  3
*Paper_Space0
  1

  0
ENDBLK
  5
25
330
23
100
AcDbEntity
  8
0
100
AcDbBlockEnd
  0
BLOCK
  5
74
330
73
100
AcDbEntity
  8
0
100
AcDbBlockBegin
  2
SW_NOTE_0
 70
     0
 10
0.0
 20
0.0
 30
0.0
  3
SW_NOTE_0
  1

  0
MTEXT
  5
77
330
73
100
AcDbEntity
  8
0
  6
Continuous
 62
     0
370
     0
100
AcDbMText
 10
0.0
 20
102.3197518444
 30
0.0
 40
79.375
 41
0.0
 71
     1
 72
     1
  1
DKP
  7
SLDTEXTSTYLE0
 73
     1
 44
1.0
  0
MTEXT
  5
78
330
73
100
AcDbEntity
  8
0
  6
Continuous
 62
     0
370
     0
100
AcDbMText
 10
0.0
 20
-3.5135848665
 30
0.0
 40
79.375
 41
0.0
 71
     1
 72
     1
  1
1,5mm
  7
SLDTEXTSTYLE0
 73
     1
 44
1.0
  0
MTEXT
  5
79
330
73
100
AcDbEntity
  8
0
  6
Continuous
 62
     0
370
     0
100
AcDbMText
 10
0.0
 20
-109.3469215775
 30
0.0
 40
79.375
 41
0.0
 71
     1
 72
     1
  1
2 adet
  7
SLDTEXTSTYLE0
 73
     1
 44
1.0
  0
ENDBLK
  5
75
330
73
100
AcDbEntity
  8
0
100
AcDbBlockEnd
  0
BLOCK
  5
C1
330
C0
100
AcDbEntity
  8
0
100
AcDbBlockBegin
  2
SW_CENTERMARKSYMBOL_0
 70
     0
 10
0.0
 20
0.0
 30
0.0
  3
SW_CENTERMARKSYMBOL_0
  1

  0
LINE
  5
C3
330
C0
100
AcDbEntity
  8
0
  6
Continuous
 62
     0
370
    18
100
AcDbLine
 10
0.0
 20
0.0
 30
0.0
 11
0.0
 21
2.5
 31
0.0
  0
LINE
  5
C4
330
C0
100
AcDbEntity
  8
0
  6
Continuous
 62
     0
370
    18
100
AcDbLine
 10
0.0
 20
0.0
 30
0.0
 11
-2.5
 21
0.0
 31
0.0
  0
LINE
  5
C5
330
C0
100
AcDbEntity
  8
0
  6
Continuous
 62
     0
370
    18
100
AcDbLine
 10
0.0
 20
0.0
 30
0.0
 11
0.0
 21
-2.5
 31
0.0
  0
LINE
  5
C6
330
C0
100
AcDbEntity
  8
0
  6
Continuous
 62
     0
370
    18
100
AcDbLine
 10
0.0
 20
0.0
 30
0.0
 11
2.5
 21
0.0
 31
0.0
  0
LINE
  5
C7
330
C0
100
AcDbEntity
  8
0
  6
Continuous
 62
     0
370
    18
100
AcDbLine
 10
0.0
 20
5.0
 30
0.0
 11
0.0
 21
6.0
 31
0.0
  0
LINE
  5
C8
330
C0
100
AcDbEntity
  8
0
  6
Continuous
 62
     0
370
    18
100
AcDbLine
 10
0.0
 20
-5.0
 30
0.0
 11
0.0
 21
-6.0
 31
0.0
  0
LINE
  5
C9
330
C0
100
AcDbEntity
  8
0
  6
Continuous
 62
     0
370
    18
100
AcDbLine
 10
760.0
 20
0.0
 30
0.0
 11
760.0
 21
2.5
 31
0.0
  0
LINE
  5
CA
330
C0
100
AcDbEntity
  8
0
  6
Continuous
 62
     0
370
    18
100
AcDbLine
 10
760.0
 20
0.0
 30
0.0
 11
757.5
 21
0.0
 31
0.0
  0
LINE
  5
CB
330
C0
100
AcDbEntity
  8
0
  6
Continuous
 62
     0
370
    18
100
AcDbLine
 10
760.0
 20
0.0
 30
0.0
 11
760.0
 21
-2.5
 31
0.0
  0
LINE
  5
CC
330
C0
100
AcDbEntity
  8
0
  6
Continuous
 62
     0
370
    18
100
AcDbLine
 10
760.0
 20
0.0
 30
0.0
 11
762.5
 21
0.0
 31
0.0
  0
LINE
  5
CD
330
C0
100
AcDbEntity
  8
0
  6
Continuous
 62
     0
370
    18
100
AcDbLine
 10
760.0
 20
5.0
 30
0.0
 11
760.0
 21
6.0
 31
0.0
  0
LINE
  5
CE
330
C0
100
AcDbEntity
  8
0
  6
Continuous
 62
     0
370
    18
100
AcDbLine
 10
760.0
 20
-5.0
 30
0.0
 11
760.0
 21
-6.0
 31
0.0
  0
LINE
  5
CF
330
C0
100
AcDbEntity
  8
0
  6
Continuous
 62
     0
370
    18
100
AcDbLine
 10
765.0
 20
0.0
 30
0.0
 11
766.0
 21
0.0
 31
0.0
  0
LINE
  5
D0
330
C0
100
AcDbEntity
  8
0
  6
Continuous
 62
     0
370
    18
100
AcDbLine
 10
-760.0
 20
0.0
 30
0.0
 11
-760.0
 21
2.5
 31
0.0
  0
LINE
  5
D1
330
C0
100
AcDbEntity
  8
0
  6
Continuous
 62
     0
370
    18
100
AcDbLine
 10
-760.0
 20
0.0
 30
0.0
 11
-762.5
 21
0.0
 31
0.0
  0
LINE
  5
D2
330
C0
100
AcDbEntity
  8
0
  6
Continuous
 62
     0
370
    18
100
AcDbLine
 10
-760.0
 20
0.0
 30
0.0
 11
-760.0
 21
-2.5
 31
0.0
  0
LINE
  5
D3
330
C0
100
AcDbEntity
  8
0
  6
Continuous
 62
     0
370
    18
100
AcDbLine
 10
-760.0
 20
0.0
 30
0.0
 11
-757.5
 21
0.0
 31
0.0
  0
LINE
  5
D4
330
C0
100
AcDbEntity
  8
0
  6
Continuous
 62
     0
370
    18
100
AcDbLine
 10
-760.0
 20
5.0
 30
0.0
 11
-760.0
 21
6.0
 31
0.0
  0
LINE
  5
D5
330
C0
100
AcDbEntity
  8
0
  6
Continuous
 62
     0
370
    18
100
AcDbLine
 10
-765.0
 20
0.0
 30
0.0
 11
-766.0
 21
0.0
 31
0.0
  0
LINE
  5
D6
330
C0
100
AcDbEntity
  8
0
  6
Continuous
 62
     0
370
    18
100
AcDbLine
 10
-760.0
 20
-5.0
 30
0.0
 11
-760.0
 21
-6.0
 31
0.0
  0
LINE
  5
D7
330
C0
100
AcDbEntity
  8
0
  6
Continuous
 62
     0
370
    18
100
AcDbLine
 10
-755.0
 20
0.0
 30
0.0
 11
-5.0
 21
0.0
 31
0.0
  0
LINE
  5
D8
330
C0
100
AcDbEntity
  8
0
  6
Continuous
 62
     0
370
    18
100
AcDbLine
 10
5.0
 20
0.0
 30
0.0
 11
755.0
 21
0.0
 31
0.0
  0
ENDBLK
  5
C2
330
C0
100
AcDbEntity
  8
0
100
AcDbBlockEnd
  0
BLOCK
  5
DB
330
DA
100
AcDbEntity
  8
0
100
AcDbBlockBegin
  2
SW_CENTERMARKSYMBOL_1
 70
     0
 10
0.0
 20
0.0
 30
0.0
  3
SW_CENTERMARKSYMBOL_1
  1

  0
LINE
  5
DD
330
DA
100
AcDbEntity
  8
0
  6
Continuous
 62
     0
370
    18
100
AcDbLine
 10
0.0
 20
0.0
 30
0.0
 11
0.0
 21
2.5
 31
0.0
  0
LINE
  5
DE
330
DA
100
AcDbEntity
  8
0
  6
Continuous
 62
     0
370
    18
100
AcDbLine
 10
0.0
 20
0.0
 30
0.0
 11
-2.5
 21
0.0
 31
0.0
  0
LINE
  5
DF
330
DA
100
AcDbEntity
  8
0
  6
Continuous
 62
     0
370
    18
100
AcDbLine
 10
0.0
 20
0.0
 30
0.0
 11
0.0
 21
-2.5
 31
0.0
  0
LINE
  5
E0
330
DA
100
AcDbEntity
  8
0
  6
Continuous
 62
     0
370
    18
100
AcDbLine
 10
0.0
 20
0.0
 30
0.0
 11
2.5
 21
0.0
 31
0.0
  0
LINE
  5
E1
330
DA
100
AcDbEntity
  8
0
  6
Continuous
 62
     0
370
    18
100
AcDbLine
 10
0.0
 20
5.0
 30
0.0
 11
0.0
 21
6.0
 31
0.0
  0
LINE
  5
E2
330
DA
100
AcDbEntity
  8
0
  6
Continuous
 62
     0
370
    18
100
AcDbLine
 10
0.0
 20
-5.0
 30
0.0
 11
0.0
 21
-6.0
 31
0.0
  0
LINE
  5
E3
330
DA
100
AcDbEntity
  8
0
  6
Continuous
 62
     0
370
    18
100
AcDbLine
 10
760.0
 20
0.0
 30
0.0
 11
760.0
 21
2.5
 31
0.0
  0
LINE
  5
E4
330
DA
100
AcDbEntity
  8
0
  6
Continuous
 62
     0
370
    18
100
AcDbLine
 10
760.0
 20
0.0
 30
0.0
 11
757.5
 21
0.0
 31
0.0
  0
LINE
  5
E5
330
DA
100
AcDbEntity
  8
0
  6
Continuous
 62
     0
370
    18
100
AcDbLine
 10
760.0
 20
0.0
 30
0.0
 11
760.0
 21
-2.5
 31
0.0
  0
LINE
  5
E6
330
DA
100
AcDbEntity
  8
0
  6
Continuous
 62
     0
370
    18
100
AcDbLine
 10
760.0
 20
0.0
 30
0.0
 11
762.5
 21
0.0
 31
0.0
  0
LINE
  5
E7
330
DA
100
AcDbEntity
  8
0
  6
Continuous
 62
     0
370
    18
100
AcDbLine
 10
760.0
 20
5.0
 30
0.0
 11
760.0
 21
6.0
 31
0.0
  0
LINE
  5
E8
330
DA
100
AcDbEntity
  8
0
  6
Continuous
 62
     0
370
    18
100
AcDbLine
 10
760.0
 20
-5.0
 30
0.0
 11
760.0
 21
-6.0
 31
0.0
  0
LINE
  5
E9
330
DA
100
AcDbEntity
  8
0
  6
Continuous
 62
     0
370
    18
100
AcDbLine
 10
765.0
 20
0.0
 30
0.0
 11
766.0
 21
0.0
 31
0.0
  0
LINE
  5
EA
330
DA
100
AcDbEntity
  8
0
  6
Continuous
 62
     0
370
    18
100
AcDbLine
 10
-760.0
 20
0.0
 30
0.0
 11
-760.0
 21
2.5
 31
0.0
  0
LINE
  5
EB
330
DA
100
AcDbEntity
  8
0
  6
Continuous
 62
     0
370
    18
100
AcDbLine
 10
-760.0
 20
0.0
 30
0.0
 11
-762.5
 21
0.0
 31
0.0
  0
LINE
  5
EC
330
DA
100
AcDbEntity
  8
0
  6
Continuous
 62
     0
370
    18
100
AcDbLine
 10
-760.0
 20
0.0
 30
0.0
 11
-760.0
 21
-2.5
 31
0.0
  0
LINE
  5
ED
330
DA
100
AcDbEntity
  8
0
  6
Continuous
 62
     0
370
    18
100
AcDbLine
 10
-760.0
 20
0.0
 30
0.0
 11
-757.5
 21
0.0
 31
0.0
  0
LINE
  5
EE
330
DA
100
AcDbEntity
  8
0
  6
Continuous
 62
     0
370
    18
100
AcDbLine
 10
-760.0
 20
5.0
 30
0.0
 11
-760.0
 21
6.0
 31
0.0
  0
LINE
  5
EF
330
DA
100
AcDbEntity
  8
0
  6
Continuous
 62
     0
370
    18
100
AcDbLine
 10
-765.0
 20
0.0
 30
0.0
 11
-766.0
 21
0.0
 31
0.0
  0
LINE
  5
F0
330
DA
100
AcDbEntity
  8
0
  6
Continuous
 62
     0
370
    18
100
AcDbLine
 10
-760.0
 20
-5.0
 30
0.0
 11
-760.0
 21
-6.0
 31
0.0
  0
LINE
  5
F1
330
DA
100
AcDbEntity
  8
0
  6
Continuous
 62
     0
370
    18
100
AcDbLine
 10
-755.0
 20
0.0
 30
0.0
 11
-5.0
 21
0.0
 31
0.0
  0
LINE
  5
F2
330
DA
100
AcDbEntity
  8
0
  6
Continuous
 62
     0
370
    18
100
AcDbLine
 10
5.0
 20
0.0
 30
0.0
 11
755.0
 21
0.0
 31
0.0
  0
ENDBLK
  5
DC
330
DA
100
AcDbEntity
  8
0
100
AcDbBlockEnd
  0
ENDSEC
  0
SECTION
  2
ENTITIES
  0
INSERT
  5
7A
330
1F
100
AcDbEntity
  8
0
  6
Continuous
 62
     7
370
     0
100
AcDbBlockReference
  2
SW_NOTE_0
 10
595.9431634026
 20
74.3668243676
 30
0.0
  0
LINE
  5
7B
330
1F
100
AcDbEntity
  8
0
  6
CENTERX2
 62
     7
100
AcDbLine
 10
-655.1583176589
 20
-377.3106347111
 30
0.0
 11
-655.1583176589
 21
267.4065225764
 31
0.0
  0
LINE
  5
7C
330
1F
100
AcDbEntity
  8
0
  6
CENTERX2
 62
     7
100
AcDbLine
 10
991.8434741216
 20
267.4065225764
 30
0.0
 11
991.8434741216
 21
-377.3106347111
 31
0.0
  0
LINE
  5
7D
330
1F
100
AcDbEntity
  8
0
  6
CENTERX2
 62
     7
100
AcDbLine
 10
-655.0160004124
 20
267.5488398229
 30
0.0
 11
991.7011568751
 21
267.5488398229
 31
0.0
  0
LINE
  5
7E
330
1F
100
AcDbEntity
  8
0
  6
CENTERX2
 62
     7
100
AcDbLine
 10
991.7011568751
 20
-377.4529519576
 30
0.0
 11
-655.0160004124
 21
-377.4529519576
 31
0.0
  0
LINE
  5
7F
330
1F
100
AcDbEntity
  8
0
  6
CENTERX2
 62
     7
100
AcDbLine
 10
1037.3452659021
 20
227.4065225764
 30
0.0
 11
1037.3452659021
 21
-356.3106347111
 31
0.0
  0
LINE
  5
80
330
1F
100
AcDbEntity
  8
0
  6
CENTERX2
 62
     7
100
AcDbLine
 10
-700.6601094394
 20
-356.3106347111
 30
0.0
 11
-700.6601094394
 21
226.4065225764
 31
0.0
  0
LINE
  5
81
330
1F
100
AcDbEntity
  8
0
  6
CENTERX2
 62
     7
100
AcDbLine
 10
-655.0160004124
 20
313.0506316034
 30
0.0
 11
991.7011568751
 21
313.0506316034
 31
0.0
  0
LINE
  5
82
330
1F
100
AcDbEntity
  8
0
  6
CENTERX2
 62
     7
100
AcDbLine
 10
991.7011568751
 20
-422.9547437381
 30
0.0
 11
-655.0160004124
 21
-422.9547437381
 31
0.0
  0
CIRCLE
  5
83
330
1F
100
AcDbEntity
  8
0
  6
Continuous
 62
     7
370
    35
100
AcDbCircle
 10
853.3425782313
 20
-391.4538478479
 30
0.0
 40
3.499999999999943
  0
CIRCLE
  5
84
330
1F
100
AcDbEntity
  8
0
  6
Continuous
 62
     7
370
    35
100
AcDbCircle
 10
883.3425782313
 20
-391.4538478479
 30
0.0
 40
3.499999999999943
  0
CIRCLE
  5
85
330
1F
100
AcDbEntity
  8
0
  6
Continuous
 62
     7
370
    35
100
AcDbCircle
 10
-546.6574217687
 20
-391.4538478479
 30
0.0
 40
3.499999999999943
  0
CIRCLE
  5
86
330
1F
100
AcDbEntity
  8
0
  6
Continuous
 62
     7
370
    35
100
AcDbCircle
 10
-516.6574217687
 20
-391.4538478479
 30
0.0
 40
3.499999999999943
  0
CIRCLE
  5
87
330
1F
100
AcDbEntity
  8
0
  6
Continuous
 62
     7
370
    35
100
AcDbCircle
 10
183.3425782313
 20
-391.4538478479
 30
0.0
 40
3.5
  0
CIRCLE
  5
88
330
1F
100
AcDbEntity
  8
0
  6
Continuous
 62
     7
370
    35
100
AcDbCircle
 10
153.3425782313
 20
-391.4538478479
 30
0.0
 40
3.5
  0
ARC
  5
89
330
1F
100
AcDbEntity
  8
0
  6
Continuous
 62
     7
370
    35
100
AcDbCircle
 10
988.7011568751
 20
-439.9556396284
 30
0.0
 40
3.000000000000114
100
AcDbArc
 50
270.0
 51
0.0
  0
LINE
  5
8A
330
1F
100
AcDbEntity
  8
0
  6
Continuous
 62
     7
370
    35
100
AcDbLine
 10
988.7011568751
 20
-442.9556396284
 30
0.0
 11
-652.0160004124
 21
-442.9556396284
 31
0.0
  0
ARC
  5
8B
330
1F
100
AcDbEntity
  8
0
  6
Continuous
 62
     7
370
    35
100
AcDbCircle
 10
-652.0160004124
 20
-439.9556396284
 30
0.0
 40
3.0
100
AcDbArc
 50
180.0
 51
270.0
  0
LINE
  5
8C
330
1F
100
AcDbEntity
  8
0
  6
Continuous
 62
     7
370
    35
100
AcDbLine
 10
-655.0160004124
 20
-439.9556396284
 30
0.0
 11
-655.0160004124
 21
-377.3106347111
 31
0.0
  0
LINE
  5
8D
330
1F
100
AcDbEntity
  8
0
  6
Continuous
 62
     7
370
    35
100
AcDbLine
 10
-655.0160004124
 20
-377.3106347111
 30
0.0
 11
-697.6592135492
 21
-377.3106347111
 31
0.0
  0
ARC
  5
8E
330
1F
100
AcDbEntity
  8
0
  6
Continuous
 62
     7
370
    35
100
AcDbCircle
 10
-697.6592135492
 20
-374.3106347111
 30
0.0
 40
3.000000000000114
100
AcDbArc
 50
180.0
 51
270.0
  0
LINE
  5
8F
330
1F
100
AcDbEntity
  8
0
  6
Continuous
 62
     7
370
    35
100
AcDbLine
 10
-700.6592135492
 20
-374.3106347111
 30
0.0
 11
-700.6592135492
 21
-357.3106347111
 31
0.0
  0
LINE
  5
90
330
1F
100
AcDbEntity
  8
0
  6
Continuous
 62
     7
370
    35
100
AcDbLine
 10
-700.6592135492
 20
-357.3106347111
 30
0.0
 11
-698.1592135492
 21
-357.3106347111
 31
0.0
  0
ARC
  5
91
330
1F
100
AcDbEntity
  8
0
  6
Continuous
 62
     7
370
    35
100
AcDbCircle
 10
-698.1592135492
 20
-356.8106347111
 30
0.0
 40
0.5
100
AcDbArc
 50
270.0
 51
90.0
  0
LINE
  5
92
330
1F
100
AcDbEntity
  8
0
  6
Continuous
 62
     7
370
    35
100
AcDbLine
 10
-698.1592135492
 20
-356.3106347111
 30
0.0
 11
-717.6610053297
 21
-356.3106347111
 31
0.0
  0
ARC
  5
93
330
1F
100
AcDbEntity
  8
0
  6
Continuous
 62
     7
370
    35
100
AcDbCircle
 10
-717.6610053297
 20
-353.3106347111
 30
0.0
 40
3.000000000000114
100
AcDbArc
 50
180.0
 51
270.0
  0
LINE
  5
94
330
1F
100
AcDbEntity
  8
0
  6
Continuous
 62
     7
370
    35
100
AcDbLine
 10
-720.6610053297
 20
-353.3106347111
 30
0.0
 11
-720.6610053297
 21
223.4065225764
 31
0.0
  0
ARC
  5
95
330
1F
100
AcDbEntity
  8
0
  6
Continuous
 62
     7
370
    35
100
AcDbCircle
 10
-717.6610053297
 20
223.4065225764
 30
0.0
 40
3.000000000000114
100
AcDbArc
 50
90.0
 51
180.0
  0
LINE
  5
96
330
1F
100
AcDbEntity
  8
0
  6
Continuous
 62
     7
370
    35
100
AcDbLine
 10
-717.6610053297
 20
226.4065225764
 30
0.0
 11
-698.1592135492
 21
226.4065225764
 31
0.0
  0
ARC
  5
97
330
1F
100
AcDbEntity
  8
0
  6
Continuous
 62
     7
370
    35
100
AcDbCircle
 10
-698.1592135492
 20
226.9065225764
 30
0.0
 40
0.5
100
AcDbArc
 50
270.0
 51
90.0
  0
LINE
  5
98
330
1F
100
AcDbEntity
  8
0
  6
Continuous
 62
     7
370
    35
100
AcDbLine
 10
-698.1592135492
 20
227.4065225764
 30
0.0
 11
-700.6592135492
 21
227.4065225764
 31
0.0
  0
LINE
  5
99
330
1F
100
AcDbEntity
  8
0
  6
Continuous
 62
     7
370
    35
100
AcDbLine
 10
-700.6592135492
 20
227.4065225764
 30
0.0
 11
-700.6592135492
 21
264.4065225764
 31
0.0
  0
ARC
  5
9A
330
1F
100
AcDbEntity
  8
0
  6
Continuous
 62
     7
370
    35
100
AcDbCircle
 10
-697.6592135492
 20
264.4065225764
 30
0.0
 40
3.000000000000114
100
AcDbArc
 50
90.0
 51
180.0
  0
LINE
  5
9B
330
1F
100
AcDbEntity
  8
0
  6
Continuous
 62
     7
370
    35
100
AcDbLine
 10
-655.0160004124
 20
267.4065225764
 30
0.0
 11
-697.6592135492
 21
267.4065225764
 31
0.0
  0
LINE
  5
9C
330
1F
100
AcDbEntity
  8
0
  6
Continuous
 62
     7
370
    35
100
AcDbLine
 10
-655.0160004124
 20
267.4065225764
 30
0.0
 11
-655.0160004124
 21
350.0515274936
 31
0.0
  0
ARC
  5
9D
330
1F
100
AcDbEntity
  8
0
  6
Continuous
 62
     7
370
    35
100
AcDbCircle
 10
-652.0160004124
 20
350.0515274936
 30
0.0
 40
3.000000000000114
100
AcDbArc
 50
90.0
 51
180.0
  0
LINE
  5
9E
330
1F
100
AcDbEntity
  8
0
  6
Continuous
 62
     7
370
    35
100
AcDbLine
 10
-652.0160004124
 20
353.0515274936
 30
0.0
 11
988.7011568751
 21
353.0515274936
 31
0.0
  0
ARC
  5
9F
330
1F
100
AcDbEntity
  8
0
  6
Continuous
 62
     7
370
    35
100
AcDbCircle
 10
988.7011568751
 20
350.0515274936
 30
0.0
 40
3.000000000000114
100
AcDbArc
 50
0.0
 51
90.0
  0
LINE
  5
A0
330
1F
100
AcDbEntity
  8
0
  6
Continuous
 62
     7
370
    35
100
AcDbLine
 10
991.7011568751
 20
350.0515274936
 30
0.0
 11
991.7011568751
 21
267.4065225764
 31
0.0
  0
LINE
  5
A1
330
1F
100
AcDbEntity
  8
0
  6
Continuous
 62
     7
370
    35
100
AcDbLine
 10
991.7011568751
 20
267.4065225764
 30
0.0
 11
1034.3443700118
 21
267.4065225764
 31
0.0
  0
ARC
  5
A2
330
1F
100
AcDbEntity
  8
0
  6
Continuous
 62
     7
370
    35
100
AcDbCircle
 10
1034.3443700118
 20
264.4065225764
 30
0.0
 40
3.0
100
AcDbArc
 50
0.0
 51
90.0
  0
LINE
  5
A3
330
1F
100
AcDbEntity
  8
0
  6
Continuous
 62
     7
370
    35
100
AcDbLine
 10
1037.3443700118
 20
264.4065225764
 30
0.0
 11
1037.3443700118
 21
228.4065225764
 31
0.0
  0
LINE
  5
A4
330
1F
100
AcDbEntity
  8
0
  6
Continuous
 62
     7
370
    35
100
AcDbLine
 10
1037.3443700118
 20
228.4065225764
 30
0.0
 11
1034.8443700118
 21
228.4065225764
 31
0.0
  0
ARC
  5
A5
330
1F
100
AcDbEntity
  8
0
  6
Continuous
 62
     7
370
    35
100
AcDbCircle
 10
1034.8443700118
 20
227.9065225764
 30
0.0
 40
0.5
100
AcDbArc
 50
90.0
 51
270.0
  0
LINE
  5
A6
330
1F
100
AcDbEntity
  8
0
  6
Continuous
 62
     7
370
    35
100
AcDbLine
 10
1054.3461617923
 20
227.4065225764
 30
0.0
 11
1034.8443700118
 21
227.4065225764
 31
0.0
  0
ARC
  5
A7
330
1F
100
AcDbEntity
  8
0
  6
Continuous
 62
     7
370
    35
100
AcDbCircle
 10
1054.3461617923
 20
224.4065225764
 30
0.0
 40
3.000000000000028
100
AcDbArc
 50
0.0
 51
90.0
  0
LINE
  5
A8
330
1F
100
AcDbEntity
  8
0
  6
Continuous
 62
     7
370
    35
100
AcDbLine
 10
1057.3461617923
 20
-353.3106347111
 30
0.0
 11
1057.3461617923
 21
224.4065225764
 31
0.0
  0
ARC
  5
A9
330
1F
100
AcDbEntity
  8
0
  6
Continuous
 62
     7
370
    35
100
AcDbCircle
 10
1054.3461617923
 20
-353.3106347111
 30
0.0
 40
3.0
100
AcDbArc
 50
270.0
 51
360.0
  0
LINE
  5
AA
330
1F
100
AcDbEntity
  8
0
  6
Continuous
 62
     7
370
    35
100
AcDbLine
 10
1034.8443700118
 20
-356.3106347111
 30
0.0
 11
1054.3461617923
 21
-356.3106347111
 31
0.0
  0
ARC
  5
AB
330
1F
100
AcDbEntity
  8
0
  6
Continuous
 62
     7
370
    35
100
AcDbCircle
 10
1034.8443700118
 20
-356.8106347111
 30
0.0
 40
0.5000000000000568
100
AcDbArc
 50
90.0
 51
270.0
  0
LINE
  5
AC
330
1F
100
AcDbEntity
  8
0
  6
Continuous
 62
     7
370
    35
100
AcDbLine
 10
1034.8443700118
 20
-357.3106347111
 30
0.0
 11
1037.3443700118
 21
-357.3106347111
 31
0.0
  0
LINE
  5
AD
330
1F
100
AcDbEntity
  8
0
  6
Continuous
 62
     7
370
    35
100
AcDbLine
 10
1037.3443700118
 20
-357.3106347111
 30
0.0
 11
1037.3443700118
 21
-374.3106347111
 31
0.0
  0
ARC
  5
AE
330
1F
100
AcDbEntity
  8
0
  6
Continuous
 62
     7
370
    35
100
AcDbCircle
 10
1034.3443700118
 20
-374.3106347111
 30
0.0
 40
3.0
100
AcDbArc
 50
270.0
 51
0.0
  0
LINE
  5
AF
330
1F
100
AcDbEntity
  8
0
  6
Continuous
 62
     7
370
    35
100
AcDbLine
 10
991.7011568751
 20
-377.3106347111
 30
0.0
 11
1034.3443700118
 21
-377.3106347111
 31
0.0
  0
LINE
  5
B0
330
1F
100
AcDbEntity
  8
0
  6
Continuous
 62
     7
370
    35
100
AcDbLine
 10
991.7011568751
 20
-377.3106347111
 30
0.0
 11
991.7011568751
 21
-439.9556396284
 31
0.0
  0
CIRCLE
  5
B1
330
1F
100
AcDbEntity
  8
0
  6
Continuous
 62
     7
370
    35
100
AcDbCircle
 10
18.3425782313
 20
189.0479439326
 30
0.0
 40
4.249999999999972
  0
CIRCLE
  5
B2
330
1F
100
AcDbEntity
  8
0
  6
Continuous
 62
     7
370
    35
100
AcDbCircle
 10
318.3425782313
 20
189.0479439326
 30
0.0
 40
4.249999999999972
  0
LINE
  5
B3
330
1F
100
AcDbEntity
  8
0
  6
Continuous
 62
     7
370
    35
100
AcDbLine
 10
443.3425782313
 20
-278.9520560674
 30
0.0
 11
-456.6574217687
 21
-278.9520560674
 31
0.0
  0
LINE
  5
B4
330
1F
100
AcDbEntity
  8
0
  6
Continuous
 62
     7
370
    35
100
AcDbLine
 10
443.3425782313
 20
169.0479439326
 30
0.0
 11
443.3425782313
 21
-278.9520560674
 31
0.0
  0
LINE
  5
B5
330
1F
100
AcDbEntity
  8
0
  6
Continuous
 62
     7
370
    35
100
AcDbLine
 10
-456.6574217687
 20
169.0479439326
 30
0.0
 11
443.3425782313
 21
169.0479439326
 31
0.0
  0
LINE
  5
B6
330
1F
100
AcDbEntity
  8
0
  6
Continuous
 62
     7
370
    35
100
AcDbLine
 10
-456.6574217687
 20
-278.9520560674
 30
0.0
 11
-456.6574217687
 21
169.0479439326
 31
0.0
  0
MTEXT
  5
B8
330
1F
100
AcDbEntity
  8
0
  6
Continuous
 62
     7
370
    18
100
AcDbMText
 10
1033.9314899664
 20
-64.8011584651
 30
0.0
 40
2.6458333333
 41
0.0
 71
     2
 72
     1
  1
UP  90°0'  R 1.50
  7
SLDTEXTSTYLE1
 11
-3.491481338843133E-15
 21
1.0
 31
0.0
 73
     1
 44
1.0
  0
MTEXT
  5
B9
330
1F
100
AcDbEntity
  8
0
  6
Continuous
 62
     7
370
    18
100
AcDbMText
 10
-704.0738853751
 20
-65.3011584651
 30
0.0
 40
2.6458333333
 41
0.0
 71
     2
 72
     1
  1
UP  90°0'  R 1.50
  7
SLDTEXTSTYLE1
 11
-3.491481338843133E-15
 21
1.0
 31
0.0
 73
     1
 44
1.0
  0
MTEXT
  5
BA
330
1F
100
AcDbEntity
  8
0
  6
Continuous
 62
     7
370
    18
100
AcDbMText
 10
167.9934758336
 20
316.464407539
 30
0.0
 40
2.6458333333
 41
0.0
 71
     2
 72
     1
  1
UP  90°0'  R 1.50
  7
SLDTEXTSTYLE1
 73
     1
 44
1.0
  0
MTEXT
  5
BB
330
1F
100
AcDbEntity
  8
0
  6
Continuous
 62
     7
370
    18
100
AcDbMText
 10
167.9934758336
 20
-419.5409678025
 30
0.0
 40
2.6458333333
 41
0.0
 71
     2
 72
     1
  1
UP  90°0'  R 1.50
  7
SLDTEXTSTYLE1
 73
     1
 44
1.0
  0
MTEXT
  5
BC
330
1F
100
AcDbEntity
  8
0
  6
Continuous
 62
     7
370
    18
100
AcDbMText
 10
-658.5720935946
 20
-55.3011584651
 30
0.0
 40
2.6458333333
 41
0.0
 71
     2
 72
     1
  1
UP  90°0'  R 1.50
  7
SLDTEXTSTYLE1
 11
-3.491481338843133E-15
 21
1.0
 31
0.0
 73
     1
 44
1.0
  0
MTEXT
  5
BD
330
1F
100
AcDbEntity
  8
0
  6
Continuous
 62
     7
370
    18
100
AcDbMText
 10
988.4296981859
 20
-55.3011584651
 30
0.0
 40
2.6458333333
 41
0.0
 71
     2
 72
     1
  1
UP  90°0'  R 1.50
  7
SLDTEXTSTYLE1
 11
-3.491481338843133E-15
 21
1.0
 31
0.0
 73
     1
 44
1.0
  0
MTEXT
  5
BE
330
1F
100
AcDbEntity
  8
0
  6
Continuous
 62
     7
370
    18
100
AcDbMText
 10
167.9934758336
 20
270.9626157585
 30
0.0
 40
2.6458333333
 41
0.0
 71
     2
 72
     1
  1
UP  90°0'  R 1.50
  7
SLDTEXTSTYLE1
 73
     1
 44
1.0
  0
MTEXT
  5
BF
330
1F
100
AcDbEntity
  8
0
  6
Continuous
 62
     7
370
    18
100
AcDbMText
 10
167.9934758336
 20
-374.039176022
 30
0.0
 40
2.6458333333
 41
0.0
 71
     2
 72
     1
  1
UP  90°0'  R 1.50
  7
SLDTEXTSTYLE1
 73
     1
 44
1.0
  0
INSERT
  5
D9
330
1F
100
AcDbEntity
  8
0
  6
Continuous
 62
     7
370
    18
100
AcDbBlockReference
  2
SW_CENTERMARKSYMBOL_0
 10
153.3425782313
 20
-470.4538478479
 30
0.0
  0
INSERT
  5
F3
330
1F
100
AcDbEntity
  8
0
  6
Continuous
 62
     7
370
    18
100
AcDbBlockReference
  2
SW_CENTERMARKSYMBOL_1
 10
183.3425782313
 20
-470.4538478479
 30
0.0
  0
LINE
  5
F4
330
1F
100
AcDbEntity
  8
0
  6
Continuous
 62
     7
370
    35
100
AcDbLine
 10
-361.5172487204
 20
523.9612090882
 30
0.0
 11
-360.4565885487
 21
523.3489030043
 31
0.0
  0
LINE
  5
F5
330
1F
100
AcDbEntity
  8
0
  6
Continuous
 62
     7
370
    35
100
AcDbLine
 10
-1527.1827775065
 20
1194.3207143301
 30
0.0
 11
-362.7779088922
 21
522.1240917865
 31
0.0
  0
LINE
  5
F6
330
1F
100
AcDbEntity
  8
0
  6
Continuous
 62
     7
370
    35
100
AcDbLine
 10
-346.850230633
 20
530.6963769607
 30
0.0
 11
65.1930227988
 21
768.5638840146
 31
0.0
  0
LINE
  5
F7
330
1F
100
AcDbEntity
  8
0
  6
Continuous
 62
     7
370
    35
100
AcDbLine
 10
93.7042333068
 20
824.3675681704
 30
0.0
 11
-1069.7398756525
 21
1496.009555971
 31
0.0
  0
LINE
  5
F8
330
1F
100
AcDbEntity
  8
0
  6
Continuous
 62
     7
370
    35
100
AcDbLine
 10
-1071.7790711617
 20
1496.0098010952
 30
0.0
 11
-1526.7021853721
 21
1233.3882773179
 31
0.0
  0
SPLINE
  5
F9
330
1F
100
AcDbEntity
  8
0
  6
Continuous
 62
     7
370
    35
100
AcDbSpline
210
0.0
220
0.0
230
1.0
 70
     8
 71
     3
 72
    22
 73
    18
 74
     0
 42
0.00000001
 43
0.00000001
 40
0.0
 40
0.0
 40
0.0
 40
0.0
 40
0.125
 40
0.125
 40
0.25
 40
0.25
 40
0.375
 40
0.375
 40
0.5
 40
0.5
 40
0.625
 40
0.625
 40
0.75
 40
0.75
 40
0.875
 40
0.875
 40
1.0
 40
1.0
 40
1.0
 40
1.0
 10
-362.2386909650477
 20
562.4294226271228
 30
0.0
 10
-362.3383734107082
 20
562.3252555649416
 30
0.0
 10
-362.4364484299364
 20
562.2068817384838
 30
0.0
 10
-362.627733667265
 20
561.9423748840574
 30
0.0
 10
-362.721772718079
 20
561.7947209532241
 30
0.0
 10
-362.8987581339213
 20
561.476821575075
 30
0.0
 10
-362.9809728867365
 20
561.308305405081
 30
0.0
 10
-363.1313462325471
 20
560.952135422525
 30
0.0
 10
-363.2000120470931
 20
560.7624321927017
 30
0.0
 10
-363.3161847557075
 20
560.3767602773304
 30
0.0
 10
-363.3642622670375
 20
560.180028241068
 30
0.0
 10
-363.4386848102401
 20
559.7784529010463
 30
0.0
 10
-363.4647635019458
 20
559.573096626686
 30
0.0
 10
-363.4910374485777
 20
559.1710030371655
 30
0.0
 10
-363.4917426028514
 20
558.9721011059466
 30
0.0
 10
-363.4661137105475
 20
558.5783998168358
 30
0.0
 10
-363.4397310136433
 20
558.3856603235871
 30
0.0
 10
-363.3993511368274
 20
558.2006107110728
 30
0.0
  0
LINE
  5
FA
330
1F
100
AcDbEntity
  8
0
  6
Continuous
 62
     7
370
    35
100
AcDbLine
 10
-362.238690965
 20
561.2046114093
 30
0.0
 11
-362.238690965
 21
562.4294226271
 31
0.0
  0
SPLINE
  5
FB
330
1F
100
AcDbEntity
  8
0
  6
Continuous
 62
     7
370
    35
100
AcDbSpline
210
0.0
220
0.0
230
1.0
 70
     8
 71
     3
 72
    18
 73
    14
 74
     0
 42
0.00000001
 43
0.00000001
 40
0.0
 40
0.0
 40
0.0
 40
0.0
 40
0.2500000000000875
 40
0.2500000000000875
 40
0.3750000000000763
 40
0.3750000000000763
 40
0.5000000000000651
 40
0.5000000000000651
 40
0.6250000000000538
 40
0.6250000000000538
 40
0.7500000000000426
 40
0.7500000000000426
 40
1.0
 40
1.0
 40
1.0
 40
1.0
 10
-362.2386909650477
 20
561.2046114092941
 30
0.0
 10
-362.2980617114036
 20
561.0769869900356
 30
0.0
 10
-362.3555093360084
 20
560.9222096277177
 30
0.0
 10
-362.428100192097
 20
560.6494499897555
 30
0.0
 10
-362.4498246214625
 20
560.551905240306
 30
0.0
 10
-362.4851578417717
 20
560.3507371513397
 30
0.0
 10
-362.4990269447957
 20
560.2462185580308
 30
0.0
 10
-362.5173371538147
 20
560.0292707087352
 30
0.0
 10
-362.5216131301829
 20
559.917355489139
 30
0.0
 10
-362.5187874556237
 20
559.6941064465932
 30
0.0
 10
-362.5117911511476
 20
559.5817787834762
 30
0.0
 10
-362.471468805821
 20
559.2429382517611
 30
0.0
 10
-362.4195435504726
 20
559.0215167204741
 30
0.0
 10
-362.3386909650475
 20
558.81291679494
 30
0.0
  0
LINE
  5
FC
330
1F
100
AcDbEntity
  8
0
  6
Continuous
 62
     7
370
    35
100
AcDbLine
 10
-363.3993511368
 20
558.2006107111
 30
0.0
 11
-362.338690965
 21
558.8129167949
 31
0.0
  0
LINE
  5
FD
330
1F
100
AcDbEntity
  8
0
  6
Continuous
 62
     7
370
    35
100
AcDbLine
 10
-1527.8042197511
 20
1230.3972332547
 30
0.0
 11
-363.3993511368
 21
558.2006107111
 31
0.0
  0
SPLINE
  5
FE
330
1F
100
AcDbEntity
  8
0
  6
Continuous
 62
     7
370
    35
100
AcDbSpline
210
0.0
220
0.0
230
1.0
 70
     8
 71
     3
 72
    22
 73
    18
 74
     0
 42
0.00000001
 43
0.00000001
 40
0.0
 40
0.0
 40
0.0
 40
0.0
 40
0.1250000000000001
 40
0.1250000000000001
 40
0.2500000000000003
 40
0.2500000000000003
 40
0.3750000000000003
 40
0.3750000000000003
 40
0.5000000000000003
 40
0.5000000000000003
 40
0.6250000000000002
 40
0.6250000000000002
 40
0.7500000000000001
 40
0.7500000000000001
 40
0.8750000000000001
 40
0.8750000000000001
 40
1.0
 40
1.0
 40
1.0
 40
1.0
 10
-1527.804219751069
 20
1230.397233254658
 30
0.0
 10
-1527.763839876169
 20
1230.535661247202
 30
0.0
 10
-1527.710353770782
 20
1230.67979898826
 30
0.0
 10
-1527.576910658713
 20
1230.977738131997
 30
0.0
 10
-1527.496050871827
 20
1231.133017873355
 30
0.0
 10
-1527.309222127684
 20
1231.445263102965
 30
0.0
 10
-1527.204385000199
 20
1231.600730292353
 30
0.0
 10
-1526.971110949177
 20
1231.909057091352
 30
0.0
 10
-1526.841152778062
 20
1232.063380695286
 30
0.0
 10
-1526.565233118628
 20
1232.35683268064
 30
0.0
 10
-1526.418895814642
 20
1232.496836981262
 30
0.0
 10
-1526.108332430331
 20
1232.762076825936
 30
0.0
 10
-1525.943528963744
 20
1232.887338147026
 30
0.0
 10
-1525.608446447267
 20
1233.111132309416
 30
0.0
 10
-1525.436547725794
 20
1233.211189059697
 30
0.0
 10
-1525.08278545085
 20
1233.38583145931
 30
0.0
 10
-1524.902681439752
 20
1233.45934509167
 30
0.0
 10
-1524.72223923573
 20
1233.516890545391
 30
0.0
  0
LINE
  5
FF
330
1F
100
AcDbEntity
  8
0
  6
Continuous
 62
     7
370
    35
100
AcDbLine
 10
-1524.7222392357
 20
1233.5168905454
 30
0.0
 11
-362.238690965
 21
562.4294226271
 31
0.0
  0
SPLINE
  5
100
330
1F
100
AcDbEntity
  8
0
  6
Continuous
 62
     7
370
    35
100
AcDbSpline
210
0.0
220
0.0
230
1.0
 70
     8
 71
     3
 72
    22
 73
    18
 74
     0
 42
0.00000001
 43
0.00000001
 40
0.0
 40
0.0
 40
0.0
 40
0.0
 40
0.1250000000000001
 40
0.1250000000000001
 40
0.2500000000000001
 40
0.2500000000000001
 40
0.3750000000000002
 40
0.3750000000000002
 40
0.5000000000000002
 40
0.5000000000000002
 40
0.6250000000000002
 40
0.6250000000000002
 40
0.7500000000000003
 40
0.7500000000000003
 40
0.8750000000000001
 40
0.8750000000000001
 40
1.0
 40
1.0
 40
1.0
 40
1.0
 10
91.72386255671661
 20
824.496426522212
 30
0.0
 10
91.90430475217748
 20
824.4388810712217
 30
0.0
 10
92.08185444194528
 20
824.3663869954885
 30
0.0
 10
92.43239125928982
 20
824.1938141213357
 30
0.0
 10
92.60694613945087
 20
824.0926409894125
 30
0.0
 10
92.94448891852713
 20
823.8674294041432
 30
0.0
 10
93.1060134407965
 20
823.7446977895038
 30
0.0
 10
93.41588563401648
 20
823.4806045316487
 30
0.0
 10
93.56555114949816
 20
823.3376614338581
 30
0.0
 10
93.8415866205381
 20
823.0442763268551
 30
0.0
 10
93.96892877528973
 20
822.8933027952431
 30
0.0
 10
94.2033492418266
 20
822.5840922903216
 30
0.0
 10
94.31036197287624
 20
822.4254582423645
 30
0.0
 10
94.4960602732996
 20
822.1153983732949
 30
0.0
 10
94.576103333747
 20
821.9622972404123
 30
0.0
 10
94.71122972448043
 20
821.6613980008518
 30
0.0
 10
94.76546319524016
 20
821.5151972305906
 30
0.0
 10
94.80584307205598
 20
821.3767692314793
 30
0.0
  0
LINE
  5
101
330
1F
100
AcDbEntity
  8
0
  6
Continuous
 62
     7
370
    35
100
AcDbLine
 10
-361.0780307933
 20
558.2006107111
 30
0.0
 11
94.8058430721
 21
821.3767692315
 31
0.0
  0
SPLINE
  5
102
330
1F
100
AcDbEntity
  8
0
  6
Continuous
 62
     7
370
    35
100
AcDbSpline
210
0.0
220
0.0
230
1.0
 70
     8
 71
     3
 72
    22
 73
    18
 74
     0
 42
0.00000001
 43
0.00000001
 40
0.0
 40
0.0
 40
0.0
 40
0.0
 40
0.125
 40
0.125
 40
0.25
 40
0.25
 40
0.375
 40
0.375
 40
0.5
 40
0.5
 40
0.625
 40
0.625
 40
0.75
 40
0.75
 40
0.875
 40
0.875
 40
1.0
 40
1.0
 40
1.0
 40
1.0
 10
-361.0780307932682
 20
558.2006107110731
 30
0.0
 10
-361.0376509183678
 20
558.3856603148079
 30
0.0
 10
-361.0116623532155
 20
558.5756778065908
 30
0.0
 10
-360.9858538852679
 20
558.9655509306012
 30
0.0
 10
-360.986197842807
 20
559.1673114708694
 30
0.0
 10
-361.0124692237164
 20
559.5722444933588
 30
0.0
 10
-361.0379965817475
 20
559.773496238101
 30
0.0
 10
-361.1117717853601
 20
560.173899761801
 30
0.0
 10
-361.16073025554
 20
560.3749834977681
 30
0.0
 10
-361.2767871525477
 20
560.7607222914908
 30
0.0
 10
-361.3438598131127
 20
560.9464850967623
 30
0.0
 10
-361.4944252740894
 20
561.3040897765368
 30
0.0
 10
-361.5782947013316
 20
561.4760733240296
 30
0.0
 10
-361.7539528640167
 20
561.7919012068705
 30
0.0
 10
-361.8465136793166
 20
561.9377587554884
 30
0.0
 10
-362.0395206712234
 20
562.2052032046514
 30
0.0
 10
-362.1390085146579
 20
562.3252555599994
 30
0.0
 10
-362.2386909650477
 20
562.4294226271229
 30
0.0
  0
LINE
  5
103
330
1F
100
AcDbEntity
  8
0
  6
Continuous
 62
     7
370
    35
100
AcDbLine
 10
-362.238690965
 20
562.4294226271
 30
0.0
 11
91.7238625567
 21
824.4964265222
 31
0.0
  0
LINE
  5
104
330
1F
100
AcDbEntity
  8
0
  6
Continuous
 62
     7
370
    35
100
AcDbLine
 10
-361.0780307933
 20
558.2006107111
 30
0.0
 11
-362.138690965
 21
558.8129167949
 31
0.0
  0
SPLINE
  5
105
330
1F
100
AcDbEntity
  8
0
  6
Continuous
 62
     7
370
    35
100
AcDbSpline
210
0.0
220
0.0
230
1.0
 70
     8
 71
     3
 72
    18
 73
    14
 74
     0
 42
0.00000001
 43
0.00000001
 40
0.0
 40
0.0
 40
0.0
 40
0.0
 40
0.2500000000000017
 40
0.2500000000000017
 40
0.3750000000000228
 40
0.3750000000000228
 40
0.5000000000000439
 40
0.5000000000000439
 40
0.625000000000065
 40
0.625000000000065
 40
0.750000000000086
 40
0.750000000000086
 40
1.0
 40
1.0
 40
1.0
 40
1.0
 10
-362.1386909650479
 20
558.8129167949402
 30
0.0
 10
-362.0578383719859
 20
559.0215167401773
 30
0.0
 10
-362.0067168963701
 20
559.2389900847186
 30
0.0
 10
-361.965973817963
 20
559.5771972793799
 30
0.0
 10
-361.9587159151259
 20
559.6914786120822
 30
0.0
 10
-361.9557152018409
 20
559.9147836038532
 30
0.0
 10
-361.9598151966578
 20
560.0249436166193
 30
0.0
 10
-361.9778717316544
 20
560.2420379564171
 30
0.0
 10
-361.9918734776231
 20
560.3483367835341
 30
0.0
 10
-362.0270864718311
 20
560.549619431443
 30
0.0
 10
-362.0483710105338
 20
560.6456156039462
 30
0.0
 10
-362.1208840677052
 20
560.9192964689165
 30
0.0
 10
-362.1793202242997
 20
561.0769870020906
 30
0.0
 10
-362.2386909650477
 20
561.2046114092943
 30
0.0
  0
LINE
  5
106
330
1F
100
AcDbEntity
  8
0
  6
Continuous
 62
     7
370
    35
100
AcDbLine
 10
-363.3993511368
 20
558.2006107111
 30
0.0
 11
-363.3993511368
 21
523.4976262059
 31
0.0
  0
LINE
  5
107
330
1F
100
AcDbEntity
  8
0
  6
Continuous
 62
     7
370
    35
100
AcDbLine
 10
-362.338690965
 20
558.8129167949
 30
0.0
 11
-362.338690965
 21
524.1099322898
 31
0.0
  0
LINE
  5
108
330
1F
100
AcDbEntity
  8
0
  6
Continuous
 62
     7
370
    35
100
AcDbLine
 10
-362.338690965
 20
524.1099322898
 30
0.0
 11
-363.3993511368
 21
523.4976262059
 31
0.0
  0
LINE
  5
109
330
1F
100
AcDbEntity
  8
0
  6
Continuous
 62
     7
370
    35
100
AcDbLine
 10
-1527.8042197511
 20
1230.3972332547
 30
0.0
 11
-1527.8042197511
 21
1195.6942487495
 31
0.0
  0
LINE
  5
10A
330
1F
100
AcDbEntity
  8
0
  6
Continuous
 62
     7
370
    35
100
AcDbLine
 10
-1527.8042197511
 20
1195.6942487495
 30
0.0
 11
-363.3993511368
 21
523.4976262059
 31
0.0
  0
LWPOLYLINE
  5
10B
330
1F
100
AcDbEntity
  8
0
  6
Continuous
 62
     7
370
    35
100
AcDbPolyline
 90
       20
 70
   128
 43
0.0
 10
-1427.4950568226
 20
1162.2832259379
 10
-1427.6291523079
 20
1163.2885939025
 10
-1428.0169074375
 20
1164.3398380002
 10
-1428.6163029263
 20
1165.3230396212
 10
-1429.3623849725
 20
1166.1316536139
 10
-1430.1743040098
 20
1166.6780541053
 10
-1430.9640760123
 20
1166.9030301239
 10
-1431.646116929
 20
1166.7822020271
 10
-1432.1465170435
 20
1166.3286634142
 10
-1432.4110502389
 20
1165.5915622312
 10
-1432.4110502389
 20
1164.6507748285
 10
-1432.1465170435
 20
1163.6082501191
 10
-1431.646116929
 20
1162.5769618317
 10
-1430.9640760123
 20
1161.6686660543
 10
-1430.1743040098
 20
1160.9817907281
 10
-1429.3623849725
 20
1160.5907694526
 10
-1428.6163029263
 20
1160.5379754503
 10
-1428.0169074375
 20
1160.8291297706
 10
-1427.6291523079
 20
1161.4326813251
 10
-1427.4950568226
 20
1162.2832259379
  0
LWPOLYLINE
  5
10C
330
1F
100
AcDbEntity
  8
0
  6
Continuous
 62
     7
370
    35
100
AcDbPolyline
 90
       20
 70
   128
 43
0.0
 10
-1448.7082602582
 20
1174.5293476152
 10
-1448.8423557435
 20
1175.5347155799
 10
-1449.2301108731
 20
1176.5859596776
 10
-1449.8295063618
 20
1177.5691612986
 10
-1450.5755884081
 20
1178.3777752913
 10
-1451.3875074454
 20
1178.9241757827
 10
-1452.1772794479
 20
1179.1491518012
 10
-1452.8593203646
 20
1179.0283237045
 10
-1453.3597204791
 20
1178.5747850915
 10
-1453.6242536745
 20
1177.8376839085
 10
-1453.6242536745
 20
1176.8968965058
 10
-1453.3597204791
 20
1175.8543717965
 10
-1452.8593203646
 20
1174.8230835091
 10
-1452.1772794479
 20
1173.9147877317
 10
-1451.3875074454
 20
1173.2279124054
 10
-1450.5755884081
 20
1172.8368911299
 10
-1449.8295063618
 20
1172.7840971276
 10
-1449.2301108731
 20
1173.0752514479
 10
-1448.8423557435
 20
1173.6788030025
 10
-1448.7082602582
 20
1174.5293476152
  0
LWPOLYLINE
  5
10D
330
1F
100
AcDbEntity
  8
0
  6
Continuous
 62
     7
370
    35
100
AcDbPolyline
 90
       20
 70
   128
 43
0.0
 10
-437.5455631614
 20
590.797547662
 10
-437.6796586468
 20
591.8029156266
 10
-438.0674137763
 20
592.8541597243
 10
-438.6668092651
 20
593.8373613453
 10
-439.4128913113
 20
594.645975338
 10
-440.2248103487
 20
595.1923758294
 10
-441.0145823512
 20
595.417351848
 10
-441.6966232678
 20
595.2965237512
 10
-442.1970233823
 20
594.8429851383
 10
-442.4615565777
 20
594.1058839553
 10
-442.4615565777
 20
593.1650965526
 10
-442.1970233823
 20
592.1225718432
 10
-441.6966232678
 20
591.0912835558
 10
-441.0145823512
 20
590.1829877784
 10
-440.2248103487
 20
589.4961124522
 10
-439.4128913113
 20
589.1050911767
 10
-438.6668092651
 20
589.0522971744
 10
-438.0674137763
 20
589.3434514947
 10
-437.6796586468
 20
589.9470030492
 10
-437.5455631614
 20
590.797547662
  0
LWPOLYLINE
  5
10E
330
1F
100
AcDbEntity
  8
0
  6
Continuous
 62
     7
370
    35
100
AcDbPolyline
 90
       20
 70
   128
 43
0.0
 10
-458.758766597
 20
603.0436693393
 10
-458.8928620824
 20
604.049037304
 10
-459.2806172119
 20
605.1002814017
 10
-459.8800127007
 20
606.0834830227
 10
-460.6260947469
 20
606.8920970154
 10
-461.4380137843
 20
607.4384975068
 10
-462.2277857868
 20
607.6634735253
 10
-462.9098267034
 20
607.5426454286
 10
-463.4102268179
 20
607.0891068156
 10
-463.6747600133
 20
606.3520056326
 10
-463.6747600133
 20
605.4112182299
 10
-463.4102268179
 20
604.3686935206
 10
-462.9098267034
 20
603.3374052332
 10
-462.2277857868
 20
602.4291094558
 10
-461.4380137843
 20
601.7422341295
 10
-460.6260947469
 20
601.351212854
 10
-459.8800127007
 20
601.2984188517
 10
-459.2806172119
 20
601.589573172
 10
-458.8928620824
 20
602.1931247266
 10
-458.758766597
 20
603.0436693393
  0
LWPOLYLINE
  5
10F
330
1F
100
AcDbEntity
  8
0
  6
Continuous
 62
     7
370
    35
100
AcDbPolyline
 90
       20
 70
   128
 43
0.0
 10
-953.7335134276
 20
888.7865084773
 10
-953.867608913
 20
889.7918764419
 10
-954.2553640425
 20
890.8431205396
 10
-954.8547595313
 20
891.8263221606
 10
-955.6008415775
 20
892.6349361533
 10
-956.4127606148
 20
893.1813366447
 10
-957.2025326173
 20
893.4063126633
 10
-957.884573534
 20
893.2854845665
 10
-958.3849736485
 20
892.8319459536
 10
-958.6495068439
 20
892.0948447705
 10
-958.6495068439
 20
891.1540573679
 10
-958.3849736485
 20
890.1115326585
 10
-957.884573534
 20
889.0802443711
 10
-957.2025326173
 20
888.1719485937
 10
-956.4127606148
 20
887.4850732675
 10
-955.6008415775
 20
887.094051992
 10
-954.8547595313
 20
887.0412579897
 10
-954.2553640425
 20
887.33241231
 10
-953.867608913
 20
887.9359638645
 10
-953.7335134276
 20
888.7865084773
  0
LWPOLYLINE
  5
110
330
1F
100
AcDbEntity
  8
0
  6
Continuous
 62
     7
370
    35
100
AcDbPolyline
 90
       20
 70
   128
 43
0.0
 10
-932.520309992
 20
876.5403867999
 10
-932.6544054774
 20
877.5457547646
 10
-933.0421606069
 20
878.5969988623
 10
-933.6415560957
 20
879.5802004833
 10
-934.3876381419
 20
880.388814476
 10
-935.1995571792
 20
880.9352149674
 10
-935.9893291818
 20
881.1601909859
 10
-936.6713700984
 20
881.0393628892
 10
-937.1717702129
 20
880.5858242762
 10
-937.4363034083
 20
879.8487230932
 10
-937.4363034083
 20
878.9079356905
 10
-937.1717702129
 20
877.8654109812
 10
-936.6713700984
 20
876.8341226938
 10
-935.9893291818
 20
875.9258269164
 10
-935.1995571792
 20
875.2389515902
 10
-934.3876381419
 20
874.8479303146
 10
-933.6415560957
 20
874.7951363124
 10
-933.0421606069
 20
875.0862906326
 10
-932.6544054774
 20
875.6898421872
 10
-932.520309992
 20
876.5403867999
  0
LINE
  5
111
330
1F
100
AcDbEntity
  8
0
  6
Continuous
 62
     7
370
    35
100
AcDbLine
 10
66.5215718246
 20
769.1208112721
 30
0.0
 11
66.5215718246
 21
771.1621633018
 31
0.0
  0
LWPOLYLINE
  5
112
330
1F
100
AcDbEntity
  8
0
  6
Continuous
 62
     7
370
    35
100
AcDbPolyline
 90
        9
 70
   128
 43
0.0
 10
66.5215718246
 20
771.1621633018
 10
66.4946591752
 20
771.3028652803
 10
66.418018434
 20
771.3910739744
 10
66.303317459
 20
771.4133604102
 10
66.168018434
 20
771.3663316798
 10
66.032719409
 20
771.257147481
 10
65.918018434
 20
771.1024301184
 10
65.8413776928
 20
770.9257339079
 10
65.8144650434
 20
770.7539592459
  0
LINE
  5
113
330
1F
100
AcDbEntity
  8
0
  6
Continuous
 62
     7
370
    35
100
AcDbLine
 10
65.8144650434
 20
770.7539592459
 30
0.0
 11
65.8144650434
 21
769.937418434
 31
0.0
  0
LINE
  5
114
330
1F
100
AcDbEntity
  8
0
  6
Continuous
 62
     7
370
    35
100
AcDbLine
 10
-346.2287883884
 20
532.0699113801
 30
0.0
 11
65.8144650434
 21
769.937418434
 31
0.0
  0
LINE
  5
115
330
1F
100
AcDbEntity
  8
0
  6
Continuous
 62
     7
370
    35
100
AcDbLine
 10
-346.2287883884
 20
532.0699113801
 30
0.0
 11
-346.2287883884
 21
532.886452192
 31
0.0
  0
LWPOLYLINE
  5
116
330
1F
100
AcDbEntity
  8
0
  6
Continuous
 62
     7
370
    35
100
AcDbPolyline
 90
        9
 70
   128
 43
0.0
 10
-346.2287883884
 20
532.886452192
 10
-346.2557010377
 20
533.0271541704
 10
-346.3323417789
 20
533.1153628646
 10
-346.4470427539
 20
533.1376493004
 10
-346.5823417789
 20
533.0906205699
 10
-346.717640804
 20
532.9814363712
 10
-346.8323417789
 20
532.8267190086
 10
-346.9089825202
 20
532.6500227981
 10
-346.9358951695
 20
532.478248136
  0
LINE
  5
117
330
1F
100
AcDbEntity
  8
0
  6
Continuous
 62
     7
370
    35
100
AcDbLine
 10
-346.9358951695
 20
532.478248136
 30
0.0
 11
-346.9358951695
 21
530.4368961063
 31
0.0
  0
LINE
  5
118
330
1F
100
AcDbEntity
  8
0
  6
Continuous
 62
     7
370
    35
100
AcDbLine
 10
-358.9567104497
 20
523.4974271558
 30
0.0
 11
-346.9358951695
 21
530.4368961063
 31
0.0
  0
ARC
  5
119
330
1F
100
AcDbEntity
  8
0
  6
Continuous
 62
     7
370
    35
100
AcDbCircle
 10
-359.784807691
 20
524.5126558331
 30
0.0
 40
1.310127592285499
100
AcDbArc
 50
170.7859630095
 51
309.2032852357
  0
LINE
  5
11A
330
1F
100
AcDbEntity
  8
0
  6
Continuous
 62
     7
370
    35
100
AcDbLine
 10
-361.0780307933
 20
558.2006107111
 30
0.0
 11
-361.0780307933
 21
524.7224374238
 31
0.0
  0
LINE
  5
11B
330
1F
100
AcDbEntity
  8
0
  6
Continuous
 62
     7
370
    35
100
AcDbLine
 10
94.8058430721
 20
821.3767692315
 30
0.0
 11
94.8058430721
 21
787.8985959442
 31
0.0
  0
ARC
  5
11C
330
1F
100
AcDbEntity
  8
0
  6
Continuous
 62
     7
370
    35
100
AcDbCircle
 10
90.200194768
 20
788.1081785009
 30
0.0
 40
4.610414422716122
100
AcDbArc
 50
302.60547834
 51
357.3945215143
  0
LINE
  5
11D
330
1F
100
AcDbEntity
  8
0
  6
Continuous
 62
     7
370
    35
100
AcDbLine
 10
66.5215718246
 20
769.1208112721
 30
0.0
 11
92.6845227285
 21
784.2243613408
 31
0.0
  0
LINE
  5
11E
330
1F
100
AcDbEntity
  8
0
  6
Continuous
 62
     7
370
    35
100
AcDbLine
 10
-362.138690965
 20
525.3347435076
 30
0.0
 11
-361.0780307933
 21
524.7224374238
 31
0.0
  0
LINE
  5
11F
330
1F
100
AcDbEntity
  8
0
  6
Continuous
 62
     7
370
    35
100
AcDbLine
 10
-362.138690965
 20
558.8129167949
 30
0.0
 11
-362.138690965
 21
525.3347435076
 31
0.0
  0
LINE
  5
120
330
1F
100
AcDbEntity
  8
0
  6
Continuous
 62
     7
370
    35
100
AcDbLine
 10
-1070.759685714
 20
1495.5838944405
 30
0.0
 11
-1524.7222392357
 21
1233.5168905454
 31
0.0
  0
LINE
  5
121
330
1F
100
AcDbEntity
  8
0
  6
Continuous
 62
     7
370
    35
100
AcDbLine
 10
91.7238625567
 20
824.4964265222
 30
0.0
 11
-1070.759685714
 21
1495.5838944405
 31
0.0
  0
LWPOLYLINE
  5
122
330
1F
100
AcDbEntity
  8
0
  6
Continuous
 62
     7
370
    35
100
AcDbPolyline
 90
       22
 70
   128
 43
0.0
 10
-440.904320372
 20
1065.6429725518
 10
-439.8850082222
 20
1065.2086867403
 10
-438.6892408824
 20
1064.9671396964
 10
-437.4232675286
 20
1064.939793935
 10
-436.1995754486
 20
1065.1290792468
 10
-435.1268950541
 20
1065.5181768015
 10
-434.3005387053
 20
1066.0725135736
 10
-433.7939317903
 20
1066.7428343083
 10
-433.6520885567
 20
1067.4695780667
 10
-433.8876123982
 20
1068.1881704766
 10
-434.479575988
 20
1068.8347614488
 10
-435.3753807633
 20
1069.351898538
 10
-436.4954305387
 20
1069.6936318444
 10
-437.7402039763
 20
1069.8295968641
 10
-438.9990974937
 20
1069.7477125083
 10
-440.1602528772
 20
1069.4552545614
 10
-441.1204963754
 20
1068.9782091954
 10
-441.7945061395
 20
1068.3589639846
 10
-442.1223934441
 20
1067.6525415835
 10
-442.0750240632
 20
1066.9217107225
 10
-441.6566069744
 20
1066.2314089308
 10
-440.904320372
 20
1065.6429725518
  0
LWPOLYLINE
  5
123
330
1F
100
AcDbEntity
  8
0
  6
Continuous
 62
     7
370
    35
100
AcDbPolyline
 90
       22
 70
   128
 43
0.0
 10
-653.036354728
 20
1188.1041893253
 10
-652.0170425781
 20
1187.6699035137
 10
-650.8212752384
 20
1187.4283564698
 10
-649.5553018845
 20
1187.4010107084
 10
-648.3316098046
 20
1187.5902960203
 10
-647.25892941
 20
1187.9793935749
 10
-646.4325730613
 20
1188.533730347
 10
-645.9259661462
 20
1189.2040510817
 10
-645.7841229126
 20
1189.9307948401
 10
-646.0196467542
 20
1190.64938725
 10
-646.611610344
 20
1191.2959782222
 10
-647.5074151193
 20
1191.8131153115
 10
-648.6274648947
 20
1192.1548486178
 10
-649.8722383323
 20
1192.2908136375
 10
-651.1311318497
 20
1192.2089292817
 10
-652.2922872332
 20
1191.9164713348
 10
-653.2525307313
 20
1191.4394259688
 10
-653.9265404954
 20
1190.820180758
 10
-654.2544278
 20
1190.1137583569
 10
-654.2070584192
 20
1189.3829274959
 10
-653.7886413304
 20
1188.6926257042
 10
-653.036354728
 20
1188.1041893253
  0
LINE
  5
124
330
1F
100
AcDbEntity
  8
0
  6
Continuous
 62
     7
370
    35
100
AcDbLine
 10
-752.56163418
 20
1232.7004824336
 30
0.0
 11
-1069.3454721516
 21
1049.8250653853
 31
0.0
  0
LINE
  5
125
330
1F
100
AcDbEntity
  8
0
  6
Continuous
 62
     7
370
    35
100
AcDbLine
 10
-1069.3454721516
 20
1049.8250653853
 30
0.0
 11
-432.9493690837
 21
682.4414150651
 31
0.0
  0
LINE
  5
126
330
1F
100
AcDbEntity
  8
0
  6
Continuous
 62
     7
370
    35
100
AcDbLine
 10
-432.9493690837
 20
682.4414150651
 30
0.0
 11
-116.1655311121
 21
865.3168321133
 31
0.0
  0
LINE
  5
127
330
1F
100
AcDbEntity
  8
0
  6
Continuous
 62
     7
370
    35
100
AcDbLine
 10
-116.1655311121
 20
865.3168321133
 30
0.0
 11
-752.56163418
 21
1232.7004824336
 31
0.0
  0
ARC
  5
128
330
1F
100
AcDbEntity
  8
0
  6
Continuous
 62
     7
370
    35
100
AcDbCircle
 10
-360.6686852579
 20
525.1724832956
 30
0.0
 40
1.47893379008263
100
AcDbArc
 50
173.7011524833
 51
234.9866671233
  0
ARC
  5
129
330
1F
100
AcDbEntity
  8
0
  6
Continuous
 62
     7
370
    35
100
AcDbCircle
 10
-362.1061280345
 20
523.2878446152
 30
0.0
 40
1.310127592285409
100
AcDbArc
 50
170.7859630095
 51
309.2032852357
  0
ARC
  5
12A
330
1F
100
AcDbEntity
  8
0
  6
Continuous
 62
     7
370
    35
100
AcDbCircle
 10
-1526.334214044
 20
1195.5319885375
 30
0.0
 40
1.478933790023421
100
AcDbArc
 50
173.701152482
 51
234.9866671247
  0
ARC
  5
12B
330
1F
100
AcDbEntity
  8
0
  6
Continuous
 62
     7
370
    35
100
AcDbCircle
 10
-361.6920794139
 20
524.0050414944
 30
0.0
 40
0.6550637961427493
100
AcDbArc
 50
170.7859630095
 51
309.2032852357
  0
LINE
  5
12C
330
1F
100
AcDbEntity
  8
0
  6
Continuous
 62
     7
370
    35
100
AcDbLine
 10
-361.2780307933
 20
523.4974271558
 30
0.0
 11
-361.2780307933
 21
522.272615938
 31
0.0
  0
LINE
  5
12D
330
1F
100
AcDbEntity
  8
0
  6
Continuous
 62
     7
370
    35
100
AcDbLine
 10
-361.2780307933
 20
523.4974271558
 30
0.0
 11
-362.338690951
 21
524.1097332316
 31
0.0
  0
LINE
  5
12E
330
1F
100
AcDbEntity
  8
0
  6
Continuous
 62
     7
370
    35
100
AcDbLine
 10
-360.9959492976
 20
523.6602693371
 30
0.0
 11
-361.2780307933
 21
523.4974271558
 31
0.0
  0
LINE
  5
12F
330
1F
100
AcDbEntity
  8
0
  6
Continuous
 62
     7
370
    35
100
AcDbLine
 10
-359.5997512662
 20
523.2414660864
 30
0.0
 11
-361.2780307933
 21
522.272615938
 31
0.0
  0
LINE
  5
130
330
1F
100
AcDbEntity
  8
0
  6
Continuous
 62
     7
370
    35
100
AcDbLine
 10
-362.338690965
 20
539.2132833084
 30
0.0
 11
-362.138690965
 21
539.097825766
 31
0.0
  0
LINE
  5
131
330
1F
100
AcDbEntity
  8
0
  6
Continuous
 62
     7
370
    35
100
AcDbLine
 10
-346.5823992413
 20
533.0905873922
 30
0.0
 11
-346.2287883884
 21
532.886452192
 31
0.0
  0
LINE
  5
132
330
1F
100
AcDbEntity
  8
0
  6
Continuous
 62
     7
370
    35
100
AcDbLine
 10
-346.9358951695
 20
532.478115436
 30
0.0
 11
-346.2287883884
 21
532.0699113801
 31
0.0
  0
ARC
  5
133
330
1F
100
AcDbEntity
  8
0
  6
Continuous
 62
     7
370
    35
100
AcDbCircle
 10
64.3874083756
 20
769.7557263482
 30
0.0
 40
1.438576639335976
100
AcDbArc
 50
304.0563508338
 51
7.2558295596
  0
ARC
  5
134
330
1F
100
AcDbEntity
  8
0
  6
Continuous
 62
     7
370
    35
100
AcDbCircle
 10
-347.6644349209
 20
531.900833142
 30
0.0
 40
1.445568544522178
100
AcDbArc
 50
300.2637629882
 51
6.7168690245
  0
ARC
  5
135
330
1F
100
AcDbEntity
  8
0
  6
Continuous
 62
     7
370
    35
100
AcDbCircle
 10
-436.9269374901
 20
594.0121010524
 30
0.0
 40
4.459202913798613
100
AcDbArc
 50
161.5806643879
 51
258.413959132
  0
ARC
  5
136
330
1F
100
AcDbEntity
  8
0
  6
Continuous
 62
     7
370
    35
100
AcDbCircle
 10
-458.1401407301
 20
606.2582228414
 30
0.0
 40
4.459203120009255
100
AcDbArc
 50
161.5806697246
 51
258.4139536914
  0
SPLINE
  5
137
330
1F
100
AcDbEntity
  8
0
  6
Continuous
 62
     7
370
    35
100
AcDbSpline
210
0.0
220
0.0
230
1.0
 70
     8
 71
     3
 72
    10
 73
     6
 74
     0
 42
0.00000001
 43
0.00000001
 40
0.0
 40
0.0
 40
0.0
 40
0.0
 40
0.4473441127783047
 40
0.894751803383543
 40
1.0
 40
1.0
 40
1.0
 40
1.0
 10
-1070.759685713965
 20
1495.58389444048
 30
0.0
 10
-1070.586060378861
 20
1495.734411201076
 30
0.0
 10
-1070.238785032521
 20
1496.035466114141
 30
0.0
 10
-1069.877216352919
 20
1496.12237284124
 30
0.0
 10
-1069.777052772914
 20
1496.004249174222
 30
0.0
 10
-1069.757977546529
 20
1495.981753615559
 30
0.0
  0
SPLINE
  5
138
330
1F
100
AcDbEntity
  8
0
  6
Continuous
 62
     7
370
    35
100
AcDbSpline
210
0.0
220
0.0
230
1.0
 70
     8
 71
     3
 72
    22
 73
    18
 74
     0
 42
0.00000001
 43
0.00000001
 40
0.0
 40
0.0
 40
0.0
 40
0.0
 40
0.1250000000000001
 40
0.1250000000000001
 40
0.2500000000000003
 40
0.2500000000000003
 40
0.3750000000000003
 40
0.3750000000000003
 40
0.5000000000000003
 40
0.5000000000000003
 40
0.6250000000000002
 40
0.6250000000000002
 40
0.7500000000000001
 40
0.7500000000000001
 40
0.8750000000000001
 40
0.8750000000000001
 40
1.0
 40
1.0
 40
1.0
 40
1.0
 10
94.80584307205608
 20
822.7168389416303
 30
0.0
 10
94.76546319715628
 20
822.9018885453647
 30
0.0
 10
94.71197709176916
 20
823.076032045058
 30
0.0
 10
94.57853397969951
 20
823.4037690116223
 30
0.0
 10
94.49767419281451
 20
823.5586516280589
 30
0.0
 10
94.31084544867096
 20
823.8405645669111
 30
0.0
 10
94.20600832118554
 20
823.966558496072
 30
0.0
 10
93.97273427016373
 20
824.1897062580667
 30
0.0
 10
93.84277609904834
 20
824.2875036155265
 30
0.0
 10
93.5668564396146
 20
824.4469591597903
 30
0.0
 10
93.42051913562833
 20
824.5095230148897
 30
0.0
 10
93.10995575131741
 20
824.600923678591
 30
0.0
 10
92.94515228473065
 20
824.6293514201479
 30
0.0
 10
92.61006976825381
 20
824.6503349848465
 30
0.0
 10
92.43817104678031
 20
824.6435232925412
 30
0.0
 10
92.08440877183644
 20
824.5953245626055
 30
0.0
 10
91.90430476073885
 20
824.5539719759325
 30
0.0
 10
91.72386255671661
 20
824.496426522212
 30
0.0
  0
LINE
  5
139
330
1F
100
AcDbEntity
  8
0
  6
Continuous
 62
     7
370
    35
100
AcDbLine
 10
94.8058430721
 20
822.7168389416
 30
0.0
 11
94.2931934165
 21
822.4208925949
 31
0.0
  0
LINE
  5
13A
330
1F
100
AcDbEntity
  8
0
  6
Continuous
 62
     7
370
    35
100
AcDbLine
 10
66.1679609716
 20
771.366298502
 30
0.0
 11
66.5215718246
 21
771.1621633018
 31
0.0
  0
LINE
  5
13B
330
1F
100
AcDbEntity
  8
0
  6
Continuous
 62
     7
370
    35
100
AcDbLine
 10
65.7847753387
 20
769.5461548297
 30
0.0
 11
66.5215718246
 21
769.1208112721
 31
0.0
  0
LINE
  5
13C
330
1F
100
AcDbEntity
  8
0
  6
Continuous
 62
     7
370
    35
100
AcDbLine
 10
94.8058430721
 20
822.7168389416
 30
0.0
 11
94.8058430721
 21
821.3767692315
 31
0.0
  0
LWPOLYLINE
  5
13D
330
1F
100
AcDbEntity
  8
0
  6
Continuous
 62
     7
370
    35
100
AcDbPolyline
 90
        3
 70
   128
 43
0.0
 10
66.0761682709
 20
769.3779372705
 10
66.0461826189
 20
769.3744021443
 10
65.7431619712
 20
769.3488068781
  0
LINE
  5
13E
330
1F
100
AcDbEntity
  8
0
  6
Continuous
 62
     7
370
    35
100
AcDbLine
 10
-752.56163418
 20
1231.4756712157
 30
0.0
 11
-752.56163418
 21
1232.7004824336
 31
0.0
  0
LINE
  5
13F
330
1F
100
AcDbEntity
  8
0
  6
Continuous
 62
     7
370
    35
100
AcDbLine
 10
-117.226363685
 20
864.7044265044
 30
0.0
 11
-752.56163418
 21
1231.4756712157
 31
0.0
  0
ARC
  5
140
330
1F
100
AcDbEntity
  8
0
  6
Continuous
 62
     7
370
    35
100
AcDbCircle
 10
-931.9016842685
 20
879.7549402207
 30
0.0
 40
4.459202969043964
100
AcDbArc
 50
161.5806658413
 51
258.4139576988
  0
ARC
  5
141
330
1F
100
AcDbEntity
  8
0
  6
Continuous
 62
     7
370
    35
100
AcDbCircle
 10
-953.1148876356
 20
892.0010619364
 30
0.0
 40
4.459203040967656
100
AcDbArc
 50
161.5806676682
 51
258.4139557656
  0
LINE
  5
142
330
1F
100
AcDbEntity
  8
0
  6
Continuous
 62
     7
370
    35
100
AcDbLine
 10
-752.56163418
 20
1231.4756712157
 30
0.0
 11
-1068.2846395787
 21
1049.2126597764
 31
0.0
  0
LWPOLYLINE
  5
143
330
1F
100
AcDbEntity
  8
0
  6
Continuous
 62
     7
370
    35
100
AcDbPolyline
 90
        3
 70
   128
 43
0.0
 10
-434.893912732
 20
1067.8878958093
 10
-434.1416261296
 20
1067.2994594304
 10
-433.7836415791
 20
1066.7654341805
  0
LWPOLYLINE
  5
144
330
1F
100
AcDbEntity
  8
0
  6
Continuous
 62
     7
370
    35
100
AcDbPolyline
 90
        9
 70
   128
 43
0.0
 10
-442.0145915249
 20
1066.7654341805
 10
-442.0043013137
 20
1066.7880340528
 10
-441.4976943987
 20
1067.4583547875
 10
-440.6713380499
 20
1068.0126915596
 10
-439.5986576554
 20
1068.4017891143
 10
-438.3749655754
 20
1068.5910744262
 10
-437.1089922216
 20
1068.5637286647
 10
-435.9132248818
 20
1068.3221816208
 10
-434.893912732
 20
1067.8878958093
  0
ARC
  5
145
330
1F
100
AcDbEntity
  8
0
  6
Continuous
 62
     7
370
    35
100
AcDbCircle
 10
-1426.8764307456
 20
1165.4977795678
 30
0.0
 40
4.459203344905998
100
AcDbArc
 50
161.5806758823
 51
258.4139481067
  0
LWPOLYLINE
  5
146
330
1F
100
AcDbEntity
  8
0
  6
Continuous
 62
     7
370
    35
100
AcDbPolyline
 90
        3
 70
   128
 43
0.0
 10
-647.0259470879
 20
1190.3491125827
 10
-646.2736604856
 20
1189.7606762038
 10
-645.915675935
 20
1189.2266509537
  0
LWPOLYLINE
  5
147
330
1F
100
AcDbEntity
  8
0
  6
Continuous
 62
     7
370
    35
100
AcDbPolyline
 90
        9
 70
   128
 43
0.0
 10
-654.1466258809
 20
1189.2266509537
 10
-654.1363356697
 20
1189.2492508262
 10
-653.6297287547
 20
1189.9195715609
 10
-652.8033724059
 20
1190.473908333
 10
-651.7306920113
 20
1190.8630058877
 10
-650.5069999314
 20
1191.0522911996
 10
-649.2410265775
 20
1191.0249454381
 10
-648.0452592378
 20
1190.7833983942
 10
-647.0259470879
 20
1190.3491125827
  0
ARC
  5
148
330
1F
100
AcDbEntity
  8
0
  6
Continuous
 62
     7
370
    35
100
AcDbCircle
 10
-1448.0896343048
 20
1177.7439011711
 30
0.0
 40
4.459203213073316
100
AcDbArc
 50
161.5806723212
 51
258.4139514306
  0
SPLINE
  5
149
330
1F
100
AcDbEntity
  8
0
  6
Continuous
 62
     7
370
    35
100
AcDbSpline
210
0.0
220
0.0
230
1.0
 70
     8
 71
     3
 72
    22
 73
    18
 74
     0
 42
0.00000001
 43
0.00000001
 40
0.0
 40
0.0
 40
0.0
 40
0.0
 40
0.125
 40
0.125
 40
0.25
 40
0.25
 40
0.375
 40
0.375
 40
0.5
 40
0.5
 40
0.625
 40
0.625
 40
0.75
 40
0.75
 40
0.875
 40
0.875
 40
1.0
 40
1.0
 40
1.0
 40
1.0
 10
-1524.72223923573
 20
1233.516890545391
 30
0.0
 10
-1524.902681431191
 20
1233.574435996381
 30
0.0
 10
-1525.080231120959
 20
1233.615176927575
 30
0.0
 10
-1525.430767938303
 20
1233.663457287448
 30
0.0
 10
-1525.605322818464
 20
1233.670859332507
 30
0.0
 10
-1525.94286559754
 20
1233.649990758805
 30
0.0
 10
-1526.10439011981
 20
1233.622182277271
 30
0.0
 10
-1526.414262313029
 20
1233.531706388939
 30
0.0
 10
-1526.563927828511
 20
1233.468043153104
 30
0.0
 10
-1526.839963299552
 20
1233.308788200427
 30
0.0
 10
-1526.967305454303
 20
1233.213323781852
 30
0.0
 10
-1527.20172592084
 20
1232.990039716316
 30
0.0
 10
-1527.30873865189
 20
1232.861515484897
 30
0.0
 10
-1527.494436952314
 20
1232.581790868904
 30
0.0
 10
-1527.57448001276
 20
1232.429503889816
 30
0.0
 10
-1527.709606403494
 20
1232.099014161053
 30
0.0
 10
-1527.763839874254
 20
1231.922352577323
 30
0.0
 10
-1527.804219751069
 20
1231.737302964809
 30
0.0
  0
LINE
  5
14A
330
1F
100
AcDbEntity
  8
0
  6
Continuous
 62
     7
370
    35
100
AcDbLine
 10
-1527.8042197511
 20
1231.7373029648
 30
0.0
 11
-1527.2853189375
 21
1231.4377479013
 31
0.0
  0
SPLINE
  5
14B
330
1F
100
AcDbEntity
  8
0
  6
Continuous
 62
     7
370
    35
100
AcDbSpline
210
0.0
220
0.0
230
1.0
 70
     8
 71
     3
 72
    10
 73
     6
 74
     0
 42
0.00000001
 43
0.00000001
 40
0.0
 40
0.0
 40
0.0
 40
0.0
 40
0.3413860708283636
 40
0.7880524629336324
 40
1.0
 40
1.0
 40
1.0
 40
1.0
 10
-1071.764024042281
 20
1495.980182865268
 30
0.0
 10
-1071.680414665217
 20
1496.019434976661
 30
0.0
 10
-1071.48741154895
 20
1496.110044189226
 30
0.0
 10
-1071.101256775926
 20
1495.91180227633
 30
0.0
 10
-1070.842844856799
 20
1495.6637271242
 30
0.0
 10
-1070.759685713965
 20
1495.58389444048
 30
0.0
  0
LINE
  5
14C
330
1F
100
AcDbEntity
  8
0
  6
Continuous
 62
     7
370
    35
100
AcDbLine
 10
-1527.8042197511
 20
1231.7373029648
 30
0.0
 11
-1527.8042197511
 21
1230.3972332547
 31
0.0
  0
LINE
  5
14D
330
1F
100
AcDbEntity
  8
0
  6
Continuous
 62
     7
370
    35
100
AcDbLine
 10
-1620.3205797443
 20
1471.9948850937
 30
0.0
 11
-1620.3205797443
 21
1470.7700738759
 31
0.0
  0
LINE
  5
14E
330
1F
100
AcDbEntity
  8
0
  6
Continuous
 62
     7
370
    35
100
AcDbLine
 10
-1592.3591391225
 20
1416.8057153468
 30
0.0
 11
-428.9150301632
 21
2088.4477031474
 31
0.0
  0
LINE
  5
14F
330
1F
100
AcDbEntity
  8
0
  6
Continuous
 62
     7
370
    35
100
AcDbLine
 10
-2049.3214488421
 20
1679.4269939999
 30
0.0
 11
-1594.3983346317
 21
1416.8054702226
 31
0.0
  0
LINE
  5
150
330
1F
100
AcDbEntity
  8
0
  6
Continuous
 62
     7
370
    35
100
AcDbLine
 10
-1608.8637254948
 20
1479.3261474703
 30
0.0
 11
-1608.8637254948
 21
1480.1589662119
 31
0.0
  0
LINE
  5
151
330
1F
100
AcDbEntity
  8
0
  6
Continuous
 62
     7
370
    35
100
AcDbLine
 10
-2048.7413808047
 20
1716.5419821436
 30
0.0
 11
-2049.8020409765
 21
1715.9296760597
 31
0.0
  0
LINE
  5
152
330
1F
100
AcDbEntity
  8
0
  6
Continuous
 62
     7
370
    35
100
AcDbLine
 10
-885.3971723622
 20
2390.6911795313
 30
0.0
 11
-2049.8020409765
 21
1718.4945569877
 31
0.0
  0
LINE
  5
153
330
1F
100
AcDbEntity
  8
0
  6
Continuous
 62
     7
370
    35
100
AcDbLine
 10
-457.4262406712
 20
2144.2513873032
 30
0.0
 11
-869.469494103
 21
2382.1188943571
 31
0.0
  0
LINE
  5
154
330
1F
100
AcDbEntity
  8
0
  6
Continuous
 62
     7
370
    35
100
AcDbLine
 10
-882.8082069667
 20
2374.4185951713
 30
0.0
 11
-882.8082069667
 21
2373.1937839535
 31
0.0
  0
LINE
  5
155
330
1F
100
AcDbEntity
  8
0
  6
Continuous
 62
     7
370
    35
100
AcDbLine
 10
-872.0584594984
 20
2381.7660691276
 30
0.0
 11
-872.0584594984
 21
2382.9908803454
 31
0.0
  0
ARC
  5
156
330
1F
100
AcDbEntity
  8
0
  6
Continuous
 62
     7
370
    35
100
AcDbCircle
 10
-1596.8239373163
 20
1452.395211781
 30
0.0
 40
4.610414422716657
100
AcDbArc
 50
2.6054784857
 51
57.39452166
  0
LINE
  5
157
330
1F
100
AcDbEntity
  8
0
  6
Continuous
 62
     7
370
    35
100
AcDbLine
 10
-429.9347407415
 20
2128.4756514847
 30
0.0
 11
-1594.3396093557
 21
1456.2790289411
 31
0.0
  0
ARC
  5
158
330
1F
100
AcDbEntity
  8
0
  6
Continuous
 62
     7
370
    35
100
AcDbCircle
 10
-432.419068702
 20
2124.5918343245
 30
0.0
 40
4.610414422717837
100
AcDbArc
 50
2.6054784857
 51
57.39452166
  0
LINE
  5
159
330
1F
100
AcDbEntity
  8
0
  6
Continuous
 62
     7
370
    35
100
AcDbLine
 10
-427.8134203979
 20
2124.8014168813
 30
0.0
 11
-1592.2182890122
 21
1452.6047943377
 31
0.0
  0
LINE
  5
15A
330
1F
100
AcDbEntity
  8
0
  6
Continuous
 62
     7
370
    35
100
AcDbLine
 10
-1593.278949184
 20
1453.2171004216
 30
0.0
 11
-1592.2182890122
 21
1452.6047943377
 31
0.0
  0
ARC
  5
15B
330
1F
100
AcDbEntity
  8
0
  6
Continuous
 62
     7
370
    35
100
AcDbCircle
 10
-1595.581773336
 20
1453.1123091432
 30
0.0
 40
2.305207211359734
100
AcDbArc
 50
2.6054784857
 51
57.39452166
  0
LINE
  5
15C
330
1F
100
AcDbEntity
  8
0
  6
Continuous
 62
     7
370
    35
100
AcDbLine
 10
-1594.3396093557
 20
1455.0542177233
 30
0.0
 11
-1594.3396093557
 21
1456.2790289411
 31
0.0
  0
LINE
  5
15D
330
1F
100
AcDbEntity
  8
0
  6
Continuous
 62
     7
370
    35
100
AcDbLine
 10
-1594.5396093557
 20
1417.9018098326
 30
0.0
 11
-2050.4234832211
 21
1681.077968353
 31
0.0
  0
LINE
  5
15E
330
1F
100
AcDbEntity
  8
0
  6
Continuous
 62
     7
370
    35
100
AcDbLine
 10
-2050.4234832211
 20
1681.077968353
 30
0.0
 11
-2050.4234832211
 21
1714.5561416403
 31
0.0
  0
ARC
  5
15F
330
1F
100
AcDbEntity
  8
0
  6
Continuous
 62
     7
370
    35
100
AcDbCircle
 10
-2049.1302601188
 20
1714.765923231
 30
0.0
 40
1.310127592285691
100
AcDbArc
 50
50.7967147643
 51
189.2140369905
  0
LINE
  5
160
330
1F
100
AcDbEntity
  8
0
  6
Continuous
 62
     7
370
    35
100
AcDbLine
 10
-2036.2813475973
 20
1708.8416829577
 30
0.0
 11
-2048.3021628775
 21
1715.7811519082
 31
0.0
  0
LINE
  5
161
330
1F
100
AcDbEntity
  8
0
  6
Continuous
 62
     7
370
    35
100
AcDbLine
 10
-2036.2813475973
 20
1708.8416829577
 30
0.0
 11
-2036.2813475973
 21
1706.800330928
 31
0.0
  0
LWPOLYLINE
  5
162
330
1F
100
AcDbEntity
  8
0
  6
Continuous
 62
     7
370
    35
100
AcDbPolyline
 90
        9
 70
   128
 43
0.0
 10
-2036.2813475973
 20
1706.800330928
 10
-2036.254434948
 20
1706.628556266
 10
-2036.1777942067
 20
1706.4518600555
 10
-2036.0630932318
 20
1706.2971426929
 10
-2035.9277942067
 20
1706.1879584941
 10
-2035.7924951817
 20
1706.1409297637
 10
-2035.6777942067
 20
1706.1632161994
 10
-2035.6011534655
 20
1706.2514248936
 10
-2035.5742408161
 20
1706.3921268721
  0
LINE
  5
163
330
1F
100
AcDbEntity
  8
0
  6
Continuous
 62
     7
370
    35
100
AcDbLine
 10
-2035.5742408161
 20
1706.3921268721
 30
0.0
 11
-2035.5742408161
 21
1707.208667684
 31
0.0
  0
LINE
  5
164
330
1F
100
AcDbEntity
  8
0
  6
Continuous
 62
     7
370
    35
100
AcDbLine
 10
-1622.8238806032
 20
1468.9329565742
 30
0.0
 11
-2035.5742408161
 21
1707.208667684
 31
0.0
  0
LINE
  5
165
330
1F
100
AcDbEntity
  8
0
  6
Continuous
 62
     7
370
    35
100
AcDbLine
 10
-1622.8238806032
 20
1468.9329565742
 30
0.0
 11
-1622.8238806032
 21
1468.1164157623
 31
0.0
  0
LWPOLYLINE
  5
166
330
1F
100
AcDbEntity
  8
0
  6
Continuous
 62
     7
370
    35
100
AcDbPolyline
 90
        9
 70
   128
 43
0.0
 10
-1622.8238806032
 20
1468.1164157623
 10
-1622.7969679538
 20
1467.9446411002
 10
-1622.7203272126
 20
1467.7679448898
 10
-1622.6056262376
 20
1467.6132275272
 10
-1622.4703272126
 20
1467.5040433284
 10
-1622.3350281876
 20
1467.457014598
 10
-1622.2203272126
 20
1467.4793010337
 10
-1622.1436864714
 20
1467.5675097279
 10
-1622.116773822
 20
1467.7082117064
  0
LINE
  5
167
330
1F
100
AcDbEntity
  8
0
  6
Continuous
 62
     7
370
    35
100
AcDbLine
 10
-1622.116773822
 20
1467.7082117064
 30
0.0
 11
-1622.116773822
 21
1469.7495637361
 31
0.0
  0
LINE
  5
168
330
1F
100
AcDbEntity
  8
0
  6
Continuous
 62
     7
370
    35
100
AcDbLine
 10
-1596.6609296993
 20
1455.0542177233
 30
0.0
 11
-1622.116773822
 21
1469.7495637361
 31
0.0
  0
ARC
  5
169
330
1F
100
AcDbEntity
  8
0
  6
Continuous
 62
     7
370
    35
100
AcDbCircle
 10
-1599.1452576598
 20
1451.1704005631
 30
0.0
 40
4.610414422718526
100
AcDbArc
 50
2.6054784857
 51
57.39452166
  0
LINE
  5
16A
330
1F
100
AcDbEntity
  8
0
  6
Continuous
 62
     7
370
    35
100
AcDbLine
 10
-1594.5396093557
 20
1417.9018098326
 30
0.0
 11
-1594.5396093557
 21
1451.3799831199
 31
0.0
  0
LINE
  5
16B
330
1F
100
AcDbEntity
  8
0
  6
Continuous
 62
     7
370
    35
100
AcDbLine
 10
-1596.6609296993
 20
1455.0542177233
 30
0.0
 11
-1595.6002695275
 21
1455.6665238072
 31
0.0
  0
ARC
  5
16C
330
1F
100
AcDbEntity
  8
0
  6
Continuous
 62
     7
370
    35
100
AcDbCircle
 10
-1598.0845974881
 20
1451.782706647
 30
0.0
 40
4.610414422715468
100
AcDbArc
 50
2.6054784856
 51
57.39452166
  0
LINE
  5
16D
330
1F
100
AcDbEntity
  8
0
  6
Continuous
 62
     7
370
    35
100
AcDbLine
 10
-1593.478949184
 20
1451.9922892038
 30
0.0
 11
-1594.5396093557
 21
1451.3799831199
 31
0.0
  0
LINE
  5
16E
330
1F
100
AcDbEntity
  8
0
  6
Continuous
 62
     7
370
    35
100
AcDbLine
 10
-427.8134203979
 20
2090.0984323762
 30
0.0
 11
-427.8134203979
 21
2124.8014168813
 31
0.0
  0
LINE
  5
16F
330
1F
100
AcDbEntity
  8
0
  6
Continuous
 62
     7
370
    35
100
AcDbLine
 10
-427.8134203979
 20
2090.0984323762
 30
0.0
 11
-1592.2182890122
 21
1417.9018098326
 31
0.0
  0
LINE
  5
170
330
1F
100
AcDbEntity
  8
0
  6
Continuous
 62
     7
370
    35
100
AcDbLine
 10
-1592.2182890122
 20
1417.9018098326
 30
0.0
 11
-1592.2182890122
 21
1452.6047943377
 31
0.0
  0
LINE
  5
171
330
1F
100
AcDbEntity
  8
0
  6
Continuous
 62
     7
370
    35
100
AcDbLine
 10
-1592.2182890122
 20
1417.9018098326
 30
0.0
 11
-1593.278949184
 21
1418.5141159165
 31
0.0
  0
LINE
  5
172
330
1F
100
AcDbEntity
  8
0
  6
Continuous
 62
     7
370
    35
100
AcDbLine
 10
-1593.278949184
 20
1418.5141159165
 30
0.0
 11
-1593.278949184
 21
1453.2171004216
 31
0.0
  0
ARC
  5
173
330
1F
100
AcDbEntity
  8
0
  6
Continuous
 62
     7
370
    35
100
AcDbCircle
 10
-457.1583518172
 20
2138.8727622147
 30
0.0
 40
4.611065723736357
100
AcDbArc
 50
62.6096722366
 51
117.3903277634
  0
LINE
  5
174
330
1F
100
AcDbEntity
  8
0
  6
Continuous
 62
     7
370
    35
100
AcDbLine
 10
-429.9347407415
 20
2128.4756514847
 30
0.0
 11
-455.0370314736
 21
2142.9668954696
 31
0.0
  0
LINE
  5
175
330
1F
100
AcDbEntity
  8
0
  6
Continuous
 62
     7
370
    35
100
AcDbLine
 10
-1619.4419000879
 20
1470.770272926
 30
0.0
 11
-1594.3396093557
 21
1456.2790289411
 31
0.0
  0
ARC
  5
176
330
1F
100
AcDbEntity
  8
0
  6
Continuous
 62
     7
370
    35
100
AcDbCircle
 10
-1618.9771190075
 20
1471.9948850937
 30
0.0
 40
1.309845950502882
100
AcDbArc
 50
110.7834207995
 51
249.2165792005
  0
LINE
  5
177
330
1F
100
AcDbEntity
  8
0
  6
Continuous
 62
     7
370
    35
100
AcDbLine
 10
-459.2796721607
 20
2142.9668954696
 30
0.0
 11
-1619.4419000879
 21
1473.2194972614
 31
0.0
  0
LINE
  5
178
330
1F
100
AcDbEntity
  8
0
  6
Continuous
 62
     7
370
    35
100
AcDbLine
 10
-1619.4419000879
 20
1469.5454617081
 30
0.0
 11
-1594.3396093557
 21
1455.0542177233
 31
0.0
  0
LINE
  5
179
330
1F
100
AcDbEntity
  8
0
  6
Continuous
 62
     7
370
    35
100
AcDbLine
 10
-1619.4419000879
 20
1470.770272926
 30
0.0
 11
-1619.4419000879
 21
1469.5454617081
 31
0.0
  0
LINE
  5
17A
330
1F
100
AcDbEntity
  8
0
  6
Continuous
 62
     7
370
    35
100
AcDbLine
 10
-1594.5396093557
 20
1417.9018098326
 30
0.0
 11
-1593.478949184
 21
1418.5141159165
 31
0.0
  0
LINE
  5
17B
330
1F
100
AcDbEntity
  8
0
  6
Continuous
 62
     7
370
    35
100
AcDbLine
 10
-1593.478949184
 20
1418.5141159165
 30
0.0
 11
-1593.478949184
 21
1451.9922892038
 31
0.0
  0
LINE
  5
17C
330
1F
100
AcDbEntity
  8
0
  6
Continuous
 62
     7
370
    35
100
AcDbLine
 10
-1621.0561136502
 20
1470.36186982
 30
0.0
 11
-1622.116773822
 21
1469.7495637361
 31
0.0
  0
LINE
  5
17D
330
1F
100
AcDbEntity
  8
0
  6
Continuous
 62
     7
370
    35
100
AcDbLine
 10
-1595.6002695275
 20
1455.6665238072
 30
0.0
 11
-1621.0561136502
 21
1470.36186982
 31
0.0
  0
ARC
  5
17E
330
1F
100
AcDbEntity
  8
0
  6
Continuous
 62
     7
370
    35
100
AcDbCircle
 10
-1618.8192085568
 20
1470.9197930066
 30
0.0
 40
1.508817835479947
100
AcDbArc
 50
185.6947992512
 51
245.6253417064
  0
LINE
  5
17F
330
1F
100
AcDbEntity
  8
0
  6
Continuous
 62
     7
370
    35
100
AcDbLine
 10
-1622.116773822
 20
1469.3411606301
 30
0.0
 11
-1622.8238806032
 21
1468.9329565742
 31
0.0
  0
ARC
  5
180
330
1F
100
AcDbEntity
  8
0
  6
Continuous
 62
     7
370
    35
100
AcDbCircle
 10
-1618.2182322991
 20
1468.7233740174
 30
0.0
 40
4.610414422714841
100
AcDbArc
 50
122.60547834
 51
177.3945215144
  0
LINE
  5
181
330
1F
100
AcDbEntity
  8
0
  6
Continuous
 62
     7
370
    35
100
AcDbLine
 10
-1620.7025602596
 20
1471.3823799598
 30
0.0
 11
-1620.7025602596
 21
1472.6071911776
 31
0.0
  0
ARC
  5
182
330
1F
100
AcDbEntity
  8
0
  6
Continuous
 62
     7
370
    35
100
AcDbCircle
 10
-1619.4125979329
 20
1469.4012611028
 30
0.0
 40
2.364071642230066
100
AcDbArc
 50
123.0692854487
 51
165.6118656559
  0
ARC
  5
183
330
1F
100
AcDbEntity
  8
0
  6
Continuous
 62
     7
370
    35
100
AcDbCircle
 10
-2030.968592512
 20
1706.9990851272
 30
0.0
 40
4.610414422714992
100
AcDbArc
 50
122.60547834
 51
177.3945215144
  0
LINE
  5
184
330
1F
100
AcDbEntity
  8
0
  6
Continuous
 62
     7
370
    35
100
AcDbLine
 10
-2033.4529204726
 20
1710.8829022874
 30
0.0
 11
-1620.7025602596
 21
1472.6071911776
 31
0.0
  0
LINE
  5
185
330
1F
100
AcDbEntity
  8
0
  6
Continuous
 62
     7
370
    35
100
AcDbLine
 10
-1622.116773822
 20
1468.5246198182
 30
0.0
 11
-1622.8238806032
 21
1468.1164157623
 31
0.0
  0
LINE
  5
186
330
1F
100
AcDbEntity
  8
0
  6
Continuous
 62
     7
370
    35
100
AcDbLine
 10
-1609.7424051513
 20
1478.9343540442
 30
0.0
 11
-1620.7025602596
 21
1472.6071911776
 31
0.0
  0
LINE
  5
187
330
1F
100
AcDbEntity
  8
0
  6
Continuous
 62
     7
370
    35
100
AcDbLine
 10
-1609.7424051513
 20
1478.8188965018
 30
0.0
 11
-1609.7424051513
 21
1478.9343540442
 31
0.0
  0
LINE
  5
188
330
1F
100
AcDbEntity
  8
0
  6
Continuous
 62
     7
370
    35
100
AcDbLine
 10
-1620.3205797443
 20
1471.6028926175
 30
0.0
 11
-1620.7025602596
 21
1471.3823799598
 31
0.0
  0
LINE
  5
189
330
1F
100
AcDbEntity
  8
0
  6
Continuous
 62
     7
370
    35
100
AcDbLine
 10
-2033.4529204726
 20
1710.8829022874
 30
0.0
 11
-2022.4927653642
 21
1717.210065154
 31
0.0
  0
ARC
  5
18A
330
1F
100
AcDbEntity
  8
0
  6
Continuous
 62
     7
370
    35
100
AcDbCircle
 10
-2020.3714450206
 20
1713.1159318991
 30
0.0
 40
4.61106572373648
100
AcDbArc
 50
62.6096722366
 51
117.3903277634
  0
LINE
  5
18B
330
1F
100
AcDbEntity
  8
0
  6
Continuous
 62
     7
370
    35
100
AcDbLine
 10
-2018.2501246771
 20
1717.210065154
 30
0.0
 11
-1609.7424051513
 21
1481.3835783797
 31
0.0
  0
ARC
  5
18C
330
1F
100
AcDbEntity
  8
0
  6
Continuous
 62
     7
370
    35
100
AcDbCircle
 10
-1610.2071862316
 20
1480.1589662119
 30
0.0
 40
1.309845950502882
100
AcDbArc
 50
290.7834207995
 51
69.2165792005
  0
SPLINE
  5
18D
330
1F
100
AcDbEntity
  8
0
  6
Continuous
 62
     7
370
    35
100
AcDbSpline
210
0.0
220
0.0
230
1.0
 70
     8
 71
     3
 72
    22
 73
    18
 74
     0
 42
0.00000001
 43
0.00000001
 40
0.0
 40
0.0
 40
0.0
 40
0.0
 40
0.1250000000000001
 40
0.1250000000000001
 40
0.2500000000000001
 40
0.2500000000000001
 40
0.3750000000000001
 40
0.3750000000000001
 40
0.5000000000000001
 40
0.5000000000000001
 40
0.6250000000000001
 40
0.6250000000000001
 40
0.7500000000000002
 40
0.7500000000000002
 40
0.8750000000000001
 40
0.8750000000000001
 40
1.0
 40
1.0
 40
1.0
 40
1.0
 10
-1593.378949183961
 20
1417.231376877324
 30
0.0
 10
-1593.2792667383
 20
1417.127209815143
 30
0.0
 10
-1593.181191719072
 20
1417.040589133225
 30
0.0
 10
-1592.989906481743
 20
1416.900374793078
 30
0.0
 10
-1592.89586743093
 20
1416.846491949109
 30
0.0
 10
-1592.718882015088
 20
1416.774672729931
 30
0.0
 10
-1592.636667262272
 20
1416.756696656111
 30
0.0
 10
-1592.486293916461
 20
1416.755095819741
 30
0.0
 10
-1592.417628101915
 20
1416.771998923544
 30
0.0
 10
-1592.301455393301
 20
1416.838967067853
 30
0.0
 10
-1592.253377881971
 20
1416.888672981778
 30
0.0
 10
-1592.178955338769
 20
1417.019592212213
 30
0.0
 10
-1592.152876647063
 20
1417.10139421723
 30
0.0
 10
-1592.126602700431
 20
1417.289085112771
 30
0.0
 10
-1592.125897546157
 20
1417.395571293522
 30
0.0
 10
-1592.151526438461
 20
1417.633258972735
 30
0.0
 10
-1592.177909135365
 20
1417.763381833477
 30
0.0
 10
-1592.218289012181
 20
1417.901809832589
 30
0.0
  0
SPLINE
  5
18E
330
1F
100
AcDbEntity
  8
0
  6
Continuous
 62
     7
370
    35
100
AcDbSpline
210
0.0
220
0.0
230
1.0
 70
     8
 71
     3
 72
    10
 73
     6
 74
     0
 42
0.00000001
 43
0.00000001
 40
0.0
 40
0.0
 40
0.0
 40
0.0
 40
0.4472514304156225
 40
0.8945664254859371
 40
1.0
 40
1.0
 40
1.0
 40
1.0
 10
-427.813420397939
 20
2090.098432376168
 30
0.0
 10
-427.9130312716915
 20
2089.790123338659
 30
0.0
 10
-428.1122671761791
 20
2089.173461445878
 30
0.0
 10
-428.5378936442502
 20
2088.631964576235
 30
0.0
 10
-428.8672537568926
 20
2088.502093524958
 30
0.0
 10
-428.9300772826132
 20
2088.477321377338
 30
0.0
  0
LINE
  5
18F
330
1F
100
AcDbEntity
  8
0
  6
Continuous
 62
     7
370
    35
100
AcDbLine
 10
-1593.378949184
 20
1418.4561880952
 30
0.0
 11
-1593.378949184
 21
1417.2313768773
 31
0.0
  0
SPLINE
  5
190
330
1F
100
AcDbEntity
  8
0
  6
Continuous
 62
     7
370
    35
100
AcDbSpline
210
0.0
220
0.0
230
1.0
 70
     8
 71
     3
 72
     8
 73
     4
 74
     0
 42
0.00000001
 43
0.00000001
 40
0.0
 40
0.0
 40
0.0
 40
0.0
 40
1.0
 40
1.0
 40
1.0
 40
1.0
 10
-1593.378949183961
 20
1418.456188095153
 30
0.0
 10
-1593.311656597026
 20
1418.311534745564
 30
0.0
 10
-1593.246758699457
 20
1418.212095093457
 30
0.0
 10
-1593.194879806438
 20
1418.155171366697
 30
0.0
  0
SPLINE
  5
191
330
1F
100
AcDbEntity
  8
0
  6
Continuous
 62
     7
370
    35
100
AcDbSpline
210
0.0
220
0.0
230
1.0
 70
     8
 71
     3
 72
    10
 73
     6
 74
     0
 42
0.00000001
 43
0.00000001
 40
0.0
 40
0.0
 40
0.0
 40
0.0
 40
0.0614267396967886
 40
0.5577872230117945
 40
1.0
 40
1.0
 40
1.0
 40
1.0
 10
-1593.114766046494
 20
1418.115661932904
 30
0.0
 10
-1593.110788171769
 20
1418.11340641728
 30
0.0
 10
-1593.07466696938
 20
1418.092925144755
 30
0.0
 10
-1593.102020854093
 20
1418.231910043498
 30
0.0
 10
-1593.222285829925
 20
1418.42373620563
 30
0.0
 10
-1593.278949183961
 20
1418.514115916456
 30
0.0
  0
SPLINE
  5
192
330
1F
100
AcDbEntity
  8
0
  6
Continuous
 62
     7
370
    35
100
AcDbSpline
210
0.0
220
0.0
230
1.0
 70
     8
 71
     3
 72
    10
 73
     6
 74
     0
 42
0.00000001
 43
0.00000001
 40
0.0
 40
0.0
 40
0.0
 40
0.0
 40
0.3415222988356655
 40
0.7880963022594439
 40
1.0
 40
1.0
 40
1.0
 40
1.0
 10
-2049.303346948082
 20
1679.454796355313
 30
0.0
 10
-2049.488650670044
 20
1679.570834266449
 30
0.0
 10
-2049.916257237963
 20
1679.838603161775
 30
0.0
 10
-2050.258835592173
 20
1680.457728653535
 30
0.0
 10
-2050.38339798782
 20
1680.92696433801
 30
0.0
 10
-2050.423483221065
 20
1681.077968352993
 30
0.0
  0
SPLINE
  5
193
330
1F
100
AcDbEntity
  8
0
  6
Continuous
 62
     7
370
    35
100
AcDbSpline
210
0.0
220
0.0
230
1.0
 70
     8
 71
     3
 72
    22
 73
    18
 74
     0
 42
0.00000001
 43
0.00000001
 40
0.0
 40
0.0
 40
0.0
 40
0.0
 40
0.125
 40
0.125
 40
0.25
 40
0.25
 40
0.375
 40
0.375
 40
0.5
 40
0.5
 40
0.625
 40
0.625
 40
0.75
 40
0.75
 40
0.875
 40
0.875
 40
1.0
 40
1.0
 40
1.0
 40
1.0
 10
-1594.53960935574
 20
1417.901809832589
 30
0.0
 10
-1594.579989230641
 20
1417.763381840045
 30
0.0
 10
-1594.605977795793
 20
1417.635118091076
 30
0.0
 10
-1594.631786263741
 20
1417.399315104786
 30
0.0
 10
-1594.631442306202
 20
1417.29091328726
 30
0.0
 10
-1594.605170925292
 20
1417.101688141287
 30
0.0
 10
-1594.579643567261
 20
1417.02147876748
 30
0.0
 10
-1594.505868363648
 20
1416.890407730187
 30
0.0
 10
-1594.456909893468
 20
1416.83937050476
 30
0.0
 10
-1594.340852996461
 20
1416.772201768865
 30
0.0
 10
-1594.273780335896
 20
1416.755396418415
 30
0.0
 10
-1594.123214874919
 20
1416.756360589814
 30
0.0
 10
-1594.039345447677
 20
1416.77465507466
 30
0.0
 10
-1593.863687284991
 20
1416.845705230413
 30
0.0
 10
-1593.771126469692
 20
1416.898317721054
 30
0.0
 10
-1593.578119477785
 20
1417.03931850054
 30
0.0
 10
-1593.478631634351
 20
1417.127209810201
 30
0.0
 10
-1593.378949183961
 20
1417.231376877324
 30
0.0
  0
SPLINE
  5
194
330
1F
100
AcDbEntity
  8
0
  6
Continuous
 62
     7
370
    35
100
AcDbSpline
210
0.0
220
0.0
230
1.0
 70
     8
 71
     3
 72
    18
 73
    14
 74
     0
 42
0.00000001
 43
0.00000001
 40
0.0
 40
0.0
 40
0.0
 40
0.0
 40
0.2500000000000153
 40
0.2500000000000153
 40
0.3750000000000076
 40
0.3750000000000076
 40
0.5
 40
0.5
 40
0.6249999999999925
 40
0.6249999999999925
 40
0.7499999999999848
 40
0.7499999999999848
 40
1.0
 40
1.0
 40
1.0
 40
1.0
 10
-1593.478949183961
 20
1418.514115916456
 30
0.0
 10
-1593.559801777023
 20
1418.398866388148
 30
0.0
 10
-1593.610923252638
 20
1418.303001511839
 30
0.0
 10
-1593.651666331045
 20
1418.195633208529
 30
0.0
 10
-1593.658924233883
 20
1418.166349152398
 30
0.0
 10
-1593.661924947168
 20
1418.123800407066
 30
0.0
 10
-1593.657824952351
 20
1418.110144297203
 30
0.0
 10
-1593.639768417354
 20
1418.099409082784
 30
0.0
 10
-1593.625766671385
 20
1418.102546798841
 30
0.0
 10
-1593.590553677177
 20
1418.126122842118
 30
0.0
 10
-1593.569269138475
 20
1418.146481759885
 30
0.0
 10
-1593.496756081304
 20
1418.234882790347
 30
0.0
 10
-1593.438319924709
 20
1418.328563687949
 30
0.0
 10
-1593.378949183961
 20
1418.456188095153
 30
0.0
  0
LINE
  5
195
330
1F
100
AcDbEntity
  8
0
  6
Continuous
 62
     7
370
    35
100
AcDbLine
 10
-2001.0206066363
 20
1707.2636761039
 30
0.0
 11
-884.857954435
 21
2351.6106599085
 31
0.0
  0
LINE
  5
196
330
1F
100
AcDbEntity
  8
0
  6
Continuous
 62
     7
370
    35
100
AcDbLine
 10
-884.857954435
 20
2351.6106599085
 30
0.0
 11
-491.3584326064
 21
2124.4482212453
 31
0.0
  0
LINE
  5
197
330
1F
100
AcDbEntity
  8
0
  6
Continuous
 62
     7
370
    35
100
AcDbLine
 10
-1591.9647356216
 20
1864.2150171503
 30
0.0
 11
-955.5686325537
 21
2231.5986674706
 31
0.0
  0
LINE
  5
198
330
1F
100
AcDbEntity
  8
0
  6
Continuous
 62
     7
370
    35
100
AcDbLine
 10
-1275.18089765
 20
1681.3396001021
 30
0.0
 11
-1591.9647356216
 21
1864.2150171503
 31
0.0
  0
LINE
  5
199
330
1F
100
AcDbEntity
  8
0
  6
Continuous
 62
     7
370
    35
100
AcDbLine
 10
-638.7847945821
 20
2048.7232504223
 30
0.0
 11
-1275.18089765
 21
1681.3396001021
 31
0.0
  0
LINE
  5
19A
330
1F
100
AcDbEntity
  8
0
  6
Continuous
 62
     7
370
    35
100
AcDbLine
 10
-955.5686325537
 20
2231.5986674706
 30
0.0
 11
-638.7847945821
 21
2048.7232504223
 31
0.0
  0
LINE
  5
19B
330
1F
100
AcDbEntity
  8
0
  6
Continuous
 62
     7
370
    35
100
AcDbLine
 10
-2035.2206874256
 20
1709.4539890416
 30
0.0
 11
-2036.2813475973
 21
1708.8416829577
 31
0.0
  0
LINE
  5
19C
330
1F
100
AcDbEntity
  8
0
  6
Continuous
 62
     7
370
    35
100
AcDbLine
 10
-2047.2415027057
 20
1716.3934579921
 30
0.0
 11
-2048.3021628775
 21
1715.7811519082
 31
0.0
  0
LINE
  5
19D
330
1F
100
AcDbEntity
  8
0
  6
Continuous
 62
     7
370
    35
100
AcDbLine
 10
-2035.2206874256
 20
1709.4539890416
 30
0.0
 11
-2047.2415027057
 21
1716.3934579921
 31
0.0
  0
LINE
  5
19E
330
1F
100
AcDbEntity
  8
0
  6
Continuous
 62
     7
370
    35
100
AcDbLine
 10
-2035.5742408161
 20
1707.2085349839
 30
0.0
 11
-2036.2813475973
 21
1706.800330928
 31
0.0
  0
LINE
  5
19F
330
1F
100
AcDbEntity
  8
0
  6
Continuous
 62
     7
370
    35
100
AcDbLine
 10
-2035.2206874256
 20
1708.7668494615
 30
0.0
 11
-2035.2206874256
 21
1709.4539890416
 31
0.0
  0
ARC
  5
1A0
330
1F
100
AcDbEntity
  8
0
  6
Continuous
 62
     7
370
    35
100
AcDbCircle
 10
-2035.2206874256
 20
1716.1130032245
 30
0.0
 40
4.611065723734761
100
AcDbArc
 50
242.6096722366
 51
297.3903277634
  0
LINE
  5
1A1
330
1F
100
AcDbEntity
  8
0
  6
Continuous
 62
     7
370
    35
100
AcDbLine
 10
-2048.3021628775
 20
1718.3460328362
 30
0.0
 11
-2037.3420077691
 21
1712.0188699696
 31
0.0
  0
LINE
  5
1A2
330
1F
100
AcDbEntity
  8
0
  6
Continuous
 62
     7
370
    35
100
AcDbLine
 10
-2048.3021628775
 20
1718.3460328362
 30
0.0
 11
-883.8972942633
 21
2390.5426553798
 31
0.0
  0
LINE
  5
1A3
330
1F
100
AcDbEntity
  8
0
  6
Continuous
 62
     7
370
    35
100
AcDbLine
 10
-872.9371391549
 20
2384.2154925132
 30
0.0
 11
-883.8972942633
 21
2390.5426553798
 31
0.0
  0
ARC
  5
1A4
330
1F
100
AcDbEntity
  8
0
  6
Continuous
 62
     7
370
    35
100
AcDbCircle
 10
-873.4019202353
 20
2382.9908803454
 30
0.0
 40
1.309845950502589
100
AcDbArc
 50
290.7834207995
 51
69.2165792005
  0
LINE
  5
1A5
330
1F
100
AcDbEntity
  8
0
  6
Continuous
 62
     7
370
    35
100
AcDbLine
 10
-2033.099367082
 20
1712.0188699696
 30
0.0
 11
-872.9371391549
 21
2381.7662681777
 31
0.0
  0
LINE
  5
1A6
330
1F
100
AcDbEntity
  8
0
  6
Continuous
 62
     7
370
    35
100
AcDbLine
 10
-2033.099367082
 20
1712.0188699696
 30
0.0
 11
-2033.099367082
 21
1711.0870043153
 31
0.0
  0
ARC
  5
1A7
330
1F
100
AcDbEntity
  8
0
  6
Continuous
 62
     7
370
    35
100
AcDbCircle
 10
-2035.2117924506
 20
1714.9216119875
 30
0.0
 40
4.644837243318446
100
AcDbArc
 50
242.7019047218
 51
284.2032050133
  0
LINE
  5
1A8
330
1F
100
AcDbEntity
  8
0
  6
Continuous
 62
     7
370
    35
100
AcDbLine
 10
-2037.3420077691
 20
1710.7940587518
 30
0.0
 11
-2037.3420077691
 21
1712.0188699696
 31
0.0
  0
LINE
  5
1A9
330
1F
100
AcDbEntity
  8
0
  6
Continuous
 62
     7
370
    35
100
AcDbLine
 10
-872.9371391549
 20
2380.8344025235
 30
0.0
 11
-872.9371391549
 21
2381.7662681777
 31
0.0
  0
LINE
  5
1AA
330
1F
100
AcDbEntity
  8
0
  6
Continuous
 62
     7
370
    35
100
AcDbLine
 10
-2021.2330124407
 20
1717.6443594734
 30
0.0
 11
-882.6818286504
 21
2374.915967456
 31
0.0
  0
LINE
  5
1AB
330
1F
100
AcDbEntity
  8
0
  6
Continuous
 62
     7
370
    35
100
AcDbLine
 10
-2048.3021628775
 20
1717.1212216184
 30
0.0
 11
-2048.3021628775
 21
1718.3460328362
 31
0.0
  0
LINE
  5
1AC
330
1F
100
AcDbEntity
  8
0
  6
Continuous
 62
     7
370
    35
100
AcDbLine
 10
-2048.3021628775
 20
1717.1212216184
 30
0.0
 11
-2037.3420077691
 21
1710.7940587518
 31
0.0
  0
ARC
  5
1AD
330
1F
100
AcDbEntity
  8
0
  6
Continuous
 62
     7
370
    35
100
AcDbCircle
 10
-2048.1202628703
 20
1715.1668140047
 30
0.0
 40
1.508931707706249
100
AcDbArc
 50
54.3824225248
 51
114.3071190461
  0
LINE
  5
1AE
330
1F
100
AcDbEntity
  8
0
  6
Continuous
 62
     7
370
    35
100
AcDbLine
 10
-2049.3628230493
 20
1716.5087164844
 30
0.0
 11
-2050.4234832211
 21
1717.1210225683
 31
0.0
  0
ARC
  5
1AF
330
1F
100
AcDbEntity
  8
0
  6
Continuous
 62
     7
370
    35
100
AcDbCircle
 10
-2049.1302601188
 20
1717.330804159
 30
0.0
 40
1.31012759228557
100
AcDbArc
 50
50.7967147643
 51
189.2140369905
  0
ARC
  5
1B0
330
1F
100
AcDbEntity
  8
0
  6
Continuous
 62
     7
370
    35
100
AcDbCircle
 10
-2048.7162114981
 20
1716.6136072798
 30
0.0
 40
0.6550637961430402
100
AcDbArc
 50
50.7967147642
 51
189.2140369905
  0
ARC
  5
1B1
330
1F
100
AcDbEntity
  8
0
  6
Continuous
 62
     7
370
    35
100
AcDbCircle
 10
-884.7760544278
 20
2389.3160113924
 30
0.0
 40
1.508931707701283
100
AcDbArc
 50
54.3824225247
 51
114.3071190462
  0
LINE
  5
1B2
330
1F
100
AcDbEntity
  8
0
  6
Continuous
 62
     7
370
    35
100
AcDbLine
 10
-2049.3628230493
 20
1716.5087164844
 30
0.0
 11
-2048.3019904764
 21
1717.1211220933
 31
0.0
  0
LINE
  5
1B3
330
1F
100
AcDbEntity
  8
0
  6
Continuous
 62
     7
370
    35
100
AcDbLine
 10
-2049.3628230493
 20
1716.183231172
 30
0.0
 11
-2049.3628230493
 21
1716.5087164844
 31
0.0
  0
LINE
  5
1B4
330
1F
100
AcDbEntity
  8
0
  6
Continuous
 62
     7
370
    35
100
AcDbLine
 10
-2050.4234832211
 20
1714.5561416403
 30
0.0
 11
-2050.4234832211
 21
1717.1210225683
 31
0.0
  0
LINE
  5
1B5
330
1F
100
AcDbEntity
  8
0
  6
Continuous
 62
     7
370
    35
100
AcDbLine
 10
-884.957954435
 20
2354.0023545229
 30
0.0
 11
-2003.142099381
 21
1708.4883877967
 31
0.0
  0
LINE
  5
1B6
330
1F
100
AcDbEntity
  8
0
  6
Continuous
 62
     7
370
    35
100
AcDbLine
 10
-884.957954435
 20
2354.0023545229
 30
0.0
 11
-884.957954435
 21
2373.6019880094
 31
0.0
  0
LWPOLYLINE
  5
1B7
330
1F
100
AcDbEntity
  8
0
  6
Continuous
 62
     7
370
    35
100
AcDbPolyline
 90
       20
 70
   128
 43
0.0
 10
-1951.5285338549
 20
1745.6331322588
 10
-1950.7249436671
 20
1746.2518835168
 10
-1950.0084349451
 20
1747.1132805093
 10
-1949.4566525268
 20
1748.1239775062
 10
-1949.1293905989
 20
1749.1744498052
 10
-1949.0621130693
 20
1750.150862433
 10
-1949.2621105024
 20
1750.9474059308
 10
-1949.7077100728
 20
1751.4777624509
 10
-1950.3506241531
 20
1751.6844596351
 10
-1951.1211830267
 20
1751.5450986363
 10
-1951.9358846832
 20
1751.0747813809
 10
-1952.7064435568
 20
1750.3244740415
 10
-1953.3493576371
 20
1749.3754840604
 10
-1953.7949572075
 20
1748.3306492272
 10
-1953.9949546406
 20
1747.3031936083
 10
-1953.927677111
 20
1746.4044579627
 10
-1953.6004151831
 20
1745.7318342429
 10
-1953.0486327648
 20
1745.3582116657
 10
-1952.3321240428
 20
1745.3240780349
 10
-1951.5285338549
 20
1745.6331322588
  0
LWPOLYLINE
  5
1B8
330
1F
100
AcDbEntity
  8
0
  6
Continuous
 62
     7
370
    35
100
AcDbPolyline
 90
       20
 70
   128
 43
0.0
 10
-1972.7417372905
 20
1733.3870105814
 10
-1971.9381471027
 20
1734.0057618395
 10
-1971.2216383807
 20
1734.867158832
 10
-1970.6698559624
 20
1735.8778558288
 10
-1970.3425940345
 20
1736.9283281279
 10
-1970.2753165049
 20
1737.9047407557
 10
-1970.475313938
 20
1738.7012842535
 10
-1970.9209135084
 20
1739.2316407736
 10
-1971.5638275887
 20
1739.4383379578
 10
-1972.3343864623
 20
1739.2989769589
 10
-1973.1490881188
 20
1738.8286597036
 10
-1973.9196469924
 20
1738.0783523641
 10
-1974.5625610727
 20
1737.129362383
 10
-1975.0081606431
 20
1736.0845275498
 10
-1975.2081580762
 20
1735.0570719309
 10
-1975.1408805466
 20
1734.1583362854
 10
-1974.8136186187
 20
1733.4857125655
 10
-1974.2618362004
 20
1733.1120899884
 10
-1973.5453274784
 20
1733.0779563575
 10
-1972.7417372905
 20
1733.3870105814
  0
LWPOLYLINE
  5
1B9
330
1F
100
AcDbEntity
  8
0
  6
Continuous
 62
     7
370
    35
100
AcDbPolyline
 90
       20
 70
   128
 43
0.0
 10
-961.5790401938
 20
2317.1188105347
 10
-960.775450006
 20
2317.7375617927
 10
-960.058941284
 20
2318.5989587852
 10
-959.5071588656
 20
2319.6096557821
 10
-959.1798969377
 20
2320.6601280811
 10
-959.1126194082
 20
2321.6365407089
 10
-959.3126168412
 20
2322.4330842067
 10
-959.7582164117
 20
2322.9634407268
 10
-960.4011304919
 20
2323.170137911
 10
-961.1716893655
 20
2323.0307769121
 10
-961.9863910221
 20
2322.5604596568
 10
-962.7569498956
 20
2321.8101523174
 10
-963.3998639759
 20
2320.8611623363
 10
-963.8454635464
 20
2319.816327503
 10
-964.0454609794
 20
2318.7888718842
 10
-963.9781834498
 20
2317.8901362386
 10
-963.6509215219
 20
2317.2175125188
 10
-963.0991391036
 20
2316.8438899416
 10
-962.3826303816
 20
2316.8097563108
 10
-961.5790401938
 20
2317.1188105347
  0
LWPOLYLINE
  5
1BA
330
1F
100
AcDbEntity
  8
0
  6
Continuous
 62
     7
370
    35
100
AcDbPolyline
 90
       20
 70
   128
 43
0.0
 10
-982.7922436294
 20
2304.8726888573
 10
-981.9886534416
 20
2305.4914401154
 10
-981.2721447196
 20
2306.3528371079
 10
-980.7203623012
 20
2307.3635341047
 10
-980.3931003733
 20
2308.4140064038
 10
-980.3258228438
 20
2309.3904190316
 10
-980.5258202768
 20
2310.1869625294
 10
-980.9714198473
 20
2310.7173190495
 10
-981.6143339275
 20
2310.9240162337
 10
-982.3848928011
 20
2310.7846552348
 10
-983.1995944576
 20
2310.3143379795
 10
-983.9701533312
 20
2309.56403064
 10
-984.6130674115
 20
2308.6150406589
 10
-985.058666982
 20
2307.5702058257
 10
-985.258664415
 20
2306.5427502068
 10
-985.1913868854
 20
2305.6440145612
 10
-984.8641249575
 20
2304.9713908414
 10
-984.3123425392
 20
2304.5977682643
 10
-983.5958338172
 20
2304.5636346334
 10
-982.7922436294
 20
2304.8726888573
  0
LWPOLYLINE
  5
1BB
330
1F
100
AcDbEntity
  8
0
  6
Continuous
 62
     7
370
    35
100
AcDbPolyline
 90
       20
 70
   128
 43
0.0
 10
-1477.76699046
 20
2019.1298497194
 10
-1476.9634002721
 20
2019.7486009774
 10
-1476.2468915501
 20
2020.6099979699
 10
-1475.6951091318
 20
2021.6206949668
 10
-1475.3678472039
 20
2022.6711672658
 10
-1475.3005696744
 20
2023.6475798936
 10
-1475.5005671074
 20
2024.4441233914
 10
-1475.9461666778
 20
2024.9744799116
 10
-1476.5890807581
 20
2025.1811770957
 10
-1477.3596396317
 20
2025.0418160969
 10
-1478.1743412882
 20
2024.5714988415
 10
-1478.9449001618
 20
2023.8211915021
 10
-1479.5878142421
 20
2022.872201521
 10
-1480.0334138125
 20
2021.8273666878
 10
-1480.2334112456
 20
2020.7999110689
 10
-1480.166133716
 20
2019.9011754233
 10
-1479.8388717881
 20
2019.2285517035
 10
-1479.2870893698
 20
2018.8549291264
 10
-1478.5705806478
 20
2018.8207954955
 10
-1477.76699046
 20
2019.1298497194
  0
LWPOLYLINE
  5
1BC
330
1F
100
AcDbEntity
  8
0
  6
Continuous
 62
     7
370
    35
100
AcDbPolyline
 90
       20
 70
   128
 43
0.0
 10
-1456.5537870244
 20
2031.3759713967
 10
-1455.7501968365
 20
2031.9947226548
 10
-1455.0336881145
 20
2032.8561196473
 10
-1454.4819056962
 20
2033.8668166441
 10
-1454.1546437683
 20
2034.9172889431
 10
-1454.0873662388
 20
2035.893701571
 10
-1454.2873636718
 20
2036.6902450688
 10
-1454.7329632423
 20
2037.2206015889
 10
-1455.3758773225
 20
2037.4272987731
 10
-1456.1464361961
 20
2037.2879377742
 10
-1456.9611378526
 20
2036.8176205189
 10
-1457.7316967262
 20
2036.0673131794
 10
-1458.3746108065
 20
2035.1183231983
 10
-1458.8202103769
 20
2034.0734883651
 10
-1459.02020781
 20
2033.0460327462
 10
-1458.9529302804
 20
2032.1472971006
 10
-1458.6256683525
 20
2031.4746733808
 10
-1458.0738859342
 20
2031.1010508037
 10
-1457.3573772122
 20
2031.0669171728
 10
-1456.5537870244
 20
2031.3759713967
  0
SPLINE
  5
1BD
330
1F
100
AcDbEntity
  8
0
  6
Continuous
 62
     7
370
    35
100
AcDbSpline
210
0.0
220
0.0
230
1.0
 70
     8
 71
     3
 72
    18
 73
    14
 74
     0
 42
0.00000001
 43
0.00000001
 40
0.0
 40
0.0
 40
0.0
 40
0.0
 40
0.2500000000000875
 40
0.2500000000000875
 40
0.3750000000000763
 40
0.3750000000000763
 40
0.5000000000000651
 40
0.5000000000000651
 40
0.6250000000000538
 40
0.6250000000000538
 40
0.7500000000000426
 40
0.7500000000000426
 40
1.0
 40
1.0
 40
1.0
 40
1.0
 10
-884.857954435043
 20
2351.610659908501
 30
0.0
 10
-884.9173251813988
 20
2351.738284327759
 30
0.0
 10
-884.9747728060036
 20
2351.893061690077
 30
0.0
 10
-885.0473636620922
 20
2352.16582132804
 30
0.0
 10
-885.0690880914577
 20
2352.263366077489
 30
0.0
 10
-885.1044213117669
 20
2352.464534166455
 30
0.0
 10
-885.118290414791
 20
2352.569052759764
 30
0.0
 10
-885.1366006238098
 20
2352.78600060906
 30
0.0
 10
-885.1408766001781
 20
2352.897915828656
 30
0.0
 10
-885.1380509256189
 20
2353.121164871202
 30
0.0
 10
-885.1310546211429
 20
2353.233492534318
 30
0.0
 10
-885.0907322758162
 20
2353.572333066034
 30
0.0
 10
-885.0388070204677
 20
2353.793754597321
 30
0.0
 10
-884.9579544350428
 20
2354.002354522855
 30
0.0
  0
LWPOLYLINE
  5
1BE
330
1F
100
AcDbEntity
  8
0
  6
Continuous
 62
     7
370
    35
100
AcDbPolyline
 90
        8
 70
   128
 43
0.0
 10
-1971.3275237282
 20
1738.2859237026
 10
-1971.4616192135
 20
1737.2805557379
 10
-1971.8493743431
 20
1736.2293116402
 10
-1972.4487698318
 20
1735.2461100192
 10
-1973.1948518781
 20
1734.4374960265
 10
-1974.0067709154
 20
1733.8910955351
 10
-1974.7965429179
 20
1733.6661195166
 10
-1974.9396530547
 20
1733.6623994746
  0
LWPOLYLINE
  5
1BF
330
1F
100
AcDbEntity
  8
0
  6
Continuous
 62
     7
370
    35
100
AcDbPolyline
 90
        3
 70
   128
 43
0.0
 10
-1971.6044809576
 20
1739.4397130489
 10
-1971.4616192135
 20
1739.1364683153
 10
-1971.3275237282
 20
1738.2859237026
  0
LWPOLYLINE
  5
1C0
330
1F
100
AcDbEntity
  8
0
  6
Continuous
 62
     7
370
    35
100
AcDbPolyline
 90
        8
 70
   128
 43
0.0
 10
-1950.1143202926
 20
1750.5320453799
 10
-1950.2484157779
 20
1749.5266774153
 10
-1950.6361709075
 20
1748.4754333176
 10
-1951.2355663962
 20
1747.4922316966
 10
-1951.9816484425
 20
1746.6836177039
 10
-1952.7935674798
 20
1746.1372172125
 10
-1953.5833394823
 20
1745.9122411939
 10
-1953.7264503313
 20
1745.9085211663
  0
LWPOLYLINE
  5
1C1
330
1F
100
AcDbEntity
  8
0
  6
Continuous
 62
     7
370
    35
100
AcDbPolyline
 90
        3
 70
   128
 43
0.0
 10
-1950.3912778621
 20
1751.6858352886
 10
-1950.2484157779
 20
1751.3825899927
 10
-1950.1143202926
 20
1750.5320453799
  0
LINE
  5
1C2
330
1F
100
AcDbEntity
  8
0
  6
Continuous
 62
     7
370
    35
100
AcDbLine
 10
-955.5686325537
 20
2231.5986674706
 30
0.0
 11
-955.5686325537
 21
2230.3738562527
 31
0.0
  0
LINE
  5
1C3
330
1F
100
AcDbEntity
  8
0
  6
Continuous
 62
     7
370
    35
100
AcDbLine
 10
-1590.9039030487
 20
1863.6026115414
 30
0.0
 11
-955.5686325537
 21
2230.3738562527
 31
0.0
  0
LWPOLYLINE
  5
1C4
330
1F
100
AcDbEntity
  8
0
  6
Continuous
 62
     7
370
    35
100
AcDbPolyline
 90
        8
 70
   128
 43
0.0
 10
-1476.3527768976
 20
2024.0287628405
 10
-1476.4868723829
 20
2023.0233948759
 10
-1476.8746275125
 20
2021.9721507782
 10
-1477.4740230013
 20
2020.9889491572
 10
-1478.2201050475
 20
2020.1803351645
 10
-1479.0320240848
 20
2019.6339346731
 10
-1479.8217960873
 20
2019.4089586545
 10
-1479.9649067506
 20
2019.4052386232
  0
LWPOLYLINE
  5
1C5
330
1F
100
AcDbEntity
  8
0
  6
Continuous
 62
     7
370
    35
100
AcDbPolyline
 90
        3
 70
   128
 43
0.0
 10
-1476.6297343811
 20
2025.1825526069
 10
-1476.4868723829
 20
2024.8793074533
 10
-1476.3527768976
 20
2024.0287628405
  0
LWPOLYLINE
  5
1C6
330
1F
100
AcDbEntity
  8
0
  6
Continuous
 62
     7
370
    35
100
AcDbPolyline
 90
        8
 70
   128
 43
0.0
 10
-1455.139573462
 20
2036.2748845179
 10
-1455.2736689473
 20
2035.2695165532
 10
-1455.6614240769
 20
2034.2182724555
 10
-1456.2608195657
 20
2033.2350708345
 10
-1457.0069016119
 20
2032.4264568418
 10
-1457.8188206492
 20
2031.8800563504
 10
-1458.6085926517
 20
2031.6550803319
 10
-1458.7517032591
 20
2031.6513602994
  0
LWPOLYLINE
  5
1C7
330
1F
100
AcDbEntity
  8
0
  6
Continuous
 62
     7
370
    35
100
AcDbPolyline
 90
        3
 70
   128
 43
0.0
 10
-1455.4165309142
 20
2037.4286742325
 10
-1455.2736689473
 20
2037.1254291306
 10
-1455.139573462
 20
2036.2748845179
  0
LINE
  5
1C8
330
1F
100
AcDbEntity
  8
0
  6
Continuous
 62
     7
370
    35
100
AcDbLine
 10
-955.5686325537
 20
2230.3738562527
 30
0.0
 11
-639.845627155
 21
2048.1108448134
 31
0.0
  0
LINE
  5
1C9
330
1F
100
AcDbEntity
  8
0
  6
Continuous
 62
     7
370
    35
100
AcDbLine
 10
-427.8134203979
 20
2124.9166753736
 30
0.0
 11
-427.8156653033
 21
2124.9153794173
 31
0.0
  0
LINE
  5
1CA
330
1F
100
AcDbEntity
  8
0
  6
Continuous
 62
     7
370
    35
100
AcDbLine
 10
-430.0345683404
 20
2128.5332807309
 30
0.0
 11
-429.9347407415
 21
2128.590909977
 31
0.0
  0
ARC
  5
1CB
330
1F
100
AcDbEntity
  8
0
  6
Continuous
 62
     7
370
    35
100
AcDbCircle
 10
-432.419068702
 20
2124.7070928169
 30
0.0
 40
4.610414422716681
100
AcDbArc
 50
2.6054784857
 51
57.39452166
  0
LINE
  5
1CC
330
1F
100
AcDbEntity
  8
0
  6
Continuous
 62
     7
370
    35
100
AcDbLine
 10
-489.2369398618
 20
2125.6729329381
 30
0.0
 11
-884.757954435
 21
2354.0023545229
 31
0.0
  0
LINE
  5
1CD
330
1F
100
AcDbEntity
  8
0
  6
Continuous
 62
     7
370
    35
100
AcDbLine
 10
-884.757954435
 20
2354.0023545229
 30
0.0
 11
-884.757954435
 21
2373.7174455518
 31
0.0
  0
LINE
  5
1CE
330
1F
100
AcDbEntity
  8
0
  6
Continuous
 62
     7
370
    35
100
AcDbLine
 10
-872.0584594984
 20
2382.5988878692
 30
0.0
 11
-870.969544603
 21
2381.9702706806
 31
0.0
  0
LINE
  5
1CF
330
1F
100
AcDbEntity
  8
0
  6
Continuous
 62
     7
370
    35
100
AcDbLine
 10
-427.8134203979
 20
2124.8014168813
 30
0.0
 11
-427.8134203979
 21
2124.9166753736
 31
0.0
  0
LINE
  5
1D0
330
1F
100
AcDbEntity
  8
0
  6
Continuous
 62
     7
370
    35
100
AcDbLine
 10
-456.5430951991
 20
2143.4373340473
 30
0.0
 11
-456.0976916454
 21
2143.6944600457
 31
0.0
  0
LINE
  5
1D1
330
1F
100
AcDbEntity
  8
0
  6
Continuous
 62
     7
370
    35
100
AcDbLine
 10
-456.0976916454
 20
2143.6944600457
 30
0.0
 11
-429.9347407415
 21
2128.590909977
 31
0.0
  0
ARC
  5
1D2
330
1F
100
AcDbEntity
  8
0
  6
Continuous
 62
     7
370
    35
100
AcDbCircle
 10
-881.4647462299
 20
2374.4185951713
 30
0.0
 40
1.309845950503216
100
AcDbArc
 50
110.7834207995
 51
249.2165792005
  0
LINE
  5
1D3
330
1F
100
AcDbEntity
  8
0
  6
Continuous
 62
     7
370
    35
100
AcDbLine
 10
-870.9693722019
 20
2381.9703702057
 30
0.0
 11
-881.9295273103
 21
2375.643207339
 31
0.0
  0
LINE
  5
1D4
330
1F
100
AcDbEntity
  8
0
  6
Continuous
 62
     7
370
    35
100
AcDbLine
 10
-870.9693722019
 20
2381.9703702057
 30
0.0
 11
-458.9261187701
 21
2144.1028631518
 31
0.0
  0
LINE
  5
1D5
330
1F
100
AcDbEntity
  8
0
  6
Continuous
 62
     7
370
    35
100
AcDbLine
 10
-469.8862738785
 20
2137.7757002851
 30
0.0
 11
-458.9261187701
 21
2144.1028631518
 31
0.0
  0
ARC
  5
1D6
330
1F
100
AcDbEntity
  8
0
  6
Continuous
 62
     7
370
    35
100
AcDbCircle
 10
-472.0075942221
 20
2141.86983354
 30
0.0
 40
4.611065723738166
100
AcDbArc
 50
242.6096722366
 51
297.3903277634
  0
LINE
  5
1D7
330
1F
100
AcDbEntity
  8
0
  6
Continuous
 62
     7
370
    35
100
AcDbLine
 10
-881.9295273103
 20
2373.1939830036
 30
0.0
 11
-474.1289145657
 21
2137.7757002851
 31
0.0
  0
LINE
  5
1D8
330
1F
100
AcDbEntity
  8
0
  6
Continuous
 62
     7
370
    35
100
AcDbLine
 10
-469.8862738785
 20
2137.7757002851
 30
0.0
 11
-469.8862738785
 21
2136.8438346309
 31
0.0
  0
ARC
  5
1D9
330
1F
100
AcDbEntity
  8
0
  6
Continuous
 62
     7
370
    35
100
AcDbCircle
 10
-472.0078635653
 20
2140.6581074035
 30
0.0
 40
4.622564202608084
100
AcDbArc
 50
242.6872505771
 51
280.7451734717
  0
LINE
  5
1DA
330
1F
100
AcDbEntity
  8
0
  6
Continuous
 62
     7
370
    35
100
AcDbLine
 10
-474.1289145657
 20
2136.5508890673
 30
0.0
 11
-474.1289145657
 21
2137.7757002851
 31
0.0
  0
LINE
  5
1DB
330
1F
100
AcDbEntity
  8
0
  6
Continuous
 62
     7
370
    35
100
AcDbLine
 10
-881.9295273103
 20
2373.1939830036
 30
0.0
 11
-881.9295273103
 21
2371.9691717857
 31
0.0
  0
LINE
  5
1DC
330
1F
100
AcDbEntity
  8
0
  6
Continuous
 62
     7
370
    35
100
AcDbLine
 10
-881.9295273103
 20
2371.9691717857
 30
0.0
 11
-474.1289145657
 21
2136.5508890673
 31
0.0
  0
LINE
  5
1DD
330
1F
100
AcDbEntity
  8
0
  6
Continuous
 62
     7
370
    35
100
AcDbLine
 10
-458.9261187701
 20
2143.1415363087
 30
0.0
 11
-458.9261187701
 21
2144.1028631518
 31
0.0
  0
LWPOLYLINE
  5
1DE
330
1F
100
AcDbEntity
  8
0
  6
Continuous
 62
     7
370
    35
100
AcDbPolyline
 90
        8
 70
   128
 43
0.0
 10
-456.8761015007
 20
2143.4664644445
 10
-456.9662743228
 20
2143.7220647548
 10
-457.1623053665
 20
2144.0324058278
 10
-457.4261187701
 20
2144.2513169198
 10
-457.7475763326
 20
2144.3703854003
 10
-458.1143246199
 20
2144.3850355344
 10
-458.5122697012
 20
2144.2947043257
 10
-458.9261187701
 20
2144.1028631518
  0
ARC
  5
1DF
330
1F
100
AcDbEntity
  8
0
  6
Continuous
 62
     7
370
    35
100
AcDbCircle
 10
-870.0906120374
 20
2380.7437262183
 30
0.0
 40
1.50893170770333
100
AcDbArc
 50
65.6928809539
 51
125.6175774752
  0
SPLINE
  5
1E0
330
1F
100
AcDbEntity
  8
0
  6
Continuous
 62
     7
370
    35
100
AcDbSpline
210
0.0
220
0.0
230
1.0
 70
     8
 71
     3
 72
    18
 73
    14
 74
     0
 42
0.00000001
 43
0.00000001
 40
0.0
 40
0.0
 40
0.0
 40
0.0
 40
0.2500000000000017
 40
0.2500000000000017
 40
0.3750000000000228
 40
0.3750000000000228
 40
0.5000000000000439
 40
0.5000000000000439
 40
0.625000000000065
 40
0.625000000000065
 40
0.750000000000086
 40
0.750000000000086
 40
1.0
 40
1.0
 40
1.0
 40
1.0
 10
-884.7579544350431
 20
2354.002354522855
 30
0.0
 10
-884.6771018419811
 20
2353.793754577618
 30
0.0
 10
-884.6259803663653
 20
2353.576281233076
 30
0.0
 10
-884.5852372879582
 20
2353.238074038415
 30
0.0
 10
-884.5779793851211
 20
2353.123792705713
 30
0.0
 10
-884.574978671836
 20
2352.900487713942
 30
0.0
 10
-884.579078666653
 20
2352.790327701176
 30
0.0
 10
-884.5971352016495
 20
2352.573233361378
 30
0.0
 10
-884.6111369476183
 20
2352.466934534261
 30
0.0
 10
-884.6463499418263
 20
2352.265651886352
 30
0.0
 10
-884.6676344805289
 20
2352.169655713849
 30
0.0
 10
-884.7401475377004
 20
2351.895974848879
 30
0.0
 10
-884.7985836942948
 20
2351.738284315704
 30
0.0
 10
-884.857954435043
 20
2351.610659908501
 30
0.0
  0
LWPOLYLINE
  5
1E1
330
1F
100
AcDbEntity
  8
0
  6
Continuous
 62
     7
370
    35
100
AcDbPolyline
 90
        8
 70
   128
 43
0.0
 10
-981.378030067
 20
2309.7716019785
 10
-981.5121255524
 20
2308.7662340138
 10
-981.8998806819
 20
2307.7149899161
 10
-982.4992761707
 20
2306.7317882951
 10
-983.2453582169
 20
2305.9231743024
 10
-984.0572772543
 20
2305.376773811
 10
-984.8470492568
 20
2305.1517977925
 10
-984.9901597714
 20
2305.1480777581
  0
LWPOLYLINE
  5
1E2
330
1F
100
AcDbEntity
  8
0
  6
Continuous
 62
     7
370
    35
100
AcDbPolyline
 90
        3
 70
   128
 43
0.0
 10
-981.6549874707
 20
2310.9253916129
 10
-981.5121255524
 20
2310.6221465912
 10
-981.378030067
 20
2309.7716019785
  0
LWPOLYLINE
  5
1E3
330
1F
100
AcDbEntity
  8
0
  6
Continuous
 62
     7
370
    35
100
AcDbPolyline
 90
        8
 70
   128
 43
0.0
 10
-960.1648266314
 20
2322.0177236558
 10
-960.2989221168
 20
2321.0123556912
 10
-960.6866772463
 20
2319.9611115935
 10
-961.2860727351
 20
2318.9779099725
 10
-962.0321547813
 20
2318.1692959798
 10
-962.8440738187
 20
2317.6228954884
 10
-963.6338458212
 20
2317.3979194698
 10
-963.7769565897
 20
2317.3941994406
  0
LWPOLYLINE
  5
1E4
330
1F
100
AcDbEntity
  8
0
  6
Continuous
 62
     7
370
    35
100
AcDbPolyline
 90
        3
 70
   128
 43
0.0
 10
-960.4417841701
 20
2323.1715135135
 10
-960.2989221168
 20
2322.8682682686
 10
-960.1648266314
 20
2322.0177236558
  0
ARC
  5
1E5
330
1F
100
AcDbEntity
  8
0
  6
Continuous
 62
     7
370
    35
100
AcDbCircle
 10
-881.3068357793
 20
2373.3435030842
 30
0.0
 40
1.508817835482562
100
AcDbArc
 50
185.6947992512
 51
245.6253417064
  0
LWPOLYLINE
  5
1E6
330
1F
100
AcDbEntity
  8
0
  6
Continuous
 62
     7
370
    35
100
AcDbPolyline
 90
        3
 70
   128
 43
0.0
 10
-872.0584594984
 20
2381.7660691276
 10
-872.1161036572
 20
2381.4281993907
 10
-872.1848378148
 20
2381.2686968429
  0
LINE
  5
1E7
330
1F
100
AcDbEntity
  8
0
  6
Continuous
 62
     7
370
    35
100
AcDbLine
 10
-869.7965950389
 20
2382.2389969449
 30
0.0
 11
-869.5551586395
 21
2382.3783752115
 31
0.0
  0
LINE
  5
1E8
330
1F
100
AcDbEntity
  8
0
  6
Continuous
 62
     7
370
    35
100
AcDbLine
 10
-881.5759739197
 20
2389.317844162
 30
0.0
 11
-881.6758015186
 21
2389.2602149158
 31
0.0
  0
LINE
  5
1E9
330
1F
100
AcDbEntity
  8
0
  6
Continuous
 62
     7
370
    35
100
AcDbLine
 10
-881.5759739197
 20
2389.317844162
 30
0.0
 11
-869.5551586395
 21
2382.3783752115
 31
0.0
  0
LINE
  5
1EA
330
1F
100
AcDbEntity
  8
0
  6
Continuous
 62
     7
370
    35
100
AcDbLine
 10
-869.5551586395
 20
2382.1629966436
 30
0.0
 11
-869.5551586395
 21
2382.3783752115
 31
0.0
  0
LWPOLYLINE
  5
1EB
330
1F
100
AcDbEntity
  8
0
  6
Continuous
 62
     7
370
    35
100
AcDbPolyline
 90
        3
 70
   128
 43
0.0
 10
-882.2190147362
 20
2389.5738052314
 10
-881.9898229886
 20
2389.5096853359
 10
-881.5759739197
 20
2389.317844162
  0
ARC
  5
1EC
330
1F
100
AcDbEntity
  8
0
  6
Continuous
 62
     7
370
    35
100
AcDbCircle
 10
1435.6200925907
 20
1408.3427147386
 30
0.0
 40
3.0
100
AcDbArc
 50
0.0
 51
90.0
  0
LINE
  5
1ED
330
1F
100
AcDbEntity
  8
0
  6
Continuous
 62
     7
370
    35
100
AcDbLine
 10
1438.6200925907
 20
1372.8427147386
 30
0.0
 11
1438.6200925907
 21
1408.3427147386
 31
0.0
  0
LINE
  5
1EE
330
1F
100
AcDbEntity
  8
0
  6
Continuous
 62
     7
370
    35
100
AcDbLine
 10
1438.6200925907
 20
1372.8427147386
 30
0.0
 11
-208.0970646968
 21
1372.8427147386
 31
0.0
  0
LINE
  5
1EF
330
1F
100
AcDbEntity
  8
0
  6
Continuous
 62
     7
370
    35
100
AcDbLine
 10
-208.0970646968
 20
1408.3427147386
 30
0.0
 11
-208.0970646968
 21
1372.8427147386
 31
0.0
  0
ARC
  5
1F0
330
1F
100
AcDbEntity
  8
0
  6
Continuous
 62
     7
370
    35
100
AcDbCircle
 10
-205.0970646968
 20
1408.3427147386
 30
0.0
 40
3.0
100
AcDbArc
 50
90.0
 51
180.0
  0
LINE
  5
1F1
330
1F
100
AcDbEntity
  8
0
  6
Continuous
 62
     7
370
    35
100
AcDbLine
 10
1435.6200925907
 20
1411.3427147386
 30
0.0
 11
-205.0970646968
 21
1411.3427147386
 31
0.0
  0
ARC
  5
1F2
330
1F
100
AcDbEntity
  8
0
  6
Continuous
 62
     7
370
    35
100
AcDbCircle
 10
-205.0970646968
 20
1999.3427147386
 30
0.0
 40
3.000000000000114
100
AcDbArc
 50
180.0
 51
270.0
  0
LINE
  5
1F3
330
1F
100
AcDbEntity
  8
0
  6
Continuous
 62
     7
370
    35
100
AcDbLine
 10
-208.0970646968
 20
2014.8427147386
 30
0.0
 11
-208.0970646968
 21
1999.3427147386
 31
0.0
  0
LINE
  5
1F4
330
1F
100
AcDbEntity
  8
0
  6
Continuous
 62
     7
370
    35
100
AcDbLine
 10
-208.0970646968
 20
2014.8427147386
 30
0.0
 11
1438.6200925907
 21
2014.8427147386
 31
0.0
  0
LINE
  5
1F5
330
1F
100
AcDbEntity
  8
0
  6
Continuous
 62
     7
370
    35
100
AcDbLine
 10
1438.6200925907
 20
1999.3427147386
 30
0.0
 11
1438.6200925907
 21
2014.8427147386
 31
0.0
  0
ARC
  5
1F6
330
1F
100
AcDbEntity
  8
0
  6
Continuous
 62
     7
370
    35
100
AcDbCircle
 10
1435.6200925907
 20
1999.3427147386
 30
0.0
 40
3.000000000000227
100
AcDbArc
 50
270.0
 51
0.0
  0
LINE
  5
1F7
330
1F
100
AcDbEntity
  8
0
  6
Continuous
 62
     7
370
    35
100
AcDbLine
 10
-205.0970646968
 20
1996.3427147386
 30
0.0
 11
1435.6200925907
 21
1996.3427147386
 31
0.0
  0
LINE
  5
1F8
330
1F
100
AcDbEntity
  8
0
  6
Continuous
 62
     7
370
    35
100
AcDbLine
 10
-206.738486053
 20
1995.2012933824
 30
0.0
 11
-206.738486053
 21
1411.4841360948
 31
0.0
  0
LINE
  5
1F9
330
1F
100
AcDbEntity
  8
0
  6
Continuous
 62
     7
370
    35
100
AcDbLine
 10
-206.738486053
 20
1995.2012933824
 30
0.0
 11
-191.238486053
 21
1995.2012933824
 31
0.0
  0
LINE
  5
1FA
330
1F
100
AcDbEntity
  8
0
  6
Continuous
 62
     7
370
    35
100
AcDbLine
 10
-188.238486053
 20
1992.2012933824
 30
0.0
 11
-188.238486053
 21
1414.4841360948
 31
0.0
  0
ARC
  5
1FB
330
1F
100
AcDbEntity
  8
0
  6
Continuous
 62
     7
370
    35
100
AcDbCircle
 10
-191.238486053
 20
1414.4841360948
 30
0.0
 40
3.0
100
AcDbArc
 50
270.0
 51
0.0
  0
LINE
  5
1FC
330
1F
100
AcDbEntity
  8
0
  6
Continuous
 62
     7
370
    35
100
AcDbLine
 10
-191.238486053
 20
1411.4841360948
 30
0.0
 11
-206.738486053
 21
1411.4841360948
 31
0.0
  0
ARC
  5
1FD
330
1F
100
AcDbEntity
  8
0
  6
Continuous
 62
     7
370
    35
100
AcDbCircle
 10
-191.238486053
 20
1992.2012933824
 30
0.0
 40
3.0
100
AcDbArc
 50
0.0
 51
90.0
  0
ARC
  5
1FE
330
1F
100
AcDbEntity
  8
0
  6
Continuous
 62
     7
370
    35
100
AcDbCircle
 10
1421.761513947
 20
1992.2012933824
 30
0.0
 40
3.0
100
AcDbArc
 50
90.0
 51
180.0
  0
LINE
  5
1FF
330
1F
100
AcDbEntity
  8
0
  6
Continuous
 62
     7
370
    35
100
AcDbLine
 10
1437.261513947
 20
1995.2012933824
 30
0.0
 11
1421.761513947
 21
1995.2012933824
 31
0.0
  0
LINE
  5
200
330
1F
100
AcDbEntity
  8
0
  6
Continuous
 62
     7
370
    35
100
AcDbLine
 10
1437.261513947
 20
1995.2012933824
 30
0.0
 11
1437.261513947
 21
1412.4841360948
 31
0.0
  0
LINE
  5
201
330
1F
100
AcDbEntity
  8
0
  6
Continuous
 62
     7
370
    35
100
AcDbLine
 10
1421.761513947
 20
1412.4841360948
 30
0.0
 11
1437.261513947
 21
1412.4841360948
 31
0.0
  0
ARC
  5
202
330
1F
100
AcDbEntity
  8
0
  6
Continuous
 62
     7
370
    35
100
AcDbCircle
 10
1421.761513947
 20
1415.4841360948
 30
0.0
 40
3.0
100
AcDbArc
 50
180.0
 51
270.0
  0
LINE
  5
203
330
1F
100
AcDbEntity
  8
0
  6
Continuous
 62
     7
370
    35
100
AcDbLine
 10
1418.761513947
 20
1992.2012933824
 30
0.0
 11
1418.761513947
 21
1415.4841360948
 31
0.0
  0
LINE
  5
204
330
1F
100
AcDbEntity
  8
0
  6
Continuous
 62
     7
370
    35
100
AcDbLine
 10
-208.0970646968
 20
2017.8427147386
 30
0.0
 11
1438.6200925907
 21
2017.8427147386
 31
0.0
  0
LINE
  5
205
330
1F
100
AcDbEntity
  8
0
  6
Continuous
 62
     7
370
    35
100
AcDbLine
 10
-208.0970646968
 20
2014.8427147386
 30
0.0
 11
-208.0970646968
 21
2017.8427147386
 31
0.0
  0
LINE
  5
206
330
1F
100
AcDbEntity
  8
0
  6
Continuous
 62
     7
370
    35
100
AcDbLine
 10
1438.6200925907
 20
2017.8427147386
 30
0.0
 11
1438.6200925907
 21
2014.8427147386
 31
0.0
  0
LINE
  5
207
330
1F
100
AcDbEntity
  8
0
  6
Continuous
 62
     7
370
    35
100
AcDbLine
 10
1438.6200925907
 20
1369.8427147386
 30
0.0
 11
-208.0970646968
 21
1369.8427147386
 31
0.0
  0
LINE
  5
208
330
1F
100
AcDbEntity
  8
0
  6
Continuous
 62
     7
370
    35
100
AcDbLine
 10
-208.0970646968
 20
1369.8427147386
 30
0.0
 11
-208.0970646968
 21
1372.8427147386
 31
0.0
  0
LINE
  5
209
330
1F
100
AcDbEntity
  8
0
  6
Continuous
 62
     7
370
    35
100
AcDbLine
 10
1438.6200925907
 20
1372.8427147386
 30
0.0
 11
1438.6200925907
 21
1369.8427147386
 31
0.0
  0
LINE
  5
20A
330
1F
100
AcDbEntity
  8
0
  6
Continuous
 62
     7
370
    35
100
AcDbLine
 10
1440.261513947
 20
1412.4841360948
 30
0.0
 11
1437.261513947
 21
1412.4841360948
 31
0.0
  0
LINE
  5
20B
330
1F
100
AcDbEntity
  8
0
  6
Continuous
 62
     7
370
    35
100
AcDbLine
 10
1437.261513947
 20
1995.2012933824
 30
0.0
 11
1440.261513947
 21
1995.2012933824
 31
0.0
  0
LINE
  5
20C
330
1F
100
AcDbEntity
  8
0
  6
Continuous
 62
     7
370
    35
100
AcDbLine
 10
1440.261513947
 20
1995.2012933824
 30
0.0
 11
1440.261513947
 21
1412.4841360948
 31
0.0
  0
LINE
  5
20D
330
1F
100
AcDbEntity
  8
0
  6
Continuous
 62
     7
370
    35
100
AcDbLine
 10
-209.738486053
 20
1995.2012933824
 30
0.0
 11
-206.738486053
 21
1995.2012933824
 31
0.0
  0
LINE
  5
20E
330
1F
100
AcDbEntity
  8
0
  6
Continuous
 62
     7
370
    35
100
AcDbLine
 10
-206.738486053
 20
1411.4841360948
 30
0.0
 11
-209.738486053
 21
1411.4841360948
 31
0.0
  0
LINE
  5
20F
330
1F
100
AcDbEntity
  8
0
  6
Continuous
 62
     7
370
    35
100
AcDbLine
 10
-209.738486053
 20
1411.4841360948
 30
0.0
 11
-209.738486053
 21
1995.2012933824
 31
0.0
  0
LINE
  5
210
330
1F
100
AcDbEntity
  8
0
  6
Continuous
 62
     7
370
    35
100
AcDbLine
 10
1440.261513947
 20
2013.2012933824
 30
0.0
 11
1438.761513947
 21
2013.2012933824
 31
0.0
  0
LINE
  5
211
330
1F
100
AcDbEntity
  8
0
  6
Continuous
 62
     7
370
    35
100
AcDbLine
 10
1438.761513947
 20
2013.2012933824
 30
0.0
 11
1438.761513947
 21
2016.2012933824
 31
0.0
  0
LINE
  5
212
330
1F
100
AcDbEntity
  8
0
  6
Continuous
 62
     7
370
    35
100
AcDbLine
 10
1438.761513947
 20
2016.2012933824
 30
0.0
 11
1440.261513947
 21
2016.2012933824
 31
0.0
  0
LINE
  5
213
330
1F
100
AcDbEntity
  8
0
  6
Continuous
 62
     7
370
    35
100
AcDbLine
 10
1440.261513947
 20
2016.2012933824
 30
0.0
 11
1440.261513947
 21
2013.2012933824
 31
0.0
  0
LINE
  5
214
330
1F
100
AcDbEntity
  8
0
  6
Continuous
 62
     7
370
    35
100
AcDbLine
 10
-208.238486053
 20
1410.4841360948
 30
0.0
 11
-209.738486053
 21
1410.4841360948
 31
0.0
  0
LINE
  5
215
330
1F
100
AcDbEntity
  8
0
  6
Continuous
 62
     7
370
    35
100
AcDbLine
 10
-208.238486053
 20
1374.4841360948
 30
0.0
 11
-208.238486053
 21
1410.4841360948
 31
0.0
  0
LINE
  5
216
330
1F
100
AcDbEntity
  8
0
  6
Continuous
 62
     7
370
    35
100
AcDbLine
 10
-209.738486053
 20
1374.4841360948
 30
0.0
 11
-208.238486053
 21
1374.4841360948
 31
0.0
  0
LINE
  5
217
330
1F
100
AcDbEntity
  8
0
  6
Continuous
 62
     7
370
    35
100
AcDbLine
 10
-209.738486053
 20
1374.4841360948
 30
0.0
 11
-209.738486053
 21
1410.4841360948
 31
0.0
  0
LINE
  5
218
330
1F
100
AcDbEntity
  8
0
  6
Continuous
 62
     7
370
    35
100
AcDbLine
 10
1438.761513947
 20
1996.2012933824
 30
0.0
 11
1440.261513947
 21
1996.2012933824
 31
0.0
  0
LINE
  5
219
330
1F
100
AcDbEntity
  8
0
  6
Continuous
 62
     7
370
    35
100
AcDbLine
 10
1440.261513947
 20
2013.2012933824
 30
0.0
 11
1440.261513947
 21
1996.2012933824
 31
0.0
  0
LINE
  5
21A
330
1F
100
AcDbEntity
  8
0
  6
Continuous
 62
     7
370
    35
100
AcDbLine
 10
1438.761513947
 20
2013.2012933824
 30
0.0
 11
1438.761513947
 21
1996.2012933824
 31
0.0
  0
LINE
  5
21B
330
1F
100
AcDbEntity
  8
0
  6
Continuous
 62
     7
370
    35
100
AcDbLine
 10
1438.761513947
 20
1411.4841360948
 30
0.0
 11
1440.261513947
 21
1411.4841360948
 31
0.0
  0
LINE
  5
21C
330
1F
100
AcDbEntity
  8
0
  6
Continuous
 62
     7
370
    35
100
AcDbLine
 10
1440.261513947
 20
1411.4841360948
 30
0.0
 11
1440.261513947
 21
1374.4841360948
 31
0.0
  0
LINE
  5
21D
330
1F
100
AcDbEntity
  8
0
  6
Continuous
 62
     7
370
    35
100
AcDbLine
 10
1438.761513947
 20
1374.4841360948
 30
0.0
 11
1440.261513947
 21
1374.4841360948
 31
0.0
  0
LINE
  5
21E
330
1F
100
AcDbEntity
  8
0
  6
Continuous
 62
     7
370
    35
100
AcDbLine
 10
1438.761513947
 20
1411.4841360948
 30
0.0
 11
1438.761513947
 21
1374.4841360948
 31
0.0
  0
LINE
  5
21F
330
1F
100
AcDbEntity
  8
0
  6
Continuous
 62
     7
370
    35
100
AcDbLine
 10
-209.738486053
 20
2016.2012933824
 30
0.0
 11
-208.238486053
 21
2016.2012933824
 31
0.0
  0
LINE
  5
220
330
1F
100
AcDbEntity
  8
0
  6
Continuous
 62
     7
370
    35
100
AcDbLine
 10
-208.238486053
 20
2016.2012933824
 30
0.0
 11
-208.238486053
 21
2013.2012933824
 31
0.0
  0
LINE
  5
221
330
1F
100
AcDbEntity
  8
0
  6
Continuous
 62
     7
370
    35
100
AcDbLine
 10
-208.238486053
 20
2013.2012933824
 30
0.0
 11
-209.738486053
 21
2013.2012933824
 31
0.0
  0
LINE
  5
222
330
1F
100
AcDbEntity
  8
0
  6
Continuous
 62
     7
370
    35
100
AcDbLine
 10
-209.738486053
 20
2013.2012933824
 30
0.0
 11
-209.738486053
 21
2016.2012933824
 31
0.0
  0
LINE
  5
223
330
1F
100
AcDbEntity
  8
0
  6
Continuous
 62
     7
370
    35
100
AcDbLine
 10
-208.238486053
 20
1996.2012933824
 30
0.0
 11
-209.738486053
 21
1996.2012933824
 31
0.0
  0
LINE
  5
224
330
1F
100
AcDbEntity
  8
0
  6
Continuous
 62
     7
370
    35
100
AcDbLine
 10
-209.738486053
 20
1996.2012933824
 30
0.0
 11
-209.738486053
 21
2013.2012933824
 31
0.0
  0
LINE
  5
225
330
1F
100
AcDbEntity
  8
0
  6
Continuous
 62
     7
370
    35
100
AcDbLine
 10
-208.238486053
 20
1996.2012933824
 30
0.0
 11
-208.238486053
 21
2013.2012933824
 31
0.0
  0
LINE
  5
226
330
1F
100
AcDbEntity
  8
0
  6
Continuous
 62
     7
370
    35
100
AcDbLine
 10
-208.238486053
 20
1371.4841360948
 30
0.0
 11
-209.738486053
 21
1371.4841360948
 31
0.0
  0
LINE
  5
227
330
1F
100
AcDbEntity
  8
0
  6
Continuous
 62
     7
370
    35
100
AcDbLine
 10
-209.738486053
 20
1371.4841360948
 30
0.0
 11
-209.738486053
 21
1374.4841360948
 31
0.0
  0
LINE
  5
228
330
1F
100
AcDbEntity
  8
0
  6
Continuous
 62
     7
370
    35
100
AcDbLine
 10
-208.238486053
 20
1374.4841360948
 30
0.0
 11
-208.238486053
 21
1371.4841360948
 31
0.0
  0
LINE
  5
229
330
1F
100
AcDbEntity
  8
0
  6
Continuous
 62
     7
370
    35
100
AcDbLine
 10
1440.261513947
 20
1371.4841360948
 30
0.0
 11
1438.761513947
 21
1371.4841360948
 31
0.0
  0
LINE
  5
22A
330
1F
100
AcDbEntity
  8
0
  6
Continuous
 62
     7
370
    35
100
AcDbLine
 10
1440.261513947
 20
1374.4841360948
 30
0.0
 11
1440.261513947
 21
1371.4841360948
 31
0.0
  0
LINE
  5
22B
330
1F
100
AcDbEntity
  8
0
  6
Continuous
 62
     7
370
    35
100
AcDbLine
 10
1438.761513947
 20
1371.4841360948
 30
0.0
 11
1438.761513947
 21
1374.4841360948
 31
0.0
  0
LINE
  5
22C
330
1F
100
AcDbEntity
  8
0
  6
Continuous
 62
     7
370
    35
100
AcDbLine
 10
-209.738486053
 20
1411.4841360948
 30
0.0
 11
-209.738486053
 21
1410.4841360948
 31
0.0
  0
LINE
  5
22D
330
1F
100
AcDbEntity
  8
0
  6
Continuous
 62
     7
370
    35
100
AcDbLine
 10
-208.238486053
 20
1410.4841360948
 30
0.0
 11
-208.238486053
 21
1411.4841360948
 31
0.0
  0
LINE
  5
22E
330
1F
100
AcDbEntity
  8
0
  6
Continuous
 62
     7
370
    35
100
AcDbLine
 10
-209.738486053
 20
1996.2012933824
 30
0.0
 11
-209.738486053
 21
1995.2012933824
 31
0.0
  0
LINE
  5
22F
330
1F
100
AcDbEntity
  8
0
  6
Continuous
 62
     7
370
    35
100
AcDbLine
 10
-208.238486053
 20
1995.2012933824
 30
0.0
 11
-208.238486053
 21
1996.2012933824
 31
0.0
  0
LINE
  5
230
330
1F
100
AcDbEntity
  8
0
  6
Continuous
 62
     7
370
    35
100
AcDbLine
 10
1440.261513947
 20
1411.4841360948
 30
0.0
 11
1440.261513947
 21
1412.4841360948
 31
0.0
  0
LINE
  5
231
330
1F
100
AcDbEntity
  8
0
  6
Continuous
 62
     7
370
    35
100
AcDbLine
 10
1438.761513947
 20
1412.4841360948
 30
0.0
 11
1438.761513947
 21
1411.4841360948
 31
0.0
  0
LINE
  5
232
330
1F
100
AcDbEntity
  8
0
  6
Continuous
 62
     7
370
    35
100
AcDbLine
 10
1440.261513947
 20
1995.2012933824
 30
0.0
 11
1440.261513947
 21
1996.2012933824
 31
0.0
  0
LINE
  5
233
330
1F
100
AcDbEntity
  8
0
  6
Continuous
 62
     7
370
    35
100
AcDbLine
 10
1438.761513947
 20
1996.2012933824
 30
0.0
 11
1438.761513947
 21
1995.2012933824
 31
0.0
  0
LINE
  5
234
330
1F
100
AcDbEntity
  8
0
  6
Continuous
 62
     7
370
    35
100
AcDbLine
 10
-206.738486053
 20
1410.8538371831
 30
0.0
 11
-206.738486053
 21
1411.4841360948
 31
0.0
  0
LINE
  5
235
330
1F
100
AcDbEntity
  8
0
  6
Continuous
 62
     7
370
    35
100
AcDbLine
 10
-206.738486053
 20
1995.2012933824
 30
0.0
 11
-206.738486053
 21
1996.8315922941
 31
0.0
  0
LINE
  5
236
330
1F
100
AcDbEntity
  8
0
  6
Continuous
 62
     7
370
    35
100
AcDbLine
 10
-208.238486053
 20
1371.4841360948
 30
0.0
 11
-208.0970646968
 21
1371.8575492279
 31
0.0
  0
SPLINE
  5
237
330
1F
100
AcDbEntity
  8
0
  6
Continuous
 62
     7
370
    35
100
AcDbSpline
210
0.0
220
0.0
230
1.0
 70
     8
 71
     3
 72
     9
 73
     5
 74
     0
 42
0.00000001
 43
0.00000001
 40
0.0
 40
0.0
 40
0.0
 40
0.0
 40
0.1630800815451647
 40
0.9999999999999999
 40
0.9999999999999999
 40
0.9999999999999999
 40
0.9999999999999999
 10
-208.0970646967947
 20
2015.842659055251
 30
0.0
 10
-208.1153481151393
 20
2015.862172151672
 30
0.0
 10
-208.2274612449058
 20
2015.981825614171
 30
0.0
 10
-208.2334630351935
 20
2016.101301572806
 30
0.0
 10
-208.2384860530317
 20
2016.201293382364
 30
0.0
  0
LINE
  5
238
330
1F
100
AcDbEntity
  8
0
  6
Continuous
 62
     7
370
    35
100
AcDbLine
 10
1437.261513947
 20
1996.8315922941
 30
0.0
 11
1437.261513947
 21
1995.2012933824
 31
0.0
  0
LINE
  5
239
330
1F
100
AcDbEntity
  8
0
  6
Continuous
 62
     7
370
    35
100
AcDbLine
 10
1437.261513947
 20
1412.4841360948
 30
0.0
 11
1437.261513947
 21
1410.8538371831
 31
0.0
  0
LINE
  5
23A
330
1F
100
AcDbEntity
  8
0
  6
Continuous
 62
     7
370
    35
100
AcDbLine
 10
1438.761513947
 20
2016.2012933824
 30
0.0
 11
1438.6200925907
 21
2015.8278802493
 31
0.0
  0
SPLINE
  5
23B
330
1F
100
AcDbEntity
  8
0
  6
Continuous
 62
     7
370
    35
100
AcDbSpline
210
0.0
220
0.0
230
1.0
 70
     8
 71
     3
 72
     9
 73
     5
 74
     0
 42
0.00000001
 43
0.00000001
 40
0.0
 40
0.0
 40
0.0
 40
0.0
 40
0.1630800815456582
 40
0.9999999999999999
 40
0.9999999999999999
 40
0.9999999999999999
 40
0.9999999999999999
 10
1438.620092590731
 20
1371.842770421952
 30
0.0
 10
1438.638376009076
 20
1371.82325732553
 30
0.0
 10
1438.750489138843
 20
1371.703603863031
 30
0.0
 10
1438.75649092913
 20
1371.584127904396
 30
0.0
 10
1438.761513946969
 20
1371.484136094838
 30
0.0
  0
CIRCLE
  5
23C
330
1F
100
AcDbEntity
  8
0
  6
Continuous
 62
     7
370
    35
100
AcDbCircle
 10
765.261513947
 20
1449.8427147386
 30
0.0
 40
4.249999999999773
  0
LINE
  5
23D
330
1F
100
AcDbEntity
  8
0
  6
Continuous
 62
     7
370
    35
100
AcDbLine
 10
340.261513947
 20
1917.8427147386
 30
0.0
 11
1240.261513947
 21
1917.8427147386
 31
0.0
  0
LINE
  5
23E
330
1F
100
AcDbEntity
  8
0
  6
Continuous
 62
     7
370
    35
100
AcDbLine
 10
340.261513947
 20
1469.8427147386
 30
0.0
 11
340.261513947
 21
1917.8427147386
 31
0.0
  0
LINE
  5
23F
330
1F
100
AcDbEntity
  8
0
  6
Continuous
 62
     7
370
    35
100
AcDbLine
 10
1240.261513947
 20
1469.8427147386
 30
0.0
 11
340.261513947
 21
1469.8427147386
 31
0.0
  0
LINE
  5
240
330
1F
100
AcDbEntity
  8
0
  6
Continuous
 62
     7
370
    35
100
AcDbLine
 10
1240.261513947
 20
1917.8427147386
 30
0.0
 11
1240.261513947
 21
1469.8427147386
 31
0.0
  0
CIRCLE
  5
241
330
1F
100
AcDbEntity
  8
0
  6
Continuous
 62
     7
370
    35
100
AcDbCircle
 10
465.261513947
 20
1449.8427147386
 30
0.0
 40
4.249999999999773
  0
LINE
  5
242
330
1F
100
AcDbEntity
  8
0
  6
Continuous
 62
     7
370
    35
100
AcDbLine
 10
1637.6987500651
 20
1371.4841360948
 30
0.0
 11
1637.6987500651
 21
2016.2012933824
 31
0.0
  0
LINE
  5
243
330
1F
100
AcDbEntity
  8
0
  6
Continuous
 62
     7
370
    35
100
AcDbLine
 10
1637.6987500651
 20
2016.2012933824
 30
0.0
 11
1678.6987500651
 21
2016.2012933824
 31
0.0
  0
ARC
  5
244
330
1F
100
AcDbEntity
  8
0
  6
Continuous
 62
     7
370
    35
100
AcDbCircle
 10
1678.6987500651
 20
2013.2012933824
 30
0.0
 40
3.000000000000227
100
AcDbArc
 50
0.0
 51
90.0
  0
LINE
  5
245
330
1F
100
AcDbEntity
  8
0
  6
Continuous
 62
     7
370
    35
100
AcDbLine
 10
1681.6987500651
 20
1996.2012933824
 30
0.0
 11
1681.6987500651
 21
2013.2012933824
 31
0.0
  0
LINE
  5
246
330
1F
100
AcDbEntity
  8
0
  6
Continuous
 62
     7
370
    35
100
AcDbLine
 10
1681.6987500651
 20
1996.2012933824
 30
0.0
 11
1679.1987500651
 21
1996.2012933824
 31
0.0
  0
ARC
  5
247
330
1F
100
AcDbEntity
  8
0
  6
Continuous
 62
     7
370
    35
100
AcDbCircle
 10
1679.1987500651
 20
1995.7012933824
 30
0.0
 40
0.5
100
AcDbArc
 50
90.0
 51
270.0
  0
LINE
  5
248
330
1F
100
AcDbEntity
  8
0
  6
Continuous
 62
     7
370
    35
100
AcDbLine
 10
1679.1987500651
 20
1995.2012933824
 30
0.0
 11
1680.1987500651
 21
1995.2012933824
 31
0.0
  0
LINE
  5
249
330
1F
100
AcDbEntity
  8
0
  6
Continuous
 62
     7
370
    35
100
AcDbLine
 10
1680.1987500651
 20
1411.4841360948
 30
0.0
 11
1680.1987500651
 21
1995.2012933824
 31
0.0
  0
LINE
  5
24A
330
1F
100
AcDbEntity
  8
0
  6
Continuous
 62
     7
370
    35
100
AcDbLine
 10
1680.1987500651
 20
1411.4841360948
 30
0.0
 11
1679.1987500651
 21
1411.4841360948
 31
0.0
  0
ARC
  5
24B
330
1F
100
AcDbEntity
  8
0
  6
Continuous
 62
     7
370
    35
100
AcDbCircle
 10
1679.1987500651
 20
1410.9841360948
 30
0.0
 40
0.5000000000002274
100
AcDbArc
 50
90.0
 51
270.0
  0
LINE
  5
24C
330
1F
100
AcDbEntity
  8
0
  6
Continuous
 62
     7
370
    35
100
AcDbLine
 10
1679.1987500651
 20
1410.4841360948
 30
0.0
 11
1681.6987500651
 21
1410.4841360948
 31
0.0
  0
LINE
  5
24D
330
1F
100
AcDbEntity
  8
0
  6
Continuous
 62
     7
370
    35
100
AcDbLine
 10
1681.6987500651
 20
1374.4841360948
 30
0.0
 11
1681.6987500651
 21
1410.4841360948
 31
0.0
  0
ARC
  5
24E
330
1F
100
AcDbEntity
  8
0
  6
Continuous
 62
     7
370
    35
100
AcDbCircle
 10
1678.6987500651
 20
1374.4841360948
 30
0.0
 40
3.0
100
AcDbArc
 50
270.0
 51
0.0
  0
LINE
  5
24F
330
1F
100
AcDbEntity
  8
0
  6
Continuous
 62
     7
370
    35
100
AcDbLine
 10
1637.6987500651
 20
1371.4841360948
 30
0.0
 11
1678.6987500651
 21
1371.4841360948
 31
0.0
  0
SPLINE
  5
250
330
1F
100
AcDbEntity
  8
0
  6
Continuous
 62
     7
370
    35
100
AcDbSpline
210
0.0
220
0.0
230
1.0
 70
     8
 71
     3
 72
    22
 73
    18
 74
     0
 42
0.00000001
 43
0.00000001
 40
0.0
 40
0.0
 40
0.0
 40
0.0
 40
0.125
 40
0.125
 40
0.25
 40
0.25
 40
0.375
 40
0.375
 40
0.5
 40
0.5
 40
0.625
 40
0.625
 40
0.75
 40
0.75
 40
0.875
 40
0.875
 40
1.0
 40
1.0
 40
1.0
 40
1.0
 10
1634.698750065057
 20
2014.842714738601
 30
0.0
 10
1634.698750065057
 20
2014.899820505332
 30
0.0
 10
1634.718193762223
 20
2014.956017583803
 30
0.0
 10
1634.794302948972
 20
2015.068625455947
 30
0.0
 10
1634.851722667312
 20
2015.125558744871
 30
0.0
 10
1635.002407210809
 20
2015.239089945183
 30
0.0
 10
1635.094588822544
 20
2015.295170420979
 30
0.0
 10
1635.311705432654
 20
2015.407953137573
 30
0.0
 10
1635.43821860298
 20
2015.465228575379
 30
0.0
 10
1635.715387884106
 20
2015.578268618749
 30
0.0
 10
1635.866291517213
 20
2015.634317185621
 30
0.0
 10
1636.192358850717
 20
2015.747452802187
 30
0.0
 10
1636.368197140241
 20
2015.804681810235
 30
0.0
 10
1636.729345337904
 20
2015.917411851888
 30
0.0
 10
1636.916346469706
 20
2015.973512223349
 30
0.0
 10
1637.30297072604
 20
2016.087183374096
 30
0.0
 10
1637.500672022345
 20
2016.144187612924
 30
0.0
 10
1637.698750065057
 20
2016.201293382364
 30
0.0
  0
SPLINE
  5
251
330
1F
100
AcDbEntity
  8
0
  6
Continuous
 62
     7
370
    35
100
AcDbSpline
210
0.0
220
0.0
230
1.0
 70
     8
 71
     3
 72
    22
 73
    18
 74
     0
 42
0.00000001
 43
0.00000001
 40
0.0
 40
0.0
 40
0.0
 40
0.0
 40
0.125
 40
0.125
 40
0.25
 40
0.25
 40
0.375
 40
0.375
 40
0.5
 40
0.5
 40
0.625
 40
0.625
 40
0.75
 40
0.75
 40
0.875
 40
0.875
 40
1.0
 40
1.0
 40
1.0
 40
1.0
 10
1637.698750065057
 20
1371.484136094838
 30
0.0
 10
1637.500672031742
 20
1371.541241861569
 30
0.0
 10
1637.305775930948
 20
1371.59743894004
 30
0.0
 10
1636.922649881893
 20
1371.710046812184
 30
0.0
 10
1636.732725291915
 20
1371.766980101108
 30
0.0
 10
1636.368898916177
 20
1371.88051130142
 30
0.0
 10
1636.196549221923
 20
1371.936591777216
 30
0.0
 10
1635.871106480263
 20
1372.04937449381
 30
0.0
 10
1635.716722916255
 20
1372.106649931616
 30
0.0
 10
1635.439389852785
 20
1372.219689974986
 30
0.0
 10
1635.315349417345
 20
1372.275738541858
 30
0.0
 10
1635.096964430836
 20
1372.388874158424
 30
0.0
 10
1635.002854583288
 20
1372.446103166473
 30
0.0
 10
1634.852967569972
 20
1372.558833208125
 30
0.0
 10
1634.795869959774
 20
1372.614933579585
 30
0.0
 10
1634.718443536111
 20
1372.728604730333
 30
0.0
 10
1634.698750065057
 20
1372.785608969161
 30
0.0
 10
1634.698750065057
 20
1372.842714738601
 30
0.0
  0
LINE
  5
252
330
1F
100
AcDbEntity
  8
0
  6
Continuous
 62
     7
370
    35
100
AcDbLine
 10
1634.6987500651
 20
1372.8427147386
 30
0.0
 11
1634.6987500651
 21
2014.8427147386
 31
0.0
  0
LINE
  5
253
330
1F
100
AcDbEntity
  8
0
  6
Continuous
 62
     7
370
    35
100
AcDbLine
 10
1683.1987500651
 20
1995.2012933824
 30
0.0
 11
1683.1987500651
 21
1411.4841360948
 31
0.0
  0
LINE
  5
254
330
1F
100
AcDbEntity
  8
0
  6
Continuous
 62
     7
370
    35
100
AcDbLine
 10
1683.1987500651
 20
1411.4841360948
 30
0.0
 11
1680.1987500651
 21
1411.4841360948
 31
0.0
  0
LINE
  5
255
330
1F
100
AcDbEntity
  8
0
  6
Continuous
 62
     7
370
    35
100
AcDbLine
 10
1680.1987500651
 20
1995.2012933824
 30
0.0
 11
1683.1987500651
 21
1995.2012933824
 31
0.0
  0
SPLINE
  5
256
330
1F
100
AcDbEntity
  8
0
  6
Continuous
 62
     7
370
    35
100
AcDbSpline
210
0.0
220
0.0
230
1.0
 70
     8
 71
     3
 72
    10
 73
     6
 74
     0
 42
0.00000001
 43
0.00000001
 40
0.0
 40
0.0
 40
0.0
 40
0.0
 40
0.0728086013492674
 40
0.5631498354593429
 40
1.0
 40
1.0
 40
1.0
 40
1.0
 10
1636.639381164719
 20
1371.801067134951
 30
0.0
 10
1636.65605772643
 20
1371.777568698541
 30
0.0
 10
1636.78504527473
 20
1371.595816263357
 30
0.0
 10
1637.165657554088
 20
1371.404460762689
 30
0.0
 10
1637.528020992412
 20
1371.362489620474
 30
0.0
 10
1637.698750065057
 20
1371.342714738601
 30
0.0
  0
LINE
  5
257
330
1F
100
AcDbEntity
  8
0
  6
Continuous
 62
     7
370
    35
100
AcDbLine
 10
1637.6987500651
 20
1369.8427147386
 30
0.0
 11
1637.6987500651
 21
1371.3427147386
 31
0.0
  0
SPLINE
  5
258
330
1F
100
AcDbEntity
  8
0
  6
Continuous
 62
     7
370
    35
100
AcDbSpline
210
0.0
220
0.0
230
1.0
 70
     8
 71
     3
 72
    22
 73
    18
 74
     0
 42
0.00000001
 43
0.00000001
 40
0.0
 40
0.0
 40
0.0
 40
0.0
 40
0.1250000000000001
 40
0.1250000000000001
 40
0.2500000000000001
 40
0.2500000000000001
 40
0.3750000000000001
 40
0.3750000000000001
 40
0.5000000000000001
 40
0.5000000000000001
 40
0.6250000000000001
 40
0.6250000000000001
 40
0.7500000000000002
 40
0.7500000000000002
 40
0.8750000000000001
 40
0.8750000000000001
 40
1.0
 40
1.0
 40
1.0
 40
1.0
 10
1634.698750065057
 20
1372.842714738601
 30
0.0
 10
1634.698750065057
 20
1372.644636705287
 30
0.0
 10
1634.718193762223
 20
1372.449740604493
 30
0.0
 10
1634.794302948972
 20
1372.066614555437
 30
0.0
 10
1634.851722667312
 20
1371.876689965459
 30
0.0
 10
1635.002407210809
 20
1371.512863589721
 30
0.0
 10
1635.094588822544
 20
1371.340513895467
 30
0.0
 10
1635.311705432654
 20
1371.015071153808
 30
0.0
 10
1635.43821860298
 20
1370.860687589799
 30
0.0
 10
1635.715387884106
 20
1370.583354526329
 30
0.0
 10
1635.866291517213
 20
1370.459314090889
 30
0.0
 10
1636.192358850717
 20
1370.24092910438
 30
0.0
 10
1636.368197140241
 20
1370.146819256832
 30
0.0
 10
1636.729345337904
 20
1369.996932243516
 30
0.0
 10
1636.916346469706
 20
1369.939834633318
 30
0.0
 10
1637.30297072604
 20
1369.862408209656
 30
0.0
 10
1637.500672022345
 20
1369.842714738601
 30
0.0
 10
1637.698750065057
 20
1369.842714738601
 30
0.0
  0
SPLINE
  5
259
330
1F
100
AcDbEntity
  8
0
  6
Continuous
 62
     7
370
    35
100
AcDbSpline
210
0.0
220
0.0
230
1.0
 70
     8
 71
     3
 72
    22
 73
    18
 74
     0
 42
0.00000001
 43
0.00000001
 40
0.0
 40
0.0
 40
0.0
 40
0.0
 40
0.1250000000000001
 40
0.1250000000000001
 40
0.2500000000000003
 40
0.2500000000000003
 40
0.3750000000000003
 40
0.3750000000000003
 40
0.5000000000000003
 40
0.5000000000000003
 40
0.6250000000000002
 40
0.6250000000000002
 40
0.7500000000000001
 40
0.7500000000000001
 40
0.8750000000000001
 40
0.8750000000000001
 40
1.0
 40
1.0
 40
1.0
 40
1.0
 10
1637.698750065057
 20
2017.842714738601
 30
0.0
 10
1637.500672031742
 20
2017.842714738601
 30
0.0
 10
1637.305775930948
 20
2017.823271041435
 30
0.0
 10
1636.922649881893
 20
2017.747161854686
 30
0.0
 10
1636.732725291915
 20
2017.689742136346
 30
0.0
 10
1636.368898916177
 20
2017.539057592849
 30
0.0
 10
1636.196549221923
 20
2017.446875981114
 30
0.0
 10
1635.871106480263
 20
2017.229759371004
 30
0.0
 10
1635.716722916255
 20
2017.103246200677
 30
0.0
 10
1635.439389852785
 20
2016.826076919552
 30
0.0
 10
1635.315349417345
 20
2016.675173286445
 30
0.0
 10
1635.096964430836
 20
2016.349105952941
 30
0.0
 10
1635.002854583288
 20
2016.173267663417
 30
0.0
 10
1634.852967569972
 20
2015.812119465754
 30
0.0
 10
1634.795869959774
 20
2015.625118333952
 30
0.0
 10
1634.718443536111
 20
2015.238494077618
 30
0.0
 10
1634.698750065057
 20
2015.040792781313
 30
0.0
 10
1634.698750065057
 20
2014.842714738601
 30
0.0
  0
LINE
  5
25A
330
1F
100
AcDbEntity
  8
0
  6
Continuous
 62
     7
370
    35
100
AcDbLine
 10
1637.6987500651
 20
2017.8427147386
 30
0.0
 11
1637.6987500651
 21
2016.3427147386
 31
0.0
  0
SPLINE
  5
25B
330
1F
100
AcDbEntity
  8
0
  6
Continuous
 62
     7
370
    35
100
AcDbSpline
210
0.0
220
0.0
230
1.0
 70
     8
 71
     3
 72
     9
 73
     5
 74
     0
 42
0.00000001
 43
0.00000001
 40
0.0
 40
0.0
 40
0.0
 40
0.0
 40
0.5602671099304872
 40
0.9999999999999999
 40
0.9999999999999999
 40
0.9999999999999999
 40
0.9999999999999999
 10
1637.698750065057
 20
2016.342714738601
 30
0.0
 10
1637.47334357291
 20
2016.317457694183
 30
0.0
 10
1637.07102387905
 20
2016.272377331674
 30
0.0
 10
1636.770315357301
 20
2016.005366879999
 30
0.0
 10
1636.638083929964
 20
2015.887953602405
 30
0.0
  0
LINE
  5
25C
330
1F
100
AcDbEntity
  8
0
  6
Continuous
 62
     7
370
    35
100
AcDbLine
 10
1680.1987500651
 20
1371.3427147386
 30
0.0
 11
1680.1987500651
 21
1369.8427147386
 31
0.0
  0
LINE
  5
25D
330
1F
100
AcDbEntity
  8
0
  6
Continuous
 62
     7
370
    35
100
AcDbLine
 10
1637.6987500651
 20
1369.8427147386
 30
0.0
 11
1680.1987500651
 21
1369.8427147386
 31
0.0
  0
LINE
  5
25E
330
1F
100
AcDbEntity
  8
0
  6
Continuous
 62
     7
370
    35
100
AcDbLine
 10
1637.6987500651
 20
1371.3427147386
 30
0.0
 11
1680.1987500651
 21
1371.3427147386
 31
0.0
  0
LINE
  5
25F
330
1F
100
AcDbEntity
  8
0
  6
Continuous
 62
     7
370
    35
100
AcDbLine
 10
1637.6987500651
 20
2017.8427147386
 30
0.0
 11
1680.1987500651
 21
2017.8427147386
 31
0.0
  0
LINE
  5
260
330
1F
100
AcDbEntity
  8
0
  6
Continuous
 62
     7
370
    35
100
AcDbLine
 10
1680.1987500651
 20
2016.3427147386
 30
0.0
 11
1680.1987500651
 21
2017.8427147386
 31
0.0
  0
LINE
  5
261
330
1F
100
AcDbEntity
  8
0
  6
Continuous
 62
     7
370
    35
100
AcDbLine
 10
1637.6987500651
 20
2016.3427147386
 30
0.0
 11
1680.1987500651
 21
2016.3427147386
 31
0.0
  0
LINE
  5
262
330
1F
100
AcDbEntity
  8
0
  6
Continuous
 62
     7
370
    35
100
AcDbLine
 10
1681.6987500651
 20
1372.8427147386
 30
0.0
 11
1683.1987500651
 21
1372.8427147386
 31
0.0
  0
ARC
  5
263
330
1F
100
AcDbEntity
  8
0
  6
Continuous
 62
     7
370
    35
100
AcDbCircle
 10
1680.1987500651
 20
1372.8427147386
 30
0.0
 40
3.0
100
AcDbArc
 50
270.0
 51
0.0
  0
ARC
  5
264
330
1F
100
AcDbEntity
  8
0
  6
Continuous
 62
     7
370
    35
100
AcDbCircle
 10
1680.1987500651
 20
1372.8427147386
 30
0.0
 40
1.500000000000227
100
AcDbArc
 50
270.0
 51
0.0
  0
LINE
  5
265
330
1F
100
AcDbEntity
  8
0
  6
Continuous
 62
     7
370
    35
100
AcDbLine
 10
1681.6987500651
 20
2014.8427147386
 30
0.0
 11
1683.1987500651
 21
2014.8427147386
 31
0.0
  0
LINE
  5
266
330
1F
100
AcDbEntity
  8
0
  6
Continuous
 62
     7
370
    35
100
AcDbLine
 10
1683.1987500651
 20
2014.8427147386
 30
0.0
 11
1683.1987500651
 21
1999.3427147386
 31
0.0
  0
LINE
  5
267
330
1F
100
AcDbEntity
  8
0
  6
Continuous
 62
     7
370
    35
100
AcDbLine
 10
1681.6987500651
 20
1999.3427147386
 30
0.0
 11
1683.1987500651
 21
1999.3427147386
 31
0.0
  0
LINE
  5
268
330
1F
100
AcDbEntity
  8
0
  6
Continuous
 62
     7
370
    35
100
AcDbLine
 10
1681.6987500651
 20
2014.8427147386
 30
0.0
 11
1681.6987500651
 21
2013.2012933824
 31
0.0
  0
ARC
  5
269
330
1F
100
AcDbEntity
  8
0
  6
Continuous
 62
     7
370
    35
100
AcDbCircle
 10
1680.1987500651
 20
2014.8427147386
 30
0.0
 40
3.000000000000227
100
AcDbArc
 50
0.0
 51
90.0
  0
ARC
  5
26A
330
1F
100
AcDbEntity
  8
0
  6
Continuous
 62
     7
370
    35
100
AcDbCircle
 10
1680.1987500651
 20
2014.8427147386
 30
0.0
 40
1.5
100
AcDbArc
 50
0.0
 51
90.0
  0
LINE
  5
26B
330
1F
100
AcDbEntity
  8
0
  6
Continuous
 62
     7
370
    35
100
AcDbLine
 10
1683.1987500651
 20
1408.3427147386
 30
0.0
 11
1681.6987500651
 21
1408.3427147386
 31
0.0
  0
LINE
  5
26C
330
1F
100
AcDbEntity
  8
0
  6
Continuous
 62
     7
370
    35
100
AcDbLine
 10
1683.1987500651
 20
1408.3427147386
 30
0.0
 11
1683.1987500651
 21
1372.8427147386
 31
0.0
  0
LINE
  5
26D
330
1F
100
AcDbEntity
  8
0
  6
Continuous
 62
     7
370
    35
100
AcDbLine
 10
1681.6987500651
 20
1374.4841360948
 30
0.0
 11
1681.6987500651
 21
1372.8427147386
 31
0.0
  0
LINE
  5
26E
330
1F
100
AcDbEntity
  8
0
  6
Continuous
 62
     7
370
    35
100
AcDbLine
 10
1683.1987500651
 20
1996.3427147386
 30
0.0
 11
1681.6987500651
 21
1996.3427147386
 31
0.0
  0
LINE
  5
26F
330
1F
100
AcDbEntity
  8
0
  6
Continuous
 62
     7
370
    35
100
AcDbLine
 10
1683.1987500651
 20
1999.3427147386
 30
0.0
 11
1683.1987500651
 21
1996.3427147386
 31
0.0
  0
LINE
  5
270
330
1F
100
AcDbEntity
  8
0
  6
Continuous
 62
     7
370
    35
100
AcDbLine
 10
1681.6987500651
 20
1411.3427147386
 30
0.0
 11
1683.1987500651
 21
1411.3427147386
 31
0.0
  0
LINE
  5
271
330
1F
100
AcDbEntity
  8
0
  6
Continuous
 62
     7
370
    35
100
AcDbLine
 10
1683.1987500651
 20
1411.3427147386
 30
0.0
 11
1683.1987500651
 21
1408.3427147386
 31
0.0
  0
LINE
  5
272
330
1F
100
AcDbEntity
  8
0
  6
Continuous
 62
     7
370
    35
100
AcDbLine
 10
1681.6987500651
 20
1410.4841360948
 30
0.0
 11
1681.6987500651
 21
1411.3427147386
 31
0.0
  0
LINE
  5
273
330
1F
100
AcDbEntity
  8
0
  6
Continuous
 62
     7
370
    35
100
AcDbLine
 10
1681.6987500651
 20
1411.4841360948
 30
0.0
 11
1681.6987500651
 21
1411.3427147386
 31
0.0
  0
LINE
  5
274
330
1F
100
AcDbEntity
  8
0
  6
Continuous
 62
     7
370
    35
100
AcDbLine
 10
1438.6200925907
 20
1203.1595370311
 30
0.0
 11
1438.6200925907
 21
1200.1595370311
 31
0.0
  0
LINE
  5
275
330
1F
100
AcDbEntity
  8
0
  6
Continuous
 62
     7
370
    35
100
AcDbLine
 10
-208.0970646968
 20
1200.1595370311
 30
0.0
 11
1438.6200925907
 21
1200.1595370311
 31
0.0
  0
LINE
  5
276
330
1F
100
AcDbEntity
  8
0
  6
Continuous
 62
     7
370
    35
100
AcDbLine
 10
-208.0970646968
 20
1200.1595370311
 30
0.0
 11
-208.0970646968
 21
1203.1595370311
 31
0.0
  0
LINE
  5
277
330
1F
100
AcDbEntity
  8
0
  6
Continuous
 62
     7
370
    35
100
AcDbLine
 10
-208.0970646968
 20
1203.1595370311
 30
0.0
 11
1438.6200925907
 21
1203.1595370311
 31
0.0
  0
LINE
  5
278
330
1F
100
AcDbEntity
  8
0
  6
Continuous
 62
     7
370
    35
100
AcDbLine
 10
-208.0970646968
 20
1245.6595370311
 30
0.0
 11
-208.0970646968
 21
1203.1595370311
 31
0.0
  0
LINE
  5
279
330
1F
100
AcDbEntity
  8
0
  6
Continuous
 62
     7
370
    35
100
AcDbLine
 10
-208.0970646968
 20
1245.6595370311
 30
0.0
 11
1438.6200925907
 21
1245.6595370311
 31
0.0
  0
CIRCLE
  5
27A
330
1F
100
AcDbEntity
  8
0
  6
Continuous
 62
     7
370
    35
100
AcDbCircle
 10
-69.738486053
 20
1233.1595370311
 30
0.0
 40
3.499999999999957
  0
CIRCLE
  5
27B
330
1F
100
AcDbEntity
  8
0
  6
Continuous
 62
     7
370
    35
100
AcDbCircle
 10
-99.738486053
 20
1233.1595370311
 30
0.0
 40
3.499999999999957
  0
CIRCLE
  5
27C
330
1F
100
AcDbEntity
  8
0
  6
Continuous
 62
     7
370
    35
100
AcDbCircle
 10
1330.261513947
 20
1233.1595370311
 30
0.0
 40
3.499999999999773
  0
CIRCLE
  5
27D
330
1F
100
AcDbEntity
  8
0
  6
Continuous
 62
     7
370
    35
100
AcDbCircle
 10
1300.261513947
 20
1233.1595370311
 30
0.0
 40
3.5
  0
CIRCLE
  5
27E
330
1F
100
AcDbEntity
  8
0
  6
Continuous
 62
     7
370
    35
100
AcDbCircle
 10
600.261513947
 20
1233.1595370311
 30
0.0
 40
3.499999999999886
  0
CIRCLE
  5
27F
330
1F
100
AcDbEntity
  8
0
  6
Continuous
 62
     7
370
    35
100
AcDbCircle
 10
630.261513947
 20
1233.1595370311
 30
0.0
 40
3.499999999999886
  0
LINE
  5
280
330
1F
100
AcDbEntity
  8
0
  6
Continuous
 62
     7
370
    35
100
AcDbLine
 10
1438.6200925907
 20
1245.6595370311
 30
0.0
 11
1438.6200925907
 21
1203.1595370311
 31
0.0
  0
SPLINE
  5
281
330
1F
100
AcDbEntity
  8
0
  6
Continuous
 62
     7
370
    35
100
AcDbSpline
210
0.0
220
0.0
230
1.0
 70
     8
 71
     3
 72
    22
 73
    18
 74
     0
 42
0.00000001
 43
0.00000001
 40
0.0
 40
0.0
 40
0.0
 40
0.0
 40
0.125
 40
0.125
 40
0.25
 40
0.25
 40
0.375
 40
0.375
 40
0.5
 40
0.5
 40
0.625
 40
0.625
 40
0.75
 40
0.75
 40
0.875
 40
0.875
 40
1.0
 40
1.0
 40
1.0
 40
1.0
 10
1437.261513946969
 20
1248.659537031121
 30
0.0
 10
1437.318619713699
 20
1248.659537031121
 30
0.0
 10
1437.374816792171
 20
1248.640093333956
 30
0.0
 10
1437.487424664315
 20
1248.563984147206
 30
0.0
 10
1437.544357953238
 20
1248.506564428866
 30
0.0
 10
1437.657889153551
 20
1248.355879885369
 30
0.0
 10
1437.713969629346
 20
1248.263698273634
 30
0.0
 10
1437.826752345941
 20
1248.046581663524
 30
0.0
 10
1437.884027783746
 20
1247.920068493198
 30
0.0
 10
1437.997067827117
 20
1247.642899212072
 30
0.0
 10
1438.053116393988
 20
1247.491995578965
 30
0.0
 10
1438.166252010554
 20
1247.165928245461
 30
0.0
 10
1438.223481018603
 20
1246.990089955937
 30
0.0
 10
1438.336211060255
 20
1246.628941758274
 30
0.0
 10
1438.392311431716
 20
1246.441940626472
 30
0.0
 10
1438.505982582463
 20
1246.055316370138
 30
0.0
 10
1438.562986821291
 20
1245.857615073833
 30
0.0
 10
1438.620092590731
 20
1245.659537031121
 30
0.0
  0
LINE
  5
282
330
1F
100
AcDbEntity
  8
0
  6
Continuous
 62
     7
370
    35
100
AcDbLine
 10
-206.738486053
 20
1248.6595370311
 30
0.0
 11
1437.261513947
 21
1248.6595370311
 31
0.0
  0
SPLINE
  5
283
330
1F
100
AcDbEntity
  8
0
  6
Continuous
 62
     7
370
    35
100
AcDbSpline
210
0.0
220
0.0
230
1.0
 70
     8
 71
     3
 72
    22
 73
    18
 74
     0
 42
0.00000001
 43
0.00000001
 40
0.0
 40
0.0
 40
0.0
 40
0.0
 40
0.1250000000000001
 40
0.1250000000000001
 40
0.2500000000000003
 40
0.2500000000000003
 40
0.3750000000000003
 40
0.3750000000000003
 40
0.5000000000000003
 40
0.5000000000000003
 40
0.6250000000000002
 40
0.6250000000000002
 40
0.7500000000000001
 40
0.7500000000000001
 40
0.8750000000000001
 40
0.8750000000000001
 40
1.0
 40
1.0
 40
1.0
 40
1.0
 10
-208.0970646967947
 20
1245.659537031121
 30
0.0
 10
-208.0399589300639
 20
1245.857615064436
 30
0.0
 10
-207.9837618515928
 20
1246.05251116523
 30
0.0
 10
-207.8711539794485
 20
1246.435637214285
 30
0.0
 10
-207.8142206905247
 20
1246.625561804263
 30
0.0
 10
-207.7006894902126
 20
1246.989388180001
 30
0.0
 10
-207.6446090144174
 20
1247.161737874256
 30
0.0
 10
-207.5318262978232
 20
1247.487180615915
 30
0.0
 10
-207.4745508600172
 20
1247.641564179923
 30
0.0
 10
-207.3615108166463
 20
1247.918897243394
 30
0.0
 10
-207.3054622497749
 20
1248.042937678833
 30
0.0
 10
-207.1923266332094
 20
1248.261322665342
 30
0.0
 10
-207.1350976251601
 20
1248.35543251289
 30
0.0
 10
-207.022367583508
 20
1248.505319526206
 30
0.0
 10
-206.9662672120476
 20
1248.562417136405
 30
0.0
 10
-206.8525960613006
 20
1248.639843560067
 30
0.0
 10
-206.7955918224723
 20
1248.659537031121
 30
0.0
 10
-206.7384860530318
 20
1248.659537031121
 30
0.0
  0
SPLINE
  5
284
330
1F
100
AcDbEntity
  8
0
  6
Continuous
 62
     7
370
    35
100
AcDbSpline
210
0.0
220
0.0
230
1.0
 70
     8
 71
     3
 72
    22
 73
    18
 74
     0
 42
0.00000001
 43
0.00000001
 40
0.0
 40
0.0
 40
0.0
 40
0.0
 40
0.125
 40
0.125
 40
0.25
 40
0.25
 40
0.375
 40
0.375
 40
0.5
 40
0.5
 40
0.625
 40
0.625
 40
0.75
 40
0.75
 40
0.875
 40
0.875
 40
1.0
 40
1.0
 40
1.0
 40
1.0
 10
-206.7384860530318
 20
1248.659537031121
 30
0.0
 10
-206.9365640863459
 20
1248.659537031121
 30
0.0
 10
-207.1314601871404
 20
1248.640093333956
 30
0.0
 10
-207.5145862361957
 20
1248.563984147206
 30
0.0
 10
-207.7045108261738
 20
1248.506564428866
 30
0.0
 10
-208.068337201912
 20
1248.35587988537
 30
0.0
 10
-208.240686896166
 20
1248.263698273635
 30
0.0
 10
-208.5661296378253
 20
1248.046581663524
 30
0.0
 10
-208.7205132018336
 20
1247.920068493198
 30
0.0
 10
-208.9978462653043
 20
1247.642899212072
 30
0.0
 10
-209.1218867007435
 20
1247.491995578965
 30
0.0
 10
-209.3402716872525
 20
1247.165928245461
 30
0.0
 10
-209.4343815348011
 20
1246.990089955937
 30
0.0
 10
-209.5842685481173
 20
1246.628941758274
 30
0.0
 10
-209.6413661583149
 20
1246.441940626472
 30
0.0
 10
-209.7187925819772
 20
1246.055316370138
 30
0.0
 10
-209.7384860530319
 20
1245.857615073833
 30
0.0
 10
-209.7384860530317
 20
1245.659537031121
 30
0.0
  0
SPLINE
  5
285
330
1F
100
AcDbEntity
  8
0
  6
Continuous
 62
     7
370
    35
100
AcDbSpline
210
0.0
220
0.0
230
1.0
 70
     8
 71
     3
 72
    10
 73
     6
 74
     0
 42
0.00000001
 43
0.00000001
 40
0.0
 40
0.0
 40
0.0
 40
0.0
 40
0.0728086013511517
 40
0.5631498354601652
 40
1.0
 40
1.0
 40
1.0
 40
1.0
 10
-207.7801336566799
 20
1246.71890593146
 30
0.0
 10
-207.8036320930902
 20
1246.702229369749
 30
0.0
 10
-207.9853845282759
 20
1246.573241821449
 30
0.0
 10
-208.1767400289434
 20
1246.19262954209
 30
0.0
 10
-208.2187111711582
 20
1245.830266103766
 30
0.0
 10
-208.2384860530317
 20
1245.659537031121
 30
0.0
  0
LINE
  5
286
330
1F
100
AcDbEntity
  8
0
  6
Continuous
 62
     7
370
    35
100
AcDbLine
 10
-209.738486053
 20
1245.6595370311
 30
0.0
 11
-208.238486053
 21
1245.6595370311
 31
0.0
  0
LINE
  5
287
330
1F
100
AcDbEntity
  8
0
  6
Continuous
 62
     7
370
    35
100
AcDbLine
 10
1440.261513947
 20
1245.6595370311
 30
0.0
 11
1438.761513947
 21
1245.6595370311
 31
0.0
  0
SPLINE
  5
288
330
1F
100
AcDbEntity
  8
0
  6
Continuous
 62
     7
370
    35
100
AcDbSpline
210
0.0
220
0.0
230
1.0
 70
     8
 71
     3
 72
     9
 73
     5
 74
     0
 42
0.00000001
 43
0.00000001
 40
0.0
 40
0.0
 40
0.0
 40
0.0
 40
0.5602671099280708
 40
0.9999999999999999
 40
0.9999999999999999
 40
0.9999999999999999
 40
0.9999999999999999
 10
1438.761513946968
 20
1245.659537031121
 30
0.0
 10
1438.73625690255
 20
1245.884943523268
 30
0.0
 10
1438.691176540041
 20
1246.28726321713
 30
0.0
 10
1438.424166088364
 20
1246.58797173888
 30
0.0
 10
1438.306752810769
 20
1246.720203166218
 30
0.0
  0
SPLINE
  5
289
330
1F
100
AcDbEntity
  8
0
  6
Continuous
 62
     7
370
    35
100
AcDbSpline
210
0.0
220
0.0
230
1.0
 70
     8
 71
     3
 72
    22
 73
    18
 74
     0
 42
0.00000001
 43
0.00000001
 40
0.0
 40
0.0
 40
0.0
 40
0.0
 40
0.125
 40
0.125
 40
0.25
 40
0.25
 40
0.375
 40
0.375
 40
0.5
 40
0.5
 40
0.625
 40
0.625
 40
0.75
 40
0.75
 40
0.875
 40
0.875
 40
1.0
 40
1.0
 40
1.0
 40
1.0
 10
1440.261513946968
 20
1245.659537031121
 30
0.0
 10
1440.261513946968
 20
1245.857615064436
 30
0.0
 10
1440.242070249803
 20
1246.05251116523
 30
0.0
 10
1440.165961063054
 20
1246.435637214285
 30
0.0
 10
1440.108541344713
 20
1246.625561804263
 30
0.0
 10
1439.957856801217
 20
1246.989388180001
 30
0.0
 10
1439.865675189482
 20
1247.161737874256
 30
0.0
 10
1439.648558579372
 20
1247.487180615915
 30
0.0
 10
1439.522045409045
 20
1247.641564179923
 30
0.0
 10
1439.244876127919
 20
1247.918897243394
 30
0.0
 10
1439.093972494812
 20
1248.042937678833
 30
0.0
 10
1438.767905161308
 20
1248.261322665342
 30
0.0
 10
1438.592066871784
 20
1248.35543251289
 30
0.0
 10
1438.230918674122
 20
1248.505319526206
 30
0.0
 10
1438.043917542319
 20
1248.562417136405
 30
0.0
 10
1437.657293285985
 20
1248.639843560067
 30
0.0
 10
1437.459591989681
 20
1248.659537031121
 30
0.0
 10
1437.261513946969
 20
1248.659537031121
 30
0.0
  0
LINE
  5
28A
330
1F
100
AcDbEntity
  8
0
  6
Continuous
 62
     7
370
    35
100
AcDbLine
 10
-209.738486053
 20
1204.6595370311
 30
0.0
 11
-208.238486053
 21
1204.6595370311
 31
0.0
  0
LINE
  5
28B
330
1F
100
AcDbEntity
  8
0
  6
Continuous
 62
     7
370
    35
100
AcDbLine
 10
-208.238486053
 20
1204.6595370311
 30
0.0
 11
-208.238486053
 21
1201.6595370311
 31
0.0
  0
LINE
  5
28C
330
1F
100
AcDbEntity
  8
0
  6
Continuous
 62
     7
370
    35
100
AcDbLine
 10
-208.238486053
 20
1201.6595370311
 30
0.0
 11
-209.738486053
 21
1201.6595370311
 31
0.0
  0
LINE
  5
28D
330
1F
100
AcDbEntity
  8
0
  6
Continuous
 62
     7
370
    35
100
AcDbLine
 10
-209.738486053
 20
1201.6595370311
 30
0.0
 11
-209.738486053
 21
1204.6595370311
 31
0.0
  0
LINE
  5
28E
330
1F
100
AcDbEntity
  8
0
  6
Continuous
 62
     7
370
    35
100
AcDbLine
 10
-208.238486053
 20
1245.6595370311
 30
0.0
 11
-208.238486053
 21
1204.6595370311
 31
0.0
  0
LINE
  5
28F
330
1F
100
AcDbEntity
  8
0
  6
Continuous
 62
     7
370
    35
100
AcDbLine
 10
-209.738486053
 20
1245.6595370311
 30
0.0
 11
-209.738486053
 21
1204.6595370311
 31
0.0
  0
LINE
  5
290
330
1F
100
AcDbEntity
  8
0
  6
Continuous
 62
     7
370
    35
100
AcDbLine
 10
1440.261513947
 20
1245.6595370311
 30
0.0
 11
1440.261513947
 21
1204.6595370311
 31
0.0
  0
LINE
  5
291
330
1F
100
AcDbEntity
  8
0
  6
Continuous
 62
     7
370
    35
100
AcDbLine
 10
1438.761513947
 20
1204.6595370311
 30
0.0
 11
1440.261513947
 21
1204.6595370311
 31
0.0
  0
LINE
  5
292
330
1F
100
AcDbEntity
  8
0
  6
Continuous
 62
     7
370
    35
100
AcDbLine
 10
1438.761513947
 20
1245.6595370311
 30
0.0
 11
1438.761513947
 21
1204.6595370311
 31
0.0
  0
LINE
  5
293
330
1F
100
AcDbEntity
  8
0
  6
Continuous
 62
     7
370
    35
100
AcDbLine
 10
1440.261513947
 20
1201.6595370311
 30
0.0
 11
1438.761513947
 21
1201.6595370311
 31
0.0
  0
LINE
  5
294
330
1F
100
AcDbEntity
  8
0
  6
Continuous
 62
     7
370
    35
100
AcDbLine
 10
1438.761513947
 20
1201.6595370311
 30
0.0
 11
1438.761513947
 21
1204.6595370311
 31
0.0
  0
LINE
  5
295
330
1F
100
AcDbEntity
  8
0
  6
Continuous
 62
     7
370
    35
100
AcDbLine
 10
1440.261513947
 20
1204.6595370311
 30
0.0
 11
1440.261513947
 21
1201.6595370311
 31
0.0
  0
ARC
  5
296
330
1F
100
AcDbEntity
  8
0
  6
Continuous
 62
     7
370
    35
100
AcDbCircle
 10
-206.738486053
 20
1203.1595370311
 30
0.0
 40
3.000000000000114
100
AcDbArc
 50
210.0
 51
243.0727018728
  0
ARC
  5
297
330
1F
100
AcDbEntity
  8
0
  6
Continuous
 62
     7
370
    35
100
AcDbCircle
 10
-206.738486053
 20
1203.1595370311
 30
0.0
 40
1.499999999999997
100
AcDbArc
 50
180.0
 51
205.07969202
  0
ARC
  5
298
330
1F
100
AcDbEntity
  8
0
  6
Continuous
 62
     7
370
    35
100
AcDbCircle
 10
1437.261513947
 20
1203.1595370311
 30
0.0
 40
2.999999999999966
100
AcDbArc
 50
296.9272981272
 51
330.0
  0
ARC
  5
299
330
1F
100
AcDbEntity
  8
0
  6
Continuous
 62
     7
370
    35
100
AcDbCircle
 10
1437.261513947
 20
1203.1595370311
 30
0.0
 40
1.5
100
AcDbArc
 50
334.92030798
 51
0.0
  0
LINE
  5
29A
330
1F
100
AcDbEntity
  8
0
  6
Continuous
 62
     7
370
    35
100
AcDbLine
 10
1438.6200925907
 20
2127.0584139459
 30
0.0
 11
-208.0970646968
 21
2127.0584139459
 31
0.0
  0
LINE
  5
29B
330
1F
100
AcDbEntity
  8
0
  6
Continuous
 62
     7
370
    35
100
AcDbLine
 10
-208.0970646968
 20
2127.0584139459
 30
0.0
 11
-208.0970646968
 21
2169.5584139459
 31
0.0
  0
LINE
  5
29C
330
1F
100
AcDbEntity
  8
0
  6
Continuous
 62
     7
370
    35
100
AcDbLine
 10
1438.6200925907
 20
2169.5584139459
 30
0.0
 11
-208.0970646968
 21
2169.5584139459
 31
0.0
  0
LINE
  5
29D
330
1F
100
AcDbEntity
  8
0
  6
Continuous
 62
     7
370
    35
100
AcDbLine
 10
1438.6200925907
 20
2127.0584139459
 30
0.0
 11
1438.6200925907
 21
2169.5584139459
 31
0.0
  0
LINE
  5
29E
330
1F
100
AcDbEntity
  8
0
  6
Continuous
 62
     7
370
    35
100
AcDbLine
 10
-208.0970646968
 20
2169.5584139459
 30
0.0
 11
-208.0970646968
 21
2172.5584139459
 31
0.0
  0
LINE
  5
29F
330
1F
100
AcDbEntity
  8
0
  6
Continuous
 62
     7
370
    35
100
AcDbLine
 10
1438.6200925907
 20
2172.5584139459
 30
0.0
 11
-208.0970646968
 21
2172.5584139459
 31
0.0
  0
LINE
  5
2A0
330
1F
100
AcDbEntity
  8
0
  6
Continuous
 62
     7
370
    35
100
AcDbLine
 10
1438.6200925907
 20
2172.5584139459
 30
0.0
 11
1438.6200925907
 21
2169.5584139459
 31
0.0
  0
SPLINE
  5
2A1
330
1F
100
AcDbEntity
  8
0
  6
Continuous
 62
     7
370
    35
100
AcDbSpline
210
0.0
220
0.0
230
1.0
 70
     8
 71
     3
 72
    22
 73
    18
 74
     0
 42
0.00000001
 43
0.00000001
 40
0.0
 40
0.0
 40
0.0
 40
0.0
 40
0.1250000000000001
 40
0.1250000000000001
 40
0.2500000000000001
 40
0.2500000000000001
 40
0.3750000000000001
 40
0.3750000000000001
 40
0.5000000000000001
 40
0.5000000000000001
 40
0.6250000000000001
 40
0.6250000000000001
 40
0.7500000000000002
 40
0.7500000000000002
 40
0.8750000000000001
 40
0.8750000000000001
 40
1.0
 40
1.0
 40
1.0
 40
1.0
 10
-206.738486053032
 20
2124.058413945929
 30
0.0
 10
-206.7955918197629
 20
2124.058413945929
 30
0.0
 10
-206.851788898234
 20
2124.077857643094
 30
0.0
 10
-206.964396770378
 20
2124.153966829844
 30
0.0
 10
-207.0213300593019
 20
2124.211386548184
 30
0.0
 10
-207.1348612596143
 20
2124.362071091681
 30
0.0
 10
-207.1909417354095
 20
2124.454252703415
 30
0.0
 10
-207.303724452004
 20
2124.671369313526
 30
0.0
 10
-207.3609998898096
 20
2124.797882483853
 30
0.0
 10
-207.47403993318
 20
2125.075051764979
 30
0.0
 10
-207.5300885000518
 20
2125.225955398085
 30
0.0
 10
-207.6432241166177
 20
2125.552022731589
 30
0.0
 10
-207.7004531246666
 20
2125.727861021113
 30
0.0
 10
-207.813183166319
 20
2126.089009218776
 30
0.0
 10
-207.8692835377794
 20
2126.276010350578
 30
0.0
 10
-207.9829546885267
 20
2126.662634606912
 30
0.0
 10
-208.0399589273548
 20
2126.860335903217
 30
0.0
 10
-208.0970646967949
 20
2127.058413945929
 30
0.0
  0
SPLINE
  5
2A2
330
1F
100
AcDbEntity
  8
0
  6
Continuous
 62
     7
370
    35
100
AcDbSpline
210
0.0
220
0.0
230
1.0
 70
     8
 71
     3
 72
    22
 73
    18
 74
     0
 42
0.00000001
 43
0.00000001
 40
0.0
 40
0.0
 40
0.0
 40
0.0
 40
0.1250000000000001
 40
0.1250000000000001
 40
0.2500000000000003
 40
0.2500000000000003
 40
0.3750000000000003
 40
0.3750000000000003
 40
0.5000000000000003
 40
0.5000000000000003
 40
0.6250000000000002
 40
0.6250000000000002
 40
0.7500000000000001
 40
0.7500000000000001
 40
0.8750000000000001
 40
0.8750000000000001
 40
1.0
 40
1.0
 40
1.0
 40
1.0
 10
1438.620092590731
 20
2127.058413945929
 30
0.0
 10
1438.562986824001
 20
2126.860335912615
 30
0.0
 10
1438.506789745529
 20
2126.66543981182
 30
0.0
 10
1438.394181873384
 20
2126.282313762765
 30
0.0
 10
1438.337248584461
 20
2126.092389172787
 30
0.0
 10
1438.223717384149
 20
2125.728562797049
 30
0.0
 10
1438.167636908354
 20
2125.556213102795
 30
0.0
 10
1438.054854191759
 20
2125.230770361135
 30
0.0
 10
1437.997578753954
 20
2125.076386797127
 30
0.0
 10
1437.884538710583
 20
2124.799053733656
 30
0.0
 10
1437.828490143711
 20
2124.675013298217
 30
0.0
 10
1437.715354527146
 20
2124.456628311708
 30
0.0
 10
1437.658125519097
 20
2124.36251846416
 30
0.0
 10
1437.545395477444
 20
2124.212631450844
 30
0.0
 10
1437.489295105984
 20
2124.155533840646
 30
0.0
 10
1437.375623955237
 20
2124.078107416984
 30
0.0
 10
1437.318619716409
 20
2124.058413945929
 30
0.0
 10
1437.261513946968
 20
2124.058413945929
 30
0.0
  0
LINE
  5
2A3
330
1F
100
AcDbEntity
  8
0
  6
Continuous
 62
     7
370
    35
100
AcDbLine
 10
1437.261513947
 20
2124.0584139459
 30
0.0
 11
-206.738486053
 21
2124.0584139459
 31
0.0
  0
SPLINE
  5
2A4
330
1F
100
AcDbEntity
  8
0
  6
Continuous
 62
     7
370
    35
100
AcDbSpline
210
0.0
220
0.0
230
1.0
 70
     8
 71
     3
 72
    10
 73
     6
 74
     0
 42
0.00000001
 43
0.00000001
 40
0.0
 40
0.0
 40
0.0
 40
0.0
 40
0.0728086013501991
 40
0.5631498354599146
 40
1.0
 40
1.0
 40
1.0
 40
1.0
 10
1438.303161550617
 20
2125.999045045591
 30
0.0
 10
1438.326659987027
 20
2126.015721607301
 30
0.0
 10
1438.508412422212
 20
2126.144709155602
 30
0.0
 10
1438.69976792288
 20
2126.52532143496
 30
0.0
 10
1438.741739065095
 20
2126.887684873284
 30
0.0
 10
1438.761513946968
 20
2127.058413945929
 30
0.0
  0
LINE
  5
2A5
330
1F
100
AcDbEntity
  8
0
  6
Continuous
 62
     7
370
    35
100
AcDbLine
 10
1440.261513947
 20
2127.0584139459
 30
0.0
 11
1438.761513947
 21
2127.0584139459
 31
0.0
  0
SPLINE
  5
2A6
330
1F
100
AcDbEntity
  8
0
  6
Continuous
 62
     7
370
    35
100
AcDbSpline
210
0.0
220
0.0
230
1.0
 70
     8
 71
     3
 72
    22
 73
    18
 74
     0
 42
0.00000001
 43
0.00000001
 40
0.0
 40
0.0
 40
0.0
 40
0.0
 40
0.1250000000000001
 40
0.1250000000000001
 40
0.2500000000000001
 40
0.2500000000000001
 40
0.3750000000000002
 40
0.3750000000000002
 40
0.5000000000000002
 40
0.5000000000000002
 40
0.6250000000000002
 40
0.6250000000000002
 40
0.7500000000000003
 40
0.7500000000000003
 40
0.8750000000000001
 40
0.8750000000000001
 40
1.0
 40
1.0
 40
1.0
 40
1.0
 10
1437.261513946968
 20
2124.058413945929
 30
0.0
 10
1437.459591980283
 20
2124.058413945929
 30
0.0
 10
1437.654488081077
 20
2124.077857643094
 30
0.0
 10
1438.037614130132
 20
2124.153966829843
 30
0.0
 10
1438.22753872011
 20
2124.211386548184
 30
0.0
 10
1438.591365095849
 20
2124.362071091681
 30
0.0
 10
1438.763714790103
 20
2124.454252703415
 30
0.0
 10
1439.089157531762
 20
2124.671369313526
 30
0.0
 10
1439.24354109577
 20
2124.797882483853
 30
0.0
 10
1439.520874159241
 20
2125.075051764979
 30
0.0
 10
1439.64491459468
 20
2125.225955398085
 30
0.0
 10
1439.863299581189
 20
2125.552022731589
 30
0.0
 10
1439.957409428737
 20
2125.727861021113
 30
0.0
 10
1440.107296442053
 20
2126.089009218776
 30
0.0
 10
1440.164394052251
 20
2126.276010350578
 30
0.0
 10
1440.241820475913
 20
2126.662634606912
 30
0.0
 10
1440.261513946968
 20
2126.860335903217
 30
0.0
 10
1440.261513946968
 20
2127.058413945929
 30
0.0
  0
LINE
  5
2A7
330
1F
100
AcDbEntity
  8
0
  6
Continuous
 62
     7
370
    35
100
AcDbLine
 10
-209.738486053
 20
2127.0584139459
 30
0.0
 11
-208.238486053
 21
2127.0584139459
 31
0.0
  0
SPLINE
  5
2A8
330
1F
100
AcDbEntity
  8
0
  6
Continuous
 62
     7
370
    35
100
AcDbSpline
210
0.0
220
0.0
230
1.0
 70
     8
 71
     3
 72
     9
 73
     5
 74
     0
 42
0.00000001
 43
0.00000001
 40
0.0
 40
0.0
 40
0.0
 40
0.0
 40
0.560267109928972
 40
1.0
 40
1.0
 40
1.0
 40
1.0
 10
-208.2384860530319
 20
2127.058413945929
 30
0.0
 10
-208.2132290086141
 20
2126.833007453782
 30
0.0
 10
-208.1681486461047
 20
2126.430687759921
 30
0.0
 10
-207.9011381944286
 20
2126.129979238171
 30
0.0
 10
-207.7837249168338
 20
2125.997747810833
 30
0.0
  0
SPLINE
  5
2A9
330
1F
100
AcDbEntity
  8
0
  6
Continuous
 62
     7
370
    35
100
AcDbSpline
210
0.0
220
0.0
230
1.0
 70
     8
 71
     3
 72
    22
 73
    18
 74
     0
 42
0.00000001
 43
0.00000001
 40
0.0
 40
0.0
 40
0.0
 40
0.0
 40
0.125
 40
0.125
 40
0.25
 40
0.25
 40
0.375
 40
0.375
 40
0.5
 40
0.5
 40
0.625
 40
0.625
 40
0.75
 40
0.75
 40
0.875
 40
0.875
 40
1.0
 40
1.0
 40
1.0
 40
1.0
 10
-209.7384860530318
 20
2127.058413945929
 30
0.0
 10
-209.738486053032
 20
2126.860335912615
 30
0.0
 10
-209.7190423558663
 20
2126.66543981182
 30
0.0
 10
-209.6429331691172
 20
2126.282313762765
 30
0.0
 10
-209.5855134507766
 20
2126.092389172787
 30
0.0
 10
-209.43482890728
 20
2125.728562797049
 30
0.0
 10
-209.3426472955451
 20
2125.556213102795
 30
0.0
 10
-209.1255306854347
 20
2125.230770361135
 30
0.0
 10
-208.9990175151082
 20
2125.076386797127
 30
0.0
 10
-208.7218482339823
 20
2124.799053733656
 30
0.0
 10
-208.5709446008754
 20
2124.675013298217
 30
0.0
 10
-208.2448772673715
 20
2124.456628311708
 30
0.0
 10
-208.0690389778479
 20
2124.36251846416
 30
0.0
 10
-207.7078907801844
 20
2124.212631450844
 30
0.0
 10
-207.5208896483829
 20
2124.155533840646
 30
0.0
 10
-207.1342653920486
 20
2124.078107416984
 30
0.0
 10
-206.9365640957442
 20
2124.058413945929
 30
0.0
 10
-206.7384860530319
 20
2124.058413945929
 30
0.0
  0
LINE
  5
2AA
330
1F
100
AcDbEntity
  8
0
  6
Continuous
 62
     7
370
    35
100
AcDbLine
 10
1438.761513947
 20
2127.0584139459
 30
0.0
 11
1438.761513947
 21
2168.0584139459
 31
0.0
  0
LINE
  5
2AB
330
1F
100
AcDbEntity
  8
0
  6
Continuous
 62
     7
370
    35
100
AcDbLine
 10
1440.261513947
 20
2168.0584139459
 30
0.0
 11
1438.761513947
 21
2168.0584139459
 31
0.0
  0
LINE
  5
2AC
330
1F
100
AcDbEntity
  8
0
  6
Continuous
 62
     7
370
    35
100
AcDbLine
 10
1440.261513947
 20
2127.0584139459
 30
0.0
 11
1440.261513947
 21
2168.0584139459
 31
0.0
  0
LINE
  5
2AD
330
1F
100
AcDbEntity
  8
0
  6
Continuous
 62
     7
370
    35
100
AcDbLine
 10
-208.238486053
 20
2168.0584139459
 30
0.0
 11
-209.738486053
 21
2168.0584139459
 31
0.0
  0
LINE
  5
2AE
330
1F
100
AcDbEntity
  8
0
  6
Continuous
 62
     7
370
    35
100
AcDbLine
 10
-208.238486053
 20
2127.0584139459
 30
0.0
 11
-208.238486053
 21
2168.0584139459
 31
0.0
  0
LINE
  5
2AF
330
1F
100
AcDbEntity
  8
0
  6
Continuous
 62
     7
370
    35
100
AcDbLine
 10
-209.738486053
 20
2127.0584139459
 30
0.0
 11
-209.738486053
 21
2168.0584139459
 31
0.0
  0
LINE
  5
2B0
330
1F
100
AcDbEntity
  8
0
  6
Continuous
 62
     7
370
    35
100
AcDbLine
 10
1438.761513947
 20
2171.0584139459
 30
0.0
 11
1440.261513947
 21
2171.0584139459
 31
0.0
  0
LINE
  5
2B1
330
1F
100
AcDbEntity
  8
0
  6
Continuous
 62
     7
370
    35
100
AcDbLine
 10
1438.761513947
 20
2168.0584139459
 30
0.0
 11
1438.761513947
 21
2171.0584139459
 31
0.0
  0
LINE
  5
2B2
330
1F
100
AcDbEntity
  8
0
  6
Continuous
 62
     7
370
    35
100
AcDbLine
 10
1440.261513947
 20
2171.0584139459
 30
0.0
 11
1440.261513947
 21
2168.0584139459
 31
0.0
  0
LINE
  5
2B3
330
1F
100
AcDbEntity
  8
0
  6
Continuous
 62
     7
370
    35
100
AcDbLine
 10
-209.738486053
 20
2171.0584139459
 30
0.0
 11
-208.238486053
 21
2171.0584139459
 31
0.0
  0
LINE
  5
2B4
330
1F
100
AcDbEntity
  8
0
  6
Continuous
 62
     7
370
    35
100
AcDbLine
 10
-208.238486053
 20
2171.0584139459
 30
0.0
 11
-208.238486053
 21
2168.0584139459
 31
0.0
  0
LINE
  5
2B5
330
1F
100
AcDbEntity
  8
0
  6
Continuous
 62
     7
370
    35
100
AcDbLine
 10
-209.738486053
 20
2168.0584139459
 30
0.0
 11
-209.738486053
 21
2171.0584139459
 31
0.0
  0
ARC
  5
2B6
330
1F
100
AcDbEntity
  8
0
  6
Continuous
 62
     7
370
    35
100
AcDbCircle
 10
-206.738486053
 20
2169.5584139459
 30
0.0
 40
3.000000000000144
100
AcDbArc
 50
116.9272981272
 51
150.0
  0
ARC
  5
2B7
330
1F
100
AcDbEntity
  8
0
  6
Continuous
 62
     7
370
    35
100
AcDbCircle
 10
-206.738486053
 20
2169.5584139459
 30
0.0
 40
1.50000000000019
100
AcDbArc
 50
154.92030798
 51
180.0
  0
ARC
  5
2B8
330
1F
100
AcDbEntity
  8
0
  6
Continuous
 62
     7
370
    35
100
AcDbCircle
 10
1437.261513947
 20
2169.5584139459
 30
0.0
 40
3.000000000000016
100
AcDbArc
 50
30.0
 51
63.0727018728
  0
ARC
  5
2B9
330
1F
100
AcDbEntity
  8
0
  6
Continuous
 62
     7
370
    35
100
AcDbCircle
 10
1437.261513947
 20
2169.5584139459
 30
0.0
 40
1.499999999999842
100
AcDbArc
 50
0.0
 51
25.07969202
  0
ENDSEC
  0
SECTION
  2
OBJECTS
  0
DICTIONARY
  5
C
330
0
100
AcDbDictionary
281
     1
  3
ACAD_GROUP
350
D
  3
ACAD_LAYOUT
350
1A
  3
ACAD_MLINESTYLE
350
17
  3
ACAD_PLOTSETTINGS
350
19
  3
ACAD_PLOTSTYLENAME
350
E
  3
ACAD_SCALELIST
350
47
  3
DWGPROPS
350
2BA
  0
DICTIONARY
  5
D
102
{ACAD_REACTORS
330
C
102
}
330
C
100
AcDbDictionary
281
     1
  0
DICTIONARY
  5
1A
102
{ACAD_REACTORS
330
C
102
}
330
C
100
AcDbDictionary
281
     1
  3
Layout1
350
1E
  3
Layout2
350
26
  3
Model
350
22
  0
DICTIONARY
  5
17
102
{ACAD_REACTORS
330
C
102
}
330
C
100
AcDbDictionary
281
     1
  3
Standard
350
18
  0
DICTIONARY
  5
19
102
{ACAD_REACTORS
330
C
102
}
330
C
100
AcDbDictionary
281
     1
  0
ACDBDICTIONARYWDFLT
  5
E
102
{ACAD_REACTORS
330
C
102
}
330
C
100
AcDbDictionary
281
     1
  3
Normal
350
F
100
AcDbDictionaryWithDefault
340
F
  0
DICTIONARY
  5
47
102
{ACAD_REACTORS
330
C
102
}
330
C
100
AcDbDictionary
281
     1
  3
A0
350
48
  3
A1
350
49
  3
A2
350
4A
  3
A3
350
4B
  3
A4
350
4C
  3
A5
350
4D
  3
A6
350
4E
  3
A7
350
4F
  3
A8
350
50
  3
A9
350
51
  3
B0
350
52
  3
B1
350
53
  3
B2
350
54
  3
B3
350
55
  3
B4
350
56
  3
B5
350
57
  3
B6
350
58
  3
B7
350
59
  3
B8
350
5A
  3
B9
350
5B
  3
C0
350
5C
  3
C1
350
5D
  3
C2
350
5E
  3
C3
350
5F
  3
C4
350
60
  3
C5
350
61
  3
C6
350
62
  3
C7
350
63
  3
C8
350
64
  3
C9
350
65
  3
D0
350
66
  3
D1
350
67
  3
D2
350
68
  0
XRECORD
  5
2BA
102
{ACAD_REACTORS
330
C
102
}
330
C
100
AcDbXrecord
280
     1
  1
DWGPROPS COOKIE
  2

  3

  4

  6

  7

  8
K8
  9

300
=
301
=
302
=
303
=
304
=
305
=
306
=
307
=
308
=
309
=
 40
0.0
 41
2459424.492587211
 42
2459424.492588982
  1

 90
        0
  0
LAYOUT
  5
1E
102
{ACAD_REACTORS
330
1A
102
}
330
1A
100
AcDbPlotSettings
  1

  2
none_device
  4

  6

 40
0.0
 41
0.0
 42
0.0
 43
0.0
 44
0.0
 45
0.0
 46
0.0
 47
0.0
 48
0.0
 49
0.0
140
0.0
141
0.0
142
1.0
143
1.0
 70
   688
 72
     1
 73
     0
 74
     5
  7

 75
    16
147
1.0
148
0.0
149
0.0
100
AcDbLayout
  1
Layout1
 70
     1
 71
     1
 10
0.0
 20
0.0
 11
420.0
 21
297.0
 12
0.0
 22
0.0
 32
0.0
 14
1.0000000000E+20
 24
1.0000000000E+20
 34
1.0000000000E+20
 15
-1.0000000000E+20
 25
-1.0000000000E+20
 35
-1.0000000000E+20
146
0.0
 13
0.0
 23
0.0
 33
0.0
 16
1.0
 26
0.0
 36
0.0
 17
0.0
 27
1.0
 37
0.0
 76
     0
330
1B
  0
LAYOUT
  5
26
102
{ACAD_REACTORS
330
1A
102
}
330
1A
100
AcDbPlotSettings
  1

  2
none_device
  4

  6

 40
0.0
 41
0.0
 42
0.0
 43
0.0
 44
0.0
 45
0.0
 46
0.0
 47
0.0
 48
0.0
 49
0.0
140
0.0
141
0.0
142
1.0
143
1.0
 70
   688
 72
     1
 73
     0
 74
     5
  7

 75
    16
147
1.0
148
0.0
149
0.0
100
AcDbLayout
  1
Layout2
 70
     1
 71
     2
 10
0.0
 20
0.0
 11
0.0
 21
0.0
 12
0.0
 22
0.0
 32
0.0
 14
0.0
 24
0.0
 34
0.0
 15
0.0
 25
0.0
 35
0.0
146
0.0
 13
0.0
 23
0.0
 33
0.0
 16
1.0
 26
0.0
 36
0.0
 17
0.0
 27
1.0
 37
0.0
 76
     0
330
23
  0
LAYOUT
  5
22
102
{ACAD_REACTORS
330
1A
102
}
330
1A
100
AcDbPlotSettings
  1

  2
none_device
  4
Letter_(8.50_x_11.00_Inches)
  6

 40
6.35
 41
6.35
 42
6.35000508
 43
6.35000508
 44
215.9
 45
279.4
 46
0.0
 47
0.0
 48
0.0
 49
0.0
140
0.0
141
0.0
142
1.0
143
1.0
 70
  1712
 72
     1
 73
     0
 74
     0
  7

 75
     0
147
1.0
148
0.0
149
0.0
100
AcDbLayout
  1
Model
 70
     1
 71
     0
 10
0.0
 20
0.0
 11
297.0
 21
210.0
 12
0.0
 22
0.0
 32
0.0
 14
0.0
 24
0.0
 34
0.0
 15
297.0
 25
210.0
 35
0.0
146
0.0
 13
0.0
 23
0.0
 33
0.0
 16
1.0
 26
0.0
 36
0.0
 17
0.0
 27
1.0
 37
0.0
 76
     0
330
1F
331
29
  0
MLINESTYLE
  5
18
102
{ACAD_REACTORS
330
17
102
}
330
17
100
AcDbMlineStyle
  2
Standard
 70
     0
  3

 62
   256
 51
90.0
 52
90.0
 71
     2
 49
0.5
 62
   256
  6
BYLAYER
 49
-0.5
 62
   256
  6
BYLAYER
  0
ACDBPLACEHOLDER
  5
F
102
{ACAD_REACTORS
330
E
102
}
330
E
  0
SCALE
  5
48
102
{ACAD_REACTORS
330
47
102
}
330
47
100
AcDbScale
 70
     0
300
1:1
140
1.0
141
1.0
290
     1
  0
SCALE
  5
49
102
{ACAD_REACTORS
330
47
102
}
330
47
100
AcDbScale
 70
     0
300
1:2
140
1.0
141
2.0
290
     0
  0
SCALE
  5
4A
102
{ACAD_REACTORS
330
47
102
}
330
47
100
AcDbScale
 70
     0
300
1:4
140
1.0
141
4.0
290
     0
  0
SCALE
  5
4B
102
{ACAD_REACTORS
330
47
102
}
330
47
100
AcDbScale
 70
     0
300
1:5
140
1.0
141
5.0
290
     0
  0
SCALE
  5
4C
102
{ACAD_REACTORS
330
47
102
}
330
47
100
AcDbScale
 70
     0
300
1:8
140
1.0
141
8.0
290
     0
  0
SCALE
  5
4D
102
{ACAD_REACTORS
330
47
102
}
330
47
100
AcDbScale
 70
     0
300
1:10
140
1.0
141
10.0
290
     0
  0
SCALE
  5
4E
102
{ACAD_REACTORS
330
47
102
}
330
47
100
AcDbScale
 70
     0
300
1:16
140
1.0
141
16.0
290
     0
  0
SCALE
  5
4F
102
{ACAD_REACTORS
330
47
102
}
330
47
100
AcDbScale
 70
     0
300
1:20
140
1.0
141
20.0
290
     0
  0
SCALE
  5
50
102
{ACAD_REACTORS
330
47
102
}
330
47
100
AcDbScale
 70
     0
300
1:30
140
1.0
141
30.0
290
     0
  0
SCALE
  5
51
102
{ACAD_REACTORS
330
47
102
}
330
47
100
AcDbScale
 70
     0
300
1:40
140
1.0
141
40.0
290
     0
  0
SCALE
  5
52
102
{ACAD_REACTORS
330
47
102
}
330
47
100
AcDbScale
 70
     0
300
1:50
140
1.0
141
50.0
290
     0
  0
SCALE
  5
53
102
{ACAD_REACTORS
330
47
102
}
330
47
100
AcDbScale
 70
     0
300
1:100
140
1.0
141
100.0
290
     0
  0
SCALE
  5
54
102
{ACAD_REACTORS
330
47
102
}
330
47
100
AcDbScale
 70
     0
300
2:1
140
2.0
141
1.0
290
     0
  0
SCALE
  5
55
102
{ACAD_REACTORS
330
47
102
}
330
47
100
AcDbScale
 70
     0
300
4:1
140
4.0
141
1.0
290
     0
  0
SCALE
  5
56
102
{ACAD_REACTORS
330
47
102
}
330
47
100
AcDbScale
 70
     0
300
8:1
140
8.0
141
1.0
290
     0
  0
SCALE
  5
57
102
{ACAD_REACTORS
330
47
102
}
330
47
100
AcDbScale
 70
     0
300
10:1
140
10.0
141
1.0
290
     0
  0
SCALE
  5
58
102
{ACAD_REACTORS
330
47
102
}
330
47
100
AcDbScale
 70
     0
300
100:1
140
100.0
141
1.0
290
     0
  0
SCALE
  5
59
102
{ACAD_REACTORS
330
47
102
}
330
47
100
AcDbScale
 70
     0
300
1/128" = 1'-0"
140
0.0078125
141
12.0
290
     0
  0
SCALE
  5
5A
102
{ACAD_REACTORS
330
47
102
}
330
47
100
AcDbScale
 70
     0
300
1/64" = 1'-0"
140
0.015625
141
12.0
290
     0
  0
SCALE
  5
5B
102
{ACAD_REACTORS
330
47
102
}
330
47
100
AcDbScale
 70
     0
300
1/32" = 1'-0"
140
0.03125
141
12.0
290
     0
  0
SCALE
  5
5C
102
{ACAD_REACTORS
330
47
102
}
330
47
100
AcDbScale
 70
     0
300
1/16" = 1'-0"
140
0.0625
141
12.0
290
     0
  0
SCALE
  5
5D
102
{ACAD_REACTORS
330
47
102
}
330
47
100
AcDbScale
 70
     0
300
3/32" = 1'-0"
140
0.09375
141
12.0
290
     0
  0
SCALE
  5
5E
102
{ACAD_REACTORS
330
47
102
}
330
47
100
AcDbScale
 70
     0
300
1/8" = 1'-0"
140
0.125
141
12.0
290
     0
  0
SCALE
  5
5F
102
{ACAD_REACTORS
330
47
102
}
330
47
100
AcDbScale
 70
     0
300
3/16" = 1'-0"
140
0.1875
141
12.0
290
     0
  0
SCALE
  5
60
102
{ACAD_REACTORS
330
47
102
}
330
47
100
AcDbScale
 70
     0
300
1/4" = 1'-0"
140
0.25
141
12.0
290
     0
  0
SCALE
  5
61
102
{ACAD_REACTORS
330
47
102
}
330
47
100
AcDbScale
 70
     0
300
3/8" = 1'-0"
140
0.375
141
12.0
290
     0
  0
SCALE
  5
62
102
{ACAD_REACTORS
330
47
102
}
330
47
100
AcDbScale
 70
     0
300
1/2" = 1'-0"
140
0.5
141
12.0
290
     0
  0
SCALE
  5
63
102
{ACAD_REACTORS
330
47
102
}
330
47
100
AcDbScale
 70
     0
300
3/4" = 1'-0"
140
0.75
141
12.0
290
     0
  0
SCALE
  5
64
102
{ACAD_REACTORS
330
47
102
}
330
47
100
AcDbScale
 70
     0
300
1" = 1'-0"
140
1.0
141
12.0
290
     0
  0
SCALE
  5
65
102
{ACAD_REACTORS
330
47
102
}
330
47
100
AcDbScale
 70
     0
300
1-1/2" = 1'-0"
140
1.5
141
12.0
290
     0
  0
SCALE
  5
66
102
{ACAD_REACTORS
330
47
102
}
330
47
100
AcDbScale
 70
     0
300
3" = 1'-0"
140
3.0
141
12.0
290
     0
  0
SCALE
  5
67
102
{ACAD_REACTORS
330
47
102
}
330
47
100
AcDbScale
 70
     0
300
6" = 1'-0"
140
6.0
141
12.0
290
     0
  0
SCALE
  5
68
102
{ACAD_REACTORS
330
47
102
}
330
47
100
AcDbScale
 70
     0
300
1'-0" = 1'-0"
140
12.0
141
12.0
290
     0
  0
ENDSEC
  0
EOF
