  0
SECTION
  2
HEADER
  9
$ACADVER
  1
AC1015
  9
$ACADMAINTVER
 70
     6
  9
$DWGCODEPAGE
  3
ANSI_1254
  9
$INSBASE
 10
0.0
 20
0.0
 30
0.0
  9
$EXTMIN
 10
0.0
 20
0.0
 30
0.0
  9
$EXTMAX
 10
297.0
 20
210.0
 30
0.0
  9
$LIMMIN
 10
0.0
 20
0.0
  9
$LIMMAX
 10
297.0
 20
210.0
  9
$ORTHOMODE
 70
     0
  9
$REGENMODE
 70
     1
  9
$FILLMODE
 70
     1
  9
$QTEXTMODE
 70
     0
  9
$MIRRTEXT
 70
     1
  9
$LTSCALE
 40
1.0
  9
$ATTMODE
 70
     1
  9
$TEXTSIZE
 40
3.0
  9
$TRACEWID
 40
1.0
  9
$TEXTSTYLE
  7
Standard
  9
$CLAYER
  8
0
  9
$CELTYPE
  6
ByLayer
  9
$CECOLOR
 62
   256
  9
$CELTSCALE
 40
1.0
  9
$DISPSILH
 70
     0
  9
$DIMSCALE
 40
1.0
  9
$DIMASZ
 40
2.0
  9
$DIMEXO
 40
1.0
  9
$DIMDLI
 40
3.75
  9
$DIMRND
 40
0.0
  9
$DIMDLE
 40
0.0
  9
$DIMEXE
 40
1.0
  9
$DIMTP
 40
0.0
  9
$DIMTM
 40
0.0
  9
$DIMTXT
 40
3.0
  9
$DIMCEN
 40
2.5
  9
$DIMTSZ
 40
0.0
  9
$DIMTOL
 70
     0
  9
$DIMLIM
 70
     0
  9
$DIMTIH
 70
     1
  9
$DIMTOH
 70
     1
  9
$DIMSE1
 70
     0
  9
$DIMSE2
 70
     0
  9
$DIMTAD
 70
     1
  9
$DIMZIN
 70
     0
  9
$DIMBLK
  1

  9
$DIMASO
 70
     1
  9
$DIMSHO
 70
     1
  9
$DIMPOST
  1

  9
$DIMAPOST
  1

  9
$DIMALT
 70
     0
  9
$DIMALTD
 70
     3
  9
$DIMALTF
 40
0.0393700787
  9
$DIMLFAC
 40
1.0
  9
$DIMTOFL
 70
     1
  9
$DIMTVP
 40
0.0
  9
$DIMTIX
 70
     0
  9
$DIMSOXD
 70
     0
  9
$DIMSAH
 70
     0
  9
$DIMBLK1
  1

  9
$DIMBLK2
  1

  9
$DIMSTYLE
  2
ISO-25
  9
$DIMCLRD
 70
     0
  9
$DIMCLRE
 70
     0
  9
$DIMCLRT
 70
     0
  9
$DIMTFAC
 40
1.0
  9
$DIMGAP
 40
1.0
  9
$DIMJUST
 70
     0
  9
$DIMSD1
 70
     0
  9
$DIMSD2
 70
     0
  9
$DIMTOLJ
 70
     0
  9
$DIMTZIN
 70
     0
  9
$DIMALTZ
 70
     0
  9
$DIMALTTZ
 70
     0
  9
$DIMUPT
 70
     0
  9
$DIMDEC
 70
     2
  9
$DIMTDEC
 70
     2
  9
$DIMALTU
 70
     2
  9
$DIMALTTD
 70
     3
  9
$DIMTXSTY
  7
Standard
  9
$DIMAUNIT
 70
     0
  9
$DIMADEC
 70
     2
  9
$DIMALTRND
 40
0.0
  9
$DIMAZIN
 70
     0
  9
$DIMDSEP
 70
    44
  9
$DIMATFIT
 70
     3
  9
$DIMFRAC
 70
     0
  9
$DIMLDRBLK
  1

  9
$DIMLUNIT
 70
     2
  9
$DIMLWD
 70
    -2
  9
$DIMLWE
 70
    -2
  9
$DIMTMOVE
 70
     0
  9
$LUNITS
 70
     2
  9
$LUPREC
 70
     2
  9
$SKETCHINC
 40
1.0
  9
$FILLETRAD
 40
10.0
  9
$AUNITS
 70
     0
  9
$AUPREC
 70
     2
  9
$MENU
  1
.
  9
$ELEVATION
 40
0.0
  9
$PELEVATION
 40
0.0
  9
$THICKNESS
 40
0.0
  9
$LIMCHECK
 70
     0
  9
$CHAMFERA
 40
0.0
  9
$CHAMFERB
 40
0.0
  9
$CHAMFERC
 40
0.0
  9
$CHAMFERD
 40
0.0
  9
$SKPOLY
 70
     0
  9
$TDCREATE
 40
2459424.617373252
  9
$TDUCREATE
 40
2459424.492373252
  9
$TDUPDATE
 40
2459424.617374317
  9
$TDUUPDATE
 40
2459424.492374317
  9
$TDINDWG
 40
0.0000000116
  9
$TDUSRTIMER
 40
0.0000000116
  9
$USRTIMER
 70
     1
  9
$ANGBASE
 50
0.0
  9
$ANGDIR
 70
     0
  9
$PDMODE
 70
     0
  9
$PDSIZE
 40
-1.0
  9
$PLINEWID
 40
0.0
  9
$SPLFRAME
 70
     0
  9
$SPLINETYPE
 70
     6
  9
$SPLINESEGS
 70
     8
  9
$HANDSEED
  5
16B
  9
$SURFTAB1
 70
     6
  9
$SURFTAB2
 70
     6
  9
$SURFTYPE
 70
     6
  9
$SURFU
 70
     6
  9
$SURFV
 70
     6
  9
$UCSBASE
  2

  9
$UCSNAME
  2

  9
$UCSORG
 10
0.0
 20
0.0
 30
0.0
  9
$UCSXDIR
 10
1.0
 20
0.0
 30
0.0
  9
$UCSYDIR
 10
0.0
 20
1.0
 30
0.0
  9
$UCSORTHOREF
  2

  9
$UCSORTHOVIEW
 70
     0
  9
$UCSORGTOP
 10
0.0
 20
0.0
 30
0.0
  9
$UCSORGBOTTOM
 10
0.0
 20
0.0
 30
0.0
  9
$UCSORGLEFT
 10
0.0
 20
0.0
 30
0.0
  9
$UCSORGRIGHT
 10
0.0
 20
0.0
 30
0.0
  9
$UCSORGFRONT
 10
0.0
 20
0.0
 30
0.0
  9
$UCSORGBACK
 10
0.0
 20
0.0
 30
0.0
  9
$PUCSBASE
  2

  9
$PUCSNAME
  2

  9
$PUCSORG
 10
0.0
 20
0.0
 30
0.0
  9
$PUCSXDIR
 10
1.0
 20
0.0
 30
0.0
  9
$PUCSYDIR
 10
0.0
 20
1.0
 30
0.0
  9
$PUCSORTHOREF
  2

  9
$PUCSORTHOVIEW
 70
     0
  9
$PUCSORGTOP
 10
0.0
 20
0.0
 30
0.0
  9
$PUCSORGBOTTOM
 10
0.0
 20
0.0
 30
0.0
  9
$PUCSORGLEFT
 10
0.0
 20
0.0
 30
0.0
  9
$PUCSORGRIGHT
 10
0.0
 20
0.0
 30
0.0
  9
$PUCSORGFRONT
 10
0.0
 20
0.0
 30
0.0
  9
$PUCSORGBACK
 10
0.0
 20
0.0
 30
0.0
  9
$USERI1
 70
     0
  9
$USERI2
 70
     0
  9
$USERI3
 70
     0
  9
$USERI4
 70
     0
  9
$USERI5
 70
     0
  9
$USERR1
 40
0.0
  9
$USERR2
 40
0.0
  9
$USERR3
 40
0.0
  9
$USERR4
 40
0.0
  9
$USERR5
 40
0.0
  9
$WORLDVIEW
 70
     1
  9
$SHADEDGE
 70
     3
  9
$SHADEDIF
 70
    70
  9
$TILEMODE
 70
     1
  9
$MAXACTVP
 70
    64
  9
$PINSBASE
 10
0.0
 20
0.0
 30
0.0
  9
$PLIMCHECK
 70
     0
  9
$PEXTMIN
 10
1.0000000000E+20
 20
1.0000000000E+20
 30
1.0000000000E+20
  9
$PEXTMAX
 10
-1.0000000000E+20
 20
-1.0000000000E+20
 30
-1.0000000000E+20
  9
$PLIMMIN
 10
0.0
 20
0.0
  9
$PLIMMAX
 10
420.0
 20
297.0
  9
$UNITMODE
 70
     0
  9
$VISRETAIN
 70
     1
  9
$PLINEGEN
 70
     0
  9
$PSLTSCALE
 70
     1
  9
$TREEDEPTH
 70
  3020
  9
$CMLSTYLE
  2
Standard
  9
$CMLJUST
 70
     0
  9
$CMLSCALE
 40
20.0
  9
$PROXYGRAPHICS
 70
     1
  9
$MEASUREMENT
 70
     1
  9
$CELWEIGHT
370
    -1
  9
$ENDCAPS
280
     0
  9
$JOINSTYLE
280
     0
  9
$LWDISPLAY
290
     1
  9
$INSUNITS
 70
     4
  9
$HYPERLINKBASE
  1

  9
$STYLESHEET
  1

  9
$XEDIT
290
     1
  9
$CEPSNTYPE
380
     0
  9
$PSTYLEMODE
290
     1
  9
$FINGERPRINTGUID
  2
{6f3ebffc-186f-4cbc-aa25-b47413fdb930}
  9
$VERSIONGUID
  2
{FAEB1C32-E019-11D5-929B-00C0DF256EC4}
  9
$EXTNAMES
290
     1
  9
$PSVPSCALE
 40
0.0
  9
$OLESTARTUP
290
     0
  0
ENDSEC
  0
SECTION
  2
CLASSES
  0
CLASS
  1
ACDBDICTIONARYWDFLT
  2
AcDbDictionaryWithDefault
  3
ObjectDBX Classes
 90
        0
280
     0
281
     0
  0
CLASS
  1
VISUALSTYLE
  2
AcDbVisualStyle
  3
ObjectDBX Classes
 90
     4095
280
     0
281
     0
  0
CLASS
  1
MATERIAL
  2
AcDbMaterial
  3
ObjectDBX Classes
 90
     1153
280
     0
281
     0
  0
CLASS
  1
SCALE
  2
AcDbScale
  3
ObjectDBX Classes
 90
     1153
280
     0
281
     0
  0
CLASS
  1
TABLESTYLE
  2
AcDbTableStyle
  3
ObjectDBX Classes
 90
     4095
280
     0
281
     0
  0
CLASS
  1
MLEADERSTYLE
  2
AcDbMLeaderStyle
  3
ACDB_MLEADERSTYLE_CLASS
 90
     4095
280
     0
281
     0
  0
CLASS
  1
SUN
  2
AcDbSun
  3
SCENEOE
 90
     1153
280
     0
281
     0
  0
CLASS
  1
ACDBPLACEHOLDER
  2
AcDbPlaceHolder
  3
ObjectDBX Classes
 90
        0
280
     0
281
     0
  0
CLASS
  1
LAYOUT
  2
AcDbLayout
  3
ObjectDBX Classes
 90
        0
280
     0
281
     0
  0
ENDSEC
  0
SECTION
  2
TABLES
  0
TABLE
  2
VPORT
  5
8
330
0
100
AcDbSymbolTable
 70
     1
  0
VPORT
  5
29
330
8
100
AcDbSymbolTableRecord
100
AcDbViewportTableRecord
  2
*Active
 70
     0
 10
0.0
 20
0.0
 11
1.0
 21
1.0
 12
148.5
 22
105.0
 13
0.0
 23
0.0
 14
10.0
 24
10.0
 15
10.0
 25
10.0
 16
0.0
 26
0.0
 36
1.0
 17
0.0
 27
0.0
 37
0.0
 40
210.0
 41
1.4142857143
 42
50.0
 43
0.0
 44
0.0
 50
0.0
 51
0.0
 71
     0
 72
  2000
 73
     1
 74
     3
 75
     0
 76
     0
 77
     0
 78
     0
281
     0
 65
     1
110
0.0
120
0.0
130
0.0
111
1.0
121
0.0
131
0.0
112
0.0
122
1.0
132
0.0
 79
     0
146
0.0
  0
ENDTAB
  0
TABLE
  2
LTYPE
  5
5
330
0
100
AcDbSymbolTable
 70
     6
  0
LTYPE
  5
14
330
5
100
AcDbSymbolTableRecord
100
AcDbLinetypeTableRecord
  2
ByBlock
 70
     0
  3

 72
    65
 73
     0
 40
0.0
  0
LTYPE
  5
15
330
5
100
AcDbSymbolTableRecord
100
AcDbLinetypeTableRecord
  2
ByLayer
 70
     0
  3

 72
    65
 73
     0
 40
0.0
  0
LTYPE
  5
16
330
5
100
AcDbSymbolTableRecord
100
AcDbLinetypeTableRecord
  2
Continuous
 70
     0
  3
Solid line
 72
    65
 73
     0
 40
0.0
  0
LTYPE
  5
6E
330
5
100
AcDbSymbolTableRecord
100
AcDbLinetypeTableRecord
  2
HIDDEN
 70
     0
  3
Hidden __ __ __ __ __ __ __ __ __ __ __ __ __ __
 72
    65
 73
     2
 40
1.905
 49
1.27
 74
     0
 49
-0.635
 74
     0
  0
LTYPE
  5
6F
330
5
100
AcDbSymbolTableRecord
100
AcDbLinetypeTableRecord
  2
PHANTOM
 70
     0
  3
Phantom ______  __  __  ______  __  __  ______
 72
    65
 73
     6
 40
12.7
 49
6.35
 74
     0
 49
-1.27
 74
     0
 49
1.27
 74
     0
 49
-1.27
 74
     0
 49
1.27
 74
     0
 49
-1.27
 74
     0
  0
LTYPE
  5
70
330
5
100
AcDbSymbolTableRecord
100
AcDbLinetypeTableRecord
  2
CENTER
 70
     0
  3
Center ____ _ ____ _ ____ _ ____ _ ____ _ ____
 72
    65
 73
     4
 40
10.16
 49
6.35
 74
     0
 49
-1.27
 74
     0
 49
1.27
 74
     0
 49
-1.27
 74
     0
  0
LTYPE
  5
71
330
5
100
AcDbSymbolTableRecord
100
AcDbLinetypeTableRecord
  2
CENTERX2
 70
     0
  3
Center (2x) ________  __  ________  __  _____
 72
    65
 73
     4
 40
20.32
 49
12.7
 74
     0
 49
-2.54
 74
     0
 49
2.54
 74
     0
 49
-2.54
 74
     0
  0
LTYPE
  5
72
330
5
100
AcDbSymbolTableRecord
100
AcDbLinetypeTableRecord
  2
DOT2
 70
     0
  3
Dot (.5x) ........................................
 72
    65
 73
     2
 40
0.635
 49
0.0
 74
     0
 49
-0.635
 74
     0
  0
ENDTAB
  0
TABLE
  2
LAYER
  5
2
330
0
100
AcDbSymbolTable
 70
     1
  0
LAYER
  5
10
330
2
100
AcDbSymbolTableRecord
100
AcDbLayerTableRecord
  2
0
 70
     0
 62
     7
  6
Continuous
370
    -3
390
F
  0
ENDTAB
  0
TABLE
  2
STYLE
  5
3
330
0
100
AcDbSymbolTable
 70
     4
  0
STYLE
  5
11
330
3
100
AcDbSymbolTableRecord
100
AcDbTextStyleTableRecord
  2
Standard
 70
     0
 40
0.0
 41
1.0
 50
0.0
 71
     0
 42
3.0
  3
txt
  4

  0
STYLE
  5
76
330
3
100
AcDbSymbolTableRecord
100
AcDbTextStyleTableRecord
  2
SLDTEXTSTYLE0
 70
     0
 40
0.0
 41
0.605
 50
0.0
 71
     0
 42
3.0
  3
TXT
  4

  0
STYLE
  5
15C
330
3
100
AcDbSymbolTableRecord
100
AcDbTextStyleTableRecord
  2
SLDTEXTSTYLE1
 70
     0
 40
0.0
 41
0.5721875
 50
0.0
 71
     0
 42
3.0
  3
TXT
  4

  0
STYLE
  5
15F
330
3
100
AcDbSymbolTableRecord
100
AcDbTextStyleTableRecord
  2
SLDTEXTSTYLE2
 70
     0
 40
0.0
 41
0.5675
 50
0.0
 71
     0
 42
3.0
  3
TXT
  4

  0
ENDTAB
  0
TABLE
  2
VIEW
  5
6
330
0
100
AcDbSymbolTable
 70
     0
  0
ENDTAB
  0
TABLE
  2
UCS
  5
7
330
0
100
AcDbSymbolTable
 70
     0
  0
ENDTAB
  0
TABLE
  2
APPID
  5
9
330
0
100
AcDbSymbolTable
 70
     1
  0
APPID
  5
12
330
9
100
AcDbSymbolTableRecord
100
AcDbRegAppTableRecord
  2
ACAD
 70
     0
  0
ENDTAB
  0
TABLE
  2
DIMSTYLE
  5
A
330
0
100
AcDbSymbolTable
 70
     1
100
AcDbDimStyleTable
  0
DIMSTYLE
105
27
330
A
100
AcDbSymbolTableRecord
100
AcDbDimStyleTableRecord
  2
ISO-25
 70
     0
 41
2.5
 42
0.625
 43
3.75
 44
1.25
 73
     0
 74
     0
 77
     1
 78
     8
140
2.5
141
2.5
143
0.0393700787
147
0.625
171
     3
172
     1
178
     0
271
     2
272
     2
274
     3
278
    44
283
     0
284
     8
340
11
  0
ENDTAB
  0
TABLE
  2
BLOCK_RECORD
  5
1
330
0
100
AcDbSymbolTable
 70
     3
  0
BLOCK_RECORD
  5
1F
330
1
100
AcDbSymbolTableRecord
100
AcDbBlockTableRecord
  2
*Model_Space
340
22
  0
BLOCK_RECORD
  5
1B
330
1
100
AcDbSymbolTableRecord
100
AcDbBlockTableRecord
  2
*Paper_Space
340
1E
  0
BLOCK_RECORD
  5
23
330
1
100
AcDbSymbolTableRecord
100
AcDbBlockTableRecord
  2
*Paper_Space0
340
26
  0
BLOCK_RECORD
  5
73
330
1
100
AcDbSymbolTableRecord
100
AcDbBlockTableRecord
  2
SW_NOTE_0
340
0
102
{BLKREFS
331
7A
102
}
  0
BLOCK_RECORD
  5
7B
330
1
100
AcDbSymbolTableRecord
100
AcDbBlockTableRecord
  2
SW_NOTE_0_1
340
0
102
{BLKREFS
331
81
102
}
  0
ENDTAB
  0
ENDSEC
  0
SECTION
  2
BLOCKS
  0
BLOCK
  5
20
330
1F
100
AcDbEntity
  8
0
100
AcDbBlockBegin
  2
*Model_Space
 70
     0
 10
0.0
 20
0.0
 30
0.0
  3
*Model_Space
  1

  0
ENDBLK
  5
21
330
1F
100
AcDbEntity
  8
0
100
AcDbBlockEnd
  0
BLOCK
  5
1C
330
1B
100
AcDbEntity
 67
     1
  8
0
100
AcDbBlockBegin
  2
*Paper_Space
 70
     0
 10
0.0
 20
0.0
 30
0.0
  3
*Paper_Space
  1

  0
ENDBLK
  5
1D
330
1B
100
AcDbEntity
 67
     1
  8
0
100
AcDbBlockEnd
  0
BLOCK
  5
24
330
23
100
AcDbEntity
  8
0
100
AcDbBlockBegin
  2
*Paper_Space0
 70
     0
 10
0.0
 20
0.0
 30
0.0
  3
*Paper_Space0
  1

  0
ENDBLK
  5
25
330
23
100
AcDbEntity
  8
0
100
AcDbBlockEnd
  0
BLOCK
  5
74
330
73
100
AcDbEntity
  8
0
100
AcDbBlockBegin
  2
SW_NOTE_0
 70
     0
 10
0.0
 20
0.0
 30
0.0
  3
SW_NOTE_0
  1

  0
MTEXT
  5
77
330
73
100
AcDbEntity
  8
0
  6
Continuous
 62
     0
370
     0
100
AcDbMText
 10
0.0
 20
10.2319751844
 30
0.0
 40
7.9375
 41
0.0
 71
     1
 72
     1
  1
SATINELI PASLANMAZ
  7
SLDTEXTSTYLE0
 73
     1
 44
1.0
  0
MTEXT
  5
78
330
73
100
AcDbEntity
  8
0
  6
Continuous
 62
     0
370
     0
100
AcDbMText
 10
0.0
 20
-0.3513584867
 30
0.0
 40
7.9375
 41
0.0
 71
     1
 72
     1
  1
1,5 mm
  7
SLDTEXTSTYLE0
 73
     1
 44
1.0
  0
MTEXT
  5
79
330
73
100
AcDbEntity
  8
0
  6
Continuous
 62
     0
370
     0
100
AcDbMText
 10
0.0
 20
-10.9346921577
 30
0.0
 40
7.9375
 41
0.0
 71
     1
 72
     1
  1
1 adet
  7
SLDTEXTSTYLE0
 73
     1
 44
1.0
  0
ENDBLK
  5
75
330
73
100
AcDbEntity
  8
0
100
AcDbBlockEnd
  0
BLOCK
  5
7C
330
7B
100
AcDbEntity
  8
0
100
AcDbBlockBegin
  2
SW_NOTE_0_1
 70
     0
 10
0.0
 20
0.0
 30
0.0
  3
SW_NOTE_0_1
  1

  0
MTEXT
  5
7E
330
7B
100
AcDbEntity
  8
0
  6
Continuous
 62
     0
370
     0
100
AcDbMText
 10
0.0
 20
10.2319751844
 30
0.0
 40
7.9375
 41
0.0
 71
     1
 72
     1
  1
SATINELI PASLANMAZ
  7
SLDTEXTSTYLE0
 73
     1
 44
1.0
  0
MTEXT
  5
7F
330
7B
100
AcDbEntity
  8
0
  6
Continuous
 62
     0
370
     0
100
AcDbMText
 10
0.0
 20
-0.3513584867
 30
0.0
 40
7.9375
 41
0.0
 71
     1
 72
     1
  1
1,5 mm
  7
SLDTEXTSTYLE0
 73
     1
 44
1.0
  0
MTEXT
  5
80
330
7B
100
AcDbEntity
  8
0
  6
Continuous
 62
     0
370
     0
100
AcDbMText
 10
0.0
 20
-10.9346921577
 30
0.0
 40
7.9375
 41
0.0
 71
     1
 72
     1
  1
2 adet
  7
SLDTEXTSTYLE0
 73
     1
 44
1.0
  0
ENDBLK
  5
7D
330
7B
100
AcDbEntity
  8
0
100
AcDbBlockEnd
  0
ENDSEC
  0
SECTION
  2
ENTITIES
  0
INSERT
  5
7A
330
1F
100
AcDbEntity
  8
0
  6
Continuous
 62
     7
370
     0
100
AcDbBlockReference
  2
SW_NOTE_0
 10
118.7478955434
 20
-74.7555417829
 30
0.0
  0
INSERT
  5
81
330
1F
100
AcDbEntity
  8
0
  6
Continuous
 62
     7
370
     0
100
AcDbBlockReference
  2
SW_NOTE_0_1
 10
473.4311548572
 20
-122.7792493366
 30
0.0
  0
LINE
  5
82
330
1F
100
AcDbEntity
  8
0
  6
Continuous
 62
     7
370
    35
100
AcDbLine
 10
468.9715411463
 20
283.7198409762
 30
0.0
 11
161.810053443
 21
283.7198409762
 31
0.0
  0
LINE
  5
83
330
1F
100
AcDbEntity
  8
0
  6
Continuous
 62
     7
370
    35
100
AcDbLine
 10
161.810053443
 20
297.7198409762
 30
0.0
 11
161.810053443
 21
283.7198409762
 31
0.0
  0
ARC
  5
84
330
1F
100
AcDbEntity
  8
0
  6
Continuous
 62
     7
370
    35
100
AcDbCircle
 10
164.810053443
 20
297.7198409762
 30
0.0
 40
3.000000000000057
100
AcDbArc
 50
90.0
 51
180.0
  0
LINE
  5
85
330
1F
100
AcDbEntity
  8
0
  6
Continuous
 62
     7
370
    35
100
AcDbLine
 10
465.9715411463
 20
300.7198409762
 30
0.0
 11
164.810053443
 21
300.7198409762
 31
0.0
  0
ARC
  5
86
330
1F
100
AcDbEntity
  8
0
  6
Continuous
 62
     7
370
    35
100
AcDbCircle
 10
465.9715411463
 20
297.7198409762
 30
0.0
 40
3.0
100
AcDbArc
 50
0.0
 51
90.0
  0
ARC
  5
87
330
1F
100
AcDbEntity
  8
0
  6
Continuous
 62
     7
370
    35
100
AcDbCircle
 10
433.7215411463
 20
293.7198409762
 30
0.0
 40
2.750000000000057
100
AcDbArc
 50
270.0
 51
90.0
  0
LINE
  5
88
330
1F
100
AcDbEntity
  8
0
  6
Continuous
 62
     7
370
    35
100
AcDbLine
 10
429.2215411463
 20
296.4698409762
 30
0.0
 11
433.7215411463
 21
296.4698409762
 31
0.0
  0
ARC
  5
89
330
1F
100
AcDbEntity
  8
0
  6
Continuous
 62
     7
370
    35
100
AcDbCircle
 10
429.2215411463
 20
293.7198409762
 30
0.0
 40
2.750000000000057
100
AcDbArc
 50
90.0
 51
270.0
  0
LINE
  5
8A
330
1F
100
AcDbEntity
  8
0
  6
Continuous
 62
     7
370
    35
100
AcDbLine
 10
429.2215411463
 20
290.9698409762
 30
0.0
 11
433.7215411463
 21
290.9698409762
 31
0.0
  0
LINE
  5
8B
330
1F
100
AcDbEntity
  8
0
  6
Continuous
 62
     7
370
    35
100
AcDbLine
 10
216.7215411463
 20
290.9698409762
 30
0.0
 11
221.2215411463
 21
290.9698409762
 31
0.0
  0
ARC
  5
8C
330
1F
100
AcDbEntity
  8
0
  6
Continuous
 62
     7
370
    35
100
AcDbCircle
 10
221.2215411463
 20
293.7198409762
 30
0.0
 40
2.75
100
AcDbArc
 50
270.0
 51
90.0
  0
LINE
  5
8D
330
1F
100
AcDbEntity
  8
0
  6
Continuous
 62
     7
370
    35
100
AcDbLine
 10
216.7215411463
 20
296.4698409762
 30
0.0
 11
221.2215411463
 21
296.4698409762
 31
0.0
  0
ARC
  5
8E
330
1F
100
AcDbEntity
  8
0
  6
Continuous
 62
     7
370
    35
100
AcDbCircle
 10
216.7215411463
 20
293.7198409762
 30
0.0
 40
2.75
100
AcDbArc
 50
90.0
 51
270.0
  0
LINE
  5
8F
330
1F
100
AcDbEntity
  8
0
  6
Continuous
 62
     7
370
    35
100
AcDbLine
 10
468.9715411463
 20
283.7198409762
 30
0.0
 11
468.9715411463
 21
297.7198409762
 31
0.0
  0
LINE
  5
90
330
1F
100
AcDbEntity
  8
0
  6
Continuous
 62
     7
370
    35
100
AcDbLine
 10
468.9715411463
 20
280.7198409762
 30
0.0
 11
161.810053443
 21
280.7198409762
 31
0.0
  0
LINE
  5
91
330
1F
100
AcDbEntity
  8
0
  6
Continuous
 62
     7
370
    35
100
AcDbLine
 10
161.810053443
 20
280.7198409762
 30
0.0
 11
161.810053443
 21
283.7198409762
 31
0.0
  0
LINE
  5
92
330
1F
100
AcDbEntity
  8
0
  6
Continuous
 62
     7
370
    35
100
AcDbLine
 10
468.9715411463
 20
283.7198409762
 30
0.0
 11
468.9715411463
 21
280.7198409762
 31
0.0
  0
LINE
  5
93
330
1F
100
AcDbEntity
  8
0
  6
Continuous
 62
     7
370
    35
100
AcDbLine
 10
98.9715411463
 20
230.7198409762
 30
0.0
 11
468.9715411463
 21
230.7198409762
 31
0.0
  0
LINE
  5
94
330
1F
100
AcDbEntity
  8
0
  6
Continuous
 62
     7
370
    35
100
AcDbLine
 10
98.9715411463
 20
230.7198409762
 30
0.0
 11
98.9715411463
 21
233.7198409762
 31
0.0
  0
LINE
  5
95
330
1F
100
AcDbEntity
  8
0
  6
Continuous
 62
     7
370
    35
100
AcDbLine
 10
98.9715411463
 20
233.7198409762
 30
0.0
 11
468.9715411463
 21
233.7198409762
 31
0.0
  0
LINE
  5
96
330
1F
100
AcDbEntity
  8
0
  6
Continuous
 62
     7
370
    35
100
AcDbLine
 10
468.9715411463
 20
233.7198409762
 30
0.0
 11
468.9715411463
 21
230.7198409762
 31
0.0
  0
LINE
  5
97
330
1F
100
AcDbEntity
  8
0
  6
Continuous
 62
     7
370
    35
100
AcDbLine
 10
468.9715411463
 20
216.7198409762
 30
0.0
 11
468.9715411463
 21
230.7198409762
 31
0.0
  0
ARC
  5
98
330
1F
100
AcDbEntity
  8
0
  6
Continuous
 62
     7
370
    35
100
AcDbCircle
 10
465.9715411463
 20
216.7198409762
 30
0.0
 40
3.0
100
AcDbArc
 50
270.0
 51
0.0
  0
LINE
  5
99
330
1F
100
AcDbEntity
  8
0
  6
Continuous
 62
     7
370
    35
100
AcDbLine
 10
101.9715411463
 20
213.7198409762
 30
0.0
 11
465.9715411463
 21
213.7198409762
 31
0.0
  0
LINE
  5
9A
330
1F
100
AcDbEntity
  8
0
  6
Continuous
 62
     7
370
    35
100
AcDbLine
 10
429.2215411463
 20
217.9698409762
 30
0.0
 11
433.7215411463
 21
217.9698409762
 31
0.0
  0
ARC
  5
9B
330
1F
100
AcDbEntity
  8
0
  6
Continuous
 62
     7
370
    35
100
AcDbCircle
 10
433.7215411463
 20
220.7198409762
 30
0.0
 40
2.750000000000028
100
AcDbArc
 50
270.0
 51
90.0
  0
LINE
  5
9C
330
1F
100
AcDbEntity
  8
0
  6
Continuous
 62
     7
370
    35
100
AcDbLine
 10
429.2215411463
 20
223.4698409762
 30
0.0
 11
433.7215411463
 21
223.4698409762
 31
0.0
  0
ARC
  5
9D
330
1F
100
AcDbEntity
  8
0
  6
Continuous
 62
     7
370
    35
100
AcDbCircle
 10
429.2215411463
 20
220.7198409762
 30
0.0
 40
2.750000000000028
100
AcDbArc
 50
90.0
 51
270.0
  0
LINE
  5
9E
330
1F
100
AcDbEntity
  8
0
  6
Continuous
 62
     7
370
    35
100
AcDbLine
 10
216.7215411463
 20
217.9698409762
 30
0.0
 11
221.2215411463
 21
217.9698409762
 31
0.0
  0
ARC
  5
9F
330
1F
100
AcDbEntity
  8
0
  6
Continuous
 62
     7
370
    35
100
AcDbCircle
 10
221.2215411463
 20
220.7198409762
 30
0.0
 40
2.750000000000028
100
AcDbArc
 50
270.0
 51
90.0
  0
LINE
  5
A0
330
1F
100
AcDbEntity
  8
0
  6
Continuous
 62
     7
370
    35
100
AcDbLine
 10
216.7215411463
 20
223.4698409762
 30
0.0
 11
221.2215411463
 21
223.4698409762
 31
0.0
  0
ARC
  5
A1
330
1F
100
AcDbEntity
  8
0
  6
Continuous
 62
     7
370
    35
100
AcDbCircle
 10
216.7215411463
 20
220.7198409762
 30
0.0
 40
2.75
100
AcDbArc
 50
90.0
 51
270.0
  0
ARC
  5
A2
330
1F
100
AcDbEntity
  8
0
  6
Continuous
 62
     7
370
    35
100
AcDbCircle
 10
101.9715411463
 20
216.7198409762
 30
0.0
 40
3.0
100
AcDbArc
 50
180.0
 51
270.0
  0
LINE
  5
A3
330
1F
100
AcDbEntity
  8
0
  6
Continuous
 62
     7
370
    35
100
AcDbLine
 10
98.9715411463
 20
230.7198409762
 30
0.0
 11
98.9715411463
 21
216.7198409762
 31
0.0
  0
LINE
  5
A4
330
1F
100
AcDbEntity
  8
0
  6
Continuous
 62
     7
370
    35
100
AcDbLine
 10
161.5641766002
 20
280.7198409762
 30
0.0
 11
161.5641766002
 21
282.2198409762
 31
0.0
  0
LINE
  5
A5
330
1F
100
AcDbEntity
  8
0
  6
Continuous
 62
     7
370
    35
100
AcDbLine
 10
161.810053443
 20
282.2198409762
 30
0.0
 11
161.5641766002
 21
282.2198409762
 31
0.0
  0
LINE
  5
A6
330
1F
100
AcDbEntity
  8
0
  6
Continuous
 62
     7
370
    35
100
AcDbLine
 10
161.5641766002
 20
280.7198409762
 30
0.0
 11
161.810053443
 21
280.7198409762
 31
0.0
  0
LINE
  5
A7
330
1F
100
AcDbEntity
  8
0
  6
Continuous
 62
     7
370
    35
100
AcDbLine
 10
468.9715411463
 20
235.2198409762
 30
0.0
 11
100.4333332203
 21
235.2198409762
 31
0.0
  0
LINE
  5
A8
330
1F
100
AcDbEntity
  8
0
  6
Continuous
 62
     7
370
    35
100
AcDbLine
 10
468.9715411463
 20
235.2198409762
 30
0.0
 11
468.9715411463
 21
233.7198409762
 31
0.0
  0
SPLINE
  5
A9
330
1F
100
AcDbEntity
  8
0
  6
Continuous
 62
     7
370
    35
100
AcDbSpline
210
0.0
220
0.0
230
1.0
 70
     8
 71
     3
 72
    14
 73
    10
 74
     0
 42
0.00000001
 43
0.00000001
 40
0.0
 40
0.0
 40
0.0
 40
0.0
 40
0.25
 40
0.25
 40
0.5
 40
0.5
 40
0.75
 40
0.75
 40
1.0
 40
1.0
 40
1.0
 40
1.0
 10
99.21741798914543
 20
233.7198409762038
 30
0.0
 10
99.27036756633538
 20
233.7198409762038
 30
0.0
 10
99.33548348068642
 20
233.7483485922274
 30
0.0
 10
99.48980056379249
 20
233.8732782900344
 30
0.0
 10
99.57904296920053
 20
233.969900973413
 30
0.0
 10
99.7816955077269
 20
234.231354832448
 30
0.0
 10
99.89510564084512
 20
234.3963445891701
 30
0.0
 10
100.1460936347917
 20
234.7781897680055
 30
0.0
 10
100.2835322883048
 20
234.9948571768701
 30
0.0
 10
100.4333332203035
 20
235.2198409762038
 30
0.0
  0
SPLINE
  5
AA
330
1F
100
AcDbEntity
  8
0
  6
Continuous
 62
     7
370
    35
100
AcDbSpline
210
0.0
220
0.0
230
1.0
 70
     8
 71
     3
 72
    35
 73
    31
 74
     0
 42
0.00000001
 43
0.00000001
 40
0.0
 40
0.0
 40
0.0
 40
0.0
 40
0.0394931763027332
 40
0.0774927936646652
 40
0.1139988815534294
 40
0.1490114804409119
 40
0.1825306434654445
 40
0.2145564384812681
 40
0.2450889506089378
 40
0.2741282854410005
 40
0.3016745731157778
 40
0.3277279735574173
 40
0.3522886833067811
 40
0.3753569445597869
 40
0.3969330573274213
 40
0.417017396105748
 40
0.4356104332211161
 40
0.4527127723320287
 40
0.4683251978848445
 40
0.4824487505769018
 40
0.5069555954526627
 40
0.5375064423377182
 40
0.5741099293708697
 40
0.6167705776837841
 40
0.6654907657733327
 40
0.7202716141194748
 40
0.7811134297806817
 40
0.8480159497668301
 40
0.9209784833815415
 40
1.0
 40
1.0
 40
1.0
 40
1.0
 10
160.3482613690009
 20
279.2198409762037
 30
0.0
 10
160.3691874698494
 20
279.2805255424905
 30
0.0
 10
160.4102482850858
 20
279.3995996969177
 30
0.0
 10
160.4703622079505
 20
279.5742328053633
 30
0.0
 10
160.5278852806539
 20
279.740931362145
 30
0.0
 10
160.5827989876811
 20
279.8993438734667
 30
0.0
 10
160.6351080726058
 20
280.0492295130264
 30
0.0
 10
160.684811434196
 20
280.1904549004235
 30
0.0
 10
160.7319094577123
 20
280.3229787785259
 30
0.0
 10
160.7764021799181
 20
280.4468401164186
 30
0.0
 10
160.818289750642
 20
280.5621459214956
 30
0.0
 10
160.8575723406782
 20
280.6690598331029
 30
0.0
 10
160.8942501265271
 20
280.7677913532742
 30
0.0
 10
160.9283234807583
 20
280.8585857683375
 30
0.0
 10
160.9597923703606
 20
280.9417149848251
 30
0.0
 10
160.9886584870234
 20
281.0174685980848
 30
0.0
 10
161.0149182518236
 20
281.0861475373122
 30
0.0
 10
161.038586252605
 20
281.1480524509543
 30
0.0
 10
161.0596184975652
 20
281.2034926461391
 30
0.0
 10
161.0833575501965
 20
281.2665255354241
 30
0.0
 10
161.1110068008207
 20
281.3452140323557
 30
0.0
 10
161.1445455910661
 20
281.4455469051279
 30
0.0
 10
161.1824262780159
 20
281.5592401896575
 30
0.0
 10
161.2245370678471
 20
281.6820468425821
 30
0.0
 10
161.2708943062812
 20
281.8086396598407
 30
0.0
 10
161.321478868591
 20
281.9324713385041
 30
0.0
 10
161.3762922386311
 20
282.0460115978876
 30
0.0
 10
161.435314385271
 20
282.1394368737479
 30
0.0
 10
161.4986092631909
 20
282.2063901492599
 30
0.0
 10
161.5417475718092
 20
282.215239767846
 30
0.0
 10
161.5641766001589
 20
282.2198409762037
 30
0.0
  0
SPLINE
  5
AB
330
1F
100
AcDbEntity
  8
0
  6
Continuous
 62
     7
370
    35
100
AcDbSpline
210
0.0
220
0.0
230
1.0
 70
     8
 71
     3
 72
    28
 73
    24
 74
     0
 42
0.00000001
 43
0.00000001
 40
0.0
 40
0.0
 40
0.0
 40
0.0
 40
0.125
 40
0.125
 40
0.25
 40
0.25
 40
0.375
 40
0.375
 40
0.4375
 40
0.4375
 40
0.46875
 40
0.46875
 40
0.484375
 40
0.484375
 40
0.5
 40
0.5
 40
0.625
 40
0.625
 40
0.75
 40
0.75
 40
0.875
 40
0.875
 40
1.0
 40
1.0
 40
1.0
 40
1.0
 10
160.3482613690009
 20
279.2198409762037
 30
0.0
 10
160.4443708981151
 20
279.3590400396733
 30
0.0
 10
160.5315561363271
 20
279.4861844466417
 30
0.0
 10
160.6884642803225
 20
279.7109233697948
 30
0.0
 10
160.7581228112099
 20
279.8085548190529
 30
0.0
 10
160.879848790764
 20
279.975126966575
 30
0.0
 10
160.9319162394308
 20
280.0441739981151
 30
0.0
 10
160.9968241007656
 20
280.1293714092175
 30
0.0
 10
161.0162611692663
 20
280.1547229910491
 30
0.0
 10
161.0421184441009
 20
280.1886103173831
 30
0.0
 10
161.0501878143931
 20
280.1992160992722
 30
0.0
 10
161.0614672878522
 20
280.2141421005643
 30
0.0
 10
161.0650896820088
 20
280.2189536355079
 30
0.0
 10
161.0720596096621
 20
280.2282575241375
 30
0.0
 10
161.0757526537676
 20
280.233216663529
 30
0.0
 10
161.101533986793
 20
280.2680472087033
 30
0.0
 10
161.1288373620147
 20
280.3092498793056
 30
0.0
 10
161.1922173819677
 20
280.4040567074582
 30
0.0
 10
161.228294026699
 20
280.4577221986257
 30
0.0
 10
161.3092205856711
 20
280.562926445359
 30
0.0
 10
161.354070499912
 20
280.6144787110264
 30
0.0
 10
161.4525435979033
 20
280.6929983654523
 30
0.0
 10
161.5060887243323
 20
280.7198409762037
 30
0.0
 10
161.5641766001589
 20
280.7198409762037
 30
0.0
  0
LINE
  5
AC
330
1F
100
AcDbEntity
  8
0
  6
Continuous
 62
     7
370
    35
100
AcDbLine
 10
160.348261369
 20
279.2198409762
 30
0.0
 11
468.9715411463
 21
279.2198409762
 31
0.0
  0
LINE
  5
AD
330
1F
100
AcDbEntity
  8
0
  6
Continuous
 62
     7
370
    35
100
AcDbLine
 10
468.9715411463
 20
280.7198409762
 30
0.0
 11
468.9715411463
 21
279.2198409762
 31
0.0
  0
LINE
  5
AE
330
1F
100
AcDbEntity
  8
0
  6
Continuous
 62
     7
370
    35
100
AcDbLine
 10
103.2357767828
 20
238.2056909136
 30
0.0
 11
157.5458178065
 21
276.2339910388
 31
0.0
  0
ARC
  5
AF
330
1F
100
AcDbEntity
  8
0
  6
Continuous
 62
     7
370
    35
100
AcDbCircle
 10
151.810053443
 20
284.4255114817
 30
0.0
 40
10.00000000000002
100
AcDbArc
 50
305.0
 51
328.6297041833
  0
LINE
  5
B0
330
1F
100
AcDbEntity
  8
0
  6
Continuous
 62
     7
370
    35
100
AcDbLine
 10
468.9715411463
 20
235.2198409762
 30
0.0
 11
468.9715411463
 21
279.2198409762
 31
0.0
  0
ARC
  5
B1
330
1F
100
AcDbEntity
  8
0
  6
Continuous
 62
     7
370
    35
100
AcDbCircle
 10
108.9715411463
 20
230.0141704707
 30
0.0
 40
9.999999999999986
100
AcDbArc
 50
125.0
 51
148.6297041833
  0
LINE
  5
B2
330
1F
100
AcDbEntity
  8
0
  6
Continuous
 62
     7
370
    35
100
AcDbLine
 10
360.188902969
 20
162.0852068194
 30
0.0
 11
577.3848738434
 21
36.7006417191
 31
0.0
  0
LINE
  5
B3
330
1F
100
AcDbEntity
  8
0
  6
Continuous
 62
     7
370
    35
100
AcDbLine
 10
597.3551927898
 20
48.0193985818
 30
0.0
 11
379.6605414629
 21
173.6918457796
 31
0.0
  0
LINE
  5
B4
330
1F
100
AcDbEntity
  8
0
  6
Continuous
 62
     7
370
    35
100
AcDbLine
 10
576.1419893542
 20
-18.0075926772
 30
0.0
 11
577.2026495259
 21
-17.3952865933
 31
0.0
  0
LINE
  5
B5
330
1F
100
AcDbEntity
  8
0
  6
Continuous
 62
     7
370
    35
100
AcDbLine
 10
361.2495631408
 20
176.8761531085
 30
0.0
 11
360.188902969
 21
176.2638470246
 31
0.0
  0
LINE
  5
B6
330
1F
100
AcDbEntity
  8
0
  6
Continuous
 62
     7
370
    35
100
AcDbLine
 10
338.418600144
 20
162.0813747703
 30
0.0
 11
337.3579399722
 21
161.4690686865
 31
0.0
  0
LINE
  5
B7
330
1F
100
AcDbEntity
  8
0
  6
Continuous
 62
     7
370
    35
100
AcDbLine
 10
576.7634315988
 20
38.0741761385
 30
0.0
 11
359.5674607244
 21
163.4587412388
 31
0.0
  0
LINE
  5
B8
330
1F
100
AcDbEntity
  8
0
  6
Continuous
 62
     7
370
    35
100
AcDbLine
 10
359.5674607244
 20
174.8903126052
 30
0.0
 11
359.5674607244
 21
163.4587412388
 31
0.0
  0
ARC
  5
B9
330
1F
100
AcDbEntity
  8
0
  6
Continuous
 62
     7
370
    35
100
AcDbCircle
 10
360.8606838267
 20
175.1000941959
 30
0.0
 40
1.31012759228549
100
AcDbArc
 50
50.7967147643
 51
189.2140369905
  0
LINE
  5
BA
330
1F
100
AcDbEntity
  8
0
  6
Continuous
 62
     7
370
    35
100
AcDbLine
 10
574.6421112552
 20
53.1799821083
 30
0.0
 11
361.6887810679
 21
176.1153228731
 31
0.0
  0
ARC
  5
BB
330
1F
100
AcDbEntity
  8
0
  6
Continuous
 62
     7
370
    35
100
AcDbCircle
 10
572.1577832947
 20
49.2961649482
 30
0.0
 40
4.610414422716054
100
AcDbArc
 50
2.6054784857
 51
57.39452166
  0
LINE
  5
BC
330
1F
100
AcDbEntity
  8
0
  6
Continuous
 62
     7
370
    35
100
AcDbLine
 10
576.7634315988
 20
38.0741761385
 30
0.0
 11
576.7634315988
 21
49.5057475049
 31
0.0
  0
LWPOLYLINE
  5
BD
330
1F
100
AcDbEntity
  8
0
  6
Continuous
 62
     7
370
    35
100
AcDbPolyline
 90
       11
 70
   128
 43
0.0
 10
551.8379175619
 20
58.3832899956
 10
552.4388145956
 20
58.1463014896
 10
552.9808916408
 20
58.1523150054
 10
553.4110864197
 20
58.4007418981
 10
553.6872884698
 20
58.8672644125
 10
553.7824612102
 20
59.5062160745
 10
553.6872884698
 20
60.2550518436
 10
553.4110864197
 20
61.0404704572
 10
552.9808916408
 20
61.7855896692
 10
552.4388145956
 20
62.4174720194
 10
551.8379175619
 20
62.874264461
  0
LINE
  5
BE
330
1F
100
AcDbEntity
  8
0
  6
Continuous
 62
     7
370
    35
100
AcDbLine
 10
548.6559370466
 20
64.7111827126
 30
0.0
 11
551.8379175619
 21
62.874264461
 31
0.0
  0
LWPOLYLINE
  5
BF
330
1F
100
AcDbEntity
  8
0
  6
Continuous
 62
     7
370
    35
100
AcDbPolyline
 90
       11
 70
   128
 43
0.0
 10
548.6559370466
 20
64.7111827126
 10
548.055040013
 20
64.9481712185
 10
547.5129629677
 20
64.9421577027
 10
547.0827681889
 20
64.6937308101
 10
546.8065661387
 20
64.2272082956
 10
546.7113933983
 20
63.5882566336
 10
546.8065661387
 20
62.8394208645
 10
547.0827681889
 20
62.0540022509
 10
547.5129629677
 20
61.308883039
 10
548.055040013
 20
60.6770006887
 10
548.6559370466
 20
60.2202082472
  0
LINE
  5
C0
330
1F
100
AcDbEntity
  8
0
  6
Continuous
 62
     7
370
    35
100
AcDbLine
 10
548.6559370466
 20
60.2202082472
 30
0.0
 11
551.8379175619
 21
58.3832899956
 31
0.0
  0
LINE
  5
C1
330
1F
100
AcDbEntity
  8
0
  6
Continuous
 62
     7
370
    35
100
AcDbLine
 10
398.3957460445
 20
146.9635701284
 30
0.0
 11
401.5777265598
 21
145.1266518768
 31
0.0
  0
LWPOLYLINE
  5
C2
330
1F
100
AcDbEntity
  8
0
  6
Continuous
 62
     7
370
    35
100
AcDbPolyline
 90
       11
 70
   128
 43
0.0
 10
401.5777265598
 20
145.1266518768
 10
402.1786235934
 20
144.8896633708
 10
402.7207006387
 20
144.8956768866
 10
403.1508954175
 20
145.1441037792
 10
403.4270974677
 20
145.6106262937
 10
403.5222702081
 20
146.2495779557
 10
403.4270974677
 20
146.9984137248
 10
403.1508954175
 20
147.7838323384
 10
402.7207006387
 20
148.5289515504
 10
402.1786235934
 20
149.1608339006
 10
401.5777265598
 20
149.6176263421
  0
LINE
  5
C3
330
1F
100
AcDbEntity
  8
0
  6
Continuous
 62
     7
370
    35
100
AcDbLine
 10
398.3957460445
 20
151.4545445937
 30
0.0
 11
401.5777265598
 21
149.6176263421
 31
0.0
  0
LWPOLYLINE
  5
C4
330
1F
100
AcDbEntity
  8
0
  6
Continuous
 62
     7
370
    35
100
AcDbPolyline
 90
       11
 70
   128
 43
0.0
 10
398.3957460445
 20
151.4545445937
 10
397.7948490108
 20
151.6915330997
 10
397.2527719656
 20
151.6855195839
 10
396.8225771867
 20
151.4370926912
 10
396.5463751366
 20
150.9705701768
 10
396.4512023962
 20
150.3316185148
 10
396.5463751366
 20
149.5827827457
 10
396.8225771867
 20
148.7973641321
 10
397.2527719656
 20
148.0522449201
 10
397.7948490108
 20
147.4203625699
 10
398.3957460445
 20
146.9635701284
  0
LINE
  5
C5
330
1F
100
AcDbEntity
  8
0
  6
Continuous
 62
     7
370
    35
100
AcDbLine
 10
574.6421112552
 20
53.1799821083
 30
0.0
 11
575.702771427
 21
53.7922881922
 31
0.0
  0
ARC
  5
C6
330
1F
100
AcDbEntity
  8
0
  6
Continuous
 62
     7
370
    35
100
AcDbCircle
 10
573.2184434664
 20
49.908471032
 30
0.0
 40
4.610414422715948
100
AcDbArc
 50
2.6054784857
 51
57.39452166
  0
LINE
  5
C7
330
1F
100
AcDbEntity
  8
0
  6
Continuous
 62
     7
370
    35
100
AcDbLine
 10
577.8240917705
 20
50.1180535888
 30
0.0
 11
576.7634315988
 21
49.5057475049
 31
0.0
  0
LINE
  5
C8
330
1F
100
AcDbEntity
  8
0
  6
Continuous
 62
     7
370
    35
100
AcDbLine
 10
577.8240917705
 20
38.6864822224
 30
0.0
 11
576.7634315988
 21
38.0741761385
 31
0.0
  0
LINE
  5
C9
330
1F
100
AcDbEntity
  8
0
  6
Continuous
 62
     7
370
    35
100
AcDbLine
 10
577.8240917705
 20
38.6864822224
 30
0.0
 11
577.8240917705
 21
50.1180535888
 31
0.0
  0
LINE
  5
CA
330
1F
100
AcDbEntity
  8
0
  6
Continuous
 62
     7
370
    35
100
AcDbLine
 10
362.7494412397
 20
176.727628957
 30
0.0
 11
361.6887810679
 21
176.1153228731
 31
0.0
  0
LINE
  5
CB
330
1F
100
AcDbEntity
  8
0
  6
Continuous
 62
     7
370
    35
100
AcDbLine
 10
575.702771427
 20
53.7922881922
 30
0.0
 11
362.7494412397
 21
176.727628957
 31
0.0
  0
ARC
  5
CC
330
1F
100
AcDbEntity
  8
0
  6
Continuous
 62
     7
370
    35
100
AcDbCircle
 10
578.4707033217
 20
38.5815914271
 30
0.0
 40
0.655063796142779
100
AcDbArc
 50
170.7859630095
 51
309.2032852357
  0
LINE
  5
CD
330
1F
100
AcDbEntity
  8
0
  6
Continuous
 62
     7
370
    35
100
AcDbLine
 10
578.8847519423
 20
38.0739770884
 30
0.0
 11
578.8847519423
 21
36.8491658706
 31
0.0
  0
ARC
  5
CE
330
1F
100
AcDbEntity
  8
0
  6
Continuous
 62
     7
370
    35
100
AcDbCircle
 10
578.056654701
 20
37.8643945478
 30
0.0
 40
1.310127592285278
100
AcDbArc
 50
170.7859630095
 51
309.2032852358
  0
ARC
  5
CF
330
1F
100
AcDbEntity
  8
0
  6
Continuous
 62
     7
370
    35
100
AcDbCircle
 10
361.0374664316
 20
163.2964810268
 30
0.0
 40
1.478933790118295
100
AcDbArc
 50
173.7011524842
 51
234.9866671225
  0
LINE
  5
D0
330
1F
100
AcDbEntity
  8
0
  6
Continuous
 62
     7
370
    35
100
AcDbLine
 10
578.8847519423
 20
38.0739770884
 30
0.0
 11
577.8240917846
 21
38.6862831642
 31
0.0
  0
LINE
  5
D1
330
1F
100
AcDbEntity
  8
0
  6
Continuous
 62
     7
370
    35
100
AcDbLine
 10
578.8847519423
 20
38.0739770884
 30
0.0
 11
595.8553146908
 21
47.8708744303
 31
0.0
  0
LINE
  5
D2
330
1F
100
AcDbEntity
  8
0
  6
Continuous
 62
     7
370
    35
100
AcDbLine
 10
373.7117226286
 20
170.3992386148
 30
0.0
 11
377.100966225
 21
172.3558072963
 31
0.0
  0
ARC
  5
D3
330
1F
100
AcDbEntity
  8
0
  6
Continuous
 62
     7
370
    35
100
AcDbCircle
 10
373.1912786974
 20
179.2272757407
 30
0.0
 40
7.905867134397794
100
AcDbArc
 50
299.6387548907
 51
312.0404478071
  0
LINE
  5
D4
330
1F
100
AcDbEntity
  8
0
  6
Continuous
 62
     7
370
    35
100
AcDbLine
 10
378.4854826335
 20
173.3558074551
 30
0.0
 11
595.8553146908
 21
47.8708744303
 31
0.0
  0
LINE
  5
D5
330
1F
100
AcDbEntity
  8
0
  6
Continuous
 62
     7
370
    35
100
AcDbLine
 10
595.8553146908
 20
46.6460632125
 30
0.0
 11
595.8553146908
 21
47.8708744303
 31
0.0
  0
LINE
  5
D6
330
1F
100
AcDbEntity
  8
0
  6
Continuous
 62
     7
370
    35
100
AcDbLine
 10
578.8847519423
 20
36.8491658706
 30
0.0
 11
595.8553146908
 21
46.6460632125
 31
0.0
  0
LINE
  5
D7
330
1F
100
AcDbEntity
  8
0
  6
Continuous
 62
     7
370
    35
100
AcDbLine
 10
551.8379175619
 20
58.3832899956
 30
0.0
 11
552.8985777337
 21
58.9955960795
 31
0.0
  0
LWPOLYLINE
  5
D8
330
1F
100
AcDbEntity
  8
0
  6
Continuous
 62
     7
370
    35
100
AcDbPolyline
 90
        3
 70
   128
 43
0.0
 10
553.6367740084
 20
58.7375400711
 10
553.4994747673
 20
58.7586075735
 10
552.8985777337
 20
58.9955960795
  0
LINE
  5
D9
330
1F
100
AcDbEntity
  8
0
  6
Continuous
 62
     7
370
    35
100
AcDbLine
 10
549.7165972184
 20
60.8325143311
 30
0.0
 11
548.6559370466
 21
60.2202082472
 31
0.0
  0
ARC
  5
DA
330
1F
100
AcDbEntity
  8
0
  6
Continuous
 62
     7
370
    35
100
AcDbCircle
 10
551.40495951
 20
64.0261783858
 30
0.0
 40
3.612486307577296
100
AcDbArc
 50
164.8672839626
 51
242.1363849594
  0
LINE
  5
DB
330
1F
100
AcDbEntity
  8
0
  6
Continuous
 62
     7
370
    35
100
AcDbLine
 10
552.8985777337
 20
58.9955960795
 30
0.0
 11
549.7165972184
 21
60.8325143311
 31
0.0
  0
SPLINE
  5
DC
330
1F
100
AcDbEntity
  8
0
  6
Continuous
 62
     7
370
    35
100
AcDbSpline
210
0.0
220
0.0
230
1.0
 70
     8
 71
     3
 72
    10
 73
     6
 74
     0
 42
0.00000001
 43
0.00000001
 40
0.0
 40
0.0
 40
0.0
 40
0.0
 40
0.3203796999685393
 40
0.6218997036010953
 40
1.0
 40
1.0
 40
1.0
 40
1.0
 10
379.6538406169425
 20
173.6784129057752
 30
0.0
 10
379.5624828333064
 20
173.7170235613631
 30
0.0
 10
379.385145197462
 20
173.7919719905813
 30
0.0
 10
378.9677055492454
 20
173.6958403524075
 30
0.0
 10
378.657861452637
 20
173.4773580230679
 30
0.0
 10
378.4854826335234
 20
173.3558074550855
 30
0.0
  0
ARC
  5
DD
330
1F
100
AcDbEntity
  8
0
  6
Continuous
 62
     7
370
    35
100
AcDbCircle
 10
596.6834119321
 20
46.8556457531
 30
0.0
 40
1.310127592285477
100
AcDbArc
 50
350.7859630095
 51
129.2032852357
  0
LINE
  5
DE
330
1F
100
AcDbEntity
  8
0
  6
Continuous
 62
     7
370
    35
100
AcDbLine
 10
596.9159748626
 20
46.0335580785
 30
0.0
 11
597.9766350344
 21
46.6458641624
 31
0.0
  0
ARC
  5
DF
330
1F
100
AcDbEntity
  8
0
  6
Continuous
 62
     7
370
    35
100
AcDbCircle
 10
596.2693633114
 20
46.1384488739
 30
0.0
 40
0.655063796142929
100
AcDbArc
 50
350.7859630095
 51
129.2032852357
  0
LINE
  5
E0
330
1F
100
AcDbEntity
  8
0
  6
Continuous
 62
     7
370
    35
100
AcDbLine
 10
595.8552285043
 20
46.6459139168
 30
0.0
 11
596.9159748626
 21
46.0335580785
 31
0.0
  0
LINE
  5
E1
330
1F
100
AcDbEntity
  8
0
  6
Continuous
 62
     7
370
    35
100
AcDbLine
 10
338.3017357587
 20
161.8386530926
 30
0.0
 11
359.5674607244
 21
166.7571198677
 31
0.0
  0
LINE
  5
E2
330
1F
100
AcDbEntity
  8
0
  6
Continuous
 62
     7
370
    35
100
AcDbLine
 10
596.9159748626
 20
10.1057623556
 30
0.0
 11
596.9159748626
 21
46.0335580785
 31
0.0
  0
LINE
  5
E3
330
1F
100
AcDbEntity
  8
0
  6
Continuous
 62
     7
370
    35
100
AcDbLine
 10
596.9159748626
 20
10.1057623556
 30
0.0
 11
336.3201089118
 21
160.5445535893
 31
0.0
  0
ARC
  5
E4
330
1F
100
AcDbEntity
  8
0
  6
Continuous
 62
     7
370
    35
100
AcDbCircle
 10
339.0683800757
 20
158.5004459517
 30
0.0
 40
3.425108819322482
100
AcDbArc
 50
102.9341254292
 51
143.3588871643
  0
LINE
  5
E5
330
1F
100
AcDbEntity
  8
0
  6
Continuous
 62
     7
370
    35
100
AcDbLine
 10
597.9766350344
 20
10.7180684394
 30
0.0
 11
597.9766350344
 21
46.6458641624
 31
0.0
  0
LINE
  5
E6
330
1F
100
AcDbEntity
  8
0
  6
Continuous
 62
     7
370
    35
100
AcDbLine
 10
596.9159748626
 20
10.1057623556
 30
0.0
 11
597.9766350344
 21
10.7180684394
 31
0.0
  0
LINE
  5
E7
330
1F
100
AcDbEntity
  8
0
  6
Continuous
 62
     7
370
    35
100
AcDbLine
 10
315.1339225597
 20
145.8330137958
 30
0.0
 11
576.7634315988
 21
-5.2024868914
 31
0.0
  0
ARC
  5
E8
330
1F
100
AcDbEntity
  8
0
  6
Continuous
 62
     7
370
    35
100
AcDbCircle
 10
319.7395708638
 20
145.623431239
 30
0.0
 40
4.610414422718964
100
AcDbArc
 50
122.60547834
 51
177.3945215143
  0
LINE
  5
E9
330
1F
100
AcDbEntity
  8
0
  6
Continuous
 62
     7
370
    35
100
AcDbLine
 10
317.2552429033
 20
149.5072483992
 30
0.0
 11
578.8847519423
 21
-1.528252288
 31
0.0
  0
ARC
  5
EA
330
1F
100
AcDbEntity
  8
0
  6
Continuous
 62
     7
370
    35
100
AcDbCircle
 10
581.3690799029
 20
-5.4120694482
 30
0.0
 40
4.610414422715211
100
AcDbArc
 50
122.60547834
 51
177.3945215144
  0
ARC
  5
EB
330
1F
100
AcDbEntity
  8
0
  6
Continuous
 62
     7
370
    35
100
AcDbCircle
 10
580.1269159226
 20
-4.6949720859
 30
0.0
 40
2.30520721135888
100
AcDbArc
 50
122.60547834
 51
177.3945215143
  0
LINE
  5
EC
330
1F
100
AcDbEntity
  8
0
  6
Continuous
 62
     7
370
    35
100
AcDbLine
 10
577.8240917705
 20
-4.5901808075
 30
0.0
 11
576.7634315988
 21
-5.2024868914
 31
0.0
  0
LINE
  5
ED
330
1F
100
AcDbEntity
  8
0
  6
Continuous
 62
     7
370
    35
100
AcDbLine
 10
578.8847519423
 20
-2.7530635058
 30
0.0
 11
578.8847519423
 21
-1.528252288
 31
0.0
  0
ARC
  5
EE
330
1F
100
AcDbEntity
  8
0
  6
Continuous
 62
     7
370
    35
100
AcDbCircle
 10
338.1281934303
 20
148.8462083087
 30
0.0
 40
11.00823131503127
100
AcDbArc
 50
109.7979046283
 51
119.7398049898
  0
LINE
  5
EF
330
1F
100
AcDbEntity
  8
0
  6
Continuous
 62
     7
370
    35
100
AcDbLine
 10
334.3996668347
 20
159.2037778166
 30
0.0
 11
595.8553146908
 21
8.2686450539
 31
0.0
  0
LINE
  5
F0
330
1F
100
AcDbEntity
  8
0
  6
Continuous
 62
     7
370
    35
100
AcDbLine
 10
595.8553146908
 20
8.2686450539
 30
0.0
 11
578.8847519423
 21
-1.528252288
 31
0.0
  0
LINE
  5
F1
330
1F
100
AcDbEntity
  8
0
  6
Continuous
 62
     7
370
    35
100
AcDbLine
 10
317.2552429033
 20
149.5072483992
 30
0.0
 11
332.6674280604
 21
158.4045135068
 31
0.0
  0
ARC
  5
F2
330
1F
100
AcDbEntity
  8
0
  6
Continuous
 62
     7
370
    35
100
AcDbCircle
 10
319.7395708638
 20
134.6110249862
 30
0.0
 40
4.610414422715996
100
AcDbArc
 50
182.6054784857
 51
237.39452166
  0
LINE
  5
F3
330
1F
100
AcDbEntity
  8
0
  6
Continuous
 62
     7
370
    35
100
AcDbLine
 10
315.1339225597
 20
145.8330137958
 30
0.0
 11
315.1339225597
 21
134.4014424294
 31
0.0
  0
LINE
  5
F4
330
1F
100
AcDbEntity
  8
0
  6
Continuous
 62
     7
370
    35
100
AcDbLine
 10
576.7634315988
 20
-16.6340582578
 30
0.0
 11
576.7634315988
 21
-5.2024868914
 31
0.0
  0
ARC
  5
F5
330
1F
100
AcDbEntity
  8
0
  6
Continuous
 62
     7
370
    35
100
AcDbCircle
 10
575.4702084965
 20
-16.8438398485
 30
0.0
 40
1.3101275922854
100
AcDbArc
 50
230.7967147643
 51
9.2140369905
  0
LINE
  5
F6
330
1F
100
AcDbEntity
  8
0
  6
Continuous
 62
     7
370
    35
100
AcDbLine
 10
317.2552429033
 20
130.727207826
 30
0.0
 11
574.6421112552
 21
-17.8590685257
 31
0.0
  0
LINE
  5
F7
330
1F
100
AcDbEntity
  8
0
  6
Continuous
 62
     7
370
    35
100
AcDbLine
 10
548.6559370466
 20
0.6127289795
 30
0.0
 11
551.8379175619
 21
-1.2241892721
 31
0.0
  0
LWPOLYLINE
  5
F8
330
1F
100
AcDbEntity
  8
0
  6
Continuous
 62
     7
370
    35
100
AcDbPolyline
 90
       11
 70
   128
 43
0.0
 10
551.8379175619
 20
-1.2241892721
 10
552.4388145956
 20
-1.461177778
 10
552.9808916408
 20
-1.4551642623
 10
553.4110864197
 20
-1.2067373696
 10
553.6872884698
 20
-0.7402148552
 10
553.7824612102
 20
-0.1012631931
 10
553.6872884698
 20
0.6475725759
 10
553.4110864197
 20
1.4329911896
 10
552.9808916408
 20
2.1781104015
 10
552.4388145956
 20
2.8099927518
 10
551.8379175619
 20
3.2667851933
  0
LINE
  5
F9
330
1F
100
AcDbEntity
  8
0
  6
Continuous
 62
     7
370
    35
100
AcDbLine
 10
548.6559370466
 20
5.1037034449
 30
0.0
 11
551.8379175619
 21
3.2667851933
 31
0.0
  0
LWPOLYLINE
  5
FA
330
1F
100
AcDbEntity
  8
0
  6
Continuous
 62
     7
370
    35
100
AcDbPolyline
 90
       11
 70
   128
 43
0.0
 10
548.6559370466
 20
5.1037034449
 10
548.055040013
 20
5.3406919509
 10
547.5129629677
 20
5.3346784351
 10
547.0827681889
 20
5.0862515424
 10
546.8065661387
 20
4.619729028
 10
546.7113933983
 20
3.980777366
 10
546.8065661387
 20
3.2319415969
 10
547.0827681889
 20
2.4465229832
 10
547.5129629677
 20
1.7014037713
 10
548.055040013
 20
1.069521421
 10
548.6559370466
 20
0.6127289795
  0
LINE
  5
FB
330
1F
100
AcDbEntity
  8
0
  6
Continuous
 62
     7
370
    35
100
AcDbLine
 10
398.3957460445
 20
87.3560908607
 30
0.0
 11
401.5777265598
 21
85.5191726091
 31
0.0
  0
LWPOLYLINE
  5
FC
330
1F
100
AcDbEntity
  8
0
  6
Continuous
 62
     7
370
    35
100
AcDbPolyline
 90
       11
 70
   128
 43
0.0
 10
401.5777265598
 20
85.5191726091
 10
402.1786235934
 20
85.2821841031
 10
402.7207006387
 20
85.2881976189
 10
403.1508954175
 20
85.5366245116
 10
403.4270974677
 20
86.003147026
 10
403.5222702081
 20
86.642098688
 10
403.4270974677
 20
87.3909344571
 10
403.1508954175
 20
88.1763530707
 10
402.7207006387
 20
88.9214722827
 10
402.1786235934
 20
89.5533546329
 10
401.5777265598
 20
90.0101470745
  0
LINE
  5
FD
330
1F
100
AcDbEntity
  8
0
  6
Continuous
 62
     7
370
    35
100
AcDbLine
 10
398.3957460445
 20
91.8470653261
 30
0.0
 11
401.5777265598
 21
90.0101470745
 31
0.0
  0
LWPOLYLINE
  5
FE
330
1F
100
AcDbEntity
  8
0
  6
Continuous
 62
     7
370
    35
100
AcDbPolyline
 90
       11
 70
   128
 43
0.0
 10
398.3957460445
 20
91.8470653261
 10
397.7948490108
 20
92.084053832
 10
397.2527719656
 20
92.0780403162
 10
396.8225771867
 20
91.8296134236
 10
396.5463751366
 20
91.3630909092
 10
396.4512023962
 20
90.7241392471
 10
396.5463751366
 20
89.975303478
 10
396.8225771867
 20
89.1898848644
 10
397.2527719656
 20
88.4447656525
 10
397.7948490108
 20
87.8128833022
 10
398.3957460445
 20
87.3560908607
  0
LINE
  5
FF
330
1F
100
AcDbEntity
  8
0
  6
Continuous
 62
     7
370
    35
100
AcDbLine
 10
577.8240917705
 20
-16.0217521739
 30
0.0
 11
577.8240917705
 21
-4.5901808075
 31
0.0
  0
LINE
  5
100
330
1F
100
AcDbEntity
  8
0
  6
Continuous
 62
     7
370
    35
100
AcDbLine
 10
576.7634315988
 20
-16.6340582578
 30
0.0
 11
577.8240917705
 21
-16.0217521739
 31
0.0
  0
LINE
  5
101
330
1F
100
AcDbEntity
  8
0
  6
Continuous
 62
     7
370
    35
100
AcDbLine
 10
595.8553146908
 20
8.2686450539
 30
0.0
 11
595.8553146908
 21
7.043833836
 31
0.0
  0
LINE
  5
102
330
1F
100
AcDbEntity
  8
0
  6
Continuous
 62
     7
370
    35
100
AcDbLine
 10
595.8553146908
 20
7.043833836
 30
0.0
 11
578.8847519423
 21
-2.7530635058
 31
0.0
  0
ARC
  5
103
330
1F
100
AcDbEntity
  8
0
  6
Continuous
 62
     7
370
    35
100
AcDbCircle
 10
576.3970351026
 20
-16.2034442596
 30
0.0
 40
1.438576639421242
100
AcDbArc
 50
304.0563508359
 51
7.2558295575
  0
SPLINE
  5
104
330
1F
100
AcDbEntity
  8
0
  6
Continuous
 62
     7
370
    35
100
AcDbSpline
210
0.0
220
0.0
230
1.0
 70
     8
 71
     3
 72
    14
 73
    10
 74
     0
 42
0.00000001
 43
0.00000001
 40
0.0
 40
0.0
 40
0.0
 40
0.0
 40
0.25
 40
0.25
 40
0.5
 40
0.5
 40
0.75
 40
0.75
 40
1.0
 40
1.0
 40
1.0
 40
1.0
 10
334.399666834675
 20
159.2037778165687
 30
0.0
 10
334.5557558884274
 20
159.2506576449555
 30
0.0
 10
334.7259315127163
 20
159.3190144130019
 30
0.0
 10
335.0770088865617
 20
159.4977115453495
 30
0.0
 10
335.2579534053819
 20
159.6082067332724
 30
0.0
 10
335.6084392507406
 20
159.8585784750506
 30
0.0
 10
335.7778054436949
 20
159.998483414352
 30
0.0
 10
336.0808592326131
 20
160.2803161809082
 30
0.0
 10
336.2141836569104
 20
160.4219944831132
 30
0.0
 10
336.3201089117547
 20
160.5445535892612
 30
0.0
  0
ARC
  5
105
330
1F
100
AcDbEntity
  8
0
  6
Continuous
 62
     7
370
    35
100
AcDbCircle
 10
594.6131507105
 20
10.2105536339
 30
0.0
 40
2.305207211358085
100
AcDbArc
 50
302.60547834
 51
357.3945215143
  0
ARC
  5
106
330
1F
100
AcDbEntity
  8
0
  6
Continuous
 62
     7
370
    35
100
AcDbCircle
 10
593.3709867303
 20
10.9276509962
 30
0.0
 40
4.610414422715849
100
AcDbArc
 50
302.60547834
 51
357.3945215143
  0
LINE
  5
107
330
1F
100
AcDbEntity
  8
0
  6
Continuous
 62
     7
370
    35
100
AcDbLine
 10
551.8379175619
 20
-1.2241892721
 30
0.0
 11
552.8985777337
 21
-0.6118831882
 31
0.0
  0
LWPOLYLINE
  5
108
330
1F
100
AcDbEntity
  8
0
  6
Continuous
 62
     7
370
    35
100
AcDbPolyline
 90
        3
 70
   128
 43
0.0
 10
553.6367740084
 20
-0.8699391965
 10
553.4994747673
 20
-0.8488716942
 10
552.8985777337
 20
-0.6118831882
  0
LINE
  5
109
330
1F
100
AcDbEntity
  8
0
  6
Continuous
 62
     7
370
    35
100
AcDbLine
 10
549.7165972184
 20
1.2250350634
 30
0.0
 11
548.6559370466
 21
0.6127289795
 31
0.0
  0
ARC
  5
10A
330
1F
100
AcDbEntity
  8
0
  6
Continuous
 62
     7
370
    35
100
AcDbCircle
 10
551.4049595099
 20
4.4186991182
 30
0.0
 40
3.612486307575001
100
AcDbArc
 50
164.8672839625
 51
242.1363849594
  0
LINE
  5
10B
330
1F
100
AcDbEntity
  8
0
  6
Continuous
 62
     7
370
    35
100
AcDbLine
 10
552.8985777337
 20
-0.6118831882
 30
0.0
 11
549.7165972184
 21
1.2250350634
 31
0.0
  0
LINE
  5
10C
330
1F
100
AcDbEntity
  8
0
  6
Continuous
 62
     7
370
    35
100
AcDbLine
 10
401.5777265598
 20
145.1266518768
 30
0.0
 11
402.6383867316
 21
145.7389579606
 31
0.0
  0
LWPOLYLINE
  5
10D
330
1F
100
AcDbEntity
  8
0
  6
Continuous
 62
     7
370
    35
100
AcDbPolyline
 90
        3
 70
   128
 43
0.0
 10
403.3765830063
 20
145.4809019523
 10
403.2392837652
 20
145.5019694547
 10
402.6383867316
 20
145.7389579606
  0
LINE
  5
10E
330
1F
100
AcDbEntity
  8
0
  6
Continuous
 62
     7
370
    35
100
AcDbLine
 10
399.4564062162
 20
147.5758762122
 30
0.0
 11
398.3957460445
 21
146.9635701284
 31
0.0
  0
ARC
  5
10F
330
1F
100
AcDbEntity
  8
0
  6
Continuous
 62
     7
370
    35
100
AcDbCircle
 10
401.1447685078
 20
150.769540267
 30
0.0
 40
3.612486307575004
100
AcDbArc
 50
164.8672839625
 51
242.1363849594
  0
LINE
  5
110
330
1F
100
AcDbEntity
  8
0
  6
Continuous
 62
     7
370
    35
100
AcDbLine
 10
402.6383867316
 20
145.7389579606
 30
0.0
 11
399.4564062162
 21
147.5758762122
 31
0.0
  0
ARC
  5
111
330
1F
100
AcDbEntity
  8
0
  6
Continuous
 62
     7
370
    35
100
AcDbCircle
 10
361.8706810752
 20
175.5009849696
 30
0.0
 40
1.508931707705905
100
AcDbArc
 50
54.3824225248
 51
114.3071190461
  0
LINE
  5
112
330
1F
100
AcDbEntity
  8
0
  6
Continuous
 62
     7
370
    35
100
AcDbLine
 10
401.5777265598
 20
85.5191726091
 30
0.0
 11
402.6383867316
 21
86.131478693
 31
0.0
  0
LWPOLYLINE
  5
113
330
1F
100
AcDbEntity
  8
0
  6
Continuous
 62
     7
370
    35
100
AcDbPolyline
 90
        3
 70
   128
 43
0.0
 10
403.3765830063
 20
85.8734226846
 10
403.2392837652
 20
85.894490187
 10
402.6383867316
 20
86.131478693
  0
LINE
  5
114
330
1F
100
AcDbEntity
  8
0
  6
Continuous
 62
     7
370
    35
100
AcDbLine
 10
399.4564062162
 20
87.9683969446
 30
0.0
 11
398.3957460445
 21
87.3560908607
 31
0.0
  0
ARC
  5
115
330
1F
100
AcDbEntity
  8
0
  6
Continuous
 62
     7
370
    35
100
AcDbCircle
 10
401.1447685078
 20
91.1620609993
 30
0.0
 40
3.612486307575407
100
AcDbArc
 50
164.8672839625
 51
242.1363849594
  0
LINE
  5
116
330
1F
100
AcDbEntity
  8
0
  6
Continuous
 62
     7
370
    35
100
AcDbLine
 10
402.6383867316
 20
86.131478693
 30
0.0
 11
399.4564062162
 21
87.9683969446
 31
0.0
  0
LINE
  5
117
330
1F
100
AcDbEntity
  8
0
  6
Continuous
 62
     7
370
    35
100
AcDbLine
 10
338.3017357587
 20
161.8386530926
 30
0.0
 11
339.3623959305
 21
162.4509591765
 31
0.0
  0
LINE
  5
118
330
1F
100
AcDbEntity
  8
0
  6
Continuous
 62
     7
370
    35
100
AcDbLine
 10
359.5674607244
 20
167.1241099879
 30
0.0
 11
339.3623959305
 21
162.4509591765
 31
0.0
  0
ARC
  5
119
330
1F
100
AcDbEntity
  8
0
  6
Continuous
 62
     7
370
    35
100
AcDbCircle
 10
340.1223847893
 20
159.1203374778
 30
0.0
 40
3.416229495420518
100
AcDbArc
 50
102.853810338
 51
119.9161776345
  0
LINE
  5
11A
330
1F
100
AcDbEntity
  8
0
  6
Continuous
 62
     7
370
    35
100
AcDbLine
 10
76.2633493815
 20
279.2198409762
 30
0.0
 11
77.7633493815
 21
279.2198409762
 31
0.0
  0
LINE
  5
11B
330
1F
100
AcDbEntity
  8
0
  6
Continuous
 62
     7
370
    35
100
AcDbLine
 10
76.2633493815
 20
235.2198409762
 30
0.0
 11
77.7633493815
 21
235.2198409762
 31
0.0
  0
LINE
  5
11C
330
1F
100
AcDbEntity
  8
0
  6
Continuous
 62
     7
370
    35
100
AcDbLine
 10
76.2633493815
 20
235.2198409762
 30
0.0
 11
76.2633493815
 21
279.2198409762
 31
0.0
  0
LINE
  5
11D
330
1F
100
AcDbEntity
  8
0
  6
Continuous
 62
     7
370
    35
100
AcDbLine
 10
77.7633493815
 20
235.2198409762
 30
0.0
 11
77.7633493815
 21
279.2198409762
 31
0.0
  0
LINE
  5
11E
330
1F
100
AcDbEntity
  8
0
  6
Continuous
 62
     7
370
    35
100
AcDbLine
 10
74.7633493815
 20
233.7198409762
 30
0.0
 11
74.7633493815
 21
232.2198409762
 31
0.0
  0
ARC
  5
11F
330
1F
100
AcDbEntity
  8
0
  6
Continuous
 62
     7
370
    35
100
AcDbCircle
 10
74.7633493815
 20
235.2198409762
 30
0.0
 40
1.500000000000057
100
AcDbArc
 50
270.0
 51
360.0
  0
ARC
  5
120
330
1F
100
AcDbEntity
  8
0
  6
Continuous
 62
     7
370
    35
100
AcDbCircle
 10
74.7633493815
 20
235.2198409762
 30
0.0
 40
3.0
100
AcDbArc
 50
270.0
 51
0.0
  0
LINE
  5
121
330
1F
100
AcDbEntity
  8
0
  6
Continuous
 62
     7
370
    35
100
AcDbLine
 10
74.7633493815
 20
280.7198409762
 30
0.0
 11
74.7633493815
 21
282.2198409762
 31
0.0
  0
ARC
  5
122
330
1F
100
AcDbEntity
  8
0
  6
Continuous
 62
     7
370
    35
100
AcDbCircle
 10
74.7633493815
 20
279.2198409762
 30
0.0
 40
3.0
100
AcDbArc
 50
0.0
 51
90.0
  0
ARC
  5
123
330
1F
100
AcDbEntity
  8
0
  6
Continuous
 62
     7
370
    35
100
AcDbCircle
 10
74.7633493815
 20
279.2198409762
 30
0.0
 40
1.500000000000057
100
AcDbArc
 50
0.0
 51
90.0
  0
LINE
  5
124
330
1F
100
AcDbEntity
  8
0
  6
Continuous
 62
     7
370
    35
100
AcDbLine
 10
50.7633493815
 20
282.2198409762
 30
0.0
 11
50.7633493815
 21
280.7198409762
 31
0.0
  0
LINE
  5
125
330
1F
100
AcDbEntity
  8
0
  6
Continuous
 62
     7
370
    35
100
AcDbLine
 10
50.7633493815
 20
280.7198409762
 30
0.0
 11
74.7633493815
 21
280.7198409762
 31
0.0
  0
LINE
  5
126
330
1F
100
AcDbEntity
  8
0
  6
Continuous
 62
     7
370
    35
100
AcDbLine
 10
50.7633493815
 20
282.2198409762
 30
0.0
 11
74.7633493815
 21
282.2198409762
 31
0.0
  0
LINE
  5
127
330
1F
100
AcDbEntity
  8
0
  6
Continuous
 62
     7
370
    35
100
AcDbLine
 10
50.7633493815
 20
232.2198409762
 30
0.0
 11
50.7633493815
 21
233.7198409762
 31
0.0
  0
LINE
  5
128
330
1F
100
AcDbEntity
  8
0
  6
Continuous
 62
     7
370
    35
100
AcDbLine
 10
74.7633493815
 20
233.7198409762
 30
0.0
 11
50.7633493815
 21
233.7198409762
 31
0.0
  0
LINE
  5
129
330
1F
100
AcDbEntity
  8
0
  6
Continuous
 62
     7
370
    35
100
AcDbLine
 10
74.7633493815
 20
232.2198409762
 30
0.0
 11
50.7633493815
 21
232.2198409762
 31
0.0
  0
LINE
  5
12A
330
1F
100
AcDbEntity
  8
0
  6
Continuous
 62
     7
370
    35
100
AcDbLine
 10
49.2633493815
 20
230.7198409762
 30
0.0
 11
47.7633493815
 21
230.7198409762
 31
0.0
  0
LINE
  5
12B
330
1F
100
AcDbEntity
  8
0
  6
Continuous
 62
     7
370
    35
100
AcDbLine
 10
47.7633493815
 20
216.7198409762
 30
0.0
 11
49.2633493815
 21
216.7198409762
 31
0.0
  0
LINE
  5
12C
330
1F
100
AcDbEntity
  8
0
  6
Continuous
 62
     7
370
    35
100
AcDbLine
 10
47.7633493815
 20
216.7198409762
 30
0.0
 11
47.7633493815
 21
230.7198409762
 31
0.0
  0
LINE
  5
12D
330
1F
100
AcDbEntity
  8
0
  6
Continuous
 62
     7
370
    35
100
AcDbLine
 10
49.2633493815
 20
216.7198409762
 30
0.0
 11
49.2633493815
 21
230.7198409762
 31
0.0
  0
ARC
  5
12E
330
1F
100
AcDbEntity
  8
0
  6
Continuous
 62
     7
370
    35
100
AcDbCircle
 10
50.7633493815
 20
230.7198409762
 30
0.0
 40
3.000000000000028
100
AcDbArc
 50
90.0
 51
180.0
  0
ARC
  5
12F
330
1F
100
AcDbEntity
  8
0
  6
Continuous
 62
     7
370
    35
100
AcDbCircle
 10
50.7633493815
 20
230.7198409762
 30
0.0
 40
1.5
100
AcDbArc
 50
90.0
 51
180.0
  0
LINE
  5
130
330
1F
100
AcDbEntity
  8
0
  6
Continuous
 62
     7
370
    35
100
AcDbLine
 10
47.7633493815
 20
300.7198409762
 30
0.0
 11
49.2633493815
 21
300.7198409762
 31
0.0
  0
LINE
  5
131
330
1F
100
AcDbEntity
  8
0
  6
Continuous
 62
     7
370
    35
100
AcDbLine
 10
49.2633493815
 20
300.7198409762
 30
0.0
 11
49.2633493815
 21
297.7198409762
 31
0.0
  0
LINE
  5
132
330
1F
100
AcDbEntity
  8
0
  6
Continuous
 62
     7
370
    35
100
AcDbLine
 10
49.2633493815
 20
297.7198409762
 30
0.0
 11
47.7633493815
 21
297.7198409762
 31
0.0
  0
LINE
  5
133
330
1F
100
AcDbEntity
  8
0
  6
Continuous
 62
     7
370
    35
100
AcDbLine
 10
47.7633493815
 20
297.7198409762
 30
0.0
 11
47.7633493815
 21
300.7198409762
 31
0.0
  0
LINE
  5
134
330
1F
100
AcDbEntity
  8
0
  6
Continuous
 62
     7
370
    35
100
AcDbLine
 10
49.2633493815
 20
213.7198409762
 30
0.0
 11
47.7633493815
 21
213.7198409762
 31
0.0
  0
LINE
  5
135
330
1F
100
AcDbEntity
  8
0
  6
Continuous
 62
     7
370
    35
100
AcDbLine
 10
47.7633493815
 20
213.7198409762
 30
0.0
 11
47.7633493815
 21
216.7198409762
 31
0.0
  0
LINE
  5
136
330
1F
100
AcDbEntity
  8
0
  6
Continuous
 62
     7
370
    35
100
AcDbLine
 10
49.2633493815
 20
216.7198409762
 30
0.0
 11
49.2633493815
 21
213.7198409762
 31
0.0
  0
ARC
  5
137
330
1F
100
AcDbEntity
  8
0
  6
Continuous
 62
     7
370
    35
100
AcDbCircle
 10
50.7633493815
 20
283.7198409762
 30
0.0
 40
1.5
100
AcDbArc
 50
180.0
 51
270.0
  0
LINE
  5
138
330
1F
100
AcDbEntity
  8
0
  6
Continuous
 62
     7
370
    35
100
AcDbLine
 10
49.2633493815
 20
283.7198409762
 30
0.0
 11
47.7633493815
 21
283.7198409762
 31
0.0
  0
ARC
  5
139
330
1F
100
AcDbEntity
  8
0
  6
Continuous
 62
     7
370
    35
100
AcDbCircle
 10
50.7633493815
 20
283.7198409762
 30
0.0
 40
3.000000000001137
100
AcDbArc
 50
180.0
 51
270.0
  0
LINE
  5
13A
330
1F
100
AcDbEntity
  8
0
  6
Continuous
 62
     7
370
    35
100
AcDbLine
 10
47.7633493815
 20
283.7198409762
 30
0.0
 11
47.7633493815
 21
297.7198409762
 31
0.0
  0
LINE
  5
13B
330
1F
100
AcDbEntity
  8
0
  6
Continuous
 62
     7
370
    35
100
AcDbLine
 10
49.2633493815
 20
283.7198409762
 30
0.0
 11
49.2633493815
 21
297.7198409762
 31
0.0
  0
LINE
  5
13C
330
1F
100
AcDbEntity
  8
0
  6
CENTERX2
 62
     7
100
AcDbLine
 10
44.9709335292
 20
-127.6725908121
 30
0.0
 11
414.9709335292
 21
-127.6725908121
 31
0.0
  0
LINE
  5
13D
330
1F
100
AcDbEntity
  8
0
  6
CENTERX2
 62
     7
100
AcDbLine
 10
414.9709335292
 20
-26.6672154706
 30
0.0
 11
107.8094458258
 21
-26.6672154706
 31
0.0
  0
LINE
  5
13E
330
1F
100
AcDbEntity
  8
0
  6
CENTERX2
 62
     7
100
AcDbLine
 10
45.6825189685
 20
-100.6707990316
 30
0.0
 11
414.9709335292
 21
-100.6707990316
 31
0.0
  0
LINE
  5
13F
330
1F
100
AcDbEntity
  8
0
  6
CENTERX2
 62
     7
100
AcDbLine
 10
414.9709335292
 20
-53.6690072511
 30
0.0
 11
107.0978603864
 21
-53.6690072511
 31
0.0
  0
LINE
  5
140
330
1F
100
AcDbEntity
  8
0
  6
Continuous
 62
     7
370
    35
100
AcDbLine
 10
375.2209335292
 20
-17.9163195804
 30
0.0
 11
379.7209335292
 21
-17.9163195804
 31
0.0
  0
ARC
  5
141
330
1F
100
AcDbEntity
  8
0
  6
Continuous
 62
     7
370
    35
100
AcDbCircle
 10
379.7209335292
 20
-15.1663195804
 30
0.0
 40
2.750000000000009
100
AcDbArc
 50
270.0
 51
90.0
  0
LINE
  5
142
330
1F
100
AcDbEntity
  8
0
  6
Continuous
 62
     7
370
    35
100
AcDbLine
 10
375.2209335292
 20
-12.4163195804
 30
0.0
 11
379.7209335292
 21
-12.4163195804
 31
0.0
  0
ARC
  5
143
330
1F
100
AcDbEntity
  8
0
  6
Continuous
 62
     7
370
    35
100
AcDbCircle
 10
375.2209335292
 20
-15.1663195804
 30
0.0
 40
2.750000000000002
100
AcDbArc
 50
90.0
 51
270.0
  0
LINE
  5
144
330
1F
100
AcDbEntity
  8
0
  6
Continuous
 62
     7
370
    35
100
AcDbLine
 10
162.7209335292
 20
-17.9163195804
 30
0.0
 11
167.2209335292
 21
-17.9163195804
 31
0.0
  0
ARC
  5
145
330
1F
100
AcDbEntity
  8
0
  6
Continuous
 62
     7
370
    35
100
AcDbCircle
 10
167.2209335292
 20
-15.1663195804
 30
0.0
 40
2.749999999999989
100
AcDbArc
 50
270.0
 51
90.0
  0
LINE
  5
146
330
1F
100
AcDbEntity
  8
0
  6
Continuous
 62
     7
370
    35
100
AcDbLine
 10
162.7209335292
 20
-12.4163195804
 30
0.0
 11
167.2209335292
 21
-12.4163195804
 31
0.0
  0
ARC
  5
147
330
1F
100
AcDbEntity
  8
0
  6
Continuous
 62
     7
370
    35
100
AcDbCircle
 10
162.7209335292
 20
-15.1663195804
 30
0.0
 40
2.750000000000009
100
AcDbArc
 50
90.0
 51
270.0
  0
ARC
  5
148
330
1F
100
AcDbEntity
  8
0
  6
Continuous
 62
     7
370
    35
100
AcDbCircle
 10
379.7209335292
 20
-139.1734867024
 30
0.0
 40
2.750000000000028
100
AcDbArc
 50
270.0
 51
90.0
  0
LINE
  5
149
330
1F
100
AcDbEntity
  8
0
  6
Continuous
 62
     7
370
    35
100
AcDbLine
 10
375.2209335292
 20
-136.4234867024
 30
0.0
 11
379.7209335292
 21
-136.4234867024
 31
0.0
  0
ARC
  5
14A
330
1F
100
AcDbEntity
  8
0
  6
Continuous
 62
     7
370
    35
100
AcDbCircle
 10
375.2209335292
 20
-139.1734867024
 30
0.0
 40
2.75
100
AcDbArc
 50
90.0
 51
270.0
  0
LINE
  5
14B
330
1F
100
AcDbEntity
  8
0
  6
Continuous
 62
     7
370
    35
100
AcDbLine
 10
375.2209335292
 20
-141.9234867024
 30
0.0
 11
379.7209335292
 21
-141.9234867024
 31
0.0
  0
ARC
  5
14C
330
1F
100
AcDbEntity
  8
0
  6
Continuous
 62
     7
370
    35
100
AcDbCircle
 10
167.2209335292
 20
-139.1734867024
 30
0.0
 40
2.750000000000028
100
AcDbArc
 50
270.0
 51
90.0
  0
LINE
  5
14D
330
1F
100
AcDbEntity
  8
0
  6
Continuous
 62
     7
370
    35
100
AcDbLine
 10
162.7209335292
 20
-136.4234867024
 30
0.0
 11
167.2209335292
 21
-136.4234867024
 31
0.0
  0
ARC
  5
14E
330
1F
100
AcDbEntity
  8
0
  6
Continuous
 62
     7
370
    35
100
AcDbCircle
 10
162.7209335292
 20
-139.1734867024
 30
0.0
 40
2.75
100
AcDbArc
 50
90.0
 51
270.0
  0
LINE
  5
14F
330
1F
100
AcDbEntity
  8
0
  6
Continuous
 62
     7
370
    35
100
AcDbLine
 10
162.7209335292
 20
-141.9234867024
 30
0.0
 11
167.2209335292
 21
-141.9234867024
 31
0.0
  0
LINE
  5
150
330
1F
100
AcDbEntity
  8
0
  6
Continuous
 62
     7
370
    35
100
AcDbLine
 10
49.2351691657
 20
-96.184053204
 30
0.0
 11
103.5452101893
 21
-58.1557530788
 31
0.0
  0
ARC
  5
151
330
1F
100
AcDbEntity
  8
0
  6
Continuous
 62
     7
370
    35
100
AcDbCircle
 10
97.8094458258
 20
-49.9642326359
 30
0.0
 40
10.0
100
AcDbArc
 50
305.0
 51
0.0
  0
LINE
  5
152
330
1F
100
AcDbEntity
  8
0
  6
Continuous
 62
     7
370
    35
100
AcDbLine
 10
107.8094458258
 20
-11.1663195804
 30
0.0
 11
107.8094458258
 21
-49.9642326359
 31
0.0
  0
ARC
  5
153
330
1F
100
AcDbEntity
  8
0
  6
Continuous
 62
     7
370
    35
100
AcDbCircle
 10
110.8094458258
 20
-11.1663195804
 30
0.0
 40
3.00000000000003
100
AcDbArc
 50
90.0
 51
180.0
  0
LINE
  5
154
330
1F
100
AcDbEntity
  8
0
  6
Continuous
 62
     7
370
    35
100
AcDbLine
 10
411.9709335292
 20
-8.1663195804
 30
0.0
 11
110.8094458258
 21
-8.1663195804
 31
0.0
  0
ARC
  5
155
330
1F
100
AcDbEntity
  8
0
  6
Continuous
 62
     7
370
    35
100
AcDbCircle
 10
411.9709335292
 20
-11.1663195804
 30
0.0
 40
3.000000000000016
100
AcDbArc
 50
0.0
 51
90.0
  0
LINE
  5
156
330
1F
100
AcDbEntity
  8
0
  6
Continuous
 62
     7
370
    35
100
AcDbLine
 10
414.9709335292
 20
-143.1734867024
 30
0.0
 11
414.9709335292
 21
-11.1663195804
 31
0.0
  0
ARC
  5
157
330
1F
100
AcDbEntity
  8
0
  6
Continuous
 62
     7
370
    35
100
AcDbCircle
 10
411.9709335292
 20
-143.1734867024
 30
0.0
 40
3.0
100
AcDbArc
 50
270.0
 51
0.0
  0
LINE
  5
158
330
1F
100
AcDbEntity
  8
0
  6
Continuous
 62
     7
370
    35
100
AcDbLine
 10
47.9709335292
 20
-146.1734867024
 30
0.0
 11
411.9709335292
 21
-146.1734867024
 31
0.0
  0
ARC
  5
159
330
1F
100
AcDbEntity
  8
0
  6
Continuous
 62
     7
370
    35
100
AcDbCircle
 10
47.9709335292
 20
-143.1734867024
 30
0.0
 40
3.0
100
AcDbArc
 50
180.0
 51
270.0
  0
LINE
  5
15A
330
1F
100
AcDbEntity
  8
0
  6
Continuous
 62
     7
370
    35
100
AcDbLine
 10
44.9709335292
 20
-104.3755736469
 30
0.0
 11
44.9709335292
 21
-143.1734867024
 31
0.0
  0
ARC
  5
15B
330
1F
100
AcDbEntity
  8
0
  6
Continuous
 62
     7
370
    35
100
AcDbCircle
 10
54.9709335292
 20
-104.3755736469
 30
0.0
 40
10.0
100
AcDbArc
 50
125.0
 51
180.0
  0
MTEXT
  5
15D
330
1F
100
AcDbEntity
  8
0
  6
Continuous
 62
     7
370
     0
100
AcDbMText
 10
229.0907235617
 20
-123.7700787131
 30
0.0
 40
3.0
 41
0.0
 71
     2
 72
     1
  1
DOWN  90  R 1.5
  7
SLDTEXTSTYLE1
 73
     1
 44
1.0
  0
MTEXT
  5
15E
330
1F
100
AcDbEntity
  8
0
  6
Continuous
 62
     7
370
     0
100
AcDbMText
 10
260.50997971
 20
-22.7647033715
 30
0.0
 40
3.0
 41
0.0
 71
     2
 72
     1
  1
DOWN  90  R 1.5
  7
SLDTEXTSTYLE1
 73
     1
 44
1.0
  0
MTEXT
  5
160
330
1F
100
AcDbEntity
  8
0
  6
Continuous
 62
     7
370
     0
100
AcDbMText
 10
229.495476006
 20
-96.7682869326
 30
0.0
 40
3.0
 41
0.0
 71
     2
 72
     1
  1
UP  90  R 1.5
  7
SLDTEXTSTYLE2
 73
     1
 44
1.0
  0
MTEXT
  5
161
330
1F
100
AcDbEntity
  8
0
  6
Continuous
 62
     7
370
     0
100
AcDbMText
 10
260.2031467149
 20
-49.766495152
 30
0.0
 40
3.0
 41
0.0
 71
     2
 72
     1
  1
UP  90  R 1.5
  7
SLDTEXTSTYLE2
 73
     1
 44
1.0
  0
LINE
  5
162
330
1F
100
AcDbEntity
  8
0
  6
Continuous
 62
     7
370
    35
100
AcDbLine
 10
440.9585579783
 20
-146.457883053
 30
0.0
 11
464.9585579783
 21
-146.457883053
 31
0.0
  0
ARC
  5
163
330
1F
100
AcDbEntity
  8
0
  6
Continuous
 62
     7
370
    35
100
AcDbCircle
 10
440.9585579783
 20
-143.457883053
 30
0.0
 40
3.000000000000028
100
AcDbArc
 50
180.0
 51
270.0
  0
LINE
  5
164
330
1F
100
AcDbEntity
  8
0
  6
Continuous
 62
     7
370
    35
100
AcDbLine
 10
437.9585579783
 20
-99.457883053
 30
0.0
 11
437.9585579783
 21
-143.457883053
 31
0.0
  0
ARC
  5
165
330
1F
100
AcDbEntity
  8
0
  6
Continuous
 62
     7
370
    35
100
AcDbCircle
 10
440.9585579783
 20
-99.457883053
 30
0.0
 40
3.0
100
AcDbArc
 50
90.0
 51
180.0
  0
LINE
  5
166
330
1F
100
AcDbEntity
  8
0
  6
Continuous
 62
     7
370
    35
100
AcDbLine
 10
464.9585579783
 20
-96.457883053
 30
0.0
 11
440.9585579783
 21
-96.457883053
 31
0.0
  0
ARC
  5
167
330
1F
100
AcDbEntity
  8
0
  6
Continuous
 62
     7
370
    35
100
AcDbCircle
 10
464.9585579783
 20
-99.457883053
 30
0.0
 40
3.0
100
AcDbArc
 50
0.0
 51
90.0
  0
LINE
  5
168
330
1F
100
AcDbEntity
  8
0
  6
Continuous
 62
     7
370
    35
100
AcDbLine
 10
467.9585579783
 20
-143.457883053
 30
0.0
 11
467.9585579783
 21
-99.457883053
 31
0.0
  0
ARC
  5
169
330
1F
100
AcDbEntity
  8
0
  6
Continuous
 62
     7
370
    35
100
AcDbCircle
 10
464.9585579783
 20
-143.457883053
 30
0.0
 40
3.000000000000028
100
AcDbArc
 50
270.0
 51
0.0
  0
ENDSEC
  0
SECTION
  2
OBJECTS
  0
DICTIONARY
  5
C
330
0
100
AcDbDictionary
281
     1
  3
ACAD_GROUP
350
D
  3
ACAD_LAYOUT
350
1A
  3
ACAD_MLINESTYLE
350
17
  3
ACAD_PLOTSETTINGS
350
19
  3
ACAD_PLOTSTYLENAME
350
E
  3
ACAD_SCALELIST
350
47
  3
DWGPROPS
350
16A
  0
DICTIONARY
  5
D
102
{ACAD_REACTORS
330
C
102
}
330
C
100
AcDbDictionary
281
     1
  0
DICTIONARY
  5
1A
102
{ACAD_REACTORS
330
C
102
}
330
C
100
AcDbDictionary
281
     1
  3
Layout1
350
1E
  3
Layout2
350
26
  3
Model
350
22
  0
DICTIONARY
  5
17
102
{ACAD_REACTORS
330
C
102
}
330
C
100
AcDbDictionary
281
     1
  3
Standard
350
18
  0
DICTIONARY
  5
19
102
{ACAD_REACTORS
330
C
102
}
330
C
100
AcDbDictionary
281
     1
  0
ACDBDICTIONARYWDFLT
  5
E
102
{ACAD_REACTORS
330
C
102
}
330
C
100
AcDbDictionary
281
     1
  3
Normal
350
F
100
AcDbDictionaryWithDefault
340
F
  0
DICTIONARY
  5
47
102
{ACAD_REACTORS
330
C
102
}
330
C
100
AcDbDictionary
281
     1
  3
A0
350
48
  3
A1
350
49
  3
A2
350
4A
  3
A3
350
4B
  3
A4
350
4C
  3
A5
350
4D
  3
A6
350
4E
  3
A7
350
4F
  3
A8
350
50
  3
A9
350
51
  3
B0
350
52
  3
B1
350
53
  3
B2
350
54
  3
B3
350
55
  3
B4
350
56
  3
B5
350
57
  3
B6
350
58
  3
B7
350
59
  3
B8
350
5A
  3
B9
350
5B
  3
C0
350
5C
  3
C1
350
5D
  3
C2
350
5E
  3
C3
350
5F
  3
C4
350
60
  3
C5
350
61
  3
C6
350
62
  3
C7
350
63
  3
C8
350
64
  3
C9
350
65
  3
D0
350
66
  3
D1
350
67
  3
D2
350
68
  0
XRECORD
  5
16A
102
{ACAD_REACTORS
330
C
102
}
330
C
100
AcDbXrecord
280
     1
  1
DWGPROPS COOKIE
  2

  3

  4

  6

  7

  8
K8
  9

300
=
301
=
302
=
303
=
304
=
305
=
306
=
307
=
308
=
309
=
 40
0.0
 41
2459424.492373252
 42
2459424.492374317
  1

 90
        0
  0
LAYOUT
  5
1E
102
{ACAD_REACTORS
330
1A
102
}
330
1A
100
AcDbPlotSettings
  1

  2
none_device
  4

  6

 40
0.0
 41
0.0
 42
0.0
 43
0.0
 44
0.0
 45
0.0
 46
0.0
 47
0.0
 48
0.0
 49
0.0
140
0.0
141
0.0
142
1.0
143
1.0
 70
   688
 72
     1
 73
     0
 74
     5
  7

 75
    16
147
1.0
148
0.0
149
0.0
100
AcDbLayout
  1
Layout1
 70
     1
 71
     1
 10
0.0
 20
0.0
 11
420.0
 21
297.0
 12
0.0
 22
0.0
 32
0.0
 14
1.0000000000E+20
 24
1.0000000000E+20
 34
1.0000000000E+20
 15
-1.0000000000E+20
 25
-1.0000000000E+20
 35
-1.0000000000E+20
146
0.0
 13
0.0
 23
0.0
 33
0.0
 16
1.0
 26
0.0
 36
0.0
 17
0.0
 27
1.0
 37
0.0
 76
     0
330
1B
  0
LAYOUT
  5
26
102
{ACAD_REACTORS
330
1A
102
}
330
1A
100
AcDbPlotSettings
  1

  2
none_device
  4

  6

 40
0.0
 41
0.0
 42
0.0
 43
0.0
 44
0.0
 45
0.0
 46
0.0
 47
0.0
 48
0.0
 49
0.0
140
0.0
141
0.0
142
1.0
143
1.0
 70
   688
 72
     1
 73
     0
 74
     5
  7

 75
    16
147
1.0
148
0.0
149
0.0
100
AcDbLayout
  1
Layout2
 70
     1
 71
     2
 10
0.0
 20
0.0
 11
0.0
 21
0.0
 12
0.0
 22
0.0
 32
0.0
 14
0.0
 24
0.0
 34
0.0
 15
0.0
 25
0.0
 35
0.0
146
0.0
 13
0.0
 23
0.0
 33
0.0
 16
1.0
 26
0.0
 36
0.0
 17
0.0
 27
1.0
 37
0.0
 76
     0
330
23
  0
LAYOUT
  5
22
102
{ACAD_REACTORS
330
1A
102
}
330
1A
100
AcDbPlotSettings
  1

  2
none_device
  4
Letter_(8.50_x_11.00_Inches)
  6

 40
6.35
 41
6.35
 42
6.35000508
 43
6.35000508
 44
215.9
 45
279.4
 46
0.0
 47
0.0
 48
0.0
 49
0.0
140
0.0
141
0.0
142
1.0
143
1.0
 70
  1712
 72
     1
 73
     0
 74
     0
  7

 75
     0
147
1.0
148
0.0
149
0.0
100
AcDbLayout
  1
Model
 70
     1
 71
     0
 10
0.0
 20
0.0
 11
297.0
 21
210.0
 12
0.0
 22
0.0
 32
0.0
 14
0.0
 24
0.0
 34
0.0
 15
297.0
 25
210.0
 35
0.0
146
0.0
 13
0.0
 23
0.0
 33
0.0
 16
1.0
 26
0.0
 36
0.0
 17
0.0
 27
1.0
 37
0.0
 76
     0
330
1F
331
29
  0
MLINESTYLE
  5
18
102
{ACAD_REACTORS
330
17
102
}
330
17
100
AcDbMlineStyle
  2
Standard
 70
     0
  3

 62
   256
 51
90.0
 52
90.0
 71
     2
 49
0.5
 62
   256
  6
BYLAYER
 49
-0.5
 62
   256
  6
BYLAYER
  0
ACDBPLACEHOLDER
  5
F
102
{ACAD_REACTORS
330
E
102
}
330
E
  0
SCALE
  5
48
102
{ACAD_REACTORS
330
47
102
}
330
47
100
AcDbScale
 70
     0
300
1:1
140
1.0
141
1.0
290
     1
  0
SCALE
  5
49
102
{ACAD_REACTORS
330
47
102
}
330
47
100
AcDbScale
 70
     0
300
1:2
140
1.0
141
2.0
290
     0
  0
SCALE
  5
4A
102
{ACAD_REACTORS
330
47
102
}
330
47
100
AcDbScale
 70
     0
300
1:4
140
1.0
141
4.0
290
     0
  0
SCALE
  5
4B
102
{ACAD_REACTORS
330
47
102
}
330
47
100
AcDbScale
 70
     0
300
1:5
140
1.0
141
5.0
290
     0
  0
SCALE
  5
4C
102
{ACAD_REACTORS
330
47
102
}
330
47
100
AcDbScale
 70
     0
300
1:8
140
1.0
141
8.0
290
     0
  0
SCALE
  5
4D
102
{ACAD_REACTORS
330
47
102
}
330
47
100
AcDbScale
 70
     0
300
1:10
140
1.0
141
10.0
290
     0
  0
SCALE
  5
4E
102
{ACAD_REACTORS
330
47
102
}
330
47
100
AcDbScale
 70
     0
300
1:16
140
1.0
141
16.0
290
     0
  0
SCALE
  5
4F
102
{ACAD_REACTORS
330
47
102
}
330
47
100
AcDbScale
 70
     0
300
1:20
140
1.0
141
20.0
290
     0
  0
SCALE
  5
50
102
{ACAD_REACTORS
330
47
102
}
330
47
100
AcDbScale
 70
     0
300
1:30
140
1.0
141
30.0
290
     0
  0
SCALE
  5
51
102
{ACAD_REACTORS
330
47
102
}
330
47
100
AcDbScale
 70
     0
300
1:40
140
1.0
141
40.0
290
     0
  0
SCALE
  5
52
102
{ACAD_REACTORS
330
47
102
}
330
47
100
AcDbScale
 70
     0
300
1:50
140
1.0
141
50.0
290
     0
  0
SCALE
  5
53
102
{ACAD_REACTORS
330
47
102
}
330
47
100
AcDbScale
 70
     0
300
1:100
140
1.0
141
100.0
290
     0
  0
SCALE
  5
54
102
{ACAD_REACTORS
330
47
102
}
330
47
100
AcDbScale
 70
     0
300
2:1
140
2.0
141
1.0
290
     0
  0
SCALE
  5
55
102
{ACAD_REACTORS
330
47
102
}
330
47
100
AcDbScale
 70
     0
300
4:1
140
4.0
141
1.0
290
     0
  0
SCALE
  5
56
102
{ACAD_REACTORS
330
47
102
}
330
47
100
AcDbScale
 70
     0
300
8:1
140
8.0
141
1.0
290
     0
  0
SCALE
  5
57
102
{ACAD_REACTORS
330
47
102
}
330
47
100
AcDbScale
 70
     0
300
10:1
140
10.0
141
1.0
290
     0
  0
SCALE
  5
58
102
{ACAD_REACTORS
330
47
102
}
330
47
100
AcDbScale
 70
     0
300
100:1
140
100.0
141
1.0
290
     0
  0
SCALE
  5
59
102
{ACAD_REACTORS
330
47
102
}
330
47
100
AcDbScale
 70
     0
300
1/128" = 1'-0"
140
0.0078125
141
12.0
290
     0
  0
SCALE
  5
5A
102
{ACAD_REACTORS
330
47
102
}
330
47
100
AcDbScale
 70
     0
300
1/64" = 1'-0"
140
0.015625
141
12.0
290
     0
  0
SCALE
  5
5B
102
{ACAD_REACTORS
330
47
102
}
330
47
100
AcDbScale
 70
     0
300
1/32" = 1'-0"
140
0.03125
141
12.0
290
     0
  0
SCALE
  5
5C
102
{ACAD_REACTORS
330
47
102
}
330
47
100
AcDbScale
 70
     0
300
1/16" = 1'-0"
140
0.0625
141
12.0
290
     0
  0
SCALE
  5
5D
102
{ACAD_REACTORS
330
47
102
}
330
47
100
AcDbScale
 70
     0
300
3/32" = 1'-0"
140
0.09375
141
12.0
290
     0
  0
SCALE
  5
5E
102
{ACAD_REACTORS
330
47
102
}
330
47
100
AcDbScale
 70
     0
300
1/8" = 1'-0"
140
0.125
141
12.0
290
     0
  0
SCALE
  5
5F
102
{ACAD_REACTORS
330
47
102
}
330
47
100
AcDbScale
 70
     0
300
3/16" = 1'-0"
140
0.1875
141
12.0
290
     0
  0
SCALE
  5
60
102
{ACAD_REACTORS
330
47
102
}
330
47
100
AcDbScale
 70
     0
300
1/4" = 1'-0"
140
0.25
141
12.0
290
     0
  0
SCALE
  5
61
102
{ACAD_REACTORS
330
47
102
}
330
47
100
AcDbScale
 70
     0
300
3/8" = 1'-0"
140
0.375
141
12.0
290
     0
  0
SCALE
  5
62
102
{ACAD_REACTORS
330
47
102
}
330
47
100
AcDbScale
 70
     0
300
1/2" = 1'-0"
140
0.5
141
12.0
290
     0
  0
SCALE
  5
63
102
{ACAD_REACTORS
330
47
102
}
330
47
100
AcDbScale
 70
     0
300
3/4" = 1'-0"
140
0.75
141
12.0
290
     0
  0
SCALE
  5
64
102
{ACAD_REACTORS
330
47
102
}
330
47
100
AcDbScale
 70
     0
300
1" = 1'-0"
140
1.0
141
12.0
290
     0
  0
SCALE
  5
65
102
{ACAD_REACTORS
330
47
102
}
330
47
100
AcDbScale
 70
     0
300
1-1/2" = 1'-0"
140
1.5
141
12.0
290
     0
  0
SCALE
  5
66
102
{ACAD_REACTORS
330
47
102
}
330
47
100
AcDbScale
 70
     0
300
3" = 1'-0"
140
3.0
141
12.0
290
     0
  0
SCALE
  5
67
102
{ACAD_REACTORS
330
47
102
}
330
47
100
AcDbScale
 70
     0
300
6" = 1'-0"
140
6.0
141
12.0
290
     0
  0
SCALE
  5
68
102
{ACAD_REACTORS
330
47
102
}
330
47
100
AcDbScale
 70
     0
300
1'-0" = 1'-0"
140
12.0
141
12.0
290
     0
  0
ENDSEC
  0
EOF
